<?xml version="1.0" encoding="utf-8"?>
<!-- Generator: Adobe Illustrator 19.2.1, SVG Export Plug-In . SVG Version: 6.00 Build 0)  -->
<svg version="1.1" id="Layer_1_copy" xmlns="http://www.w3.org/2000/svg" xmlns:xlink="http://www.w3.org/1999/xlink" x="0px"
	 y="0px" viewBox="0 0 71.1470871 72.0001221" style="enable-background:new 0 0 71.1470871 72.0001221;" xml:space="preserve">
<style type="text/css">
	.st0{display:none;}
	.st1{display:inline;fill:#A4CC39;}
	.st2{fill:none;}
	.st3{fill:#A2CB3A;}
	.st4{fill:#FFFFFF;}
	.st5{fill:#010101;}
</style>
<g>
	<g class="st0">
		<circle class="st1" cx="32.4855347" cy="40.3132439" r="54"/>
	</g>
	<g>
		<polygon class="st2" points="11.9914551,70 11.9915771,70.0001221 15.1634521,70.0001221 15.1633301,70 		"/>
		<polygon class="st2" points="17.9914551,70 17.9915771,70.0001221 21.1634521,70.0001221 21.1633301,70 		"/>
		<polygon class="st2" points="5.9914551,70 5.9915771,70.0001221 9.1634521,70.0001221 9.1633301,70 		"/>
		<polygon class="st2" points="23.9914551,70 23.9915771,70.0001221 27.1634521,70.0001221 27.1633301,70 		"/>
		<polygon class="st2" points="29.9914551,70 29.9915771,70.0001221 33.1634521,70.0001221 33.1633301,70 		"/>
		<polygon class="st2" points="41.9914551,70 41.9915771,70.0001221 45.1634521,70.0001221 45.1633301,70 		"/>
		<polygon class="st2" points="35.9914551,70 35.9915771,70.0001221 39.1634521,70.0001221 39.1633301,70 		"/>
		
			<ellipse transform="matrix(0.7070557 -0.7071579 0.7071579 0.7070557 -5.662004 12.3321085)" class="st2" cx="12.0536499" cy="13" rx="0.5978729" ry="0.5978729"/>
		<rect x="2" y="69.9999847" class="st2" width="1.1633911" height="0.0001474"/>
		<path class="st3" d="M12.9022217,13.8485107c0.4686279-0.4686279,0.4686279-1.2283936,0-1.6970215
			s-1.2283936-0.4686279-1.6970215,0c-0.46875,0.4686279-0.46875,1.2283936,0,1.6970215
			C11.6738281,14.3171387,12.4335938,14.3171387,12.9022217,13.8485107z M11.6308594,12.5772705
			c0.2335205-0.2335205,0.6120605-0.2335205,0.8455811,0s0.2335205,0.6120605,0,0.845459
			c-0.2335205,0.2336426-0.6120605,0.2336426-0.8455811,0C11.3973389,13.1893311,11.3973389,12.810791,11.6308594,12.5772705z"/>
		
			<ellipse transform="matrix(0.3895813 -0.9209921 0.9209921 0.3895813 2.7337151 14.9040136)" class="st3" cx="12.6103516" cy="5.3897095" rx="0.6101443" ry="0.6102242"/>
		
			<ellipse transform="matrix(0.921028 -0.3894964 0.3894964 0.921028 -4.9999752 8.5604181)" class="st4" cx="18.6103516" cy="16.6103516" rx="0.6102005" ry="0.6102005"/>
		<path class="st3" d="M20,12c0.1220703,0,0.2370605-0.0251465,0.3563232-0.0358887C21.1728516,14.3076172,23.3781738,16,26,16
			c2.7701416,0,5.0784912-1.8874512,5.7689209-4.439209C32.4597168,11.8382568,33.2099609,12,34,12
			c0.7277832,0,1.4162598-0.149292,2.0617676-0.3865967C36.3673096,14.0821533,38.4486084,16,41,16c2.7614746,0,5-2.2385254,5-5
			c0-2.7613525-2.2385254-5-5-5c-0.3461914,0-0.684082,0.0354004-1.010376,0.102417C39.9902344,6.0675049,40,6.0350342,40,6
			c0-3.3137207-2.6862793-6-6-6c-1.0985107,0-2.1143799,0.3167725-3,0.8321533C30.1143799,0.3167725,29.0985107,0,28,0
			c-2.8460693,0-5.2167969,1.9866943-5.8328857,4.6453857C21.5418701,4.2406006,20.8001709,4,20,4c-2.2091064,0-4,1.7908936-4,4
			C16,10.2092285,17.7908936,12,20,12z"/>
		<path class="st5" d="M70.6582031,51.3431396c-0.4707031-0.28125-1.0878906-0.1287842-1.3710938,0.3497314L63.21521,61.9033203
			l-0.2952881-50.050415c-0.0039062-0.5507812-0.4511719-1.0800781-1-1.0800781c-0.0019531,0-0.0039062,0-0.0058594,0
			c-0.5527344,0-0.9980469,0.4824219-0.9941406,1.0351562l0.2935791,49.8625488l-5.6861572-10.1433105
			c-0.2714844-0.4824219-0.8808594-0.6342773-1.3613281-0.3686523c-0.4824219,0.2714844-0.6542969,0.9130859-0.3847656,1.3935547
			l7.5722656,13.5800781c0.1757812,0.3125,0.5019531,0.640625,0.859375,0.640625c0.0058594,0,0.0097656,0,0.0136719,0
			c0.3515625,0,0.6796875-0.3139648,0.859375-0.6166992l7.9199219-13.4428711
			C71.2890625,52.2386475,71.1328125,51.6263428,70.6582031,51.3431396z"/>
		<g>
			<polygon class="st4" points="38,36.0085449 46,44.0085449 46,40.8366699 38,32.8366699 			"/>
		</g>
		<g>
			<polygon class="st4" points="38,42.0085449 46,50.0085449 46,46.8366699 38,38.8366699 			"/>
		</g>
		<g>
			<polygon class="st4" points="15.1633301,70 2,56.8366699 2,60.0085449 11.9914551,70 			"/>
		</g>
		<g>
			<polygon class="st4" points="38,30.0085449 46,38.0085449 46,34.8366699 38,26.8366699 			"/>
		</g>
		<g>
			<polygon class="st4" points="38,46.0085449 38,48 38,48.0001221 26,36.0001221 26,36.0085449 46,56.0085449 46,52.8366699 
				38,44.8366699 			"/>
		</g>
		<g>
			<polygon class="st4" points="9.1633301,70 2,62.8366699 2,66.0085449 5.9914551,70 			"/>
		</g>
		<g>
			<polygon class="st4" points="2,68.8366699 2,70 3.1633301,70 			"/>
		</g>
		<g>
			<polygon class="st4" points="38,22.0001221 38,24.0085449 46,32.0085449 46,28.8366699 39.1634521,22.0001221 			"/>
		</g>
		<g>
			<polygon class="st4" points="26,42.0085449 46,62.0085449 46,58.8366699 26,38.8366699 			"/>
		</g>
		<g>
			<polygon class="st4" points="46,26.0085449 46,22.0001221 41.9915771,22.0001221 			"/>
		</g>
		<g>
			<polygon class="st4" points="26,46.0085449 26,48 26,48.0001221 14,36.0001221 14,36.0085449 46,68.0085449 46,64.8366699 
				26,44.8366699 			"/>
		</g>
		<g>
			<polygon class="st4" points="39.1633301,70 14,44.8366699 14,46.0085449 14,48 14,48.0001221 2,36.0001221 2,36.0085449 
				35.9914551,70 			"/>
		</g>
		<g>
			<polygon class="st4" points="33.1633301,70 2,38.8366699 2,42.0085449 29.9914551,70 			"/>
		</g>
		<g>
			<polygon class="st4" points="27.1633301,70 2,44.8366699 2,48.0085449 23.9914551,70 			"/>
		</g>
		<g>
			<polygon class="st4" points="45.1633301,70 14,38.8366699 14,42.0085449 41.9914551,70 			"/>
		</g>
		<g>
			<polygon class="st4" points="21.1633301,70 2,50.8366699 2,54.0085449 17.9914551,70 			"/>
		</g>
		<polygon class="st3" points="39.1634521,22.0001221 46,28.8366699 46,26.0085449 41.9915771,22.0001221 		"/>
		<polygon class="st3" points="38,26.8366699 46,34.8366699 46,32.0085449 38,24.0085449 		"/>
		<polygon class="st3" points="38,32.8366699 46,40.8366699 46,38.0085449 38,30.0085449 		"/>
		<polygon class="st3" points="38,38.8366699 46,46.8366699 46,44.0085449 38,36.0085449 		"/>
		<polygon class="st3" points="38,44.8366699 46,52.8366699 46,50.0085449 38,42.0085449 		"/>
		<polygon class="st3" points="26,38.8366699 46,58.8366699 46,56.0085449 26,36.0085449 		"/>
		<polygon class="st3" points="26,44.8366699 46,64.8366699 46,62.0085449 26,42.0085449 		"/>
		<polygon class="st3" points="14,38.8366699 45.1633301,70 45.1634521,70.0001221 46,70.0001221 46,70 46,68.0085449 
			14,36.0085449 		"/>
		<polygon class="st3" points="14,42.0085449 14,44.8366699 39.1633301,70 39.1634521,70.0001221 41.9915771,70.0001221 
			41.9914551,70 		"/>
		<polygon class="st3" points="2,36.0085449 2,38.8366699 33.1633301,70 33.1634521,70.0001221 35.9915771,70.0001221 
			35.9914551,70 		"/>
		<polygon class="st3" points="2,42.0085449 2,44.8366699 27.1633301,70 27.1634521,70.0001221 29.9915771,70.0001221 
			29.9914551,70 		"/>
		<polygon class="st3" points="2,48.0085449 2,50.8366699 21.1633301,70 21.1634521,70.0001221 23.9915771,70.0001221 
			23.9914551,70 		"/>
		<polygon class="st3" points="2,54.0085449 2,56.8366699 15.1633301,70 15.1634521,70.0001221 17.9915771,70.0001221 
			17.9914551,70 		"/>
		<polygon class="st3" points="2,60.0085449 2,62.8366699 9.1633301,70 9.1634521,70.0001221 11.9915771,70.0001221 11.9914551,70 
					"/>
		<polygon class="st3" points="2,66.0085449 2,68.8366699 3.1633301,70 3.1634521,70.0001221 5.9915771,70.0001221 5.9914551,70 		
			"/>
		<path class="st5" d="M46,20.0001221h-8c-1.1046143,0-2,0.8953857-2,2v21.1715088l-8.5858154-8.5856934
			c-0.3825684-0.3825684-0.894165-0.5858154-1.4146729-0.5858154c-0.2575684,0-0.5174561,0.0496826-0.7648926,0.1522217
			C24.4873047,34.4619141,24,35.1911621,24,36.0001221v7.1715088l-8.5858154-8.5856934
			c-0.3825684-0.3825684-0.894165-0.5858154-1.4146729-0.5858154c-0.2575684,0-0.5174561,0.0496826-0.7648926,0.1522217
			C12.4873047,34.4619141,12,35.1911621,12,36.0001221v7.1715088l-8.5858154-8.5856934
			c-0.3825684-0.3825684-0.894165-0.5858154-1.4146729-0.5858154c-0.2575684,0-0.5174561,0.0496826-0.7648926,0.1522217
			C0.4873047,34.4619141,0,35.1911621,0,36.0001221v34c0,1.1046143,0.8953857,2,2,2h44c1.1046143,0,2-0.8953857,2-2v-48
			C48,20.8955078,47.1046143,20.0001221,46,20.0001221z M46,26.0085449v2.828125v3.171875v2.828125v3.171875v2.828125v3.171875
			v2.828125v3.171875v2.828125v3.171875v2.828125v3.171875v2.828125v3.171875V70v0.0001221h-0.8365479h-3.171875h-2.828125
			h-3.171875h-2.828125h-3.171875h-2.828125h-3.171875h-2.828125h-3.171875h-2.828125h-3.171875h-2.828125h-3.171875h-2.828125H2V70
			v-1.1633301v-2.828125v-3.171875v-2.828125v-3.171875v-2.828125v-3.171875v-2.828125v-3.171875v-2.828125v-3.171875v-2.828125
			v-0.0084229l12,12V48v-1.9914551v-1.171875v-2.828125v-3.171875v-2.828125v-0.0084229l12,12V48v-1.9914551v-1.171875v-2.828125
			v-3.171875v-2.828125v-0.0084229l12,12V48v-1.9914551v-1.171875v-2.828125v-3.171875v-2.828125v-3.171875v-2.828125v-3.171875
			v-2.828125v-2.0084229h1.1634521h2.828125H46V26.0085449z"/>
	</g>
</g>
</svg>
