<?xml version="1.0" encoding="utf-8"?>
<!-- Generator: Adobe Illustrator 19.2.1, SVG Export Plug-In . SVG Version: 6.00 Build 0)  -->
<svg version="1.1" id="Layer_1" xmlns="http://www.w3.org/2000/svg" xmlns:xlink="http://www.w3.org/1999/xlink" x="0px" y="0px"
	 viewBox="0 0 37.8917351 38.8634033" style="enable-background:new 0 0 37.8917351 38.8634033;" xml:space="preserve">
<style type="text/css">
	.st0{fill:none;}
	.st1{fill:#010101;}
	.st2{fill:#FFFFFF;}
	.st3{fill:#C7E8EB;}
	.st4{fill:#61C7CB;}
</style>
<g>
	<path class="st0" d="M7.0660553,29.9547729c-0.2171631,0.2171631-0.4963989,0.3721313-0.8088989,0.4360962
		C6.5695953,30.3269043,6.8488922,30.171936,7.0660553,29.9547729z"/>
	
		<ellipse transform="matrix(0.7070557 -0.7071579 0.7071579 0.7070557 -10.0183668 4.6472917)" class="st0" cx="0.6000214" cy="14.4156494" rx="0.2989365" ry="0.2989365"/>
	<path class="st0" d="M15.8947906,33.2000122c0.1381226,0.3251343,0.2145996,0.6821289,0.2145996,1.0561523
		c0,1.4959717,0,3.6072388,0,3.6072388h0.000061c0,0,0-2.1112671,0-3.6072388c0-0.5610352-0.1721191-1.0838013-0.4661865-1.5180664
		C15.7412872,32.8828125,15.8257599,33.0374146,15.8947906,33.2000122z"/>
	<path class="st0" d="M21.1666412,27.2559814c0.3125,0.0639648,0.5917358,0.2189941,0.8088989,0.4360962
		C21.7583771,27.4749756,21.4790802,27.3199463,21.1666412,27.2559814z"/>
	<path class="st0" d="M21.9755402,29.9547729c-0.2171631,0.2171631-0.4963989,0.3721313-0.8088989,0.4360962
		C21.4790802,30.3269043,21.7583771,30.171936,21.9755402,29.9547729z"/>
	<path class="st0" d="M14.9893951,28.8234253c0,0.5523071-0.2797852,1.0391846-0.7053833,1.3267212
		c0.4255981-0.2875366,0.7054443-0.7744141,0.7054443-1.3267212s-0.2798462-1.0391846-0.7054443-1.3267212
		C14.70961,27.7842407,14.9893951,28.2711182,14.9893951,28.8234253z"/>
	<path class="st0" d="M6.2571564,27.2559814c0.3125,0.0639648,0.5917358,0.2189941,0.8088989,0.4360962
		C6.8488922,27.4749756,6.5695953,27.3199463,6.2571564,27.2559814z"/>
	<path class="st0" d="M20.8410187,18.9211426c0.000061,0.0054321,0.0031128,0.0099487,0.0031128,0.0154419v3.7907104h1.0726929
		v-3.8061523H20.8410187z"/>
	<rect x="17.8441315" y="18.9365845" class="st0" width="2" height="3.7907104"/>
	<path class="st1" d="M34.5941315,22.7272949h-4.6109619v-9.756897c0-0.5522461-0.4476929-1-1-1h-6.0663452
		c-0.2174072,0-0.4077759,0.0839233-0.5718384,0.2017212l-2.4082642-4.3429565
		C21.6092682,7.3502197,22.8441925,5.8243408,22.8441925,4c0-2.2055664-1.7944336-4-4-4c-2.2056274,0-4,1.7944336-4,4
		c0,1.8242798,1.2349243,3.3501587,2.9074097,3.8291626l-5.3272705,9.6069946
		c-0.1717529,0.3097534-0.1668701,0.6872559,0.0128784,0.9924316s0.5075073,0.4925537,0.8616943,0.4925537h3.5483398
		c-0.000061,0.0054321-0.0031128,0.0099487-0.0031128,0.0154419v3.7907104h-6.75c-0.2763672,0-0.5,0.2236328-0.5,0.5
		s0.2236328,0.5,0.5,0.5h7.75h2h3.0726929h6.0663452h5.6109619c0.2763672,0,0.5-0.2236328,0.5-0.5
		S34.8704987,22.7272949,34.5941315,22.7272949z M15.8441925,4c0-1.6568604,1.3431396-3,3-3s3,1.3431396,3,3s-1.3431396,3-3,3
		S15.8441925,5.6568604,15.8441925,4z M17.8441315,9.7243042l0.9584961-1.7285156C18.8168488,7.9959106,18.8299713,8,18.8441925,8
		s0.0272827-0.0040894,0.0414429-0.0042114l3.031189,5.4663696v3.6067505v0.8522339h-8.6179199L17.8441315,9.7243042
		L17.8441315,9.7243042z M17.8441315,22.7272949v-3.7907104h2v3.7907104H17.8441315z M20.8441315,22.7272949v-3.7907104
		c0-0.0054932-0.0030518-0.0100098-0.0031128-0.0154419h1.0758057v3.8061523H20.8441315z M22.9168243,22.7272949v-9.756897
		h6.0663452v9.756897H22.9168243z"/>
	<polygon class="st2" points="21.9168243,17.9211426 21.9168243,17.0689087 17.8441315,9.7243042 13.2989044,17.9211426 	"/>
	<g>
		<path class="st3" d="M21.9168243,13.4621582l-3.031189-5.4663696C18.8714752,7.9959106,18.8584137,8,18.8441925,8
			s-0.0273438-0.0040894-0.0415649-0.0042114l-0.9584961,1.7285156l0,0l4.0726929,7.3446045V13.4621582z"/>
	</g>
	<circle class="st4" cx="18.8441925" cy="4" r="3"/>
	<rect x="22.9168243" y="12.9703979" class="st4" width="6.0663452" height="9.756897"/>
	<path class="st4" d="M5.9347076,30.4234009c0.1104736,0,0.2183228-0.0112305,0.3224487-0.0325317
		c0.3125-0.0639648,0.5917358-0.2189331,0.8088989-0.4360962c0.2894897-0.2895508,0.4686279-0.6895142,0.4686279-1.1313477
		s-0.1791382-0.8417969-0.4686279-1.1313477c-0.2171631-0.2171021-0.4963989-0.3721313-0.8088989-0.4360962
		c-0.104126-0.0213013-0.2119751-0.0325317-0.3224487-0.0325317c-0.883667,0-1.6000366,0.7163086-1.6000366,1.5999756
		S5.0510406,30.4234009,5.9347076,30.4234009z"/>
	<path class="st2" d="M5.254837,31.6333008c0.0848999-0.0222168,0.171875-0.0386963,0.2590332-0.0543823
		C5.4256744,31.5928345,5.3400421,31.6110229,5.254837,31.6333008z"/>
	<path class="st2" d="M5.2546539,31.6333618c-0.1278687,0.0334473-0.2561646,0.0664062-0.3760986,0.1173706
		c-0.9753418,0.4143677-1.6638794,1.3834229-1.6638794,2.5054321c0,1.4959717,0,3.6072388,0,3.6072388H7.294693
		c0,0,0-2.1112671,0-3.6072388C7.294693,32.9961548,6.4225006,31.9387207,5.2546539,31.6333618z"/>
	<path class="st1" d="M7.4944611,30.8903809c0.6278076-0.4750977,1.0402222-1.2207642,1.0402222-2.0669556
		c0-1.4336548-1.1663208-2.5999756-2.5999756-2.5999756S3.334671,27.3897705,3.334671,28.8234253
		c0,0.8461914,0.4124756,1.5918579,1.0402832,2.0669556c-1.2714844,0.592041-2.1602783,1.873291-2.1602783,3.3657837v3.6072388
		c0,0.5523071,0.4477539,1,1,1h5.4400024c0.5523071,0,1-0.4476929,1-1v-3.6072388
		C9.6546783,32.7636719,8.7659454,31.4824219,7.4944611,30.8903809z M5.9347076,27.2234497
		c0.1104736,0,0.2183228,0.0112305,0.3224487,0.0325317c0.312439,0.0639648,0.5917358,0.2189941,0.8088989,0.4360962
		c0.2894897,0.2895508,0.4686279,0.6895142,0.4686279,1.1313477s-0.1791382,0.8417969-0.4686279,1.1313477
		c-0.2171631,0.2171631-0.49646,0.3721313-0.8088989,0.4360962c-0.104126,0.0213013-0.2119751,0.0325317-0.3224487,0.0325317
		c-0.883667,0-1.6000366-0.7163086-1.6000366-1.5999756S5.0510406,27.2234497,5.9347076,27.2234497z M8.6546783,37.8634033H7.294693
		H3.2146759c0,0,0-2.1112671,0-3.6072388c0-1.1220093,0.6885376-2.0910645,1.6638794-2.5054321
		c0.1199341-0.0509644,0.24823-0.0839233,0.3760986-0.1173706l0,0l0.0001831-0.000061
		c0.0852051-0.0222778,0.1708374-0.0404663,0.2590332-0.0543823c0.137207-0.0247192,0.2764893-0.0427856,0.4208374-0.0427856
		c1.4959717,0,2.7199707,1.223999,2.7199707,2.7200317C8.6546783,35.7521362,8.6546783,37.8634033,8.6546783,37.8634033z"/>
	<g>
		<path class="st3" d="M5.9347076,31.5361328c-0.1443481,0-0.2836304,0.0180664-0.4208374,0.0427856
			c-0.0871582,0.015686-0.1741333,0.0321655-0.2590332,0.0543823l-0.0001831,0.000061l0,0
			c1.1678467,0.3053589,2.0400391,1.362793,2.0400391,2.6228027c0,1.4959717,0,3.6072388,0,3.6072388h1.3599854
			c0,0,0-2.1112671,0-3.6072388C8.6546783,32.7601318,7.4306793,31.5361328,5.9347076,31.5361328z"/>
	</g>
	<path class="st4" d="M13.3894196,30.4234009c0.3313599,0,0.6392212-0.100708,0.8945923-0.2732544
		c0.4255981-0.2875366,0.7053833-0.7744141,0.7053833-1.3267212s-0.2797852-1.0391846-0.7053833-1.3267212
		c-0.2553711-0.1724854-0.5632324-0.2732544-0.8945923-0.2732544c-0.883667,0-1.5999756,0.7163086-1.5999756,1.5999756
		S12.5057526,30.4234009,13.3894196,30.4234009z"/>
	<path class="st2" d="M12.7094879,31.6333618c0.0849609-0.0222168,0.171875-0.0387573,0.2590942-0.0544434
		C12.8803864,31.5928345,12.794693,31.611084,12.7094879,31.6333618z"/>
	<path class="st2" d="M12.7094269,31.6333618c-1.1677246,0.3053589-2.039978,1.362793-2.039978,2.6228027
		c0,1.4959717,0,3.6072388,0,3.6072388h4.0799561c0,0,0-2.1112671,0-3.6072388
		C14.7494049,32.9961548,13.8772125,31.9387207,12.7094269,31.6333618z"/>
	<path class="st1" d="M14.949173,30.8903809c0.6278076-0.4750977,1.0402832-1.2207642,1.0402832-2.0669556
		c0-1.4336548-1.1663818-2.5999756-2.6000366-2.5999756s-2.5999756,1.1663208-2.5999756,2.5999756
		c0,0.8461914,0.4124146,1.5918579,1.0402222,2.0669556c-1.2714844,0.592041-2.1602173,1.873291-2.1602173,3.3657837v3.6072388
		c0,0.5523071,0.4476929,1,1,1h5.4400024c0.5522461,0,1-0.4476929,1-1v-3.6072388
		C17.1094513,32.7636719,16.2206573,31.4824219,14.949173,30.8903809z M13.3894196,27.2234497
		c0.3313599,0,0.6392212,0.100769,0.8945923,0.2732544c0.4255981,0.2875366,0.7054443,0.7744141,0.7054443,1.3267212
		s-0.2798462,1.0391846-0.7054443,1.3267212c-0.2553711,0.1725464-0.5632324,0.2732544-0.8945923,0.2732544
		c-0.883667,0-1.5999756-0.7163086-1.5999756-1.5999756S12.5057526,27.2234497,13.3894196,27.2234497z M16.1094513,37.8634033
		h-0.000061h-1.3599854h-4.0799561c0,0,0-2.1112671,0-3.6072388c0-1.2600098,0.8722534-2.3174438,2.039978-2.6228027l0,0h0.000061
		c0.0852051-0.0222778,0.1708984-0.0405273,0.2590942-0.0544434c0.1372681-0.0247192,0.2765503-0.0427856,0.4208374-0.0427856
		c0.1870117,0,0.369751,0.019165,0.5463867,0.055542c0.706604,0.1455688,1.3154297,0.5673828,1.7074585,1.1464233
		c0.2940674,0.4342651,0.4661865,0.9570312,0.4661865,1.5180664C16.1094513,35.7521362,16.1094513,37.8634033,16.1094513,37.8634033
		z"/>
	<g>
		<path class="st3" d="M15.8947906,33.2000122c-0.0690308-0.1625977-0.1535034-0.3171997-0.2515259-0.4619141
			c-0.3920288-0.5790405-1.0008545-1.0008545-1.7074585-1.1464233c-0.1766357-0.036377-0.359375-0.055542-0.5463867-0.055542
			c-0.1442871,0-0.2835693,0.0180664-0.4208374,0.0427856c-0.0872192,0.015686-0.1741333,0.0322266-0.2590942,0.0544434h-0.000061
			l0,0c1.1677856,0.3053589,2.039978,1.362793,2.039978,2.6228027c0,1.4959717,0,3.6072388,0,3.6072388h1.3599854
			c0,0,0-2.1112671,0-3.6072388C16.1093903,33.8821411,16.0329132,33.5251465,15.8947906,33.2000122z"/>
	</g>
	<path class="st4" d="M20.8441925,30.4234009c0.1104736,0,0.2183228-0.0112305,0.3224487-0.0325317
		c0.3125-0.0639648,0.5917358-0.2189331,0.8088989-0.4360962c0.2894897-0.2895508,0.4686279-0.6895142,0.4686279-1.1313477
		s-0.1791382-0.8417969-0.4686279-1.1313477c-0.2171631-0.2171021-0.4963989-0.3721313-0.8088989-0.4360962
		c-0.104126-0.0213013-0.2119751-0.0325317-0.3224487-0.0325317c-0.883667,0-1.6000366,0.7163086-1.6000366,1.5999756
		S19.9605255,30.4234009,20.8441925,30.4234009z"/>
	<path class="st2" d="M20.1643219,31.6333008c0.0848999-0.0222168,0.171875-0.0386963,0.2590332-0.0543823
		C20.3351593,31.5928345,20.249527,31.6110229,20.1643219,31.6333008z"/>
	<path class="st2" d="M20.1641388,31.6333618c-0.1278687,0.0334473-0.2561646,0.0664062-0.3760986,0.1173706
		c-0.9753418,0.4143677-1.6638794,1.3834229-1.6638794,2.5054321c0,1.4959717,0,3.6072388,0,3.6072388h4.0800171
		c0,0,0-2.1112671,0-3.6072388C22.2041779,32.9961548,21.3319855,31.9387207,20.1641388,31.6333618z"/>
	<path class="st1" d="M22.4039459,30.8903809c0.6278076-0.4750977,1.0402222-1.2207642,1.0402222-2.0669556
		c0-1.4336548-1.1663208-2.5999756-2.5999756-2.5999756s-2.6000366,1.1663208-2.6000366,2.5999756
		c0,0.8461914,0.4124756,1.5918579,1.0402832,2.0669556c-1.2714844,0.592041-2.1602783,1.873291-2.1602783,3.3657837v3.6072388
		c0,0.5523071,0.4477539,1,1,1h5.4400024c0.5523071,0,1-0.4476929,1-1v-3.6072388
		C24.5641632,32.7636719,23.6754303,31.4824219,22.4039459,30.8903809z M20.8441925,27.2234497
		c0.1104736,0,0.2183228,0.0112305,0.3224487,0.0325317c0.312439,0.0639648,0.5917358,0.2189941,0.8088989,0.4360962
		c0.2894897,0.2895508,0.4686279,0.6895142,0.4686279,1.1313477s-0.1791382,0.8417969-0.4686279,1.1313477
		c-0.2171631,0.2171631-0.49646,0.3721313-0.8088989,0.4360962c-0.104126,0.0213013-0.2119751,0.0325317-0.3224487,0.0325317
		c-0.883667,0-1.6000366-0.7163086-1.6000366-1.5999756S19.9605255,27.2234497,20.8441925,27.2234497z M23.5641632,37.8634033
		h-1.3599854h-4.0800171c0,0,0-2.1112671,0-3.6072388c0-1.1220093,0.6885376-2.0910645,1.6638794-2.5054321
		c0.1199341-0.0509644,0.24823-0.0839233,0.3760986-0.1173706l0,0l0.0001831-0.000061
		c0.0852051-0.0222778,0.1708374-0.0404663,0.2590332-0.0543823c0.137207-0.0247192,0.2764893-0.0427856,0.4208374-0.0427856
		c1.4959717,0,2.7199707,1.223999,2.7199707,2.7200317C23.5641632,35.7521362,23.5641632,37.8634033,23.5641632,37.8634033z"/>
	<g>
		<path class="st3" d="M20.8441925,31.5361328c-0.1443481,0-0.2836304,0.0180664-0.4208374,0.0427856
			c-0.0871582,0.015686-0.1741333,0.0321655-0.2590332,0.0543823l-0.0001831,0.000061l0,0
			c1.1678467,0.3053589,2.0400391,1.362793,2.0400391,2.6228027c0,1.4959717,0,3.6072388,0,3.6072388h1.3599854
			c0,0,0-2.1112671,0-3.6072388C23.5641632,32.7601318,22.3401642,31.5361328,20.8441925,31.5361328z"/>
	</g>
	
		<ellipse transform="matrix(0.389529 -0.9210142 0.9210142 0.389529 10.0741062 31.7441578)" class="st4" cx="28.9831696" cy="8.2727051" rx="0.5021903" ry="0.5021903"/>
	<path class="st4" d="M0.1757355,13.991394c-0.234314,0.234314-0.234314,0.6141968,0,0.8485107s0.6141968,0.234314,0.8485107,0
		s0.234314-0.6141968,0-0.8485107S0.4100494,13.7570801,0.1757355,13.991394z M0.8114166,14.6270142
		c-0.1168213,0.1167603-0.3060913,0.1167603-0.4227905,0c-0.1167603-0.1167603-0.1167603-0.3060303,0-0.4227295
		c0.1166992-0.1168213,0.3059692-0.1168213,0.4227905,0C0.9281158,14.3209839,0.9281158,14.5102539,0.8114166,14.6270142z"/>
	<path class="st4" d="M4.9663239,18.7460327l0.2883301,0.9349976l0.2883911-0.9349976
		c0.0546265-0.177124,0.1932373-0.3157959,0.3703613-0.3704224l0.9349976-0.2883301l-0.9349976-0.2883301
		c-0.177124-0.0546265-0.3157349-0.1932983-0.3703613-0.3704224l-0.2883911-0.9349976l-0.2883301,0.9349976
		c-0.0546265,0.177124-0.1932983,0.3157959-0.3703613,0.3704224l-0.9350586,0.2883301l0.9350586,0.2883301
		C4.7730255,18.4302368,4.9116974,18.5689087,4.9663239,18.7460327z M5.2546539,17.8208618
		c0.1471558,0,0.2664185,0.1192627,0.2664185,0.2664185s-0.1192627,0.2664185-0.2664185,0.2664185
		c-0.1470947,0-0.2664185-0.1192627-0.2664185-0.2664185S5.1075592,17.8208618,5.2546539,17.8208618z"/>
	<circle class="st2" cx="5.2546539" cy="18.0872803" r="0.2664185"/>
	<path class="st4" d="M7.1010895,11.9860229l0.2883301,0.9349976l0.2883301-0.9349976
		c0.0546265-0.177124,0.1932983-0.3157959,0.3704224-0.3704224l0.9349976-0.2883301L8.048172,11.0389404
		c-0.177124-0.0546265-0.3157959-0.1932983-0.3704224-0.3704224L7.3894196,9.7335205l-0.2883301,0.9349976
		c-0.0546265,0.177124-0.1932983,0.3157959-0.3704224,0.3704224l-0.9349976,0.2883301l0.9349976,0.2883301
		C6.9077911,11.6702271,7.046463,11.8088989,7.1010895,11.9860229z M7.3894196,11.0608521
		c0.1471558,0,0.2664185,0.1192627,0.2664185,0.2664185S7.5365753,11.593689,7.3894196,11.593689
		s-0.2664185-0.1192627-0.2664185-0.2664185S7.2422638,11.0608521,7.3894196,11.0608521z"/>
	<circle class="st2" cx="7.3894196" cy="11.3272705" r="0.2664185"/>
</g>
</svg>
