<?xml version="1.0" encoding="utf-8"?>
<!-- Generator: Adobe Illustrator 19.2.1, SVG Export Plug-In . SVG Version: 6.00 Build 0)  -->
<svg version="1.1" id="Layer_1_copy" xmlns="http://www.w3.org/2000/svg" xmlns:xlink="http://www.w3.org/1999/xlink" x="0px"
	 y="0px" viewBox="0 0 108 108" style="enable-background:new 0 0 108 108;" xml:space="preserve">
<style type="text/css">
	.st0{fill:#F8C02C;}
	.st1{fill:#F7BF2D;}
	.st2{fill:#FFFFFF;}
	.st3{fill:#010101;}
</style>
<g>
	<g>
		<path class="st0" d="M54,107C24.8,107,1,83.2,1,54S24.8,1,54,1s53,23.8,53,53S83.2,107,54,107z"/>
		<path class="st0" d="M54,2c28.7,0,52,23.3,52,52s-23.3,52-52,52S2,82.7,2,54S25.3,2,54,2 M54,0C24.2,0,0,24.2,0,54
			c0,29.8,24.2,54,54,54s54-24.2,54-54C108,24.2,83.8,0,54,0L54,0z"/>
	</g>
	<g>
		<ellipse transform="matrix(0.7071 -0.7072 0.7072 0.7071 -21.6314 71.7271)" class="st1" cx="75.8" cy="62" rx="0.6" ry="0.6"/>
		<g>
			<path class="st2" d="M70.6,41.1c0.3,0,0.8,0,0.8,0.1V33c0,0-0.6,0.1-0.8,0.1c-4.8,0-8.7-4.4-9.1-10H33.4c-0.4,5.6-4.3,10-9.1,10
				c-0.3,0-0.8,0-0.8-0.1v8.1c0,0,0.6-0.1,0.8-0.1c4.8,0,8.7,4.4,9.1,10h28.1C61.9,45.5,65.8,41.1,70.6,41.1z M48.1,46.3
				c-5.2,0-9.4-4.2-9.4-9.4s4.2-9.4,9.4-9.4s9.4,4.2,9.4,9.4S53.2,46.3,48.1,46.3z"/>
		</g>
		<path class="st0" d="M33.4,23.1h-10V33c0,0,0.6,0.1,0.8,0.1C29,33.1,33,28.7,33.4,23.1z"/>
		<path class="st0" d="M70.6,33.1c0.3,0,0.8,0,0.8-0.1v-9.9h-10C61.9,28.7,65.8,33.1,70.6,33.1z"/>
		<rect x="23.4" y="53.1" class="st1" width="10" height="0"/>
		<path class="st0" d="M24.3,41.1c-0.3,0-0.8,0-0.8,0.1v9.9h10C33,45.5,29,41.1,24.3,41.1z"/>
		<rect x="61.5" y="53.1" class="st1" width="10" height="0"/>
		<path class="st0" d="M61.5,51.1h10v-9.9c0,0-0.6-0.1-0.8-0.1C65.8,41.1,61.9,45.5,61.5,51.1z"/>
		<path class="st0" d="M48.8,37.3v2c0.5-0.2,1-0.5,1-1.2C49.6,37.8,49.3,37.5,48.8,37.3z"/>
		<path class="st0" d="M46.4,34.6c0,0.5,0.4,0.8,1.1,1v-2C46.8,33.7,46.4,34,46.4,34.6z"/>
		<path class="st0" d="M48.1,27.6c-5.2,0-9.4,4.2-9.4,9.4s4.2,9.4,9.4,9.4s9.4-4.2,9.4-9.4S53.2,27.6,48.1,27.6z M48.8,40.8v0.3
			c0,1.1-1.4,1.1-1.4,0v-0.2c-1-0.1-1.7-0.4-2.3-0.9c-0.3-0.3-0.3-0.8-0.1-1.1c0.2-0.2,0.6-0.4,1-0.1c0.3,0.2,0.8,0.4,1.4,0.5v-2.4
			c-1.4-0.3-2.7-0.7-2.5-2.6c0.1-1.4,1.3-2,2.5-2.2v-0.2c0-1.1,1.4-1.1,1.4,0v0.3c0.5,0.1,1.1,0.2,1.5,0.5c0.9,0.6,0,1.8-0.8,1.2
			c-0.2-0.1-0.4-0.2-0.7-0.3v2.2c1.3,0.3,2.5,0.9,2.5,2.4C51.3,39.8,50.2,40.6,48.8,40.8z"/>
		<path class="st3" d="M96.1,44.5c0.1,0,0.3,0.1,0.4,0.1C96.4,44.6,96.3,44.6,96.1,44.5z"/>
		<path class="st3" d="M95.6,44.6c0.1,0,0.2-0.1,0.4-0.1C95.9,44.5,95.8,44.6,95.6,44.6z"/>
		<path class="st3" d="M96.6,44.7C96.6,44.7,96.6,44.7,96.6,44.7c0.1,0.1,0.2,0.2,0.3,0.3C96.8,44.9,96.7,44.8,96.6,44.7z"/>
		<path class="st3" d="M96.9,45.2c0,0.1,0.1,0.2,0.1,0.3C97,45.4,97,45.3,96.9,45.2z"/>
		<path class="st3" d="M96,44.5c0,0,0.1,0,0.1,0C96.1,44.5,96,44.5,96,44.5z"/>
		<path class="st3" d="M96.6,44.7C96.5,44.7,96.5,44.7,96.6,44.7C96.5,44.7,96.5,44.7,96.6,44.7C96.6,44.7,96.6,44.7,96.6,44.7z"/>
		<path class="st3" d="M96.9,45.1c0,0,0,0.1,0,0.1C96.9,45.1,96.9,45.1,96.9,45.1z"/>
		<path class="st3" d="M97,45.5c0-0.1,0-0.2-0.1-0.3c0,0,0-0.1,0-0.1c-0.1-0.1-0.2-0.3-0.3-0.4c0,0-0.1,0-0.1,0
			c-0.1-0.1-0.2-0.1-0.4-0.1c0,0-0.1,0-0.1,0c-0.1,0-0.2,0-0.4,0.1c0,0-0.1,0-0.1,0l-13.9,6.7c-0.5,0.2-0.7,0.8-0.5,1.3
			c0.2,0.5,0.8,0.7,1.3,0.5l10.3-5L69.9,79.5L50.7,62.7c-0.4-0.4-1-0.3-1.4,0.1l-24,25.5c-0.4,0.4-0.4,1,0,1.4
			c0.2,0.2,0.4,0.3,0.7,0.3c0.3,0,0.5-0.1,0.7-0.3l23.3-24.8l19.3,16.9c0.2,0.2,0.5,0.3,0.8,0.2s0.5-0.2,0.7-0.4l23.9-32.6l-0.9,12
			c0,0.6,0.4,1,0.9,1.1c0,0,0,0,0.1,0c0.5,0,1-0.4,1-0.9L97,45.5C97,45.6,97,45.5,97,45.5z"/>
		<path class="st3" d="M48.8,35.9v-2.2c0.3,0.1,0.5,0.2,0.7,0.3c0.8,0.5,1.6-0.6,0.8-1.2c-0.4-0.3-1-0.4-1.5-0.5v-0.3
			c0-1.1-1.4-1.1-1.4,0v0.2c-1.3,0.2-2.4,0.9-2.5,2.2c-0.2,1.9,1.2,2.3,2.5,2.6v2.4c-0.5-0.1-1.1-0.3-1.4-0.5
			c-0.4-0.3-0.9-0.1-1,0.1c-0.2,0.3-0.2,0.8,0.1,1.1c0.6,0.4,1.4,0.7,2.3,0.9v0.2c0,1.1,1.4,1.1,1.4,0v-0.3c1.4-0.2,2.5-1.1,2.5-2.5
			C51.3,36.7,50,36.2,48.8,35.9z M47.4,35.6c-0.6-0.2-1.1-0.4-1.1-1c0-0.6,0.4-0.9,1.1-1V35.6z M48.8,39.4v-2c0.5,0.1,0.9,0.4,1,0.8
			C49.7,38.8,49.3,39.1,48.8,39.4z"/>
		<path class="st3" d="M71.4,21.1h-48c-1.1,0-2,0.9-2,2v28c0,1.1,0.9,2,2,2h10h28.1h10c1.1,0,2-0.9,2-2v-28
			C73.4,22,72.5,21.1,71.4,21.1z M71.4,51.1h-48v-28h48V51.1z"/>
		<ellipse transform="matrix(0.3895 -0.921 0.921 0.3895 -18.3288 106.8325)" class="st2" cx="71.4" cy="67.2" rx="1" ry="1"/>
		<path class="st2" d="M76.6,62.8c0.5-0.5,0.5-1.2,0-1.7c-0.5-0.5-1.2-0.5-1.7,0c-0.5,0.5-0.5,1.2,0,1.7
			C75.4,63.3,76.1,63.3,76.6,62.8z M75.3,61.5c0.2-0.2,0.6-0.2,0.8,0s0.2,0.6,0,0.8c-0.2,0.2-0.6,0.2-0.8,0
			C75.1,62.2,75.1,61.8,75.3,61.5z"/>
		<path class="st2" d="M87.6,72l-0.8-2.5L86.1,72c-0.1,0.5-0.5,0.8-1,1l-2.5,0.8l2.5,0.8c0.5,0.1,0.8,0.5,1,1l0.8,2.5l0.8-2.5
			c0.1-0.5,0.5-0.8,1-1l2.5-0.8L88.6,73C88.1,72.9,87.8,72.5,87.6,72z M86.9,74.5c-0.4,0-0.7-0.3-0.7-0.7s0.3-0.7,0.7-0.7
			s0.7,0.3,0.7,0.7S87.2,74.5,86.9,74.5z"/>
		<g>
			<circle class="st1" cx="86.9" cy="73.8" r="0.7"/>
		</g>
	</g>
</g>
</svg>
