<?xml version="1.0" encoding="utf-8"?>
<!-- Generator: Adobe Illustrator 19.2.1, SVG Export Plug-In . SVG Version: 6.00 Build 0)  -->
<svg version="1.1" id="Layer_1_copy" xmlns="http://www.w3.org/2000/svg" xmlns:xlink="http://www.w3.org/1999/xlink" x="0px"
	 y="0px" viewBox="0 0 75.5684967 68.9101562" style="enable-background:new 0 0 75.5684967 68.9101562;" xml:space="preserve">
<style type="text/css">
	.st0{fill:#FFFFFF;}
	.st1{fill:#F8C02C;}
	.st2{fill:#F7BF2D;}
	.st3{fill:#010101;}
</style>
<g>
	<g>
		
			<ellipse transform="matrix(0.7070557 -0.7071579 0.7071579 0.7070557 -13.0159016 50.4076805)" class="st0" cx="54.3332901" cy="40.9138184" rx="0.5978729" ry="0.5978729"/>
		<g>
			<path class="st0" d="M49.1666031,20.0001221c0.2813721,0,0.833374,0.0206299,0.833374,0.050415V11.949707
				c0,0.0297852-0.552002,0.050415-0.833374,0.050415c-4.7813721,0-8.703125-4.394165-9.1246338-10.0001221H11.958106
				C11.5365973,7.605957,7.6148443,12.0001221,2.833472,12.0001221c-0.2813721,0-0.8334961-0.0206299-0.8334961-0.050415v8.1008301
				c0-0.0297852,0.552124-0.050415,0.8334961-0.050415c4.78125,0,8.7030029,4.394165,9.1246338,9.9998779h28.0838623
				C40.4636002,24.3942871,44.3853531,20.0001221,49.1666031,20.0001221z M26.6259518,25.2835693
				c-5.177124,0-9.3740234-4.1968994-9.3740234-9.3740234s4.1968994-9.3740234,9.3740234-9.3740234
				s9.3740253,4.1968994,9.3740253,9.3740234S31.8030758,25.2835693,26.6259518,25.2835693z"/>
		</g>
		<path class="st1" d="M11.958106,2H1.9999759v9.949707c0,0.0297852,0.552124,0.050415,0.8334961,0.050415
			C7.6148443,12.0001221,11.5365973,7.605957,11.958106,2z"/>
		<path class="st1" d="M49.1666031,12.0001221c0.2813721,0,0.833374-0.0206299,0.833374-0.050415V2h-9.9580078
			C40.4634781,7.605957,44.385231,12.0001221,49.1666031,12.0001221z"/>
		<rect x="1.9999759" y="32" class="st2" width="9.958374" height="0.0001221"/>
		<path class="st1" d="M2.833472,20.0001221c-0.2813721,0-0.8334961,0.0206299-0.8334961,0.050415V30h9.9581299
			C11.5364752,24.3942871,7.6147223,20.0001221,2.833472,20.0001221z"/>
		<rect x="40.0418472" y="32" class="st2" width="9.9581299" height="0.0001221"/>
		<path class="st1" d="M40.0419693,30h9.9580078v-9.9494629c0-0.0297852-0.552002-0.050415-0.833374-0.050415
			C44.3853531,20.0001221,40.4636002,24.3942871,40.0419693,30z"/>
		<path class="st1" d="M27.3603268,16.2890625v2.0039062c0.5283203-0.2148438,0.9599609-0.5273438,0.9599609-1.1640625
			C28.2118893,16.7226562,27.8886471,16.4101562,27.3603268,16.2890625z"/>
		<path class="st1" d="M24.9501705,13.5546875c0,0.5273438,0.4199219,0.7578125,1.0546875,0.9609375v-1.9921875
			C25.3700924,12.6328125,24.9501705,12.9199219,24.9501705,13.5546875z"/>
		<path class="st1" d="M26.6259518,6.5355225c-5.177124,0-9.3740234,4.1968994-9.3740234,9.3740234
			s4.1968994,9.3740234,9.3740234,9.3740234s9.3740253-4.1968994,9.3740253-9.3740234S31.8030758,6.5355225,26.6259518,6.5355225z
			 M27.3603268,19.7675781v0.3007812c0,1.0683594-1.3554688,1.0683594-1.3554688,0V19.875
			c-0.9707031-0.1074219-1.6904297-0.40625-2.3261719-0.8515625c-0.2998047-0.3105469-0.2998047-0.8398438-0.0839844-1.125
			c0.1796875-0.2421875,0.6357422-0.4335938,1.0429688-0.1328125c0.3125,0.2148438,0.828125,0.4179688,1.3671875,0.5273438
			v-2.421875c-1.3671875-0.3007812-2.7460938-0.7324219-2.5302734-2.6269531
			c0.1201172-1.3554688,1.2714844-2.015625,2.5302734-2.2070312V10.84375c0-1.0664062,1.3554688-1.0664062,1.3554688,0v0.2890625
			c0.5283203,0.0957031,1.0556641,0.2265625,1.4873047,0.5390625c0.8515625,0.6132812,0,1.7890625-0.7558594,1.2480469
			c-0.203125-0.0839844-0.4072266-0.1933594-0.7314453-0.2871094v2.1816406
			c1.2597656,0.3242188,2.5068359,0.8652344,2.5068359,2.4121094
			C29.8671627,18.7128906,28.7519283,19.5644531,27.3603268,19.7675781z"/>
		<path class="st3" d="M74.6989517,23.4813232c0.1281738,0.0168457,0.2513428,0.0605469,0.366333,0.1262207
			C74.9482193,23.539917,74.8265152,23.4976807,74.6989517,23.4813232z"/>
		<path class="st3" d="M74.2176285,23.5430908c0.1137695-0.0432129,0.2314453-0.0662842,0.3508301-0.0666504
			C74.4467545,23.4769287,74.3312759,23.4992676,74.2176285,23.5430908z"/>
		<path class="st3" d="M75.1620865,23.6523438c-0.0054932-0.0040283-0.0123291-0.0043945-0.0179443-0.0083008
			c0.1304932,0.0922852,0.230835,0.2145996,0.3033447,0.3514404C75.3788834,23.8652344,75.2887955,23.7452393,75.1620865,23.6523438
			z"/>
		<path class="st3" d="M75.4870377,24.1053467c0.0424805,0.1105957,0.0656738,0.227417,0.0665283,0.3483887
			C75.5529556,24.3330078,75.5304947,24.2183838,75.4870377,24.1053467z"/>
		<path class="st3" d="M74.5684586,23.4764404c0.0437012-0.0001221,0.0869141-0.0007324,0.1304932,0.0048828
			C74.6541519,23.4754639,74.6135025,23.4763184,74.5684586,23.4764404z"/>
		<path class="st3" d="M75.1327896,23.6308594c-0.0203857-0.0137939-0.0463867-0.0112305-0.0675049-0.0233154
			c0.0255127,0.0148926,0.0541992,0.019165,0.0788574,0.036499C75.1392593,23.640625,75.1377945,23.6342773,75.1327896,23.6308594z"
			/>
		<path class="st3" d="M75.4474869,23.9954834c0.0183105,0.0349121,0.0255127,0.0732422,0.0395508,0.1098633
			C75.4726334,24.0678711,75.4662857,24.0308838,75.4474869,23.9954834z"/>
		<path class="st3" d="M75.553566,24.4537354c-0.0008545-0.1209717-0.0240479-0.237793-0.0665283-0.3483887
			c-0.0140381-0.0366211-0.0212402-0.0749512-0.0395508-0.1098633c-0.0725098-0.1368408-0.1728516-0.2591553-0.3033447-0.3514404
			c-0.0246582-0.017334-0.0533447-0.0216064-0.0788574-0.036499c-0.1149902-0.0656738-0.2381592-0.109375-0.366333-0.1262207
			c-0.0435791-0.0056152-0.086792-0.0050049-0.1304932-0.0048828c-0.1193848,0.0003662-0.2370605,0.0234375-0.3508301,0.0666504
			c-0.0264893,0.0101318-0.0560303,0.0030518-0.0819092,0.0155029l-13.9453125,6.7480469
			c-0.4970703,0.2402344-0.7050781,0.8378906-0.4648438,1.3359375c0.2421875,0.4980469,0.8388672,0.7089844,1.3359375,0.4648438
			l10.3339844-5.0012207l-22.9316406,31.333252l-19.1796894-16.78125c-0.4042969-0.3554688-1.0185547-0.3261719-1.3867188,0.0664062
			l-24,25.5c-0.3779297,0.4023438-0.359375,1.0351562,0.0429688,1.4140625
			c0.1933596,0.1816406,0.4394534,0.2714844,0.6855471,0.2714844c0.265625,0,0.53125-0.1054688,0.7285156-0.3144531
			L28.6933346,43.796875l19.274416,16.8652344c0.2099609,0.1855469,0.4882812,0.2734375,0.7675781,0.2421875
			S49.2675552,60.7265625,49.4325943,60.5l23.887085-32.6387939l-0.8743896,11.9766846
			c-0.0400391,0.5507812,0.3730469,1.0292969,0.9238281,1.0703125c0.0253906,0.0019531,0.0498047,0.0019531,0.0742188,0.0019531
			c0.5195312,0,0.9580078-0.4003906,0.9960938-0.9277344L75.5683365,24.53125
			C75.5702896,24.5041504,75.5538101,24.4807129,75.553566,24.4537354z"/>
		<path class="st3" d="M27.3603268,14.8144531v-2.1816406c0.3242188,0.09375,0.5283203,0.203125,0.7314453,0.2871094
			c0.7558594,0.5410156,1.6074219-0.6347656,0.7558594-1.2480469c-0.4316406-0.3125-0.9589844-0.4433594-1.4873047-0.5390625
			V10.84375c0-1.0664062-1.3554688-1.0664062-1.3554688,0v0.1933594c-1.2587891,0.1914062-2.4101562,0.8515625-2.5302734,2.2070312
			c-0.2158203,1.8945312,1.1630859,2.3261719,2.5302734,2.6269531v2.421875
			c-0.5390625-0.109375-1.0546875-0.3125-1.3671875-0.5273438c-0.4072266-0.3007812-0.8632812-0.109375-1.0429688,0.1328125
			c-0.2158203,0.2851562-0.2158203,0.8144531,0.0839844,1.125C24.3144283,19.46875,25.0341549,19.7675781,26.004858,19.875
			v0.1933594c0,1.0683594,1.3554688,1.0683594,1.3554688,0v-0.3007812c1.3916016-0.203125,2.5068359-1.0546875,2.5068359-2.5410156
			C29.8671627,15.6796875,28.6200924,15.1386719,27.3603268,14.8144531z M26.004858,14.515625
			c-0.6347656-0.203125-1.0546875-0.4335938-1.0546875-0.9609375c0-0.6347656,0.4199219-0.921875,1.0546875-1.03125V14.515625z
			 M27.3603268,18.2929688v-2.0039062c0.5283203,0.1210938,0.8515625,0.4335938,0.9599609,0.8398438
			C28.3202877,17.765625,27.8886471,18.078125,27.3603268,18.2929688z"/>
		<path class="st3" d="M50,0H2C0.8955078,0,0,0.8955078,0,2v28c0,1.1044922,0.8955078,2,2,2h9.958374h28.0834961H50
			c1.1046143,0,2-0.8955078,2-2V2C52,0.8955078,51.1046143,0,50,0z M50,30H2V2h48V30z"/>
		
			<ellipse transform="matrix(0.389529 -0.9210142 0.9210142 0.389529 -12.0126591 74.2447357)" class="st2" cx="49.9999771" cy="46.184082" rx="1.0043806" ry="1.0043806"/>
		<path class="st2" d="M55.1818619,41.7623291c0.4686279-0.4686279,0.4686279-1.2283936,0-1.6970215
			c-0.46875-0.4686279-1.2283936-0.4686279-1.6971436,0c-0.4686279,0.4686279-0.4686279,1.2283936,0,1.6970215
			C53.9534683,42.230957,54.7131119,42.230957,55.1818619,41.7623291z M53.9104996,40.4910889
			c0.2335205-0.2335205,0.6120605-0.2335205,0.8455811,0s0.2335205,0.6120605,0,0.845459
			c-0.2335205,0.2336426-0.6120605,0.2336426-0.8455811,0C53.6771011,41.1031494,53.6771011,40.7246094,53.9104996,40.4910889z"/>
		<path class="st2" d="M66.1950455,50.9824219l-0.7575684-2.456665l-0.7575684,2.456665
			c-0.1435547,0.465332-0.5079346,0.8297119-0.9732666,0.9731445l-2.456665,0.7576904l2.456665,0.7575684
			c0.465332,0.1435547,0.8297119,0.5078125,0.9732666,0.9732666l0.7575684,2.456665l0.7575684-2.456665
			c0.1435547-0.4654541,0.5079346-0.8297119,0.9732666-0.9732666l2.456665-0.7575684l-2.456665-0.7576904
			C66.70298,51.8121338,66.3386002,51.4477539,66.1950455,50.9824219z M65.4374771,53.413208
			c-0.3865967,0-0.6999512-0.3133545-0.6999512-0.6999512s0.3133545-0.7000732,0.6999512-0.7000732
			s0.6999512,0.3134766,0.6999512,0.7000732S65.8240738,53.413208,65.4374771,53.413208z"/>
		<g>
			<circle class="st0" cx="65.4374771" cy="52.7132263" r="0.6999817"/>
		</g>
	</g>
</g>
</svg>
