<?xml version="1.0" encoding="utf-8"?>
<!-- Generator: Adobe Illustrator 19.2.1, SVG Export Plug-In . SVG Version: 6.00 Build 0)  -->
<svg version="1.1" id="Layer_1" xmlns="http://www.w3.org/2000/svg" xmlns:xlink="http://www.w3.org/1999/xlink" x="0px" y="0px"
	 viewBox="0 0 54 54" style="enable-background:new 0 0 54 54;" xml:space="preserve">
<style type="text/css">
	.st0{fill:#62C7CB;}
	.st1{fill:none;}
	.st2{fill:#FFFFFF;}
	.st3{fill:#010101;}
	.st4{fill:#C7E8EB;}
</style>
<g>
	<circle class="st0" cx="27" cy="27" r="27"/>
</g>
<g>
	<ellipse transform="matrix(0.7071 -0.7072 0.7072 0.7071 -7.8254 28.7013)" class="st1" cx="30.7" cy="23.8" rx="0.3" ry="0.3"/>
	<path class="st2" d="M31.2,24.2c0.2-0.2,0.2-0.6,0-0.8c-0.2-0.2-0.6-0.2-0.8,0c-0.2,0.2-0.2,0.6,0,0.8
		C30.5,24.5,30.9,24.5,31.2,24.2z M30.5,23.6c0.1-0.1,0.3-0.1,0.4,0c0.1,0.1,0.1,0.3,0,0.4s-0.3,0.1-0.4,0
		C30.4,23.9,30.4,23.7,30.5,23.6z"/>
	<path class="st2" d="M36.7,22.5c-0.2-0.1-0.3-0.2-0.4-0.4L36,21.2l-0.3,0.9c-0.1,0.2-0.2,0.3-0.4,0.4l-0.9,0.3l0.9,0.3
		c0.2,0.1,0.3,0.2,0.4,0.4l0.3,0.9l0.3-0.9c0.1-0.2,0.2-0.3,0.4-0.4l0.9-0.3L36.7,22.5z M36,23.1c-0.1,0-0.3-0.1-0.3-0.3
		c0-0.1,0.1-0.3,0.3-0.3s0.3,0.1,0.3,0.3C36.3,22.9,36.1,23.1,36,23.1z"/>
	<circle class="st0" cx="36" cy="22.8" r="0.3"/>
	<path class="st2" d="M32.6,14.8H31v3h2v-3.1C32.9,14.8,32.7,14.8,32.6,14.8z"/>
	<path class="st2" d="M27,10.8l-0.1,0C26.9,10.8,27,10.8,27,10.8L27,10.8z"/>
	<polygon class="st2" points="16,14.9 16,17.8 18,17.8 18,14.2 	"/>
	<polygon class="st2" points="11,16.8 11,36.8 12,36.8 12,16.4 	"/>
	<polygon class="st2" points="13,16 13,17.8 15,17.8 15,15.3 	"/>
	<polygon class="st2" points="40,15.7 40,17.8 41,17.8 41,36.8 42,36.8 42,16.4 	"/>
	<path class="st2" d="M20.6,14c-0.1-0.3,0.1-0.7,0.3-0.9L19,13.8v4h2v-3.2C20.8,14.5,20.6,14.2,20.6,14z"/>
	<polygon class="st2" points="34,13.4 34,17.8 36,17.8 36,14.2 	"/>
	<rect x="28" y="14.8" class="st2" width="2" height="3"/>
	<rect x="25" y="14.8" class="st2" width="2" height="3"/>
	<polygon class="st2" points="37,14.5 37,17.8 39,17.8 39,15.3 	"/>
	<rect x="22" y="14.8" class="st2" width="2" height="3"/>
	<path class="st3" d="M43.4,14.9l-16-6c-0.1,0-0.2-0.1-0.4-0.1s-0.2,0-0.4,0.1l-16,6C10.3,15,10,15.4,10,15.8v21c0,0.6,0.4,1,1,1h2
		c0.6,0,1-0.4,1-1v-18h26v13v5c0,0.6,0.4,1,1,1h2c0.6,0,1-0.4,1-1v-21C44,15.4,43.7,15,43.4,14.9z M43,16.8v20h-1h-1v-19h-1h-1h-2
		h-1h-2h-1h-2h-1h-2h-1h-2h-1h-2h-1h-2h-1h-2h-1h-2l0,19h-1h-1v-20v-1l1-0.4l1-0.4l2-0.8l1-0.4l2-0.8l1-0.4l2-0.8l1-0.4l2-0.8l1-0.4
		l2-0.8l1,0.4l2,0.8l1,0.4l2,0.8l1,0.4l2,0.8l1,0.4l2,0.8l1,0.4l2,0.8l1,0.4V16.8z"/>
	<polygon class="st2" points="22,21.8 17,21.8 17,26.8 17,30.8 17,36.8 23,36.8 28,36.8 32,36.8 32,31.8 31,31.8 30,31.8 27,31.8 
		27,30.8 27,26.8 22,26.8 	"/>
	<path class="st3" d="M22,20.8h-5c-0.6,0-1,0.4-1,1v5v4v1v5c0,0.6,0.4,1,1,1h6h5h4c0.6,0,1-0.4,1-1v-5c0-0.6-0.4-1-1-1h-4v-4
		c0-0.6-0.4-1-1-1h-4v-4C23,21.2,22.6,20.8,22,20.8z M27,26.8v4v1h3h1h1v5h-4h-5h-6v-6v-4v-5h5v5H27z"/>
	<g>
		<path class="st4" d="M21,14.6v3.2h1v-3h-0.4C21.4,14.8,21.2,14.7,21,14.6z"/>
		<rect x="24" y="14.8" class="st4" width="1" height="3"/>
		<rect x="27" y="14.8" class="st4" width="1" height="3"/>
		<rect x="30" y="14.8" class="st4" width="1" height="3"/>
		<path class="st4" d="M42,15.4l-2-0.8l-1-0.4l-2-0.8l-1-0.4l-2-0.8L33,12l-2-0.8l-1-0.4l-2-0.8l-1-0.4l-2,0.8l-1,0.4l-2,0.8L21,12
			l-2,0.8l-1,0.4l-2,0.8l-1,0.4L13,15l-1,0.4l-1,0.4v1l1-0.4v20.4h1l0-19V16l2-0.8v2.5h1v-2.9l2-0.8v3.6h1v-4l1.9-0.7
			c0,0,0.1-0.1,0.1-0.1c0.1-0.1,0.1-0.1,0.2-0.1l0.8-0.3l2-0.7l1-0.4l1.8-0.6c0,0,0,0,0.1,0l0.1,0v0c0,0,0.1,0,0.1,0
			c0.1,0,0.2,0,0.3,0.1L28,11l2,0.7l1,0.4l1.9,0.7c0,0,0.1,0,0.1,0c0.4,0.2,0.6,0.6,0.6,1.1c-0.1,0.3-0.3,0.6-0.6,0.7v3.1h1v-4.4
			l2,0.8v3.6h1v-3.2l2,0.8v2.5h1v-2.1l2,0.8v20.4h1v-20v-1L42,15.4z"/>
	</g>
	<polygon class="st0" points="27.1,11.8 21.6,13.8 32.6,13.8 	"/>
	<path class="st3" d="M31,12.2l-1-0.4L28,11l-0.5-0.2c-0.1,0-0.2-0.1-0.3-0.1c0,0-0.1,0-0.1,0c0,0-0.1,0-0.1,0c0,0,0,0-0.1,0
		L25,11.5l-1,0.4l-2,0.7l-0.8,0.3c-0.1,0-0.2,0.1-0.2,0.1c0,0-0.1,0.1-0.1,0.1c-0.2,0.2-0.3,0.5-0.3,0.9c0,0.3,0.2,0.5,0.4,0.6
		c0.2,0.1,0.4,0.2,0.6,0.2H22h2h1h2h1h2h1h1.6c0.2,0,0.3,0,0.4-0.1c0.3-0.1,0.5-0.4,0.6-0.7c0.1-0.4-0.2-0.9-0.6-1.1
		c0,0-0.1,0-0.1,0L31,12.2z M21.6,13.8l5.6-2l5.4,2H21.6z"/>
	<path class="st2" d="M17,40.8l-2,3h25l-2-3H17z M37.6,42.8c-1.2,0.6-3.9,0.8-6.2,0.4c-2.2-0.3-5,0.4-7.7,0.4c-2.6,0-5.2,0-6.3-0.9
		c-1.4-1,2.3-1.3,3.5-1.4c1.5-0.1,4.3-0.5,7,0.1c2.7,0.6,4-0.3,5.5-0.2C35,41.4,38.8,42.2,37.6,42.8z"/>
	<path class="st3" d="M38.8,40.2c-0.2-0.3-0.5-0.4-0.8-0.4H17c-0.3,0-0.6,0.2-0.8,0.4l-2,3c-0.2,0.3-0.2,0.7,0,1
		c0.2,0.3,0.5,0.5,0.9,0.5h25c0.4,0,0.7-0.2,0.9-0.5c0.2-0.3,0.2-0.7,0-1L38.8,40.2z M15,43.8l2-3h21l2,3H15z"/>
	<path class="st0" d="M33.5,41.2c-1.5-0.2-2.8,0.8-5.5,0.2c-2.7-0.6-5.5-0.2-7-0.1c-1.1,0.1-4.8,0.3-3.5,1.4
		c1.2,0.9,3.8,0.9,6.3,0.9c2.7,0,5.4-0.7,7.7-0.4c2.2,0.3,5,0.2,6.2-0.4S35,41.4,33.5,41.2z"/>
	<ellipse transform="matrix(0.3895 -0.921 0.921 0.3895 -4.4285 50.3086)" class="st2" cx="35.7" cy="28.5" rx="0.5" ry="0.5"/>
</g>
</svg>
