<?xml version="1.0" encoding="utf-8"?>
<!-- Generator: Adobe Illustrator 19.2.1, SVG Export Plug-In . SVG Version: 6.00 Build 0)  -->
<svg version="1.1" xmlns="http://www.w3.org/2000/svg" xmlns:xlink="http://www.w3.org/1999/xlink" x="0px" y="0px"
	 viewBox="0 0 62 62" style="enable-background:new 0 0 62 62;" xml:space="preserve">
<style type="text/css">
	.st0{fill-rule:evenodd;clip-rule:evenodd;fill:#F7BF2C;}
	.st1{fill:#FFFFFF;}
</style>
<g id="Facebook">
	<circle class="st0" cx="31" cy="31" r="31"/>
</g>
<g id="Twitter">
	<g>
		<path class="st1" d="M19.4,15.4h23.2c2.2,0,4,1.8,4,4v23.2c0,2.2-1.8,4-4,4H19.4c-2.2,0-4-1.8-4-4V19.4
			C15.4,17.2,17.2,15.4,19.4,15.4z M38.1,18.9c-0.8,0-1.4,0.6-1.4,1.4v3.4c0,0.8,0.6,1.4,1.4,1.4h3.5c0.8,0,1.4-0.6,1.4-1.4v-3.4
			c0-0.8-0.6-1.4-1.4-1.4H38.1z M43.1,28.6h-2.7c0.3,0.9,0.4,1.7,0.4,2.7c0,5.2-4.3,9.4-9.7,9.4c-5.4,0-9.7-4.2-9.7-9.4
			c0-0.9,0.1-1.8,0.4-2.7h-2.9v13.2c0,0.7,0.6,1.2,1.2,1.2h21.7c0.7,0,1.2-0.6,1.2-1.2V28.6z M31,24.9c-3.5,0-6.3,2.7-6.3,6.1
			c0,3.4,2.8,6.1,6.3,6.1c3.5,0,6.3-2.7,6.3-6.1C37.3,27.6,34.5,24.9,31,24.9z"/>
	</g>
</g>
</svg>
