<?xml version="1.0" encoding="utf-8"?>
<!-- Generator: Adobe Illustrator 16.0.4, SVG Export Plug-In . SVG Version: 6.00 Build 0)  -->
<!DOCTYPE svg PUBLIC "-//W3C//DTD SVG 1.1//EN" "http://www.w3.org/Graphics/SVG/1.1/DTD/svg11.dtd">
<svg version="1.1" id="Layer_1" xmlns="http://www.w3.org/2000/svg" xmlns:xlink="http://www.w3.org/1999/xlink" x="0px" y="0px"
	 width="29.175px" height="51.379px" viewBox="0 0 29.175 51.379" enable-background="new 0 0 29.175 51.379" xml:space="preserve">
<path fill="#FFFFFF" d="M23.349,38.025L6.248,20.965L23.233,3.941c0.636-0.637,0.636-1.668,0.001-2.307l-1.149-1.153
	C21.778,0.173,21.362,0,20.927,0l0,0c-0.434,0-0.85,0.172-1.156,0.479L0.477,19.82c-0.636,0.637-0.636,1.669,0,2.307l1.149,1.151
	c0.019,0.019,0.042,0.033,0.062,0.05l18.2,18.159c0.318,0.319,0.736,0.478,1.153,0.478s0.834-0.158,1.152-0.477l1.153-1.149
	c0.309-0.307,0.48-0.723,0.48-1.156C23.83,38.747,23.657,38.332,23.349,38.025z"/>
</svg>
