<?xml version="1.0" encoding="utf-8"?>
<!-- Generator: Adobe Illustrator 19.2.1, SVG Export Plug-In . SVG Version: 6.00 Build 0)  -->
<svg version="1.1" id="Layer_1" xmlns="http://www.w3.org/2000/svg" xmlns:xlink="http://www.w3.org/1999/xlink" x="0px" y="0px"
	 viewBox="0 0 54 54" style="enable-background:new 0 0 54 54;" xml:space="preserve">
<style type="text/css">
	.st0{fill:#62C7CB;}
	.st1{fill:#C7E8EB;}
	.st2{fill:#010101;}
	.st3{fill:none;}
	.st4{fill:#FFFFFF;}
</style>
<g>
	<circle class="st0" cx="27" cy="27" r="27"/>
</g>
<g>
	<circle class="st1" cx="28.5" cy="9.4" r="3.5"/>
	<path class="st2" d="M28.5,6.4c1.7,0,3,1.3,3,3s-1.3,3-3,3c-1.7,0-3-1.3-3-3S26.8,6.4,28.5,6.4 M28.5,5.4c-2.2,0-4,1.8-4,4
		s1.8,4,4,4s4-1.8,4-4S30.7,5.4,28.5,5.4L28.5,5.4z"/>
</g>
<g>
	<path class="st3" d="M31.6,35.3c-0.2,0.2-0.5,0.4-0.8,0.4C31.1,35.7,31.4,35.5,31.6,35.3z"/>
	<path class="st3" d="M30.8,32.6c0.3,0.1,0.6,0.2,0.8,0.4C31.4,32.8,31.1,32.7,30.8,32.6z"/>
	<path class="st3" d="M24.6,34.2c0,0.6-0.3,1-0.7,1.3C24.3,35.2,24.6,34.7,24.6,34.2c0-0.6-0.3-1-0.7-1.3
		C24.3,33.1,24.6,33.6,24.6,34.2z"/>
	<path class="st3" d="M15.9,32.6c0.3,0.1,0.6,0.2,0.8,0.4C16.5,32.8,16.2,32.7,15.9,32.6z"/>
	<path class="st3" d="M16.7,35.3c-0.2,0.2-0.5,0.4-0.8,0.4C16.2,35.7,16.5,35.5,16.7,35.3z"/>
	<ellipse transform="matrix(0.7071 -0.7072 0.7072 0.7071 -10.9876 13.0113)" class="st3" cx="10.2" cy="19.8" rx="0.3" ry="0.3"/>
	<path class="st3" d="M25.5,38.6c0.1,0.3,0.2,0.7,0.2,1.1c0,1.5,0,3.6,0,3.6h0c0,0,0-2.1,0-3.6c0-0.6-0.2-1.1-0.5-1.5
		C25.4,38.2,25.4,38.4,25.5,38.6z"/>
	<rect x="27.5" y="24.3" class="st3" width="2" height="4"/>
	<path class="st3" d="M30.5,24.3C30.5,24.3,30.5,24.3,30.5,24.3l0,4h1.1v-4H30.5z"/>
	<path class="st2" d="M44.2,28.3h-4.6v-10c0-0.6-0.4-1-1-1h-6.1c-0.2,0-0.4,0.1-0.6,0.2l-2.6-4.7c-0.2-0.3-0.5-0.5-0.9-0.5
		s-0.7,0.2-0.9,0.5l-5.5,10c-0.2,0.3-0.2,0.7,0,1s0.5,0.5,0.9,0.5h3.5c0,0,0,0,0,0v4h-6.8c-0.3,0-0.5,0.2-0.5,0.5s0.2,0.5,0.5,0.5
		h7.8h2h3.1h6.1h5.6c0.3,0,0.5-0.2,0.5-0.5S44.5,28.3,44.2,28.3z M27.5,15.1l1-1.8l3.1,5.5v3.6v0.9h-8.6L27.5,15.1L27.5,15.1z
		 M27.5,28.3v-4h2v4H27.5z M30.5,28.3v-4c0,0,0,0,0,0h1.1v4H30.5z M32.5,28.3v-10h6.1v10H32.5z"/>
	<polygon class="st4" points="31.5,23.3 31.5,22.4 27.5,15.1 22.9,23.3 	"/>
	<g>
		<polygon class="st1" points="31.5,18.8 28.5,13.3 27.5,15.1 27.5,15.1 31.5,22.4 		"/>
	</g>
	<rect x="32.5" y="18.3" class="st4" width="6.1" height="10"/>
	<path class="st1" d="M15.5,35.8c0.1,0,0.2,0,0.3,0c0.3-0.1,0.6-0.2,0.8-0.4c0.3-0.3,0.5-0.7,0.5-1.1S17,33.3,16.7,33
		c-0.2-0.2-0.5-0.4-0.8-0.4c-0.1,0-0.2,0-0.3,0c-0.9,0-1.6,0.7-1.6,1.6S14.7,35.8,15.5,35.8z"/>
	<path class="st4" d="M14.9,37c0.1,0,0.2,0,0.3-0.1C15,36.9,15,37,14.9,37z"/>
	<path class="st4" d="M14.9,37c-0.1,0-0.3,0.1-0.4,0.1c-1,0.4-1.7,1.4-1.7,2.5c0,1.5,0,3.6,0,3.6h4.1c0,0,0-2.1,0-3.6
		C16.9,38.3,16,37.3,14.9,37z"/>
	<path class="st2" d="M17.1,36.2c0.6-0.5,1-1.2,1-2.1c0-1.4-1.2-2.6-2.6-2.6s-2.6,1.2-2.6,2.6c0,0.8,0.4,1.6,1,2.1
		c-1.3,0.6-2.2,1.9-2.2,3.4v3.6c0,0.6,0.4,1,1,1h5.4c0.6,0,1-0.4,1-1v-3.6C19.3,38.1,18.4,36.8,17.1,36.2z M15.5,32.6
		c0.1,0,0.2,0,0.3,0c0.3,0.1,0.6,0.2,0.8,0.4c0.3,0.3,0.5,0.7,0.5,1.1S17,35,16.7,35.3c-0.2,0.2-0.5,0.4-0.8,0.4c-0.1,0-0.2,0-0.3,0
		c-0.9,0-1.6-0.7-1.6-1.6S14.7,32.6,15.5,32.6z M18.3,43.2h-1.4h-4.1c0,0,0-2.1,0-3.6c0-1.1,0.7-2.1,1.7-2.5
		c0.1-0.1,0.2-0.1,0.4-0.1l0,0c0,0,0,0,0,0c0.1,0,0.2,0,0.3-0.1c0.1,0,0.3,0,0.4,0c1.5,0,2.7,1.2,2.7,2.7
		C18.3,41.1,18.3,43.2,18.3,43.2z"/>
	<g>
		<path class="st1" d="M15.5,36.9c-0.1,0-0.3,0-0.4,0c-0.1,0-0.2,0-0.3,0.1c0,0,0,0,0,0l0,0c1.2,0.3,2,1.4,2,2.6c0,1.5,0,3.6,0,3.6
			h1.4c0,0,0-2.1,0-3.6C18.3,38.1,17,36.9,15.5,36.9z"/>
	</g>
	<path class="st1" d="M23,35.8c0.3,0,0.6-0.1,0.9-0.3c0.4-0.3,0.7-0.8,0.7-1.3s-0.3-1-0.7-1.3c-0.3-0.2-0.6-0.3-0.9-0.3
		c-0.9,0-1.6,0.7-1.6,1.6S22.1,35.8,23,35.8z"/>
	<path class="st4" d="M22.3,37c0.1,0,0.2,0,0.3-0.1C22.5,36.9,22.4,37,22.3,37z"/>
	<path class="st4" d="M22.3,37c-1.2,0.3-2,1.4-2,2.6c0,1.5,0,3.6,0,3.6h4.1c0,0,0-2.1,0-3.6C24.4,38.3,23.5,37.3,22.3,37z"/>
	<path class="st2" d="M24.6,36.2c0.6-0.5,1-1.2,1-2.1c0-1.4-1.2-2.6-2.6-2.6s-2.6,1.2-2.6,2.6c0,0.8,0.4,1.6,1,2.1
		c-1.3,0.6-2.2,1.9-2.2,3.4v3.6c0,0.6,0.4,1,1,1h5.4c0.6,0,1-0.4,1-1v-3.6C26.7,38.1,25.8,36.8,24.6,36.2z M23,32.6
		c0.3,0,0.6,0.1,0.9,0.3c0.4,0.3,0.7,0.8,0.7,1.3s-0.3,1-0.7,1.3c-0.3,0.2-0.6,0.3-0.9,0.3c-0.9,0-1.6-0.7-1.6-1.6
		S22.1,32.6,23,32.6z M25.7,43.2L25.7,43.2h-1.4h-4.1c0,0,0-2.1,0-3.6c0-1.3,0.9-2.3,2-2.6l0,0h0c0.1,0,0.2,0,0.3-0.1
		c0.1,0,0.3,0,0.4,0c0.2,0,0.4,0,0.5,0.1c0.7,0.1,1.3,0.6,1.7,1.1c0.3,0.4,0.5,1,0.5,1.5C25.7,41.1,25.7,43.2,25.7,43.2z"/>
	<g>
		<path class="st1" d="M25.5,38.6c-0.1-0.2-0.2-0.3-0.3-0.5c-0.4-0.6-1-1-1.7-1.1c-0.2,0-0.4-0.1-0.5-0.1c-0.1,0-0.3,0-0.4,0
			c-0.1,0-0.2,0-0.3,0.1h0l0,0c1.2,0.3,2,1.4,2,2.6c0,1.5,0,3.6,0,3.6h1.4c0,0,0-2.1,0-3.6C25.7,39.2,25.6,38.9,25.5,38.6z"/>
	</g>
	<path class="st1" d="M30.5,35.8c0.1,0,0.2,0,0.3,0c0.3-0.1,0.6-0.2,0.8-0.4c0.3-0.3,0.5-0.7,0.5-1.1s-0.2-0.8-0.5-1.1
		c-0.2-0.2-0.5-0.4-0.8-0.4c-0.1,0-0.2,0-0.3,0c-0.9,0-1.6,0.7-1.6,1.6S29.6,35.8,30.5,35.8z"/>
	<path class="st4" d="M29.8,37c-0.1,0-0.3,0.1-0.4,0.1c-1,0.4-1.7,1.4-1.7,2.5c0,1.5,0,3.6,0,3.6h4.1c0,0,0-2.1,0-3.6
		C31.8,38.3,30.9,37.3,29.8,37z"/>
	<path class="st4" d="M29.8,37c0.1,0,0.2,0,0.3-0.1C29.9,36.9,29.9,37,29.8,37z"/>
	<path class="st2" d="M32,36.2c0.6-0.5,1-1.2,1-2.1c0-1.4-1.2-2.6-2.6-2.6s-2.6,1.2-2.6,2.6c0,0.8,0.4,1.6,1,2.1
		c-1.3,0.6-2.2,1.9-2.2,3.4v3.6c0,0.6,0.4,1,1,1h5.4c0.6,0,1-0.4,1-1v-3.6C34.2,38.1,33.3,36.8,32,36.2z M30.5,32.6
		c0.1,0,0.2,0,0.3,0c0.3,0.1,0.6,0.2,0.8,0.4c0.3,0.3,0.5,0.7,0.5,1.1s-0.2,0.8-0.5,1.1c-0.2,0.2-0.5,0.4-0.8,0.4
		c-0.1,0-0.2,0-0.3,0c-0.9,0-1.6-0.7-1.6-1.6S29.6,32.6,30.5,32.6z M33.2,43.2h-1.4h-4.1c0,0,0-2.1,0-3.6c0-1.1,0.7-2.1,1.7-2.5
		c0.1-0.1,0.2-0.1,0.4-0.1l0,0c0,0,0,0,0,0c0.1,0,0.2,0,0.3-0.1c0.1,0,0.3,0,0.4,0c1.5,0,2.7,1.2,2.7,2.7
		C33.2,41.1,33.2,43.2,33.2,43.2z"/>
	<g>
		<path class="st1" d="M30.5,36.9c-0.1,0-0.3,0-0.4,0c-0.1,0-0.2,0-0.3,0.1c0,0,0,0,0,0l0,0c1.2,0.3,2,1.4,2,2.6c0,1.5,0,3.6,0,3.6
			h1.4c0,0,0-2.1,0-3.6C33.2,38.1,32,36.9,30.5,36.9z"/>
	</g>
	<ellipse transform="matrix(0.3895 -0.921 0.921 0.3895 5.6308 58.5733)" class="st4" cx="47" cy="25" rx="0.5" ry="0.5"/>
	<ellipse transform="matrix(0.3895 -0.921 0.921 0.3895 11.012 43.8628)" class="st4" cx="38.6" cy="13.6" rx="0.5" ry="0.5"/>
	<path class="st4" d="M9.8,19.3c-0.2,0.2-0.2,0.6,0,0.8s0.6,0.2,0.8,0s0.2-0.6,0-0.8S10,19.1,9.8,19.3z M10.4,20
		c-0.1,0.1-0.3,0.1-0.4,0c-0.1-0.1-0.1-0.3,0-0.4c0.1-0.1,0.3-0.1,0.4,0C10.5,19.7,10.5,19.9,10.4,20z"/>
	<path class="st4" d="M14.6,24.1l0.3,0.9l0.3-0.9c0.1-0.2,0.2-0.3,0.4-0.4l0.9-0.3l-0.9-0.3c-0.2-0.1-0.3-0.2-0.4-0.4l-0.3-0.9
		l-0.3,0.9c-0.1,0.2-0.2,0.3-0.4,0.4l-0.9,0.3l0.9,0.3C14.4,23.8,14.5,23.9,14.6,24.1z M14.9,23.2c0.1,0,0.3,0.1,0.3,0.3
		s-0.1,0.3-0.3,0.3c-0.1,0-0.3-0.1-0.3-0.3S14.7,23.2,14.9,23.2z"/>
	<circle class="st0" cx="14.9" cy="23.4" r="0.3"/>
	<path class="st4" d="M16.7,17.3l0.3,0.9l0.3-0.9c0.1-0.2,0.2-0.3,0.4-0.4l0.9-0.3l-0.9-0.3c-0.2-0.1-0.3-0.2-0.4-0.4L17,15.1
		L16.7,16c-0.1,0.2-0.2,0.3-0.4,0.4l-0.9,0.3l0.9,0.3C16.5,17,16.7,17.2,16.7,17.3z M17,16.4c0.1,0,0.3,0.1,0.3,0.3
		s-0.1,0.3-0.3,0.3s-0.3-0.1-0.3-0.3S16.9,16.4,17,16.4z"/>
	<circle class="st0" cx="17" cy="16.7" r="0.3"/>
</g>
</svg>
