<?xml version="1.0" encoding="utf-8"?>
<!-- Generator: Adobe Illustrator 16.0.4, SVG Export Plug-In . SVG Version: 6.00 Build 0)  -->
<!DOCTYPE svg PUBLIC "-//W3C//DTD SVG 1.1//EN" "http://www.w3.org/Graphics/SVG/1.1/DTD/svg11.dtd">
<svg version="1.1" id="Layer_1" xmlns="http://www.w3.org/2000/svg" xmlns:xlink="http://www.w3.org/1999/xlink" x="0px" y="0px"
	 width="18px" height="11px" viewBox="0 0 18 11" enable-background="new 0 0 18 11" xml:space="preserve">
<path d="M17.998,5c0.001-0.213-0.065-0.424-0.198-0.6l-3-4C14.611,0.148,14.314,0,14,0H4C3.686,0,3.389,0.148,3.2,0.4l-3,4
	C0.068,4.576,0.002,4.787,0.003,4.999C0.003,5.142,0,5.797,0,6v3c0,1.104,0.896,2,2,2h14c1.104,0,2-0.896,2-2V6
	C18,5.797,17.997,5.143,17.998,5z M4.5,2h9L15,4h-3h-1h-1c0,0.552-0.448,1-1,1S8,4.552,8,4H7H6H3L4.5,2z M16,9H2V6h4h0.78
	C7.33,6.609,8.117,7,9,7s1.67-0.391,2.22-1H12h4V9z"/>
</svg>
