<?xml version="1.0" encoding="utf-8"?>
<!-- Generator: Adobe Illustrator 16.0.4, SVG Export Plug-In . SVG Version: 6.00 Build 0)  -->
<!DOCTYPE svg PUBLIC "-//W3C//DTD SVG 1.1//EN" "http://www.w3.org/Graphics/SVG/1.1/DTD/svg11.dtd">
<svg version="1.1" id="Layer_1" xmlns="http://www.w3.org/2000/svg" xmlns:xlink="http://www.w3.org/1999/xlink" x="0px" y="0px"
	 width="42px" height="42px" viewBox="0 0 42 42" enable-background="new 0 0 42 42" xml:space="preserve">
<g>
	<circle fill-rule="evenodd" clip-rule="evenodd" fill="#F9C02E" cx="21" cy="21" r="20"/>
	<g>
		<path fill="#FFFFFF" d="M13.516,10.929h14.97c1.423,0,2.586,1.163,2.586,2.585v14.971c0,1.422-1.163,2.585-2.586,2.585h-14.97
			c-1.423,0-2.587-1.163-2.587-2.585V13.514C10.929,12.092,12.093,10.929,13.516,10.929z M25.604,13.167
			c-0.501,0-0.908,0.409-0.908,0.905v2.169c0,0.5,0.407,0.912,0.908,0.912h2.275c0.499,0,0.906-0.412,0.906-0.912v-2.169
			c0-0.496-0.407-0.905-0.906-0.905H25.604z M28.794,19.443h-1.772c0.167,0.553,0.26,1.129,0.26,1.732
			c0,3.347-2.805,6.064-6.262,6.064c-3.458,0-6.262-2.718-6.262-6.064c0-0.604,0.091-1.18,0.259-1.732h-1.848v8.509
			c0,0.443,0.358,0.801,0.8,0.801h14.024c0.441,0,0.801-0.357,0.801-0.801V19.443z M21.02,17.036c-2.233,0-4.046,1.754-4.046,3.92
			c0,2.163,1.812,3.919,4.046,3.919c2.232,0,4.045-1.756,4.045-3.919C25.064,18.79,23.252,17.036,21.02,17.036z"/>
	</g>
</g>
</svg>
