<?xml version="1.0" encoding="utf-8"?>
<!-- Generator: Adobe Illustrator 19.2.1, SVG Export Plug-In . SVG Version: 6.00 Build 0)  -->
<svg version="1.1" xmlns="http://www.w3.org/2000/svg" xmlns:xlink="http://www.w3.org/1999/xlink" x="0px" y="0px"
	 viewBox="0 0 9.1 9.1" style="enable-background:new 0 0 9.1 9.1;" xml:space="preserve">
<style type="text/css">
	.st0{fill:none;stroke:#CA5F47;stroke-width:2;stroke-linecap:round;stroke-miterlimit:10;}
	.st1{fill:#CA5F47;}
</style>
<g id="NOT_OULINED">
	<line class="st0" x1="1" y1="1" x2="8.1" y2="8.1"/>
	<line class="st0" x1="8.1" y1="1" x2="1" y2="8.1"/>
</g>
<g id="OUTLINED">
	<path class="st1" d="M5.9,4.5l2.8-2.8c0.4-0.4,0.4-1,0-1.4s-1-0.4-1.4,0L4.5,3.1L1.7,0.3c-0.4-0.4-1-0.4-1.4,0s-0.4,1,0,1.4
		l2.8,2.8L0.3,7.4c-0.4,0.4-0.4,1,0,1.4C0.5,9,0.7,9.1,1,9.1S1.5,9,1.7,8.8l2.8-2.8l2.8,2.8C7.6,9,7.8,9.1,8.1,9.1S8.6,9,8.8,8.8
		c0.4-0.4,0.4-1,0-1.4L5.9,4.5z"/>
</g>
</svg>
