<?xml version="1.0" encoding="utf-8"?>
<!-- Generator: Adobe Illustrator 19.2.1, SVG Export Plug-In . SVG Version: 6.00 Build 0)  -->
<svg version="1.1" xmlns="http://www.w3.org/2000/svg" xmlns:xlink="http://www.w3.org/1999/xlink" x="0px" y="0px"
	 viewBox="0 0 390.8 109.8" style="enable-background:new 0 0 390.8 109.8;" xml:space="preserve">
<style type="text/css">
	.st0{display:none;}
	.st1{display:inline;}
	.st2{fill:none;}
	.st3{fill:#A4CE39;}
	.st4{fill:#F7BC25;}
	.st5{font-family:'Avenir-Black';}
	.st6{font-size:9.6237px;}
</style>
<g id="NON_OUTLINES" class="st0">
	<g class="st1">
		<path class="st2" d="M255.5,99.5c0-2-1.7-2.3-3.3-2.3h-2.3v4.6h1.5C253.2,101.8,255.5,101.8,255.5,99.5z"/>
		<path class="st2" d="M240.9,97.2h-2.8v4.6h2.8c1.6,0,2.8-0.7,2.8-2.3C243.7,97.9,242.5,97.2,240.9,97.2z"/>
		<path class="st2" d="M64.4,96.8c-3.2,0-5.5,2.6-5.5,5.7s2.2,5.7,5.5,5.7s5.5-2.6,5.5-5.7S67.6,96.8,64.4,96.8z"/>
		<path class="st2" d="M266.8,96.8c-3.2,0-5.5,2.6-5.5,5.7s2.2,5.7,5.5,5.7s5.5-2.6,5.5-5.7S270,96.8,266.8,96.8z"/>
		<polygon class="st2" points="29.7,97.8 26.8,104.6 32.5,104.6 29.7,97.8 		"/>
		<polygon class="st2" points="195.7,97.8 192.9,104.6 198.5,104.6 195.8,97.8 		"/>
		<path class="st2" d="M209,97.2h-3.1V108h3.1c3.2,0,5.6-1.6,5.6-5.4S212.1,97.2,209,97.2z"/>
		<path class="st2" d="M126.4,96.8c-3.2,0-5.5,2.6-5.5,5.7s2.2,5.7,5.5,5.7c3.2,0,5.5-2.6,5.5-5.7S129.7,96.8,126.4,96.8z"/>
		<path class="st2" d="M133.8,73.8c0.9-1.1,1.7-2.4,2.2-3.9c0.5-1.5,0.7-3,0.7-4.6c0-1.6-0.2-3.1-0.7-4.6c-0.5-1.5-1.2-2.7-2.2-3.9
			c-0.9-1.1-2.1-2-3.5-2.7c-1.4-0.7-3-1-4.8-1c-1.8,0-3.4,0.3-4.8,1c-1.4,0.7-2.6,1.5-3.5,2.7c-0.9,1.1-1.7,2.4-2.2,3.9
			c-0.5,1.5-0.7,3-0.7,4.6c0,1.6,0.2,3.1,0.7,4.6c0.5,1.5,1.2,2.8,2.2,3.9c0.9,1.1,2.1,2,3.5,2.7c1.4,0.7,3,1,4.8,1
			c1.8,0,3.4-0.3,4.8-1C131.7,75.8,132.9,74.9,133.8,73.8z"/>
		<path class="st2" d="M209.9,73.5c-3,0.4-2.3,3.9,1.6,4.7c3,0.6,6.1-0.5,7.6-2C219.1,76.1,214.3,72.9,209.9,73.5z"/>
		<path class="st2" d="M349,30.1c-1.8,0.4-3.7,0.6-5.5,0.8c1.1,0.2,2.4,0.2,4,0.2c2.9,0,6.2-0.4,9.3-2.6c3.1-2.2,9.2-17.6,7.6-21.2
			c-0.3-0.8-1-1.2-1.9-1.4c-0.7,3.7-1.9,10-2.8,11.7C358.4,20.2,357,28.5,349,30.1z"/>
		<path class="st2" d="M280.4,54.4c-0.5-1.6-2-2-3.2-1.8c-1.3,0.3-3.6,1.5-5.5,4.1c-2.4,3.3-3.6,6.6-3.7,10c0,1.9,0.6,4.7,1.2,6.4
			c1.8-1.8,4-4.4,5.7-6.6C278.3,62,281,56,280.4,54.4z"/>
		<path class="st2" d="M251.6,54.4c-0.6-1.5-2-2-3.2-1.8c-1.3,0.3-3.6,1.5-5.5,4.1c-2.4,3.3-3.6,6.6-3.7,10c0,1.9,0.6,4.7,1.2,6.4
			c1.8-1.8,4.1-4.4,5.7-6.6C249.4,62,252.2,55.9,251.6,54.4z"/>
		<path class="st2" d="M185.7,99.5c0-2-1.7-2.3-3.3-2.3h-2.3v4.6h1.5C183.3,101.8,185.7,101.8,185.7,99.5z"/>
		<path class="st2" d="M63.1,58.7c-0.4-1.2-1-2.2-1.8-3c-0.8-0.9-1.7-1.5-2.9-2s-2.5-0.7-4.1-0.7c-1.4,0-2.8,0.2-4,0.7
			c-1.3,0.5-2.3,1.2-3.3,2s-1.7,1.9-2.3,3c-0.6,1.2-0.9,2.4-1,3.7h20C63.7,61.1,63.5,59.8,63.1,58.7z"/>
		<path class="st3" d="M337.6,23.9c2.2-4.2,7.4-8.1,11.1-8.6s4.9,0.7,6.4,2.6c1.4,1.9-0.2,5.6-1.7,7.4c-0.7,0.9-1.6,1.4-2.4,1.4
			c-0.4,0-0.7-0.1-0.9-0.4c-0.4-0.5-0.3-1.3,0.1-2.4c0.3-0.9,2-3.7-1.2-3.2c-5.4,0.8-8.7,7.7-7.9,9.1c0.4,0.7,1.2,1,2.3,1.3
			c1.9-0.2,3.7-0.5,5.5-0.8c8-1.6,9.4-9.9,10.7-12.4c0.9-1.8,2.1-8.1,2.8-11.7c-1.6-0.4-3.9,0-6.1,0.2c-3.3,0.4-9.6,2.5-12,3.8
			c-2.4,1.3-5,3.6-6.3,5.4c-1.8,2.4-4,9.4-6,16.1c0.7,0,2.1-0.1,3.7-0.2C335.5,29.5,336,27,337.6,23.9z"/>
		<path class="st4" d="M312.6,56.3c-0.3-0.2-0.6-0.5-0.9-0.8c-1.3-1.3-2.6-2.8-5-2.8c-1.1,0-2.5,0.2-3.8,0.8
			c-5.5,2.8-7.1,12.8-6.6,19c0.1,1.7,1.2,3.6,2.5,4.5c0.1,0.1,0.3,0.2,0.5,0.3c3.8,0,9.3-3.9,9.3-3.9c5.5-5.4,7.4-11.5,6.1-16.2
			c-0.1,0-0.2,0-0.2,0C313.9,57.1,313.2,56.8,312.6,56.3z"/>
		<path class="st4" d="M27.3,48.6L18,74.9h-0.1L7.4,48.6H0l14.4,33.6l-2.1,5.6c-0.7,1.8-1.5,3.2-2.3,4.1c-0.9,1-2.2,1.5-3.9,1.5
			c-1.1,0-2.2-0.2-3.3-0.6l-0.6,5.9c0.8,0.2,1.5,0.3,2.2,0.4c0.7,0.1,1.5,0.1,2.2,0.1c1.7,0,3.1-0.2,4.3-0.6c1.2-0.4,2.3-1,3.2-1.8
			c0.9-0.8,1.7-1.7,2.3-2.8c0.7-1.1,1.3-2.4,1.8-3.8l16.3-41.5L27.3,48.6L27.3,48.6z"/>
		<path class="st4" d="M54.7,83.1c3,0,5.7-0.6,8.1-1.7c2.4-1.1,4.5-2.9,6.3-5.3l-4.7-3.8c-0.9,1.4-2.2,2.6-3.9,3.6
			c-1.7,1-3.6,1.5-5.9,1.5c-1.5,0-2.8-0.3-4.1-0.8c-1.3-0.5-2.4-1.2-3.4-2.1c-1-0.9-1.8-2-2.4-3.2c-0.6-1.2-0.9-2.6-1-4h26.7
			c0-0.4,0.1-0.8,0.1-1.1c0-0.4,0-0.8,0-1.1c0-2.7-0.4-5.1-1.1-7.3c-0.8-2.2-1.8-4-3.2-5.5c-1.4-1.5-3.1-2.7-5.1-3.5
			c-2-0.8-4.3-1.2-6.7-1.2s-4.8,0.4-6.9,1.3c-2.1,0.9-4,2.1-5.5,3.7c-1.6,1.6-2.8,3.4-3.7,5.6c-0.9,2.2-1.3,4.6-1.3,7.2
			c0,2.6,0.4,5.1,1.3,7.2c0.9,2.2,2.1,4,3.7,5.6c1.6,1.5,3.4,2.7,5.6,3.6C49.7,82.7,52.1,83.1,54.7,83.1z M44.8,58.7
			c0.6-1.2,1.3-2.2,2.3-3c0.9-0.9,2-1.5,3.3-2c1.3-0.5,2.6-0.7,4-0.7c1.6,0,2.9,0.2,4.1,0.7s2.1,1.2,2.9,2c0.8,0.9,1.4,1.9,1.8,3
			c0.4,1.2,0.6,2.4,0.7,3.7h-20C43.8,61.1,44.2,59.8,44.8,58.7z"/>
		<rect x="77.3" y="28.6" class="st4" width="6.7" height="53.6"/>
		<rect x="94" y="28.6" class="st4" width="6.7" height="53.6"/>
		<path class="st4" d="M132.7,81.8c2.2-0.9,4.1-2.1,5.8-3.7s2.9-3.5,3.8-5.6c0.9-2.2,1.4-4.6,1.4-7.2c0-2.6-0.5-5-1.4-7.1
			c-0.9-2.1-2.2-4-3.8-5.6c-1.6-1.6-3.6-2.8-5.8-3.7c-2.2-0.9-4.6-1.3-7.2-1.3s-4.9,0.4-7.2,1.3c-2.2,0.9-4.1,2.1-5.7,3.7
			c-1.6,1.6-2.9,3.4-3.8,5.6c-0.9,2.2-1.4,4.5-1.4,7.1c0,2.6,0.5,5,1.4,7.2c0.9,2.2,2.2,4.1,3.8,5.6c1.6,1.6,3.5,2.8,5.7,3.7
			c2.2,0.9,4.6,1.3,7.2,1.3C128.1,83.1,130.5,82.6,132.7,81.8z M120.7,76.5c-1.4-0.7-2.6-1.6-3.5-2.7c-0.9-1.1-1.7-2.4-2.2-3.9
			c-0.5-1.5-0.7-3-0.7-4.6c0-1.6,0.2-3.1,0.7-4.6c0.5-1.5,1.2-2.7,2.2-3.9c0.9-1.1,2.1-2,3.5-2.7c1.4-0.7,3-1,4.8-1
			c1.8,0,3.4,0.3,4.8,1c1.4,0.7,2.6,1.5,3.5,2.7c0.9,1.1,1.7,2.4,2.2,3.9c0.5,1.5,0.7,3,0.7,4.6c0,1.6-0.2,3.1-0.7,4.6
			c-0.5,1.5-1.2,2.8-2.2,3.9c-0.9,1.1-2.1,2-3.5,2.7c-1.4,0.7-3,1-4.8,1C123.7,77.5,122.1,77.2,120.7,76.5z"/>
		<polygon class="st4" points="192.3,48.6 184.7,74.2 184.6,74.2 176.4,48.6 169.4,48.6 161.4,74.2 161.3,74.2 153.7,48.6 
			146.4,48.6 157.6,82.2 164.6,82.2 172.8,56.9 173,56.9 181.2,82.2 188.2,82.2 199.3,48.6 		"/>
		<path d="M367.9,0.9c-2.8-2.2-18.8,0-24.6,2.8c-5.8,2.7-7.7,4.7-10.2,9c-2.6,4.4-5.7,11.9-8,20.5c-2.3,8.7-7.6,31.5-10,36.1
			c-3.9,7.2-9.3,8.8-11,8.9c-1.6,0.1-3.4-0.2-4.7-0.9c-0.2-0.1-0.3-0.2-0.5-0.3c-1.3-0.9-2.4-2.8-2.5-4.5c-0.5-6.2,1-16.2,6.6-19
			c1.2-0.6,2.7-0.8,3.8-0.8c2.5,0,3.8,1.5,5,2.8c0.3,0.3,0.6,0.6,0.9,0.8c0.6,0.5,1.3,0.9,2,0.9c0.1,0,0.2,0,0.2,0
			c0.6,0,1.2-0.1,1.6-0.5c0.3-0.3,0.6-0.8,0.4-1.7c-0.6-3.5-4-7.3-10.6-7.3c0,0-8.8-0.2-13.4,10.6c-2,4.8-1.6,11-1.4,13.3
			c-2.3,3-5.7,5.5-9.1,6.3c-3.7,0.8-8,0-10-1.8c2.8-2.2,4.8-4.3,7-7.3c3.5-4.5,5.4-9.4,6.2-13.1c0.3-2.2-0.3-3.5-1.5-4.9
			c-1.7-2.1-4-3.2-6.8-3.2c-2.8,0-5.6,1.4-8.4,4.2c-4.1,4.3-6.2,9.2-6.2,14.8c0,3.2,0.7,6.1,2.2,8.5c-3.4,1.5-7.8,2.9-11.6,2.9
			c-3.8,0-7.2-0.8-9.8-2c2.8-2.2,4.8-4.3,7-7.3c3.5-4.5,5.4-9.4,6.2-13.1c0.3-2.2-0.3-3.5-1.5-4.9c-1.7-2.1-4-3.2-6.8-3.2
			c-2.8,0-5.6,1.4-8.4,4.2c-4.1,4.3-6.2,9.2-6.2,14.8c0,3.4,0.8,6.3,2.4,8.8c-1,0.3-2.1,0.5-3.4,0.5c-4,0-5.5-0.7-7.5-1.9
			c0.6-2.6,0.5-4.1-0.9-6.6c-1.4-2.6-3.7-4.2-6.8-5.8c-2.3-1.1-4.6-2.5-5.1-3.8c-0.5-1.1-0.5-2.2,0.4-3.5c1.1-1.6,4.1-2.1,5.7-1.8
			c2.3,0.4,3.1,1.6,4.5,2.9c1.3,1.2,3.3,2.5,4.6,0.9c1-1.2-0.1-4.4-2.6-6.4c-2.7-2.2-5.3-2.5-7.9-2.5c-1.9,0-3.8,0.4-5.3,1.2
			c-3,1.5-6.9,6.9-4.9,11s5.4,5.1,8.7,6.8c2.7,1.4,4.6,3.2,4.6,5.5c0,0-2.9-1.9-8.3-2.7c-6.2-0.8-9.8,3.2-9.8,5.9
			c0,3.4,4.8,7.7,11.1,7.7c4.1,0,6.8-1.4,10.4-4.5c2.8,1.4,5.3,2.5,9.2,2.5c2.3,0,4.7-0.7,6.5-1.8c3,2.4,7.5,4.1,14,3.8
			c5.2-0.2,10.1-2.1,14.2-4.3c3,2.7,7.6,4.6,14.6,4.3c5.2-0.2,8.4-2.5,11-4.9c0.6,0.9,1.3,1.7,2.1,2.5c1,0.9,4.1,2.4,8,2.4
			c3.5,0,12.1-2.5,16.9-12.4c3.6-7.2,8.5-29,10.7-36.4c0.3-0.9,0.6-1.9,0.9-2.8c2-6.7,4.2-13.7,6-16.1c1.4-1.8,4-4.1,6.3-5.4
			s8.7-3.3,12-3.8c2.2-0.3,4.5-0.6,6.1-0.2c0.9,0.2,1.5,0.6,1.9,1.4c1.6,3.7-4.5,19.1-7.6,21.2c-3.1,2.2-6.4,2.6-9.3,2.6
			c-1.6,0-2.9,0-4-0.2c-1.1-0.2-1.9-0.6-2.3-1.3c-0.8-1.3,2.5-8.3,7.9-9.1c3.2-0.5,1.6,2.3,1.2,3.2c-0.4,1.1-0.5,1.9-0.1,2.4
			c0.2,0.3,0.5,0.4,0.9,0.4c0.7,0,1.6-0.5,2.4-1.4c1.5-1.8,3.1-5.5,1.7-7.4c-1.4-1.9-2.6-3-6.4-2.6s-9,4.3-11.1,8.6
			c-1.6,3.1-2,5.7-1.9,7.4c0,0.6,0.2,1.1,0.3,1.6c0.6,1.7,4.4,3.5,10,3.5c2.1,0,5-0.4,7.6-0.7c11.5-2.1,13.6-14.4,15.2-20.1
			C370.7,8.2,370.7,3.1,367.9,0.9z M211.5,78.2c-3.9-0.8-4.6-4.3-1.6-4.7c4.4-0.6,9.2,2.6,9.2,2.7C217.6,77.7,214.5,78.8,211.5,78.2
			z M240.5,73.1c-0.7-1.7-1.3-4.4-1.2-6.4c0.1-3.3,1.3-6.7,3.7-10c1.9-2.6,4.1-3.8,5.5-4.1c1.2-0.2,2.6,0.3,3.2,1.8
			s-2.2,7.6-5.5,12.1C244.5,68.7,242.3,71.3,240.5,73.1z M269.3,73.1c-0.7-1.7-1.3-4.4-1.2-6.4c0.1-3.3,1.3-6.7,3.7-10
			c1.9-2.6,4.1-3.8,5.5-4.1c1.3-0.2,2.7,0.2,3.2,1.8c0.5,1.6-2.2,7.6-5.5,12.1C273.4,68.7,271.1,71.3,269.3,73.1z"/>
		<path d="M29,95.7l-6.1,13.8h1.9l1.4-3.4h6.9l1.4,3.4h1.9l-5.9-13.8H29z M26.8,104.6l2.9-6.8h0l2.7,6.8H26.8z"/>
		<path d="M50.3,108.3c-3.1,0-5.3-2.5-5.3-5.7c0-3,2.2-5.7,5.3-5.7c1.3,0,2.6,0.6,3.5,1.7l1.4-1c-1.2-1.5-3-2.2-4.9-2.2
			c-4.1,0-7,3.2-7,7.3c0,4.2,3.1,7.3,7,7.3c2.2,0,4-0.8,5.2-2.4l-1.2-1C53.3,107.6,51.9,108.3,50.3,108.3z"/>
		<path d="M64.4,95.3c-4.2,0-7.2,3.1-7.2,7.3s3,7.3,7.2,7.3s7.2-3.1,7.2-7.3S68.6,95.3,64.4,95.3z M64.4,108.3
			c-3.2,0-5.5-2.6-5.5-5.7s2.2-5.7,5.5-5.7s5.5,2.6,5.5,5.7S67.6,108.3,64.4,108.3z"/>
		<polygon points="84.5,107.1 84.5,107.1 76.5,95.7 74.4,95.7 74.4,109.5 76.1,109.5 76.1,98 76.1,98 84.1,109.5 86.2,109.5 
			86.2,95.7 84.5,95.7 		"/>
		<path d="M93.8,101.7c-2.2-0.7-2.9-1.3-2.9-2.5c0-1.6,1.5-2.3,2.9-2.3c1,0,2,0.4,2.5,1.3l1.3-1.2c-1-1.2-2.3-1.6-3.9-1.6
			c-2.4,0-4.7,1.3-4.7,4c0,2.3,1.5,3.2,3.4,3.8c2.5,0.8,3.6,1.1,3.6,2.8c0,1.6-1.6,2.4-3,2.4c-1.2,0-2.4-0.5-2.9-1.5l-1.4,1.2
			c0.9,1.4,2.7,1.9,4.3,1.9c2.5,0,4.9-1.3,4.9-4C97.9,103.1,95.9,102.4,93.8,101.7z"/>
		<path d="M107,108.3c-3.1,0-5.3-2.5-5.3-5.7c0-3,2.2-5.7,5.3-5.7c1.3,0,2.6,0.6,3.5,1.7l1.4-1c-1.2-1.5-3-2.2-4.9-2.2
			c-4.1,0-7,3.2-7,7.3c0,4.2,3.1,7.3,7,7.3c2.2,0,4-0.8,5.2-2.4l-1.2-1C110.1,107.6,108.7,108.3,107,108.3z"/>
		<rect x="114.7" y="95.7" width="1.6" height="13.8"/>
		<path d="M126.4,95.3c-4.2,0-7.2,3.1-7.2,7.3s3,7.3,7.2,7.3s7.2-3.1,7.2-7.3S130.6,95.3,126.4,95.3z M126.4,108.3
			c-3.2,0-5.5-2.6-5.5-5.7s2.2-5.7,5.5-5.7c3.2,0,5.5,2.6,5.5,5.7S129.7,108.3,126.4,108.3z"/>
		<path d="M145.2,104c0,2.2-0.8,4.3-3.6,4.3s-3.6-2.1-3.6-4.3v-8.3h-1.6v8.5c0,3,1.4,5.6,5.2,5.6s5.2-2.6,5.2-5.6v-8.5h-1.6V104z"/>
		<path d="M154.4,101.7c-2.2-0.7-2.9-1.3-2.9-2.5c0-1.6,1.5-2.3,2.9-2.3c1,0,2,0.4,2.5,1.3l1.3-1.2c-1-1.2-2.3-1.6-3.9-1.6
			c-2.4,0-4.7,1.3-4.7,4c0,2.3,1.5,3.2,3.4,3.8c2.5,0.8,3.6,1.1,3.6,2.8c0,1.6-1.6,2.4-3,2.4c-1.2,0-2.4-0.5-2.9-1.5l-1.4,1.2
			c0.9,1.4,2.7,1.9,4.3,1.9c2.5,0,4.9-1.3,4.9-4C158.5,103.1,156.5,102.4,154.4,101.7z"/>
		<polygon points="165.5,97.2 170.1,97.2 170.1,109.5 171.7,109.5 171.7,97.2 176.3,97.2 176.3,95.7 165.5,95.7 		"/>
		<path d="M187.5,99.5c0-3.4-2.8-3.8-5.5-3.8h-3.5v13.8h1.6v-6.2h2.1l3.7,6.2h2l-3.9-6.4C186.2,102.8,187.5,101.5,187.5,99.5z
			 M181.5,101.8h-1.5v-4.6h2.3c1.6,0,3.3,0.3,3.3,2.3C185.7,101.8,183.3,101.8,181.5,101.8z"/>
		<path d="M195,95.7l-6.1,13.8h1.9l1.4-3.4h6.9l1.4,3.4h1.9l-5.9-13.8H195z M192.9,104.6l2.9-6.8h0l2.7,6.8H192.9z"/>
		<path d="M209.5,95.7h-5.3v13.8h5.3c2.7,0,6.8-1.8,6.8-6.9S212.2,95.7,209.5,95.7z M209,108h-3.1V97.2h3.1c3.2,0,5.6,1.6,5.6,5.4
			S212.1,108,209,108z"/>
		<polygon points="220.7,103 227.3,103 227.3,101.5 220.7,101.5 220.7,97.2 227.8,97.2 227.8,95.7 219.1,95.7 219.1,109.5 
			228.1,109.5 228.1,108 220.7,108 		"/>
		<path d="M240.6,95.7h-4.1v13.8h1.6v-6.2h2.8c1.9,0,4.5-0.8,4.5-3.8C245.4,96.6,243.1,95.7,240.6,95.7z M240.9,101.8h-2.8v-4.6h2.8
			c1.6,0,2.8,0.7,2.8,2.3C243.7,101,242.5,101.8,240.9,101.8z"/>
		<path d="M257.3,99.5c0-3.4-2.8-3.8-5.5-3.8h-3.5v13.8h1.6v-6.2h2.1l3.7,6.2h2l-3.9-6.4C256,102.8,257.3,101.5,257.3,99.5z
			 M251.3,101.8h-1.5v-4.6h2.3c1.6,0,3.3,0.3,3.3,2.3C255.5,101.8,253.2,101.8,251.3,101.8z"/>
		<path d="M266.8,95.3c-4.2,0-7.2,3.1-7.2,7.3s3,7.3,7.2,7.3s7.2-3.1,7.2-7.3S271,95.3,266.8,95.3z M266.8,108.3
			c-3.2,0-5.5-2.6-5.5-5.7s2.2-5.7,5.5-5.7s5.5,2.6,5.5,5.7S270,108.3,266.8,108.3z"/>
		<path d="M281.1,105.4c0,1.5-0.4,3-2.3,3c-1.1,0-1.9-0.7-2.1-1.8l-1.6,0.3c0.4,2,1.7,3,3.7,3c2.9,0,3.9-2.1,3.9-3.9V95.7h-1.6
			V105.4L281.1,105.4z"/>
		<polygon points="288,103 294.6,103 294.6,101.5 288,101.5 288,97.2 295.1,97.2 295.1,95.7 286.4,95.7 286.4,109.5 295.4,109.5 
			295.4,108 288,108 		"/>
		<path d="M304.4,108.3c-3.1,0-5.3-2.5-5.3-5.7c0-3,2.2-5.7,5.3-5.7c1.3,0,2.6,0.6,3.5,1.7l1.4-1c-1.2-1.5-3-2.2-4.9-2.2
			c-4.1,0-7,3.2-7,7.3c0,4.2,3.1,7.3,7,7.3c2.2,0,4-0.8,5.2-2.4l-1.2-1C307.4,107.6,306.1,108.3,304.4,108.3z"/>
		<polygon points="310.6,97.2 315.1,97.2 315.1,109.5 316.8,109.5 316.8,97.2 321.3,97.2 321.3,95.7 310.6,95.7 		"/>
	</g>
	<g id="Layer_6" class="st1">
	</g>
	<text transform="matrix(1 0 0 1 380.4551 10.5217)" class="st1 st5 st6">R</text>
	<g class="st1">
		<path d="M383.7,1.5c3.1,0,5.6,2.5,5.6,5.6s-2.5,5.6-5.6,5.6c-3.1,0-5.6-2.5-5.6-5.6S380.7,1.5,383.7,1.5 M383.7,0
			c-3.9,0-7.1,3.2-7.1,7.1s3.2,7.1,7.1,7.1c3.9,0,7.1-3.2,7.1-7.1S387.6,0,383.7,0L383.7,0z"/>
	</g>
</g>
<g id="OUTLINES_copy">
	<g>
		<path class="st2" d="M255.5,99.5c0-2-1.7-2.3-3.3-2.3h-2.3v4.6h1.5C253.2,101.8,255.5,101.8,255.5,99.5z"/>
		<path class="st2" d="M240.9,97.2h-2.8v4.6h2.8c1.6,0,2.8-0.7,2.8-2.3C243.7,97.9,242.5,97.2,240.9,97.2z"/>
		<path class="st2" d="M64.4,96.8c-3.2,0-5.5,2.6-5.5,5.7s2.2,5.7,5.5,5.7s5.5-2.6,5.5-5.7S67.6,96.8,64.4,96.8z"/>
		<path class="st2" d="M266.8,96.8c-3.2,0-5.5,2.6-5.5,5.7s2.2,5.7,5.5,5.7s5.5-2.6,5.5-5.7S270,96.8,266.8,96.8z"/>
		<polygon class="st2" points="29.7,97.8 26.8,104.6 32.5,104.6 29.7,97.8 		"/>
		<polygon class="st2" points="195.7,97.8 192.9,104.6 198.5,104.6 195.8,97.8 		"/>
		<path class="st2" d="M209,97.2h-3.1V108h3.1c3.2,0,5.6-1.6,5.6-5.4S212.1,97.2,209,97.2z"/>
		<path class="st2" d="M126.4,96.8c-3.2,0-5.5,2.6-5.5,5.7s2.2,5.7,5.5,5.7c3.2,0,5.5-2.6,5.5-5.7S129.7,96.8,126.4,96.8z"/>
		<path class="st2" d="M133.8,73.8c0.9-1.1,1.7-2.4,2.2-3.9c0.5-1.5,0.7-3,0.7-4.6c0-1.6-0.2-3.1-0.7-4.6c-0.5-1.5-1.2-2.7-2.2-3.9
			c-0.9-1.1-2.1-2-3.5-2.7c-1.4-0.7-3-1-4.8-1c-1.8,0-3.4,0.3-4.8,1c-1.4,0.7-2.6,1.5-3.5,2.7c-0.9,1.1-1.7,2.4-2.2,3.9
			c-0.5,1.5-0.7,3-0.7,4.6c0,1.6,0.2,3.1,0.7,4.6c0.5,1.5,1.2,2.8,2.2,3.9c0.9,1.1,2.1,2,3.5,2.7c1.4,0.7,3,1,4.8,1
			c1.8,0,3.4-0.3,4.8-1C131.7,75.8,132.9,74.9,133.8,73.8z"/>
		<path class="st2" d="M209.9,73.5c-3,0.4-2.3,3.9,1.6,4.7c3,0.6,6.1-0.5,7.6-2C219.1,76.1,214.3,72.9,209.9,73.5z"/>
		<path class="st2" d="M349,30.1c-1.8,0.4-3.7,0.6-5.5,0.8c1.1,0.2,2.4,0.2,4,0.2c2.9,0,6.2-0.4,9.3-2.6c3.1-2.2,9.2-17.6,7.6-21.2
			c-0.3-0.8-1-1.2-1.9-1.4c-0.7,3.7-1.9,10-2.8,11.7C358.4,20.2,357,28.5,349,30.1z"/>
		<path class="st2" d="M280.4,54.4c-0.5-1.6-2-2-3.2-1.8c-1.3,0.3-3.6,1.5-5.5,4.1c-2.4,3.3-3.6,6.6-3.7,10c0,1.9,0.6,4.7,1.2,6.4
			c1.8-1.8,4-4.4,5.7-6.6C278.3,62,281,56,280.4,54.4z"/>
		<path class="st2" d="M251.6,54.4c-0.6-1.5-2-2-3.2-1.8c-1.3,0.3-3.6,1.5-5.5,4.1c-2.4,3.3-3.6,6.6-3.7,10c0,1.9,0.6,4.7,1.2,6.4
			c1.8-1.8,4.1-4.4,5.7-6.6C249.4,62,252.2,55.9,251.6,54.4z"/>
		<path class="st2" d="M185.7,99.5c0-2-1.7-2.3-3.3-2.3h-2.3v4.6h1.5C183.3,101.8,185.7,101.8,185.7,99.5z"/>
		<path class="st2" d="M63.1,58.7c-0.4-1.2-1-2.2-1.8-3c-0.8-0.9-1.7-1.5-2.9-2s-2.5-0.7-4.1-0.7c-1.4,0-2.8,0.2-4,0.7
			c-1.3,0.5-2.3,1.2-3.3,2s-1.7,1.9-2.3,3c-0.6,1.2-0.9,2.4-1,3.7h20C63.7,61.1,63.5,59.8,63.1,58.7z"/>
		<path class="st3" d="M337.6,23.9c2.2-4.2,7.4-8.1,11.1-8.6s4.9,0.7,6.4,2.6c1.4,1.9-0.2,5.6-1.7,7.4c-0.7,0.9-1.6,1.4-2.4,1.4
			c-0.4,0-0.7-0.1-0.9-0.4c-0.4-0.5-0.3-1.3,0.1-2.4c0.3-0.9,2-3.7-1.2-3.2c-5.4,0.8-8.7,7.7-7.9,9.1c0.4,0.7,1.2,1,2.3,1.3
			c1.9-0.2,3.7-0.5,5.5-0.8c8-1.6,9.4-9.9,10.7-12.4c0.9-1.8,2.1-8.1,2.8-11.7c-1.6-0.4-3.9,0-6.1,0.2c-3.3,0.4-9.6,2.5-12,3.8
			c-2.4,1.3-5,3.6-6.3,5.4c-1.8,2.4-4,9.4-6,16.1c0.7,0,2.1-0.1,3.7-0.2C335.5,29.5,336,27,337.6,23.9z"/>
		<path class="st4" d="M312.6,56.3c-0.3-0.2-0.6-0.5-0.9-0.8c-1.3-1.3-2.6-2.8-5-2.8c-1.1,0-2.5,0.2-3.8,0.8
			c-5.5,2.8-7.1,12.8-6.6,19c0.1,1.7,1.2,3.6,2.5,4.5c0.1,0.1,0.3,0.2,0.5,0.3c3.8,0,9.3-3.9,9.3-3.9c5.5-5.4,7.4-11.5,6.1-16.2
			c-0.1,0-0.2,0-0.2,0C313.9,57.1,313.2,56.8,312.6,56.3z"/>
		<path class="st4" d="M27.3,48.6L18,74.9h-0.1L7.4,48.6H0l14.4,33.6l-2.1,5.6c-0.7,1.8-1.5,3.2-2.3,4.1c-0.9,1-2.2,1.5-3.9,1.5
			c-1.1,0-2.2-0.2-3.3-0.6l-0.6,5.9c0.8,0.2,1.5,0.3,2.2,0.4c0.7,0.1,1.5,0.1,2.2,0.1c1.7,0,3.1-0.2,4.3-0.6c1.2-0.4,2.3-1,3.2-1.8
			c0.9-0.8,1.7-1.7,2.3-2.8c0.7-1.1,1.3-2.4,1.8-3.8l16.3-41.5L27.3,48.6L27.3,48.6z"/>
		<path class="st4" d="M54.7,83.1c3,0,5.7-0.6,8.1-1.7c2.4-1.1,4.5-2.9,6.3-5.3l-4.7-3.8c-0.9,1.4-2.2,2.6-3.9,3.6
			c-1.7,1-3.6,1.5-5.9,1.5c-1.5,0-2.8-0.3-4.1-0.8c-1.3-0.5-2.4-1.2-3.4-2.1c-1-0.9-1.8-2-2.4-3.2c-0.6-1.2-0.9-2.6-1-4h26.7
			c0-0.4,0.1-0.8,0.1-1.1c0-0.4,0-0.8,0-1.1c0-2.7-0.4-5.1-1.1-7.3c-0.8-2.2-1.8-4-3.2-5.5c-1.4-1.5-3.1-2.7-5.1-3.5
			c-2-0.8-4.3-1.2-6.7-1.2s-4.8,0.4-6.9,1.3c-2.1,0.9-4,2.1-5.5,3.7c-1.6,1.6-2.8,3.4-3.7,5.6c-0.9,2.2-1.3,4.6-1.3,7.2
			c0,2.6,0.4,5.1,1.3,7.2c0.9,2.2,2.1,4,3.7,5.6c1.6,1.5,3.4,2.7,5.6,3.6C49.7,82.7,52.1,83.1,54.7,83.1z M44.8,58.7
			c0.6-1.2,1.3-2.2,2.3-3c0.9-0.9,2-1.5,3.3-2c1.3-0.5,2.6-0.7,4-0.7c1.6,0,2.9,0.2,4.1,0.7s2.1,1.2,2.9,2c0.8,0.9,1.4,1.9,1.8,3
			c0.4,1.2,0.6,2.4,0.7,3.7h-20C43.8,61.1,44.2,59.8,44.8,58.7z"/>
		<rect x="77.3" y="28.6" class="st4" width="6.7" height="53.6"/>
		<rect x="94" y="28.6" class="st4" width="6.7" height="53.6"/>
		<path class="st4" d="M132.7,81.8c2.2-0.9,4.1-2.1,5.8-3.7s2.9-3.5,3.8-5.6c0.9-2.2,1.4-4.6,1.4-7.2c0-2.6-0.5-5-1.4-7.1
			c-0.9-2.1-2.2-4-3.8-5.6c-1.6-1.6-3.6-2.8-5.8-3.7c-2.2-0.9-4.6-1.3-7.2-1.3s-4.9,0.4-7.2,1.3c-2.2,0.9-4.1,2.1-5.7,3.7
			c-1.6,1.6-2.9,3.4-3.8,5.6c-0.9,2.2-1.4,4.5-1.4,7.1c0,2.6,0.5,5,1.4,7.2c0.9,2.2,2.2,4.1,3.8,5.6c1.6,1.6,3.5,2.8,5.7,3.7
			c2.2,0.9,4.6,1.3,7.2,1.3C128.1,83.1,130.5,82.6,132.7,81.8z M120.7,76.5c-1.4-0.7-2.6-1.6-3.5-2.7c-0.9-1.1-1.7-2.4-2.2-3.9
			c-0.5-1.5-0.7-3-0.7-4.6c0-1.6,0.2-3.1,0.7-4.6c0.5-1.5,1.2-2.7,2.2-3.9c0.9-1.1,2.1-2,3.5-2.7c1.4-0.7,3-1,4.8-1
			c1.8,0,3.4,0.3,4.8,1c1.4,0.7,2.6,1.5,3.5,2.7c0.9,1.1,1.7,2.4,2.2,3.9c0.5,1.5,0.7,3,0.7,4.6c0,1.6-0.2,3.1-0.7,4.6
			c-0.5,1.5-1.2,2.8-2.2,3.9c-0.9,1.1-2.1,2-3.5,2.7c-1.4,0.7-3,1-4.8,1C123.7,77.5,122.1,77.2,120.7,76.5z"/>
		<polygon class="st4" points="192.3,48.6 184.7,74.2 184.6,74.2 176.4,48.6 169.4,48.6 161.4,74.2 161.3,74.2 153.7,48.6 
			146.4,48.6 157.6,82.2 164.6,82.2 172.8,56.9 173,56.9 181.2,82.2 188.2,82.2 199.3,48.6 		"/>
		<path d="M367.9,0.9c-2.8-2.2-18.8,0-24.6,2.8c-5.8,2.7-7.7,4.7-10.2,9c-2.6,4.4-5.7,11.9-8,20.5c-2.3,8.7-7.6,31.5-10,36.1
			c-3.9,7.2-9.3,8.8-11,8.9c-1.6,0.1-3.4-0.2-4.7-0.9c-0.2-0.1-0.3-0.2-0.5-0.3c-1.3-0.9-2.4-2.8-2.5-4.5c-0.5-6.2,1-16.2,6.6-19
			c1.2-0.6,2.7-0.8,3.8-0.8c2.5,0,3.8,1.5,5,2.8c0.3,0.3,0.6,0.6,0.9,0.8c0.6,0.5,1.3,0.9,2,0.9c0.1,0,0.2,0,0.2,0
			c0.6,0,1.2-0.1,1.6-0.5c0.3-0.3,0.6-0.8,0.4-1.7c-0.6-3.5-4-7.3-10.6-7.3c0,0-8.8-0.2-13.4,10.6c-2,4.8-1.6,11-1.4,13.3
			c-2.3,3-5.7,5.5-9.1,6.3c-3.7,0.8-8,0-10-1.8c2.8-2.2,4.8-4.3,7-7.3c3.5-4.5,5.4-9.4,6.2-13.1c0.3-2.2-0.3-3.5-1.5-4.9
			c-1.7-2.1-4-3.2-6.8-3.2c-2.8,0-5.6,1.4-8.4,4.2c-4.1,4.3-6.2,9.2-6.2,14.8c0,3.2,0.7,6.1,2.2,8.5c-3.4,1.5-7.8,2.9-11.6,2.9
			c-3.8,0-7.2-0.8-9.8-2c2.8-2.2,4.8-4.3,7-7.3c3.5-4.5,5.4-9.4,6.2-13.1c0.3-2.2-0.3-3.5-1.5-4.9c-1.7-2.1-4-3.2-6.8-3.2
			c-2.8,0-5.6,1.4-8.4,4.2c-4.1,4.3-6.2,9.2-6.2,14.8c0,3.4,0.8,6.3,2.4,8.8c-1,0.3-2.1,0.5-3.4,0.5c-4,0-5.5-0.7-7.5-1.9
			c0.6-2.6,0.5-4.1-0.9-6.6c-1.4-2.6-3.7-4.2-6.8-5.8c-2.3-1.1-4.6-2.5-5.1-3.8c-0.5-1.1-0.5-2.2,0.4-3.5c1.1-1.6,4.1-2.1,5.7-1.8
			c2.3,0.4,3.1,1.6,4.5,2.9c1.3,1.2,3.3,2.5,4.6,0.9c1-1.2-0.1-4.4-2.6-6.4c-2.7-2.2-5.3-2.5-7.9-2.5c-1.9,0-3.8,0.4-5.3,1.2
			c-3,1.5-6.9,6.9-4.9,11s5.4,5.1,8.7,6.8c2.7,1.4,4.6,3.2,4.6,5.5c0,0-2.9-1.9-8.3-2.7c-6.2-0.8-9.8,3.2-9.8,5.9
			c0,3.4,4.8,7.7,11.1,7.7c4.1,0,6.8-1.4,10.4-4.5c2.8,1.4,5.3,2.5,9.2,2.5c2.3,0,4.7-0.7,6.5-1.8c3,2.4,7.5,4.1,14,3.8
			c5.2-0.2,10.1-2.1,14.2-4.3c3,2.7,7.6,4.6,14.6,4.3c5.2-0.2,8.4-2.5,11-4.9c0.6,0.9,1.3,1.7,2.1,2.5c1,0.9,4.1,2.4,8,2.4
			c3.5,0,12.1-2.5,16.9-12.4c3.6-7.2,8.5-29,10.7-36.4c0.3-0.9,0.6-1.9,0.9-2.8c2-6.7,4.2-13.7,6-16.1c1.4-1.8,4-4.1,6.3-5.4
			s8.7-3.3,12-3.8c2.2-0.3,4.5-0.6,6.1-0.2c0.9,0.2,1.5,0.6,1.9,1.4c1.6,3.7-4.5,19.1-7.6,21.2c-3.1,2.2-6.4,2.6-9.3,2.6
			c-1.6,0-2.9,0-4-0.2c-1.1-0.2-1.9-0.6-2.3-1.3c-0.8-1.3,2.5-8.3,7.9-9.1c3.2-0.5,1.6,2.3,1.2,3.2c-0.4,1.1-0.5,1.9-0.1,2.4
			c0.2,0.3,0.5,0.4,0.9,0.4c0.7,0,1.6-0.5,2.4-1.4c1.5-1.8,3.1-5.5,1.7-7.4c-1.4-1.9-2.6-3-6.4-2.6s-9,4.3-11.1,8.6
			c-1.6,3.1-2,5.7-1.9,7.4c0,0.6,0.2,1.1,0.3,1.6c0.6,1.7,4.4,3.5,10,3.5c2.1,0,5-0.4,7.6-0.7c11.5-2.1,13.6-14.4,15.2-20.1
			C370.7,8.2,370.7,3.1,367.9,0.9z M211.5,78.2c-3.9-0.8-4.6-4.3-1.6-4.7c4.4-0.6,9.2,2.6,9.2,2.7C217.6,77.7,214.5,78.8,211.5,78.2
			z M240.5,73.1c-0.7-1.7-1.3-4.4-1.2-6.4c0.1-3.3,1.3-6.7,3.7-10c1.9-2.6,4.1-3.8,5.5-4.1c1.2-0.2,2.6,0.3,3.2,1.8
			s-2.2,7.6-5.5,12.1C244.5,68.7,242.3,71.3,240.5,73.1z M269.3,73.1c-0.7-1.7-1.3-4.4-1.2-6.4c0.1-3.3,1.3-6.7,3.7-10
			c1.9-2.6,4.1-3.8,5.5-4.1c1.3-0.2,2.7,0.2,3.2,1.8c0.5,1.6-2.2,7.6-5.5,12.1C273.4,68.7,271.1,71.3,269.3,73.1z"/>
		<path d="M29,95.7l-6.1,13.8h1.9l1.4-3.4h6.9l1.4,3.4h1.9l-5.9-13.8H29z M26.8,104.6l2.9-6.8h0l2.7,6.8H26.8z"/>
		<path d="M50.3,108.3c-3.1,0-5.3-2.5-5.3-5.7c0-3,2.2-5.7,5.3-5.7c1.3,0,2.6,0.6,3.5,1.7l1.4-1c-1.2-1.5-3-2.2-4.9-2.2
			c-4.1,0-7,3.2-7,7.3c0,4.2,3.1,7.3,7,7.3c2.2,0,4-0.8,5.2-2.4l-1.2-1C53.3,107.6,51.9,108.3,50.3,108.3z"/>
		<path d="M64.4,95.3c-4.2,0-7.2,3.1-7.2,7.3s3,7.3,7.2,7.3s7.2-3.1,7.2-7.3S68.6,95.3,64.4,95.3z M64.4,108.3
			c-3.2,0-5.5-2.6-5.5-5.7s2.2-5.7,5.5-5.7s5.5,2.6,5.5,5.7S67.6,108.3,64.4,108.3z"/>
		<polygon points="84.5,107.1 84.5,107.1 76.5,95.7 74.4,95.7 74.4,109.5 76.1,109.5 76.1,98 76.1,98 84.1,109.5 86.2,109.5 
			86.2,95.7 84.5,95.7 		"/>
		<path d="M93.8,101.7c-2.2-0.7-2.9-1.3-2.9-2.5c0-1.6,1.5-2.3,2.9-2.3c1,0,2,0.4,2.5,1.3l1.3-1.2c-1-1.2-2.3-1.6-3.9-1.6
			c-2.4,0-4.7,1.3-4.7,4c0,2.3,1.5,3.2,3.4,3.8c2.5,0.8,3.6,1.1,3.6,2.8c0,1.6-1.6,2.4-3,2.4c-1.2,0-2.4-0.5-2.9-1.5l-1.4,1.2
			c0.9,1.4,2.7,1.9,4.3,1.9c2.5,0,4.9-1.3,4.9-4C97.9,103.1,95.9,102.4,93.8,101.7z"/>
		<path d="M107,108.3c-3.1,0-5.3-2.5-5.3-5.7c0-3,2.2-5.7,5.3-5.7c1.3,0,2.6,0.6,3.5,1.7l1.4-1c-1.2-1.5-3-2.2-4.9-2.2
			c-4.1,0-7,3.2-7,7.3c0,4.2,3.1,7.3,7,7.3c2.2,0,4-0.8,5.2-2.4l-1.2-1C110.1,107.6,108.7,108.3,107,108.3z"/>
		<rect x="114.7" y="95.7" width="1.6" height="13.8"/>
		<path d="M126.4,95.3c-4.2,0-7.2,3.1-7.2,7.3s3,7.3,7.2,7.3s7.2-3.1,7.2-7.3S130.6,95.3,126.4,95.3z M126.4,108.3
			c-3.2,0-5.5-2.6-5.5-5.7s2.2-5.7,5.5-5.7c3.2,0,5.5,2.6,5.5,5.7S129.7,108.3,126.4,108.3z"/>
		<path d="M145.2,104c0,2.2-0.8,4.3-3.6,4.3s-3.6-2.1-3.6-4.3v-8.3h-1.6v8.5c0,3,1.4,5.6,5.2,5.6s5.2-2.6,5.2-5.6v-8.5h-1.6V104z"/>
		<path d="M154.4,101.7c-2.2-0.7-2.9-1.3-2.9-2.5c0-1.6,1.5-2.3,2.9-2.3c1,0,2,0.4,2.5,1.3l1.3-1.2c-1-1.2-2.3-1.6-3.9-1.6
			c-2.4,0-4.7,1.3-4.7,4c0,2.3,1.5,3.2,3.4,3.8c2.5,0.8,3.6,1.1,3.6,2.8c0,1.6-1.6,2.4-3,2.4c-1.2,0-2.4-0.5-2.9-1.5l-1.4,1.2
			c0.9,1.4,2.7,1.9,4.3,1.9c2.5,0,4.9-1.3,4.9-4C158.5,103.1,156.5,102.4,154.4,101.7z"/>
		<polygon points="165.5,97.2 170.1,97.2 170.1,109.5 171.7,109.5 171.7,97.2 176.3,97.2 176.3,95.7 165.5,95.7 		"/>
		<path d="M187.5,99.5c0-3.4-2.8-3.8-5.5-3.8h-3.5v13.8h1.6v-6.2h2.1l3.7,6.2h2l-3.9-6.4C186.2,102.8,187.5,101.5,187.5,99.5z
			 M181.5,101.8h-1.5v-4.6h2.3c1.6,0,3.3,0.3,3.3,2.3C185.7,101.8,183.3,101.8,181.5,101.8z"/>
		<path d="M195,95.7l-6.1,13.8h1.9l1.4-3.4h6.9l1.4,3.4h1.9l-5.9-13.8H195z M192.9,104.6l2.9-6.8h0l2.7,6.8H192.9z"/>
		<path d="M209.5,95.7h-5.3v13.8h5.3c2.7,0,6.8-1.8,6.8-6.9S212.2,95.7,209.5,95.7z M209,108h-3.1V97.2h3.1c3.2,0,5.6,1.6,5.6,5.4
			S212.1,108,209,108z"/>
		<polygon points="220.7,103 227.3,103 227.3,101.5 220.7,101.5 220.7,97.2 227.8,97.2 227.8,95.7 219.1,95.7 219.1,109.5 
			228.1,109.5 228.1,108 220.7,108 		"/>
		<path d="M240.6,95.7h-4.1v13.8h1.6v-6.2h2.8c1.9,0,4.5-0.8,4.5-3.8C245.4,96.6,243.1,95.7,240.6,95.7z M240.9,101.8h-2.8v-4.6h2.8
			c1.6,0,2.8,0.7,2.8,2.3C243.7,101,242.5,101.8,240.9,101.8z"/>
		<path d="M257.3,99.5c0-3.4-2.8-3.8-5.5-3.8h-3.5v13.8h1.6v-6.2h2.1l3.7,6.2h2l-3.9-6.4C256,102.8,257.3,101.5,257.3,99.5z
			 M251.3,101.8h-1.5v-4.6h2.3c1.6,0,3.3,0.3,3.3,2.3C255.5,101.8,253.2,101.8,251.3,101.8z"/>
		<path d="M266.8,95.3c-4.2,0-7.2,3.1-7.2,7.3s3,7.3,7.2,7.3s7.2-3.1,7.2-7.3S271,95.3,266.8,95.3z M266.8,108.3
			c-3.2,0-5.5-2.6-5.5-5.7s2.2-5.7,5.5-5.7s5.5,2.6,5.5,5.7S270,108.3,266.8,108.3z"/>
		<path d="M281.1,105.4c0,1.5-0.4,3-2.3,3c-1.1,0-1.9-0.7-2.1-1.8l-1.6,0.3c0.4,2,1.7,3,3.7,3c2.9,0,3.9-2.1,3.9-3.9V95.7h-1.6
			V105.4L281.1,105.4z"/>
		<polygon points="288,103 294.6,103 294.6,101.5 288,101.5 288,97.2 295.1,97.2 295.1,95.7 286.4,95.7 286.4,109.5 295.4,109.5 
			295.4,108 288,108 		"/>
		<path d="M304.4,108.3c-3.1,0-5.3-2.5-5.3-5.7c0-3,2.2-5.7,5.3-5.7c1.3,0,2.6,0.6,3.5,1.7l1.4-1c-1.2-1.5-3-2.2-4.9-2.2
			c-4.1,0-7,3.2-7,7.3c0,4.2,3.1,7.3,7,7.3c2.2,0,4-0.8,5.2-2.4l-1.2-1C307.4,107.6,306.1,108.3,304.4,108.3z"/>
		<polygon points="310.6,97.2 315.1,97.2 315.1,109.5 316.8,109.5 316.8,97.2 321.3,97.2 321.3,95.7 310.6,95.7 		"/>
	</g>
	<g id="Layer_6_1_">
	</g>
	<g>
		<path d="M381.1,3.7h2.6c1.4,0,2.6,0.5,2.6,2.1c0,1-0.5,1.7-1.5,1.9l1.7,2.9h-1.8l-1.4-2.7h-0.7v2.7h-1.5V3.7z M382.6,6.5h0.9
			c0.5,0,1.3,0,1.3-0.8c0-0.7-0.6-0.8-1.2-0.8h-1V6.5z"/>
	</g>
	<path d="M383.8,1.5c3.1,0,5.6,2.5,5.6,5.6s-2.5,5.6-5.6,5.6c-3.1,0-5.6-2.5-5.6-5.6S380.7,1.5,383.8,1.5 M383.8,0
		c-3.9,0-7.1,3.2-7.1,7.1s3.2,7.1,7.1,7.1c3.9,0,7.1-3.2,7.1-7.1S387.7,0,383.8,0L383.8,0z"/>
</g>
</svg>
