<?xml version="1.0" encoding="utf-8"?>
<!-- Generator: Adobe Illustrator 19.2.1, SVG Export Plug-In . SVG Version: 6.00 Build 0)  -->
<svg version="1.1" id="Layer_1" xmlns="http://www.w3.org/2000/svg" xmlns:xlink="http://www.w3.org/1999/xlink" x="0px" y="0px"
	 viewBox="0 0 243 243" style="enable-background:new 0 0 243 243;" xml:space="preserve">
<style type="text/css">
	.st0{fill:#62C7CB;}
	.st1{fill:none;}
	.st2{fill:#010101;}
	.st3{fill:#FFFFFF;}
	.st4{fill:#C7E8EB;}
</style>
<g>
	<g>
		<circle class="st0" cx="121.5" cy="121.5" r="121.5"/>
	</g>
	<g>
		<path class="st1" d="M119.1,94.8c0.1,0.1,0.2,0.2,0.3,0.3C119.3,95,119.2,94.9,119.1,94.8z"/>
		<path class="st1" d="M120.7,96.6c0.1,0.1,0.2,0.2,0.2,0.3C120.9,96.8,120.8,96.7,120.7,96.6z"/>
		<path class="st1" d="M121.9,98.1c0,0.1,0.1,0.1,0.1,0.2C122,98.2,121.9,98.2,121.9,98.1z"/>
		<path class="st1" d="M117.4,93.3c0.1,0.1,0.2,0.2,0.3,0.2C117.6,93.4,117.5,93.3,117.4,93.3z"/>
		<path class="st1" d="M125,96.9c0.1-0.1,0.2-0.2,0.3-0.3C125.1,96.7,125.1,96.8,125,96.9z"/>
		<path class="st1" d="M123.9,98.3c0,0,0.1-0.1,0.1-0.2C124,98.2,124,98.2,123.9,98.3z"/>
		<path class="st1" d="M126.6,95.1c0.1-0.1,0.2-0.2,0.3-0.3C126.8,94.9,126.7,95,126.6,95.1z"/>
		<path class="st1" d="M123.2,99.4c0-0.1,0.1-0.1,0.1-0.2C123.2,99.3,123.2,99.3,123.2,99.4z"/>
		<path class="st1" d="M122.7,99.2c0,0.1,0.1,0.1,0.1,0.2C122.8,99.3,122.7,99.3,122.7,99.2z"/>
		<path class="st1" d="M115.1,91.7c0.1,0.1,0.3,0.2,0.4,0.3C115.4,91.9,115.3,91.8,115.1,91.7z"/>
		
			<ellipse transform="matrix(0.7071 -0.7071 0.7071 0.7071 -34.3594 147.3086)" class="st1" cx="160.6" cy="115.1" rx="1.3" ry="1.3"/>
		<path class="st1" d="M125.8,156.8c1.5,0.3,2.8,0.9,4,1.7C128.7,157.7,127.3,157.1,125.8,156.8z"/>
		<path class="st1" d="M113.1,90.8C113.1,90.8,113.1,90.8,113.1,90.8C113.1,90.8,113.1,90.8,113.1,90.8z"/>
		<path class="st1" d="M129.8,177.2c-1.2,0.8-2.6,1.4-4,1.7C127.3,178.6,128.7,178,129.8,177.2z"/>
		<path class="st1" d="M123.7,187.6C123.6,187.6,123.6,187.6,123.7,187.6L123.7,187.6C123.6,187.6,123.6,187.6,123.7,187.6
			L123.7,187.6z"/>
		<path class="st1" d="M110.6,90.4c-0.1,0-0.3,0-0.4,0c0.2,0,0.5,0,0.7,0C110.8,90.4,110.7,90.4,110.6,90.4z"/>
		<path class="st1" d="M108.7,90.7c0.3-0.1,0.6-0.2,0.9-0.2C109.3,90.5,109,90.6,108.7,90.7z"/>
		<path class="st1" d="M105.1,92.9c0.5-0.5,1-0.9,1.5-1.2C106.1,92,105.6,92.4,105.1,92.9z"/>
		<path class="st1" d="M107.1,91.4c0.3-0.2,0.7-0.4,1-0.5C107.8,91,107.4,91.2,107.1,91.4z"/>
		<path class="st1" d="M142.1,94.5c-0.3-0.6-0.8-1.1-1.2-1.6c-0.5-0.5-1-0.9-1.5-1.2c0.5,0.3,1,0.7,1.5,1.2
			C141.4,93.4,141.8,93.9,142.1,94.5z"/>
		<path class="st1" d="M128.3,93.5c0.1-0.1,0.2-0.2,0.3-0.2C128.5,93.3,128.4,93.4,128.3,93.5z"/>
		<path class="st1" d="M137.9,90.9c0.3,0.1,0.7,0.3,1,0.5C138.5,91.2,138.2,91,137.9,90.9z"/>
		<path class="st1" d="M132.8,90.8C132.9,90.8,132.9,90.8,132.8,90.8C132.9,90.8,132.9,90.8,132.8,90.8z"/>
		<path class="st1" d="M130.4,92c0.1-0.1,0.3-0.2,0.4-0.3C130.7,91.8,130.6,91.9,130.4,92z"/>
		<path class="st1" d="M135.3,90.4c-0.1,0-0.2,0-0.3,0c0.2,0,0.5,0,0.7,0C135.6,90.4,135.5,90.4,135.3,90.4z"/>
		<path class="st1" d="M136.3,90.5c0.3,0,0.6,0.1,0.9,0.2C137,90.6,136.6,90.5,136.3,90.5z"/>
		<path class="st2" d="M74.4,50.4c14.1-9.6,30.6-14.7,47.7-14.7s33.6,5.1,47.7,14.7c0.4,0.3,0.8,0.4,1.3,0.4c0.7,0,1.4-0.3,1.9-1
			c0.7-1,0.4-2.4-0.6-3.1c-14.8-10.1-32.2-15.5-50.2-15.5s-35.4,5.3-50.2,15.5c-1,0.7-1.3,2.1-0.6,3.1C72,50.9,73.4,51.1,74.4,50.4z
			"/>
		<path class="st2" d="M91,199.5C64.4,189,45,166,39.1,138.1c-0.3-1.2-1.4-2-2.7-1.7c-1.2,0.3-2,1.5-1.7,2.7
			c6.2,29.4,26.6,53.6,54.6,64.6c0.3,0.1,0.6,0.2,0.8,0.2c0.9,0,1.7-0.5,2.1-1.4C92.7,201.3,92.1,199.9,91,199.5z"/>
		<path class="st2" d="M207.8,136.4c-1.2-0.3-2.4,0.5-2.7,1.7c-5.9,27.9-25.3,50.9-51.8,61.4c-1.2,0.5-1.7,1.8-1.3,2.9
			c0.3,0.9,1.2,1.4,2.1,1.4c0.3,0,0.6,0,0.8-0.2c28-11.1,48.4-35.2,54.6-64.6C209.8,137.8,209,136.6,207.8,136.4z"/>
		<path class="st3" d="M140.9,92.9c-0.5-0.5-1-0.9-1.5-1.2c-0.2-0.1-0.3-0.2-0.5-0.3c-0.3-0.2-0.7-0.4-1-0.5
			c-0.2-0.1-0.4-0.1-0.6-0.2c-0.3-0.1-0.6-0.2-0.9-0.2c-0.2,0-0.4,0-0.6-0.1c-0.2,0-0.5,0-0.7,0c-0.7,0-1.4,0.1-2.1,0.4
			c0,0-0.1,0-0.1,0c-0.7,0.2-1.3,0.6-2,0.9c-0.1,0.1-0.3,0.2-0.4,0.3c-0.6,0.4-1.2,0.8-1.8,1.3c-0.1,0.1-0.2,0.2-0.3,0.2
			c-0.5,0.4-1,0.9-1.4,1.3c-0.1,0.1-0.2,0.2-0.3,0.3c-0.5,0.5-0.9,1-1.3,1.5c-0.1,0.1-0.2,0.2-0.3,0.3c-0.3,0.4-0.7,0.8-0.9,1.2
			c0,0.1-0.1,0.1-0.1,0.2c-0.3,0.4-0.5,0.7-0.7,0.9c0,0.1-0.1,0.1-0.1,0.2c-0.1,0.1-0.2,0.3-0.2,0.3s-0.1-0.1-0.2-0.3
			c0-0.1-0.1-0.1-0.1-0.2c-0.2-0.2-0.4-0.6-0.7-0.9c0,0-0.1-0.1-0.1-0.2c-0.3-0.4-0.6-0.8-0.9-1.2c-0.1-0.1-0.2-0.2-0.2-0.3
			c-0.4-0.5-0.8-1-1.3-1.5c-0.1-0.1-0.2-0.2-0.3-0.3c-0.5-0.5-0.9-0.9-1.5-1.4c-0.1-0.1-0.2-0.2-0.3-0.2c-0.6-0.5-1.2-0.9-1.8-1.3
			c-0.1-0.1-0.3-0.2-0.4-0.3c-0.6-0.4-1.3-0.7-2-0.9c0,0-0.1,0-0.1,0c-0.7-0.2-1.4-0.3-2.1-0.4c-0.2,0-0.5,0-0.7,0
			c-0.2,0-0.4,0-0.6,0.1c-0.3,0-0.6,0.1-0.9,0.2c-0.2,0.1-0.4,0.1-0.6,0.2c-0.3,0.1-0.7,0.3-1,0.5c-0.2,0.1-0.3,0.2-0.5,0.3
			c-0.5,0.3-1,0.7-1.5,1.2c-1,1-1.7,2.1-2,3.5c-1.2,3.9,0.1,9,2.9,12.6c5.8,7.2,17,11.2,17,11.2s11.2-4,17-11.2
			c3.3-4.1,4.5-10.4,2.1-14.4C141.8,93.9,141.4,93.4,140.9,92.9z"/>
		<path class="st2" d="M144,89.6c-2.5-2.5-5.6-3.8-8.7-3.8c-5.1,0-9.4,3.4-12.3,6.5c-2.9-3.1-7.2-6.5-12.3-6.5
			c-3.1,0-6.2,1.3-8.7,3.8c-6,5.8-4.4,16,0.5,22.1c6.6,8.1,18.5,12.4,19,12.6c0.5,0.2,1,0.3,1.5,0.3s1-0.1,1.5-0.3
			c0.5-0.2,12.5-4.5,19-12.6C148.4,105.6,150,95.5,144,89.6z M140,108.9c-5.8,7.2-17,11.2-17,11.2s-11.2-4-17-11.2
			c-2.8-3.5-4.1-8.6-2.9-12.6c0.4-1.3,1.1-2.5,2-3.5c0.5-0.5,1-0.9,1.5-1.2c0.2-0.1,0.3-0.2,0.5-0.3c0.3-0.2,0.7-0.4,1-0.5
			c0.2-0.1,0.4-0.1,0.6-0.2c0.3-0.1,0.6-0.2,0.9-0.2c0.2,0,0.4,0,0.6-0.1c0.1,0,0.3,0,0.4,0c0.1,0,0.2,0,0.3,0
			c0.7,0,1.4,0.1,2.1,0.4c0,0,0.1,0,0.1,0c0.7,0.2,1.3,0.6,2,0.9c0.1,0.1,0.3,0.2,0.4,0.3c0.6,0.4,1.2,0.8,1.8,1.3
			c0.1,0.1,0.2,0.2,0.3,0.2c0.5,0.4,1,0.9,1.5,1.4c0.1,0.1,0.2,0.2,0.3,0.3c0.5,0.5,0.9,1,1.3,1.5c0.1,0.1,0.2,0.2,0.2,0.3
			c0.3,0.4,0.7,0.8,0.9,1.2c0,0.1,0.1,0.1,0.1,0.2c0.3,0.4,0.5,0.7,0.7,0.9c0.1,0.1,0.1,0.1,0.1,0.2c0.1,0.1,0.2,0.3,0.2,0.3
			s0.1-0.1,0.2-0.3c0-0.1,0.1-0.1,0.1-0.2c0.2-0.2,0.4-0.6,0.7-0.9c0-0.1,0.1-0.1,0.1-0.2c0.3-0.3,0.6-0.7,0.9-1.2
			c0.1-0.1,0.2-0.2,0.3-0.3c0.4-0.5,0.8-1,1.3-1.5c0.1-0.1,0.2-0.2,0.3-0.3c0.5-0.5,0.9-0.9,1.4-1.3c0.1-0.1,0.2-0.2,0.3-0.2
			c0.6-0.5,1.2-0.9,1.8-1.3c0.1-0.1,0.3-0.2,0.4-0.3c0.6-0.4,1.3-0.7,2-0.9c0,0,0.1,0,0.1,0c0.7-0.2,1.4-0.3,2.1-0.4
			c0.1,0,0.2,0,0.3,0c0.1,0,0.3,0,0.4,0c0.2,0,0.4,0,0.6,0.1c0.3,0,0.6,0.1,0.9,0.2c0.2,0.1,0.4,0.1,0.6,0.2c0.3,0.1,0.7,0.3,1,0.5
			c0.2,0.1,0.3,0.2,0.5,0.3c0.5,0.3,1,0.7,1.5,1.2c0.5,0.5,0.9,1,1.2,1.6C144.5,98.5,143.3,104.8,140,108.9z"/>
		<ellipse transform="matrix(0.3895 -0.921 0.921 0.3895 -53.7027 161.9821)" class="st3" cx="95.3" cy="121.5" rx="1.4" ry="1.4"/>
		
			<ellipse transform="matrix(0.3895 -0.921 0.921 0.3895 -39.8315 204.5657)" class="st3" cx="134.4" cy="132.3" rx="1.4" ry="1.4"/>
		<path class="st3" d="M158.7,113.2c-1.1,1.1-1.1,2.8,0,3.8s2.8,1.1,3.8,0s1.1-2.8,0-3.8C161.5,112.2,159.8,112.2,158.7,113.2z
			 M161.6,114.2c0.5,0.5,0.5,1.4,0,1.9s-1.4,0.5-1.9,0s-0.5-1.4,0-1.9S161.1,113.7,161.6,114.2z"/>
		<path class="st3" d="M157,131l-4.2-1.3c-0.8-0.2-1.4-0.9-1.7-1.7l-1.3-4.2l-1.3,4.2c-0.2,0.8-0.9,1.4-1.7,1.7l-4.2,1.3l4.2,1.3
			c0.8,0.2,1.4,0.9,1.7,1.7l1.3,4.2l1.3-4.2c0.2-0.8,0.9-1.4,1.7-1.7L157,131z M149.8,132.2c-0.7,0-1.2-0.5-1.2-1.2
			c0-0.7,0.5-1.2,1.2-1.2s1.2,0.5,1.2,1.2C151,131.6,150.5,132.2,149.8,132.2z"/>
		<circle class="st0" cx="149.8" cy="131" r="1.2"/>
		<path class="st3" d="M89.2,110.3l-1.3-4.2l-1.3,4.2c-0.2,0.8-0.9,1.4-1.7,1.7l-4.2,1.3l4.2,1.3c0.8,0.2,1.4,0.9,1.7,1.7l1.3,4.2
			l1.3-4.2c0.2-0.8,0.9-1.4,1.7-1.7l4.2-1.3l-4.2-1.3C90.1,111.7,89.5,111,89.2,110.3z M87.9,114.4c-0.7,0-1.2-0.5-1.2-1.2
			c0-0.7,0.5-1.2,1.2-1.2s1.2,0.5,1.2,1.2C89.1,113.9,88.6,114.4,87.9,114.4z"/>
		<circle class="st0" cx="87.9" cy="113.2" r="1.2"/>
		<path class="st4" d="M58.5,73.3c0-6.2-5-11.2-11.2-11.2c-0.8,0-1.5,0.1-2.3,0.2c-1.5,0.3-2.8,0.9-4,1.7c-3,2-5,5.4-5,9.3
			c0,3.9,2,7.3,5,9.3c1.2,0.8,2.6,1.4,4,1.7c0.7,0.1,1.5,0.2,2.3,0.2C53.5,84.6,58.5,79.5,58.5,73.3z"/>
		<path class="st3" d="M60.8,106.6c0-2.8-0.9-5.4-2.3-7.6C60,101.2,60.8,103.8,60.8,106.6c0,7.5,0,13.9,0,13.9h0
			C60.8,120.6,60.8,114.1,60.8,106.6z"/>
		<path class="st3" d="M45,93.3c-6.4,1.1-11.3,6.6-11.3,13.3c0,7.5,0,13.9,0,13.9h22.6c0,0,0-6.5,0-13.9
			C56.3,99.9,51.4,94.4,45,93.3z"/>
		<path class="st2" d="M49.8,88.8C57.3,87.6,63,81.1,63,73.3c0-8.7-7.1-15.7-15.8-15.7c-8.7,0-15.8,7.1-15.8,15.7
			c0,7.8,5.7,14.3,13.2,15.5c-8.8,1.2-15.5,8.7-15.5,17.8v13.9c0,2.5,2,4.5,4.5,4.5h27.1c2.5,0,4.5-2,4.5-4.5v-13.9
			C65.3,97.5,58.5,90.1,49.8,88.8z M41,82.7c-3-2-5-5.4-5-9.3c0-3.9,2-7.3,5-9.3c1.2-0.8,2.6-1.4,4-1.7c0.7-0.1,1.5-0.2,2.3-0.2
			c6.2,0,11.2,5,11.2,11.2c0,6.2-5,11.2-11.2,11.2c-0.8,0-1.5-0.1-2.3-0.2C43.5,84.1,42.2,83.5,41,82.7z M60.8,120.6L60.8,120.6
			H33.7c0,0,0-6.5,0-13.9c0-6.7,4.9-12.3,11.3-13.3h0c0.7-0.1,1.5-0.2,2.2-0.2c4.7,0,8.8,2.4,11.2,6c1.5,2.2,2.3,4.8,2.3,7.6
			C60.8,114.1,60.8,120.6,60.8,120.6z"/>
		<g>
			<path class="st4" d="M58.5,99.1c-2.4-3.6-6.6-6-11.2-6c-0.8,0-1.5,0.1-2.2,0.2h0c6.4,1.1,11.3,6.6,11.3,13.3c0,7.5,0,13.9,0,13.9
				h4.5c0,0,0-6.5,0-13.9C60.8,103.8,60,101.2,58.5,99.1z"/>
		</g>
		<path class="st4" d="M207,73.3c0-6.2-5-11.2-11.2-11.2c-0.8,0-1.5,0.1-2.3,0.2c-1.5,0.3-2.8,0.9-4,1.7c-3,2-5,5.4-5,9.3
			c0,3.9,2,7.3,5,9.3c1.2,0.8,2.6,1.4,4,1.7c0.7,0.1,1.5,0.2,2.3,0.2C202,84.6,207,79.5,207,73.3z"/>
		<path class="st3" d="M193.5,93.3c-6.4,1.1-11.3,6.6-11.3,13.3c0,7.5,0,13.9,0,13.9h22.6c0,0,0-6.5,0-13.9
			C204.8,99.9,199.9,94.4,193.5,93.3z"/>
		<path class="st3" d="M209.3,106.6c0,7.5,0,13.9,0,13.9h0C209.3,120.6,209.3,114.1,209.3,106.6c0-2.8-0.9-5.4-2.3-7.6
			C208.5,101.2,209.3,103.8,209.3,106.6z"/>
		<path class="st2" d="M198.3,88.8c7.5-1.2,13.2-7.7,13.2-15.5c0-8.7-7.1-15.7-15.8-15.7c-8.7,0-15.8,7.1-15.8,15.7
			c0,7.8,5.7,14.3,13.2,15.5c-8.8,1.2-15.5,8.7-15.5,17.8v13.9c0,2.5,2,4.5,4.5,4.5h27.1c2.5,0,4.5-2,4.5-4.5v-13.9
			C213.8,97.5,207,90.1,198.3,88.8z M189.5,82.7c-3-2-5-5.4-5-9.3c0-3.9,2-7.3,5-9.3c1.2-0.8,2.6-1.4,4-1.7c0.7-0.1,1.5-0.2,2.3-0.2
			c6.2,0,11.2,5,11.2,11.2c0,6.2-5,11.2-11.2,11.2c-0.8,0-1.5-0.1-2.3-0.2C192,84.1,190.7,83.5,189.5,82.7z M209.3,120.6
			L209.3,120.6h-27.1c0,0,0-6.5,0-13.9c0-6.7,4.9-12.3,11.3-13.3h0c0.7-0.1,1.5-0.2,2.2-0.2c4.7,0,8.8,2.4,11.2,6
			c1.5,2.2,2.3,4.8,2.3,7.6C209.3,114.1,209.3,120.6,209.3,120.6z"/>
		<g>
			<path class="st4" d="M207,99.1c-2.4-3.6-6.6-6-11.2-6c-0.8,0-1.5,0.1-2.2,0.2h0c6.4,1.1,11.3,6.6,11.3,13.3c0,7.5,0,13.9,0,13.9
				h4.5c0,0,0-6.5,0-13.9C209.3,103.8,208.5,101.2,207,99.1z"/>
		</g>
		<path class="st4" d="M125.8,178.9c1.5-0.3,2.8-0.9,4-1.7c3-2,5-5.4,5-9.3c0-3.9-2-7.3-5-9.3c-1.2-0.8-2.6-1.4-4-1.7
			c-0.7-0.1-1.5-0.2-2.3-0.2c-6.2,0-11.2,5-11.2,11.2c0,6.2,5,11.2,11.2,11.2C124.3,179.1,125.1,179,125.8,178.9z"/>
		<path class="st3" d="M121.5,187.8c0.7-0.1,1.4-0.2,2.2-0.2c0,0-0.1,0-0.1,0c-7.5,0-13.6,6.1-13.6,13.6s0,13.9,0,13.9h0.2h22.6
			c0,0,0-6.5,0-13.9C132.8,194.4,127.9,188.9,121.5,187.8z"/>
		<path class="st2" d="M126.1,183.3c7.5-1.2,13.2-7.7,13.2-15.5c0-8.7-7.1-15.8-15.8-15.8c-8.7,0-15.8,7.1-15.8,15.8
			c0,7.8,5.7,14.3,13.2,15.5c-8.8,1.2-15.5,8.7-15.5,17.8v13.9c0,2.5,2,4.5,4.5,4.5h27.1c2.5,0,4.5-2,4.5-4.5v-13.9
			C141.6,192,134.8,184.6,126.1,183.3z M112.3,167.8c0-6.2,5-11.2,11.2-11.2c0.8,0,1.5,0.1,2.3,0.2c1.5,0.3,2.8,0.9,4,1.7
			c3,2,5,5.4,5,9.3c0,3.9-2,7.3-5,9.3c-1.2,0.8-2.6,1.4-4,1.7c-0.7,0.1-1.5,0.2-2.3,0.2C117.3,179.1,112.3,174,112.3,167.8z
			 M137.3,215.1h-0.2h-4.3h-22.6H110c0,0,0-6.5,0-13.9s6.1-13.6,13.6-13.6h0c0,0,0.1,0,0.1,0c0,0,0.1,0,0.1,0c4.7,0,8.8,2.4,11.2,6
			c1.5,2.2,2.3,4.8,2.3,7.6C137.3,208.6,137.3,215.1,137.3,215.1z"/>
		<g>
			<path class="st4" d="M135,193.6c-2.4-3.6-6.6-6-11.2-6c0,0-0.1,0-0.1,0h0c-0.7,0-1.4,0.1-2.2,0.2c6.4,1.1,11.3,6.6,11.3,13.3
				c0,7.5,0,13.9,0,13.9h4.3h0.2c0,0,0-6.5,0-13.9C137.3,198.3,136.5,195.7,135,193.6z"/>
		</g>
	</g>
</g>
</svg>
