<?xml version="1.0" encoding="utf-8"?>
<!-- Generator: Adobe Illustrator 19.2.1, SVG Export Plug-In . SVG Version: 6.00 Build 0)  -->
<svg version="1.1" id="Layer_1" xmlns="http://www.w3.org/2000/svg" xmlns:xlink="http://www.w3.org/1999/xlink" x="0px" y="0px"
	 viewBox="0 0 25.166666 38.1666565" style="enable-background:new 0 0 25.166666 38.1666565;" xml:space="preserve">
<style type="text/css">
	.st0{display:none;}
	.st1{display:inline;}
	.st2{fill:#A3CB39;}
	.st3{fill:#010101;}
	.st4{display:inline;fill:none;stroke:#010101;stroke-linecap:round;stroke-linejoin:round;stroke-miterlimit:10;}
	.st5{display:inline;fill:none;stroke:#E1EBA9;stroke-linecap:round;stroke-linejoin:round;stroke-miterlimit:10;}
	.st6{display:inline;fill:#E1EBA9;}
	.st7{display:inline;fill:#FFFFFF;}
	.st8{display:inline;fill:#A4CC39;}
	.st9{fill:none;}
	.st10{fill:#A4CC39;}
	.st11{fill:#E1EBA9;}
	.st12{fill:#FFFFFF;}
	.st13{display:inline;fill:none;stroke:#A2CA3A;stroke-linecap:round;stroke-linejoin:round;stroke-miterlimit:10;}
	.st14{fill:#A2CB39;}
</style>
<g id="Layer_1_1_" class="st0">
	<g class="st1">
		<path class="st2" d="M8.7738171,36.6123047c-1.3535156,0-2.3115234-0.0371094-2.6328125-0.0488281l-0.1289062-0.0039062
			C5.4203014,36.5410156,4.608778,36.515625,4.0013561,35.453125c-0.6103513-1.0673828-0.2587888-1.7548828,0.0234375-2.3076172
			l0.5136719,0.0917969l-0.4462891-0.2246094c1.3486328-2.6777344,6.1591797-11.7021484,11.4277344-15.4301758
			c4.578125-3.237793,8.3974609-3.5507812,12.4414062-3.8828125c0.8720703-0.0717773,1.7558594-0.144043,2.6621094-0.2480469
			c0.4130859-0.0478516,0.7929688-0.0693359,1.1425781-0.0693359c1.5068378,0,2.6552639,0.4008789,3.4121113,1.1918945
			c0.6640625,0.6938477,0.8378906,1.5048828,0.8818359,1.9379883c0.3798828,0.2631836,1.0625,0.8608398,1.3183594,1.8857422
			c0.3154297,1.2631836-0.1123047,2.7275391-1.2724609,4.3530273C35.5667877,23.5058594,35.0677643,24.2578125,34.5755768,25
			c-2.2382812,3.3740234-4.3515644,6.5595703-9.3818378,8.9882812c-4.7275391,2.2832031-12.3164062,2.6240234-16.4189453,2.6240234
			C8.7738171,36.6123047,8.7738171,36.6123047,8.7738171,36.6123047z"/>
		<path class="st3" d="M31.7664318,13.8824158c3.934206,0,3.8071613,2.9165039,3.8071613,2.9165039
			s3.0737915,1.5286865,0.1249084,5.6617126c-2.9488831,4.1329956-4.7107563,8.1749878-10.7226582,11.0778198
			c-4.6621399,2.2510376-12.1875,2.573822-16.2030029,2.573822c-1.354248,0-2.3096313-0.0367126-2.6208496-0.048584
			c-0.6170654-0.0235291-1.2141418,0.0201111-1.7164307-0.8586731c-0.5023191-0.8788147-0.1995544-1.368042,0.0785828-1.9193115
			c0.5563354-1.1026306,5.6430969-11.296936,11.2952271-15.2947693c5.45047-3.8551331,9.8265076-3.4631653,14.8705139-4.042572
			C31.0730419,13.9031982,31.4338512,13.8824158,31.7664318,13.8824158 M31.7664318,12.8824463
			c-0.3781128,0-0.782074,0.024353-1.2006531,0.0724487c-0.8947449,0.1027832-1.7846375,0.1757812-2.6452332,0.2464294
			c-4.113678,0.3375244-7.9992371,0.6563721-12.6886292,3.9732056c-5.2153931,3.6889038-9.8394775,12.1461182-11.5855103,15.6109924
			l-0.0250549,0.0497131L3.578932,32.9187317c-0.3008118,0.5898438-0.7553711,1.4812012-0.0115662,2.7825317
			c0.7463682,1.3058167,1.8002012,1.3383789,2.4298093,1.3578186l0.1166992,0.0038757
			c0.3244324,0.0123596,1.2940063,0.0493164,2.6589661,0.0493164c4.1459045,0,11.8204346-0.34729,16.6378174-2.6733093
			c5.1543274-2.488739,7.3051777-5.730835,9.5823383-9.1632996c0.4855652-0.7319031,0.9876404-1.488739,1.5195312-2.2342224
			c1.2487488-1.7501831,1.7031555-3.3533325,1.3505554-4.7648621c-0.2582397-1.033783-0.8811035-1.6864014-1.3346252-2.0414124
			c-0.0855103-0.5299072-0.3260803-1.3138428-0.9895935-2.0068665
			C34.6838837,13.3352356,33.4146576,12.8824463,31.7664318,12.8824463L31.7664318,12.8824463z"/>
	</g>
	<line class="st4" x1="36.4417953" y1="16.3026924" x2="39.1990471" y2="14.7266989"/>
	<path class="st5" d="M34.9002838,16.1262627c0,0-3.5816154-0.9763603-9.100996,0.450676
		c-4.3819866,1.1329613-8.2325783,1.9699993-12.4027233,6.5132523c-3.1274652,3.4072857-7.9990659,10.1872749-7.9990659,10.1872749"
		/>
	<path class="st5" d="M5.7076483,33.8200836c0,0,9.0689936-9.0710869,13.9990339-12.0329838
		s15.3487339-4.8856373,15.3487339-4.8856373"/>
	<path class="st6" d="M33.8287277,19.1732197c0.6443825-0.4121075,1.2314949-0.8655472,1.7623711-1.3519001
		c0.9839287-0.9014053,0.8285294-2.3450041-0.3276482-3.0118971c-4.3322639-2.498889-10.2740135-2.4739418-14.8386936,0.4453382
		c-1.3449574,0.8601494-2.4404125,1.900362-3.2958202,3.0440254C21.4758263,22.0575485,28.5671349,22.5381374,33.8287277,19.1732197
		z"/>
	<path class="st7" d="M36.2251129,16.207222c-0.0661278-0.5493431-0.3906898-1.0684319-0.9616241-1.3977747
		c-4.3323002-2.4988956-10.2740517-2.4739904-14.8387051,0.4453402c-1.3449593,0.8601074-2.4404469,1.9003525-3.2958107,3.0439663
		c0.0076733,0.0066414,0.0162716,0.0121994,0.0239449,0.0188427L36.2251129,16.207222z"/>
	<path class="st5" d="M6.5760665,35.3394089c0,0,8.2522926-0.8653641,12.7753658-1.830986
		c6.0310402-1.2875557,8.7064304-4.1806488,11.9064846-7.3814392c4.0306644-4.0315933,4.7862377-6.2991905,4.8830814-6.8224735
		c0.0916939-0.4954777,0.0037384-1.1899586-0.4304123-1.4457302"/>
	<path class="st5" d="M35.6757164,17.9866943c0,0-6.9450245,8.0010414-11.9991226,10.7458916
		S6.203887,34.6882668,6.203887,34.6882668"/>
	<line class="st5" x1="35.0554161" y1="16.9014626" x2="6.064291" y2="34.1921463"/>
	<path class="st5" d="M5.3458266,33.3549957c0,0-0.4546924,0.8837967-0.0876918,1.4419136
		c0.3670006,0.5581131,1.3179317,0.5424995,1.3179317,0.5424995"/>
	<path class="st8" d="M11.4157162,6.4648643c0.2034941-0.5347648,0.3541594-1.0688391,0.4563713-1.5976281
		c0.1894388-0.9800563-0.5472631-1.7781265-1.5391026-1.6635516C6.6165066,3.633003,3.0577819,6.2959247,1.6162658,10.0840912
		c-0.4247352,1.1161633-0.6193216,2.2293177-0.6235842,3.2976484C5.2794085,13.7028427,9.7540874,10.8313522,11.4157162,6.4648643z"
		/>
	<g class="st1">
		<path class="st2" d="M12.4300671,37.6669922c-1.2285156,0-1.6513672-0.6455078-1.9912109-1.1640625
			c-0.1533203-0.2314453-0.4765625-0.5800781-0.8505859-0.984375c-1.9140625-2.0644531-6.3935547-6.8994141-6.9570312-12.7207031
			c-0.5390625-5.581543,1.0839844-9.0527344,2.8027344-12.7280273c0.3701172-0.7929688,0.7460938-1.5957031,1.1044922-2.4331055
			c1.2373047-2.8862305,2.859375-3.4921875,4.0019531-3.4921875c0.5947266,0,1.0732422,0.1630859,1.3554688,0.2895508
			c0.2939453-0.1401367,0.8027344-0.3271484,1.4296875-0.3271484c1.1171875,0,2.71875,0.5874023,4.0078125,3.3837891
			c0.3876953,0.8422852,0.7929688,1.6479492,1.1933594,2.4433594c1.8183594,3.6176758,3.5351562,7.0341797,3.1484375,12.6079102
			c-0.4082031,5.8583984-4.6679688,10.8115234-6.4873047,12.9267578c-0.3447266,0.4013672-0.6425781,0.7470703-0.7373047,0.8984375
			l-0.0615234,0.1005859C14.0794811,36.9736328,13.6546764,37.6669922,12.4300671,37.6669922z"/>
		<path class="st3" d="M13.3256664,4.6071167c1.0117188,0.0000916,2.391571,0.5715027,3.5536194,3.0932312
			c2.1248779,4.611145,4.7597656,8.1465759,4.2966003,14.8065186c-0.4803467,6.9064636-6.4955139,12.5476379-7.1487427,13.5957336
			c-0.3266296,0.5240479-0.585022,1.0640564-1.5972595,1.0640564s-1.2867126-0.5056152-1.6273193-1.0206604
			c-0.6812134-1.0301514-7.0075073-6.5052185-7.6735535-13.3962097C2.486769,16.1047058,4.9986401,12.5,6.9986401,7.8333435
			c1.1202393-2.6138916,2.5237732-3.1887207,3.5418701-3.1887207c0.79953,0,1.3613892,0.3546143,1.3613892,0.3546143
			S12.4873791,4.6070557,13.3256664,4.6071167 M13.3257275,3.6071167L13.3257275,3.6071167
			c-0.5904846-0.0000305-1.0888672,0.1425171-1.4389038,0.2846069c-0.3338013-0.1250916-0.799469-0.2471008-1.3463135-0.2471008
			c-1.2931824,0-3.1168213,0.6583557-4.4610291,3.7947998C5.7247143,8.2672119,5.3465099,9.0760498,4.9807568,9.8582458
			c-1.7483213,3.7389526-3.399658,7.2705688-2.8471067,12.9877319c0.57901,5.990387,5.1407471,10.9117737,7.0887146,13.0133057
			c0.3135681,0.3382568,0.6689453,0.7216492,0.7460632,0.8382874l0.0514832,0.0783386
			c0.362854,0.553833,0.9111633,1.3907471,2.4099731,1.3907471c1.5041199,0,2.0553284-0.8987427,2.3846436-1.43573
			l0.0612488-0.0993652c0.0742798-0.1192017,0.388092-0.4840698,0.6915283-0.8369141
			c1.8514404-2.1528931,6.1872253-7.1945496,6.6061707-13.2183838c0.3970947-5.7099609-1.3503113-9.1861572-3.2003174-12.8664856
			c-0.3945007-0.7847595-0.8023987-1.5962219-1.1856689-2.427948C16.3880138,4.2448425,14.588728,3.6072388,13.3257275,3.6071167
			L13.3257275,3.6071167z"/>
	</g>
	<line class="st4" x1="11.9019108" y1="3.9992325" x2="11.9019108" y2="0.8233566"/>
	<path class="st5" d="M10.983778,5.25c0,0-2.625,2.625-4.125,8.125c-1.1908903,4.3665981-2.375,8.125-0.5,14
		c1.4061861,4.4060497,4.875,8,4.875,8"/>
	<path class="st5" d="M11.858778,35.375c0,0-3.375-8.375-3.5-14.125s3.375-15.75,3.375-15.75"/>
	<path class="st6" d="M13.0973558,7.692328C13.0593386,6.92838,12.957016,6.193645,12.798213,5.4913979
		c-0.2943258-1.3015442-1.624753-1.8829992-2.7774801-1.2101612c-4.3193383,2.5211635-7.2462077,7.6920862-6.976902,13.1037388
		c0.0793493,1.5945148,0.4388404,3.0617657,1.007266,4.3719482C9.4714966,19.8482609,13.4077225,13.9301729,13.0973558,7.692328z"/>
	<path class="st7" d="M11.7114983,4.139977c-0.5097475-0.2151942-1.1214733-0.1910067-1.6907244,0.1412382
		c-4.3193622,2.5211921-7.2462692,7.6920972-6.9769068,13.1037502c0.0793114,1.5944939,0.4388142,3.0617886,1.0072179,4.371912
		c0.0095749-0.0033665,0.0186667-0.0080738,0.0282421-0.0114403L11.7114983,4.139977z"/>
	<path class="st5" d="M13.608778,35.375c0,0,3.3438148-3.5939503,4.75-8c1.875-5.875,0.6908913-9.6334019-0.5-14
		c-1.5-5.5-3.09375-7.28125-3.5-7.625c-0.3846636-0.3254848-1.03125-0.59375-1.46875-0.34375"/>
	<path class="st5" d="M12.983778,5.5c0,0,3.5,10,3.375,15.75s-3.5,14.125-3.5,14.125"/>
	<line class="st5" x1="11.733778" y1="5.5" x2="12.358778" y2="35.25"/>
	<path class="st5" d="M11.275445,35.4583321c0,0,0.541667,0.8333359,1.208333,0.7916679c0.666667-0.0416679,1.125-0.875,1.125-0.875
		"/>
</g>
<g id="Layer_1_copy">
	<g>
		<path class="st9" d="M13.4856091,36.8311157c-0.1160278,0.1002197-0.2533569,0.184082-0.4250488,0.2429199
			C13.2322521,37.0151978,13.3696423,36.9313354,13.4856091,36.8311157z"/>
		<path class="st9" d="M13.0605602,37.0740356c-0.1716919,0.0588379-0.3776245,0.0925903-0.6306763,0.0925903
			C12.6829357,37.166626,12.8888683,37.1328735,13.0605602,37.0740356z"/>
		<path class="st9" d="M13.7821178,36.4899292c-0.0859985,0.1243286-0.180542,0.2409058-0.2965088,0.3411865
			C13.6015759,36.730835,13.6961193,36.6142578,13.7821178,36.4899292z"/>
		<path class="st9" d="M13.3256969,4.6071167c-0.0111084,0-0.0194702,0.0031128-0.0304565,0.0032349
			c0.0444336-0.0005493,0.0911865,0.0029297,0.1370239,0.0046997C13.3973522,4.6137085,13.3597546,4.6071167,13.3256969,4.6071167z"
			/>
		<path class="st9" d="M15.3751965,5.4950562c0.0630493,0.0583496,0.1260376,0.114563,0.1890869,0.1802368
			C15.501112,5.6094971,15.4383068,5.5535278,15.3751965,5.4950562z"/>
		<path class="st9" d="M14.485548,4.8781128c0.0621338,0.0291748,0.1245728,0.0610962,0.187561,0.0960693
			C14.6099987,4.9390869,14.5479259,4.9073486,14.485548,4.8781128z"/>
		<path class="st9" d="M16.3030529,6.6455078c0.0494995,0.0785522,0.0997314,0.1469727,0.1487427,0.2313232
			C16.4026623,6.7924194,16.3526134,6.7240601,16.3030529,6.6455078z"/>
		<path class="st9" d="M14.0612926,4.7163696c0.0592651,0.0169067,0.1193848,0.0380249,0.1798096,0.0598145
			C14.1804943,4.7542725,14.1206799,4.7333374,14.0612926,4.7163696z"/>
		<path class="st9" d="M14.924696,5.131958c0.0636597,0.0432739,0.1273804,0.0872192,0.1914673,0.137207
			C15.0519543,5.2189941,14.9885387,5.175293,14.924696,5.131958z"/>
		<path class="st9" d="M15.8325329,5.9865723c0.0596924,0.0728149,0.1195679,0.1397705,0.1789551,0.2199097
			C15.9520397,6.1262207,15.8922863,6.0594482,15.8325329,5.9865723z"/>
		<path class="st9" d="M12.7881603,4.6642456c-0.0090332,0.0018311-0.020752,0.0012817-0.0297241,0.0031738
			c0.0004883,0.0009155,0.0010986,0.0016479,0.0015869,0.0025635C12.7693005,4.6680298,12.7786999,4.6661377,12.7881603,4.6642456z"
			/>
		<path class="st9" d="M13.6585217,4.631897c0.0548096,0.006897,0.1114502,0.0186768,0.1677246,0.0293579
			C13.7696667,4.6504517,13.7135754,4.6387329,13.6585217,4.631897z"/>
		<path class="st10" d="M4.9782238,9.4575195c0.2201538-0.4061279,0.4644165-0.7962036,0.7195435-1.1777954
			c0.1273804-0.2827148,0.2584839-0.5527344,0.3817139-0.840332c1.3442383-3.1364136,3.1678467-3.7947998,4.4610596-3.7947998
			c0.2774658,0,0.5328369,0.0319214,0.7619019,0.0792236c0.0397339,0.0025024,0.0800781,0.0009155,0.1192627,0.0060425
			C11.384901,3.6601562,11.358778,3.5843506,11.358778,3.5V2.5841064c-0.2732544-0.1452026-0.5963135-0.2195435-0.9552002-0.1781006
			c-4.1395874,0.4781494-8.1033936,3.4442139-9.7089844,7.6636353c-0.4730835,1.2432251-0.6898193,2.4830933-0.6945801,3.6730347
			c1.1484985,0.0860596,2.3082275-0.0383911,3.4343872-0.3375244c0.0762939-0.1983643,0.1489258-0.3994141,0.2289429-0.5951538
			C3.9680922,11.6364136,4.409132,10.5076904,4.9782238,9.4575195z"/>
		<path class="st2" d="M8.858778,21.2392578c0.0924072,4.2663574,2.0380249,10.0847778,2.9710693,12.6443481l-0.3937378-18.741333
			c-0.6541748,1.1838989-1.4677124,2.2624512-2.399292,3.2052002C8.9079723,19.3806152,8.839674,20.3626709,8.858778,21.2392578z"/>
		<path class="st2" d="M12.5000134,35.7207031c-0.0274048,0.0082397-0.0549316,0.0153809-0.0840454,0.0188599
			c0.012085,0.0018311,0.0245972,0.0106812,0.0365601,0.0114136c0.0185547-0.0011597,0.0373535-0.015564,0.0560913-0.0197144
			C12.5053234,35.7279663,12.5032482,35.723999,12.5000134,35.7207031z"/>
		<path class="st2" d="M17.8822155,27.2226562c1.7509766-5.484375,0.7753906-9.043457-0.3544922-13.1635742l-0.1513672-0.5527344
			c-1.59375-5.8452148-3.2695312-7.3149414-3.3408203-7.3745117c-0.1188354-0.1003418-0.2545166-0.1750488-0.3873291-0.2315674
			c0.7426147,2.2183838,3.3199463,10.3079834,3.2105713,15.3604736c-0.1002808,4.5963745-2.1888428,10.7032471-3.1088867,13.1842041
			C14.7229137,33.2683716,16.8515148,30.4539185,17.8822155,27.2226562z"/>
		<path class="st2" d="M6.8353405,27.2226562c0.9730835,3.050415,2.9810181,5.7199707,4.0501099,6.9990234
			c-0.9563599-2.607666-2.9292603-8.4956055-3.0266724-12.9609375c-0.0128174-0.5933838,0.019043-1.2359009,0.072998-1.8986816
			c-0.6359253,0.5167847-1.3181763,0.9647217-2.0324097,1.3484497C5.8108044,22.6399536,6.0401134,24.7318726,6.8353405,27.2226562z
			"/>
		<path class="st2" d="M15.858778,21.2392578c0.0855713-3.9231567-1.5767212-9.949646-2.5900269-13.2371216
			c0.0109863,1.7435913-0.293457,3.4536743-0.8761597,5.0466309l0.4407959,20.982605
			C13.7417736,31.5584106,15.7644787,25.5932007,15.858778,21.2392578z"/>
		<path class="st2" d="M12.8545666,4.8804932c0.611145-0.2087402,1.336731,0.072937,1.8274536,0.4876709
			c0.328125,0.277832,2.046875,1.9624023,3.6591797,7.8754883l0.1503906,0.5507812
			c1.1230469,4.0961914,2.1845703,7.965332,0.34375,13.7329102c-1.3687744,4.2885742-4.4603882,7.7510376-4.8220215,8.1466064
			c-0.1374512,0.2297363-0.6682129,1.0228271-1.498291,1.0750732c-0.0273438,0.0019531-0.0546875,0.0029297-0.0810547,0.0029297
			c-0.8886719,0-1.5078125-0.9150391-1.578125-1.0214844c-0.0093994-0.0145874-0.010498-0.0313721-0.0181885-0.0465088
			c-0.359314-0.3779297-3.5805664-3.8501587-4.9554443-8.1566162c-0.7620239-2.3875732-1.0218506-4.4470215-0.9907227-6.3347168
			c-0.2231445,0.0944824-0.4450684,0.1921387-0.6737061,0.272644V21.46521h-0.000061
			c-0.1420898-0.3275146-0.2711179-0.664856-0.3859861-1.0115967c-0.2297974-0.6934204-0.402832-1.4243164-0.5103149-2.1887817
			c-0.0250244-0.1779785-0.0338745-0.3638916-0.0516357-0.5454712c-0.2445068,1.4949341-0.3237915,3.1364746-0.1407471,5.0303955
			c0.6660156,6.8909912,6.9923096,12.3660889,7.6735229,13.3962402c0.3406372,0.5150146,0.6151123,1.0206299,1.6273193,1.0206299
			c0.2530518,0,0.4589844-0.0337524,0.6306763-0.0925903s0.309021-0.1427002,0.4250488-0.2429199
			c0.1159668-0.1002808,0.2105103-0.2168579,0.2965088-0.3411865c0.0859375-0.1243286,0.1633911-0.2563477,0.2450562-0.3873291
			c0.6531982-1.0480957,6.668396-6.68927,7.1487427-13.5957642c0.4631348-6.6599121-2.1717529-10.1953735-4.2966309-14.8065186
			c-0.1395874-0.3029175-0.2826538-0.5744629-0.4274902-0.8234863c-0.0490112-0.0843506-0.0992432-0.152771-0.1487427-0.2313232
			c-0.0967407-0.1534424-0.1935425-0.3067017-0.2915649-0.4390259c-0.0593872-0.0801392-0.1192627-0.1470947-0.1789551-0.2199097
			c-0.0892944-0.1089478-0.1786499-0.2179565-0.2682495-0.3112793c-0.0630493-0.0656738-0.1260376-0.1218872-0.1890869-0.1802368
			c-0.0865479-0.0801392-0.1729126-0.1587524-0.2590332-0.2258911c-0.0640869-0.0499878-0.1278076-0.0939331-0.1914673-0.137207
			c-0.0842896-0.057312-0.168335-0.1115112-0.2515869-0.1577759c-0.0629883-0.0349731-0.1254272-0.0668945-0.187561-0.0960693
			c-0.0823364-0.0385742-0.1638794-0.0728149-0.2444458-0.1019287c-0.0604248-0.0217896-0.1205444-0.0429077-0.1798096-0.0598145
			c-0.0797119-0.0227661-0.1578369-0.0404053-0.2350464-0.0551147c-0.0562744-0.0106812-0.112915-0.0224609-0.1677246-0.0293579
			C13.581068,4.6221924,13.5063,4.6179199,13.4322643,4.6150513c-0.0458374-0.00177-0.0925903-0.005249-0.1370239-0.0046997
			c-0.1829834,0.0022583-0.3525391,0.0230103-0.5070801,0.053894c-0.0094604,0.0018921-0.0188599,0.0037842-0.0281372,0.0057373
			C12.7959728,4.7366943,12.8255138,4.8078003,12.8545666,4.8804932z"/>
		<path class="st3" d="M18.9731579,9.7097778c-0.3944702-0.78479-0.8023682-1.5962524-1.1856689-2.4279785
			c-1.3994751-3.0369873-3.1987305-3.6745605-4.461731-3.6746826c-0.4125366-0.000061-0.7561035,0.0762939-1.0595093,0.166687
			C12.3199596,3.6940918,12.358778,3.6034546,12.358778,3.5v-3c0-0.2763672-0.2236328-0.5-0.5-0.5s-0.5,0.2236328-0.5,0.5v2.0841064
			V3.5c0,0.0843506,0.026123,0.1601562,0.0629272,0.2298584c0.1566772,0.0205078,0.3088989,0.0570679,0.4525757,0.1173096
			c0.0012207,0.0005493,0.0026855,0.0005493,0.0039062,0.0010986v0.000061
			c0.3665771,0.1547241,0.6744385,0.4384766,0.880249,0.8190918c0.0089722-0.0018921,0.0206909-0.0013428,0.0297241-0.0031738
			c0.154541-0.0308838,0.3240967-0.0516357,0.5070801-0.053894c0.0109863-0.0001221,0.0193481-0.0032349,0.0304565-0.0032349
			c0.0340576,0,0.0716553,0.0065918,0.1065674,0.0079346C13.5063,4.6179199,13.581068,4.6221924,13.6585217,4.631897
			c0.0550537,0.0068359,0.111145,0.0185547,0.1677246,0.0293579c0.0772095,0.0147095,0.1553345,0.0323486,0.2350464,0.0551147
			c0.0593872,0.0169678,0.1192017,0.0379028,0.1798096,0.0598145c0.0805664,0.0291138,0.1621094,0.0633545,0.2444458,0.1019287
			c0.0623779,0.0292358,0.1244507,0.0609741,0.187561,0.0960693c0.083252,0.0462646,0.1672974,0.1004639,0.2515869,0.1577759
			c0.0638428,0.043335,0.1272583,0.0870361,0.1914673,0.137207c0.0861206,0.0671387,0.1724854,0.145752,0.2590332,0.2258911
			c0.0631104,0.0584717,0.1259155,0.1144409,0.1890869,0.1802368c0.0895996,0.0933228,0.1789551,0.2023315,0.2682495,0.3112793
			c0.0597534,0.072876,0.1195068,0.1396484,0.1789551,0.2199097c0.0980225,0.1323242,0.1948242,0.2855835,0.2915649,0.4390259
			c0.0495605,0.0785522,0.0996094,0.1469116,0.1487427,0.2313232c0.1448364,0.2490234,0.2879028,0.5205688,0.4274902,0.8234863
			c2.1248779,4.611145,4.7597656,8.1466064,4.2966309,14.8065186c-0.4803467,6.9064941-6.4955444,12.5476685-7.1487427,13.5957642
			c-0.081665,0.1309814-0.1591187,0.2630005-0.2450562,0.3873291c-0.0859985,0.1243286-0.180542,0.2409058-0.2965088,0.3411865
			c-0.1159668,0.1002197-0.2533569,0.184082-0.4250488,0.2429199s-0.3776245,0.0925903-0.6306763,0.0925903
			c-1.012207,0-1.2866821-0.5056152-1.6273193-1.0206299c-0.6812134-1.0301514-7.0075073-6.505249-7.6735229-13.3962402
			c-0.1830444-1.8939209-0.1037598-3.5354614,0.1407471-5.0303955c-0.0204468-0.208374-0.048645-0.4130249-0.0592651-0.6260376
			c-0.0168457-0.3382568-0.0211792-0.6755371-0.0134888-1.0112915c0.0255737-1.1155396,0.190979-2.211792,0.4663086-3.2720337
			c-0.0800171,0.1957397-0.1526489,0.3967896-0.2289429,0.5951538c-1.0137939,2.6358643-1.6795044,5.5216675-1.3007202,9.4407959
			c0.5789795,5.9904175,5.1407471,10.9118042,7.0886841,13.0133057c0.3135986,0.3382568,0.6689453,0.7216797,0.7460938,0.8383179
			l0.0514526,0.0783081c0.362854,0.553833,0.9111938,1.3907471,2.4099731,1.3907471
			c1.5041504,0,2.0553589-0.8987427,2.3846436-1.43573l0.0612793-0.0993652
			c0.0742798-0.1192017,0.3880615-0.4840698,0.6915283-0.8369141c1.8514404-2.1528931,6.1871948-7.194519,6.6061401-13.2183838
			C22.57057,16.866272,20.8231945,13.3900757,18.9731579,9.7097778z"/>
		<path class="st3" d="M9.3943005,4.4927368c0.258667-0.1776733,0.5231323-0.3455811,0.7930908-0.5031738
			c0.0092163-0.0053711,0.0188599-0.0072021,0.0281372-0.0124512c0.1338501-0.0756226,0.2695923-0.1376343,0.4060669-0.1803589
			c0.1138916-0.0357666,0.2275391-0.0512695,0.3409424-0.0653687c0.031189-0.0038452,0.0626831-0.0155029,0.09375-0.0177002
			c0.0835571-0.0061035,0.1642456,0.0048828,0.2461548,0.0101318c-0.2290649-0.0473022-0.484436-0.0792236-0.7619019-0.0792236
			c-1.2932129,0-3.1168213,0.6583862-4.4610596,3.7947998c-0.12323,0.2875977-0.2543335,0.5576172-0.3817139,0.840332
			c0.2828979-0.4232788,0.5805054-0.835144,0.9032593-1.2238159C7.4192638,6.0704346,8.3597546,5.2034912,9.3943005,4.4927368z"/>
		<path class="st11" d="M5.8822155,27.5273438c1.3748779,4.3064575,4.5961304,7.7786865,4.9554443,8.1566162
			c0.0076904,0.0151367,0.0087891,0.0319214,0.0181885,0.0465088c0.0703125,0.1064453,0.6894531,1.0214844,1.578125,1.0214844
			c0.0263672,0,0.0537109-0.0009766,0.0810547-0.0029297c0.8300781-0.0522461,1.3608398-0.8453369,1.498291-1.0750732
			c0.3616333-0.3955688,3.4532471-3.8580322,4.8220215-8.1466064c1.8408203-5.7675781,0.7792969-9.6367188-0.34375-13.7329102
			l-0.1503906-0.5507812c-1.6123047-5.9130859-3.3310547-7.5976562-3.6591797-7.8754883
			c-0.4907227-0.4147339-1.2163086-0.6964111-1.8274536-0.4876709c-0.0723267,0.0247192-0.144043,0.0524902-0.2125854,0.0916748
			c-0.2402344,0.137207-0.3232422,0.4423828-0.1865234,0.6821289c0.0227661,0.039856,0.0559692,0.0682373,0.0869751,0.0990601
			c0.0869751,0.2538452,0.364563,1.0751953,0.7263184,2.2487793c1.0133057,3.2874756,2.6755981,9.3139648,2.5900269,13.2371216
			c-0.0942993,4.3539429-2.1170044,10.3191528-3.0253906,12.7921143l-0.4407959-20.982605L12.233778,5.4892578
			C12.2279186,5.2167969,12.0052624,5,11.733778,5c-0.0029297,0-0.0068359,0-0.0107422,0
			c-0.2753906,0.0058594-0.4951172,0.234375-0.4892578,0.5107422l0.2023315,9.6315308l0.3937378,18.741333
			c-0.9330444-2.5595703-2.8786621-8.3779907-2.9710693-12.6443481c-0.019104-0.8765869,0.0491943-1.8586426,0.1780396-2.8917847
			c-0.3530884,0.3573608-0.7183838,0.7003174-1.1050415,1.0145874c-0.0539551,0.6627808-0.0858154,1.3052979-0.072998,1.8986816
			c0.0974121,4.465332,2.0703125,10.3532715,3.0266724,12.9609375c-1.0690918-1.2790527-3.0770264-3.9486084-4.0501099-6.9990234
			c-0.7952271-2.4907837-1.0245361-4.5827026-0.9359741-6.512146c-0.3287354,0.1766357-0.664856,0.336853-1.0078735,0.4821167
			C4.8603649,23.0803223,5.1201916,25.1397705,5.8822155,27.5273438z M12.4159679,35.739563
			c0.0291138-0.003479,0.0566406-0.0106201,0.0840454-0.0188599c0.0032349,0.0032959,0.0053101,0.0072632,0.008606,0.0105591
			c-0.0187378,0.0041504-0.0375366,0.0185547-0.0560913,0.0197144C12.4405651,35.7502441,12.4280529,35.741394,12.4159679,35.739563
			z M16.858778,21.2607422c0.109375-5.0524902-2.4679565-13.1420898-3.2105713-15.3604736
			c0.1328125,0.0565186,0.2684937,0.1312256,0.3873291,0.2315674c0.0712891,0.0595703,1.7470703,1.5292969,3.3408203,7.3745117
			l0.1513672,0.5527344c1.1298828,4.1201172,2.1054688,7.6791992,0.3544922,13.1635742
			c-1.0307007,3.2312622-3.1593018,6.0457153-4.1323242,7.22229C14.6699352,31.9639893,16.7584972,25.8571167,16.858778,21.2607422z
			"/>
		<path class="st11" d="M3.2105238,17.0932617c-0.0168457-0.3381958-0.0211792-0.6754761-0.0134888-1.0112305
			c-0.0076904,0.3357544-0.0033569,0.6730347,0.0134888,1.0112915c0.0106201,0.2130127,0.0388184,0.4176636,0.0592651,0.6260376
			c0.0177612,0.1815796,0.0266113,0.3674927,0.0516357,0.5454712C3.2676528,17.8825684,3.2303603,17.4918823,3.2105238,17.0932617z"
			/>
		<path class="st11" d="M10.9625378,3.7313843c-0.1134033,0.0140991-0.2270508,0.0296021-0.3409424,0.0653687
			C10.735487,3.7611084,10.8491955,3.7451782,10.9625378,3.7313843z"/>
		<path class="st11" d="M6.6010265,7.0559082c0.8182373-0.9854736,1.758728-1.852417,2.7932739-2.5631714
			C8.3597546,5.2034912,7.4192638,6.0704346,6.6010265,7.0559082z"/>
		<path class="st11" d="M9.3943005,4.4927368c0.258667-0.1776733,0.5231934-0.3455811,0.7931519-0.5031738
			c0.0092163-0.0053711,0.0187988-0.0072021,0.0280762-0.0124512c-0.0092773,0.005249-0.0189209,0.0070801-0.0281372,0.0124512
			C9.9174328,4.1471558,9.6529675,4.3150635,9.3943005,4.4927368z"/>
		<path class="st11" d="M11.0562878,3.7136841c0.2859497-0.0203247,0.5643921,0.0272217,0.8179932,0.1334839
			c-0.1436768-0.0602417-0.2958984-0.0968018-0.4525757-0.1173096c-0.0391846-0.005127-0.0795288-0.00354-0.1192627-0.0060425
			C11.2205334,3.7185669,11.1398449,3.7075806,11.0562878,3.7136841z"/>
		<path class="st11" d="M4.245985,21.4537354C4.2364025,21.4570923,4.2273693,21.461853,4.2177868,21.46521v0.000061
			c0.2286377-0.0805054,0.4505615-0.1781616,0.6737061-0.272644c0.3430176-0.1452637,0.6791382-0.305481,1.0078735-0.4821167
			c0.7142334-0.383728,1.3964844-0.831665,2.0324097-1.3484497c0.3866577-0.31427,0.7519531-0.6572266,1.1050415-1.0145874
			c0.9315796-0.942749,1.7451172-2.0213013,2.399292-3.2052002L11.233778,5.5107422
			C11.2279186,5.234375,11.4476452,5.0058594,11.7230358,5c0.0039062,0,0.0078125,0,0.0107422,0
			c0.2714844,0,0.4941406,0.2167969,0.5,0.4892578l0.1588135,7.5595093c0.5827026-1.5929565,0.887146-3.3030396,0.8761597-5.0466309
			c-0.3617554-1.173584-0.6393433-1.9949341-0.7263184-2.2487793c-0.0310059-0.0308228-0.064209-0.0592041-0.0869751-0.0990601
			c-0.1367188-0.2397461-0.0537109-0.5449219,0.1865234-0.6821289c0.0685425-0.0391846,0.1402588-0.0669556,0.2125854-0.0916748
			c-0.0290527-0.0726929-0.0585938-0.1437988-0.0945435-0.2105103c-0.0004883-0.0009155-0.0010986-0.0016479-0.0015869-0.0025635
			c-0.2058105-0.3806152-0.5136719-0.6643677-0.880249-0.8190918L4.245985,21.4537354z"/>
		<path class="st12" d="M11.0562878,3.7136841c-0.0310669,0.0021973-0.062561,0.013855-0.09375,0.0177002
			c-0.1133423,0.0137939-0.2270508,0.0297241-0.3409424,0.0653687c-0.1364746,0.0427246-0.2722168,0.1047363-0.4060669,0.1803589
			c-0.0092773,0.005249-0.0188599,0.0070801-0.0280762,0.0124512C9.9174938,4.1471558,9.6529675,4.3150635,9.3943005,4.4927368
			C8.3597546,5.2034912,7.4192638,6.0704346,6.6010265,7.0559082C6.2782726,7.4445801,5.9806652,7.8564453,5.6977673,8.2797241
			c-0.255127,0.3815918-0.4993896,0.7716675-0.7195435,1.1777954c-0.5690918,1.0501709-1.0101316,2.178894-1.3148801,3.352478
			c-0.2753296,1.0602417-0.4407349,2.1564941-0.4663086,3.2720337c-0.0076904,0.3357544-0.0033569,0.6730347,0.0134888,1.0112305
			c0.0198364,0.3986206,0.0571289,0.7893066,0.1109009,1.1715698c0.1074829,0.7644653,0.2805176,1.4953613,0.5103149,2.1887817
			c0.1148682,0.3467407,0.2438962,0.684082,0.3859861,1.0115967h0.000061
			c0.0095825-0.0033569,0.0186157-0.0081177,0.0281982-0.0114746l7.6322021-17.6054077v-0.000061
			c-0.0012207-0.0005493-0.0026855-0.0005493-0.0039062-0.0010986C11.6206799,3.7409058,11.3422375,3.6933594,11.0562878,3.7136841z
			"/>
	</g>
</g>
<g id="Layer_4" class="st0">
	<g class="st1">
		<path class="st11" d="M8.7738171,36.6123047c-1.3535156,0-2.3115234-0.0371094-2.6328125-0.0488281l-0.1289062-0.0039062
			C5.4203014,36.5410156,4.608778,36.515625,4.0013561,35.453125c-0.6103513-1.0673828-0.2587888-1.7548828,0.0234375-2.3076172
			l0.5136719,0.0917969l-0.4462891-0.2246094c1.3486328-2.6777344,6.1591797-11.7021484,11.4277344-15.4301758
			c4.578125-3.237793,8.3974609-3.5507812,12.4414062-3.8828125c0.8720703-0.0717773,1.7558594-0.144043,2.6621094-0.2480469
			c0.4130859-0.0478516,0.7929688-0.0693359,1.1425781-0.0693359c1.5068378,0,2.6552639,0.4008789,3.4121113,1.1918945
			c0.6640625,0.6938477,0.8378906,1.5048828,0.8818359,1.9379883c0.3798828,0.2631836,1.0625,0.8608398,1.3183594,1.8857422
			c0.3154297,1.2631836-0.1123047,2.7275391-1.2724609,4.3530273C35.5667877,23.5058594,35.0677643,24.2578125,34.5755768,25
			c-2.2382812,3.3740234-4.3515644,6.5595703-9.3818378,8.9882812c-4.7275391,2.2832031-12.3164062,2.6240234-16.4189453,2.6240234
			C8.7738171,36.6123047,8.7738171,36.6123047,8.7738171,36.6123047z"/>
		<path class="st3" d="M31.7664318,13.8824158c3.934206,0,3.8071613,2.9165039,3.8071613,2.9165039
			s3.0737915,1.5286865,0.1249084,5.6617126c-2.9488831,4.1329956-4.7107563,8.1749878-10.7226582,11.0778198
			c-4.6621399,2.2510376-12.1875,2.573822-16.2030029,2.573822c-1.354248,0-2.3096313-0.0367126-2.6208496-0.048584
			c-0.6170654-0.0235291-1.2141418,0.0201111-1.7164307-0.8586731c-0.5023191-0.8788147-0.1995544-1.368042,0.0785828-1.9193115
			c0.5563354-1.1026306,5.6430969-11.296936,11.2952271-15.2947693c5.45047-3.8551331,9.8265076-3.4631653,14.8705139-4.042572
			C31.0730419,13.9031982,31.4338512,13.8824158,31.7664318,13.8824158 M31.7664318,12.8824463
			c-0.3781128,0-0.782074,0.024353-1.2006531,0.0724487c-0.8947449,0.1027832-1.7846375,0.1757812-2.6452332,0.2464294
			c-4.113678,0.3375244-7.9992371,0.6563721-12.6886292,3.9732056c-5.2153931,3.6889038-9.8394775,12.1461182-11.5855103,15.6109924
			l-0.0250549,0.0497131L3.578932,32.9187317c-0.3008118,0.5898438-0.7553711,1.4812012-0.0115662,2.7825317
			c0.7463682,1.3058167,1.8002012,1.3383789,2.4298093,1.3578186l0.1166992,0.0038757
			c0.3244324,0.0123596,1.2940063,0.0493164,2.6589661,0.0493164c4.1459045,0,11.8204346-0.34729,16.6378174-2.6733093
			c5.1543274-2.488739,7.3051777-5.730835,9.5823383-9.1632996c0.4855652-0.7319031,0.9876404-1.488739,1.5195312-2.2342224
			c1.2487488-1.7501831,1.7031555-3.3533325,1.3505554-4.7648621c-0.2582397-1.033783-0.8811035-1.6864014-1.3346252-2.0414124
			c-0.0855103-0.5299072-0.3260803-1.3138428-0.9895935-2.0068665
			C34.6838837,13.3352356,33.4146576,12.8824463,31.7664318,12.8824463L31.7664318,12.8824463z"/>
	</g>
	<line class="st4" x1="36.4417953" y1="16.3026924" x2="39.1990471" y2="14.7266989"/>
	<path class="st13" d="M5.3974986,33.2774658c0,0,4.8716006-6.7799892,7.9990659-10.1872749
		c4.170145-4.5432529,8.0851574-5.155302,12.4027233-6.5132523c6.6532421-2.0925636,7.8432941-1.2336636,8.2938671-0.8581886
		c0.375,0.3125,0.8281136,1.6875,0.8281136,1.6875L6.064291,34.1921463"/>
	<path class="st13" d="M5.7076483,33.8200836c0,0,9.0689936-9.0710869,13.9990339-12.0329838
		s14.9958477-4.6464748,14.9958477-4.6464748"/>
	<path class="st13" d="M6.5760665,35.3394089c0,0,8.2522926-0.8653641,12.7753658-1.830986
		c6.0310402-1.2875557,8.7064304-4.1806488,11.9064846-7.3814392c4.0306644-4.0315933,4.7953434-6.2975883,4.8830814-6.8224735
		c0.1240311-0.7420101-0.5824432-1.5331135-1.0165939-1.7888851"/>
	<path class="st13" d="M35.5306549,18.078125c0,0-6.799963,7.9096107-11.8540611,10.6544609
		S6.203887,34.6882668,6.203887,34.6882668"/>
	<path class="st13" d="M5.3458266,33.3549957c0,0-0.4546924,0.8837967-0.0876918,1.4419136
		c0.3670006,0.5581131,1.3179317,0.5424995,1.3179317,0.5424995"/>
</g>
<g id="Layer_3" class="st0">
	<path class="st8" d="M67.6095352,12.0384197c0.2266541-0.5956392,0.3944702-1.1905098,0.508316-1.7794924
		c0.2110062-1.0916204-0.6095581-1.9805384-1.7143021-1.8529205c-4.1395416,0.4781895-8.1033707,3.4442425-9.7089806,7.6636324
		C56.2214851,17.3128586,56.0047493,18.5527287,56,19.742672C60.774704,20.1003284,65.7587509,16.9019623,67.6095352,12.0384197z"/>
	<g class="st1">
		<path class="st11" d="M68.430069,47.6669922c-1.2285156,0-1.6513672-0.6455078-1.9912109-1.1640625l0.3300781-0.4072266
			l-0.4169922,0.2753906c-1.6542969-2.5-7.1005859-11.1582031-7.7207031-17.5732422
			c-0.5390625-5.5810547,1.0839844-9.0527344,2.8027344-12.7280273c0.3701172-0.7929688,0.7460938-1.5957031,1.1044922-2.4331055
			c1.2373047-2.8862305,2.859375-3.4921875,4.0019531-3.4921875c0.5947266,0,1.0732422,0.1630859,1.3554688,0.2895508
			c0.2939453-0.1401367,0.8027344-0.3271484,1.4296875-0.3271484c1.1171875,0,2.71875,0.5874023,4.0078125,3.3837891
			c0.3876953,0.8422852,0.7929688,1.6479492,1.1933594,2.4433594c1.8183594,3.6176758,3.5351562,7.0336914,3.1484375,12.6079102
			c-0.453125,6.515625-5.6425781,15.2880859-7.2216797,17.8212891l-0.0644531,0.1044922
			C70.079483,46.9736328,69.6546783,47.6669922,68.430069,47.6669922z"/>
		<path class="st3" d="M69.3256683,10.6071167c1.0117188,0.0000916,2.391571,0.5715027,3.5536194,3.0932312
			c2.1248779,4.611145,4.7597656,8.1465759,4.2966003,14.8065186c-0.4803467,6.9064636-6.4955139,16.5476379-7.1487427,17.5957336
			c-0.3266296,0.5240479-0.585022,1.0640564-1.5972595,1.0640564s-1.2867126-0.5056152-1.6273193-1.0206604
			c-0.6812134-1.0301514-7.0075073-10.5052185-7.6735535-17.3962097C58.4867706,22.1047058,60.998642,18.5,62.998642,13.8333435
			c1.1202393-2.6138916,2.5237732-3.1887207,3.5418701-3.1887207c0.79953,0,1.3613892,0.3546143,1.3613892,0.3546143
			S68.487381,10.6070557,69.3256683,10.6071167 M69.3257294,9.6071167L69.3257294,9.6071167
			c-0.5904846-0.0000305-1.0888672,0.1425171-1.4389038,0.2846069c-0.3338013-0.1250916-0.799469-0.2471008-1.3463135-0.2471008
			c-1.2931824,0-3.1168213,0.6583557-4.4610291,3.7947998c-0.3547668,0.8277893-0.7329712,1.6366272-1.0987244,2.4188232
			c-1.7483215,3.7389526-3.3996582,7.2705688-2.8471069,12.9877319c0.6145935,6.3586121,5.662384,14.5699768,7.8040771,17.8052063
			l0.0307007,0.0463867l0.0514832,0.0783386c0.362854,0.553833,0.9111633,1.3907471,2.4099731,1.3907471
			c1.5041199,0,2.0553284-0.8987427,2.3846436-1.43573l0.0612488-0.0993652
			c1.5978699-2.5637512,6.8367004-11.4268494,7.297699-18.0552979c0.3970947-5.7099609-1.3503113-9.1861572-3.2003174-12.8664856
			c-0.3945007-0.7847595-0.8023987-1.5962219-1.1856689-2.427948C72.3880157,10.2448425,70.5887299,9.6072388,69.3257294,9.6071167
			L69.3257294,9.6071167z"/>
	</g>
	<line class="st4" x1="67.9019089" y1="9.9992323" x2="67.9019089" y2="6.8233566"/>
	<path class="st13" d="M66.9837799,11.25c0,0-2.625,2.625-4.125,8.125c-1.1908913,4.3665981-2.375,8.125-0.5,14
		c1.4061852,4.4060478,4.875,12,4.875,12"/>
	<path class="st13" d="M67.8587799,45.375c0,0-3.375-12.375-3.5-18.125s3.375-15.75,3.375-15.75"/>
	<path class="st13" d="M69.6087799,45.375c0,0,3.343811-7.5939522,4.75-12c1.875-5.875,0.6908875-9.6334019-0.5-14
		c-1.5-5.5-3.09375-7.28125-3.5-7.625c-0.3846664-0.3254843-1.03125-0.59375-1.46875-0.34375"/>
	<path class="st13" d="M68.9837799,11.5c0,0,3.5,10,3.375,15.75s-3.5,18.125-3.5,18.125"/>
	<line class="st13" x1="67.7337799" y1="11.5" x2="68.3587799" y2="45.25"/>
	<path class="st13" d="M67.275444,45.4583321c0,0,0.5416641,0.8333359,1.2083359,0.7916679
		c0.6666641-0.0416679,1.125-0.875,1.125-0.875"/>
	<path class="st8" d="M69.2640228,13.4006615c-0.0380173-0.7639475-0.1403427-1.498683-0.2991409-2.2009306
		c-0.2943268-1.3015442-1.6247559-1.8829985-2.7774811-1.2101612c-4.3193398,2.5211639-7.2462082,7.6920862-6.976902,13.1037397
		c0.0793495,1.5945129,0.438839,3.0617657,1.0072632,4.3719482C65.6381607,25.5565929,69.5743866,19.6385059,69.2640228,13.4006615z
		"/>
	<path class="st6" d="M67.8781662,9.8483105c-0.5097504-0.2151947-1.1214752-0.1910067-1.6907272,0.1412382
		c-4.3193588,2.5211926-7.2462692,7.6920977-6.9769058,13.1037493c0.0793114,1.5944958,0.4388161,3.0617905,1.0072174,4.371912
		c0.0095749-0.0033646,0.0186691-0.0080719,0.028244-0.0114384L67.8781662,9.8483105z"/>
	<path class="st8" d="M67.4157181,12.4648647c0.2034912-0.5347652,0.3541565-1.06884,0.4563675-1.5976286
		c0.1894379-0.9800558-0.5472641-1.7781267-1.5391006-1.6635513c-3.7164803,0.4293184-7.2752037,3.0922394-8.7167206,6.8804064
		c-0.4247322,1.1161633-0.6193199,2.2293167-0.6235809,3.2976494
		C61.2794075,19.7028427,65.7540894,16.8313522,67.4157181,12.4648647z"/>
	<g class="st1">
		<path class="st2" d="M68.430069,47.6669922c-1.2285156,0-1.6513672-0.6455078-1.9912109-1.1640625l0.3300781-0.4072266
			l-0.4169922,0.2753906c-1.6542969-2.5-7.1005859-11.1582031-7.7207031-17.5732422
			c-0.5390625-5.5810547,1.0839844-9.0527344,2.8027344-12.7280273c0.3701172-0.7929688,0.7460938-1.5957031,1.1044922-2.4331055
			c1.2373047-2.8862305,2.859375-3.4921875,4.0019531-3.4921875c0.5947266,0,1.0732422,0.1630859,1.3554688,0.2895508
			c0.2939453-0.1401367,0.8027344-0.3271484,1.4296875-0.3271484c1.1171875,0,2.71875,0.5874023,4.0078125,3.3837891
			c0.3876953,0.8422852,0.7929688,1.6479492,1.1933594,2.4433594c1.8183594,3.6176758,3.5351562,7.0336914,3.1484375,12.6079102
			c-0.453125,6.515625-5.6425781,15.2880859-7.2216797,17.8212891l-0.0644531,0.1044922
			C70.079483,46.9736328,69.6546783,47.6669922,68.430069,47.6669922z"/>
		<path class="st3" d="M69.3256683,10.6071167c1.0117188,0.0000916,2.391571,0.5715027,3.5536194,3.0932312
			c2.1248779,4.611145,4.7597656,8.1465759,4.2966003,14.8065186c-0.4803467,6.9064636-6.4955139,16.5476379-7.1487427,17.5957336
			c-0.3266296,0.5240479-0.585022,1.0640564-1.5972595,1.0640564s-1.2867126-0.5056152-1.6273193-1.0206604
			c-0.6812134-1.0301514-7.0075073-10.5052185-7.6735535-17.3962097C58.4867706,22.1047058,60.998642,18.5,62.998642,13.8333435
			c1.1202393-2.6138916,2.5237732-3.1887207,3.5418701-3.1887207c0.79953,0,1.3613892,0.3546143,1.3613892,0.3546143
			S68.487381,10.6070557,69.3256683,10.6071167 M69.3257294,9.6071167L69.3257294,9.6071167
			c-0.5904846-0.0000305-1.0888672,0.1425171-1.4389038,0.2846069c-0.3338013-0.1250916-0.799469-0.2471008-1.3463135-0.2471008
			c-1.2931824,0-3.1168213,0.6583557-4.4610291,3.7947998c-0.3547668,0.8277893-0.7329712,1.6366272-1.0987244,2.4188232
			c-1.7483215,3.7389526-3.3996582,7.2705688-2.8471069,12.9877319c0.6145935,6.3586121,5.662384,14.5699768,7.8040771,17.8052063
			l0.0307007,0.0463867l0.0514832,0.0783386c0.362854,0.553833,0.9111633,1.3907471,2.4099731,1.3907471
			c1.5041199,0,2.0553284-0.8987427,2.3846436-1.43573l0.0612488-0.0993652
			c1.5978699-2.5637512,6.8367004-11.4268494,7.297699-18.0552979c0.3970947-5.7099609-1.3503113-9.1861572-3.2003174-12.8664856
			c-0.3945007-0.7847595-0.8023987-1.5962219-1.1856689-2.427948C72.3880157,10.2448425,70.5887299,9.6072388,69.3257294,9.6071167
			L69.3257294,9.6071167z"/>
	</g>
	<line class="st4" x1="67.9019089" y1="9.9992323" x2="67.9019089" y2="6.8233566"/>
	<path class="st5" d="M66.9837799,11.25c0,0-2.625,2.625-4.125,8.125c-1.1908913,4.3665981-2.375,8.125-0.5,14
		c1.4061852,4.4060478,4.875,12,4.875,12"/>
	<path class="st5" d="M67.8587799,45.375c0,0-3.375-12.375-3.5-18.125s3.375-15.75,3.375-15.75"/>
	<path class="st6" d="M69.0973587,13.6923285c-0.0380173-0.7639484-0.1403427-1.4986839-0.2991486-2.2009306
		c-0.2943192-1.3015442-1.6247482-1.8829994-2.7774811-1.2101612c-4.3193359,2.521163-7.2462044,7.6920872-6.9768982,13.1037388
		c0.0793495,1.5945148,0.438839,3.0617657,1.007267,4.3719482C65.4714966,25.8482609,69.4077225,19.9301739,69.0973587,13.6923285z"
		/>
	<path class="st7" d="M67.7115021,10.1399765c-0.5097504-0.2151937-1.1214752-0.1910067-1.6907272,0.1412382
		c-4.3193626,2.5211926-7.2462692,7.6920977-6.9769096,13.1037512c0.0793114,1.5944939,0.4388161,3.0617886,1.0072212,4.371912
		c0.0095749-0.0033665,0.0186653-0.0080738,0.0282402-0.0114403L67.7115021,10.1399765z"/>
	<path class="st5" d="M69.6087799,45.375c0,0,3.343811-7.5939522,4.75-12c1.875-5.875,0.6908875-9.6334019-0.5-14
		c-1.5-5.5-3.09375-7.28125-3.5-7.625c-0.3846664-0.3254843-1.03125-0.59375-1.46875-0.34375"/>
	<path class="st5" d="M68.9837799,11.5c0,0,3.5,10,3.375,15.75s-3.5,18.125-3.5,18.125"/>
	<line class="st5" x1="67.7337799" y1="11.5" x2="68.3587799" y2="45.25"/>
	<path class="st5" d="M67.275444,45.4583321c0,0,0.5416641,0.8333359,1.2083359,0.7916679
		c0.6666641-0.0416679,1.125-0.875,1.125-0.875"/>
</g>
<ellipse transform="matrix(0.7070557 -0.7071579 0.7071579 0.7070557 4.5294123 16.506443)" class="st12" cx="22.1877117" cy="2.7862954" rx="0.3202108" ry="0.3202108"/>
<ellipse transform="matrix(0.3894964 -0.921028 0.921028 0.3894964 6.3143935 22.068409)" class="st14" cx="19.8038006" cy="6.271143" rx="0.3267832" ry="0.3268133"/>
<path class="st14" d="M22.642128,3.2407436c0.250988-0.2509892,0.250988-0.6579072,0-0.9088964
	c-0.2509899-0.2509894-0.6579075-0.2509894-0.9088974,0s-0.2509899,0.6579072,0,0.9088964S22.3911381,3.4917331,22.642128,3.2407436
	z M21.9612732,2.5598886c0.1250687-0.1250699,0.3278084-0.1250699,0.452879,0c0.1250687,0.1250696,0.1250687,0.3278093,0,0.4528136
	c-0.1250706,0.1251352-0.3278103,0.1251352-0.452879,0C21.8362026,2.8876979,21.8362026,2.6849582,21.9612732,2.5598886z"/>
<path class="st14" d="M22.9524555,11.2075806l0.3392105,1.0999966l0.3392849-1.0999966
	c0.0642662-0.2083817,0.2273369-0.3714533,0.4357185-0.4357195l1.0999966-0.3392839l-1.0999966-0.3392115
	c-0.2083817-0.0642662-0.3714523-0.2273378-0.4357185-0.4357195l-0.3392849-1.100069l-0.3392105,1.100069
	c-0.0642662,0.2083817-0.2274113,0.3714533-0.435791,0.4357195l-1.0999985,0.3392115l1.0999985,0.3392839
	C22.7250443,10.8361273,22.8881893,10.9991989,22.9524555,11.2075806z M23.291666,10.1191435
	c0.1731243,0,0.3134346,0.1403809,0.3134346,0.3134336c0,0.1731243-0.1403103,0.3134336-0.3134346,0.3134336
	c-0.1730518,0-0.3134327-0.1403093-0.3134327-0.3134336C22.9782333,10.2595243,23.1186142,10.1191435,23.291666,10.1191435z"/>
<circle class="st12" cx="23.291666" cy="10.4325771" r="0.3134335"/>
</svg>
