<?xml version="1.0" encoding="utf-8"?>
<!-- Generator: Adobe Illustrator 16.0.4, SVG Export Plug-In . SVG Version: 6.00 Build 0)  -->
<!DOCTYPE svg PUBLIC "-//W3C//DTD SVG 1.1//EN" "http://www.w3.org/Graphics/SVG/1.1/DTD/svg11.dtd">
<svg version="1.1" id="Layer_1" xmlns="http://www.w3.org/2000/svg" xmlns:xlink="http://www.w3.org/1999/xlink" x="0px" y="0px"
	 width="113.174px" height="113.292px" viewBox="0 0 113.174 113.292" enable-background="new 0 0 113.174 113.292"
	 xml:space="preserve">
<g id="Layer_1_1_">
	<g>
		<g>
			<g>
				<g>
					<path fill="#9B9B9B" d="M56.58,56.58L0,56.613C-0.009,41.614,5.443,28.095,15.857,17.3L56.58,56.58z"/>
				</g>
			</g>
			<g>
				<g>
					<path fill="#38B6CD" d="M56.58,56.58L15.223,95.191C4.986,84.227,0.01,71.611,0,56.613L56.58,56.58z"/>
				</g>
			</g>
			<g>
				<g>
					<path fill="#A3CD39" d="M56.58,56.58l53.799-17.516c9.675,29.713-6.571,61.643-36.284,71.314
						c-21.394,6.965-43.519,1.258-58.872-15.188L56.58,56.58z"/>
				</g>
			</g>
			<g>
				<g>
					<path fill="#F8C02C" d="M56.58,56.58L15.857,17.3C37.551-5.191,73.369-5.836,95.858,15.857
						c7.197,6.942,11.426,13.699,14.521,23.207L56.58,56.58z"/>
				</g>
			</g>
		</g>
	</g>
	<g>
		<path fill="#333333" d="M14.132,39.237h1.059v-2.781c0-0.136,0.004-0.278,0.011-0.427l-0.624,0.518
			c-0.041,0.033-0.081,0.056-0.121,0.07c-0.041,0.014-0.08,0.021-0.117,0.021c-0.066,0-0.125-0.014-0.176-0.043
			c-0.052-0.029-0.09-0.06-0.115-0.093l-0.371-0.492l1.717-1.441h0.969v4.668h0.908v0.848h-3.14V39.237z"/>
		<path fill="#333333" d="M19.845,34.512c0.272,0,0.518,0.04,0.736,0.119c0.218,0.08,0.404,0.19,0.558,0.331
			c0.154,0.141,0.272,0.31,0.354,0.505c0.082,0.196,0.123,0.411,0.123,0.645c0,0.202-0.029,0.389-0.085,0.56
			c-0.056,0.171-0.134,0.335-0.232,0.49c-0.099,0.155-0.212,0.306-0.342,0.451c-0.13,0.145-0.268,0.292-0.415,0.439l-1.078,1.105
			c0.139-0.041,0.275-0.073,0.411-0.097c0.135-0.024,0.261-0.036,0.38-0.036h1.029c0.126,0,0.226,0.035,0.299,0.104
			c0.073,0.069,0.11,0.161,0.11,0.274v0.681h-3.875v-0.378c0-0.073,0.015-0.151,0.045-0.234c0.03-0.083,0.083-0.159,0.159-0.227
			l1.589-1.601c0.136-0.136,0.255-0.266,0.355-0.39c0.101-0.124,0.184-0.245,0.25-0.365c0.065-0.12,0.115-0.24,0.147-0.359
			c0.033-0.12,0.049-0.247,0.049-0.38c0-0.22-0.053-0.388-0.157-0.505s-0.264-0.176-0.479-0.176c-0.088,0-0.169,0.013-0.242,0.038
			c-0.073,0.025-0.139,0.059-0.197,0.102s-0.108,0.093-0.149,0.151c-0.041,0.058-0.075,0.121-0.1,0.189
			c-0.041,0.114-0.092,0.196-0.153,0.246c-0.062,0.05-0.146,0.076-0.251,0.076c-0.025,0-0.053-0.001-0.082-0.004
			s-0.059-0.006-0.089-0.011l-0.621-0.11c0.041-0.275,0.118-0.515,0.233-0.719c0.115-0.204,0.257-0.375,0.427-0.511
			c0.17-0.136,0.365-0.238,0.585-0.305C19.357,34.545,19.593,34.512,19.845,34.512z"/>
		<path fill="#333333" d="M24.786,35.908c0,0.202-0.037,0.386-0.11,0.552c-0.073,0.166-0.17,0.31-0.292,0.43
			c-0.121,0.12-0.262,0.212-0.422,0.278s-0.327,0.099-0.501,0.099c-0.192,0-0.368-0.033-0.528-0.099
			c-0.16-0.065-0.299-0.158-0.416-0.278c-0.118-0.12-0.209-0.263-0.274-0.43c-0.066-0.167-0.099-0.351-0.099-0.552
			c0-0.209,0.033-0.399,0.099-0.569c0.065-0.17,0.157-0.316,0.274-0.437c0.117-0.121,0.256-0.215,0.416-0.282
			c0.16-0.067,0.336-0.101,0.528-0.101c0.191,0,0.369,0.034,0.531,0.101c0.163,0.067,0.303,0.161,0.42,0.282
			c0.118,0.121,0.209,0.267,0.274,0.437S24.786,35.699,24.786,35.908z M26.518,34.747c0.038-0.043,0.084-0.083,0.14-0.119
			c0.056-0.036,0.132-0.055,0.231-0.055h0.855l-4.154,5.346c-0.038,0.048-0.085,0.088-0.142,0.119
			c-0.057,0.032-0.125,0.047-0.207,0.047h-0.877L26.518,34.747z M23.885,35.908c0-0.128-0.011-0.235-0.032-0.32
			s-0.051-0.152-0.089-0.202c-0.038-0.051-0.083-0.086-0.134-0.105c-0.052-0.021-0.108-0.03-0.168-0.03s-0.116,0.01-0.167,0.03
			c-0.051,0.02-0.093,0.055-0.129,0.105c-0.035,0.05-0.063,0.118-0.083,0.202s-0.03,0.191-0.03,0.32c0,0.121,0.01,0.222,0.03,0.303
			s0.048,0.145,0.083,0.193c0.036,0.048,0.078,0.082,0.129,0.102c0.05,0.021,0.106,0.03,0.167,0.03s0.117-0.01,0.168-0.03
			c0.051-0.02,0.096-0.054,0.134-0.102c0.038-0.048,0.067-0.112,0.089-0.193S23.885,36.029,23.885,35.908z M27.956,38.791
			c0,0.202-0.037,0.387-0.11,0.554c-0.073,0.168-0.17,0.312-0.292,0.432c-0.121,0.12-0.262,0.212-0.422,0.278
			c-0.16,0.066-0.327,0.098-0.501,0.098c-0.192,0-0.368-0.033-0.528-0.098s-0.299-0.158-0.416-0.278
			c-0.118-0.12-0.209-0.264-0.274-0.432c-0.066-0.167-0.099-0.353-0.099-0.554c0-0.209,0.033-0.399,0.099-0.569
			c0.065-0.17,0.157-0.316,0.274-0.437s0.256-0.215,0.416-0.282s0.336-0.1,0.528-0.1c0.191,0,0.369,0.033,0.531,0.1
			c0.163,0.067,0.303,0.161,0.42,0.282c0.118,0.121,0.209,0.267,0.274,0.437C27.921,38.392,27.956,38.582,27.956,38.791z
			 M27.056,38.791c0-0.126-0.011-0.231-0.032-0.316s-0.051-0.152-0.089-0.202c-0.038-0.051-0.083-0.086-0.134-0.106
			c-0.052-0.021-0.108-0.03-0.168-0.03c-0.06,0-0.116,0.01-0.167,0.03c-0.051,0.02-0.093,0.055-0.129,0.106
			c-0.035,0.05-0.063,0.118-0.083,0.202s-0.03,0.19-0.03,0.316c0,0.121,0.01,0.222,0.03,0.303c0.02,0.081,0.048,0.146,0.083,0.193
			c0.036,0.048,0.078,0.082,0.129,0.102c0.05,0.021,0.106,0.03,0.167,0.03s0.117-0.01,0.168-0.03
			c0.051-0.02,0.096-0.054,0.134-0.102s0.067-0.112,0.089-0.193C27.046,39.013,27.056,38.912,27.056,38.791z"/>
		<path fill="#333333" d="M7.938,44.839c0.015,0.038,0.03,0.077,0.044,0.116c0.015-0.041,0.03-0.079,0.045-0.116
			c0.015-0.037,0.034-0.074,0.054-0.111l1.048-1.905c0.019-0.033,0.038-0.053,0.059-0.061c0.02-0.007,0.049-0.011,0.086-0.011h0.309
			v3.098H9.217v-2.276c0-0.03,0.001-0.063,0.002-0.097c0.001-0.035,0.003-0.07,0.006-0.106l-1.062,1.937
			c-0.036,0.065-0.086,0.097-0.151,0.097H7.953c-0.065,0-0.115-0.032-0.151-0.097l-1.085-1.944c0.004,0.038,0.007,0.074,0.009,0.11
			c0.002,0.036,0.003,0.069,0.003,0.1v2.276H6.361v-3.098h0.31c0.037,0,0.066,0.004,0.086,0.011c0.02,0.007,0.04,0.028,0.058,0.061
			l1.07,1.907C7.906,44.765,7.923,44.801,7.938,44.839z"/>
		<path fill="#333333" d="M12.888,45.85h-0.324c-0.037,0-0.067-0.009-0.091-0.028c-0.023-0.02-0.04-0.042-0.052-0.071l-0.29-0.748
			h-1.39l-0.29,0.748c-0.01,0.026-0.027,0.049-0.052,0.069c-0.024,0.02-0.055,0.03-0.091,0.03H9.985l1.239-3.098h0.426L12.888,45.85
			z M10.858,44.7h1.157l-0.486-1.261c-0.032-0.078-0.063-0.175-0.093-0.292c-0.016,0.059-0.031,0.113-0.046,0.163
			c-0.015,0.05-0.03,0.093-0.044,0.131L10.858,44.7z"/>
		<path fill="#333333" d="M13.74,44.557v1.293h-0.417v-3.098h0.875c0.196,0,0.365,0.02,0.508,0.06s0.26,0.097,0.353,0.172
			c0.093,0.075,0.162,0.166,0.207,0.271c0.045,0.106,0.067,0.224,0.067,0.355c0,0.109-0.018,0.212-0.052,0.307
			c-0.034,0.095-0.084,0.18-0.15,0.256c-0.066,0.076-0.146,0.141-0.24,0.194c-0.094,0.053-0.201,0.094-0.321,0.121
			c0.052,0.03,0.098,0.074,0.138,0.132l0.904,1.23H15.24c-0.076,0-0.132-0.029-0.168-0.089l-0.804-1.105
			c-0.024-0.035-0.051-0.061-0.08-0.075c-0.029-0.015-0.072-0.023-0.13-0.023H13.74z M13.74,44.252h0.439
			c0.123,0,0.23-0.015,0.323-0.044c0.093-0.029,0.171-0.071,0.233-0.125c0.063-0.054,0.11-0.118,0.142-0.193
			c0.032-0.075,0.048-0.158,0.048-0.249c0-0.185-0.061-0.324-0.183-0.417c-0.122-0.094-0.303-0.141-0.544-0.141H13.74V44.252z"/>
		<path fill="#333333" d="M16.524,44.11h0.158c0.055,0,0.098-0.007,0.131-0.021c0.032-0.014,0.063-0.037,0.092-0.07l1.031-1.167
			c0.032-0.036,0.062-0.062,0.092-0.077c0.029-0.015,0.067-0.023,0.113-0.023h0.357l-1.181,1.334
			c-0.03,0.033-0.059,0.062-0.085,0.084c-0.026,0.023-0.055,0.042-0.085,0.056c0.04,0.013,0.076,0.032,0.106,0.058
			c0.03,0.026,0.062,0.059,0.095,0.098l1.232,1.468h-0.363c-0.027,0-0.05-0.002-0.069-0.006c-0.019-0.004-0.035-0.01-0.049-0.018
			c-0.014-0.007-0.026-0.017-0.038-0.028c-0.011-0.012-0.023-0.024-0.034-0.037l-1.07-1.229c-0.016-0.017-0.031-0.032-0.044-0.044
			c-0.014-0.012-0.029-0.022-0.047-0.031c-0.018-0.008-0.039-0.015-0.063-0.018c-0.023-0.004-0.053-0.005-0.087-0.005h-0.19v1.418
			h-0.417v-3.098h0.417v1.357H16.524z"/>
		<path fill="#333333" d="M20.917,42.752v0.342H19.43v1.029h1.204v0.329H19.43v1.057h1.487v0.342h-1.909v-3.098L20.917,42.752
			L20.917,42.752z"/>
		<path fill="#333333" d="M23.631,42.752v0.353H22.63v2.746h-0.42v-2.746h-1.005v-0.353H23.631z"/>
		<path fill="#333333" d="M24.569,45.85H24.15v-3.098h0.419V45.85z"/>
		<path fill="#333333" d="M25.699,42.766c0.018,0.009,0.039,0.028,0.062,0.057l1.794,2.335c-0.004-0.038-0.007-0.074-0.009-0.109
			c-0.001-0.036-0.002-0.07-0.002-0.103v-2.194h0.367v3.098h-0.212c-0.033,0-0.061-0.006-0.083-0.017
			c-0.022-0.012-0.044-0.031-0.066-0.059l-1.792-2.333c0.003,0.036,0.005,0.071,0.007,0.106c0.001,0.034,0.002,0.066,0.002,0.095
			v2.208h-0.368v-3.098h0.216C25.653,42.752,25.681,42.757,25.699,42.766z"/>
		<path fill="#333333" d="M30.049,45.545c0.083,0,0.16-0.004,0.23-0.012c0.07-0.008,0.136-0.02,0.198-0.036s0.121-0.035,0.175-0.057
			c0.054-0.022,0.109-0.048,0.164-0.077V44.68h-0.48c-0.027,0-0.049-0.008-0.066-0.024c-0.017-0.016-0.024-0.035-0.024-0.059V44.36
			h0.951v1.189c-0.078,0.056-0.159,0.105-0.243,0.147s-0.175,0.077-0.271,0.104c-0.096,0.028-0.199,0.049-0.308,0.063
			c-0.109,0.014-0.229,0.021-0.356,0.021c-0.225,0-0.431-0.039-0.619-0.116c-0.187-0.077-0.349-0.185-0.484-0.324
			c-0.136-0.139-0.241-0.306-0.317-0.5c-0.076-0.195-0.114-0.409-0.114-0.642c0-0.236,0.037-0.452,0.111-0.646
			c0.074-0.194,0.18-0.361,0.318-0.5c0.138-0.139,0.304-0.247,0.5-0.323c0.195-0.076,0.414-0.115,0.656-0.115
			c0.123,0,0.236,0.009,0.341,0.027s0.203,0.044,0.293,0.078c0.09,0.034,0.173,0.075,0.25,0.124
			c0.076,0.048,0.147,0.103,0.214,0.163l-0.119,0.19c-0.025,0.039-0.057,0.059-0.095,0.059c-0.023,0-0.048-0.008-0.076-0.024
			c-0.036-0.02-0.077-0.044-0.121-0.073c-0.045-0.029-0.099-0.057-0.163-0.083c-0.064-0.026-0.14-0.049-0.227-0.068
			c-0.087-0.019-0.191-0.028-0.311-0.028c-0.174,0-0.332,0.029-0.473,0.085c-0.142,0.057-0.262,0.139-0.361,0.245
			c-0.099,0.105-0.176,0.234-0.229,0.385c-0.053,0.15-0.08,0.319-0.08,0.507c0,0.196,0.028,0.371,0.083,0.524
			c0.055,0.153,0.133,0.283,0.234,0.39c0.101,0.106,0.221,0.188,0.359,0.244C29.727,45.519,29.882,45.545,30.049,45.545z"/>
		<path fill="#333333" d="M33.727,42.717c0.114,0,0.218,0.019,0.312,0.055c0.094,0.037,0.175,0.085,0.243,0.146
			c0.068,0.061,0.123,0.131,0.162,0.211s0.062,0.163,0.068,0.25l-0.24,0.048c-0.007,0.001-0.014,0.002-0.02,0.002
			c-0.019,0-0.036-0.005-0.053-0.015c-0.017-0.01-0.029-0.028-0.036-0.054c-0.01-0.037-0.026-0.076-0.049-0.117
			c-0.022-0.04-0.051-0.077-0.086-0.11c-0.036-0.033-0.078-0.061-0.127-0.083c-0.05-0.021-0.108-0.032-0.174-0.032
			c-0.072,0-0.137,0.012-0.194,0.035c-0.057,0.023-0.107,0.055-0.148,0.096c-0.041,0.041-0.073,0.089-0.095,0.145
			s-0.034,0.116-0.034,0.181c0,0.05,0.006,0.099,0.019,0.145c0.012,0.046,0.03,0.092,0.055,0.139
			c0.024,0.047,0.056,0.095,0.095,0.145c0.039,0.05,0.086,0.102,0.141,0.157l0.891,0.906c0.055-0.097,0.099-0.198,0.131-0.304
			c0.033-0.106,0.055-0.212,0.066-0.319c0.003-0.027,0.012-0.049,0.026-0.065c0.015-0.016,0.035-0.024,0.061-0.024h0.238
			c-0.003,0.166-0.029,0.329-0.08,0.489c-0.05,0.16-0.123,0.31-0.218,0.45l0.649,0.657h-0.372c-0.042,0-0.076-0.005-0.102-0.015
			c-0.026-0.01-0.055-0.031-0.086-0.062l-0.312-0.313c-0.135,0.131-0.292,0.235-0.468,0.311c-0.177,0.077-0.371,0.115-0.583,0.115
			c-0.115,0-0.228-0.02-0.339-0.059c-0.111-0.039-0.21-0.095-0.297-0.169c-0.087-0.074-0.158-0.165-0.211-0.271
			c-0.053-0.106-0.08-0.227-0.08-0.361c0-0.101,0.017-0.196,0.051-0.287c0.034-0.09,0.081-0.173,0.141-0.25
			c0.06-0.077,0.131-0.145,0.213-0.206c0.082-0.061,0.172-0.112,0.27-0.156c-0.088-0.111-0.152-0.219-0.194-0.324
			s-0.062-0.214-0.062-0.326c0-0.105,0.019-0.204,0.057-0.296c0.038-0.092,0.093-0.172,0.166-0.241
			c0.072-0.068,0.159-0.123,0.263-0.162C33.483,42.737,33.598,42.717,33.727,42.717z M32.868,44.994
			c0,0.094,0.018,0.176,0.052,0.248c0.034,0.072,0.08,0.131,0.136,0.18c0.056,0.049,0.12,0.086,0.192,0.111
			c0.072,0.025,0.146,0.038,0.22,0.038c0.162,0,0.306-0.03,0.435-0.089c0.129-0.059,0.242-0.138,0.339-0.235l-0.914-0.923
			c-0.153,0.082-0.268,0.181-0.345,0.295C32.907,44.733,32.868,44.858,32.868,44.994z"/>
		<path fill="#333333" d="M8.327,48.517v0.342H6.839v1.083H8.11v0.342H6.839v1.332H6.417v-3.098L8.327,48.517L8.327,48.517z"/>
		<path fill="#333333" d="M10.069,51.282c0.128,0,0.243-0.021,0.344-0.065c0.101-0.043,0.186-0.104,0.256-0.182
			c0.07-0.078,0.124-0.17,0.16-0.279c0.037-0.108,0.055-0.227,0.055-0.356v-1.883h0.417V50.4c0,0.179-0.028,0.344-0.085,0.497
			c-0.057,0.153-0.138,0.285-0.244,0.397c-0.106,0.111-0.235,0.199-0.388,0.262s-0.324,0.095-0.514,0.095s-0.362-0.032-0.515-0.095
			c-0.153-0.063-0.283-0.151-0.389-0.262c-0.107-0.112-0.188-0.244-0.246-0.397c-0.057-0.153-0.085-0.318-0.085-0.497v-1.883h0.417
			v1.881c0,0.13,0.019,0.249,0.055,0.357c0.037,0.108,0.09,0.201,0.16,0.279c0.07,0.078,0.156,0.139,0.257,0.183
			S9.941,51.282,10.069,51.282z"/>
		<path fill="#333333" d="M12.321,48.531c0.018,0.009,0.039,0.028,0.062,0.057l1.794,2.335c-0.004-0.038-0.007-0.074-0.009-0.109
			c-0.001-0.036-0.002-0.07-0.002-0.103v-2.194h0.367v3.098h-0.212c-0.033,0-0.061-0.006-0.083-0.017
			c-0.022-0.012-0.044-0.031-0.066-0.059l-1.792-2.333c0.003,0.036,0.005,0.071,0.007,0.106c0.001,0.034,0.002,0.066,0.002,0.095
			v2.208h-0.368v-3.098h0.216C12.275,48.517,12.303,48.522,12.321,48.531z"/>
		<path fill="#333333" d="M17.975,50.067c0,0.232-0.037,0.443-0.11,0.633c-0.074,0.19-0.177,0.353-0.312,0.489
			c-0.134,0.135-0.295,0.24-0.482,0.314c-0.188,0.074-0.395,0.111-0.623,0.111H15.29v-3.098h1.159c0.228,0,0.435,0.037,0.623,0.111
			c0.187,0.074,0.348,0.18,0.482,0.316c0.134,0.136,0.238,0.299,0.312,0.49C17.938,49.624,17.975,49.835,17.975,50.067z
			 M17.545,50.067c0-0.19-0.026-0.36-0.078-0.51c-0.052-0.15-0.125-0.277-0.221-0.38c-0.095-0.104-0.21-0.183-0.346-0.238
			c-0.136-0.055-0.286-0.083-0.452-0.083h-0.737v2.419h0.737c0.166,0,0.316-0.027,0.452-0.082c0.135-0.055,0.251-0.134,0.346-0.237
			c0.095-0.103,0.169-0.229,0.221-0.379C17.519,50.427,17.545,50.257,17.545,50.067z"/>
		<path fill="#333333" d="M19.006,50.322v1.293h-0.417v-3.098h0.875c0.196,0,0.365,0.02,0.508,0.06s0.26,0.097,0.353,0.172
			c0.093,0.075,0.162,0.166,0.207,0.271c0.045,0.106,0.067,0.224,0.067,0.355c0,0.109-0.018,0.212-0.052,0.307
			c-0.034,0.095-0.084,0.18-0.15,0.256s-0.146,0.141-0.24,0.194c-0.094,0.053-0.201,0.094-0.321,0.121
			c0.052,0.03,0.098,0.074,0.138,0.132l0.904,1.23h-0.372c-0.076,0-0.132-0.029-0.168-0.089l-0.804-1.106
			c-0.024-0.035-0.051-0.06-0.08-0.075c-0.029-0.015-0.072-0.022-0.13-0.022H19.006z M19.006,50.018h0.439
			c0.123,0,0.23-0.015,0.323-0.044c0.093-0.029,0.171-0.071,0.233-0.125c0.063-0.054,0.11-0.118,0.142-0.193
			c0.032-0.075,0.048-0.158,0.048-0.249c0-0.185-0.061-0.324-0.183-0.417c-0.122-0.094-0.303-0.141-0.544-0.141h-0.458V50.018z"/>
		<path fill="#333333" d="M23.879,51.615h-0.324c-0.037,0-0.067-0.009-0.091-0.028c-0.023-0.019-0.04-0.042-0.052-0.071l-0.29-0.748
			h-1.39l-0.29,0.748c-0.01,0.026-0.027,0.049-0.052,0.069c-0.024,0.02-0.055,0.03-0.091,0.03h-0.324l1.239-3.098h0.426
			L23.879,51.615z M21.849,50.465h1.157l-0.486-1.261c-0.032-0.078-0.063-0.175-0.093-0.292c-0.016,0.059-0.031,0.113-0.046,0.163
			c-0.015,0.05-0.03,0.093-0.044,0.131L21.849,50.465z"/>
		<path fill="#333333" d="M24.768,51.615h-0.419v-3.098h0.419V51.615z"/>
		<path fill="#333333" d="M27.185,49.001c-0.013,0.021-0.026,0.038-0.041,0.049c-0.014,0.011-0.033,0.016-0.056,0.016
			c-0.024,0-0.053-0.012-0.085-0.037c-0.032-0.025-0.073-0.052-0.123-0.081c-0.05-0.03-0.11-0.057-0.18-0.081
			c-0.07-0.025-0.154-0.037-0.254-0.037c-0.094,0-0.177,0.013-0.249,0.038c-0.072,0.025-0.132,0.06-0.181,0.103
			c-0.048,0.043-0.084,0.094-0.109,0.152c-0.025,0.059-0.037,0.122-0.037,0.189c0,0.086,0.021,0.158,0.064,0.215
			c0.042,0.057,0.099,0.105,0.168,0.146s0.149,0.075,0.238,0.105c0.089,0.029,0.18,0.06,0.272,0.092
			c0.093,0.032,0.184,0.067,0.272,0.107c0.088,0.04,0.168,0.09,0.238,0.15c0.07,0.06,0.126,0.135,0.168,0.223
			c0.042,0.088,0.064,0.196,0.064,0.324c0,0.135-0.023,0.263-0.069,0.381c-0.046,0.119-0.113,0.223-0.202,0.311
			c-0.088,0.088-0.197,0.157-0.326,0.208c-0.129,0.051-0.276,0.076-0.44,0.076c-0.201,0-0.383-0.037-0.548-0.109
			c-0.165-0.072-0.306-0.171-0.422-0.295l0.121-0.199c0.011-0.016,0.025-0.029,0.042-0.04c0.017-0.011,0.035-0.017,0.055-0.017
			c0.03,0,0.065,0.017,0.104,0.049c0.039,0.032,0.087,0.068,0.146,0.107s0.129,0.075,0.212,0.107
			c0.083,0.033,0.184,0.049,0.304,0.049c0.1,0,0.188-0.014,0.266-0.041c0.078-0.027,0.144-0.066,0.198-0.116
			c0.054-0.05,0.096-0.109,0.125-0.178c0.029-0.069,0.043-0.146,0.043-0.231c0-0.094-0.021-0.17-0.063-0.23
			c-0.043-0.06-0.099-0.11-0.168-0.15c-0.069-0.041-0.148-0.075-0.236-0.103c-0.089-0.028-0.18-0.057-0.272-0.086
			c-0.093-0.029-0.184-0.063-0.272-0.103c-0.089-0.039-0.167-0.089-0.237-0.151c-0.07-0.062-0.125-0.139-0.167-0.232
			c-0.042-0.093-0.064-0.208-0.064-0.345c0-0.109,0.021-0.215,0.064-0.318c0.042-0.102,0.104-0.193,0.185-0.272
			s0.181-0.143,0.3-0.19c0.119-0.048,0.255-0.072,0.41-0.072c0.173,0,0.331,0.028,0.473,0.083c0.143,0.055,0.268,0.134,0.374,0.238
			L27.185,49.001z"/>
		<path fill="#333333" d="M28.387,51.615h-0.419v-3.098h0.419V51.615z"/>
		<path fill="#333333" d="M29.516,48.531c0.018,0.009,0.039,0.028,0.062,0.057l1.794,2.335c-0.004-0.038-0.007-0.074-0.009-0.109
			c-0.001-0.036-0.002-0.07-0.002-0.103v-2.194h0.367v3.098h-0.212c-0.033,0-0.061-0.006-0.083-0.017
			c-0.022-0.012-0.044-0.031-0.066-0.059l-1.792-2.333c0.003,0.036,0.005,0.071,0.007,0.106c0.001,0.034,0.002,0.066,0.002,0.095
			v2.208h-0.368v-3.098h0.216C29.47,48.517,29.498,48.522,29.516,48.531z"/>
		<path fill="#333333" d="M33.867,51.311c0.083,0,0.16-0.004,0.23-0.012c0.07-0.008,0.136-0.02,0.198-0.036
			c0.062-0.016,0.121-0.035,0.175-0.057c0.054-0.022,0.109-0.048,0.164-0.077v-0.683h-0.48c-0.027,0-0.049-0.008-0.066-0.024
			c-0.017-0.016-0.024-0.035-0.024-0.059v-0.238h0.951v1.189c-0.078,0.056-0.159,0.105-0.243,0.147s-0.175,0.077-0.271,0.104
			c-0.096,0.028-0.199,0.049-0.308,0.063c-0.109,0.014-0.229,0.021-0.356,0.021c-0.225,0-0.431-0.039-0.619-0.116
			c-0.187-0.077-0.349-0.185-0.484-0.324c-0.136-0.139-0.241-0.306-0.317-0.5c-0.076-0.195-0.114-0.409-0.114-0.642
			c0-0.236,0.037-0.452,0.111-0.646c0.074-0.194,0.18-0.361,0.318-0.5c0.138-0.139,0.304-0.247,0.5-0.323
			c0.195-0.076,0.414-0.115,0.656-0.115c0.123,0,0.236,0.009,0.341,0.027c0.105,0.018,0.203,0.044,0.293,0.078
			c0.09,0.034,0.173,0.075,0.25,0.124c0.076,0.048,0.147,0.103,0.214,0.163l-0.119,0.19c-0.025,0.039-0.057,0.059-0.095,0.059
			c-0.023,0-0.048-0.008-0.076-0.024c-0.036-0.02-0.077-0.044-0.121-0.073c-0.045-0.029-0.099-0.057-0.163-0.083
			s-0.14-0.049-0.227-0.068s-0.191-0.028-0.311-0.028c-0.174,0-0.332,0.029-0.473,0.085c-0.142,0.057-0.262,0.139-0.361,0.245
			s-0.176,0.234-0.229,0.385c-0.053,0.15-0.08,0.319-0.08,0.507c0,0.196,0.028,0.371,0.083,0.524
			c0.055,0.153,0.133,0.283,0.234,0.39c0.101,0.106,0.221,0.188,0.359,0.244C33.545,51.284,33.7,51.311,33.867,51.311z"/>
	</g>
	<g>
		<path fill="#333333" d="M14.132,64.571h1.059v-2.78c0-0.137,0.004-0.278,0.011-0.428l-0.624,0.518
			c-0.041,0.033-0.081,0.057-0.121,0.07c-0.041,0.014-0.08,0.021-0.117,0.021c-0.066,0-0.125-0.014-0.176-0.043
			c-0.052-0.029-0.09-0.061-0.115-0.094l-0.371-0.492l1.717-1.44h0.969v4.668h0.908v0.849h-3.14V64.571z"/>
		<path fill="#333333" d="M19.845,59.846c0.272,0,0.518,0.04,0.736,0.118c0.218,0.08,0.404,0.191,0.558,0.332
			c0.154,0.141,0.272,0.31,0.354,0.504c0.082,0.197,0.123,0.412,0.123,0.646c0,0.202-0.029,0.39-0.085,0.56
			c-0.056,0.172-0.134,0.336-0.232,0.49c-0.099,0.155-0.212,0.307-0.342,0.451s-0.268,0.293-0.415,0.44l-1.078,1.104
			c0.139-0.041,0.275-0.072,0.411-0.097c0.135-0.024,0.261-0.036,0.38-0.036h1.029c0.126,0,0.226,0.035,0.299,0.104
			c0.073,0.07,0.11,0.162,0.11,0.274v0.681h-3.875v-0.377c0-0.074,0.015-0.151,0.045-0.234c0.03-0.083,0.083-0.159,0.159-0.227
			l1.589-1.602c0.136-0.137,0.255-0.266,0.355-0.391c0.101-0.123,0.184-0.244,0.25-0.364c0.065-0.12,0.115-0.24,0.147-0.358
			c0.033-0.121,0.049-0.248,0.049-0.381c0-0.22-0.053-0.388-0.157-0.505s-0.264-0.177-0.479-0.177c-0.088,0-0.169,0.014-0.242,0.039
			c-0.073,0.025-0.139,0.059-0.197,0.102s-0.108,0.094-0.149,0.15c-0.041,0.059-0.075,0.121-0.1,0.189
			c-0.041,0.114-0.092,0.196-0.153,0.246c-0.062,0.051-0.146,0.076-0.251,0.076c-0.025,0-0.053-0.001-0.082-0.004
			s-0.059-0.006-0.089-0.012l-0.621-0.109c0.041-0.275,0.118-0.516,0.233-0.719c0.115-0.204,0.257-0.375,0.427-0.512
			c0.17-0.135,0.365-0.238,0.585-0.305C19.357,59.878,19.593,59.846,19.845,59.846z"/>
		<path fill="#333333" d="M24.786,61.242c0,0.202-0.037,0.387-0.11,0.553c-0.073,0.166-0.17,0.31-0.292,0.43
			c-0.121,0.119-0.262,0.212-0.422,0.277c-0.16,0.066-0.327,0.1-0.501,0.1c-0.192,0-0.368-0.033-0.528-0.1
			c-0.16-0.064-0.299-0.158-0.416-0.277c-0.118-0.12-0.209-0.264-0.274-0.43c-0.066-0.168-0.099-0.352-0.099-0.553
			c0-0.209,0.033-0.398,0.099-0.568c0.065-0.17,0.157-0.316,0.274-0.438c0.117-0.121,0.256-0.215,0.416-0.281
			c0.16-0.067,0.336-0.102,0.528-0.102c0.191,0,0.369,0.034,0.531,0.102c0.163,0.066,0.303,0.16,0.42,0.281
			c0.118,0.121,0.209,0.268,0.274,0.438S24.786,61.033,24.786,61.242z M26.518,60.08c0.038-0.043,0.084-0.082,0.14-0.119
			c0.056-0.035,0.132-0.055,0.231-0.055h0.855l-4.154,5.346c-0.038,0.049-0.085,0.088-0.142,0.119
			c-0.057,0.032-0.125,0.047-0.207,0.047h-0.877L26.518,60.08z M23.885,61.242c0-0.127-0.011-0.234-0.032-0.32
			c-0.021-0.084-0.051-0.151-0.089-0.201c-0.038-0.051-0.083-0.086-0.134-0.105c-0.052-0.021-0.108-0.031-0.168-0.031
			s-0.116,0.01-0.167,0.031c-0.051,0.02-0.093,0.055-0.129,0.105c-0.035,0.05-0.063,0.117-0.083,0.201s-0.03,0.191-0.03,0.32
			c0,0.121,0.01,0.223,0.03,0.303c0.02,0.082,0.048,0.146,0.083,0.193c0.036,0.049,0.078,0.082,0.129,0.102
			c0.05,0.021,0.106,0.031,0.167,0.031s0.117-0.011,0.168-0.031c0.051-0.02,0.096-0.053,0.134-0.102
			c0.038-0.048,0.067-0.111,0.089-0.193C23.875,61.464,23.885,61.363,23.885,61.242z M27.956,64.125c0,0.203-0.037,0.388-0.11,0.555
			c-0.073,0.168-0.17,0.312-0.292,0.432c-0.121,0.12-0.262,0.213-0.422,0.278c-0.16,0.065-0.327,0.098-0.501,0.098
			c-0.192,0-0.368-0.032-0.528-0.098s-0.299-0.158-0.416-0.278c-0.118-0.119-0.209-0.264-0.274-0.432
			c-0.066-0.167-0.099-0.354-0.099-0.555c0-0.209,0.033-0.398,0.099-0.568c0.065-0.17,0.157-0.316,0.274-0.438
			s0.256-0.215,0.416-0.281c0.16-0.067,0.336-0.101,0.528-0.101c0.191,0,0.369,0.033,0.531,0.101c0.163,0.066,0.303,0.16,0.42,0.281
			c0.118,0.121,0.209,0.268,0.274,0.438S27.956,63.916,27.956,64.125z M27.056,64.125c0-0.125-0.011-0.23-0.032-0.315
			s-0.051-0.151-0.089-0.202s-0.083-0.086-0.134-0.105c-0.052-0.021-0.108-0.03-0.168-0.03c-0.06,0-0.116,0.01-0.167,0.03
			c-0.051,0.02-0.093,0.055-0.129,0.105c-0.035,0.051-0.063,0.118-0.083,0.202s-0.03,0.19-0.03,0.315c0,0.121,0.01,0.223,0.03,0.303
			c0.02,0.082,0.048,0.146,0.083,0.193c0.036,0.049,0.078,0.082,0.129,0.103c0.05,0.021,0.106,0.03,0.167,0.03
			s0.117-0.01,0.168-0.03c0.051-0.021,0.096-0.054,0.134-0.103c0.038-0.047,0.067-0.111,0.089-0.193
			C27.046,64.347,27.056,64.246,27.056,64.125z"/>
		<path fill="#333333" d="M12.006,68.57c-0.013,0.021-0.026,0.038-0.041,0.049c-0.014,0.012-0.033,0.016-0.056,0.016
			c-0.024,0-0.053-0.012-0.085-0.036c-0.032-0.024-0.073-0.052-0.123-0.081c-0.05-0.03-0.11-0.057-0.18-0.081
			s-0.154-0.037-0.254-0.037c-0.094,0-0.177,0.013-0.249,0.038c-0.072,0.025-0.132,0.061-0.181,0.104
			c-0.048,0.043-0.084,0.094-0.109,0.151c-0.025,0.06-0.037,0.122-0.037,0.188c0,0.086,0.021,0.158,0.064,0.216
			c0.042,0.057,0.099,0.104,0.168,0.146c0.069,0.041,0.149,0.075,0.238,0.105c0.089,0.029,0.18,0.061,0.272,0.092
			c0.093,0.032,0.184,0.066,0.272,0.107c0.088,0.039,0.168,0.09,0.238,0.149c0.07,0.06,0.126,0.136,0.168,0.224
			s0.064,0.195,0.064,0.324c0,0.135-0.023,0.262-0.069,0.381s-0.113,0.223-0.202,0.311c-0.088,0.088-0.197,0.156-0.326,0.208
			c-0.129,0.051-0.276,0.075-0.44,0.075c-0.201,0-0.383-0.036-0.548-0.108c-0.165-0.071-0.306-0.171-0.422-0.295l0.121-0.198
			c0.011-0.017,0.025-0.029,0.042-0.041c0.017-0.011,0.035-0.017,0.055-0.017c0.03,0,0.065,0.017,0.104,0.049
			c0.039,0.032,0.087,0.067,0.146,0.106c0.059,0.039,0.129,0.076,0.212,0.107c0.083,0.033,0.184,0.049,0.304,0.049
			c0.1,0,0.188-0.014,0.266-0.041s0.144-0.065,0.198-0.115c0.054-0.051,0.096-0.109,0.125-0.178c0.029-0.07,0.043-0.146,0.043-0.231
			c0-0.095-0.021-0.171-0.063-0.229c-0.043-0.061-0.099-0.111-0.168-0.15c-0.069-0.041-0.148-0.075-0.236-0.104
			c-0.089-0.027-0.18-0.057-0.272-0.086c-0.093-0.029-0.184-0.062-0.272-0.104c-0.089-0.039-0.167-0.088-0.237-0.15
			c-0.07-0.062-0.125-0.139-0.167-0.232c-0.042-0.092-0.064-0.207-0.064-0.344c0-0.109,0.021-0.216,0.064-0.318
			c0.042-0.103,0.104-0.193,0.185-0.272c0.081-0.079,0.181-0.144,0.3-0.19s0.255-0.072,0.41-0.072c0.173,0,0.331,0.029,0.473,0.084
			c0.143,0.055,0.268,0.134,0.374,0.238L12.006,68.57z"/>
		<path fill="#333333" d="M14.821,68.085v0.353H13.82v2.746H13.4v-2.746h-1.005v-0.353H14.821z"/>
		<path fill="#333333" d="M15.722,69.891v1.293h-0.417v-3.099h0.875c0.196,0,0.365,0.021,0.508,0.061s0.26,0.098,0.353,0.172
			c0.093,0.075,0.162,0.166,0.207,0.271s0.067,0.224,0.067,0.354c0,0.108-0.018,0.212-0.052,0.308
			c-0.034,0.095-0.084,0.18-0.15,0.256c-0.066,0.076-0.146,0.141-0.24,0.193c-0.094,0.053-0.201,0.094-0.321,0.121
			c0.052,0.03,0.098,0.074,0.138,0.133l0.904,1.229h-0.372c-0.076,0-0.132-0.028-0.168-0.089L16.25,69.99
			c-0.024-0.035-0.051-0.061-0.08-0.076c-0.029-0.015-0.072-0.022-0.13-0.022H15.722z M15.722,69.585h0.439
			c0.123,0,0.23-0.015,0.323-0.043c0.093-0.029,0.171-0.071,0.233-0.125c0.063-0.055,0.11-0.119,0.142-0.193
			c0.032-0.075,0.048-0.158,0.048-0.249c0-0.185-0.061-0.324-0.183-0.417c-0.122-0.094-0.303-0.141-0.544-0.141h-0.458V69.585z"/>
		<path fill="#333333" d="M20.595,71.184h-0.324c-0.037,0-0.067-0.009-0.091-0.028c-0.023-0.019-0.04-0.041-0.052-0.07l-0.29-0.748
			h-1.39l-0.29,0.748c-0.01,0.025-0.027,0.049-0.052,0.068c-0.024,0.02-0.055,0.03-0.091,0.03h-0.324l1.239-3.099h0.426
			L20.595,71.184z M18.565,70.035h1.157l-0.486-1.262c-0.032-0.078-0.063-0.175-0.093-0.292c-0.016,0.06-0.031,0.112-0.046,0.163
			c-0.015,0.05-0.03,0.093-0.044,0.131L18.565,70.035z"/>
		<path fill="#333333" d="M22.811,68.085v0.353H21.81v2.746h-0.419v-2.746h-1.005v-0.353H22.811z"/>
		<path fill="#333333" d="M25.161,68.085v0.342h-1.487v1.029h1.204v0.328h-1.204v1.057h1.487v0.343h-1.909v-3.099H25.161
			L25.161,68.085z"/>
		<path fill="#333333" d="M27.146,70.878c0.083,0,0.16-0.004,0.23-0.012s0.136-0.02,0.198-0.035
			c0.062-0.017,0.121-0.035,0.175-0.058s0.109-0.048,0.164-0.077v-0.683h-0.48c-0.027,0-0.049-0.009-0.066-0.024
			c-0.017-0.016-0.024-0.035-0.024-0.059v-0.238h0.951v1.189c-0.078,0.056-0.159,0.104-0.243,0.146s-0.175,0.077-0.271,0.104
			c-0.096,0.029-0.199,0.05-0.308,0.063c-0.109,0.015-0.229,0.021-0.356,0.021c-0.225,0-0.431-0.039-0.619-0.115
			c-0.187-0.077-0.349-0.186-0.484-0.324c-0.136-0.139-0.241-0.306-0.317-0.5c-0.076-0.195-0.114-0.408-0.114-0.643
			c0-0.235,0.037-0.451,0.111-0.645c0.074-0.195,0.18-0.361,0.318-0.5c0.138-0.14,0.304-0.248,0.5-0.324
			c0.195-0.076,0.414-0.115,0.656-0.115c0.123,0,0.236,0.01,0.341,0.027c0.105,0.019,0.203,0.045,0.293,0.078
			c0.09,0.034,0.173,0.075,0.25,0.125c0.076,0.047,0.147,0.102,0.214,0.162l-0.119,0.189c-0.025,0.039-0.057,0.06-0.095,0.06
			c-0.023,0-0.048-0.008-0.076-0.024c-0.036-0.02-0.077-0.043-0.121-0.072c-0.045-0.029-0.099-0.057-0.163-0.083
			s-0.14-0.05-0.227-0.068s-0.191-0.028-0.311-0.028c-0.174,0-0.332,0.029-0.473,0.086c-0.142,0.057-0.262,0.139-0.361,0.244
			c-0.099,0.105-0.176,0.234-0.229,0.385c-0.053,0.15-0.08,0.32-0.08,0.508c0,0.195,0.028,0.371,0.083,0.523
			c0.055,0.153,0.133,0.283,0.234,0.391c0.101,0.105,0.221,0.188,0.359,0.244C26.824,70.852,26.979,70.878,27.146,70.878z"/>
		<path fill="#333333" d="M30.131,69.951v1.232h-0.417v-1.232l-1.135-1.865h0.368c0.038,0,0.067,0.01,0.089,0.027
			c0.021,0.02,0.04,0.043,0.056,0.069l0.709,1.204c0.029,0.05,0.053,0.098,0.072,0.143c0.02,0.045,0.037,0.088,0.053,0.133
			c0.016-0.045,0.033-0.09,0.052-0.135c0.019-0.044,0.042-0.091,0.071-0.14l0.707-1.204c0.013-0.023,0.031-0.045,0.053-0.066
			c0.022-0.021,0.052-0.031,0.088-0.031h0.372L30.131,69.951z"/>
		<path fill="#333333" d="M12.237,73.816c0.114,0,0.218,0.02,0.312,0.055c0.094,0.037,0.175,0.086,0.243,0.146
			s0.123,0.131,0.162,0.211s0.062,0.163,0.068,0.25l-0.24,0.048c-0.007,0.001-0.014,0.002-0.02,0.002
			c-0.019,0-0.036-0.005-0.053-0.015s-0.029-0.028-0.036-0.055c-0.01-0.037-0.026-0.076-0.049-0.117
			c-0.022-0.039-0.051-0.076-0.086-0.109c-0.036-0.033-0.078-0.061-0.127-0.083c-0.05-0.021-0.108-0.032-0.174-0.032
			c-0.072,0-0.137,0.012-0.194,0.035s-0.107,0.055-0.148,0.096s-0.073,0.09-0.095,0.146s-0.034,0.116-0.034,0.181
			c0,0.051,0.006,0.1,0.019,0.145c0.012,0.047,0.03,0.093,0.055,0.14c0.024,0.047,0.056,0.095,0.095,0.146
			c0.039,0.05,0.086,0.102,0.141,0.156l0.891,0.906c0.055-0.098,0.099-0.197,0.131-0.304c0.033-0.106,0.055-0.212,0.066-0.319
			c0.003-0.027,0.012-0.049,0.026-0.064c0.015-0.017,0.035-0.024,0.061-0.024h0.238c-0.003,0.166-0.029,0.329-0.08,0.489
			c-0.05,0.16-0.123,0.31-0.218,0.449l0.649,0.658h-0.372c-0.042,0-0.076-0.006-0.102-0.016c-0.026-0.01-0.055-0.031-0.086-0.062
			l-0.312-0.312c-0.135,0.131-0.292,0.234-0.468,0.311c-0.177,0.078-0.371,0.115-0.583,0.115c-0.115,0-0.228-0.02-0.339-0.059
			c-0.111-0.039-0.21-0.096-0.297-0.17c-0.087-0.073-0.158-0.164-0.211-0.271c-0.053-0.106-0.08-0.228-0.08-0.36
			c0-0.102,0.017-0.196,0.051-0.287c0.034-0.09,0.081-0.174,0.141-0.25c0.06-0.078,0.131-0.146,0.213-0.207
			c0.082-0.061,0.172-0.111,0.27-0.155c-0.088-0.11-0.152-0.22-0.194-0.324s-0.062-0.214-0.062-0.325
			c0-0.105,0.019-0.205,0.057-0.297c0.038-0.092,0.093-0.172,0.166-0.24c0.072-0.068,0.159-0.123,0.263-0.162
			C11.994,73.835,12.109,73.816,12.237,73.816z M11.379,76.093c0,0.094,0.018,0.176,0.052,0.248c0.034,0.072,0.08,0.131,0.136,0.18
			c0.056,0.049,0.12,0.086,0.192,0.111c0.072,0.025,0.146,0.037,0.22,0.037c0.162,0,0.306-0.029,0.435-0.088
			c0.129-0.06,0.242-0.139,0.339-0.235l-0.914-0.923c-0.153,0.082-0.268,0.181-0.345,0.295
			C11.417,75.832,11.379,75.957,11.379,76.093z"/>
		<path fill="#333333" d="M17.746,75.401c0,0.231-0.037,0.442-0.11,0.634c-0.074,0.189-0.177,0.353-0.312,0.488
			c-0.134,0.135-0.295,0.24-0.482,0.314c-0.188,0.074-0.395,0.111-0.623,0.111H15.06V73.85h1.159c0.228,0,0.435,0.037,0.623,0.11
			c0.187,0.074,0.348,0.181,0.482,0.316c0.134,0.137,0.238,0.299,0.312,0.49C17.709,74.958,17.746,75.169,17.746,75.401z
			 M17.315,75.401c0-0.19-0.026-0.36-0.078-0.51c-0.052-0.149-0.125-0.276-0.221-0.38c-0.095-0.104-0.21-0.184-0.346-0.238
			c-0.136-0.055-0.286-0.083-0.452-0.083h-0.737v2.419h0.737c0.166,0,0.316-0.027,0.452-0.082c0.135-0.055,0.251-0.134,0.346-0.236
			c0.095-0.104,0.169-0.229,0.221-0.379C17.289,75.761,17.315,75.591,17.315,75.401z"/>
		<path fill="#333333" d="M20.226,73.851v0.342h-1.487v1.029h1.204v0.328h-1.204v1.058h1.487v0.343h-1.909v-3.099L20.226,73.851
			L20.226,73.851z"/>
		<path fill="#333333" d="M22.416,74.335c-0.013,0.021-0.026,0.037-0.041,0.049c-0.014,0.011-0.033,0.016-0.056,0.016
			c-0.024,0-0.053-0.012-0.085-0.037c-0.032-0.025-0.073-0.052-0.123-0.08c-0.05-0.031-0.11-0.058-0.18-0.082
			c-0.07-0.025-0.154-0.037-0.254-0.037c-0.094,0-0.177,0.014-0.249,0.039c-0.072,0.024-0.132,0.06-0.181,0.103
			c-0.048,0.043-0.084,0.094-0.109,0.151c-0.025,0.06-0.037,0.123-0.037,0.189c0,0.086,0.021,0.158,0.064,0.215
			c0.042,0.057,0.099,0.105,0.168,0.146s0.149,0.074,0.238,0.104c0.089,0.029,0.18,0.06,0.272,0.093
			c0.093,0.031,0.184,0.066,0.272,0.106c0.088,0.04,0.168,0.09,0.238,0.149c0.07,0.061,0.126,0.136,0.168,0.224
			s0.064,0.196,0.064,0.323c0,0.136-0.023,0.264-0.069,0.382s-0.113,0.223-0.202,0.312c-0.088,0.088-0.197,0.156-0.326,0.207
			c-0.129,0.051-0.276,0.076-0.44,0.076c-0.201,0-0.383-0.037-0.548-0.109s-0.306-0.17-0.422-0.295l0.121-0.199
			c0.011-0.016,0.025-0.028,0.042-0.039c0.017-0.012,0.035-0.018,0.055-0.018c0.03,0,0.065,0.018,0.104,0.049
			c0.039,0.032,0.087,0.068,0.146,0.107s0.129,0.075,0.212,0.107c0.083,0.033,0.184,0.049,0.304,0.049
			c0.1,0,0.188-0.014,0.266-0.041c0.078-0.027,0.144-0.066,0.198-0.116c0.054-0.05,0.096-0.108,0.125-0.179
			c0.029-0.068,0.043-0.146,0.043-0.23c0-0.094-0.021-0.17-0.063-0.23c-0.043-0.06-0.099-0.109-0.168-0.149
			c-0.069-0.041-0.148-0.075-0.236-0.103c-0.089-0.028-0.18-0.058-0.272-0.086c-0.093-0.029-0.184-0.063-0.272-0.104
			c-0.089-0.039-0.167-0.089-0.237-0.15c-0.07-0.062-0.125-0.14-0.167-0.232c-0.042-0.094-0.064-0.208-0.064-0.346
			c0-0.108,0.021-0.215,0.064-0.317c0.042-0.103,0.104-0.192,0.185-0.272c0.081-0.078,0.181-0.143,0.3-0.189
			c0.119-0.049,0.255-0.072,0.41-0.072c0.173,0,0.331,0.028,0.473,0.083c0.143,0.056,0.268,0.134,0.374,0.238L22.416,74.335z"/>
		<path fill="#333333" d="M23.618,76.949h-0.419v-3.098h0.419V76.949z"/>
		<path fill="#333333" d="M25.829,76.644c0.083,0,0.16-0.004,0.23-0.012c0.07-0.008,0.136-0.021,0.198-0.036
			c0.062-0.017,0.121-0.035,0.175-0.058c0.054-0.021,0.109-0.047,0.164-0.076v-0.684h-0.48c-0.027,0-0.049-0.008-0.066-0.023
			c-0.017-0.017-0.024-0.035-0.024-0.06v-0.237h0.951v1.188c-0.078,0.056-0.159,0.104-0.243,0.147
			c-0.084,0.041-0.175,0.076-0.271,0.104c-0.096,0.027-0.199,0.049-0.308,0.062c-0.109,0.015-0.229,0.021-0.356,0.021
			c-0.225,0-0.431-0.039-0.619-0.115c-0.187-0.078-0.349-0.186-0.484-0.324c-0.136-0.14-0.241-0.307-0.317-0.5
			c-0.076-0.195-0.114-0.41-0.114-0.643c0-0.236,0.037-0.451,0.111-0.646c0.074-0.193,0.18-0.36,0.318-0.5
			c0.138-0.139,0.304-0.246,0.5-0.322c0.195-0.076,0.414-0.115,0.656-0.115c0.123,0,0.236,0.01,0.341,0.027s0.203,0.044,0.293,0.078
			c0.09,0.033,0.173,0.074,0.25,0.123c0.076,0.049,0.147,0.104,0.214,0.164l-0.119,0.189c-0.025,0.039-0.057,0.059-0.095,0.059
			c-0.023,0-0.048-0.008-0.076-0.023c-0.036-0.02-0.077-0.044-0.121-0.073c-0.045-0.028-0.099-0.057-0.163-0.083
			c-0.064-0.025-0.14-0.049-0.227-0.068c-0.087-0.019-0.191-0.027-0.311-0.027c-0.174,0-0.332,0.029-0.473,0.085
			c-0.142,0.058-0.262,0.14-0.361,0.245s-0.176,0.234-0.229,0.385c-0.053,0.15-0.08,0.318-0.08,0.507
			c0,0.196,0.028,0.371,0.083,0.524c0.055,0.152,0.133,0.283,0.234,0.39c0.101,0.106,0.221,0.188,0.359,0.244
			C25.507,76.617,25.662,76.644,25.829,76.644z"/>
		<path fill="#333333" d="M27.921,73.865c0.018,0.01,0.039,0.028,0.062,0.057l1.794,2.336c-0.004-0.039-0.007-0.074-0.009-0.109
			c-0.001-0.036-0.002-0.07-0.002-0.104v-2.193h0.367v3.098h-0.212c-0.033,0-0.061-0.006-0.083-0.017
			c-0.022-0.013-0.044-0.031-0.066-0.06l-1.792-2.332c0.003,0.035,0.005,0.07,0.007,0.105c0.001,0.034,0.002,0.066,0.002,0.096
			v2.207h-0.368v-3.098h0.216C27.875,73.851,27.903,73.855,27.921,73.865z"/>
	</g>
	<g>
		<path fill="#333333" d="M64.538,74.611h0.568v0.658c0,0.059-0.021,0.107-0.06,0.15s-0.095,0.064-0.168,0.064h-0.341v1.268h-1.021
			v-1.268H61.3c-0.072,0-0.14-0.021-0.199-0.068c-0.059-0.045-0.097-0.102-0.111-0.17l-0.121-0.578l2.55-3.428h1.12V74.611z
			 M63.517,73.173c0-0.088,0.002-0.184,0.01-0.287c0.006-0.102,0.016-0.207,0.027-0.315l-1.457,2.04h1.418v-1.438H63.517z"/>
		<path fill="#333333" d="M67.617,71.179c0.272,0,0.515,0.039,0.727,0.115s0.392,0.181,0.537,0.312s0.257,0.283,0.333,0.456
			s0.114,0.355,0.114,0.547c0,0.174-0.019,0.327-0.054,0.459c-0.034,0.133-0.086,0.247-0.156,0.344
			c-0.07,0.098-0.155,0.18-0.258,0.248s-0.219,0.125-0.35,0.17c0.61,0.213,0.916,0.627,0.916,1.246c0,0.291-0.053,0.547-0.158,0.764
			c-0.106,0.217-0.248,0.396-0.427,0.541c-0.178,0.144-0.384,0.25-0.618,0.322c-0.236,0.072-0.479,0.108-0.734,0.108
			c-0.262,0-0.496-0.028-0.7-0.085c-0.205-0.057-0.386-0.145-0.545-0.266c-0.159-0.119-0.298-0.272-0.418-0.459
			s-0.224-0.408-0.312-0.666l0.521-0.211c0.045-0.021,0.09-0.035,0.134-0.043c0.044-0.006,0.087-0.011,0.13-0.011
			c0.081,0,0.153,0.017,0.219,0.048c0.063,0.03,0.112,0.076,0.146,0.137c0.112,0.209,0.233,0.361,0.36,0.457
			c0.127,0.095,0.277,0.142,0.449,0.142c0.131,0,0.244-0.022,0.342-0.065c0.097-0.045,0.178-0.102,0.242-0.17
			c0.063-0.07,0.112-0.148,0.146-0.236c0.032-0.088,0.049-0.178,0.049-0.27c0-0.119-0.008-0.225-0.024-0.32
			c-0.017-0.094-0.062-0.176-0.138-0.244c-0.075-0.067-0.19-0.121-0.342-0.156c-0.153-0.037-0.365-0.055-0.638-0.055v-0.811
			c0.229,0,0.414-0.018,0.556-0.053s0.25-0.084,0.327-0.146c0.076-0.062,0.128-0.137,0.152-0.225
			c0.025-0.088,0.039-0.186,0.039-0.292c0-0.218-0.054-0.384-0.158-0.501c-0.104-0.117-0.264-0.176-0.479-0.176
			c-0.088,0-0.169,0.013-0.242,0.037c-0.072,0.025-0.139,0.06-0.197,0.103c-0.058,0.043-0.107,0.093-0.148,0.151
			c-0.041,0.058-0.074,0.121-0.1,0.189c-0.041,0.113-0.092,0.195-0.153,0.245s-0.146,0.076-0.251,0.076
			c-0.025,0-0.053-0.001-0.082-0.004s-0.059-0.007-0.089-0.011l-0.621-0.11c0.041-0.274,0.118-0.515,0.233-0.72
			c0.115-0.203,0.256-0.375,0.427-0.51c0.17-0.137,0.364-0.238,0.584-0.306C67.129,71.212,67.365,71.179,67.617,71.179z"/>
		<path fill="#333333" d="M72.452,72.576c0,0.201-0.037,0.385-0.11,0.551s-0.17,0.311-0.292,0.431
			c-0.121,0.12-0.262,0.212-0.422,0.278c-0.16,0.065-0.327,0.099-0.501,0.099c-0.192,0-0.368-0.033-0.528-0.099
			s-0.299-0.158-0.416-0.278s-0.209-0.263-0.273-0.431c-0.066-0.166-0.1-0.351-0.1-0.551c0-0.209,0.033-0.4,0.1-0.57
			c0.064-0.17,0.156-0.315,0.273-0.437c0.117-0.12,0.256-0.215,0.416-0.282c0.16-0.066,0.336-0.101,0.528-0.101
			c0.19,0,0.369,0.034,0.531,0.101c0.163,0.067,0.303,0.162,0.42,0.282c0.118,0.121,0.209,0.267,0.274,0.437
			C72.417,72.175,72.452,72.367,72.452,72.576z M74.185,71.414c0.039-0.043,0.084-0.082,0.141-0.119
			c0.056-0.035,0.132-0.055,0.23-0.055h0.855l-4.154,5.346c-0.038,0.049-0.085,0.088-0.142,0.119
			c-0.058,0.032-0.125,0.047-0.207,0.047h-0.877L74.185,71.414z M71.552,72.576c0-0.129-0.011-0.236-0.031-0.32
			c-0.021-0.086-0.052-0.152-0.09-0.203c-0.037-0.051-0.082-0.086-0.134-0.105c-0.052-0.021-0.108-0.029-0.168-0.029
			s-0.116,0.01-0.167,0.029s-0.093,0.055-0.129,0.105c-0.035,0.051-0.062,0.119-0.083,0.203s-0.03,0.19-0.03,0.32
			c0,0.12,0.01,0.221,0.03,0.303c0.021,0.08,0.048,0.145,0.083,0.192c0.036,0.048,0.078,0.082,0.129,0.103s0.105,0.029,0.167,0.029
			s0.117-0.01,0.168-0.029c0.052-0.021,0.097-0.055,0.134-0.103c0.039-0.048,0.067-0.112,0.09-0.192
			C71.542,72.796,71.552,72.696,71.552,72.576z M75.623,75.458c0,0.201-0.037,0.387-0.11,0.554c-0.072,0.168-0.17,0.312-0.291,0.432
			s-0.263,0.212-0.423,0.278c-0.159,0.066-0.327,0.098-0.501,0.098c-0.191,0-0.367-0.033-0.527-0.098s-0.299-0.158-0.416-0.278
			c-0.119-0.12-0.209-0.264-0.274-0.432c-0.065-0.167-0.099-0.353-0.099-0.554c0-0.209,0.033-0.399,0.099-0.569
			c0.065-0.171,0.157-0.315,0.274-0.437s0.256-0.216,0.416-0.283c0.16-0.066,0.336-0.1,0.527-0.1s0.369,0.033,0.531,0.1
			c0.163,0.067,0.303,0.162,0.42,0.283c0.118,0.121,0.209,0.266,0.273,0.437C75.588,75.059,75.623,75.25,75.623,75.458z
			 M74.722,75.458c0-0.127-0.011-0.231-0.031-0.316c-0.021-0.085-0.051-0.152-0.09-0.202c-0.037-0.051-0.082-0.086-0.134-0.106
			s-0.108-0.029-0.168-0.029s-0.116,0.01-0.167,0.029c-0.051,0.021-0.093,0.056-0.129,0.106c-0.035,0.05-0.062,0.118-0.083,0.202
			s-0.03,0.189-0.03,0.316c0,0.121,0.01,0.222,0.03,0.303c0.021,0.08,0.048,0.145,0.083,0.193c0.036,0.047,0.078,0.082,0.129,0.102
			c0.051,0.021,0.105,0.029,0.167,0.029s0.117-0.01,0.168-0.029c0.052-0.02,0.097-0.055,0.134-0.102
			c0.039-0.049,0.067-0.113,0.09-0.193C74.712,75.68,74.722,75.58,74.722,75.458z"/>
		<path fill="#333333" d="M58.116,80.968c0,0.232-0.037,0.445-0.11,0.64s-0.177,0.36-0.312,0.5s-0.295,0.249-0.483,0.326
			c-0.188,0.077-0.396,0.114-0.624,0.114s-0.435-0.039-0.623-0.114c-0.188-0.077-0.348-0.187-0.482-0.326
			c-0.134-0.14-0.238-0.308-0.312-0.5c-0.073-0.194-0.11-0.407-0.11-0.64c0-0.231,0.037-0.444,0.11-0.639
			c0.074-0.193,0.177-0.361,0.312-0.502c0.134-0.14,0.294-0.25,0.482-0.326c0.188-0.078,0.395-0.117,0.623-0.117
			s0.436,0.039,0.624,0.117c0.188,0.078,0.349,0.187,0.483,0.326c0.134,0.141,0.238,0.309,0.312,0.502
			C58.079,80.524,58.116,80.737,58.116,80.968z M57.687,80.968c0-0.189-0.026-0.36-0.078-0.512c-0.053-0.15-0.125-0.278-0.221-0.383
			c-0.096-0.105-0.211-0.186-0.347-0.242c-0.136-0.056-0.287-0.084-0.454-0.084c-0.166,0-0.316,0.028-0.452,0.084
			c-0.136,0.057-0.251,0.137-0.347,0.242c-0.096,0.104-0.169,0.231-0.222,0.383c-0.052,0.151-0.078,0.322-0.078,0.512
			c0,0.191,0.026,0.361,0.078,0.512c0.052,0.15,0.126,0.277,0.222,0.383c0.096,0.105,0.211,0.186,0.347,0.24
			c0.135,0.057,0.286,0.083,0.452,0.083c0.167,0,0.318-0.028,0.454-0.083c0.135-0.055,0.251-0.135,0.347-0.24
			c0.094-0.104,0.168-0.232,0.221-0.383C57.66,81.33,57.687,81.16,57.687,80.968z"/>
		<path fill="#333333" d="M59.149,81.358v1.159h-0.418v-3.098h0.916c0.195,0,0.365,0.022,0.511,0.067
			c0.146,0.046,0.265,0.11,0.36,0.193c0.094,0.083,0.166,0.185,0.213,0.303s0.069,0.25,0.069,0.396c0,0.145-0.024,0.276-0.075,0.396
			c-0.052,0.12-0.125,0.223-0.223,0.311c-0.097,0.086-0.218,0.154-0.361,0.201c-0.145,0.049-0.31,0.072-0.496,0.072L59.149,81.358
			L59.149,81.358z M59.149,81.025h0.498c0.119,0,0.225-0.016,0.315-0.047c0.093-0.032,0.168-0.076,0.229-0.133
			c0.062-0.057,0.109-0.125,0.142-0.204s0.047-0.167,0.047-0.263c0-0.196-0.062-0.352-0.183-0.461
			c-0.122-0.111-0.307-0.168-0.553-0.168h-0.498v1.275H59.149z"/>
		<path fill="#333333" d="M63.24,79.419v0.342h-1.487v1.029h1.204v0.328h-1.204v1.057h1.487v0.343h-1.909v-3.099H63.24L63.24,79.419
			z"/>
		<path fill="#333333" d="M64.304,81.224v1.293h-0.418v-3.098h0.875c0.196,0,0.365,0.02,0.508,0.06
			c0.144,0.04,0.26,0.097,0.354,0.172c0.093,0.075,0.162,0.166,0.207,0.271c0.045,0.106,0.066,0.225,0.066,0.355
			c0,0.109-0.018,0.213-0.052,0.307c-0.034,0.096-0.084,0.181-0.149,0.256c-0.066,0.076-0.146,0.142-0.24,0.195
			c-0.094,0.053-0.201,0.094-0.321,0.12c0.052,0.03,0.099,0.074,0.138,0.132l0.904,1.23h-0.371c-0.076,0-0.133-0.029-0.169-0.089
			l-0.804-1.106c-0.023-0.035-0.051-0.06-0.08-0.074c-0.029-0.016-0.072-0.023-0.13-0.023H64.304z M64.304,80.919h0.438
			c0.123,0,0.229-0.016,0.323-0.045c0.093-0.028,0.17-0.07,0.232-0.125c0.062-0.054,0.11-0.117,0.143-0.192
			c0.031-0.075,0.047-0.158,0.047-0.249c0-0.186-0.061-0.324-0.182-0.417c-0.123-0.095-0.304-0.142-0.545-0.142h-0.457V80.919z"/>
		<path fill="#333333" d="M69.176,82.517h-0.323c-0.037,0-0.067-0.01-0.092-0.027c-0.023-0.02-0.039-0.043-0.052-0.072l-0.29-0.748
			h-1.391l-0.289,0.748c-0.01,0.026-0.027,0.049-0.053,0.069c-0.023,0.021-0.055,0.03-0.09,0.03h-0.324l1.238-3.098h0.426
			L69.176,82.517z M67.146,81.367h1.158l-0.486-1.261c-0.032-0.078-0.063-0.175-0.094-0.292c-0.016,0.059-0.031,0.113-0.045,0.163
			c-0.016,0.05-0.031,0.093-0.045,0.131L67.146,81.367z"/>
		<path fill="#333333" d="M71.392,79.419v0.353h-1v2.746h-0.42v-2.746h-1.005v-0.353H71.392z"/>
		<path fill="#333333" d="M72.331,82.517h-0.419v-3.098h0.419V82.517z"/>
		<path fill="#333333" d="M76.038,80.968c0,0.232-0.037,0.445-0.109,0.64c-0.074,0.194-0.178,0.36-0.312,0.5
			s-0.295,0.249-0.483,0.326s-0.396,0.114-0.624,0.114c-0.228,0-0.435-0.039-0.623-0.114c-0.188-0.077-0.348-0.187-0.482-0.326
			c-0.133-0.14-0.237-0.308-0.312-0.5c-0.073-0.194-0.11-0.407-0.11-0.64c0-0.231,0.037-0.444,0.11-0.639
			c0.074-0.193,0.177-0.361,0.312-0.502c0.135-0.14,0.295-0.25,0.482-0.326c0.188-0.078,0.396-0.117,0.623-0.117
			c0.229,0,0.436,0.039,0.624,0.117s0.349,0.187,0.483,0.326c0.134,0.141,0.238,0.309,0.312,0.502
			C76.001,80.524,76.038,80.737,76.038,80.968z M75.606,80.968c0-0.189-0.025-0.36-0.078-0.512c-0.051-0.15-0.125-0.278-0.221-0.383
			c-0.095-0.105-0.209-0.186-0.346-0.242c-0.136-0.056-0.287-0.084-0.454-0.084c-0.166,0-0.315,0.028-0.452,0.084
			c-0.136,0.057-0.25,0.137-0.347,0.242c-0.097,0.104-0.169,0.231-0.222,0.383s-0.078,0.322-0.078,0.512
			c0,0.191,0.025,0.361,0.078,0.512c0.052,0.15,0.125,0.277,0.222,0.383s0.211,0.186,0.347,0.24
			c0.135,0.057,0.286,0.083,0.452,0.083c0.167,0,0.318-0.028,0.454-0.083c0.135-0.055,0.251-0.135,0.346-0.24
			c0.096-0.104,0.17-0.232,0.221-0.383C75.581,81.33,75.606,81.16,75.606,80.968z"/>
		<path fill="#333333" d="M76.91,79.433c0.019,0.009,0.039,0.027,0.062,0.057l1.795,2.336c-0.004-0.039-0.008-0.074-0.01-0.109
			c-0.001-0.036-0.002-0.07-0.002-0.104v-2.193h0.367v3.098H78.91c-0.033,0-0.062-0.006-0.083-0.018s-0.044-0.031-0.066-0.059
			l-1.792-2.333c0.003,0.036,0.005,0.071,0.007,0.106c0.002,0.033,0.002,0.065,0.002,0.095v2.208H76.61v-3.098h0.216
			C76.864,79.419,76.892,79.423,76.91,79.433z"/>
		<path fill="#333333" d="M81.466,79.903c-0.013,0.021-0.025,0.038-0.041,0.05c-0.014,0.01-0.033,0.016-0.056,0.016
			c-0.024,0-0.054-0.012-0.085-0.037c-0.032-0.025-0.073-0.053-0.123-0.081c-0.051-0.03-0.11-0.058-0.18-0.081
			c-0.07-0.025-0.154-0.037-0.254-0.037c-0.095,0-0.178,0.014-0.25,0.038c-0.071,0.024-0.131,0.06-0.181,0.103
			c-0.048,0.043-0.084,0.094-0.108,0.152c-0.025,0.059-0.037,0.122-0.037,0.189c0,0.086,0.021,0.158,0.063,0.215
			c0.042,0.057,0.099,0.105,0.168,0.146s0.149,0.074,0.238,0.104c0.089,0.028,0.18,0.06,0.272,0.092
			c0.092,0.032,0.184,0.067,0.271,0.106c0.088,0.041,0.168,0.09,0.238,0.15s0.125,0.135,0.168,0.223
			c0.041,0.088,0.063,0.197,0.063,0.324c0,0.135-0.022,0.264-0.069,0.381c-0.045,0.119-0.112,0.224-0.201,0.312
			c-0.088,0.088-0.197,0.157-0.326,0.208s-0.275,0.076-0.439,0.076c-0.201,0-0.384-0.037-0.549-0.109s-0.306-0.171-0.422-0.295
			l0.121-0.199c0.011-0.016,0.025-0.029,0.042-0.039c0.017-0.012,0.035-0.018,0.056-0.018c0.029,0,0.064,0.018,0.104,0.049
			c0.039,0.032,0.087,0.068,0.146,0.107c0.059,0.039,0.129,0.074,0.211,0.106c0.084,0.033,0.185,0.05,0.305,0.05
			c0.1,0,0.188-0.015,0.266-0.041c0.078-0.027,0.145-0.066,0.198-0.117c0.054-0.049,0.096-0.108,0.125-0.178
			c0.028-0.068,0.043-0.146,0.043-0.23c0-0.094-0.021-0.17-0.063-0.23c-0.043-0.06-0.099-0.109-0.168-0.15
			c-0.068-0.041-0.147-0.074-0.236-0.103c-0.088-0.028-0.18-0.057-0.271-0.086c-0.093-0.028-0.184-0.063-0.271-0.103
			c-0.09-0.039-0.168-0.09-0.237-0.151c-0.07-0.062-0.125-0.14-0.167-0.231c-0.042-0.094-0.064-0.209-0.064-0.346
			c0-0.109,0.021-0.215,0.064-0.318c0.042-0.102,0.104-0.192,0.186-0.271c0.08-0.079,0.18-0.143,0.299-0.189
			c0.119-0.049,0.256-0.072,0.41-0.072c0.174,0,0.332,0.027,0.473,0.082c0.144,0.056,0.269,0.135,0.375,0.238L81.466,79.903z"/>
	</g>
	<g>
		<path fill="#333333" d="M58.786,19.315c0.272,0,0.515,0.039,0.727,0.115c0.212,0.077,0.391,0.181,0.537,0.312
			c0.146,0.131,0.258,0.283,0.333,0.456s0.114,0.355,0.114,0.547c0,0.174-0.019,0.327-0.054,0.459s-0.087,0.247-0.157,0.344
			c-0.069,0.097-0.154,0.18-0.257,0.248c-0.103,0.068-0.22,0.125-0.351,0.17c0.611,0.212,0.916,0.627,0.916,1.245
			c0,0.292-0.053,0.547-0.158,0.764c-0.106,0.217-0.248,0.397-0.426,0.541c-0.178,0.144-0.385,0.251-0.619,0.323
			s-0.479,0.108-0.734,0.108c-0.262,0-0.495-0.028-0.699-0.085c-0.205-0.057-0.387-0.145-0.545-0.265
			c-0.159-0.12-0.299-0.273-0.418-0.459c-0.12-0.187-0.224-0.409-0.312-0.666l0.522-0.212c0.046-0.02,0.09-0.034,0.134-0.042
			c0.045-0.007,0.088-0.011,0.131-0.011c0.08,0,0.153,0.016,0.218,0.047c0.063,0.031,0.112,0.077,0.146,0.138
			c0.113,0.209,0.234,0.361,0.361,0.456s0.277,0.142,0.448,0.142c0.131,0,0.245-0.022,0.343-0.066
			c0.097-0.044,0.178-0.101,0.242-0.17c0.064-0.069,0.112-0.148,0.145-0.236c0.033-0.088,0.05-0.178,0.05-0.269
			c0-0.119-0.009-0.225-0.024-0.32c-0.017-0.094-0.062-0.176-0.139-0.244c-0.075-0.068-0.189-0.121-0.342-0.157
			s-0.365-0.055-0.638-0.055v-0.81c0.229,0,0.415-0.018,0.556-0.053c0.142-0.035,0.251-0.084,0.328-0.146
			c0.076-0.062,0.127-0.137,0.152-0.225s0.039-0.186,0.039-0.292c0-0.217-0.053-0.384-0.158-0.501
			c-0.104-0.117-0.264-0.176-0.479-0.176c-0.088,0-0.168,0.013-0.242,0.038c-0.072,0.025-0.139,0.059-0.196,0.102
			s-0.108,0.093-0.149,0.151s-0.075,0.121-0.1,0.189c-0.041,0.114-0.092,0.196-0.154,0.246c-0.062,0.05-0.145,0.076-0.251,0.076
			c-0.025,0-0.053-0.001-0.081-0.004c-0.029-0.002-0.059-0.006-0.09-0.011l-0.62-0.11c0.041-0.275,0.118-0.515,0.233-0.719
			s0.257-0.375,0.427-0.511c0.171-0.136,0.365-0.238,0.585-0.305C58.298,19.349,58.534,19.315,58.786,19.315z"/>
		<path fill="#333333" d="M63.175,19.315c0.272,0,0.515,0.039,0.727,0.115c0.212,0.077,0.391,0.181,0.537,0.312
			c0.146,0.131,0.258,0.283,0.333,0.456s0.114,0.355,0.114,0.547c0,0.174-0.019,0.327-0.054,0.459s-0.087,0.247-0.157,0.344
			c-0.069,0.097-0.154,0.18-0.257,0.248c-0.103,0.068-0.22,0.125-0.351,0.17c0.611,0.212,0.916,0.627,0.916,1.245
			c0,0.292-0.053,0.547-0.158,0.764c-0.106,0.217-0.248,0.397-0.426,0.541c-0.178,0.144-0.385,0.251-0.619,0.323
			s-0.479,0.108-0.734,0.108c-0.262,0-0.495-0.028-0.699-0.085c-0.205-0.057-0.387-0.145-0.545-0.265
			c-0.159-0.12-0.299-0.273-0.418-0.459c-0.12-0.187-0.225-0.409-0.312-0.666l0.522-0.212c0.046-0.02,0.09-0.034,0.134-0.042
			c0.045-0.007,0.088-0.011,0.131-0.011c0.08,0,0.153,0.016,0.218,0.047c0.063,0.031,0.112,0.077,0.146,0.138
			c0.113,0.209,0.234,0.361,0.361,0.456s0.277,0.142,0.448,0.142c0.131,0,0.245-0.022,0.343-0.066
			c0.097-0.044,0.178-0.101,0.242-0.17c0.064-0.069,0.112-0.148,0.145-0.236c0.033-0.088,0.05-0.178,0.05-0.269
			c0-0.119-0.009-0.225-0.024-0.32c-0.017-0.094-0.062-0.176-0.139-0.244c-0.075-0.068-0.189-0.121-0.342-0.157
			s-0.365-0.055-0.638-0.055v-0.81c0.229,0,0.415-0.018,0.556-0.053c0.142-0.035,0.251-0.084,0.328-0.146
			c0.076-0.062,0.127-0.137,0.152-0.225s0.039-0.186,0.039-0.292c0-0.217-0.053-0.384-0.158-0.501
			c-0.104-0.117-0.264-0.176-0.479-0.176c-0.088,0-0.168,0.013-0.242,0.038c-0.072,0.025-0.139,0.059-0.196,0.102
			s-0.108,0.093-0.149,0.151s-0.075,0.121-0.1,0.189c-0.041,0.114-0.092,0.196-0.154,0.246c-0.062,0.05-0.145,0.076-0.251,0.076
			c-0.025,0-0.053-0.001-0.081-0.004c-0.029-0.002-0.059-0.006-0.09-0.011l-0.62-0.11c0.04-0.275,0.118-0.515,0.233-0.719
			c0.114-0.204,0.257-0.375,0.427-0.511c0.171-0.136,0.365-0.238,0.585-0.305C62.687,19.349,62.923,19.315,63.175,19.315z"/>
		<path fill="#333333" d="M68.01,20.711c0,0.202-0.036,0.386-0.11,0.552c-0.072,0.167-0.17,0.31-0.291,0.43
			c-0.121,0.12-0.262,0.212-0.422,0.278s-0.327,0.099-0.501,0.099c-0.192,0-0.368-0.033-0.528-0.099s-0.299-0.158-0.416-0.278
			c-0.117-0.12-0.209-0.263-0.273-0.43c-0.066-0.167-0.1-0.351-0.1-0.552c0-0.209,0.033-0.399,0.1-0.569
			c0.064-0.17,0.156-0.316,0.273-0.437s0.256-0.215,0.416-0.282s0.336-0.101,0.528-0.101c0.191,0,0.368,0.034,0.531,0.101
			s0.303,0.161,0.42,0.282c0.118,0.121,0.209,0.267,0.274,0.437S68.01,20.502,68.01,20.711z M69.742,19.55
			c0.038-0.043,0.085-0.083,0.14-0.119c0.057-0.037,0.133-0.055,0.231-0.055h0.854l-4.154,5.346
			c-0.037,0.048-0.084,0.088-0.141,0.119c-0.058,0.032-0.126,0.047-0.207,0.047h-0.877L69.742,19.55z M67.109,20.711
			c0-0.128-0.011-0.235-0.032-0.32s-0.051-0.152-0.089-0.202c-0.038-0.051-0.083-0.086-0.134-0.106
			c-0.053-0.021-0.108-0.03-0.169-0.03s-0.116,0.01-0.167,0.03c-0.051,0.02-0.093,0.055-0.129,0.106
			c-0.035,0.05-0.062,0.118-0.082,0.202c-0.021,0.084-0.031,0.191-0.031,0.32c0,0.121,0.011,0.222,0.031,0.303
			c0.02,0.081,0.047,0.145,0.082,0.193c0.036,0.048,0.078,0.082,0.129,0.102c0.051,0.021,0.106,0.03,0.167,0.03
			s0.116-0.01,0.169-0.03c0.051-0.02,0.096-0.054,0.134-0.102s0.067-0.112,0.089-0.193S67.109,20.833,67.109,20.711z M71.181,23.594
			c0,0.202-0.037,0.387-0.11,0.554c-0.073,0.168-0.171,0.312-0.292,0.432c-0.121,0.12-0.262,0.212-0.422,0.278
			s-0.326,0.098-0.5,0.098c-0.192,0-0.368-0.033-0.528-0.098s-0.299-0.158-0.416-0.278c-0.118-0.12-0.209-0.264-0.274-0.432
			c-0.066-0.167-0.099-0.353-0.099-0.554c0-0.209,0.032-0.399,0.099-0.569c0.065-0.17,0.156-0.316,0.274-0.437
			c0.117-0.121,0.256-0.215,0.416-0.282s0.336-0.1,0.528-0.1c0.191,0,0.368,0.033,0.531,0.1c0.162,0.067,0.303,0.161,0.42,0.282
			s0.209,0.267,0.273,0.437C71.147,23.195,71.181,23.385,71.181,23.594z M70.28,23.594c0-0.126-0.012-0.231-0.033-0.316
			s-0.051-0.152-0.088-0.202c-0.039-0.051-0.084-0.086-0.135-0.106c-0.052-0.021-0.107-0.03-0.168-0.03s-0.117,0.01-0.167,0.03
			c-0.051,0.02-0.093,0.055-0.129,0.106c-0.035,0.05-0.063,0.118-0.083,0.202s-0.03,0.19-0.03,0.316c0,0.121,0.011,0.222,0.03,0.303
			s0.048,0.145,0.083,0.193c0.036,0.048,0.078,0.082,0.129,0.102c0.05,0.021,0.106,0.03,0.167,0.03s0.116-0.01,0.168-0.03
			c0.051-0.02,0.096-0.054,0.135-0.102c0.037-0.048,0.066-0.112,0.088-0.193S70.28,23.715,70.28,23.594z"/>
		<path fill="#333333" d="M50.727,27.555h0.348c0.038,0,0.068,0.01,0.093,0.028s0.041,0.042,0.05,0.071l0.64,2.153
			c0.011,0.039,0.022,0.081,0.031,0.125c0.009,0.044,0.018,0.091,0.027,0.14c0.01-0.049,0.02-0.096,0.03-0.142
			s0.021-0.086,0.035-0.124l0.729-2.153c0.009-0.024,0.025-0.047,0.051-0.068c0.025-0.021,0.056-0.032,0.092-0.032h0.121
			c0.038,0,0.068,0.01,0.092,0.028c0.024,0.019,0.041,0.042,0.051,0.071l0.725,2.153c0.026,0.075,0.049,0.161,0.069,0.257
			c0.009-0.048,0.017-0.093,0.024-0.136c0.007-0.043,0.017-0.083,0.028-0.121l0.642-2.153c0.007-0.026,0.023-0.049,0.048-0.069
			c0.025-0.02,0.056-0.03,0.092-0.03h0.327l-0.966,3.098h-0.376l-0.785-2.363c-0.016-0.045-0.03-0.097-0.043-0.156
			c-0.007,0.029-0.014,0.057-0.021,0.083c-0.007,0.027-0.014,0.051-0.021,0.073l-0.789,2.363h-0.376L50.727,27.555z"/>
		<path fill="#333333" d="M57.388,27.555v0.342H55.9v1.029h1.204v0.329H55.9v1.057h1.487v0.342h-1.909v-3.098H57.388z"/>
		<path fill="#333333" d="M57.991,30.653v-3.098h0.988c0.189,0,0.354,0.019,0.491,0.056c0.138,0.038,0.251,0.091,0.339,0.16
			c0.09,0.069,0.154,0.154,0.197,0.254s0.064,0.213,0.064,0.338c0,0.077-0.013,0.15-0.036,0.221c-0.024,0.07-0.06,0.136-0.108,0.197
			s-0.109,0.114-0.182,0.162c-0.072,0.047-0.158,0.086-0.256,0.117c0.227,0.044,0.396,0.126,0.512,0.244s0.174,0.274,0.174,0.467
			c0,0.131-0.024,0.25-0.072,0.359c-0.049,0.108-0.119,0.201-0.213,0.279c-0.092,0.078-0.207,0.138-0.342,0.18
			s-0.288,0.064-0.461,0.064H57.991z M58.41,28.943h0.554c0.118,0,0.221-0.013,0.307-0.039c0.087-0.026,0.158-0.062,0.215-0.108
			c0.058-0.046,0.1-0.102,0.127-0.167c0.027-0.066,0.041-0.138,0.041-0.215c0-0.182-0.055-0.315-0.164-0.4s-0.279-0.127-0.51-0.127
			H58.41V28.943z M58.41,29.242v1.079h0.671c0.119,0,0.222-0.014,0.308-0.041c0.085-0.027,0.156-0.066,0.212-0.116
			c0.055-0.05,0.096-0.109,0.122-0.177s0.039-0.144,0.039-0.226c0-0.16-0.057-0.286-0.17-0.379
			c-0.113-0.093-0.284-0.139-0.514-0.139H58.41z"/>
		<path fill="#333333" d="M64.308,29.105c0,0.232-0.037,0.443-0.109,0.633c-0.074,0.19-0.178,0.353-0.312,0.489
			c-0.133,0.135-0.295,0.24-0.481,0.314c-0.188,0.074-0.396,0.111-0.622,0.111h-1.16v-3.098h1.16c0.227,0,0.435,0.037,0.622,0.111
			c0.187,0.074,0.349,0.18,0.481,0.316c0.135,0.136,0.238,0.299,0.312,0.49C64.271,28.662,64.308,28.874,64.308,29.105z
			 M63.878,29.105c0-0.19-0.026-0.36-0.078-0.51s-0.125-0.277-0.221-0.38c-0.095-0.104-0.211-0.183-0.346-0.238
			c-0.136-0.055-0.286-0.083-0.451-0.083h-0.738v2.419h0.738c0.165,0,0.315-0.027,0.451-0.082c0.135-0.055,0.251-0.134,0.346-0.237
			c0.096-0.103,0.169-0.229,0.221-0.379S63.878,29.295,63.878,29.105z"/>
		<path fill="#333333" d="M66.788,27.555v0.342H65.3v1.029h1.205v0.329H65.3v1.057h1.488v0.342h-1.91v-3.098H66.788z"/>
		<path fill="#333333" d="M68.978,28.04c-0.013,0.021-0.026,0.038-0.041,0.049c-0.014,0.011-0.033,0.016-0.057,0.016
			s-0.053-0.012-0.085-0.037c-0.032-0.025-0.073-0.052-0.123-0.081c-0.05-0.03-0.11-0.057-0.18-0.081
			c-0.069-0.025-0.154-0.037-0.254-0.037c-0.094,0-0.177,0.013-0.249,0.038c-0.072,0.025-0.132,0.06-0.18,0.103
			c-0.049,0.043-0.085,0.094-0.109,0.152c-0.025,0.059-0.037,0.122-0.037,0.189c0,0.086,0.021,0.158,0.064,0.215
			c0.042,0.057,0.098,0.105,0.168,0.146s0.149,0.075,0.238,0.105c0.088,0.029,0.18,0.06,0.271,0.092
			c0.094,0.032,0.184,0.067,0.273,0.107c0.088,0.04,0.168,0.09,0.237,0.15s0.126,0.135,0.169,0.223
			c0.042,0.088,0.063,0.196,0.063,0.324c0,0.135-0.022,0.263-0.069,0.381c-0.046,0.119-0.113,0.223-0.202,0.311
			s-0.197,0.157-0.326,0.208s-0.276,0.076-0.44,0.076c-0.2,0-0.383-0.037-0.548-0.109s-0.306-0.171-0.423-0.295l0.121-0.199
			c0.012-0.016,0.025-0.029,0.043-0.04c0.016-0.011,0.035-0.017,0.055-0.017c0.03,0,0.064,0.017,0.104,0.049
			s0.088,0.068,0.146,0.107c0.059,0.039,0.129,0.075,0.211,0.107c0.084,0.033,0.185,0.049,0.305,0.049
			c0.1,0,0.188-0.014,0.266-0.041s0.144-0.066,0.197-0.116c0.055-0.05,0.096-0.109,0.125-0.178c0.029-0.069,0.043-0.146,0.043-0.231
			c0-0.094-0.021-0.17-0.063-0.23c-0.043-0.06-0.099-0.11-0.168-0.15c-0.069-0.041-0.147-0.075-0.236-0.103
			c-0.089-0.028-0.18-0.057-0.272-0.086c-0.094-0.029-0.184-0.063-0.272-0.103s-0.167-0.089-0.237-0.151
			c-0.068-0.062-0.125-0.139-0.167-0.232c-0.042-0.093-0.063-0.208-0.063-0.345c0-0.109,0.021-0.215,0.063-0.318
			c0.042-0.102,0.104-0.193,0.185-0.272c0.081-0.079,0.181-0.143,0.3-0.19c0.118-0.048,0.255-0.072,0.409-0.072
			c0.174,0,0.331,0.028,0.474,0.083c0.144,0.055,0.268,0.134,0.374,0.238L68.978,28.04z"/>
		<path fill="#333333" d="M70.18,30.653h-0.419v-3.098h0.419V30.653z"/>
		<path fill="#333333" d="M72.392,30.349c0.083,0,0.16-0.004,0.229-0.012c0.069-0.008,0.136-0.02,0.198-0.036
			c0.062-0.016,0.12-0.035,0.175-0.057s0.109-0.048,0.164-0.077v-0.683h-0.479c-0.027,0-0.05-0.008-0.066-0.024
			c-0.017-0.016-0.024-0.035-0.024-0.059v-0.238h0.951v1.189c-0.078,0.056-0.159,0.105-0.243,0.147
			c-0.084,0.042-0.175,0.077-0.271,0.104c-0.096,0.028-0.198,0.049-0.308,0.063s-0.229,0.021-0.357,0.021
			c-0.225,0-0.431-0.039-0.618-0.116c-0.187-0.077-0.349-0.185-0.483-0.324c-0.137-0.139-0.242-0.306-0.317-0.5
			c-0.075-0.195-0.114-0.409-0.114-0.642c0-0.236,0.037-0.452,0.111-0.646c0.074-0.194,0.181-0.361,0.318-0.5s0.305-0.247,0.5-0.323
			c0.195-0.076,0.414-0.115,0.656-0.115c0.122,0,0.236,0.009,0.341,0.027c0.105,0.018,0.203,0.044,0.293,0.078
			c0.091,0.034,0.173,0.075,0.25,0.124c0.076,0.048,0.147,0.103,0.214,0.163l-0.119,0.19c-0.024,0.039-0.057,0.059-0.095,0.059
			c-0.022,0-0.048-0.008-0.075-0.024c-0.037-0.02-0.077-0.044-0.121-0.073c-0.045-0.029-0.1-0.057-0.164-0.083
			c-0.064-0.026-0.14-0.049-0.227-0.068c-0.088-0.019-0.191-0.028-0.311-0.028c-0.174,0-0.332,0.029-0.473,0.085
			c-0.143,0.057-0.262,0.139-0.361,0.244c-0.1,0.106-0.176,0.234-0.229,0.385c-0.054,0.15-0.08,0.319-0.08,0.507
			c0,0.196,0.028,0.371,0.083,0.524c0.056,0.153,0.134,0.283,0.234,0.39c0.102,0.106,0.221,0.188,0.359,0.244
			S72.224,30.349,72.392,30.349z"/>
		<path fill="#333333" d="M74.483,27.569c0.018,0.009,0.038,0.028,0.061,0.057l1.795,2.335c-0.004-0.038-0.008-0.074-0.009-0.109
			c-0.001-0.036-0.002-0.07-0.002-0.103v-2.194h0.367v3.098h-0.212c-0.033,0-0.061-0.006-0.083-0.017
			c-0.022-0.012-0.044-0.031-0.065-0.059l-1.793-2.333c0.003,0.036,0.006,0.071,0.007,0.106c0.001,0.034,0.002,0.066,0.002,0.095
			v2.208h-0.368v-3.098h0.217C74.437,27.555,74.465,27.56,74.483,27.569z"/>
		<path fill="#333333" d="M54.657,33.286c0.114,0,0.218,0.019,0.312,0.055c0.094,0.037,0.175,0.085,0.243,0.146
			s0.123,0.131,0.162,0.211s0.062,0.163,0.068,0.25l-0.24,0.048c-0.007,0.001-0.014,0.002-0.02,0.002
			c-0.019,0-0.036-0.005-0.053-0.015c-0.017-0.01-0.029-0.028-0.036-0.054c-0.01-0.037-0.026-0.076-0.049-0.117
			c-0.022-0.04-0.051-0.077-0.086-0.11c-0.036-0.033-0.078-0.061-0.127-0.083c-0.05-0.021-0.108-0.032-0.174-0.032
			c-0.072,0-0.137,0.012-0.194,0.035s-0.107,0.055-0.148,0.096c-0.041,0.041-0.073,0.089-0.095,0.145
			c-0.022,0.056-0.034,0.116-0.034,0.181c0,0.05,0.006,0.099,0.019,0.145c0.012,0.046,0.03,0.092,0.055,0.139
			c0.024,0.047,0.056,0.095,0.095,0.145c0.039,0.05,0.086,0.102,0.141,0.157l0.891,0.906c0.055-0.097,0.099-0.198,0.131-0.304
			c0.033-0.106,0.055-0.212,0.066-0.319c0.003-0.027,0.012-0.049,0.026-0.065c0.015-0.016,0.035-0.024,0.061-0.024h0.238
			c-0.003,0.166-0.029,0.329-0.08,0.489c-0.051,0.16-0.124,0.31-0.219,0.45l0.649,0.657h-0.372c-0.042,0-0.076-0.005-0.102-0.015
			s-0.055-0.031-0.086-0.062l-0.312-0.313c-0.135,0.131-0.292,0.235-0.468,0.311c-0.177,0.077-0.371,0.115-0.583,0.115
			c-0.115,0-0.228-0.02-0.339-0.059c-0.111-0.039-0.21-0.095-0.297-0.169c-0.087-0.074-0.158-0.165-0.211-0.271
			c-0.053-0.106-0.08-0.227-0.08-0.361c0-0.101,0.017-0.196,0.051-0.287c0.034-0.09,0.081-0.173,0.141-0.25
			c0.06-0.077,0.131-0.145,0.213-0.206s0.172-0.112,0.27-0.156c-0.088-0.111-0.152-0.219-0.194-0.324
			c-0.042-0.105-0.062-0.214-0.062-0.326c0-0.105,0.019-0.204,0.057-0.296s0.093-0.172,0.166-0.241
			c0.072-0.068,0.159-0.123,0.263-0.162C54.414,33.306,54.529,33.286,54.657,33.286z M53.799,35.562
			c0,0.094,0.018,0.176,0.052,0.248s0.08,0.131,0.136,0.18c0.056,0.049,0.12,0.086,0.192,0.111c0.072,0.025,0.146,0.038,0.22,0.038
			c0.162,0,0.307-0.03,0.435-0.089c0.128-0.059,0.242-0.138,0.339-0.235l-0.914-0.923c-0.153,0.082-0.268,0.181-0.345,0.295
			C53.837,35.302,53.799,35.427,53.799,35.562z"/>
		<path fill="#333333" d="M59.664,35.778c0.022,0,0.044,0.01,0.063,0.028l0.164,0.179c-0.127,0.147-0.281,0.262-0.462,0.344
			c-0.181,0.083-0.399,0.124-0.653,0.124c-0.225,0-0.427-0.039-0.608-0.116s-0.337-0.185-0.465-0.324s-0.228-0.306-0.298-0.5
			c-0.07-0.195-0.106-0.409-0.106-0.642s0.038-0.448,0.114-0.642c0.075-0.195,0.182-0.362,0.318-0.501
			c0.137-0.14,0.301-0.249,0.492-0.326c0.19-0.077,0.401-0.116,0.632-0.116c0.228,0,0.425,0.036,0.589,0.106
			c0.166,0.071,0.312,0.167,0.44,0.288l-0.136,0.192c-0.011,0.015-0.021,0.026-0.035,0.036c-0.013,0.01-0.031,0.014-0.057,0.014
			c-0.018,0-0.038-0.007-0.059-0.021c-0.021-0.014-0.047-0.031-0.075-0.051s-0.062-0.042-0.102-0.065
			c-0.038-0.023-0.085-0.044-0.138-0.065c-0.054-0.02-0.115-0.037-0.187-0.051c-0.07-0.014-0.151-0.021-0.244-0.021
			c-0.166,0-0.317,0.029-0.455,0.085c-0.138,0.057-0.257,0.138-0.355,0.243c-0.1,0.105-0.177,0.233-0.232,0.385
			s-0.083,0.321-0.083,0.508c0,0.193,0.027,0.365,0.083,0.517s0.131,0.279,0.227,0.384c0.097,0.104,0.21,0.184,0.341,0.239
			s0.272,0.082,0.424,0.082c0.092,0,0.175-0.005,0.248-0.016c0.074-0.011,0.143-0.028,0.205-0.051s0.121-0.052,0.175-0.087
			s0.108-0.078,0.163-0.126C59.617,35.79,59.642,35.778,59.664,35.778z"/>
		<path fill="#333333" d="M63.319,34.871c0,0.232-0.036,0.445-0.109,0.639c-0.074,0.194-0.178,0.361-0.312,0.5
			c-0.134,0.14-0.295,0.249-0.483,0.326c-0.188,0.077-0.396,0.115-0.623,0.115c-0.229,0-0.436-0.039-0.623-0.115
			c-0.188-0.077-0.348-0.186-0.482-0.326c-0.134-0.14-0.237-0.307-0.311-0.5c-0.074-0.194-0.111-0.407-0.111-0.639
			s0.037-0.445,0.111-0.639c0.073-0.194,0.177-0.361,0.311-0.502c0.135-0.14,0.295-0.25,0.482-0.327
			c0.188-0.078,0.395-0.117,0.623-0.117c0.228,0,0.436,0.039,0.623,0.117c0.188,0.078,0.35,0.187,0.483,0.327
			c0.134,0.141,0.237,0.308,0.312,0.502C63.283,34.426,63.319,34.639,63.319,34.871z M62.89,34.871c0-0.19-0.025-0.361-0.078-0.512
			c-0.051-0.151-0.125-0.279-0.221-0.384c-0.094-0.104-0.21-0.185-0.346-0.241c-0.135-0.056-0.286-0.084-0.453-0.084
			c-0.166,0-0.316,0.028-0.452,0.084s-0.251,0.137-0.347,0.241s-0.17,0.232-0.223,0.384c-0.051,0.151-0.077,0.322-0.077,0.512
			c0,0.19,0.026,0.361,0.077,0.511c0.053,0.15,0.127,0.278,0.223,0.383s0.211,0.185,0.347,0.24c0.136,0.056,0.286,0.083,0.452,0.083
			c0.167,0,0.318-0.028,0.453-0.083c0.136-0.055,0.252-0.135,0.346-0.24c0.096-0.104,0.17-0.232,0.221-0.383
			C62.864,35.231,62.89,35.061,62.89,34.871z"/>
		<path fill="#333333" d="M66.577,34.871c0,0.232-0.036,0.443-0.109,0.633c-0.074,0.19-0.178,0.353-0.312,0.489
			c-0.134,0.135-0.295,0.24-0.481,0.314c-0.188,0.074-0.396,0.111-0.623,0.111h-1.159V33.32h1.159c0.228,0,0.436,0.037,0.623,0.111
			c0.187,0.074,0.348,0.18,0.481,0.316s0.237,0.299,0.312,0.49C66.541,34.427,66.577,34.639,66.577,34.871z M66.147,34.871
			c0-0.19-0.025-0.36-0.078-0.51c-0.051-0.15-0.125-0.277-0.221-0.38c-0.094-0.104-0.21-0.183-0.346-0.238
			c-0.135-0.055-0.285-0.083-0.451-0.083h-0.737v2.419h0.737c0.166,0,0.316-0.027,0.451-0.082c0.136-0.055,0.252-0.134,0.346-0.237
			c0.096-0.103,0.17-0.229,0.221-0.379C66.122,35.231,66.147,35.061,66.147,34.871z"/>
		<path fill="#333333" d="M67.646,36.418h-0.419V33.32h0.419V36.418z"/>
		<path fill="#333333" d="M68.775,33.334c0.018,0.009,0.038,0.028,0.062,0.057l1.795,2.335c-0.005-0.038-0.008-0.074-0.01-0.109
			c-0.001-0.036-0.002-0.07-0.002-0.103V33.32h0.367v3.098h-0.211c-0.033,0-0.061-0.006-0.084-0.017
			c-0.021-0.012-0.044-0.031-0.065-0.059l-1.792-2.333c0.002,0.036,0.005,0.071,0.006,0.106c0.002,0.034,0.002,0.066,0.002,0.095
			v2.208h-0.367V33.32h0.217C68.729,33.32,68.757,33.325,68.775,33.334z"/>
		<path fill="#333333" d="M73.126,36.114c0.084,0,0.16-0.004,0.23-0.012c0.07-0.008,0.136-0.02,0.197-0.036
			c0.062-0.016,0.121-0.035,0.176-0.057s0.109-0.048,0.164-0.077v-0.683h-0.48c-0.027,0-0.049-0.008-0.065-0.024
			c-0.017-0.016-0.024-0.035-0.024-0.059v-0.238h0.951v1.189c-0.078,0.056-0.159,0.105-0.243,0.147
			c-0.085,0.042-0.175,0.077-0.271,0.104c-0.096,0.028-0.199,0.049-0.309,0.063s-0.229,0.021-0.355,0.021
			c-0.226,0-0.432-0.039-0.619-0.116s-0.349-0.185-0.484-0.324c-0.135-0.139-0.24-0.306-0.316-0.5
			c-0.076-0.195-0.113-0.409-0.113-0.642c0-0.236,0.037-0.452,0.111-0.646c0.074-0.194,0.18-0.361,0.317-0.5
			s0.304-0.247,0.499-0.323c0.195-0.076,0.414-0.115,0.656-0.115c0.123,0,0.236,0.009,0.342,0.027s0.203,0.044,0.293,0.078
			c0.09,0.034,0.174,0.075,0.25,0.124s0.147,0.103,0.214,0.163l-0.118,0.19c-0.025,0.039-0.057,0.059-0.096,0.059
			c-0.023,0-0.049-0.008-0.076-0.024c-0.035-0.02-0.076-0.044-0.121-0.073s-0.099-0.057-0.162-0.083
			c-0.064-0.026-0.141-0.049-0.228-0.068s-0.19-0.028-0.311-0.028c-0.175,0-0.332,0.029-0.474,0.085
			c-0.141,0.057-0.262,0.139-0.361,0.244c-0.099,0.106-0.176,0.234-0.229,0.385c-0.053,0.15-0.08,0.319-0.08,0.507
			c0,0.196,0.027,0.371,0.084,0.524c0.055,0.153,0.133,0.283,0.234,0.39c0.101,0.106,0.221,0.188,0.358,0.244
			S72.959,36.114,73.126,36.114z"/>
	</g>
</g>
<g id="Layer_2" display="none">
	
		<text transform="matrix(1 0 0 1 13.1787 40.0845)" display="inline" fill="#333333" font-family="'Lato-Black'" font-size="7.5666">12%</text>
	
		<text transform="matrix(1 0 0 1 5.9858 45.8491)" display="inline" fill="#333333" font-family="'Lato-Regular'" font-size="4.3238">marketing &amp;</text>
	
		<text transform="matrix(1 0 0 1 6.0415 51.6147)" display="inline" fill="#333333" font-family="'Lato-Regular'" font-size="4.3238">fundraising</text>
	
		<text transform="matrix(1 0 0 1 13.1787 65.4185)" display="inline" fill="#333333" font-family="'Lato-Black'" font-size="7.5666">12%</text>
	
		<text transform="matrix(1 0 0 1 9.9009 71.1831)" display="inline" fill="#333333" font-family="'Lato-Regular'" font-size="4.3238">strategy</text>
	
		<text transform="matrix(1 0 0 1 10.8105 76.9478)" display="inline" fill="#333333" font-family="'Lato-Regular'" font-size="4.3238">&amp; design</text>
	
		<text transform="matrix(1 0 0 1 60.8447 76.7515)" display="inline" fill="#333333" font-family="'Lato-Black'" font-size="7.5666">43%</text>
	
		<text transform="matrix(1 0 0 1 54.7202 82.5161)" display="inline" fill="#333333" font-family="'Lato-Regular'" font-size="4.3238">operations</text>
	
		<text transform="matrix(1 0 0 1 54.5122 27.4185)" display="inline" fill="#333333" font-family="'Lato-Black'" font-size="7.5666">33%</text>
	
		<text transform="matrix(1 0 0 1 48.3872 33.1831)" display="inline" fill="#333333" font-family="'Lato-Regular'" font-size="4.3238">operations</text>
</g>
</svg>
