<?xml version="1.0" encoding="utf-8"?>
<!-- Generator: Adobe Illustrator 16.0.4, SVG Export Plug-In . SVG Version: 6.00 Build 0)  -->
<!DOCTYPE svg PUBLIC "-//W3C//DTD SVG 1.1//EN" "http://www.w3.org/Graphics/SVG/1.1/DTD/svg11.dtd">
<svg version="1.1" id="Layer_1" xmlns="http://www.w3.org/2000/svg" xmlns:xlink="http://www.w3.org/1999/xlink" x="0px" y="0px"
	 width="29.175px" height="51.379px" viewBox="0 0 29.175 51.379" enable-background="new 0 0 29.175 51.379" xml:space="preserve">
<path fill="#FFFFFF" d="M0,39.183c0,0.434,0.172,0.85,0.48,1.156l1.153,1.149c0.318,0.318,0.735,0.477,1.152,0.477
	s0.835-0.158,1.153-0.478l18.2-18.159c0.021-0.018,0.043-0.031,0.062-0.05l1.149-1.151c0.636-0.638,0.636-1.67,0-2.307L4.056,0.479
	C3.75,0.172,3.333,0,2.9,0l0,0C2.465,0,2.049,0.173,1.743,0.481L0.593,1.634c-0.635,0.638-0.635,1.669,0.001,2.307L17.58,20.965
	L0.478,38.025C0.17,38.332-0.002,38.747,0,39.183z"/>
</svg>
