<?xml version="1.0" encoding="utf-8"?>
<!-- Generator: Adobe Illustrator 16.0.4, SVG Export Plug-In . SVG Version: 6.00 Build 0)  -->
<!DOCTYPE svg PUBLIC "-//W3C//DTD SVG 1.1//EN" "http://www.w3.org/Graphics/SVG/1.1/DTD/svg11.dtd">
<svg version="1.1" id="Layer_1" xmlns="http://www.w3.org/2000/svg" xmlns:xlink="http://www.w3.org/1999/xlink" x="0px" y="0px"
	 width="29.175px" height="51.379px" viewBox="0 0 29.175 51.379" enable-background="new 0 0 29.175 51.379" xml:space="preserve">
<path fill="#F8C02C" d="M0.588,46.556l20.937-20.888L0.729,4.825C-0.049,4.044-0.049,2.781,0.729,2l1.407-1.412
	C2.512,0.212,3.021,0,3.552,0c0.001,0,0.001,0,0.001,0c0.531,0,1.041,0.211,1.416,0.587l23.622,23.678
	c0.779,0.78,0.779,2.044,0,2.825l-1.408,1.41c-0.023,0.023-0.051,0.04-0.075,0.062L4.824,50.795c-0.39,0.39-0.901,0.584-1.412,0.584
	S2.391,51.185,2,50.796l-1.412-1.407C0.212,49.014,0,48.504,0,47.973C0,47.44,0.211,46.931,0.588,46.556z"/>
</svg>
