<?xml version="1.0" encoding="utf-8"?>
<!-- Generator: Adobe Illustrator 16.0.4, SVG Export Plug-In . SVG Version: 6.00 Build 0)  -->
<!DOCTYPE svg PUBLIC "-//W3C//DTD SVG 1.1//EN" "http://www.w3.org/Graphics/SVG/1.1/DTD/svg11.dtd">
<svg version="1.1" id="Layer_1" xmlns="http://www.w3.org/2000/svg" xmlns:xlink="http://www.w3.org/1999/xlink" x="0px" y="0px"
	 width="15.667px" height="15.668px" viewBox="0 0 15.667 15.668" enable-background="new 0 0 15.667 15.668" xml:space="preserve">
<path d="M15.081,2.708l-2.122-2.122C12.584,0.211,12.075,0,11.545,0s-1.039,0.211-1.414,0.586L1.973,8.745
	C1.779,8.938,1.627,9.17,1.526,9.424L0.14,12.933c-0.293,0.741-0.117,1.586,0.446,2.149C0.969,15.465,1.479,15.668,2,15.668
	c0.248,0,0.497-0.046,0.735-0.141l3.508-1.388c0.255-0.101,0.485-0.252,0.679-0.445l8.159-8.158
	c0.375-0.375,0.586-0.884,0.586-1.414S15.456,3.083,15.081,2.708z M2,13.668l1.202-3.041l1.838,1.838L2,13.668z M5.508,12.28
	l1.088-1.088L4.475,9.071l4.949-4.95l2.121,2.122l1.414-1.414l-2.121-2.122L11.545,2l2.122,2.122L5.508,12.28z"/>
</svg>
