<?xml version="1.0" encoding="utf-8"?>
<!-- Generator: Adobe Illustrator 19.2.1, SVG Export Plug-In . SVG Version: 6.00 Build 0)  -->
<svg version="1.1" id="Layer_1_copy" xmlns="http://www.w3.org/2000/svg" xmlns:xlink="http://www.w3.org/1999/xlink" x="0px"
	 y="0px" viewBox="0 0 76.1933594 63.7724609" style="enable-background:new 0 0 76.1933594 63.7724609;" xml:space="preserve">
<style type="text/css">
	.st0{display:none;}
	.st1{display:inline;fill:#A4CC39;}
	.st2{fill:none;}
	.st3{fill:#E0EBA9;}
	.st4{fill:#FFFFFF;}
	.st5{fill:#A2CB3A;}
	.st6{fill:#030303;}
	.st7{fill:#010101;}
</style>
<g>
	<g class="st0">
		<circle class="st1" cx="38.0966797" cy="34.9996986" r="54"/>
	</g>
	<g>
		<path class="st2" d="M26.8997803,50.7216797c-1.0701904-0.1187744-2.0744629-0.4499512-2.982666-0.9384766
			C21.4935303,51.7907715,18.3856201,52.9996338,15,52.9996338v8.7728271h22V54.399292
			c-0.9260254,0.3549805-1.9072266,0.5549316-2.9090576,0.5549316
			C31.0808105,54.9542236,28.3439941,53.3007812,26.8997803,50.7216797z"/>
		
			<ellipse transform="matrix(0.7070557 -0.7071579 0.7071579 0.7070557 12.0699568 34.290287)" class="st2" cx="47.4227905" cy="2.5769043" rx="0.5978729" ry="0.5978729"/>
		<path class="st2" d="M50.7197266,46.3480225c0.0050049,0.1114502,0.0075684,0.2225342,0.0075684,0.333374
			c0,4.5616455-3.7110596,8.2728271-8.2727051,8.2728271c-1.2016602,0-2.3745117-0.2802734-3.4545898-0.7860107v7.604248h23.3535156
			v-8H55c-0.616333,0-1.1982422-0.3608398-1.5772705-0.8469238c-0.25-0.3205566-0.3487549-0.7358398-0.3741455-1.1550293
			c-0.065918-0.3748779-0.0646973-0.765625,0.0134277-1.0718994l1.7510986-6.8222656
			C53.7298584,45.0614014,52.3265381,45.9493408,50.7197266,46.3480225z"/>
		<path class="st3" d="M7.7641602,29.442749c-0.9333496,0.7077637-1.7580566,1.5465088-2.4494629,2.4927979
			C6.006958,30.9910889,6.8303223,30.1490479,7.7641602,29.442749z"/>
		<path class="st3" d="M5.3146973,46.0637207c0.6914062,0.9462891,1.5161133,1.7850342,2.4494629,2.4927979
			C6.8303223,47.8502197,6.006958,47.0081787,5.3146973,46.0637207z"/>
		<path class="st3" d="M19.5454102,42.4996338c0-1.5551758,0.4440918-3.057251,1.2595215-4.3530273
			c-2.0891113-1.743042-3.3503418-4.3463135-3.3503418-7.1469727c0-1.2474365,0.2626953-2.4499512,0.7247314-3.5605469
			C17.1652832,27.1607666,16.102417,26.9996338,15,26.9996338c-2.7006836,0-5.1844482,0.9029541-7.1896973,2.4086914
			C8.772583,28.6877441,9.8452148,28.105957,11,27.6971436c4.6577148,1.6490479,8,6.079834,8,11.3024902
			c0,3.5410156-1.5588379,6.6933594-4,8.8861084v3.1138916c2.7216797,0,5.2233887-0.916748,7.2365723-2.4437256
			C20.5966797,47.0432129,19.5454102,44.9012451,19.5454102,42.4996338z"/>
		<path class="st3" d="M4.3442383,33.4957275c0.2598877-0.5006104,0.5529785-0.9810791,0.878418-1.4371338
			C4.8977051,32.5155029,4.6037598,32.9943848,4.3442383,33.4957275z"/>
		<path class="st3" d="M7.8103027,48.5909424c1.4981689,1.125,3.2640381,1.9049072,5.1896973,2.2287598v-1.4667969
			c-0.6363525,0.3690186-1.2967529,0.7001953-2,0.9492188C9.8452148,49.8933105,8.772583,49.3115234,7.8103027,48.5909424z"/>
		<path class="st3" d="M3.1367188,40.7163086C3.0559082,40.1544189,3,39.5841064,3,38.9996338
			C3,39.5841064,3.0560303,40.1541748,3.1367188,40.7163086z"/>
		<path class="st3" d="M4.2471924,44.302002c-0.2297363-0.463501-0.4306641-0.9437256-0.5996094-1.4388428
			C3.8162842,43.3587646,4.0179443,43.8380127,4.2471924,44.302002z"/>
		<path class="st3" d="M5.2226562,45.9406738c-0.3254395-0.4560547-0.6185303-0.9365234-0.878418-1.4371338
			C4.6037598,45.0048828,4.8977051,45.4837646,5.2226562,45.9406738z"/>
		<path class="st3" d="M3,38.9996338c0-0.5844727,0.0559082-1.1547852,0.1367188-1.7166748
			C3.0560303,37.8450928,3,38.4151611,3,38.9996338z"/>
		<path class="st3" d="M3.647583,35.1361084c0.1689453-0.4951172,0.369873-0.9753418,0.5996094-1.4388428
			C4.0179443,34.1612549,3.8162842,34.6405029,3.647583,35.1361084z"/>
		<path class="st3" d="M3.1920166,36.9202881c0.0961914-0.5482178,0.2220459-1.0863037,0.3902588-1.605957
			C3.4145508,35.8344727,3.2880859,36.3718262,3.1920166,36.9202881z"/>
		<path class="st3" d="M3.5822754,42.6849365c-0.1682129-0.5196533-0.2940674-1.0577393-0.3902588-1.605957
			C3.2880859,41.6274414,3.4145508,42.1647949,3.5822754,42.6849365z"/>
		<g>
			<path class="st4" d="M19,38.9996338c0-5.2226562-3.3422852-9.6534424-8-11.3024902
				c-1.1547852,0.4088135-2.227417,0.9906006-3.1896973,1.7111816c-0.0153809,0.0114746-0.0307617,0.0228271-0.0461426,0.0344238
				c-0.9338379,0.7062988-1.7572021,1.5483398-2.4494629,2.4927979c-0.0303955,0.0413818-0.0622559,0.0811768-0.092041,0.1230469
				c-0.3254395,0.4560547-0.6185303,0.9365234-0.878418,1.4371338c-0.0344238,0.0661621-0.0638428,0.1345215-0.0970459,0.2015381
				c-0.2297363,0.463501-0.4306641,0.9437256-0.5996094,1.4388428c-0.0206299,0.0601807-0.0457764,0.1176758-0.0653076,0.1782227
				c-0.1682129,0.5196533-0.2940674,1.0577393-0.3902588,1.605957c-0.0211182,0.1203613-0.0377197,0.2412109-0.0552979,0.3626709
				C3.0559082,37.8448486,3,38.4151611,3,38.9996338s0.0559082,1.1547852,0.1367188,1.7166748
				c0.0175781,0.12146,0.0341797,0.2423096,0.0552979,0.3626709c0.0961914,0.5482178,0.2220459,1.0863037,0.3902588,1.605957
				c0.0195312,0.0605469,0.0446777,0.118042,0.0653076,0.1782227c0.1689453,0.4951172,0.369873,0.9753418,0.5996094,1.4388428
				c0.0332031,0.0670166,0.0626221,0.135376,0.0970459,0.2015381c0.2598877,0.5006104,0.5529785,0.9810791,0.878418,1.4371338
				c0.0297852,0.0418701,0.0616455,0.081665,0.092041,0.1230469c0.6922607,0.944458,1.515625,1.786499,2.4494629,2.4927979
				c0.0153809,0.0115967,0.0307617,0.0229492,0.0461426,0.0344238C8.772583,49.3115234,9.8452148,49.8933105,11,50.302124
				c0.7032471-0.2490234,1.3636475-0.5802002,2-0.9492188v-6.484375l-4.5546875-3.036499
				c-0.4589844-0.3066406-0.5839844-0.9267578-0.2773438-1.3867188c0.3085938-0.4609375,0.9296875-0.5820312,1.3867188-0.2773438
				L13,40.4648438V33c0-0.5527344,0.4472656-1,1-1s1,0.4472656,1,1v14.8857422C17.4411621,45.6929932,19,42.5406494,19,38.9996338z"
				/>
		</g>
		<path class="st5" d="M47.5338135,50.3366699C47.2098389,49.9812012,47,49.5183105,47,48.9993896
			c0-0.9942627,0.7385254-1.7823486,1.6889648-1.9373779c0.0078125-0.128418,0.0383301-0.2502441,0.0383301-0.3806152
			c0-0.751709-0.1539307-1.4627686-0.3964844-2.1307373c0.133667,0.0085449,0.2606201,0.039917,0.3964844,0.039917
			c3.2354736,0,5.8675537-2.4589844,6.2053223-5.6046143C53.861084,38.9482422,53,38.0802002,53,36.9993896
			c0-0.7932129,0.4710693-1.4647217,1.1403809-1.788208c-0.2235107-0.3825684-0.4732666-0.7476807-0.7683105-1.0751953
			C54.3734131,33.0244141,55,31.5679932,55,29.9542236c0-2.0438232-0.9924316-3.8416748-2.5053711-4.9869385
			c0.2487793-0.7362061,0.4144287-1.5111084,0.4144287-2.3312988c0-4.041626-3.2764893-7.3181152-7.3181152-7.3181152
			c-0.3902588,0-0.765625,0.0560303-1.1392822,0.1147461c-0.0400391-0.3122559-0.1239014-0.6090088-0.2015381-0.9078369
			c-0.3449707,0.2827148-0.769043,0.4748535-1.2498779,0.4748535C41.8955078,14.9996338,41,14.104126,41,12.9993896
			c0-0.8555908,0.5424805-1.5726318,1.2978516-1.8583984c-1.3094482-1.2866211-3.0849609-2.0959473-5.0705566-2.0959473
			c-2.0671387,0-3.913208,0.8723145-5.237793,2.2532959c0.5935059,0.3469238,1.0111084,0.9639893,1.0111084,1.7010498
			c0,1.1047363-0.8956299,2.0002441-2.0003662,2.0002441c-0.9741211,0-1.7476807-0.710083-1.9259033-1.6320801
			c-0.4061279-0.0859375-0.8238525-0.140625-1.2561035-0.140625c-3.4643555,0-6.2728271,2.8083496-6.2728271,6.2727051
			c0,1.7183838,0.7307129,3.2338867,1.8532715,4.362915c0.3625488-0.5095215,0.9285889-0.8634033,1.6015625-0.8634033
			c1.1047363,0,2.0003662,0.8955078,2.0003662,2.0002441s-0.8956299,2.0002441-2.0003662,2.0002441S23,26.104126,23,24.9993896
			c0-0.1004639,0.0429688-0.1867676,0.057251-0.2833252c-2.1514893,1.2731934-3.6026611,3.602417-3.6026611,6.2835693
			c0,2.9940186,1.8028564,5.5600586,4.3779297,6.6933594c-1.3858643,1.1506348-2.2871094,2.864624-2.2871094,4.8066406
			c0,1.9770508,0.9329834,3.7188721,2.3621826,4.8685303c0.3184814-0.2141113,0.6800537-0.3690186,1.0926514-0.3690186
			c0.9926758,0,1.779541,0.736084,1.9365234,1.6843262c0.2905273,0.0412598,0.5795898,0.0888672,0.8814697,0.0888672
			c0.1275635,0,0.2467041-0.0300293,0.3724365-0.0374756c0.8536377,2.4499512,3.1591797,4.2193604,5.9002686,4.2193604
			c1.0592041,0,2.0384521-0.2904053,2.9090576-0.7590332v-1.1955566c-1.1046143-0.0002441-2-0.8956299-2-2.0002441
			s0.8953857-2,2-2.0002441v-11.692627l-6.640625-5.5389404c-0.4238281-0.3535156-0.4804688-0.984375-0.1269531-1.4082031
			c0.3554688-0.4248047,0.9863281-0.4785156,1.4082031-0.1269531L37,32.7026367v-5.7030029
			c-1.1046143-0.0002441-2-0.8956299-2-2.0002441s0.8953857-2,2-2.0002441V21c0-0.5527344,0.4472656-1,1-1s1,0.4472656,1,1
			v3.9963379c0,0.0010986,0.0006104,0.0019531,0.0006104,0.0030518S39,25.0013428,39,25.0024414v18.5834961l4.7346191-4.7346191
			c-0.2282715,0.0905762-0.473877,0.1483154-0.734375,0.1483154C41.8955078,38.9996338,41,38.104126,41,36.9993896
			s0.8955078-2.0002441,2.0002441-2.0002441s2.0003662,0.8955078,2.0003662,2.0002441
			c0,0.260498-0.0577393,0.5059814-0.1483154,0.7342529l3.4406738-3.4406738c0.390625-0.390625,1.0234375-0.390625,1.4140625,0
			s0.390625,1.0234375,0,1.4140625l-10,10C39.5117188,45.9023438,39.2558594,46,39,46v2.9963379
			c0,0.0010986,0.0006104,0.0019531,0.0006104,0.0030518S39,49.0013428,39,49.0024414v2.8735352
			c0.991333,0.668457,2.168457,1.0782471,3.4545898,1.0782471C44.5507812,52.9542236,46.3947754,51.9162598,47.5338135,50.3366699z
			 M31.0002441,34.9991455c1.1047363,0,2.0003662,0.8955078,2.0003662,2.0002441s-0.8956299,2.0002441-2.0003662,2.0002441
			S29,38.104126,29,36.9993896S29.8955078,34.9991455,31.0002441,34.9991455z M49.0002441,26.9996338
			C47.8955078,26.9996338,47,26.104126,47,24.9993896s0.8955078-2.0002441,2.0002441-2.0002441
			s2.0003662,0.8955078,2.0003662,2.0002441S50.1049805,26.9996338,49.0002441,26.9996338z"/>
		<circle class="st4" cx="31.0002747" cy="36.9993896" r="2.0002747"/>
		<path class="st4" d="M43.0002441,34.9991455C41.8955078,34.9991455,41,35.8946533,41,36.9993896
			s0.8955078,2.0002441,2.0002441,2.0002441c0.260498,0,0.5061035-0.0577393,0.734375-0.1483154l1.1176758-1.1176758
			c0.0905762-0.2282715,0.1483154-0.4737549,0.1483154-0.7342529
			C45.0006104,35.8946533,44.1049805,34.9991455,43.0002441,34.9991455z"/>
		<path class="st4" d="M53,36.9993896c0,1.0808105,0.861084,1.9488525,1.9326172,1.9865723
			C54.956543,38.7634277,55,38.5467529,55,38.3178711c0-1.1384277-0.3244629-2.1907959-0.8596191-3.1066895
			C53.4710693,35.534668,53,36.2061768,53,36.9993896z"/>
		<circle class="st4" cx="49.0002747" cy="24.9993896" r="2.0002747"/>
		<polygon class="st4" points="39,24.9963379 39,25.0024414 39.0006104,24.9993896 		"/>
		<path class="st4" d="M35,24.9993896c0,1.1046143,0.8953857,2,2,2.0002441v-4.0004883
			C35.8953857,22.9993896,35,23.8947754,35,24.9993896z"/>
		<path class="st4" d="M25.0002441,26.9996338c1.1047363,0,2.0003662-0.8955078,2.0003662-2.0002441
			s-0.8956299-2.0002441-2.0003662-2.0002441c-0.6729736,0-1.2390137,0.3538818-1.6015625,0.8634033
			c0.1461182,0.1468506,0.274292,0.3112793,0.4338379,0.4437256c-0.269043,0.1184082-0.524292,0.2612305-0.7752686,0.40979
			C23.0429688,24.8126221,23,24.8989258,23,24.9993896C23,26.104126,23.8955078,26.9996338,25.0002441,26.9996338z"/>
		<path class="st4" d="M31.0002441,14.9996338c1.1047363,0,2.0003662-0.8955078,2.0003662-2.0002441
			c0-0.7370605-0.4176025-1.354126-1.0111084-1.7010498c-0.6837158,0.7128906-1.2371826,1.5533447-1.5922852,2.4962158
			c-0.4188232-0.1896973-0.862915-0.3295898-1.322876-0.427002C29.2525635,14.2895508,30.026123,14.9996338,31.0002441,14.9996338z"
			/>
		<path class="st4" d="M41,12.9993896c0,1.1047363,0.8955078,2.0002441,2.0002441,2.0002441
			c0.480835,0,0.9049072-0.1921387,1.2498779-0.4748535c-0.3399658-1.307373-1.0196533-2.4675293-1.9522705-3.3837891
			C41.5424805,11.4267578,41,12.1437988,41,12.9993896z"/>
		<polygon class="st4" points="39,48.9963379 39,49.0024414 39.0006104,48.9993896 		"/>
		<path class="st4" d="M35,48.9993896c0,1.1046143,0.8953857,2,2,2.0002441v-4.0004883
			C35.8953857,46.9993896,35,47.8947754,35,48.9993896z"/>
		<path class="st4" d="M47,48.9993896c0,0.5189209,0.2098389,0.9818115,0.5338135,1.3372803
			c0.6727295-0.9327393,1.0806885-2.055542,1.1551514-3.2746582C47.7385254,47.217041,47,48.005127,47,48.9993896z"/>
		<path class="st4" d="M25.0002441,46.9991455c-0.4125977,0-0.7741699,0.1549072-1.0926514,0.3690186
			c0.8570557,0.6894531,1.8884277,1.1534424,3.0291748,1.3153076
			C26.7797852,47.7352295,25.9929199,46.9991455,25.0002441,46.9991455z"/>
		<path class="st6" d="M75.1933594,61.7724609H64.3535156v-8h6.8580322c0.6262207,0,1.2161865-0.4664307,1.5942383-0.9655762
			c0.2348633-0.3100586,0.3322754-0.7073975,0.3612061-1.1109619c0.0639648-0.3613281,0.057373-0.7381592-0.0322266-1.0518799
			l-8.5585938-29.7563477c-0.2429199-0.8634033-1.0303955-1.1152344-1.9250488-1.1152344c-0.0093994,0-0.0186768,0-0.0281982,0
			c0,0-0.0002441,0-0.0003662,0c-0.4530029,0-0.8752441,0.0618896-1.2122803,0.2332764
			c-0.0063477,0.0032959-0.0101318,0.0096436-0.0164795,0.0130615c-0.1601562,0.0843506-0.3027344,0.190918-0.4168701,0.3317871
			c-0.039917,0.0491943-0.0557861,0.1258545-0.0891113,0.1827393c-0.0651855,0.1115723-0.1381836,0.2142334-0.1749268,0.3583984
			l-7.6508789,29.8068848c-0.078125,0.3062744-0.0793457,0.6970215-0.0134277,1.0718994
			c0.0253906,0.4191895,0.1241455,0.8344727,0.3741455,1.1550293C53.8017578,53.4116211,54.383667,53.7724609,55,53.7724609
			h7.3535156v8H39v-7.604248c1.0800781,0.5057373,2.2529297,0.7860107,3.4545898,0.7860107
			c4.5616455,0,8.2727051-3.7111816,8.2727051-8.2728271c0-0.1108398-0.0025635-0.2219238-0.0075684-0.333374
			c1.6068115-0.3986816,3.0101318-1.2866211,4.0933838-2.4716797l1.932373-7.5283203
			c-0.1937256-0.7734375-0.4897461-1.5200195-0.901001-2.2120361C56.5968018,32.8699951,57,31.4295654,57,29.9542236
			c0-2.130127-0.8095703-4.1278076-2.2581787-5.6525879c0.1120605-0.5644531,0.1672363-1.1162109,0.1672363-1.6656494
			c0-5-3.9584961-9.0928955-8.9061279-9.309082c-1.2702637-3.6851807-4.7645264-6.2818604-8.7756348-6.2818604
			c-3.199707,0-6.1595459,1.68396-7.8466797,4.3343506c-0.5146484-0.1014404-1.036377-0.1524658-1.5623779-0.1524658
			c-4.5616455,0-8.2728271,3.7111816-8.2728271,8.2727051c0,1.5551758,0.4440918,3.057251,1.2595215,4.3530273
			c-0.6246338,0.5211182-1.1644287,1.1264648-1.6293945,1.7836914C17.8562012,25.2232666,16.4537354,24.9996338,15,24.9996338
			c-7.7196045,0-14,6.2803955-14,14c0,7.0388184,5.2269287,12.864624,12,13.840332v8.9324951H1.1933594
			c-0.5527344,0-1,0.4472656-1,1s0.4472656,1,1,1h74c0.5527344,0,1-0.4472656,1-1S75.7460938,61.7724609,75.1933594,61.7724609z
			 M14,32c-0.5527344,0-1,0.4472656-1,1v7.4648438l-3.4453125-2.296875
			c-0.4570312-0.3046875-1.078125-0.1835938-1.3867188,0.2773438c-0.3066406,0.4599609-0.1816406,1.0800781,0.2773438,1.3867188
			L13,42.8685303v6.484375v1.4667969c-1.9256592-0.3238525-3.6915283-1.1037598-5.1896973-2.2287598
			c-0.0153809-0.0114746-0.0307617-0.0228271-0.0461426-0.0344238c-0.9333496-0.7077637-1.7580566-1.5465088-2.4494629-2.4927979
			c-0.0303955-0.0413818-0.0622559-0.0811768-0.092041-0.1230469c-0.3249512-0.4569092-0.6188965-0.935791-0.878418-1.4371338
			c-0.0344238-0.0661621-0.0638428-0.1345215-0.0970459-0.2015381c-0.229248-0.4639893-0.4309082-0.9432373-0.5996094-1.4388428
			c-0.0206299-0.0601807-0.0457764-0.1176758-0.0653076-0.1782227c-0.1677246-0.5201416-0.2941895-1.0574951-0.3902588-1.605957
			c-0.0211182-0.1203613-0.0377197-0.2412109-0.0552979-0.3626709C3.0560303,40.1541748,3,39.5841064,3,38.9996338
			s0.0560303-1.154541,0.1367188-1.7166748c0.0175781-0.12146,0.0341797-0.2423096,0.0552979-0.3626709
			c0.0960693-0.5484619,0.2225342-1.0858154,0.3902588-1.605957c0.0195312-0.0605469,0.0446777-0.118042,0.0653076-0.1782227
			c0.1687012-0.4956055,0.3703613-0.9748535,0.5996094-1.4388428c0.0332031-0.0670166,0.0626221-0.135376,0.0970459-0.2015381
			c0.2595215-0.5013428,0.5534668-0.9802246,0.878418-1.4371338c0.0297852-0.0418701,0.0616455-0.081665,0.092041-0.1230469
			c0.6914062-0.9462891,1.5161133-1.7850342,2.4494629-2.4927979c0.0153809-0.0115967,0.0307617-0.0229492,0.0461426-0.0344238
			C9.8155518,27.9025879,12.2993164,26.9996338,15,26.9996338c1.102417,0,2.1652832,0.1611328,3.1793213,0.4394531
			c-0.4620361,1.1105957-0.7247314,2.3131104-0.7247314,3.5605469c0,2.8006592,1.2612305,5.4039307,3.3503418,7.1469727
			c-0.8154297,1.2957764-1.2595215,2.7978516-1.2595215,4.3530273c0,2.4016113,1.0512695,4.5435791,2.6911621,6.0562744
			C20.2233887,50.0828857,17.7216797,50.9996338,15,50.9996338v-3.1138916V33C15,32.4472656,14.5527344,32,14,32z M37,61.7724609H15
			v-8.7728271c3.3856201,0,6.4935303-1.2088623,8.9171143-3.2164307c0.9082031,0.4885254,1.9124756,0.8197021,2.982666,0.9384766
			c1.4442139,2.5791016,4.1810303,4.2325439,7.1911621,4.2325439c1.0018311,0,1.9830322-0.1999512,2.9090576-0.5549316V61.7724609z
			 M38,20c-0.5527344,0-1,0.4472656-1,1v1.9991455v4.0004883v5.7030029l-5.359375-4.4702148
			c-0.421875-0.3515625-1.0527344-0.2978516-1.4082031,0.1269531c-0.3535156,0.4238281-0.296875,1.0546875,0.1269531,1.4082031
			L37,35.3065186v11.692627v4.0004883v1.1955566c-0.8706055,0.4686279-1.8498535,0.7590332-2.9090576,0.7590332
			c-2.7410889,0-5.0466309-1.7694092-5.9002686-4.2193604c-0.1257324,0.0074463-0.244873,0.0374756-0.3724365,0.0374756
			c-0.3018799,0-0.5909424-0.0476074-0.8814697-0.0888672c-1.1407471-0.1618652-2.1721191-0.6258545-3.0291748-1.3153076
			c-1.4291992-1.1496582-2.3621826-2.8914795-2.3621826-4.8685303c0-1.9420166,0.9012451-3.6560059,2.2871094-4.8066406
			c-2.5750732-1.1333008-4.3779297-3.6993408-4.3779297-6.6933594c0-2.6811523,1.4511719-5.010376,3.6026611-6.2835693
			c0.2509766-0.1485596,0.5062256-0.2913818,0.7752686-0.40979c-0.1595459-0.1324463-0.2877197-0.296875-0.4338379-0.4437256
			c-1.1225586-1.1290283-1.8532715-2.6445312-1.8532715-4.362915c0-3.4643555,2.8084717-6.2727051,6.2728271-6.2727051
			c0.432251,0,0.8499756,0.0546875,1.2561035,0.140625c0.4599609,0.0974121,0.9040527,0.2373047,1.322876,0.427002
			c0.3551025-0.9428711,0.9085693-1.7833252,1.5922852-2.4962158c1.324585-1.3809814,3.1706543-2.2532959,5.237793-2.2532959
			c1.9855957,0,3.7611084,0.8093262,5.0705566,2.0959473c0.9326172,0.9162598,1.6123047,2.076416,1.9522705,3.3837891
			c0.0776367,0.2988281,0.161499,0.5955811,0.2015381,0.9078369c0.3736572-0.0587158,0.7490234-0.1147461,1.1392822-0.1147461
			c4.041626,0,7.3181152,3.2764893,7.3181152,7.3181152c0,0.8201904-0.1656494,1.5950928-0.4144287,2.3312988
			C54.0075684,26.1125488,55,27.9104004,55,29.9542236c0,1.6137695-0.6265869,3.0701904-1.6279297,4.1817627
			c0.2950439,0.3275146,0.5447998,0.692627,0.7683105,1.0751953C54.6755371,36.1270752,55,37.1794434,55,38.3178711
			c0,0.2288818-0.043457,0.4455566-0.0673828,0.6680908c-0.3377686,3.1456299-2.9698486,5.6046143-6.2053223,5.6046143
			c-0.1358643,0-0.2628174-0.0313721-0.3964844-0.039917c0.2425537,0.6679688,0.3964844,1.3790283,0.3964844,2.1307373
			c0,0.1303711-0.0305176,0.2521973-0.0383301,0.3806152c-0.0744629,1.2191162-0.4824219,2.3419189-1.1551514,3.2746582
			c-1.1390381,1.5795898-2.9830322,2.6175537-5.0792236,2.6175537c-1.2861328,0-2.4632568-0.40979-3.4545898-1.0782471v-2.8735352
			v-0.0061035V46c0.2558594,0,0.5117188-0.0976562,0.7070312-0.2929688l10-10c0.390625-0.390625,0.390625-1.0234375,0-1.4140625
			s-1.0234375-0.390625-1.4140625,0l-3.4406738,3.4406738l-1.1176758,1.1176758L39,43.5859375V25.0024414v-0.0061035V21
			C39,20.4472656,38.5527344,20,38,20z M60.9376221,51.7724609h-2.5706787H55l1.5889893-6.2305908l1.2132568-4.7572021
			l1.2132568-4.7573242l1.2131348-4.7570801l1.2489014-4.8970947l1.1733398-4.600708l8.3400879,29.2271729l0.2205811,0.7728271
			h-2.4862061h-2.6462402h-2.5706787H60.9376221z"/>
		<g>
			<polygon class="st4" points="62.650898,21.7724724 61.4775581,26.3731804 68.7253571,51.7724724 71.2115631,51.7724724 			"/>
		</g>
		<g>
			<polygon class="st5" points="61.4775391,26.3731689 60.2286377,31.2702637 66.0791016,51.7724609 68.7253418,51.7724609 
				68.5048828,50.9996338 			"/>
		</g>
		<g>
			<polygon class="st4" points="60.2286377,31.2702637 59.0155029,36.0273438 63.5084229,51.7724609 66.0791016,51.7724609 			"/>
		</g>
		<g>
			<polygon class="st5" points="59.0155029,36.0273438 57.8022461,40.784668 60.9376221,51.7724609 63.5084229,51.7724609 			"/>
		</g>
		<g>
			<polygon class="st4" points="57.8022461,40.784668 56.5889893,45.5418701 58.3669434,51.7724609 60.9376221,51.7724609 			"/>
		</g>
		<g>
			<polygon class="st5" points="56.5889893,45.5418701 55,51.7724609 58.3669434,51.7724609 			"/>
		</g>
		<path class="st7" d="M6.2929688,19.7070312C6.4882812,19.9023438,6.7441406,20,7,20s0.5117188-0.0976562,0.7070312-0.2929688l6-6
			c0.390625-0.390625,0.390625-1.0234375,0-1.4140625s-1.0234375-0.390625-1.4140625,0L7,17.5859375l-5.2929688-5.2929688
			c-0.390625-0.390625-1.0234375-0.390625-1.4140625,0s-0.390625,1.0234375,0,1.4140625L6.2929688,19.7070312z"/>
		<path class="st7" d="M18.2929688,7.7070312C18.4882812,7.9023438,18.7441406,8,19,8s0.5117188-0.0976562,0.7070312-0.2929688l6-6
			c0.390625-0.390625,0.390625-1.0234375,0-1.4140625s-1.0234375-0.390625-1.4140625,0L19,5.5859375l-5.2929688-5.2929688
			c-0.390625-0.390625-1.0234375-0.390625-1.4140625,0s-0.390625,1.0234375,0,1.4140625L18.2929688,7.7070312z"/>
		
			<ellipse transform="matrix(0.3894964 -0.921028 0.921028 0.3894964 21.4867477 53.0007133)" class="st5" cx="50.7227783" cy="10.292511" rx="0.6101443" ry="0.6102005"/>
		<path class="st5" d="M48.2712402,3.425415c0.4686279-0.4686279,0.4686279-1.2283936,0-1.6970215s-1.2283936-0.4686279-1.6970215,0
			s-0.4686279,1.2283936,0,1.6970215S47.8026123,3.894043,48.2712402,3.425415z M47,2.1541748
			c0.2335205-0.2335205,0.6120605-0.2335205,0.8455811,0s0.2335205,0.6120605,0,0.845459
			c-0.2335205,0.2336426-0.6120605,0.2336426-0.8455811,0C46.7664795,2.7662354,46.7664795,2.3876953,47,2.1541748z"/>
		<path class="st5" d="M57,10.9996338l0.5766602,1.8699951l0.5767822-1.8699951
			c0.1092529-0.354248,0.3864746-0.6314697,0.7407227-0.7407227l1.8699951-0.5767822L58.894165,9.1054688
			c-0.354248-0.1092529-0.6314697-0.3864746-0.7407227-0.7407227l-0.5767822-1.8701172L57,8.3647461
			c-0.1092529,0.354248-0.3865967,0.6314697-0.7408447,0.7407227l-1.8699951,0.5766602l1.8699951,0.5767822
			C56.6134033,10.3681641,56.8907471,10.6453857,57,10.9996338z M57.5766602,9.149292
			c0.2943115,0,0.5328369,0.2386475,0.5328369,0.5328369c0,0.2943115-0.2385254,0.5328369-0.5328369,0.5328369
			c-0.2941895,0-0.5328369-0.2385254-0.5328369-0.5328369C57.0438232,9.3879395,57.2824707,9.149292,57.5766602,9.149292z"/>
		<circle class="st4" cx="57.5766602" cy="9.6821289" r="0.5328369"/>
	</g>
</g>
</svg>
