<?xml version="1.0" encoding="utf-8"?>
<!-- Generator: Adobe Illustrator 19.2.1, SVG Export Plug-In . SVG Version: 6.00 Build 0)  -->
<svg version="1.1" id="Layer_1_copy" xmlns="http://www.w3.org/2000/svg" xmlns:xlink="http://www.w3.org/1999/xlink" x="0px"
	 y="0px" viewBox="0 0 34 34" style="enable-background:new 0 0 34 34;" xml:space="preserve">
<style type="text/css">
	.st0{fill:#FDECC0;}
	.st1{fill:#FFFFFF;}
	.st2{fill:#F8C02C;}
</style>
<g>
	<path class="st0" d="M17,0C7.6,0,0,7.6,0,17c0,9.4,7.6,17,17,17c9.4,0,17-7.6,17-17C34,7.6,26.4,0,17,0z M26.7,24.6
		c0,1.1-0.9,2-2,2H9.6c-1.1,0-1.9-0.9-1.9-2v-13c0-1.1,0.8-2,1.9-2h0.1V8.5c0-1.1,0.9-1.9,2-1.9h1c1.1,0,2,0.8,2,1.9v1.1h5V8.5
		c0-1.1,0.9-1.9,2-1.9h1c1.1,0,2,0.8,2,1.9v1.1h0c1.1,0,2,0.9,2,2V24.6z"/>
	<rect x="9.7" y="14.6" class="st1" width="15" height="10"/>
	<polygon class="st1" points="12.7,9.6 12.7,8.6 11.7,8.6 11.7,9.6 11.7,10.6 12.7,10.6 	"/>
	<polygon class="st1" points="22.7,9.6 22.7,8.6 21.7,8.6 21.7,9.6 21.7,10.6 22.7,10.6 	"/>
	<path class="st2" d="M24.7,9.6L24.7,9.6l0-1.1c0-1.1-0.9-1.9-2-1.9h-1c-1.1,0-2,0.8-2,1.9v1.1h-5V8.5c0-1.1-0.9-1.9-2-1.9h-1
		c-1.1,0-2,0.8-2,1.9v1.1H9.6c-1.1,0-1.9,0.9-1.9,2v13c0,1.1,0.8,2,1.9,2h15.1c1.1,0,2-0.9,2-2v-13C26.7,10.5,25.8,9.6,24.7,9.6z
		 M21.7,9.6v-1h1v1v1h-1V9.6z M11.7,9.6v-1h1v1v1h-1V9.6z M24.7,24.6h-15v-10h15V24.6z"/>
</g>
</svg>
