<?xml version="1.0" encoding="utf-8"?>
<!-- Generator: Adobe Illustrator 19.2.1, SVG Export Plug-In . SVG Version: 6.00 Build 0)  -->
<svg version="1.1" id="Layer_1" xmlns="http://www.w3.org/2000/svg" xmlns:xlink="http://www.w3.org/1999/xlink" x="0px" y="0px"
	 viewBox="0 0 54 54" style="enable-background:new 0 0 54 54;" xml:space="preserve">
<style type="text/css">
	.st0{fill:#61C7CB;}
	.st1{fill:none;}
	.st2{fill:#FFFFFF;}
	.st3{fill:#C4F2F2;}
</style>
<g>
	<circle class="st0" cx="27" cy="27" r="27"/>
</g>
<g>
	<ellipse transform="matrix(0.7071 -0.7071 0.7071 0.7071 -20.8436 37.1034)" class="st1" cx="34.4" cy="43.7" rx="0.3" ry="0.3"/>
	<rect x="13.2" y="31.9" class="st1" width="3" height="6"/>
	<rect x="37.2" y="31.9" class="st1" width="4" height="6"/>
	<ellipse transform="matrix(0.3895 -0.921 0.921 0.3895 -18.4373 55.1058)" class="st2" cx="32.4" cy="41.5" rx="0.5" ry="0.5"/>
	<path class="st2" d="M33.9,43.3c-0.2,0.2-0.2,0.6,0,0.8s0.6,0.2,0.8,0s0.2-0.6,0-0.8C34.6,43.1,34.2,43.1,33.9,43.3z M34.6,43.9
		c-0.1,0.1-0.3,0.1-0.4,0s-0.1-0.3,0-0.4s0.3-0.1,0.4,0S34.7,43.8,34.6,43.9z"/>
	<path class="st2" d="M20.7,41.6l-0.3-0.9l-0.3,0.9c-0.1,0.2-0.2,0.3-0.4,0.4l-0.9,0.3l0.9,0.3c0.2,0.1,0.3,0.2,0.4,0.4l0.3,0.9
		l0.3-0.9c0.1-0.2,0.2-0.3,0.4-0.4l0.9-0.3L21.1,42C20.9,41.9,20.8,41.8,20.7,41.6z M20.4,42.5c-0.1,0-0.3-0.1-0.3-0.3
		s0.1-0.3,0.3-0.3c0.1,0,0.3,0.1,0.3,0.3S20.6,42.5,20.4,42.5z"/>
	<circle class="st0" cx="20.4" cy="42.3" r="0.3"/>
	<path d="M45.7,37.9h-3.5v-6h1c0.6,0,1-0.4,1-1v-7.7c0-2-1.2-3.8-3-4.6c1.2-0.7,2-2,2-3.4c0-2.2-1.8-4-4-4s-4,1.8-4,4
		c0,1.5,0.8,2.7,2,3.4c-1.8,0.8-3,2.5-3,4.6v7.7c0,0.6,0.4,1,1,1h1v6h-19v-6h3c0.3,0,0.7-0.2,0.8-0.5c0.2-0.3,0.2-0.7,0.1-1
		l-5.5-11.4c1.8-0.4,3.1-2,3.1-3.9c0-2.2-1.8-4-4-4s-4,1.8-4,4c0,1.9,1.3,3.5,3.1,3.9L8.2,30.5c-0.2,0.3-0.1,0.7,0.1,1
		c0.2,0.3,0.5,0.5,0.8,0.5h3.1v6h-4c-0.3,0-0.5,0.2-0.5,0.5s0.2,0.5,0.5,0.5H26l-3.4,7.6c-0.1,0.3-0.1,0.7,0.1,1
		c0.2,0.3,0.5,0.5,0.8,0.5h7.1c0.3,0,0.7-0.2,0.8-0.5s0.2-0.6,0.1-1L28,38.9h17.6c0.3,0,0.5-0.2,0.5-0.5S45.9,37.9,45.7,37.9z
		 M11.6,15.2c0-1.7,1.3-3,3-3s3,1.3,3,3s-1.3,3-3,3S11.6,16.9,11.6,15.2z M9.1,30.9l5.5-11.5l5.5,11.5h-2h-2h0h-3H9.1z M13.2,37.9
		v-6h3v6H13.2z M23.5,46.9l3.5-7.8l3.5,7.8H23.5z M36.2,15.2c0-1.7,1.3-3,3-3s3,1.3,3,3s-1.3,3-3,3S36.2,16.9,36.2,15.2z M35.2,30.9
		c0,0,0-5.5,0-7.7c0-2,1.5-3.6,3.4-3.9c0.2,0,0.4-0.1,0.6-0.1c2.2,0,4,1.8,4,4s0,7.7,0,7.7h-2h-4H35.2z M37.2,37.9v-6h4v6H37.2z"/>
	<polygon class="st2" points="23.5,46.9 30.5,46.9 27,39.1 	"/>
	<polygon class="st2" points="18.2,30.9 13.6,21.5 14.6,19.5 9.1,30.9 	"/>
	<g>
		<polygon class="st3" points="18.2,30.9 20.2,30.9 14.6,19.5 13.6,21.5 		"/>
	</g>
	<circle class="st3" cx="39.2" cy="15.2" r="3"/>
	<path class="st2" d="M41.2,30.9c0,0,0-5.5,0-7.7c0-1.9-1.3-3.4-3-3.9c0.1,0,0.3-0.1,0.4-0.1c-1.9,0.3-3.4,1.9-3.4,3.9
		c0,2.2,0,7.7,0,7.7H41.2z"/>
	<g>
		<path class="st3" d="M41.2,23.2c0,2.2,0,7.7,0,7.7h2c0,0,0-5.5,0-7.7s-1.8-4-4-4c-0.2,0-0.4,0-0.6,0.1c-0.1,0-0.3,0-0.4,0.1
			C39.9,19.8,41.2,21.3,41.2,23.2z"/>
	</g>
	<circle class="st3" cx="14.6" cy="15.2" r="3"/>
</g>
</svg>
