<?xml version="1.0" encoding="utf-8"?>
<!-- Generator: Adobe Illustrator 16.0.4, SVG Export Plug-In . SVG Version: 6.00 Build 0)  -->
<!DOCTYPE svg PUBLIC "-//W3C//DTD SVG 1.1//EN" "http://www.w3.org/Graphics/SVG/1.1/DTD/svg11.dtd">
<svg version="1.1" id="Layer_1" xmlns="http://www.w3.org/2000/svg" xmlns:xlink="http://www.w3.org/1999/xlink" x="0px" y="0px"
	 width="26.978px" height="34.32px" viewBox="0 0 26.978 34.32" enable-background="new 0 0 26.978 34.32" xml:space="preserve">
<g>
	<path fill="#321A0E" d="M24.603,13.618c-0.484-0.364-0.833-0.879-1.028-1.46l-1.57,1.57l2.139,2.139
		c-0.052-0.263-0.076-0.534-0.055-0.814C24.13,14.517,24.322,14.033,24.603,13.618z"/>
	
		<rect x="15.762" y="11.729" transform="matrix(-0.7071 -0.7071 0.7071 -0.7071 20.6136 35.9955)" fill="#321A0E" width="4" height="4"/>
	<path fill="#321A0E" d="M13.526,12.321l0.7,0.7l2.828-2.829l-3.182-3.182l-1.514,1.514c0.059,0.059,0.104,0.13,0.128,0.212
		L13.526,12.321z"/>
	<path fill="#321A0E" d="M23.427,10.892c0.044-0.385,0.168-0.735,0.34-1.058l-2.47-2.47l-2.828,2.828l2.828,2.829L23.427,10.892z"/>
	<polygon fill="#321A0E" points="20.59,20.799 17.762,17.971 16.925,18.808 19.814,21.575 	"/>
	<polygon fill="#321A0E" points="16.202,18.116 17.055,17.264 14.227,14.436 14.159,14.503 14.823,16.796 	"/>
	
		<rect x="15.335" y="4.48" transform="matrix(0.707 0.7072 -0.7072 0.707 9.7355 -10.5376)" fill="#321A0E" width="4.5" height="4"/>
	<path fill="#321A0E" d="M25.912,19.05l-1.079-1.079l-2.829,2.828l2.476,2.476l2.498-2.499C26.442,20.344,26.057,19.74,25.912,19.05
		z"/>
	<polygon fill="#321A0E" points="21.297,21.506 20.536,22.267 23.058,24.681 23.063,24.689 23.772,23.981 	"/>
	<path fill="#321A0E" d="M24.479,2.768l-2.476-2.475c-0.391-0.391-1.022-0.391-1.414,0l-2.475,2.475l3.182,3.183L24.479,2.768z"/>
	<path fill="#321A0E" d="M24.371,9.024c0.191-0.175,0.401-0.328,0.632-0.449c-0.214-0.455-0.325-0.962-0.283-1.498
		c0.085-1.08,0.739-1.973,1.639-2.431l-1.172-1.172l-3.183,3.183L24.371,9.024z"/>
	
		<rect x="19.297" y="15.264" transform="matrix(0.7072 0.707 -0.707 0.7072 18.4404 -10.0026)" fill="#321A0E" width="4" height="4"/>
	<path fill="#F8C02C" d="M20.536,22.267l-0.722-0.691l-2.89-2.768l-0.723-0.691l-1.379-1.32l-0.664-2.293l-0.633-2.182l-1.039-3.585
		c-0.024-0.082-0.069-0.153-0.128-0.212c-0.062-0.062-0.14-0.11-0.229-0.133c-0.171-0.045-0.353,0.007-0.478,0.131L0.438,19.738
		c-0.584,0.586-0.584,1.537,0,2.121l12.021,12.021c0.283,0.283,0.66,0.439,1.061,0.439s0.777-0.156,1.061-0.439l8.485-8.485
		c0.095-0.095,0.147-0.225,0.146-0.359c-0.002-0.13-0.056-0.254-0.148-0.347c-0.002-0.002-0.003-0.006-0.006-0.009L20.536,22.267z"
		/>
</g>
</svg>
