<?xml version="1.0" encoding="utf-8"?>
<!-- Generator: Adobe Illustrator 19.2.1, SVG Export Plug-In . SVG Version: 6.00 Build 0)  -->
<svg version="1.1" id="Layer_1" xmlns="http://www.w3.org/2000/svg" xmlns:xlink="http://www.w3.org/1999/xlink" x="0px" y="0px"
	 viewBox="0 0 54 55" style="enable-background:new 0 0 54 55;" xml:space="preserve">
<style type="text/css">
	.st0{fill:#62C7CB;}
	.st1{fill:none;}
	.st2{fill:#FFFFFF;}
	.st3{fill:#010101;}
	.st4{fill:#C7E8EB;}
</style>
<g>
	<circle class="st0" cx="27" cy="27.2" r="27"/>
</g>
<g>
	<ellipse transform="matrix(0.7071 -0.7071 0.7071 0.7071 -12.7435 29.6999)" class="st1" cx="29.5" cy="30.2" rx="0.3" ry="0.3"/>
	<path class="st1" d="M22,34c0.6,0,1,0.4,1,1c0-0.6,0.4-1,1-1H22z"/>
	<path class="st1" d="M13,40V24V40z"/>
	<path class="st2" d="M30,30.7c0.2-0.2,0.2-0.6,0-0.8s-0.6-0.2-0.8,0s-0.2,0.6,0,0.8S29.7,30.9,30,30.7z M29.3,30
		c0.1-0.1,0.3-0.1,0.4,0s0.1,0.3,0,0.4s-0.3,0.1-0.4,0C29.2,30.3,29.2,30.1,29.3,30z"/>
	<path class="st2" d="M34.1,30.3l0.3,0.9l0.3-0.9c0.1-0.2,0.2-0.3,0.4-0.4l0.9-0.3l-0.9-0.3c-0.2-0.1-0.3-0.2-0.4-0.4L34.4,28
		l-0.3,0.9c-0.1,0.2-0.2,0.3-0.4,0.4l-0.9,0.3l0.9,0.3C33.9,29.9,34.1,30.1,34.1,30.3z M34.4,29.3c0.1,0,0.3,0.1,0.3,0.3
		c0,0.1-0.1,0.3-0.3,0.3s-0.3-0.1-0.3-0.3C34.1,29.4,34.3,29.3,34.4,29.3z"/>
	<circle class="st0" cx="34.4" cy="29.6" r="0.3"/>
	<polygon class="st2" points="30,15.1 28,14.4 28,20 30,20 	"/>
	<polygon class="st2" points="39,18.5 37,17.8 37,20 39,20 	"/>
	<polygon class="st2" points="27,14 25,14.8 25,20 27,20 	"/>
	<rect x="25" y="23" class="st2" width="2" height="1"/>
	<polygon class="st2" points="18,17.4 16,18.1 16,20 18,20 	"/>
	<path class="st2" d="M14,20h1v-1.5l-2,0.8V21C13,20.4,13.4,20,14,20z"/>
	<polygon class="st2" points="33,21 33,16.2 31,15.5 31,21 31,22 31,24 33,24 33,22 	"/>
	<path class="st2" d="M40,18.9V20c0.6,0,1,0.4,1,1v1c0,0.6-0.4,1-1,1v1h1v16h1V19.6L40,18.9z"/>
	<polygon class="st2" points="36,17.4 34,16.6 34,20 36,20 	"/>
	<rect x="28" y="23" class="st2" width="2" height="1"/>
	<rect x="34" y="23" class="st2" width="2" height="1"/>
	<path class="st2" d="M19,20h1c0.6,0,1,0.4,1,1v-4.8L19,17V20z"/>
	<rect x="37" y="23" class="st2" width="2" height="1"/>
	<rect x="16" y="23" class="st2" width="2" height="1"/>
	<path class="st2" d="M20,23h-1v1h2v-2C21,22.6,20.6,23,20,23z"/>
	<polygon class="st2" points="11,20 11,40 12,40 12,19.6 	"/>
	<path class="st2" d="M14,23c-0.6,0-1-0.4-1-1v2h2v-1H14z"/>
	<path class="st2" d="M23,22v-1c0-0.6,0.4-1,1-1v-4.9l-2,0.8V24h2v-1C23.4,23,23,22.6,23,22z"/>
	<path class="st3" d="M43.4,18.1l-16-6C27.2,12,27.1,12,27,12s-0.2,0-0.4,0.1l-16,6C10.3,18.2,10,18.6,10,19v21c0,0.6,0.4,1,1,1h2
		c0.6,0,1-0.4,1-1V25h26v10v5c0,0.6,0.4,1,1,1h2c0.6,0,1-0.4,1-1V19C44,18.6,43.7,18.2,43.4,18.1z M43,40h-2V24H13v16l0,0h-2V19
		l16-6l16,6V40z"/>
	<polygon class="st2" points="19,35 18,35 17,35 17,40 22,40 22,35 21,35 	"/>
	<rect x="24" y="35" class="st2" width="5" height="5"/>
	<path class="st3" d="M29,34h-4c0.6,0,1-0.4,1-1v-5c0-0.6-0.4-1-1-1h-5c-0.6,0-1,0.4-1,1v5c0,0.6,0.4,1,1,1h-3c-0.6,0-1,0.4-1,1v5
		c0,0.6,0.4,1,1,1h5c0.6,0,1-0.4,1-1c0,0.6,0.4,1,1,1h5c0.6,0,1-0.4,1-1v-5C30,34.4,29.6,34,29,34z M20,28h5v5h-5V28z M22,40h-5v-5
		h5V40z M23,35c0-0.6-0.4-1-1-1h2C23.4,34,23,34.4,23,35z M29,40h-5v-5h5V40z"/>
	<rect x="20" y="28" class="st2" width="5" height="5"/>
	<rect x="32" y="35" class="st2" width="5" height="5"/>
	<path class="st3" d="M37,34h-5c-0.6,0-1,0.4-1,1v5c0,0.6,0.4,1,1,1h5c0.6,0,1-0.4,1-1v-5C38,34.4,37.6,34,37,34z M37,40h-5v-5h5V40
		z"/>
	<g>
		<rect x="15" y="23" class="st4" width="1" height="1"/>
		<rect x="18" y="23" class="st4" width="1" height="1"/>
		<rect x="24" y="23" class="st4" width="1" height="1"/>
		<rect x="27" y="23" class="st4" width="1" height="1"/>
		<path class="st4" d="M30,23v1h1v-2C31,22.6,30.6,23,30,23z"/>
		<path class="st4" d="M33,22v2h1v-1C33.4,23,33,22.6,33,22z"/>
		<rect x="36" y="23" class="st4" width="1" height="1"/>
		<rect x="39" y="23" class="st4" width="1" height="1"/>
		<path class="st4" d="M27,13l-16,6v1l1-0.4V40h1V24v-2v-1v-1.8l2-0.8V20h1v-1.9l2-0.8V20h1v-3l2-0.8V21v1v2h1v-8.1l2-0.8V20h1v-5.2
			l2-0.8v6h1v-5.6l2,0.8V20c0.6,0,1,0.4,1,1v-5.5l2,0.8V21c0-0.6,0.4-1,1-1v-3.4l2,0.8V20h1v-2.2l2,0.8V20h1v-1.1l2,0.8V40h1V19
			L27,13z"/>
	</g>
	<rect x="14" y="21" class="st2" width="6" height="1"/>
	<path class="st3" d="M20,20h-6c-0.6,0-1,0.4-1,1v1c0,0.6,0.4,1,1,1h6c0.6,0,1-0.4,1-1v-1C21,20.4,20.6,20,20,20z M20,22h-6v-1h6V22
		z"/>
	<rect x="24" y="21" class="st2" width="6" height="1"/>
	<path class="st3" d="M30,20h-6c-0.6,0-1,0.4-1,1v1c0,0.6,0.4,1,1,1h6c0.6,0,1-0.4,1-1v-1C31,20.4,30.6,20,30,20z M30,22h-6v-1h6V22
		z"/>
	<rect x="34" y="21" class="st2" width="6" height="1"/>
	<path class="st3" d="M34,20c-0.6,0-1,0.4-1,1v1c0,0.6,0.4,1,1,1h6c0.6,0,1-0.4,1-1v-1c0-0.6-0.4-1-1-1H34z M40,22h-6v-1h6V22z"/>
</g>
<rect id="_x3C_Slice_x3E_" class="st1" width="54" height="55"/>
</svg>
