<?xml version="1.0" encoding="utf-8"?>
<!-- Generator: Adobe Illustrator 19.2.1, SVG Export Plug-In . SVG Version: 6.00 Build 0)  -->
<svg version="1.1" id="Facebook" xmlns="http://www.w3.org/2000/svg" xmlns:xlink="http://www.w3.org/1999/xlink" x="0px" y="0px"
	 viewBox="0 0 28 28" style="enable-background:new 0 0 28 28;" xml:space="preserve">
<style type="text/css">
	.st0{fill-rule:evenodd;clip-rule:evenodd;fill:#F7BF2C;}
	.st1{fill:#FFFFFF;}
</style>
<circle class="st0" cx="14" cy="14" r="14"/>
<g>
	<path class="st1" d="M14,13.7l7.1-4.1c0-0.2-0.2-0.3-0.4-0.3H7.3c-0.2,0-0.4,0.1-0.4,0.3L14,13.7z"/>
	<path class="st1" d="M14.3,15.1c-0.1,0-0.2,0.1-0.3,0.1c0,0,0,0,0,0c0,0,0,0,0,0c-0.1,0,0.1,0,0-0.1l-6.6-4v7.1c0,0.2-0.3,0,0,0
		h13.4c0.2,0,0.7,0.2,0.7,0v-7.1L14.3,15.1z"/>
</g>
</svg>
