<?xml version="1.0" encoding="utf-8"?>
<!-- Generator: Adobe Illustrator 16.0.4, SVG Export Plug-In . SVG Version: 6.00 Build 0)  -->
<!DOCTYPE svg PUBLIC "-//W3C//DTD SVG 1.1//EN" "http://www.w3.org/Graphics/SVG/1.1/DTD/svg11.dtd">
<svg version="1.1" id="Layer_1" xmlns="http://www.w3.org/2000/svg" xmlns:xlink="http://www.w3.org/1999/xlink" x="0px" y="0px"
	 width="18px" height="16px" viewBox="0 0 18 16" enable-background="new 0 0 18 16" xml:space="preserve">
<g>
	<path d="M17.728,12.992l-7-12C10.369,0.378,9.712,0,9,0C8.289,0,7.632,0.377,7.273,0.991l-7,11.986
		c-0.361,0.618-0.364,1.383-0.009,2.004c0.356,0.621,1.018,1.004,1.733,1.005l14,0.014c0.001,0,0.001,0,0.001,0
		c0.717,0,1.378-0.383,1.734-1.003C18.091,14.376,18.089,13.611,17.728,12.992z M2,13.986L9,2l7,12L2,13.986z"/>
	<path d="M8.986,11.226c-0.479,0-0.852,0.359-0.852,0.827v0.12C8.135,12.641,8.507,13,8.986,13c0.492,0,0.852-0.359,0.852-0.827
		v-0.12C9.838,11.585,9.479,11.226,8.986,11.226z"/>
	<path d="M8.135,5.024l0.42,4.894c0.024,0.264,0.192,0.432,0.432,0.432c0.24,0,0.42-0.168,0.444-0.432l0.42-4.894
		c0.023-0.287-0.156-0.516-0.432-0.516H8.555C8.279,4.509,8.111,4.737,8.135,5.024z"/>
</g>
</svg>
