<?xml version="1.0" encoding="utf-8"?>
<!-- Generator: Adobe Illustrator 19.2.1, SVG Export Plug-In . SVG Version: 6.00 Build 0)  -->
<svg version="1.1" id="Layer_1" xmlns="http://www.w3.org/2000/svg" xmlns:xlink="http://www.w3.org/1999/xlink" x="0px" y="0px"
	 viewBox="0 0 38.5 36.7272949" style="enable-background:new 0 0 38.5 36.7272949;" xml:space="preserve">
<style type="text/css">
	.st0{fill:none;}
	.st1{fill:#60C7CB;}
	.st2{fill:#FFFFFF;}
	.st3{fill:#C4F2F2;}
</style>
<g>
	
		<ellipse transform="matrix(0.7071068 -0.7071068 0.7071068 0.7071068 -15.1686258 28.4114971)" class="st0" cx="26.7113991" cy="32.5158997" rx="0.2989579" ry="0.2989579"/>
	<rect x="5.5" y="20.7272949" class="st0" width="3" height="6"/>
	<rect x="29.5" y="20.7272949" class="st0" width="4" height="6"/>
	
		<ellipse transform="matrix(0.389529 -0.9210142 0.9210142 0.389529 -12.7983265 41.2207832)" class="st1" cx="24.6956196" cy="30.2647724" rx="0.5021896" ry="0.5021896"/>
	<path class="st1" d="M26.2871094,32.0916748c-0.234314,0.234314-0.234314,0.6141968,0,0.8485107s0.6141968,0.234314,0.8485107,0
		s0.234314-0.6141968,0-0.8485107C26.9013062,31.8572998,26.5214233,31.8572998,26.2871094,32.0916748z M26.9227905,32.7272949
		c-0.1167603,0.1167603-0.3060303,0.1167603-0.4227905,0s-0.1167603-0.3060303,0-0.4227905s0.3060303-0.1167603,0.4227905,0
		S27.0395508,32.6105347,26.9227905,32.7272949z"/>
	<path class="st1" d="M13.0767212,30.40979l-0.2883911-0.9349976L12.5,30.40979
		c-0.0546265,0.177124-0.1932983,0.3157959-0.3704224,0.3704224l-0.9349976,0.2883301l0.9349976,0.2883301
		c0.177124,0.0546265,0.3157959,0.1932983,0.3704224,0.3704224l0.2883301,0.9349976l0.2883911-0.9349976
		c0.0546265-0.177124,0.1932373-0.3157959,0.3703613-0.3704224l0.9349976-0.2883301l-0.9349976-0.2883301
		C13.2699585,30.7255859,13.1313477,30.5869141,13.0767212,30.40979z M12.7883301,31.3349609
		c-0.1470947,0-0.2664185-0.1192627-0.2664185-0.2664185s0.1193237-0.2664185,0.2664185-0.2664185
		c0.1471558,0,0.2664185,0.1192627,0.2664185,0.2664185S12.9354858,31.3349609,12.7883301,31.3349609z"/>
	<circle class="st2" cx="12.7883301" cy="31.0685425" r="0.2664185"/>
	<path d="M38,26.7272949h-3.5v-6h1c0.5523071,0,1-0.4477539,1-1v-7.727294c0-2.0377808-1.229126-3.7883301-2.9817505-4.5663452
		C34.6981812,6.7373056,35.5,5.4664316,35.5,4c0-2.2055664-1.7943726-4-4-4s-4,1.7944336-4,4
		c0,1.4664316,0.8018188,2.7373056,1.9817505,3.4336557C27.729126,8.2116709,26.5,9.9622202,26.5,12.000001v7.727294
		c0,0.5522461,0.4476929,1,1,1h1v6h-19v-6h3c0.3442993,0,0.6643677-0.177124,0.84729-0.4688721
		c0.1828613-0.291687,0.2028198-0.6569824,0.0527954-0.9668579L7.876709,7.8822031
		C9.6373291,7.4633799,10.9547119,5.8869638,10.9547119,4c0-2.2055664-1.7943726-4-4-4s-4,1.7944336-4,4
		c0,1.8869638,1.3173828,3.4633799,3.0780029,3.8822031L0.5093994,19.2915649
		c-0.1500244,0.3098755-0.1300659,0.6751709,0.0527954,0.9668579c0.1829224,0.291748,0.5029907,0.4688721,0.84729,0.4688721H4.5v6
		h-4c-0.2763672,0-0.5,0.2236328-0.5,0.5s0.2236328,0.5,0.5,0.5h17.8496704l-3.4435425,7.5806885
		c-0.140625,0.3095093-0.1143188,0.6721191,0.0697632,0.9578857c0.184082,0.2858276,0.5007324,0.4614258,0.8406982,0.4614258
		h7.0576172c0.3397217,0,0.65625-0.175354,0.8403931-0.4608765s0.2106934-0.6464539,0.0705566-0.9559021l-3.4328613-7.5832214H38
		c0.2763672,0,0.5-0.2236328,0.5-0.5S38.2763672,26.7272949,38,26.7272949z M3.9547119,4c0-1.6568604,1.3431396-3,3-3
		s3,1.3431396,3,3s-1.3431396,3.000001-3,3.000001S3.9547119,5.6568613,3.9547119,4z M1.4094849,19.7272949L6.9547119,8.272706
		L12.5,19.7272949h-2H8.4882202H8.4764404H5.475769H1.4094849z M5.5,26.7272949v-6h3v6H5.5z M15.8165894,35.7272949
		l3.5345459-7.7810669l3.5230713,7.7810669H15.8165894z M28.5,4c0-1.6568604,1.3431396-3,3-3s3,1.3431396,3,3
		s-1.3431396,3.000001-3,3.000001S28.5,5.6568613,28.5,4z M27.5,19.7272949c0,0,0-5.5272818,0-7.727294
		c0-1.9883423,1.4745483-3.6358032,3.3815918-3.9371338C31.083252,8.0265512,31.2879028,8.000001,31.5,8.000001
		c2.2000122,0,4,1.7999878,4,4s0,7.727294,0,7.727294h-2h-4H27.5z M29.5,26.7272949v-6h4v6H29.5z"/>
	<polygon class="st1" points="15.8165894,35.7272949 22.8742065,35.7272949 19.3511353,27.946228 	"/>
	<polygon class="st2" points="10.5,19.7272949 5.9547119,10.3383799 6.9547119,8.272706 1.4094849,19.7272949 	"/>
	<g>
		<polygon class="st3" points="10.5,19.7272949 12.5,19.7272949 6.9547119,8.272706 5.9547119,10.3383799 		"/>
	</g>
	<circle class="st1" cx="31.5" cy="4" r="3.0000002"/>
	<path class="st2" d="M33.5,19.7272949c0,0,0-5.5272818,0-7.727294c0-1.8529053-1.2826538-3.407959-3-3.8569946
		c0.1251221-0.0327148,0.2532349-0.0570068,0.3815918-0.0801392C28.9745483,8.3641977,27.5,10.0116587,27.5,12.000001
		c0,2.2000122,0,7.727294,0,7.727294H33.5z"/>
	<g>
		<path class="st3" d="M33.5,12.000001c0,2.2000122,0,7.727294,0,7.727294h2c0,0,0-5.5272818,0-7.727294s-1.7999878-4-4-4
			c-0.2120972,0-0.416748,0.0265503-0.6184082,0.0628662C30.7532349,8.0859995,30.6251221,8.1102915,30.5,8.1430063
			C32.2173462,8.592042,33.5,10.1470957,33.5,12.000001z"/>
	</g>
	<circle class="st1" cx="6.9547119" cy="4" r="3.0000002"/>
</g>
</svg>
