<?xml version="1.0" encoding="utf-8"?>
<!-- Generator: Adobe Illustrator 16.0.4, SVG Export Plug-In . SVG Version: 6.00 Build 0)  -->
<!DOCTYPE svg PUBLIC "-//W3C//DTD SVG 1.1//EN" "http://www.w3.org/Graphics/SVG/1.1/DTD/svg11.dtd">
<svg version="1.1" id="Layer_1" xmlns="http://www.w3.org/2000/svg" xmlns:xlink="http://www.w3.org/1999/xlink" x="0px" y="0px"
	 width="16px" height="19px" viewBox="0 0 16 19" enable-background="new 0 0 16 19" xml:space="preserve">
<path d="M13.303,10.383c-0.014-0.018-0.018-0.039-0.033-0.056c-1.079-1.186-1.631-2.721-1.555-4.321
	c0.077-1.601,0.771-3.076,1.958-4.154c0.228-0.208,0.325-0.496,0.313-0.781C13.987,1.046,14,1.024,14,1c0-0.553-0.447-1-1-1
	C9.629,0,6.743,2.1,5.568,5.058C5.379,5.036,5.194,5,5,5c-2.757,0-5,2.243-5,5s2.243,5,5,5c0.715,0,1.392-0.156,2.008-0.428
	C7.047,17.02,9.043,19,11.5,19c2.481,0,4.5-2.019,4.5-4.5C16,12.66,14.888,11.08,13.303,10.383z M4.372,9.075
	c-0.275,0-0.5,0.225-0.5,0.5c0,0.553-0.447,1-1,1s-1-0.447-1-1c0-1.379,1.121-2.5,2.5-2.5c0.553,0,1,0.447,1,1
	S4.925,9.075,4.372,9.075z M7.468,5.678c0.61-1.447,1.772-2.606,3.222-3.214C10.116,3.513,9.776,4.682,9.718,5.91
	c-0.07,1.477,0.269,2.906,0.954,4.174c-0.242,0.045-0.474,0.119-0.701,0.201C9.977,10.189,10,10.098,10,10
	C10,8.145,8.973,6.541,7.468,5.678z M10.652,13.138c-0.157,0-0.302,0.072-0.398,0.198c-0.197,0.257-0.494,0.392-0.795,0.392
	c-0.212,0-0.426-0.067-0.607-0.206c-0.438-0.336-0.521-0.963-0.186-1.402c0.478-0.624,1.202-0.981,1.986-0.981c0.553,0,1,0.447,1,1
	S11.205,13.138,10.652,13.138z"/>
</svg>
