<?xml version="1.0" encoding="utf-8"?>
<!-- Generator: Adobe Illustrator 19.2.1, SVG Export Plug-In . SVG Version: 6.00 Build 0)  -->
<svg version="1.1" id="Layer_1_copy" xmlns="http://www.w3.org/2000/svg" xmlns:xlink="http://www.w3.org/1999/xlink" x="0px"
	 y="0px" viewBox="0 0 67.59375 65.0021591" style="enable-background:new 0 0 67.59375 65.0021591;" xml:space="preserve">
<style type="text/css">
	.st0{fill:#FFFFFF;}
	.st1{fill:none;}
	.st2{fill:#62C7CB;}
	.st3{fill:#C7E8EB;}
	.st4{fill:#010101;}
</style>
<g>
	<g>
		
			<ellipse transform="matrix(0.7071068 -0.7071068 0.7071068 0.7071068 7.6639314 20.976038)" class="st0" cx="29.1522827" cy="1.2368355" rx="0.5979161" ry="0.5979161"/>
		<polygon class="st1" points="45.255127,43.2005196 45.1932373,47.0021553 45.2661743,42.5236397 		"/>
		<path class="st2" d="M30.0008545,2.0852852c0.4686279-0.4686279,0.4686279-1.2283936,0-1.6970215
			s-1.2283936-0.4686279-1.6970215,0c-0.46875,0.4686279-0.46875,1.2283936,0,1.6970215
			C28.7724609,2.5540352,29.5322266,2.5540352,30.0008545,2.0852852z M28.7294922,0.814045
			c0.2335205-0.2335205,0.6120605-0.2335205,0.8455811,0s0.2335205,0.6120605,0,0.8455811s-0.6120605,0.2335205-0.8455811,0
			C28.4960938,1.4261055,28.4960938,1.0475655,28.7294922,0.814045z"/>
		<path class="st2" d="M20.4393311,7.7326241l0.5766602,1.8701172l0.5766602-1.8701172
			c0.1092529-0.354248,0.3865967-0.6314697,0.7408447-0.7407227l1.8699951-0.5766602L22.3334961,5.838459
			c-0.354248-0.1092529-0.6315918-0.3864746-0.7408447-0.7407227l-0.5766602-1.8699951l-0.5766602,1.8699951
			c-0.1092529,0.354248-0.3865967,0.6314697-0.7408447,0.7407227l-1.8699951,0.5767822l1.8699951,0.5766602
			C20.0527344,7.1011543,20.3300781,7.378376,20.4393311,7.7326241z M21.0159912,5.8824043
			c0.2943115,0,0.5328369,0.2385254,0.5328369,0.5328369c0,0.2941895-0.2385254,0.5328369-0.5328369,0.5328369
			s-0.5328369-0.2386475-0.5328369-0.5328369C20.4831543,6.1209297,20.7216797,5.8824043,21.0159912,5.8824043z"/>
		<circle class="st0" cx="21.0159912" cy="6.4152412" r="0.5328369"/>
		<path class="st3" d="M62.736084,34.8180733c0.1895752,0.6309814,0.3300781,1.2850342,0.4058838,1.9614258
			c0.0075684,0.0672607,0.0115967,0.1347656,0.0123291,0.2025146l0.0028076,0.27771
			c0.6622314-1.3165283,1.1778564-2.692749,1.5767822-4.1063232C64.152832,33.7312813,63.4763184,34.2838936,62.736084,34.8180733z"
			/>
		<path class="st3" d="M57.1544189,44.973835v-7.1333008c-2.8491211,1.1726074-6.1673584,2.1322021-9.8575439,2.8125
			l-0.0708008,4.3491211h9.8973389C57.1337891,44.9927559,57.144043,44.9832344,57.1544189,44.973835z"/>
		<path class="st3" d="M2.8598633,33.1534004C6.1444092,44.7937813,18.7524414,53.5002022,33.796875,53.5002022
			c2.5725098,0,5.0615234-0.2818604,7.4584961-0.7617188v-5.7564697l0.055542-5.5084229
			c-2.4128418,0.2294922-4.9197998,0.3605957-7.5140381,0.3605957C19.7891846,41.8341866,8.0445557,38.3098946,2.8598633,33.1534004
			z"/>
		<path class="st2" d="M65.59375,27.1701241c0-6.8652344-14.5615234-12.6660156-31.796875-12.6660156
			c-5.7480469,0-11.1811523,0.6561279-15.8934326,1.770874l2.3416748,3.4669189
			c0.9185791,0.1345215,1.7596436,0.4963379,2.4754639,1.0246582c0.0550537-0.0062256,0.1062012-0.0274658,0.1616211-0.0321045
			c0.9044189-0.6535645,1.9990234-1.0588379,3.2004395-1.0588379c1.0244141,0,1.9716797,0.2979736,2.793335,0.7849121
			c1.4243164-1.807251,3.6069336-2.9890137,6.0864258-2.9890137c2.1802979,0,4.1448975,0.9023438,5.5571289,2.3476562
			c1.3031006,0.293457,2.4205322,1.0516357,3.1931152,2.0875244c0.9237061-0.6989746,2.0611572-1.1290283,3.3087158-1.1290283
			c2.4841309,0,4.5598145,1.6546631,5.2474365,3.9139404c0.7452393-0.3760986,1.5751953-0.6079102,2.4667969-0.6079102
			c3.043335,0,5.5102539,2.4630127,5.5102539,5.5063477c0,0.3070068-0.0089111,0.6179199-0.0201416,0.9278564
			c0.6745605,0.7241211,1.2832031,1.5118408,1.7453613,2.4034424C64.2653809,31.1833076,65.59375,29.2268867,65.59375,27.1701241z"
			/>
		<path class="st2" d="M12.8581543,26.2877998c0.4355469,0,0.8540039,0.0629883,1.260498,0.1585693
			c-0.0955811-0.4064941-0.1585693-0.8249512-0.1585693-1.2606201c0-2.5109863,1.6900635-4.6057129,3.9870605-5.2700195
			l-2.105957-3.1179199C7.550293,19.11092,2,22.9353828,2,27.1701241c0,2.7049561,2.284668,5.2369385,6.0786133,7.3212891
			c-0.4516602-0.7994385-0.7307129-1.7095947-0.7307129-2.6933594C7.3479004,28.7548409,9.8148193,26.2877998,12.8581543,26.2877998
			z"/>
		<path class="st0" d="M21.2114258,21.1724434c0.4821777-0.2022705,0.9833984-0.34729,1.5091553-0.4058838
			c-0.7158203-0.5283203-1.5568848-0.8901367-2.4754639-1.0246582L21.2114258,21.1724434z"/>
		<path class="st0" d="M52.255249,33.0021553c-2.4133301,0-4.5001221,1.78479-4.9017334,4.1704102l-0.0227051,1.3956299
			c3.5183105-0.6813965,6.6959229-1.6096191,9.3792725-2.732666C55.8937988,34.1553535,54.1871338,33.0021553,52.255249,33.0021553z
			"/>
		<path class="st0" d="M28.7559814,28.1828194c0.4759521-0.0626221,0.9434814-0.059082,1.4078369-0.0427246
			c-0.2481689-0.612915-0.5443115-1.2191162-0.9343262-1.7961426c-1.5517578-2.2988281-3.8300781-3.6523438-5.7919922-3.6523438
			c-0.7333984,0-1.4208984,0.1875-2.0117188,0.5859375c-1.0009766,0.6757812-1.5810547,1.8847656-1.6337891,3.4023438
			c-0.0566406,1.6367188,0.4980469,3.40625,1.5634766,4.9824219c0.2924805,0.4331055,0.6143799,0.824707,0.951416,1.1879883
			C23.5102539,30.4007149,25.8450928,28.5656319,28.7559814,28.1828194z"/>
		<path class="st3" d="M22.0972939,26.4160347c0.0571899-1.6447754,0.6856689-2.9550781,1.7698364-3.6884766
			c-0.1436157-0.0137939-0.2888794-0.0359497-0.4296265-0.0359497c-0.7333984,0-1.4208984,0.1875-2.0117188,0.5859375
			c-1.0009766,0.6757812-1.5810547,1.8847656-1.6337891,3.4023438c-0.0566406,1.6367188,0.4980469,3.40625,1.5634766,4.9824219
			c0.2924805,0.4331055,0.6143799,0.824707,0.951416,1.1879883c0.2947998-0.6000977,0.6593628-1.1618652,1.0817871-1.6758423
			C22.498539,29.6361275,22.0435219,27.9709053,22.0972939,26.4160347z"/>
		<path class="st3" d="M30.1437988,30.8971748c3.2073975,0,6.0286865,1.2674561,7.7840576,3.1965332
			c-0.8249512-2.6896973-2.9155273-4.7364502-5.5137939-5.5640869c-0.7197266-0.229248-1.4714355-0.3620605-2.2502441-0.3895264
			c-0.4643555-0.0163574-0.9318848-0.0198975-1.4078369,0.0427246c-2.9108887,0.3828125-5.2457275,2.2178955-6.4490967,4.6674805
			c-0.3227539,0.6569824-0.5717773,1.3493652-0.7164307,2.0810547c-0.0169678,0.0855713-0.0205078,0.1748047-0.03479,0.2612305
			C23.1342773,32.6551094,26.3637695,30.8971748,30.1437988,30.8971748z"/>
		<path class="st0" d="M54.7355957,24.0836983c-0.8916016,0-1.7215576,0.2318115-2.4667969,0.6079102
			c-0.6876221-2.2592773-2.7633057-3.9139404-5.2474365-3.9139404c-1.2475586,0-2.3850098,0.4300537-3.3087158,1.1290283
			c-0.772583-1.0358887-1.8900146-1.7940674-3.1931152-2.0875244c-1.4122314-1.4453125-3.3768311-2.3476562-5.5571289-2.3476562
			c-2.4794922,0-4.6621094,1.1817627-6.0864258,2.9890137c-0.8216553-0.4869385-1.7689209-0.7849121-2.793335-0.7849121
			c-1.201416,0-2.2960205,0.4052734-3.2004395,1.0588379c2.7647705-0.2302246,5.9459229,1.4393311,8.0054932,4.4884033
			c0.7049561,1.045166,1.2081299,2.1693115,1.5263672,3.3067627c2.5982666,0.8276367,4.6888428,2.8743896,5.5137939,5.5640869
			c-1.7553711-1.9290771-4.5766602-3.1965332-7.7840576-3.1965332c-3.7800293,0-7.0095215,1.7579346-8.5881348,4.2954102
			c0.0142822-0.0864258,0.0178223-0.1756592,0.03479-0.2612305c-0.6907959-0.6126709-1.3360596-1.3232422-1.8931885-2.1479492
			c-1.2988281-1.9257812-1.9755859-4.1171875-1.9042969-6.171875c0.0614014-1.7780762,0.6937256-3.2609863,1.7574463-4.3221436
			l-1.6032715-2.3736572c-2.2969971,0.6643066-3.9870605,2.7590332-3.9870605,5.2700195
			c0,0.4356689,0.0629883,0.854126,0.1585693,1.2606201c-0.4064941-0.0955811-0.8249512-0.1585693-1.260498-0.1585693
			c-3.043335,0-5.5102539,2.467041-5.5102539,5.5102539c0,0.9837646,0.2790527,1.8939209,0.7307129,2.6933594
			c5.8352051,3.2058105,15.2736816,5.3427734,25.7182617,5.3427734c2.5895996,0,5.1060791-0.1452637,7.5345459-0.3909912
			l0.0247803-2.4611816c0.0006104-0.067749,0.0047607-0.1352539,0.0123291-0.2025146
			c0.6243896-5.5739746,5.3046875-9.7773438,10.8867188-9.7773438c3.1395264,0,5.9625244,1.3603516,7.970459,3.5157471
			c0.0112305-0.3099365,0.0201416-0.6208496,0.0201416-0.9278564C60.2458496,26.546711,57.7789307,24.0836983,54.7355957,24.0836983
			z"/>
		<g>
			<polygon class="st0" points="59.1544189,47.0021553 56.9185791,47.0021553 61.2167969,51.3004951 61.2063599,48.1184273 
				59.1544189,46.0664864 			"/>
		</g>
		<g>
			<path class="st0" d="M54.9458008,53.8578682c-0.199585,0.4589844-0.5040283,0.8618164-0.9012451,1.1580811l0.5222168,1.6345215
				l6.3516846,6.3516846h0.336792l-0.0093384-2.8441772L54.9458008,53.8578682z"/>
		</g>
		<g>
			<path class="st0" d="M54.2855225,60.0548897h-2.3143311l2.9472656,2.9472656h3.1716309l-3.1917725-3.1917725
				C54.7224121,59.9528389,54.5172119,60.0548897,54.2855225,60.0548897z"/>
		</g>
		<g>
			<polygon class="st0" points="43.2770996,57.3607979 48.918457,63.0021553 52.0900879,63.0021553 43.2893677,54.2014351 			"/>
		</g>
		<g>
			<polygon class="st0" points="59.1544189,43.2379951 61.1970215,45.2807198 61.1865845,42.0986519 59.1544189,40.0664864 			"/>
		</g>
		<g>
			<polygon class="st0" points="50.9185791,47.0021553 61.2365723,57.3202705 61.2261353,54.1382027 54.0900879,47.0021553 			"/>
		</g>
		<g>
			<path class="st0" d="M51.2402344,50.1523018l-3.1501465-3.1501465h-2.8968506l0.0618896-3.8016357l-0.0155029,0.9511719
				l-1.9038696-1.9038696l-0.0122681,3.1592407l6.3831787,6.3831787
				C49.9732666,51.0556221,50.5263672,50.460041,51.2402344,50.1523018z"/>
		</g>
		<g>
			<polygon class="st0" points="50.536377,55.4484444 43.312561,48.2246284 43.300293,51.3839912 49.7680664,57.8517647 			"/>
		</g>
		<g>
			<path class="st0" d="M54.3736572,29.2856026c1.1713867,0.286499,2.2438965,0.8074951,3.1787109,1.5021973
				C56.6143799,30.0898018,55.5454102,29.5722237,54.3736572,29.2856026z"/>
		</g>
		<g>
			<path class="st0" d="M50.3773193,31.288166c0,0-0.0006104,0.0001221-0.0009766,0.0002441l-1.5595093-1.5595093
				c-0.7210083,0.3021851-1.3920288,0.6939087-2.0032349,1.1682739l1.4190674,1.4190674
				C48.8757324,31.855793,49.5958252,31.5082588,50.3773193,31.288166z"/>
		</g>
		<g>
			<path class="st0" d="M52.9859619,31.0696602c3.1813965,0.3354492,5.7141113,2.784668,6.168457,5.9324951v0.2358398
				l2.0228271,2.0228271l-0.0228271-2.258667c-0.0894775-0.7991943-0.3145752-1.5506592-0.597168-2.2731934
				c0.1384277,0.3548584,0.2601318,0.7186279,0.3538818,1.0942383l-6.5375977-6.5375977
				c-0.6818848-0.166748-1.3833008-0.2834473-2.1182861-0.2834473c-0.7714844,0-1.5057373,0.1291504-2.2182617,0.3123779
				c0.326416-0.0802002,0.6571045-0.1503906,0.9968262-0.1971436L52.9859619,31.0696602z"/>
		</g>
		<g>
			<path class="st0" d="M45.6604004,35.7443428c0.2556152-0.7520752,0.6375732-1.4437256,1.1157227-2.0563965l-0.0001221,0.0001221
				l-1.3934937-1.3934937c-0.4862671,0.5889282-0.9041138,1.2363892-1.229187,1.9423218l1.5070801,1.5072021V35.7443428z"/>
		</g>
		<g>
			<path class="st0" d="M45.3358154,38.2478828l-1.854126-1.854126c0.1378174-0.7554932,0.3592529-1.4777832,0.6710205-2.1552734
				c-0.3963623,0.861084-0.6866455,1.7822266-0.7966309,2.7636719l-0.0093994,2.4281006l1.9382935,1.9382935L45.3358154,38.2478828z
				"/>
		</g>
		<g>
			<polygon class="st0" points="43.255249,63.0021553 46.0900879,63.0021553 43.2661743,60.1782417 			"/>
		</g>
		<g>
			<polygon class="st3" points="43.2661743,60.1782417 46.0900879,63.0021553 48.918457,63.0021553 43.2770996,57.3607979 			"/>
		</g>
		<g>
			<path class="st3" d="M50.4329834,60.0548897c-0.3193359,0-0.6191406-0.1523438-0.8076172-0.4101562
				s-0.2421875-0.5898438-0.1445312-0.8945312l0.2872314-0.8984375l-6.4677734-6.4677734l-0.0109253,2.8174438l8.8007202,8.8007202
				h2.8283691l-2.9472656-2.9472656H50.4329834z"/>
		</g>
		<g>
			<path class="st3" d="M55.2376709,58.7502022c0.0976562,0.3046875,0.0439453,0.6367188-0.1445312,0.8945312
				c-0.0517578,0.0708008-0.1281738,0.1118164-0.1948242,0.1656494l3.1917725,3.1917725h2.8283691l-6.3516846-6.3516846
				L55.2376709,58.7502022z"/>
		</g>
		<g>
			<path class="st3" d="M50.6744385,55.0163155c-0.6922607-0.5162354-1.1467285-1.3342285-1.1467285-2.2641602
				c0-0.3393555,0.069458-0.6604004,0.1789551-0.9619141l-6.3831787-6.3831787l-0.0109253,2.8175659l7.2238159,7.2238159
				L50.6744385,55.0163155z"/>
		</g>
		<g>
			<path class="st3" d="M48.0900879,47.0021553l3.1501465,3.1501465c0.3435059-0.1480713,0.7213135-0.2318115,1.1191406-0.2318115
				c1.5638428,0,2.831543,1.2678223,2.831543,2.831665c0,0.3962402-0.0969238,0.7647705-0.2451172,1.1057129l6.3001099,6.3001099
				l-0.0093384-2.8377075L50.9185791,47.0021553H48.0900879z"/>
		</g>
		<g>
			<polygon class="st3" points="45.255127,43.2005196 45.2661743,42.5236397 45.2849731,41.3685493 43.3466797,39.4302559 
				43.3357544,42.2478218 45.239624,44.1516914 			"/>
		</g>
		<g>
			<polygon class="st3" points="54.0900879,47.0021553 61.2261353,54.1382027 61.2167969,51.3004951 56.9185791,47.0021553 			"/>
		</g>
		<g>
			<path class="st3" d="M45.3358154,38.2478828l0.0202637-1.2457275c0.0626221-0.4337158,0.1668701-0.8533936,0.3043213-1.2578125
				v-0.0002441l-1.5070801-1.5072021c0,0-0.0003662,0.0010986-0.0006104,0.0015869
				c-0.3117676,0.6774902-0.5332031,1.3997803-0.6710205,2.1552734L45.3358154,38.2478828z"/>
		</g>
		<g>
			<path class="st3" d="M46.776123,33.6879463c0.168457-0.2160645,0.3620605-0.4082031,0.5541992-0.6027832
				c0.0494385-0.0499268,0.0946045-0.1038818,0.1453857-0.1522217c0.2363281-0.2252197,0.4909668-0.4263916,0.756958-0.6166992
				l-1.4190674-1.4190674c0,0-0.0002441,0.0002441-0.0003662,0.0003662
				c-0.529541,0.4110107-1.0056152,0.8822632-1.4307251,1.3970337l1.3934937,1.3934937L46.776123,33.6879463z"/>
		</g>
		<g>
			<polygon class="st3" points="59.1544189,46.0664864 61.2063599,48.1184273 61.1970215,45.2807198 59.1544189,43.2379951 			"/>
		</g>
		<g>
			<path class="st3" d="M50.3773193,31.288166c0.2784424-0.0783691,0.5585938-0.1478271,0.8503418-0.1911621
				c0.3369141-0.0501709,0.6761475-0.0948486,1.0275879-0.0948486c0.2498779,0,0.487915,0.0418701,0.7307129,0.0675049
				l-1.9521484-1.9522705c-0.3397217,0.0467529-0.6704102,0.1169434-0.9968262,0.1971436
				c-0.1462402,0.0375977-0.2896729,0.0808105-0.4327393,0.1254883c-0.2689209,0.0839844-0.5310059,0.1813965-0.7874146,0.2888794
				l1.5595093,1.5595093C50.376709,31.2882881,50.3769531,31.2882881,50.3773193,31.288166z"/>
		</g>
		<g>
			<polygon class="st3" points="59.1544189,40.0664864 61.1865845,42.0986519 61.1772461,39.2608223 59.1544189,37.2379951 			"/>
		</g>
		<g>
			<path class="st3" d="M60.557251,34.7289619c-0.0223389-0.057251-0.0457764-0.1136475-0.0692139-0.170166
				c-0.5999756-1.4466553-1.5513916-2.692749-2.7647705-3.6416016c-0.0562744-0.0440674-0.1135254-0.0866699-0.1708984-0.1293945
				c-0.9348145-0.6947021-2.0073242-1.2156982-3.1787109-1.5021973h-0.0001221l6.5375977,6.5375977
				C60.8173828,35.4475899,60.6956787,35.0838203,60.557251,34.7289619z"/>
		</g>
		<path class="st4" d="M54.0900879,47.0021553h2.8284912h2.2358398v-0.9356689v-2.8284912v-3.1715088v-2.8284912v-0.2358398
			c-0.4543457-3.1478271-2.9870605-5.5970459-6.168457-5.9324951c-0.2427979-0.0256348-0.480835-0.0675049-0.7307129-0.0675049
			c-0.3514404,0-0.6906738,0.0446777-1.0275879,0.0948486c-0.291748,0.043335-0.5718994,0.112793-0.8503418,0.1911621
			c-0.7814941,0.2200928-1.5015869,0.567627-2.1446533,1.0280762c-0.2659912,0.1903076-0.5206299,0.3914795-0.756958,0.6166992
			c-0.0507812,0.0483398-0.0959473,0.1022949-0.1453857,0.1522217c-0.1921387,0.1945801-0.3857422,0.3867188-0.5541992,0.6027832
			c-0.4781494,0.6126709-0.8601074,1.3043213-1.1157227,2.0563965c-0.1374512,0.4044189-0.2416992,0.8240967-0.3043213,1.2578125
			l-0.0202637,1.2457275l-0.0508423,3.1206665l-0.0187988,1.1550903l-0.072937,4.4785156h2.8968506h2.8284912H54.0900879z
			 M47.3535156,37.1725655c0.4016113-2.3856201,2.4884033-4.1704102,4.9017334-4.1704102
			c1.9318848,0,3.6385498,1.1531982,4.454834,2.833374c-2.6833496,1.1230469-5.8609619,2.0512695-9.3792725,2.732666
			L47.3535156,37.1725655z M47.2260742,45.0021553l0.0708008-4.3491211c3.6901855-0.6802979,7.0084229-1.6398926,9.8575439-2.8125
			v7.1333008c-0.010376,0.0093994-0.0206299,0.0189209-0.0310059,0.0283203H47.2260742z"/>
		<path class="st4" d="M67.59375,27.1701241c0-8.2246094-14.8457031-14.6660156-33.796875-14.6660156
			c-6.2929688,0-12.1137695,0.7225342-17.1081543,1.9725342L7.2089844,0.4416084
			C6.8994141-0.0154228,6.2783203-0.1404228,5.8203125,0.1740303c-0.4580078,0.3085938-0.578125,0.9296875-0.2695312,1.3886719
			l9.0892334,13.4567871C5.7436523,17.6348457,0,22.0564766,0,27.1701241c0,15.6210938,15.1611328,28.3300781,33.796875,28.3300781
			c2.5654297,0,5.0551758-0.262207,7.4584961-0.7183838l-0.0001221,8.2203369c0,1.1046181,0.8953857,2.0000038,2,2.0000038h18
			c1.1044922,0,2-0.8953857,2-2.0000038v-16l-0.0595703-5.9080811C65.9819336,36.9771309,67.59375,32.2320137,67.59375,27.1701241z
			 M41.2553711,46.9820137v5.7564697c-2.3969727,0.4798584-4.8859863,0.7617188-7.4584961,0.7617188
			c-15.0444336,0-27.6524658-8.7064209-30.9370117-20.3468018c5.1846924,5.1564941,16.9293213,8.6807861,30.9370117,8.6807861
			c2.5942383,0,5.1011963-0.1311035,7.5140381-0.3605957L41.2553711,46.9820137z M43.255249,63.0021553l0.1008301-26
			c0.1099854-0.9814453,0.4002686-1.9025879,0.7966309-2.7636719c0.0002441-0.0004883,0.0003662-0.0010986,0.0003662-0.0010986
			c0.3253174-0.7064209,0.7431641-1.3538818,1.2294312-1.9428101c0.4251099-0.5147705,0.9011841-0.9860229,1.4307251-1.3970337
			c0.0001221-0.0001221,0.0002441-0.0002441,0.0002441-0.0002441c0.6113281-0.4744873,1.2823486-0.8662109,2.0033569-1.168396
			c0.2564087-0.1074829,0.5184937-0.204895,0.7874146-0.2888794c0.1430664-0.0446777,0.286499-0.0878906,0.4327393-0.1254883
			c0.7125244-0.1832275,1.4467773-0.3123779,2.2182617-0.3123779c0.7349854,0,1.4364014,0.1166992,2.1182861,0.2834473h0.0001221
			c1.1717529,0.2866211,2.2407227,0.8041992,3.1787109,1.5021973c0.057373,0.0427246,0.114624,0.0853271,0.1708984,0.1293945
			c1.2133789,0.9488525,2.1647949,2.1949463,2.7647705,3.6416016c0.0234375,0.0565186,0.046875,0.112915,0.0692139,0.170166
			c0.2825928,0.7225342,0.5076904,1.473999,0.597168,2.2731934l0.1008301,26H43.255249z M61.9710693,32.9213448
			c-0.4621582-0.8916016-1.0708008-1.6793213-1.7453613-2.4034424c-2.0079346-2.1553955-4.8309326-3.5157471-7.970459-3.5157471
			c-5.5820312,0-10.2623291,4.2033691-10.8867188,9.7773438c-0.0075684,0.0672607-0.0117188,0.1347656-0.0123291,0.2025146
			l-0.0247803,2.4611816c-2.4284668,0.2457275-4.9449463,0.3909912-7.5345459,0.3909912
			c-10.4445801,0-19.8830566-2.1369629-25.7182617-5.3427734C4.284668,32.4070625,2,29.8750801,2,27.1701241
			c0-4.2347412,5.550293-8.0592041,13.8411865-10.3723145l2.105957,3.1179199l1.6032715,2.3736572
			c-1.0637207,1.0611572-1.6960449,2.5440674-1.7574463,4.3221436c-0.0712891,2.0546875,0.6054688,4.2460938,1.9042969,6.171875
			c0.5571289,0.824707,1.2023926,1.5352783,1.8931885,2.1479492c0.1446533-0.7316895,0.3936768-1.4240723,0.7164307-2.0810547
			c-0.3370361-0.3632812-0.6589355-0.7548828-0.951416-1.1879883c-1.0654297-1.5761719-1.6201172-3.3457031-1.5634766-4.9824219
			c0.0527344-1.5175781,0.6328125-2.7265625,1.6337891-3.4023438c0.5908203-0.3984375,1.2783203-0.5859375,2.0117188-0.5859375
			c1.9619141,0,4.2402344,1.3535156,5.7919922,3.6523438c0.3900146,0.5770264,0.6861572,1.1832275,0.9343262,1.7961426
			c0.7788086,0.0274658,1.5305176,0.1602783,2.2502441,0.3895264c-0.3182373-1.1374512-0.8214111-2.2615967-1.5263672-3.3067627
			c-2.0595703-3.0490723-5.2407227-4.7186279-8.0054932-4.4884033c-0.0554199,0.0046387-0.1065674,0.0258789-0.1616211,0.0321045
			c-0.5257568,0.0585938-1.0269775,0.2036133-1.5091553,0.4058838l-0.9663086-1.430542l-2.3416748-3.4669189
			c4.7122803-1.1147461,10.1453857-1.770874,15.8934326-1.770874c17.2353516,0,31.796875,5.8007812,31.796875,12.6660156
			C65.59375,29.2268867,64.2653809,31.1833076,61.9710693,32.9213448z M63.1542969,36.9820137
			c-0.0007324-0.067749-0.0047607-0.1352539-0.0123291-0.2025146c-0.0758057-0.6763916-0.2163086-1.3304443-0.4058838-1.9614258
			c0.7402344-0.5341797,1.416748-1.086792,1.9978027-1.6646729c-0.3989258,1.4135742-0.9145508,2.7897949-1.5767822,4.1063232
			L63.1542969,36.9820137z"/>
		<path class="st4" d="M52.359375,49.9204903c-0.3978271,0-0.7756348,0.0837402-1.1191406,0.2318115
			c-0.7138672,0.3077393-1.2669678,0.9033203-1.5335693,1.6379395c-0.1094971,0.3015137-0.1789551,0.6225586-0.1789551,0.9619141
			c0,0.9299316,0.4544678,1.7479248,1.1467285,2.2641602l-0.1380615,0.4321289l-0.7683105,2.4033203l-0.2872314,0.8984375
			c-0.0976562,0.3046875-0.0439453,0.6367188,0.1445312,0.8945312s0.4882812,0.4101562,0.8076172,0.4101562h1.538208h2.3143311
			c0.2316895,0,0.4368896-0.1020508,0.612793-0.2445068c0.0666504-0.053833,0.1430664-0.0948486,0.1948242-0.1656494
			c0.1884766-0.2578125,0.2421875-0.5898438,0.1445312-0.8945312l-0.6708984-2.0997314l-0.5222168-1.6345215
			c0.3972168-0.2962646,0.7016602-0.6990967,0.9012451-1.1580811c0.1481934-0.3409424,0.2451172-0.7094727,0.2451172-1.1057129
			C55.190918,51.1883125,53.9232178,49.9204903,52.359375,49.9204903z"/>
	</g>
</g>
</svg>
