<?xml version="1.0" encoding="utf-8"?>
<!-- Generator: Adobe Illustrator 16.0.4, SVG Export Plug-In . SVG Version: 6.00 Build 0)  -->
<!DOCTYPE svg PUBLIC "-//W3C//DTD SVG 1.1//EN" "http://www.w3.org/Graphics/SVG/1.1/DTD/svg11.dtd">
<svg version="1.1" id="Layer_1" xmlns="http://www.w3.org/2000/svg" xmlns:xlink="http://www.w3.org/1999/xlink" x="0px" y="0px"
	 width="13.071px" height="15.845px" viewBox="0 0 13.071 15.845" enable-background="new 0 0 13.071 15.845" xml:space="preserve">
<g>
	<path fill="#FFFFFF" d="M8.19,9.073C7.757,8.748,6.814,8.082,6.814,7.635c0-0.524,0.149-0.782,0.938-1.398
		c0.809-0.632,1.381-1.465,1.381-2.498c0-1.126-0.46-2.147-1.326-2.643h1.227L10.079,0c0,0-3.451,0-4.673,0
		C3.034,0,1.057,1.749,1.057,3.672c0,1.966,1.299,3.533,3.529,3.533c0.155,0,0.306-0.008,0.454-0.019
		C4.895,7.463,4.792,7.772,4.792,8.097c0,0.546,0.3,0.858,0.672,1.219c-0.281,0-0.552,0.007-0.848,0.007
		C1.901,9.323,0,11.192,0,12.985c0,1.766,2.291,2.87,5.006,2.87c3.095,0,4.999-1.757,4.999-3.522
		C10.005,10.917,9.699,10.205,8.19,9.073z M2.815,3.643C2.598,1.988,3.442,0.723,4.702,0.76s2.337,1.395,2.554,3.049
		S6.749,6.528,5.489,6.491C4.229,6.452,3.032,5.297,2.815,3.643z M4.996,15.075c-1.876,0-3.232-1.188-3.232-2.615
		c0-1.399,1.59-2.605,3.467-2.584C5.668,9.88,6.076,9.95,6.447,10.07c1.019,0.708,1.84,1.151,2.047,1.958
		c0.039,0.163,0.06,0.332,0.06,0.504C8.554,13.96,7.635,15.075,4.996,15.075z"/>
</g>
</svg>
