<?xml version="1.0" encoding="utf-8"?>
<!-- Generator: Adobe Illustrator 19.2.1, SVG Export Plug-In . SVG Version: 6.00 Build 0)  -->
<svg version="1.1" id="Layer_1" xmlns="http://www.w3.org/2000/svg" xmlns:xlink="http://www.w3.org/1999/xlink" x="0px" y="0px"
	 viewBox="0 0 243 243" style="enable-background:new 0 0 243 243;" xml:space="preserve">
<style type="text/css">
	.st0{fill:#A4CC39;}
	.st1{fill:none;}
	.st2{fill:#FFFFFF;}
	.st3{fill:#010101;}
	.st4{fill:#E0EBA9;}
</style>
<g>
	<g>
		<circle class="st0" cx="121.5" cy="121.5" r="121.5"/>
	</g>
	<g>
		<path class="st1" d="M117.6,90.8c0.1,0.1,0.2,0.2,0.2,0.2C117.7,91,117.7,90.9,117.6,90.8z"/>
		<path class="st1" d="M118.8,92.1c0.1,0.1,0.2,0.2,0.3,0.3C119,92.3,118.9,92.2,118.8,92.1z"/>
		<path class="st1" d="M120,93.3c0,0,0.1,0.1,0.1,0.1C120,93.4,120,93.4,120,93.3z"/>
		<path class="st1" d="M120.6,94c0,0,0.1,0.1,0.1,0.1C120.6,94.1,120.6,94,120.6,94z"/>
		<path class="st1" d="M115.7,89.1c0.1,0.1,0.2,0.2,0.4,0.3C115.9,89.3,115.8,89.2,115.7,89.1z"/>
		<path class="st1" d="M132.3,83.8c0.2-0.2,0.4-0.3,0.7-0.5C132.8,83.4,132.5,83.6,132.3,83.8z"/>
		<path class="st1" d="M111.3,85.3c0.1,0.1,0.2,0.2,0.4,0.3C111.5,85.5,111.4,85.4,111.3,85.3z"/>
		<path class="st1" d="M113.7,87.3c0.1,0.1,0.3,0.3,0.4,0.4C114,87.6,113.9,87.4,113.7,87.3z"/>
		<path class="st1" d="M130,85.6c0.1-0.1,0.3-0.2,0.4-0.3C130.3,85.4,130.1,85.5,130,85.6z"/>
		<path class="st1" d="M127.4,87.7c0.2-0.1,0.3-0.3,0.5-0.4C127.8,87.4,127.6,87.6,127.4,87.7z"/>
		<path class="st1" d="M105.9,81.4c0.1,0,0.1,0.1,0.2,0.1C106,81.5,106,81.4,105.9,81.4z"/>
		<path class="st1" d="M125.6,89.4c0.1-0.1,0.3-0.2,0.4-0.4C125.9,89.2,125.7,89.3,125.6,89.4z"/>
		<path class="st1" d="M123.8,91.1c0.1-0.1,0.2-0.2,0.3-0.3C124,90.9,123.9,91,123.8,91.1z"/>
		<path class="st1" d="M121,94.1c0,0,0.1-0.1,0.1-0.1C121,94,121,94.1,121,94.1z"/>
		<path class="st1" d="M121.5,93.5c0,0,0.1-0.1,0.1-0.1C121.6,93.4,121.6,93.4,121.5,93.5z"/>
		<path class="st1" d="M122.5,92.4c0.1-0.1,0.2-0.2,0.3-0.3C122.7,92.2,122.6,92.3,122.5,92.4z"/>
		<path class="st1" d="M108.7,83.3c0.2,0.1,0.4,0.3,0.6,0.4C109.1,83.6,108.9,83.5,108.7,83.3z"/>
		<path class="st1" d="M57.5,81.4c0.3-0.3,0.7-0.5,1-0.8C58.2,80.9,57.9,81.2,57.5,81.4z"/>
		<path class="st1" d="M63.9,77.1c0.4-0.2,0.9-0.5,1.3-0.7C64.7,76.6,64.3,76.9,63.9,77.1z"/>
		<path class="st1" d="M70.2,74.3c0.5-0.1,0.9-0.3,1.4-0.4C71.1,74.1,70.6,74.2,70.2,74.3z"/>
		<path class="st1" d="M67,75.5c0.5-0.2,0.9-0.4,1.4-0.6C67.9,75.2,67.5,75.3,67,75.5z"/>
		<path class="st1" d="M60.7,79.1c0.4-0.3,0.8-0.5,1.3-0.8C61.5,78.5,61.1,78.8,60.7,79.1z"/>
		<path class="st1" d="M45.3,112.7c-0.1-1.4-0.2-2.7-0.2-4.1C45.1,110,45.2,111.4,45.3,112.7z"/>
		<path class="st1" d="M102.6,79.3c0.2,0.1,0.5,0.3,0.7,0.4C103.1,79.6,102.9,79.5,102.6,79.3z"/>
		<ellipse transform="matrix(0.7071 -0.7072 0.7072 0.7071 -3.2321 77.68)" class="st1" cx="92.1" cy="42.7" rx="1.3" ry="1.3"/>
		<path class="st1" d="M76.4,73c0.4-0.1,0.9-0.1,1.3-0.1C77.3,72.8,76.9,72.9,76.4,73z"/>
		<path class="st1" d="M95.7,75.9c0.3,0.1,0.5,0.2,0.8,0.3C96.2,76.1,95.9,76,95.7,75.9z"/>
		<path class="st1" d="M99.6,77.7C99.6,77.7,99.7,77.7,99.6,77.7C99.7,77.7,99.6,77.7,99.6,77.7z"/>
		<path class="st1" d="M92.3,74.6c0.2,0.1,0.3,0.1,0.5,0.2C92.6,74.8,92.4,74.7,92.3,74.6z"/>
		<path class="st1" d="M80.4,72.7c-0.3,0-0.6,0-0.9,0c0.4,0,0.8,0,1.1,0C80.6,72.7,80.5,72.7,80.4,72.7z"/>
		<path class="st1" d="M88,73.5c0.3,0.1,0.6,0.1,0.8,0.2C88.6,73.6,88.3,73.6,88,73.5z"/>
		<path class="st1" d="M84.3,72.9c0.3,0,0.5,0.1,0.8,0.1C84.8,73,84.6,72.9,84.3,72.9z"/>
		<path class="st1" d="M57.6,143.6c-7-8.7-11.4-20-12.3-30.9C46.2,123.7,50.6,135,57.6,143.6c4.1,5,8.8,9.6,13.9,13.8
			C66.4,153.2,61.7,148.6,57.6,143.6z"/>
		<path class="st1" d="M196.5,108.7c0,1.3,0,2.7-0.2,4.1C196.5,111.4,196.5,110,196.5,108.7z"/>
		<path class="st1" d="M184,143.6c-2.2,2.8-4.7,5.4-7.3,7.9c-2.1,2-4.3,4-6.5,5.9C175.2,153.2,180,148.6,184,143.6
			c7-8.7,11.4-20,12.3-30.9c-0.4,5.3-1.7,10.6-3.7,15.8C190.6,134,187.6,139.1,184,143.6z"/>
		<path class="st1" d="M183.1,80.7c0.3,0.3,0.7,0.5,1,0.8C183.8,81.2,183.4,80.9,183.1,80.7z"/>
		<path class="st1" d="M179.7,78.3c0.4,0.3,0.8,0.5,1.2,0.8C180.5,78.8,180.1,78.5,179.7,78.3z"/>
		<path class="st1" d="M142.1,77.7c-0.1,0-0.1,0.1-0.2,0.1c0,0,0.1,0,0.1-0.1C142,77.7,142,77.7,142.1,77.7z"/>
		<path class="st1" d="M135.5,81.5c0.1-0.1,0.2-0.1,0.3-0.2C135.7,81.4,135.6,81.4,135.5,81.5z"/>
		<path class="st1" d="M74.6,73.2c-0.4,0.1-0.9,0.2-1.3,0.3c0.2,0,0.3-0.1,0.5-0.1C74,73.3,74.3,73.3,74.6,73.2z"/>
		<path class="st1" d="M176.5,76.4c0.4,0.2,0.9,0.4,1.3,0.7C177.3,76.9,176.9,76.6,176.5,76.4z"/>
		<ellipse transform="matrix(0.7071 -0.7072 0.7072 0.7071 -101.7502 176.3498)" class="st1" cx="162" cy="211" rx="1.3" ry="1.3"/>
		<path class="st1" d="M167,73.2c0.4,0.1,0.9,0.2,1.3,0.3C167.9,73.4,167.5,73.3,167,73.2z"/>
		<path class="st1" d="M152.8,73.7c0.3-0.1,0.6-0.1,0.9-0.2C153.3,73.6,153.1,73.6,152.8,73.7z"/>
		<path class="st1" d="M156.6,73c0.3,0,0.5-0.1,0.8-0.1C157.1,72.9,156.8,73,156.6,73z"/>
		<path class="st1" d="M173.3,75c0.4,0.2,0.9,0.3,1.3,0.5C174.2,75.3,173.7,75.2,173.3,75z"/>
		<path class="st1" d="M138.3,79.8c0.3-0.2,0.5-0.3,0.8-0.5C138.8,79.5,138.5,79.6,138.3,79.8z"/>
		<path class="st1" d="M148.8,74.8c0.2-0.1,0.4-0.1,0.6-0.2C149.2,74.7,149,74.8,148.8,74.8z"/>
		<path class="st1" d="M161.2,72.7c-0.1,0-0.2,0-0.3,0c0.4,0,0.8,0,1.1,0C161.8,72.7,161.5,72.7,161.2,72.7z"/>
		<path class="st1" d="M170.1,73.9c0.4,0.1,0.9,0.3,1.3,0.4C171,74.2,170.6,74.1,170.1,73.9z"/>
		<path class="st1" d="M163.9,72.8c0.4,0,0.8,0.1,1.3,0.1C164.8,72.9,164.4,72.8,163.9,72.8z"/>
		<path class="st1" d="M145.2,76.2c0.3-0.1,0.6-0.2,0.8-0.4C145.7,76,145.4,76.1,145.2,76.2z"/>
		<path class="st2" d="M94.1,44.7c1.1-1.1,1.1-2.8,0-3.8s-2.8-1.1-3.8,0s-1.1,2.8,0,3.8S93,45.7,94.1,44.7z M91.2,41.8
			c0.5-0.5,1.4-0.5,1.9,0c0.5,0.5,0.5,1.4,0,1.9c-0.5,0.5-1.4,0.5-1.9,0C90.7,43.2,90.7,42.3,91.2,41.8z"/>
		<path class="st2" d="M160.1,209.1c-1.1,1.1-1.1,2.8,0,3.8c1.1,1.1,2.8,1.1,3.8,0s1.1-2.8,0-3.8S161.1,208,160.1,209.1z
			 M162.9,211.9c-0.5,0.5-1.4,0.5-1.9,0c-0.5-0.5-0.5-1.4,0-1.9c0.5-0.5,1.4-0.5,1.9,0S163.5,211.4,162.9,211.9z"/>
		<ellipse transform="matrix(0.3895 -0.921 0.921 0.3895 -3.2912 99.4463)" class="st2" cx="73.4" cy="52.2" rx="1.4" ry="1.4"/>
		
			<ellipse transform="matrix(0.3895 -0.921 0.921 0.3895 -42.8773 277.8101)" class="st2" cx="188.1" cy="171.2" rx="1.4" ry="1.4"/>
		
			<ellipse transform="matrix(0.3895 -0.921 0.921 0.3895 -137.6187 143.3832)" class="st2" cx="39.3" cy="175.5" rx="1.4" ry="1.4"/>
		<path class="st2" d="M125.8,63.8l1.3,4.2l1.3-4.2c0.2-0.8,0.9-1.4,1.7-1.7l4.2-1.3l-4.2-1.3c-0.8-0.2-1.4-0.9-1.7-1.7l-1.3-4.2
			l-1.3,4.2c-0.2,0.8-0.9,1.4-1.7,1.7l-4.2,1.3l4.2,1.3C124.9,62.3,125.5,63,125.8,63.8z M127.1,59.6c0.7,0,1.2,0.5,1.2,1.2
			c0,0.7-0.5,1.2-1.2,1.2c-0.7,0-1.2-0.5-1.2-1.2C125.9,60.1,126.4,59.6,127.1,59.6z"/>
		<circle class="st0" cx="127.1" cy="60.8" r="1.2"/>
		<path class="st2" d="M141.1,202.8l-1-3.4l-1,3.4c-0.2,0.6-0.7,1.1-1.3,1.3l-3.4,1l3.4,1c0.6,0.2,1.1,0.7,1.3,1.3l1,3.4l1-3.4
			c0.2-0.6,0.7-1.1,1.3-1.3l3.4-1l-3.4-1C141.8,203.9,141.3,203.4,141.1,202.8z M140,206.2c-0.5,0-1-0.4-1-1s0.4-1,1-1
			c0.5,0,1,0.4,1,1S140.6,206.2,140,206.2z"/>
		<circle class="st0" cx="140" cy="205.2" r="1"/>
		<path class="st2" d="M160,48.8l1,3.4l1-3.4c0.2-0.6,0.7-1.1,1.3-1.3l3.4-1l-3.4-1c-0.6-0.2-1.1-0.7-1.3-1.3l-1-3.4l-1,3.4
			c-0.2,0.6-0.7,1.1-1.3,1.3l-3.4,1l3.4,1C159.3,47.7,159.8,48.2,160,48.8z M161,45.4c0.5,0,1,0.4,1,1s-0.4,1-1,1s-1-0.4-1-1
			S160.5,45.4,161,45.4z"/>
		<circle class="st0" cx="161" cy="46.4" r="1"/>
		<path class="st2" d="M44.9,155l-0.8-2.8l-0.8,2.8c-0.2,0.5-0.6,0.9-1.1,1.1l-2.8,0.8l2.8,0.8c0.5,0.2,0.9,0.6,1.1,1.1l0.8,2.8
			l0.8-2.8c0.2-0.5,0.6-0.9,1.1-1.1l2.8-0.8l-2.8-0.8C45.5,155.9,45.1,155.5,44.9,155z M44,157.7c-0.4,0-0.8-0.4-0.8-0.8
			c0-0.4,0.4-0.8,0.8-0.8s0.8,0.4,0.8,0.8C44.8,157.4,44.5,157.7,44,157.7z"/>
		<circle class="st0" cx="44" cy="156.9" r="0.8"/>
		<path class="st2" d="M58,184.6l-0.6-2l-0.6,2c-0.1,0.4-0.4,0.7-0.8,0.8l-2,0.6l2,0.6c0.4,0.1,0.7,0.4,0.8,0.8l0.6,2l0.6-2
			c0.1-0.4,0.4-0.7,0.8-0.8l2-0.6l-2-0.6C58.4,185.3,58.1,185,58,184.6z M57.3,186.6c-0.3,0-0.6-0.3-0.6-0.6c0-0.3,0.3-0.6,0.6-0.6
			c0.3,0,0.6,0.3,0.6,0.6C57.9,186.3,57.7,186.6,57.3,186.6z"/>
		<circle class="st0" cx="57.3" cy="186" r="0.6"/>
		<path class="st2" d="M177.3,190.8l-1.3-4.2l-1.3,4.2c-0.2,0.8-0.9,1.4-1.7,1.7l-4.2,1.3l4.2,1.3c0.8,0.2,1.4,0.9,1.7,1.7l1.3,4.2
			l1.3-4.2c0.2-0.8,0.9-1.4,1.7-1.7l4.2-1.3l-4.2-1.3C178.2,192.2,177.6,191.6,177.3,190.8z M176,195c-0.7,0-1.2-0.5-1.2-1.2
			c0-0.7,0.5-1.2,1.2-1.2c0.7,0,1.2,0.5,1.2,1.2C177.2,194.4,176.7,195,176,195z"/>
		<circle class="st0" cx="176" cy="193.8" r="1.2"/>
		<path class="st2" d="M28.4,141.5l-0.7-2.3l-0.7,2.3c-0.1,0.4-0.5,0.8-0.9,0.9l-2.3,0.7l2.3,0.7c0.4,0.1,0.8,0.5,0.9,0.9l0.7,2.3
			l0.7-2.3c0.1-0.4,0.5-0.8,0.9-0.9l2.3-0.7l-2.3-0.7C28.8,142.3,28.5,142,28.4,141.5z M27.7,143.8c-0.4,0-0.7-0.3-0.7-0.7
			s0.3-0.7,0.7-0.7c0.4,0,0.7,0.3,0.7,0.7S28,143.8,27.7,143.8z"/>
		<circle class="st0" cx="27.7" cy="143.1" r="0.7"/>
		<path class="st2" d="M201.1,177.8l-0.7-2.3l-0.7,2.3c-0.1,0.4-0.5,0.8-0.9,0.9l-2.3,0.7l2.3,0.7c0.4,0.1,0.8,0.5,0.9,0.9l0.7,2.3
			l0.7-2.3c0.1-0.4,0.5-0.8,0.9-0.9l2.3-0.7l-2.3-0.7C201.6,178.6,201.2,178.2,201.1,177.8z M200.4,180.1c-0.4,0-0.7-0.3-0.7-0.7
			c0-0.4,0.3-0.7,0.7-0.7c0.4,0,0.7,0.3,0.7,0.7C201.1,179.8,200.8,180.1,200.4,180.1z"/>
		<circle class="st0" cx="200.4" cy="179.4" r="0.7"/>
		<path class="st2" d="M184,143.6c3.6-4.5,6.5-9.6,8.6-15.1c-6-1.7-14.1-4.2-17.1-6.2c-5-3.3-6.7-5.7-12,0c0,0-0.7,2.7,8,8
			c5,3.1,5.5,13.2,5.1,21.2C179.3,149,181.8,146.4,184,143.6z"/>
		<path class="st2" d="M151.6,170.2c0,0-4.8-22-20-24c-12.6-1.7-11.6-15.6-4-24c7.7-8.3,15.6,2,24-4c8.3-6,4-8,4-8s-4.3-5.3,0-8
			c4.3-2.7-9.6-1.3-16-4c-6.3-2.7-1.7,13.6-12,12c-10.3-1.7-3.3-14.3,0-16c3.3-1.7,12-12,12-12l2.3-4.7c0,0-0.1,0-0.1,0.1
			c-1,0.5-1.9,1-2.8,1.5c-0.3,0.2-0.5,0.3-0.8,0.5c-0.9,0.5-1.7,1-2.5,1.6c-0.1,0.1-0.2,0.1-0.3,0.2c-0.9,0.6-1.7,1.2-2.5,1.8
			c-0.2,0.2-0.4,0.3-0.7,0.5c-0.7,0.5-1.3,1-1.9,1.5c-0.1,0.1-0.3,0.2-0.4,0.3c-0.7,0.6-1.4,1.2-2,1.7c-0.2,0.1-0.3,0.3-0.5,0.4
			c-0.5,0.4-1,0.9-1.4,1.3c-0.1,0.1-0.3,0.3-0.4,0.4c-0.5,0.5-1,1-1.5,1.4c-0.1,0.1-0.2,0.2-0.3,0.3c-0.4,0.4-0.7,0.7-1,1
			c-0.1,0.1-0.2,0.2-0.3,0.3c-0.3,0.3-0.6,0.7-0.9,0.9c0,0.1-0.1,0.1-0.1,0.1c-0.2,0.2-0.4,0.4-0.5,0.5c0,0-0.1,0.1-0.1,0.1
			c-0.1,0.1-0.2,0.2-0.2,0.2s-0.1-0.1-0.2-0.2c0,0-0.1-0.1-0.1-0.1c-0.1-0.1-0.3-0.3-0.5-0.6c0,0-0.1-0.1-0.1-0.1
			c-0.2-0.3-0.5-0.6-0.9-0.9c-0.1-0.1-0.2-0.2-0.3-0.3c-0.3-0.3-0.7-0.7-1-1.1c-0.1-0.1-0.2-0.2-0.2-0.2c-0.5-0.5-1-0.9-1.5-1.5
			c-0.1-0.1-0.2-0.2-0.4-0.3c-0.5-0.4-1-0.9-1.5-1.4c-0.1-0.1-0.3-0.2-0.4-0.4c-0.7-0.6-1.4-1.2-2.1-1.7c-0.1-0.1-0.2-0.2-0.4-0.3
			c-0.6-0.5-1.3-1-2-1.6c-0.2-0.1-0.4-0.3-0.6-0.4c-0.8-0.6-1.7-1.2-2.6-1.8c-0.1,0-0.1-0.1-0.2-0.1c-0.8-0.6-1.7-1.1-2.6-1.6
			c-0.2-0.1-0.5-0.3-0.7-0.4c-0.9-0.5-1.9-1.1-2.9-1.6c0,0-0.1,0-0.1-0.1c-1-0.5-2.1-1-3.1-1.5c-0.3-0.1-0.5-0.2-0.8-0.3
			c-0.9-0.4-1.9-0.7-2.9-1.1c-0.2-0.1-0.3-0.1-0.5-0.2c-1.1-0.4-2.3-0.7-3.4-0.9c-0.3-0.1-0.6-0.1-0.8-0.2c-1-0.2-2-0.4-2.9-0.5
			c-0.3,0-0.5-0.1-0.8-0.1c-1.2-0.1-2.4-0.2-3.6-0.2c-0.4,0-0.8,0-1.1,0c-0.6,0-1.2,0-1.8,0.1c-0.4,0-0.9,0.1-1.3,0.1
			c-0.6,0.1-1.2,0.2-1.8,0.3c-0.3,0.1-0.6,0.1-0.9,0.2c4.4,3.1,10.1,8.1,7.3,11.7c-4.3,5.7-13.3,12.3-7.7,16.3
			c5.7,4,7-13.3,13.3-10.3s13.6,10.6,5,15.3c-8.7,4.7-12.3-0.7-12,8.7c0.3,9.3,0.3,12.3-3,11.3c-3.3-1,2-7.7-4.3-9.6
			c-6.3-2-10.6-2.7-11.3,1.7c-0.7,4.3-6.3,0-7.3-1.7c-1-1.7-2,3.3-2.3,7c-0.3,3.7-3.9,7.7,4.1,10.4s3.9,11.6,12.6,1.9
			c0,0,1.7-6.3,14.6-4.3c13,2,21.6,6,18.3,16c-3.3,10-9.7,20.2-6.2,25.4c14.3,7.9,26,12.1,26,12.1s14.5-5.2,30.9-14.9L151.6,170.2z"
			/>
		<path class="st3" d="M187.5,146.4c14.9-18.4,19.6-49.1,2.9-65.4c-8.8-8.5-18.6-12.9-29.2-12.9c-18.3,0-33.8,13-40.4,19.5
			c-6.6-6.6-22.1-19.5-40.4-19.5C69.8,68.2,60,72.5,51.2,81c-16.7,16.3-12,47,2.9,65.4c22.2,27.5,63.5,42.3,65.2,42.9
			c0.5,0.2,1,0.3,1.5,0.3s1-0.1,1.5-0.3C124.1,188.7,165.3,173.9,187.5,146.4z M120.8,185.1c0,0-11.8-4.2-26-12.1
			c-7.5-4.2-15.7-9.4-23.3-15.6c-5.1-4.2-9.8-8.8-13.9-13.8c-7-8.7-11.4-20-12.3-30.9c-0.1-1.4-0.2-2.7-0.2-4.1s0.1-2.7,0.2-4
			c0.2-2.6,0.7-5.2,1.5-7.6c1.5-4.9,4-9.3,7.6-12.8c1-1,2.1-2,3.1-2.8c0.3-0.3,0.7-0.5,1-0.8c0.7-0.5,1.4-1.1,2.1-1.6
			c0.4-0.3,0.8-0.5,1.3-0.8c0.6-0.4,1.3-0.8,1.9-1.2c0.4-0.2,0.9-0.5,1.3-0.7c0.6-0.3,1.2-0.6,1.8-0.9c0.5-0.2,0.9-0.4,1.4-0.6
			c0.6-0.2,1.2-0.5,1.8-0.6c0.5-0.1,0.9-0.3,1.4-0.4c0.6-0.2,1.2-0.3,1.8-0.4c0.4-0.1,0.9-0.2,1.3-0.3c0.6-0.1,1.2-0.2,1.8-0.3
			c0.4-0.1,0.9-0.1,1.3-0.1c0.6,0,1.2-0.1,1.8-0.1c0.3,0,0.6,0,0.9,0c0.1,0,0.2,0,0.3,0c1.2,0,2.4,0.1,3.6,0.2
			c0.3,0,0.5,0.1,0.8,0.1c1,0.1,2,0.3,2.9,0.5c0.3,0.1,0.6,0.1,0.8,0.2c1.2,0.3,2.3,0.6,3.4,0.9c0.2,0.1,0.3,0.1,0.5,0.2
			c1,0.3,1.9,0.7,2.9,1.1c0.3,0.1,0.5,0.2,0.8,0.3c1.1,0.5,2.1,0.9,3.1,1.5c0,0,0.1,0,0.1,0.1c1,0.5,2,1,2.9,1.6
			c0.2,0.1,0.5,0.3,0.7,0.4c0.9,0.5,1.8,1.1,2.6,1.6c0.1,0,0.1,0.1,0.2,0.1c0.9,0.6,1.8,1.2,2.6,1.8c0.2,0.1,0.4,0.3,0.6,0.4
			c0.7,0.5,1.4,1,2,1.6c0.1,0.1,0.2,0.2,0.4,0.3c0.7,0.6,1.4,1.2,2.1,1.7c0.1,0.1,0.3,0.3,0.4,0.4c0.5,0.5,1,0.9,1.5,1.4
			c0.1,0.1,0.2,0.2,0.4,0.3c0.5,0.5,1.1,1,1.5,1.5c0.1,0.1,0.2,0.2,0.2,0.2c0.4,0.4,0.7,0.7,1,1.1c0.1,0.1,0.2,0.2,0.3,0.3
			c0.3,0.3,0.6,0.7,0.9,0.9c0,0,0.1,0.1,0.1,0.1c0.2,0.2,0.4,0.4,0.5,0.6c0.1,0.1,0.1,0.1,0.1,0.1c0.1,0.1,0.2,0.2,0.2,0.2
			s0.1-0.1,0.2-0.2c0,0,0.1-0.1,0.1-0.1c0.1-0.1,0.3-0.3,0.5-0.5c0-0.1,0.1-0.1,0.1-0.1c0.2-0.3,0.5-0.6,0.9-0.9
			c0.1-0.1,0.2-0.2,0.3-0.3c0.3-0.3,0.6-0.6,1-1c0.1-0.1,0.2-0.2,0.3-0.3c0.5-0.4,1-0.9,1.5-1.4c0.1-0.1,0.3-0.2,0.4-0.4
			c0.5-0.4,0.9-0.8,1.4-1.3c0.2-0.1,0.3-0.3,0.5-0.4c0.6-0.6,1.3-1.1,2-1.7c0.1-0.1,0.3-0.2,0.4-0.3c0.6-0.5,1.3-1,1.9-1.5
			c0.2-0.2,0.4-0.3,0.7-0.5c0.8-0.6,1.7-1.2,2.5-1.8c0.1-0.1,0.2-0.1,0.3-0.2c0.8-0.5,1.6-1,2.5-1.6c0.3-0.2,0.5-0.3,0.8-0.5
			c0.9-0.5,1.8-1,2.8-1.5c0.1,0,0.1-0.1,0.2-0.1c1-0.5,2-1,3.1-1.4c0.3-0.1,0.6-0.2,0.8-0.4c0.9-0.4,1.9-0.7,2.8-1.1
			c0.2-0.1,0.4-0.1,0.6-0.2c1.1-0.4,2.2-0.7,3.4-0.9c0.3-0.1,0.6-0.1,0.9-0.2c1-0.2,1.9-0.4,2.9-0.5c0.3,0,0.5-0.1,0.8-0.1
			c1.2-0.1,2.4-0.2,3.6-0.2c0.1,0,0.2,0,0.3,0c0.3,0,0.6,0,0.9,0c0.6,0,1.2,0,1.8,0.1c0.4,0,0.8,0.1,1.3,0.1
			c0.6,0.1,1.2,0.2,1.8,0.3c0.4,0.1,0.9,0.2,1.3,0.3c0.6,0.1,1.2,0.3,1.8,0.5c0.4,0.1,0.9,0.3,1.3,0.4c0.6,0.2,1.2,0.4,1.8,0.7
			c0.4,0.2,0.9,0.3,1.3,0.5c0.6,0.3,1.2,0.6,1.9,0.9c0.4,0.2,0.9,0.4,1.3,0.7c0.6,0.4,1.3,0.8,1.9,1.2c0.4,0.3,0.8,0.5,1.2,0.8
			c0.7,0.5,1.4,1,2.1,1.6c0.3,0.3,0.7,0.5,1,0.8c1.1,0.9,2.1,1.8,3.2,2.8c3.6,3.5,6.1,7.9,7.6,12.8c0.7,2.4,1.2,5,1.5,7.6
			c0.1,1.3,0.2,2.6,0.2,4s0,2.7-0.2,4.1c-0.9,10.9-5.3,22.2-12.3,30.9c-4.1,5-8.8,9.6-13.9,13.8c-6,4.9-12.3,9.2-18.4,12.8
			C135.4,179.9,120.8,185.1,120.8,185.1z"/>
		<path class="st4" d="M139.6,82.4c0,0-8.7,10.3-12,12c-3.3,1.7-10.3,14.3,0,16c10.3,1.7,5.7-14.6,12-12c6.3,2.7,20.3,1.3,16,4
			c-4.3,2.7,0,8,0,8s4.3,2-4,8c-8.3,6-16.3-4.3-24,4c-7.7,8.3-8.7,22.3,4,24c15.2,2,20,24,20,24l0.1,0c6.1-3.6,12.5-7.9,18.4-12.8
			c2.3-1.9,4.4-3.8,6.5-5.9c0.4-8-0.1-18.2-5.1-21.2c-8.7-5.3-8-8-8-8c5.3-5.7,7-3.3,12,0c3,2,11.2,4.5,17.1,6.2
			c2-5.1,3.3-10.5,3.7-15.8c0.1-1.4,0.2-2.7,0.2-4.1c0-1.3-0.1-2.7-0.2-4c-0.2-2.6-0.7-5.2-1.5-7.6c-1.5-4.9-4-9.3-7.6-12.8
			c-1-1-2.1-2-3.2-2.8c-0.3-0.3-0.7-0.5-1-0.8c-0.7-0.6-1.4-1.1-2.1-1.6c-0.4-0.3-0.8-0.5-1.2-0.8c-0.6-0.4-1.3-0.8-1.9-1.2
			c-0.4-0.2-0.9-0.5-1.3-0.7c-0.6-0.3-1.2-0.6-1.9-0.9c-0.4-0.2-0.9-0.4-1.3-0.5c-0.6-0.2-1.2-0.5-1.8-0.7c-0.4-0.1-0.9-0.3-1.3-0.4
			c-0.6-0.2-1.2-0.3-1.8-0.5c-0.4-0.1-0.9-0.2-1.3-0.3c-0.6-0.1-1.2-0.2-1.8-0.3c-0.4-0.1-0.9-0.1-1.3-0.1c-0.6-0.1-1.2-0.1-1.8-0.1
			c-0.4,0-0.8,0-1.1,0c-1.2,0-2.4,0.1-3.6,0.2c-0.3,0-0.5,0.1-0.8,0.1c-1,0.1-2,0.3-2.9,0.5c-0.3,0.1-0.6,0.1-0.9,0.2
			c-1.2,0.3-2.3,0.6-3.4,0.9c-0.2,0.1-0.4,0.1-0.6,0.2c-1,0.3-1.9,0.7-2.8,1.1c-0.3,0.1-0.6,0.2-0.8,0.4c-1.1,0.5-2.1,0.9-3.1,1.4
			c0,0-0.1,0-0.1,0.1L139.6,82.4z"/>
		<path class="st4" d="M101,147.6c3.3-10-5.3-14-18.3-16c-13-2-14.6,4.3-14.6,4.3c-8.7,9.6-4.6,0.7-12.6-1.9s-4.4-6.7-4.1-10.4
			c0.3-3.7,1.3-8.7,2.3-7c1,1.7,6.7,6,7.3,1.7c0.7-4.3,5-3.7,11.3-1.7c6.3,2,1,8.7,4.3,9.6c3.3,1,3.3-2,3-11.3
			c-0.3-9.3,3.3-4,12-8.7c8.7-4.7,1.3-12.3-5-15.3s-7.7,14.3-13.3,10.3c-5.7-4,3.3-10.6,7.7-16.3c2.8-3.6-2.9-8.6-7.3-11.7
			c-0.2,0-0.3,0.1-0.5,0.1c-0.6,0.1-1.2,0.3-1.8,0.4c-0.5,0.1-0.9,0.3-1.4,0.4c-0.6,0.2-1.2,0.4-1.8,0.6c-0.5,0.2-0.9,0.4-1.4,0.6
			c-0.6,0.3-1.2,0.6-1.8,0.9c-0.4,0.2-0.9,0.4-1.3,0.7c-0.6,0.4-1.3,0.8-1.9,1.2c-0.4,0.3-0.8,0.5-1.3,0.8c-0.7,0.5-1.4,1-2.1,1.6
			c-0.3,0.3-0.7,0.5-1,0.8c-1.1,0.9-2.1,1.8-3.1,2.8c-3.6,3.5-6.1,7.9-7.6,12.8c-0.7,2.4-1.2,5-1.5,7.6c-0.1,1.3-0.2,2.6-0.2,4
			c0,1.3,0,2.7,0.2,4.1c0.9,10.9,5.3,22.2,12.3,30.9c4.1,5,8.8,9.6,13.9,13.8c7.6,6.2,15.8,11.4,23.3,15.6
			C91.3,167.8,97.7,157.6,101,147.6z"/>
	</g>
</g>
</svg>
