<svg id="OUTLINED" xmlns="http://www.w3.org/2000/svg" viewBox="0 0 37.29 39.64"><defs><style>.cls-1{fill:none;}.cls-2{fill:#e1efa8;}.cls-3{fill:#a4cd39;}.cls-4{fill:#fff;}.cls-5{fill:#a1cb3a;}</style></defs><title>Artboard 1</title><path d="M1,10V23a.5.5,0,1,1-1,0V10a.5.5,0,1,1,1,0Z"/><circle class="cls-1" cx="21.96" cy="1.2" r="0.6" transform="translate(5.58 15.88) rotate(-45)"/><polygon class="cls-1" points="12.16 38.64 15.12 35.68 24.77 35.69 15.12 35.68 12.16 38.64"/><path class="cls-1" d="M26,35.59a6.2,6.2,0,0,1-1.28.1A6.2,6.2,0,0,0,26,35.59Z"/><path class="cls-1" d="M34.79,23.71a1.5,1.5,0,0,1,1.06,2.56h0a1.5,1.5,0,0,0-1.06-2.56Z"/><circle class="cls-1" cx="33.11" cy="13.5" r="0.53"/><path class="cls-1" d="M26,35.59a1.88,1.88,0,0,0,1-.48l8.84-8.84L27,35.1A1.88,1.88,0,0,1,26,35.59Z"/><path class="cls-2" d="M35.85,24.14a1.5,1.5,0,0,0-2.12,0l-5,5a2.45,2.45,0,0,1-.4,3,2.51,2.51,0,0,1-1.78.73H19.84a.5.5,0,0,1,0-1h6.74a1.52,1.52,0,0,0,1.4-.92,1.42,1.42,0,0,0,0-1.07h0s0-.07,0-.1l-.05-.1a1.52,1.52,0,0,0-.08-.15l-.08-.1-.1-.12-.14-.11-.09-.07L27.27,29l-.1-.05L27,28.91l-.11,0-.23,0h-7.1l-.17,0H16.12a3.42,3.42,0,0,0-2.42,1.19l-.11.11-.37.36L8.63,35.1l3.54,3.54,3-3h9.65a6.2,6.2,0,0,0,1.28-.1,1.88,1.88,0,0,0,1-.48l8.84-8.84A1.5,1.5,0,0,0,35.85,24.14Z"/><path d="M36.56,23.44a2.5,2.5,0,0,0-3.54,0L28.1,28.36a2.5,2.5,0,0,0-1.52-.52h-7l-.17,0H16.12A4.4,4.4,0,0,0,13,29.34l-.24.23-.24.23L7.92,34.4a1,1,0,0,0,0,1.41l3.54,3.54a1,1,0,0,0,1.41,0l2.66-2.66h9.23a4,4,0,0,0,3-.88L36.56,27A2.5,2.5,0,0,0,36.56,23.44Zm-.71,2.83h0L27,35.1a1.88,1.88,0,0,1-1,.48,6.2,6.2,0,0,1-1.28.1H15.12l-3,3L8.63,35.1l4.59-4.59.37-.36.11-.11a3.42,3.42,0,0,1,2.42-1.19h3.27l.17,0h7.1l.23,0,.11,0,.17.05.1.05.16.09.09.07.14.11.1.12.08.1a1.52,1.52,0,0,1,.08.15l.05.1s0,.07,0,.1h0a1.42,1.42,0,0,1,0,1.07,1.52,1.52,0,0,1-1.4.92H19.84a.5.5,0,0,0,0,1h6.74a2.51,2.51,0,0,0,1.78-.73,2.45,2.45,0,0,0,.4-3l5-5a1.5,1.5,0,0,1,2.12,2.12Z"/><path d="M4,23.47h22.5a.5.5,0,0,0,0-1H25v-11a1,1,0,0,0-1-1H20a1,1,0,0,0-1,1v11H17V6.5a1,1,0,0,0-1-1H12a1,1,0,0,0-1,1v16H9v-9a1,1,0,0,0-1-1H4a1,1,0,0,0-1,1v9H.5a.5.5,0,0,0,0,1Zm16-12h4v11H20Zm-8,9.41V6.5h4v16H12ZM4,13.5H8v9H4Z"/><rect class="cls-2" x="3.96" y="13.5" width="4" height="8.98"/><rect class="cls-3" x="19.96" y="11.5" width="4" height="10.98"/><polygon class="cls-4" points="15.96 7.91 11.96 11.91 11.96 13.5 15.96 9.5 15.96 7.91"/><polygon class="cls-4" points="14.37 6.5 11.96 8.91 11.96 10.5 15.96 6.5 14.37 6.5"/><polygon class="cls-4" points="11.96 6.5 11.96 7.5 12.96 6.5 11.96 6.5"/><polygon class="cls-4" points="14.98 22.47 15.96 21.5 15.96 19.91 13.4 22.47 14.98 22.47"/><polygon class="cls-4" points="15.96 10.91 11.96 14.91 11.96 16.5 15.96 12.5 15.96 10.91"/><polygon class="cls-4" points="15.96 13.91 11.96 17.91 11.96 19.5 15.96 15.5 15.96 13.91"/><polygon class="cls-4" points="15.96 18.5 15.96 16.91 11.96 20.91 11.96 22.47 11.98 22.47 15.96 18.5"/><polygon class="cls-2" points="12.96 6.5 11.96 7.5 11.96 8.91 14.37 6.5 12.96 6.5"/><polygon class="cls-2" points="15.96 6.5 11.96 10.5 11.96 11.91 15.96 7.91 15.96 6.5"/><polygon class="cls-2" points="15.96 9.5 11.96 13.5 11.96 14.91 15.96 10.91 15.96 9.5"/><polygon class="cls-2" points="15.96 12.5 11.96 16.5 11.96 17.91 15.96 13.91 15.96 12.5"/><polygon class="cls-2" points="15.96 15.5 11.96 19.5 11.96 20.91 15.96 16.91 15.96 15.5"/><polygon class="cls-2" points="13.4 22.47 15.96 19.91 15.96 18.5 11.98 22.47 13.4 22.47"/><polygon class="cls-2" points="15.96 22.47 15.96 21.5 14.98 22.47 15.96 22.47"/><circle class="cls-5" cx="30.16" cy="3.99" r="0.61" transform="translate(14.74 30.22) rotate(-67.07)"/><path class="cls-5" d="M22.81,2a1.2,1.2,0,1,0-1.7,0A1.2,1.2,0,0,0,22.81,2ZM21.54.78a.6.6,0,1,1,0,.85A.6.6,0,0,1,21.54.78Z"/><path class="cls-5" d="M31.79,14.07a1.12,1.12,0,0,1,.74.74l.58,1.87.58-1.87a1.12,1.12,0,0,1,.74-.74l1.87-.58-1.87-.58a1.12,1.12,0,0,1-.74-.74l-.58-1.87-.58,1.87a1.12,1.12,0,0,1-.74.74l-1.87.58ZM33.11,13a.53.53,0,1,1-.53.53A.53.53,0,0,1,33.11,13Z"/></svg>