<?xml version="1.0" encoding="utf-8"?>
<!-- Generator: Adobe Illustrator 16.0.4, SVG Export Plug-In . SVG Version: 6.00 Build 0)  -->
<!DOCTYPE svg PUBLIC "-//W3C//DTD SVG 1.1//EN" "http://www.w3.org/Graphics/SVG/1.1/DTD/svg11.dtd">
<svg version="1.1" id="Layer_1" xmlns="http://www.w3.org/2000/svg" xmlns:xlink="http://www.w3.org/1999/xlink" x="0px" y="0px"
	 width="12px" height="14px" viewBox="0 0 12 14" enable-background="new 0 0 12 14" xml:space="preserve">
<path d="M11.848,7.234C11.538,6.487,10.809,6,10,6H9V5.999V2c0-1.104-0.896-2-2-2H5C3.896,0,3,0.896,3,2v3.999V6H2
	C1.191,6,0.462,6.487,0.152,7.234c-0.31,0.748-0.139,1.607,0.434,2.18l4,4C4.977,13.805,5.488,14,6,14s1.023-0.195,1.414-0.586l4-4
	C11.986,8.842,12.157,7.982,11.848,7.234z M6,12L2,8h3V7.999V6V5.999V5V2h2v3v0.999V6v1.999V8h3L6,12z"/>
</svg>
