<svg id="OUTLINES" xmlns="http://www.w3.org/2000/svg" viewBox="0 0 42 34.41"><defs><style>.cls-1{fill:none;}.cls-2{fill:#fff;}.cls-3{fill:#c4f2f2;}.cls-4{fill:#60c7ca;}</style></defs><title>Artboard 1</title><circle class="cls-1" cx="6.5" cy="13.61" r="0.6" transform="translate(-7.72 8.58) rotate(-45)"/><path class="cls-2" d="M18.57,9.21a1.19,1.19,0,0,1,.08-.41,1.27,1.27,0,0,1-.56-.65A1.86,1.86,0,0,1,16,9.29v4.12h4v-3a1.14,1.14,0,0,1-.23,0A1.2,1.2,0,0,1,18.57,9.21Z"/><path class="cls-2" d="M15,9.31l-.23,0A1.88,1.88,0,0,1,13,6.81a2,2,0,0,1,1.8-3.61,1.87,1.87,0,0,1,3.38.8,1.86,1.86,0,0,1,1.48,2.48l.15,0A1.17,1.17,0,0,1,21.94,7a1.18,1.18,0,0,1,0,2.34,1.19,1.19,0,0,1-.79,1,1.13,1.13,0,0,1-.16,0v3h4V8.24a1.68,1.68,0,0,1-.51.09,1.69,1.69,0,0,1-1.6-2.28A1.82,1.82,0,0,1,24.52,2.8a1.69,1.69,0,0,1,3,.73,1.7,1.7,0,0,1,0,3.35A1.67,1.67,0,0,1,26,8.32v5.09h3v-2a5.48,5.48,0,0,1,1-3.16V1.41H11v12h4Z"/><circle class="cls-3" cx="5.5" cy="21.91" r="1.5"/><path d="M8,21.91a2.5,2.5,0,1,0-2.5,2.5A2.5,2.5,0,0,0,8,21.91Zm-2.5,1.5A1.5,1.5,0,1,1,7,21.91,1.5,1.5,0,0,1,5.5,23.41Z"/><path class="cls-2" d="M8,28.91a3.49,3.49,0,0,0-3-3.45,3.47,3.47,0,0,1,.5-.05A3.5,3.5,0,0,0,2,28.91v1.5H8Z"/><circle class="cls-3" cx="17.5" cy="21.91" r="1.5"/><path d="M20,21.91a2.5,2.5,0,1,0-2.5,2.5A2.5,2.5,0,0,0,20,21.91Zm-2.5,1.5a1.5,1.5,0,1,1,1.5-1.5A1.5,1.5,0,0,1,17.5,23.41Z"/><path class="cls-2" d="M20,28.91a3.49,3.49,0,0,0-3-3.45,3.47,3.47,0,0,1,.5-.05,3.5,3.5,0,0,0-3.5,3.5v1.5h6Z"/><path class="cls-3" d="M20,28.91v1.5h1v-1.5a3.41,3.41,0,0,0-4-3.45A3.49,3.49,0,0,1,20,28.91Z"/><path class="cls-3" d="M8,28.91v1.5H9v-1.5a3.5,3.5,0,0,0-3.5-3.5,3.47,3.47,0,0,0-.5.05A3.49,3.49,0,0,1,8,28.91Z"/><ellipse class="cls-3" cx="34.5" cy="2.93" rx="1.93" ry="1.93"/><path d="M34.5,5.87a2.93,2.93,0,1,0-2.93-2.93A2.93,2.93,0,0,0,34.5,5.87ZM34.5,1a1.93,1.93,0,1,1-1.93,1.93A1.93,1.93,0,0,1,34.5,1Z"/><path class="cls-4" d="M14.55,8a1.87,1.87,0,0,1,0-1A1.91,1.91,0,0,1,13,6.81a1.88,1.88,0,0,0,1.78,2.52l.23,0a1.87,1.87,0,0,0,.56-.15A1.88,1.88,0,0,1,14.55,8Z"/><path class="cls-4" d="M24.29,7.17a1.69,1.69,0,0,1,0-.93,1.72,1.72,0,0,1-1.36-.19A1.69,1.69,0,0,0,25,8.24l.2-.07A1.7,1.7,0,0,1,24.29,7.17Z"/><path class="cls-4" d="M27.59,6.87a1.7,1.7,0,0,0,0-3.35,1.69,1.69,0,0,0-3-.73,1.83,1.83,0,1,0-.26,3.44,1.7,1.7,0,1,0,3.34.63Z"/><path class="cls-4" d="M19.63,9.59a1.17,1.17,0,0,1,0-.68,1,1,0,0,1-1-.12,1.19,1.19,0,0,0-.08.41,1.2,1.2,0,0,0,1.2,1.21,1.14,1.14,0,0,0,.23,0,1.2,1.2,0,0,0,.27-.07A1.19,1.19,0,0,1,19.63,9.59Z"/><path class="cls-4" d="M22,9.37a1.18,1.18,0,0,0,0-2.34,1.17,1.17,0,0,0-2.14-.51l-.15,0A1.86,1.86,0,0,0,18.17,4a1.87,1.87,0,0,0-3.38-.8A2,2,0,1,0,14.5,7a1.87,1.87,0,0,0,1.06,2.14,1.88,1.88,0,0,0,2.53-1,1.27,1.27,0,0,0,.56.65,1,1,0,0,0,1,.12,1.17,1.17,0,0,0,0,.68,1.17,1.17,0,0,0,1.37.77,1.13,1.13,0,0,0,.16,0A1.19,1.19,0,0,0,22,9.37Z"/><path class="cls-2" d="M33.86,7A4.49,4.49,0,0,0,30,11.41v5h7.71v-5A4.49,4.49,0,0,0,33.86,7Z"/><path class="cls-3" d="M34.5,6.9a4.46,4.46,0,0,0-.64.06h0a4.49,4.49,0,0,1,3.86,4.45v5H39v-5A4.5,4.5,0,0,0,34.5,6.9Z"/><path d="M35.5,18.41a.5.5,0,0,0-.5.5v4.74L33.54,27a4.49,4.49,0,0,0-8.54,2v1.5H22v-1.5c0-.15,0-.29,0-.43h0l2-4.48,0,0a.44.44,0,0,0,0-.21V18.91a.5.5,0,0,0-1,0v4.74L21.54,27a4.49,4.49,0,0,0-8.54,2v1.5H10v-1.5c0-.15,0-.29,0-.43h0l2-4.48,0,0a.44.44,0,0,0,0-.21V18.91a.5.5,0,0,0-1,0v4.74L9.54,27a4.49,4.49,0,0,0-8.54,2v1.5a1,1,0,0,0-1,1v2a1,1,0,0,0,1,1H34a1,1,0,0,0,1-1v-2a1,1,0,0,0-1-1v-1.5c0-.15,0-.29,0-.43h0l2-4.48,0,0a.44.44,0,0,0,0-.21V18.91A.5.5,0,0,0,35.5,18.41ZM14,28.91a3.5,3.5,0,0,1,7,0v1.5H14Zm-12,0a3.5,3.5,0,0,1,7,0v1.5H2Zm32,4.5H1v-2H34Zm-2-3H26v-1.5a3.5,3.5,0,0,1,7,0v1.5Z"/><path d="M42,.91a.5.5,0,0,0-1,0V5.64L39.48,9.09A5.48,5.48,0,0,0,31,7.17V1.41a1,1,0,0,0-1-1H11a1,1,0,0,0-1,1v13a1,1,0,0,0,1,1H29v1a1,1,0,0,0,1,1h9a1,1,0,0,0,1-1v-5a5.51,5.51,0,0,0-.08-.89l0,0,2-4.48,0,0a.49.49,0,0,0,0-.22ZM11,14.41v-13H30V8.26a5.48,5.48,0,0,0-1,3.16v3Zm28,2H30v-5A4.49,4.49,0,0,1,33.86,7h0a4.46,4.46,0,0,1,.64-.06A4.5,4.5,0,0,1,39,11.41Z"/><circle class="cls-3" cx="29.5" cy="21.91" r="1.5"/><path d="M32,21.91a2.5,2.5,0,1,0-2.5,2.5A2.5,2.5,0,0,0,32,21.91Zm-2.5,1.5a1.5,1.5,0,1,1,1.5-1.5A1.5,1.5,0,0,1,29.5,23.41Z"/><path class="cls-2" d="M29,25.46a3.47,3.47,0,0,1,.5-.05,3.5,3.5,0,0,0-3.5,3.5v1.5h6v-1.5A3.49,3.49,0,0,0,29,25.46Z"/><path class="cls-3" d="M29.5,25.41a3.47,3.47,0,0,0-.5.05,3.49,3.49,0,0,1,3,3.45v1.5h1v-1.5A3.5,3.5,0,0,0,29.5,25.41Z"/><path class="cls-4" d="M26,13.41V8.32a1.7,1.7,0,0,1-.8-.15l-.2.07v5.17H21v-3a1.19,1.19,0,0,1-.73-.07,1.2,1.2,0,0,1-.27.07v3H16V9.29a1.89,1.89,0,0,1-.44-.13,1.87,1.87,0,0,1-.56.15v4.1H11v1H29v-1Z"/><polygon class="cls-4" points="26 31.41 21 31.41 14 31.41 9 31.41 2 31.41 1 31.41 1 33.41 34 33.41 34 31.41 33 31.41 26 31.41"/><circle class="cls-4" cx="1.09" cy="8.73" r="0.5" transform="translate(-7.38 6.33) rotate(-67.07)"/><path class="cls-4" d="M1.5,17.29l.29.93.29-.93a.56.56,0,0,1,.37-.37l.93-.29-.93-.29A.56.56,0,0,1,2.08,16L1.79,15,1.5,16a.56.56,0,0,1-.37.37l-.93.29.93.29A.56.56,0,0,1,1.5,17.29Zm.29-.93a.27.27,0,1,1-.27.27A.27.27,0,0,1,1.79,16.36Z"/><circle class="cls-2" cx="1.79" cy="16.63" r="0.27"/><path class="cls-4" d="M5.5,5.29l.29.93.29-.93a.56.56,0,0,1,.37-.37l.93-.29-.93-.29A.56.56,0,0,1,6.08,4L5.79,3,5.5,4a.56.56,0,0,1-.37.37l-.93.29.93.29A.56.56,0,0,1,5.5,5.29Zm.29-.93a.27.27,0,1,1-.27.27A.27.27,0,0,1,5.79,4.36Z"/><circle class="cls-2" cx="5.79" cy="4.63" r="0.27"/><path class="cls-4" d="M5.65,12.76a1.2,1.2,0,1,0,1.7,0A1.2,1.2,0,0,0,5.65,12.76ZM6.92,14a.6.6,0,1,1,0-.85A.6.6,0,0,1,6.92,14Z"/></svg>