<svg id="NOT_OUTLINED_copy" data-name="NOT OUTLINED copy" xmlns="http://www.w3.org/2000/svg" viewBox="0 0 36 37.34"><defs><style>.cls-1{fill:#f9c02e;}.cls-2{fill:#020202;}.cls-3{fill:#ffdf99;}.cls-4{fill:#fff;}.cls-5{fill:#f8c02c;}</style></defs><title>Artboard 1</title><path d="M3.92,31.68a2.41,2.41,0,0,1-1.16-.43.46.46,0,0,1,0-.56.38.38,0,0,1,.52-.07,2,2,0,0,0,.68.26V29.67c-.68-.15-1.37-.37-1.27-1.31a1.31,1.31,0,0,1,1.27-1.1v-.1a.34.34,0,1,1,.68,0v.14a1.78,1.78,0,0,1,.74.27c.43.31,0,.89-.38.62a3.1,3.1,0,0,0-.37-.14v1.09c.63.16,1.25.43,1.25,1.21A1.3,1.3,0,0,1,4.6,31.62v.15a.34.34,0,1,1-.68,0Zm0-3.68c-.32.05-.53.2-.53.52s.21.38.53.48Zm.68,2.88c.26-.11.48-.26.48-.58a.59.59,0,0,0-.48-.42Z"/><path d="M19.54,20.34h16a.5.5,0,0,0,0-1H35v-8a1,1,0,0,0-1-1H32a1,1,0,0,0-1,1v8H30v-10a1,1,0,0,0-1-1H27a1,1,0,0,0-1,1v10H25v-5a1,1,0,0,0-1-1H22a1,1,0,0,0-1,1v5H20V6.84a.5.5,0,0,0-1,0v13A.5.5,0,0,0,19.54,20.34Zm12.46-9h2v8H32Zm-5-2h2v10H27Zm-5,5h2v5H22Z"/><path d="M14,36.34H1l0,0V25.84a.5.5,0,0,0-1,0v11a.5.5,0,0,0,.5.5H14a.5.5,0,0,0,0-1Z"/><path class="cls-1" d="M12.1,16.45l.07-.12,0,.06Z"/><path class="cls-1" d="M10.69,18a6,6,0,0,1-.94.61A6,6,0,0,0,10.69,18Z"/><path class="cls-1" d="M7,19.29a6,6,0,0,0,2.74-.66A6,6,0,0,1,8.68,19L7,13.29l5.88-1.17a6,6,0,0,1-.28,3.31A6,6,0,1,0,7,19.29Z"/><path class="cls-1" d="M10.69,18a6,6,0,0,0,1.39-1.54h0A6,6,0,0,1,10.69,18Z"/><path class="cls-1" d="M12.17,16.33a6,6,0,0,0,.42-.87,6,6,0,0,1-.43.86Z"/><path class="cls-2" d="M7,20.29a7,7,0,1,0-7-7A7,7,0,0,0,7,20.29Zm0-13a6,6,0,0,1,5.6,8.14v0a6,6,0,0,1-.42.87h0l-.07.12v0h0A6,6,0,0,1,10.69,18h0a6,6,0,0,1-.94.61h0A6,6,0,1,1,7,7.29Z"/><rect class="cls-1" x="22" y="14.34" width="2" height="5"/><rect class="cls-3" x="32" y="11.34" width="2" height="8"/><rect class="cls-4" x="27" y="9.34" width="2" height="10"/><path class="cls-3" d="M12.13,16.39l0-.06h0Z"/><path class="cls-3" d="M12.07,16.47,7,13.29,8.68,19a6,6,0,0,0,1.06-.42h0a6,6,0,0,0,.94-.61h0A6,6,0,0,0,12.07,16.47Z"/><path class="cls-4" d="M12.88,12.13,7,13.29l5.07,3.17h0v0l0-.06,0-.06a6,6,0,0,0,.43-.86v0A6,6,0,0,0,12.88,12.13Z"/><polygon class="cls-1" points="14 36.34 14 33.34 10 30.34 6 34.34 5 33.34 1.04 36.31 1 36.34 14 36.34"/><path class="cls-4" d="M34,31.17a5.8,5.8,0,0,0-1.64-.61,2.39,2.39,0,0,1,.89.53c.46.42-.64,1.06-.84.7s-.57-.83-.82-.62.42.35.92,1,0,4.21,0,4.21H35V32.21A12.84,12.84,0,0,1,34,31.17Z"/><path class="cls-4" d="M28,33.51c-.65,0-.88-.91-.84-1.56a1.35,1.35,0,0,1,.74-1.23c.45-.3,2.68,0,2.68,0,.71,0,.33-.52,0-1.06s-.86-.24-1.15-.24.13.35.17.64-.87,0-.87,0,.37-.32.24-.62-.76.1-1,.26-.5.69-1,.52-.48-.86-.22-1.15.89-.11,1-.11-.28-.49.22-.66.51-.58,1.09-.07c.3.26,1.43,0,1.47-.37s-.62-.66-1.25-.79-.42,1-.83.79-.17-1.54-.17-1.54H23.44l-.63.31c-.63.31-.75,1.31-.5.94s.94-.12,1.38,0-.06,1.19-.69,1.31,0,.94-.19,1.44-.5-.25-.81-.69-1.37.25-1.25,1,1.25.5,2.22.69,2.22,1.12,1.84,2a11,11,0,0,0-.37,3h6.35a17,17,0,0,0-.92-2.64C29.64,33.49,28.69,33.55,28,33.51Zm-.3-6.08a4.91,4.91,0,0,1,.17.6c.13.38-.19.17-.58.17s-.15-.35-.33-1S27.56,26.92,27.75,27.42Zm-1-.12s.23.71,0,.67S26.43,27.22,26.74,27.3Z"/><path class="cls-4" d="M21.13,32.78a1,1,0,0,1,.88-1,5.57,5.57,0,0,1-1.31-.44,1.23,1.23,0,0,1-.65-1l0-4v10h3.31S23.25,36,23,35.09,21.13,33.65,21.13,32.78Z"/><path d="M35,25.34H20a1,1,0,0,0-1,1v10a1,1,0,0,0,1,1H35a1,1,0,0,0,1-1v-10A1,1,0,0,0,35,25.34Zm0,6.87v4.13H20v-10H35Z"/><path class="cls-1" d="M23,31.34c-1-.19-2.09.06-2.22-.69s.94-1.44,1.25-1,.62,1.19.81.69S22.38,29,23,28.9s1.13-1.19.69-1.31-1.12-.37-1.37,0-.13-.62.5-.94l.63-.31H20l0,4a1.23,1.23,0,0,0,.65,1,5.57,5.57,0,0,0,1.31.44,1,1,0,0,0-.87,1c0,.88,1.63,1.44,1.88,2.31s.31,1.25.31,1.25h1.13a11,11,0,0,1,.38-3C25.19,32.46,23.94,31.53,23,31.34Z"/><path class="cls-1" d="M27.33,28.19c.4,0,.71.21.58-.17a4.91,4.91,0,0,0-.17-.6c-.19-.5-.93-.83-.75-.21S26.94,28.19,27.33,28.19Z"/><path class="cls-1" d="M26.74,28c.23,0,0-.67,0-.67C26.43,27.22,26.51,27.93,26.74,28Z"/><path class="cls-1" d="M28.54,27.88c.42.17.21-.92.83-.79s1.29.37,1.25.79-1.17.63-1.47.38c-.58-.5-.59-.09-1.09.07S28,29,27.84,29s-.74-.18-1,.11-.3,1,.22,1.15.8-.36,1-.52.84-.56,1-.26-.24.62-.24.62.92.29.88,0-.46-.64-.17-.64.85-.3,1.15.24.68,1,0,1.06c0,0-2.23-.32-2.68,0a1.35,1.35,0,0,0-.74,1.23c0,.65.19,1.52.84,1.56s1.6,0,1.83.19a17,17,0,0,1,.92,2.64H32.5s.5-3.6,0-4.21-1.17-.75-.92-1,.61.27.82.62,1.3-.29.84-.7a2.39,2.39,0,0,0-.89-.53,5.8,5.8,0,0,1,1.64.61,12.84,12.84,0,0,0,1,1V26.34H28.38S28.13,27.71,28.54,27.88Z"/><circle class="cls-5" cx="30.83" cy="0.5" r="0.5" transform="translate(18.36 28.7) rotate(-67.07)"/><path class="cls-5" d="M32.71,5.4l.29.93.29-.93A.56.56,0,0,1,33.66,5l.93-.29-.93-.29a.56.56,0,0,1-.37-.37L33,3.15l-.29.93a.56.56,0,0,1-.37.37l-.93.29.93.29A.56.56,0,0,1,32.71,5.4ZM33,4.48a.27.27,0,1,1-.27.27A.27.27,0,0,1,33,4.48Z"/><circle class="cls-4" cx="33" cy="4.75" r="0.27"/><path class="cls-5" d="M26.52,4.25a.5.5,0,1,0-.27-.66A.5.5,0,0,0,26.52,4.25Zm0-.54a.19.19,0,1,1,.1.25A.19.19,0,0,1,26.53,3.71Z"/><circle class="cls-4" cx="26.71" cy="3.79" r="0.19" transform="translate(12.82 26.91) rotate(-67.08)"/><path class="cls-5" d="M12.58,26.64l-.29-.93-.29.93a.56.56,0,0,1-.37.37l-.93.29.93.29A.56.56,0,0,1,12,28l.29.93.29-.93a.56.56,0,0,1,.37-.37l.93-.29L12.95,27A.56.56,0,0,1,12.58,26.64Zm-.29.93a.27.27,0,1,1,.27-.27A.27.27,0,0,1,12.29,27.56Z"/><circle class="cls-4" cx="12.29" cy="27.3" r="0.27"/><path class="cls-5" d="M7.54,26.14a.5.5,0,1,0,.66-.27A.5.5,0,0,0,7.54,26.14Zm.64.27a.19.19,0,1,1-.1-.25A.19.19,0,0,1,8.18,26.41Z"/><circle class="cls-4" cx="8" cy="26.34" r="0.19" transform="translate(-19.37 23.45) rotate(-67.08)"/></svg>