<svg id="Layer_1" data-name="Layer 1" xmlns="http://www.w3.org/2000/svg" viewBox="0 0 33 28.18"><defs><style>.cls-1{fill:#ffdf99;}.cls-2{fill:#fff;}.cls-3{fill:#f8c02c;}</style></defs><title>Artboard 1</title><path class="cls-1" d="M2,24.18v-15H1v18H11.55l-8.78-2A1,1,0,0,1,2,24.18Z"/><path class="cls-1" d="M31,24.18a1,1,0,0,1-.78,1l-8.78,2H32v-18H31Z"/><path d="M32,8.18H31v-2a1,1,0,0,0-1-1l-.22,0L27,5.85V4.18a1,1,0,0,0-1.49-.87l-9,5h0l-9-5A1,1,0,0,0,6,4.18V5.85L3.22,5.21,3,5.18a1,1,0,0,0-1,1v2H1a1,1,0,0,0-1,1v18a1,1,0,0,0,1,1H16a1,1,0,0,0,.3-.05l.06,0,.07,0,.07,0,.07,0,.07,0,.06,0a1,1,0,0,0,.3.05H32a1,1,0,0,0,1-1v-18A1,1,0,0,0,32,8.18Zm-29-2,3,.69V22.18a1,1,0,0,0,.51.87l6,3.31L3,24.18Zm-2,21v-18H2v15a1,1,0,0,0,.78,1l8.78,2Zm6-5v-18l9,5v18Zm19.49.87a1,1,0,0,0,.51-.87V6.87l3-.69v18l-9.48,2.19ZM17,9.18l9-5v18l-9,5Zm15,18H21.45l8.78-2a1,1,0,0,0,.78-1v-15h1Z"/><path class="cls-2" d="M6.51,23.06A1,1,0,0,1,6,22.18V6.87L3,6.18v18l9.48,2.19Z"/><path class="cls-2" d="M30,24.18v-18l-3,.69V22.18a1,1,0,0,1-.51.87l-6,3.31Z"/><path class="cls-2" d="M7,4.18v18l9,5v-18Zm7.78,20.19L8.22,20.72v-6l6.57,3.65Zm0-7.94L8.22,12.78V11.65l6.57,3.65Zm0-2.43L8.22,10.35V9.22l6.57,3.65Zm0-2.43L8.22,7.92V6.79l6.57,3.65Z"/><path class="cls-2" d="M26,4.18l-9,5v18l9-5ZM24.78,20.72l-6.57,3.65V23.24l6.57-3.65Zm0-2.43-6.57,3.65V20.81l6.57-3.65Zm0-2.43-6.57,3.65V18.37l6.57-3.65Zm0-3.08-6.57,3.65v-6l6.57-3.65Z"/><polygon class="cls-3" points="18.21 16.43 24.79 12.78 24.79 6.79 18.21 10.44 18.21 16.43"/><polygon class="cls-1" points="18.21 19.51 24.79 15.86 24.79 14.72 18.21 18.37 18.21 19.51"/><polygon class="cls-1" points="18.21 21.94 24.79 18.29 24.79 17.16 18.21 20.8 18.21 21.94"/><polygon class="cls-1" points="18.21 24.37 24.79 20.72 24.79 19.59 18.21 23.24 18.21 24.37"/><polygon class="cls-1" points="8.21 7.92 14.79 11.57 14.79 10.44 8.21 6.79 8.21 7.92"/><polygon class="cls-1" points="8.21 10.35 14.79 14 14.79 12.87 8.21 9.22 8.21 10.35"/><polygon class="cls-1" points="8.21 12.78 14.79 16.43 14.79 15.3 8.21 11.65 8.21 12.78"/><polygon class="cls-3" points="8.21 20.72 14.79 24.37 14.79 18.37 8.21 14.72 8.21 20.72"/><circle class="cls-3" cx="20.71" cy="3.63" r="0.5" transform="translate(9.3 21.29) rotate(-67.07)"/><circle class="cls-3" cx="11.09" cy="0.5" r="0.5" transform="translate(6.31 10.52) rotate(-67.07)"/><path class="cls-3" d="M28.84,2.57l.29.93.29-.93a.56.56,0,0,1,.37-.37l.93-.29-.93-.29a.56.56,0,0,1-.37-.37L29.13.32l-.29.93a.56.56,0,0,1-.37.37l-.93.29.93.29A.56.56,0,0,1,28.84,2.57Zm.29-.93a.27.27,0,1,1-.27.27A.27.27,0,0,1,29.13,1.65Z"/><circle class="cls-2" cx="29.13" cy="1.92" r="0.27"/><path class="cls-3" d="M13.5,4.06l.29.93.29-.93a.56.56,0,0,1,.37-.37l.93-.29-.93-.29a.56.56,0,0,1-.37-.37l-.29-.93-.29.93a.56.56,0,0,1-.37.37l-.93.29.93.29A.56.56,0,0,1,13.5,4.06Zm.29-.93a.27.27,0,1,1-.27.27A.27.27,0,0,1,13.79,3.13Z"/><circle class="cls-2" cx="13.79" cy="3.4" r="0.27"/></svg>