<?xml version="1.0" encoding="utf-8"?>
<!-- Generator: Adobe Illustrator 19.2.1, SVG Export Plug-In . SVG Version: 6.00 Build 0)  -->
<svg version="1.1" id="Layer_1" xmlns="http://www.w3.org/2000/svg" xmlns:xlink="http://www.w3.org/1999/xlink" x="0px" y="0px"
	 viewBox="0 0 62.6498489 64.333313" style="enable-background:new 0 0 62.6498489 64.333313;" xml:space="preserve">
<style type="text/css">
	.st0{fill:none;}
	.st1{fill:#FEE098;}
	.st2{fill:#F8BE29;}
	.st3{fill:#FFFFFF;}
</style>
<g>
	<path class="st0" d="M28.658268,3.3999634c0.2999878,0,0.5-0.1999512,0.5-0.5
		C29.158268,3.1761475,28.934391,3.3999634,28.658268,3.3999634z"/>
	<path class="st0" d="M36.2028236,31.7199707l0.1372681-7.2612915c-0.4743652,0.1363525-0.9676514,0.2137451-1.4716797,0.2137451
		c-1.6740112,0-3.1724243-0.7650757-4.1646729-1.9638062c-0.8644409,1.2467651-2.3017578,2.0679321-3.9304199,2.0679321
		c-0.4036255,0-0.8008423-0.0513306-1.1837158-0.1503296c-0.8762207,1.092041-2.2201538,1.7858276-3.7226562,1.7858276
		c-0.2276001,0-0.4511108-0.0274658-0.6735229-0.0593872v6.6844482c3.1838989-1.0987549,6.5908813-1.7037964,10.1315308-1.7037964
		C32.9831581,31.333313,34.6116371,31.4678345,36.2028236,31.7199707z"/>
	<path class="st0" d="M28.658268,3.3999634c-0.276123,0-0.5-0.2238159-0.5-0.5
		C28.158268,3.2000122,28.3582802,3.3999634,28.658268,3.3999634z"/>
	<path class="st0" d="M28.658268,2.3999634c-0.2999878,0-0.5,0.2000122-0.5,0.5
		C28.158268,2.6238403,28.3821449,2.3999634,28.658268,2.3999634z"/>
	<path class="st0" d="M29.158268,2.8999634c0-0.2999878-0.2000122-0.5-0.5-0.5
		C28.934391,2.3999634,29.158268,2.6238403,29.158268,2.8999634z"/>
	<path class="st1" d="M31.324955,33.333313c-1.1142578,0-2.2121582,0.0682373-3.2940674,0.189209
		c14.5393066,1.6260986,25.8635864,13.8760986,26.0307007,28.810791h6.5882568
		C60.4702797,46.2872925,47.413456,33.333313,31.324955,33.333313z"/>
	<path class="st1" d="M16.8008461,37.1867676c1.2113037-0.6922607,2.4760742-1.3000488,3.7877197-1.8165894
		C9.8015175,39.6181641,2.1372714,50.0686646,2.0000033,62.333313h29.6127319
		C31.4921303,51.5559692,25.5573769,42.1837158,16.8008461,37.1867676z"/>
	<path class="st1" d="M24.2223549,34.2033691c0.5838623-0.1452637,1.1759644-0.269165,1.7731323-0.3782959
		c-1.8709106,0.343689-3.6785278,0.8644409-5.4069214,1.545105c10.7870483,4.2479858,18.4511719,14.6984863,18.5884399,26.9631348
		h7.3203125C46.3449135,48.7133179,36.9096107,37.3356934,24.2223549,34.2033691z"/>
	<path class="st1" d="M26.2272987,33.7839355c0.5953979-0.1038208,1.1957397-0.1932983,1.8027954-0.2612915
		C27.4229774,33.5905762,26.8226357,33.6795044,26.2272987,33.7839355z"/>
	<path d="M38.1961098,32.1088867l0.1339722-7.019043c0.8441162,0.4481201,1.7872925,0.7175903,2.7811279,0.7175903
		c3.2932739,0,5.9725342-2.6793213,5.9725342-5.9726562c0-0.501709-0.0633545-0.9969482-0.1890869-1.4807129
		c0.270752-0.6890869,0.411377-1.4171753,0.411377-2.1466064c0-0.677124-0.1217651-1.3540649-0.3566895-2.0001221
		c0.2349243-0.6459351,0.3566895-1.322876,0.3566895-1.9998779c0-2.25177-1.2686768-4.2642822-3.1815186-5.2779541
		c-0.348999-2.645813-2.6190796-4.6947021-5.3586426-4.6947021c-1.4868164,0-2.8956909,0.6143188-3.90802,1.6757202
		c-2.2371826,0.6604614-3.8689575,2.5461426-4.1984253,4.8464966c-1.1054077,0.5119019-2.0119019,1.3552856-2.6243896,2.3861084
		c-0.3129883-2.1514893-2.1517334-3.8146973-4.3885498-3.8146973c-0.8308105,0-1.6209717,0.2342529-2.305603,0.6682129
		c-0.5189209-0.1711426-1.0628662-0.2590332-1.6182251-0.2590332c-2.894043,0-5.2485352,2.3545532-5.2485352,5.2486572
		c0,0.3575439,0.0361938,0.7108765,0.1071777,1.0558472c-1.0584717,0.9726562-1.697876,2.359436-1.697876,3.8505249
		c0,1.1029663,0.3475342,2.1585083,0.9807129,3.0379028c-0.0350342,0.2303467-0.0526123,0.4628906-0.0526123,0.6970825
		c0,2.6381226,2.1463013,4.7844238,4.7845459,4.7844238c0.2018433,0,0.3994751-0.0275269,0.5973511-0.0526733v7.4381714
		C8.0567665,38.5203857,0.1432529,49.5223999,0.0001255,62.3109131c-0.0059814,0.5343018,0.2020874,1.0487671,0.5777588,1.4286499
		c0.3757324,0.3799438,0.8878174,0.59375,1.4221191,0.59375h58.6498413c0.5343018,0,1.0464478-0.2138062,1.4221191-0.59375
		c0.3756714-0.3798828,0.5837402-0.8943481,0.5777588-1.4286499C62.4849281,47.588501,52.0195961,35.2407227,38.1961098,32.1088867z
		 M32.6606483,10.237854c-0.0319824-0.2028809-0.0623779-0.4066162-0.0623779-0.6184082
		c0-1.9868164,1.4627686-3.6182861,3.3674316-3.9116211c0.6143799-0.8886719,1.6380615-1.4730225,2.8001709-1.4730225
		c1.8806152,0,3.4051514,1.5245361,3.4051514,3.4051514c0,0.2303467-0.024292,0.4549561-0.0678711,0.6724854
		c1.8251953,0.3587646,3.2028809,1.9645996,3.2028809,3.8950195c0,0.7329102-0.2124023,1.4105225-0.5584717,1.9998779
		c0.3460693,0.5893555,0.5584717,1.2672119,0.5584717,2.0001221c0,0.7403564-0.2158203,1.4249268-0.5684814,2.0183105
		c0.2189941,0.4926758,0.3461914,1.0350342,0.3461914,1.6090088c0,2.1940918-1.7785645,3.9726562-3.9725342,3.9726562
		c-1.6253662,0-3.0183105-0.9785156-3.6335449-2.3765869c-0.6245117,0.7521973-1.5550537,1.2415771-2.6092529,1.2415771
		c-1.6194458,0-2.968689-1.1329956-3.3139648-2.6478271c0.000061-0.0111084,0.0032959-0.0213623,0.0032959-0.0324707
		c0-0.2771606-0.0395508-0.5452271-0.0848389-0.8110352c0.0125732-0.4675903,0.1159668-0.9113159,0.2984619-1.3139648
		c-0.3951416-0.1487427-0.7579956-0.3608398-1.0821533-0.6192627c-0.1986694-0.2824097-0.423584-0.5463257-0.6810913-0.7807007
		c0.0042725-0.0847778,0.0064087-0.1697388,0.0064087-0.2546997c0-0.9714355-0.2776489-1.8972778-0.7614136-2.6945801
		C29.535099,11.7990723,30.9199867,10.4612427,32.6606483,10.237854z M18.5960732,24.4120483
		c-1.5378418,0-2.7845459-1.246582-2.7845459-2.7844238c0-0.4385986,0.1104736-0.8480225,0.2911377-1.217041
		c-0.737793-0.595459-1.2192383-1.4959717-1.2192383-2.5179443c0-1.4162598,0.9118652-2.6082764,2.1761475-3.0528564
		c-0.3669434-0.526123-0.5854492-1.1634521-0.5854492-1.8535156c0-1.7941895,1.4544678-3.2486572,3.2485352-3.2486572
		c0.7349854,0,1.4051514,0.2531738,1.9494629,0.6646729c0.4436035-0.6331787,1.1425781-1.0738525,1.9743652-1.0738525
		c1.3547363,0,2.453125,1.0982666,2.453125,2.453125c0,0.498291-0.1851807,0.9353027-0.4404297,1.3222656
		c1.3566895,0.3900146,2.3553467,1.6264648,2.3553467,3.1086426c0,0.4213867-0.0864258,0.821167-0.2324219,1.1906738
		c1.0377197,0.4047852,1.7756348,1.407959,1.7756348,2.5889893c0,1.5378418-1.246582,2.7844238-2.7844238,2.7844238
		c-0.862915,0-1.6245117-0.4007568-2.1352539-1.0170898c-0.0703125,1.4752197-1.2784424,2.6525879-2.7711182,2.6525879
		c-0.6134033,0-1.175293-0.2043457-1.635376-0.5404053C19.7714882,24.2077026,19.2093544,24.4120483,18.5960732,24.4120483z
		 M21.1934242,26.3526611c0.2224121,0.0319214,0.4459229,0.0593872,0.6735229,0.0593872
		c1.5025024,0,2.8464355-0.6937866,3.7226562-1.7858276c0.3828735,0.098999,0.7800903,0.1503296,1.1837158,0.1503296
		c1.6286621,0,3.065979-0.821167,3.9304199-2.0679321c0.9922485,1.1987305,2.4906616,1.9638062,4.1646729,1.9638062
		c0.5040283,0,0.9973145-0.0773926,1.4716797-0.2137451l-0.1372681,7.2612915
		c-1.5911865-0.2521362-3.2196655-0.3866577-4.8778687-0.3866577c-3.5406494,0-6.9476318,0.6050415-10.1315308,1.7037964V26.3526611
		z M54.0615883,62.333313h-7.56427h-7.3203125h-7.56427H2.0000033c0.1372681-12.2646484,7.8015141-22.7151489,18.588562-26.9631348
		l0,0l0,0c1.7283936-0.6806641,3.5360107-1.201416,5.4069214-1.545105c0.0772095-0.0140991,0.1544189-0.0275879,0.2318115-0.0411377
		c0.5953369-0.1044312,1.1956787-0.1933594,1.8027954-0.2612915c0.0002441,0,0.0004883-0.0001221,0.0007324-0.0001221h0.000061
		c1.0819092-0.1209717,2.1798096-0.189209,3.2940674-0.189209c16.088501,0,29.1453247,12.9539795,29.3248901,29H54.0615883z"/>
	<path class="st2" d="M30.0081215,16.4671631c0.2575073,0.234375,0.4824219,0.498291,0.6810913,0.7807007
		c0.3241577,0.2584229,0.6870117,0.47052,1.0821533,0.6192627c-0.1824951,0.4026489-0.2858887,0.8463745-0.2984619,1.3139648
		c0.0452881,0.2658081,0.0848389,0.5338745,0.0848389,0.8110352c0,0.0111084-0.0032349,0.0213623-0.0032959,0.0324707
		c0.3452759,1.5148315,1.694519,2.6478271,3.3139648,2.6478271c1.0541992,0,1.9847412-0.4893799,2.6092529-1.2415771
		c0.6152344,1.3980713,2.0081787,2.3765869,3.6335449,2.3765869c2.1939697,0,3.9725342-1.7785645,3.9725342-3.9726562
		c0-0.5739746-0.1271973-1.116333-0.3461914-1.6090088c0.3526611-0.5933838,0.5684814-1.2779541,0.5684814-2.0183105
		c0-0.7329102-0.2124023-1.4107666-0.5584717-2.0001221c0.3460693-0.5893555,0.5584717-1.2669678,0.5584717-1.9998779
		c0-1.9304199-1.3776855-3.5362549-3.2028809-3.8950195c0.0435791-0.2175293,0.0678711-0.4421387,0.0678711-0.6724854
		c0-1.8806152-1.5245361-3.4051514-3.4051514-3.4051514c-1.1621094,0-2.185791,0.5843506-2.8001709,1.4730225
		c-1.9046631,0.293335-3.3674316,1.9248047-3.3674316,3.9116211c0,0.211792,0.0303955,0.4155273,0.0623779,0.6184082
		c-1.7406616,0.2233887-3.1255493,1.5612183-3.4075317,3.2800293c0.4837646,0.7973022,0.7614136,1.7231445,0.7614136,2.6945801
		C30.0145302,16.2974243,30.012394,16.3823853,30.0081215,16.4671631z"/>
	<path class="st2" d="M21.8669472,24.4120483c1.4926758,0,2.7008057-1.1773682,2.7711182-2.6525879
		c0.5107422,0.616333,1.2723389,1.0170898,2.1352539,1.0170898c1.5378418,0,2.7844238-1.246582,2.7844238-2.7844238
		c0-1.1810303-0.737915-2.1842041-1.7756348-2.5889893c0.1459961-0.3695068,0.2324219-0.7692871,0.2324219-1.1906738
		c0-1.4821777-0.9986572-2.7186279-2.3553467-3.1086426c0.255249-0.3869629,0.4404297-0.8239746,0.4404297-1.3222656
		c0-1.3548584-1.0983887-2.453125-2.453125-2.453125c-0.8317871,0-1.5307617,0.4406738-1.9743652,1.0738525
		c-0.5443115-0.411499-1.2144775-0.6646729-1.9494629-0.6646729c-1.7940674,0-3.2485352,1.4544678-3.2485352,3.2486572
		c0,0.6900635,0.2185059,1.3273926,0.5854492,1.8535156c-1.2642822,0.4445801-2.1761475,1.6365967-2.1761475,3.0528564
		c0,1.0219727,0.4814453,1.9224854,1.2192383,2.5179443c-0.1806641,0.3690186-0.2911377,0.7784424-0.2911377,1.217041
		c0,1.5378418,1.2467041,2.7844238,2.7845459,2.7844238c0.6132812,0,1.175415-0.2043457,1.635498-0.5404053
		C20.6916542,24.2077026,21.2535439,24.4120483,21.8669472,24.4120483z"/>
	<g>
		<path class="st3" d="M28.0308876,33.522522h-0.000061c-0.0002441,0-0.0004883,0.0001221-0.0007324,0.0001221
			c-0.6070557,0.0679932-1.2073975,0.1574707-1.8027954,0.2612915c-0.0773926,0.0135498-0.1546021,0.0270386-0.2318115,0.0411377
			c-0.597168,0.1091309-1.18927,0.2330322-1.7731323,0.3782959c12.6872559,3.1323242,22.1225586,14.5099487,22.2749634,28.1299438
			h7.56427C53.894474,47.3986206,42.5701942,35.1486206,28.0308876,33.522522z"/>
	</g>
	<g>
		<path class="st3" d="M20.5885658,35.3701782L20.5885658,35.3701782L20.5885658,35.3701782
			c-1.3116455,0.5165405-2.576416,1.1243286-3.7877197,1.8165894c8.7565308,4.9969482,14.6912842,14.3692017,14.8118896,25.1465454
			h7.56427C39.0397377,50.0686646,31.3756142,39.6181641,20.5885658,35.3701782z"/>
	</g>
	
		<ellipse transform="matrix(0.3896118 -0.9209792 0.9209792 0.3896118 11.1331453 21.8707237)" class="st2" cx="22.0663033" cy="2.5362854" rx="0.5999938" ry="0.5999819"/>
	<path class="st2" d="M28.158268,4.0999756l0.5,1.7000122l0.5-1.7000122C29.2582436,3.7999878,29.4582558,3.5,29.8582802,3.3999634
		l1.7000122-0.5l-1.7000122-0.5C29.5582924,2.2999878,29.2582436,2,29.158268,1.7000122L28.658268,0l-0.5,1.7000122
		C28.0582924,2,27.7582436,2.2999878,27.4582558,2.3999634l-1.7000122,0.5l1.7000122,0.5
		C27.7582436,3.5,28.0582924,3.7999878,28.158268,4.0999756z M28.658268,2.3999634c0.2999878,0,0.5,0.2000122,0.5,0.5
		c0,0.3000488-0.2000122,0.5-0.5,0.5s-0.5-0.1999512-0.5-0.5C28.158268,2.5999756,28.3582802,2.3999634,28.658268,2.3999634z"/>
	<circle class="st3" cx="28.658268" cy="2.8999634" r="0.5"/>
</g>
</svg>
