<?xml version="1.0" encoding="utf-8"?>
<!-- Generator: Adobe Illustrator 21.1.0, SVG Export Plug-In . SVG Version: 6.00 Build 0)  -->
<svg version="1.1" id="Layer_1" xmlns="http://www.w3.org/2000/svg" xmlns:xlink="http://www.w3.org/1999/xlink" x="0px" y="0px"
	 viewBox="0 0 688.5 100" style="enable-background:new 0 0 688.5 100;" xml:space="preserve">
<style type="text/css">
	.st0{clip-path:url(#SVGID_2_);}
	.st1{fill:#A2C93A;}
	.st2{fill:#69C9CD;}
	.st3{fill:#F05323;}
	.st4{fill:#F8BF2C;}
	.st5{fill:#1A8986;}
	.st6{fill:#444545;}
</style>
<title>Artboard 1</title>
<g>
	<defs>
		<path id="SVGID_1_" d="M149.9,0H83.3l33.3,33.3L149.9,0z M216.6,0h-33.3l-50,50L183,99.8h33.4L166.6,50L216.6,0z M50,0L0,50l50,50
			l50-50L50,0z M33.3,50L50,33.3L66.6,50L50,66.6L33.3,50z M83.3,100H150l-33.2-33.9L83.3,100z"/>
	</defs>
	<clipPath id="SVGID_2_">
		<use xlink:href="#SVGID_1_"  style="overflow:visible;"/>
	</clipPath>
	<g class="st0">
		<rect x="-16.9" y="-35.3" class="st1" width="38.2" height="164"/>
		<rect x="21.3" y="-35.3" class="st2" width="19.1" height="164"/>
		<rect x="40.4" y="-35.3" class="st3" width="9.5" height="164"/>
		<rect x="50" y="-35.3" class="st4" width="33.2" height="164"/>
		<rect x="83.2" y="-35.3" class="st5" width="9.4" height="164"/>
		<rect x="92.6" y="-35.3" class="st1" width="38.2" height="164"/>
		<rect x="130.8" y="-35.3" class="st2" width="19.1" height="164"/>
		<rect x="149.9" y="-35.3" class="st3" width="9.6" height="164"/>
		<rect x="159.4" y="-35.3" class="st4" width="29.7" height="164"/>
		<rect x="189.1" y="-35.3" class="st5" width="9.4" height="164"/>
		<rect x="198.5" y="-35.3" class="st1" width="38.2" height="164"/>
	</g>
</g>
<path class="st6" d="M260.9,49.9c0,2.3-0.4,4.6-1.3,6.7c-0.8,2-2,3.8-3.6,5.3c-1.6,1.5-3.4,2.7-5.4,3.4c-4.3,1.6-9.1,1.6-13.4,0
	c-2-0.8-3.8-1.9-5.4-3.5c-1.5-1.5-2.7-3.3-3.6-5.3c-0.9-2.1-1.3-4.4-1.3-6.7c0-2.3,0.4-4.6,1.3-6.7c0.8-2,2-3.7,3.6-5.2
	c1.5-1.5,3.4-2.6,5.4-3.4c4.3-1.6,9.1-1.6,13.4,0c2,0.8,3.8,1.9,5.4,3.4c1.5,1.5,2.8,3.2,3.6,5.2C260.5,45.4,260.9,47.6,260.9,49.9z
	 M254.4,49.9c0-1.5-0.2-2.9-0.7-4.3c-0.4-1.3-1.1-2.5-2-3.6c-0.9-1.1-2-1.9-3.3-2.5c-2.9-1.2-6.1-1.2-9,0c-1.3,0.6-2.4,1.4-3.4,2.5
	c-0.9,1.1-1.6,2.3-2,3.6c-0.9,2.8-0.9,5.8,0,8.6c0.4,1.3,1.1,2.6,2,3.6c0.9,1.1,2,1.9,3.3,2.5c2.9,1.2,6.1,1.2,9,0
	c1.3-0.6,2.4-1.4,3.3-2.5c0.9-1.1,1.6-2.3,2-3.6C254.1,52.9,254.3,51.5,254.4,49.9L254.4,49.9z"/>
<path class="st6" d="M269.4,37.8c0-1.3-0.1-2.5-0.2-3.5h5.9c0.1,0.8,0.1,1.7,0.2,2.8s0.1,1.9,0.1,2.5h0.2c0.9-1.8,2.2-3.4,3.9-4.5
	c1.7-1.1,3.7-1.7,5.7-1.7c0.8,0,1.7,0.1,2.5,0.3l-0.3,5.8c-0.9-0.2-1.9-0.3-2.9-0.3c-1.4,0-2.7,0.3-3.9,0.8c-1.1,0.5-2,1.3-2.8,2.2
	c-0.7,1-1.3,2.1-1.6,3.2c-0.4,1.2-0.5,2.5-0.5,3.8v16.5h-6.2V41C269.5,40.2,269.4,39.1,269.4,37.8z"/>
<path class="st6" d="M302,22.9c0,1.1-0.4,2.1-1.2,2.9c-0.8,0.7-1.8,1.1-2.9,1.1c-1.1,0-2.1-0.4-2.9-1.2c-0.8-0.7-1.2-1.8-1.2-2.8
	c0-1.1,0.4-2.1,1.1-2.9c0.8-0.8,1.8-1.2,2.9-1.2c1.1,0,2.1,0.4,2.9,1.2C301.6,20.7,302,21.8,302,22.9z M301,65.7h-6.2V34.3h6.2V65.7
	z"/>
<path class="st6" d="M314.3,71.1c1.4,1.6,3.2,2.9,5.1,3.7c2,0.9,4.1,1.4,6.3,1.4c1.8,0,3.6-0.3,5.2-0.9c1.3-0.5,2.5-1.4,3.4-2.5
	c0.9-1.1,1.5-2.3,1.9-3.7c0.4-1.5,0.6-3,0.6-4.6v-4h-0.1c-1.2,1.8-2.8,3.1-4.7,4c-2,0.9-4.2,1.4-6.4,1.4c-2.2,0-4.5-0.4-6.5-1.3
	c-1.9-0.8-3.6-2-5-3.4c-1.4-1.5-2.5-3.2-3.2-5.1c-0.8-2-1.1-4.2-1.1-6.3c0-2.2,0.4-4.3,1.1-6.4c0.7-1.9,1.8-3.7,3.2-5.2
	c1.4-1.5,3.1-2.7,5-3.5c2.1-0.9,4.3-1.3,6.5-1.3c2.2,0,4.4,0.5,6.4,1.4c2,1,3.7,2.5,4.9,4.4h0.1v-5h6v29.8c0,2.2-0.3,4.4-0.9,6.6
	c-0.6,2-1.5,4-2.9,5.6c-1.5,1.7-3.3,3-5.4,3.9c-2.6,1-5.4,1.5-8.2,1.5c-2.8,0-5.6-0.5-8.3-1.5c-2.6-0.9-5.1-2.3-7.1-4.2L314.3,71.1z
	 M316.1,49.7c0,1.4,0.2,2.8,0.7,4.2c0.9,2.6,2.8,4.8,5.4,6c1.4,0.6,2.9,1,4.4,0.9c1.5,0,3-0.3,4.4-0.9c1.3-0.5,2.4-1.3,3.4-2.3
	c1-1,1.7-2.2,2.2-3.6c0.5-1.4,0.8-2.9,0.8-4.3c0-1.5-0.2-2.9-0.8-4.2c-1-2.6-3-4.8-5.5-5.9c-2.8-1.2-6-1.2-8.8,0
	c-1.2,0.6-2.4,1.4-3.3,2.4c-0.9,1-1.6,2.2-2.1,3.5C316.4,46.8,316.2,48.2,316.1,49.7z"/>
<path class="st6" d="M361.1,22.9c0,1.1-0.4,2.1-1.2,2.9c-0.8,0.7-1.8,1.1-2.9,1.1c-1.1,0-2.1-0.4-2.9-1.1c-0.8-0.7-1.2-1.8-1.2-2.8
	c0-1.1,0.4-2.2,1.2-2.9c0.8-0.8,1.8-1.2,2.9-1.2c1.1,0,2.2,0.4,2.9,1.2C360.6,20.8,361.1,21.8,361.1,22.9z M360.1,65.7h-6.2V34.3
	h6.2V65.7z"/>
<path class="st6" d="M376.6,34.3c0.1,0.8,0.2,1.7,0.2,2.7c0,1,0.1,1.8,0.1,2.5h0.2c0.4-0.9,1-1.7,1.6-2.3c0.7-0.7,1.5-1.4,2.3-1.9
	c0.9-0.6,1.9-1,2.9-1.3c1.1-0.3,2.2-0.5,3.3-0.5c1.8-0.1,3.6,0.3,5.2,1c1.4,0.6,2.6,1.6,3.6,2.8c1,1.2,1.7,2.5,2.2,4
	c0.5,1.6,0.7,3.3,0.7,5v19.5h-6.2V48.3c0-1.2-0.1-2.4-0.3-3.7c-0.2-1.1-0.5-2.1-1.1-3c-0.5-0.9-1.3-1.6-2.2-2.1
	c-1.1-0.6-2.3-0.8-3.6-0.8c-2.4-0.1-4.6,1-6.1,2.8c-1.7,2.2-2.5,4.8-2.3,7.5v16.7h-6.2V41c0-0.8,0-1.9-0.1-3.2
	c0-1.3-0.1-2.5-0.2-3.5L376.6,34.3z"/>
<path class="st6" d="M490.5,42.2c-0.8-1.1-1.8-2-3-2.5c-1.3-0.7-2.8-1-4.2-1c-1.5,0-3,0.3-4.4,0.9c-1.2,0.6-2.3,1.4-3.2,2.5
	c-0.9,1.1-1.6,2.3-2,3.6c-0.9,2.8-0.9,5.8,0,8.6c0.4,1.3,1.1,2.6,2,3.6c0.9,1,2,1.9,3.3,2.5c2.8,1.2,5.9,1.2,8.7,0
	c1.3-0.6,2.4-1.4,3.2-2.5l4.2,3.8c-1.4,1.6-3.1,2.8-5,3.6c-2.1,0.9-4.4,1.3-6.8,1.3c-2.3,0-4.6-0.4-6.7-1.2c-2-0.8-3.8-1.9-5.4-3.4
	c-1.5-1.5-2.7-3.2-3.5-5.2c-0.9-2.2-1.3-4.5-1.3-6.8c0-2.3,0.4-4.6,1.3-6.8c0.8-2,2-3.7,3.5-5.2c1.5-1.5,3.3-2.6,5.3-3.4
	c2.1-0.8,4.4-1.2,6.7-1.2c2.3,0,4.5,0.5,6.6,1.3c2,0.8,3.8,2.1,5.2,3.8L490.5,42.2z"/>
<path class="st6" d="M510.4,39c0.9-1.7,2.2-3.1,3.9-4c1.8-1.1,4-1.7,6.1-1.7c1.8-0.1,3.6,0.3,5.2,1c1.4,0.6,2.6,1.6,3.7,2.8
	c1,1.2,1.7,2.5,2.2,4c0.5,1.6,0.7,3.3,0.7,5v19.5h-6.3V48.3c0-1.2-0.1-2.5-0.3-3.7c-0.2-1.1-0.5-2.1-1.1-3.1
	c-0.5-0.9-1.3-1.6-2.2-2.1c-1.1-0.6-2.3-0.9-3.5-0.8c-2.4-0.1-4.6,1-6.1,2.8c-1.7,2.1-2.5,4.8-2.4,7.5v16.7H504V20.5h6.2V39H510.4z"
	/>
<path class="st6" d="M562.2,45.3c0.2-2-0.7-3.9-2.2-5.2c-1.6-1.2-3.6-1.8-5.6-1.7c-1.7,0-3.4,0.3-5,1c-1.5,0.6-2.8,1.5-4,2.6l-3.3-4
	c1.6-1.5,3.6-2.7,5.7-3.5c2.3-0.8,4.8-1.3,7.2-1.2c2,0,4,0.3,5.9,1c1.5,0.6,2.9,1.4,4.1,2.6c1.1,1.1,1.9,2.4,2.4,3.9
	c0.5,1.6,0.8,3.2,0.8,4.8v13.7c0,1.1,0,2.2,0.1,3.3c0,1,0.2,1.9,0.4,2.9H563c-0.4-1.5-0.5-3-0.5-4.5h-0.2c-1.1,1.6-2.6,3-4.3,3.9
	c-1.9,1-4,1.5-6.2,1.4c-1.3,0-2.6-0.2-3.9-0.5c-1.3-0.3-2.6-0.9-3.7-1.6c-1.1-0.8-2.1-1.8-2.8-3c-0.8-1.4-1.1-3-1.1-4.6
	c-0.1-2.1,0.6-4.1,1.9-5.7c1.4-1.5,3.1-2.5,5-3.2c2.3-0.8,4.6-1.2,7-1.4c2.6-0.2,5.2-0.3,7.9-0.3L562.2,45.3z M560.6,50.7
	c-1.5,0-3.2,0.1-4.8,0.2c-1.5,0.1-3,0.4-4.5,0.8c-1.2,0.3-2.4,1-3.3,1.8c-0.9,0.8-1.4,2-1.3,3.2c0,0.8,0.2,1.6,0.6,2.3
	c0.4,0.6,0.9,1.1,1.5,1.5c0.6,0.4,1.3,0.7,2.1,0.8c0.8,0.2,1.5,0.2,2.3,0.2c2.5,0.2,5-0.8,6.7-2.6c1.6-1.8,2.4-4.2,2.4-6.6v-1.7
	L560.6,50.7z"/>
<path class="st6" d="M584.2,34.3c0.1,0.8,0.2,1.7,0.2,2.7s0.1,1.8,0.1,2.5h0.2c0.4-0.9,1-1.7,1.6-2.3c0.7-0.7,1.5-1.4,2.4-1.9
	c0.9-0.6,1.9-1,2.9-1.3c1.1-0.3,2.2-0.5,3.3-0.5c1.8-0.1,3.6,0.3,5.2,1c1.4,0.6,2.6,1.6,3.7,2.8c1,1.2,1.7,2.5,2.2,4
	c0.5,1.6,0.7,3.3,0.7,5v19.5h-6.2V48.3c0-1.2-0.1-2.4-0.3-3.7c-0.2-1.1-0.5-2.1-1.1-3c-0.5-0.9-1.3-1.6-2.2-2.1
	c-1.1-0.6-2.3-0.8-3.6-0.8c-2.4-0.1-4.6,1-6.1,2.8c-1.7,2.1-2.5,4.8-2.4,7.5v16.7h-6.2V41c0-0.8,0-1.9-0.1-3.2
	c0-1.3-0.1-2.5-0.2-3.5L584.2,34.3z"/>
<path class="st6" d="M619.6,71.1c1.4,1.6,3.2,2.9,5.1,3.7c2,0.9,4.1,1.4,6.3,1.4c1.8,0,3.6-0.3,5.2-0.9c1.3-0.5,2.5-1.4,3.4-2.5
	c0.9-1.1,1.5-2.3,1.9-3.7c0.4-1.5,0.6-3,0.6-4.6v-4H642c-1.2,1.8-2.8,3.1-4.7,4c-2,0.9-4.1,1.4-6.3,1.4c-2.2,0-4.5-0.4-6.5-1.3
	c-1.9-0.8-3.6-2-5-3.4c-1.4-1.5-2.5-3.2-3.2-5.1c-0.8-2-1.1-4.2-1.1-6.3c0-2.2,0.4-4.3,1.1-6.4c0.7-1.9,1.8-3.7,3.2-5.2
	c1.4-1.5,3.1-2.7,5-3.5c2.1-0.9,4.3-1.3,6.5-1.3c2.2,0,4.4,0.5,6.5,1.5c2,1,3.7,2.5,4.9,4.4h0.1v-5h6v29.8c0,2.2-0.3,4.4-0.9,6.6
	c-0.6,2-1.5,4-2.9,5.6c-1.5,1.7-3.3,3-5.4,3.9c-2.6,1.1-5.5,1.6-8.3,1.5c-2.8,0-5.6-0.5-8.3-1.5c-2.6-0.9-5.1-2.3-7.1-4.2
	L619.6,71.1z M621.5,49.7c0,1.4,0.2,2.8,0.7,4.2c0.9,2.6,2.8,4.8,5.4,6c1.4,0.6,2.9,1,4.4,0.9c1.5,0,3-0.3,4.4-0.9
	c1.3-0.5,2.4-1.3,3.4-2.3c0.9-1,1.7-2.2,2.2-3.6c0.5-1.4,0.8-2.9,0.8-4.3c0-1.5-0.2-2.9-0.8-4.2c-1-2.6-3-4.8-5.6-5.9
	c-2.8-1.2-6-1.2-8.8,0c-1.2,0.6-2.4,1.4-3.3,2.4c-0.9,1-1.6,2.2-2.1,3.5C621.7,46.8,621.5,48.2,621.5,49.7z"/>
<path class="st6" d="M688.5,49.7v1.1c0,0.4,0,0.7-0.1,1.1h-25c0,1.3,0.3,2.6,0.9,3.7c0.5,1.1,1.3,2.2,2.2,3c0.9,0.9,2,1.5,3.2,2
	c3.1,1.2,6.5,0.9,9.4-0.7c1.5-0.8,2.7-2,3.7-3.4l4.4,3.5c-1.5,2.1-3.6,3.8-6,5c-4.5,2-9.6,2.1-14.2,0.4c-2-0.8-3.7-1.9-5.2-3.4
	c-1.5-1.5-2.7-3.3-3.5-5.2c-0.9-2.1-1.3-4.4-1.3-6.7c0-2.3,0.4-4.6,1.2-6.7c0.8-2,1.9-3.8,3.4-5.3c1.5-1.5,3.2-2.6,5.2-3.4
	c4.1-1.6,8.6-1.6,12.7-0.1c1.8,0.7,3.5,1.8,4.8,3.2c1.3,1.5,2.4,3.2,3,5.1C688.1,45.1,688.5,47.4,688.5,49.7z M682.1,47.2
	c0-1.2-0.2-2.4-0.6-3.5c-0.4-1-0.9-2-1.7-2.8c-0.8-0.8-1.7-1.5-2.7-1.9c-1.2-0.5-2.5-0.7-3.8-0.7c-1.3,0-2.6,0.2-3.8,0.7
	c-1.1,0.4-2.2,1.1-3,1.9c-0.9,0.8-1.6,1.8-2.1,2.8c-0.6,1.1-0.9,2.3-1,3.5L682.1,47.2z"/>
<polygon class="st4" points="463.8,20.5 449.3,20.5 433.1,41.9 416.9,20.5 402.3,20.5 425.6,50 402.3,79.5 416.9,79.5 433.1,58.1 
	449.3,79.5 463.8,79.5 440.6,50 "/>
</svg>
