<?xml version="1.0" encoding="utf-8"?>
<!-- Generator: Adobe Illustrator 16.0.4, SVG Export Plug-In . SVG Version: 6.00 Build 0)  -->
<!DOCTYPE svg PUBLIC "-//W3C//DTD SVG 1.1//EN" "http://www.w3.org/Graphics/SVG/1.1/DTD/svg11.dtd">
<svg version="1.1" id="Layer_1" xmlns="http://www.w3.org/2000/svg" xmlns:xlink="http://www.w3.org/1999/xlink" x="0px" y="0px"
	 width="9.579px" height="15.593px" viewBox="0 0 9.579 15.593" enable-background="new 0 0 9.579 15.593" xml:space="preserve">
<g>
	<path d="M4.97,0c0.432,0,0.774,0.343,0.774,0.774v0.396c1.062,0.126,1.962,0.468,2.791,0.99c0.288,0.162,0.54,0.432,0.54,0.864
		c0,0.558-0.45,0.99-1.009,0.99c-0.18,0-0.36-0.055-0.54-0.162c-0.63-0.378-1.242-0.648-1.854-0.792v3.457
		c2.736,0.684,3.907,1.782,3.907,3.709c0,1.98-1.549,3.295-3.835,3.511v1.08c0,0.433-0.343,0.774-0.774,0.774
		c-0.433,0-0.792-0.342-0.792-0.774v-1.116c-1.351-0.144-2.593-0.63-3.691-1.404C0.181,12.1,0,11.812,0,11.434
		c0-0.559,0.433-0.99,0.99-0.99c0.217,0,0.433,0.072,0.595,0.198c0.846,0.612,1.674,1.026,2.664,1.206V8.301
		C1.621,7.616,0.396,6.626,0.396,4.592c0-1.927,1.53-3.259,3.781-3.439V0.774C4.178,0.343,4.537,0,4.97,0z M4.249,6.14V2.953
		c-1.152,0.108-1.729,0.72-1.729,1.513C2.521,5.222,2.863,5.689,4.249,6.14z M5.672,8.643v3.277
		c1.152-0.126,1.782-0.702,1.782-1.566C7.454,9.562,7.059,9.075,5.672,8.643z"/>
</g>
</svg>
