<?xml version="1.0" encoding="utf-8"?>
<!-- Generator: Adobe Illustrator 16.0.4, SVG Export Plug-In . SVG Version: 6.00 Build 0)  -->
<!DOCTYPE svg PUBLIC "-//W3C//DTD SVG 1.1//EN" "http://www.w3.org/Graphics/SVG/1.1/DTD/svg11.dtd">
<svg version="1.1" id="Layer_1" xmlns="http://www.w3.org/2000/svg" xmlns:xlink="http://www.w3.org/1999/xlink" x="0px" y="0px"
	 width="17.202px" height="16px" viewBox="0 0 17.202 16" enable-background="new 0 0 17.202 16" xml:space="preserve">
<path d="M16.211,1.066l-4.099-0.035c-0.474-0.005-0.875,0.315-0.982,0.771l-0.9,3.813c-0.127,0.537,0.206,1.076,0.744,1.203
	c0.077,0.018,0.154,0.026,0.23,0.026c0.453,0,0.863-0.31,0.973-0.771l0.444-1.881C13.504,5.266,14,6.606,14,8c0,3.309-2.691,6-6,6
	s-6-2.691-6-6s2.691-6,6-6c0.553,0,1-0.447,1-1S8.553,0,8,0C3.589,0,0,3.589,0,8s3.589,8,8,8s8-3.589,8-8
	c0-1.803-0.614-3.542-1.726-4.95l1.919,0.017c0.003,0,0.006,0,0.009,0c0.549,0,0.995-0.442,1-0.991
	C17.207,1.522,16.763,1.071,16.211,1.066z"/>
</svg>
