<?xml version="1.0" encoding="utf-8"?>
<!-- Generator: Adobe Illustrator 16.0.4, SVG Export Plug-In . SVG Version: 6.00 Build 0)  -->
<!DOCTYPE svg PUBLIC "-//W3C//DTD SVG 1.1//EN" "http://www.w3.org/Graphics/SVG/1.1/DTD/svg11.dtd">
<svg version="1.1" id="Layer_1" xmlns="http://www.w3.org/2000/svg" xmlns:xlink="http://www.w3.org/1999/xlink" x="0px" y="0px"
	 width="17.999px" height="16.223px" viewBox="0 0 17.999 16.223" enable-background="new 0 0 17.999 16.223" xml:space="preserve">
<path d="M8.007,9.018c3.76,0.221,6.862,2.892,7.739,6.436c-0.002,0.011-0.003,0.021-0.006,0.031l0.022-0.002
	c0.137,0.427,0.521,0.74,0.993,0.74c0.519,0,0.931-0.381,1.021-0.875l0.021-0.001c0.128-0.645,0.202-1.165,0.202-1.847
	c0-5.621-4.443-10.21-9.999-10.475V2c0-0.809-0.487-1.538-1.234-1.848C6.518,0.05,6.258,0,6,0C5.479,0,4.969,0.203,4.586,0.586l-4,4
	c-0.781,0.781-0.781,2.047,0,2.828l4,4C4.969,11.797,5.48,12,6,12c0.258,0,0.518-0.05,0.766-0.152C7.513,11.538,8,10.809,8,10V9
	 M8.108,7.028L7.64,7H6v3L2,6l4-4v3.025h1.999c3.518,0.206,6.462,2.56,7.547,5.765C13.746,8.627,11.1,7.199,8.108,7.028z"/>
</svg>
