<?xml version="1.0" encoding="utf-8"?>
<!-- Generator: Adobe Illustrator 16.0.4, SVG Export Plug-In . SVG Version: 6.00 Build 0)  -->
<!DOCTYPE svg PUBLIC "-//W3C//DTD SVG 1.1//EN" "http://www.w3.org/Graphics/SVG/1.1/DTD/svg11.dtd">
<svg version="1.1" id="Layer_1" xmlns="http://www.w3.org/2000/svg" xmlns:xlink="http://www.w3.org/1999/xlink" x="0px" y="0px"
	 width="16.604px" height="16.309px" viewBox="0 0 16.604 16.309" enable-background="new 0 0 16.604 16.309" xml:space="preserve">
<g>
	<path d="M16.259,7.552l-2.31-2c-0.296-0.256-0.711-0.318-1.07-0.153c-0.355,0.162-0.584,0.518-0.584,0.909v1.001h-2.001
		c-0.553,0-1,0.447-1,1s0.447,1,1,1h2.001v1c0,0.392,0.229,0.747,0.585,0.909c0.133,0.062,0.274,0.091,0.415,0.091
		c0.236,0,0.47-0.084,0.655-0.244l2.31-2.001c0.219-0.19,0.345-0.466,0.345-0.756S16.479,7.741,16.259,7.552z"/>
	<path d="M6.294,9.309c0.553,0,1-0.447,1-1s-0.447-1-1-1H4.295V6.308c0-0.392-0.229-0.747-0.585-0.909
		C3.354,5.233,2.936,5.296,2.64,5.552L0.33,7.553c-0.219,0.19-0.345,0.466-0.345,0.756s0.126,0.566,0.346,0.756l2.31,2
		c0.186,0.16,0.418,0.244,0.654,0.244c0.141,0,0.282-0.029,0.416-0.091c0.355-0.162,0.584-0.518,0.584-0.909v-1H6.294z"/>
	<path d="M6.297,4.309h0.998v2c0,0.553,0.447,1,1,1s1-0.447,1-1v-2h1c0.392,0,0.747-0.229,0.909-0.584
		c0.163-0.356,0.104-0.774-0.153-1.07L9.053,0.346C8.863,0.126,8.587,0,8.297,0S7.731,0.126,7.541,0.346l-2,2.309
		C5.285,2.949,5.225,3.368,5.388,3.724C5.55,4.08,5.905,4.309,6.297,4.309z"/>
	<path d="M10.295,11.999h-1v-1.69c0-0.553-0.447-1-1-1s-1,0.447-1,1v1.69h-1c-0.392,0-0.747,0.229-0.909,0.584
		c-0.163,0.356-0.104,0.774,0.153,1.07l1.999,2.31c0.189,0.22,0.466,0.346,0.756,0.346s0.565-0.126,0.756-0.345l2.001-2.31
		c0.256-0.296,0.316-0.715,0.153-1.07C11.042,12.228,10.687,11.999,10.295,11.999z"/>
</g>
</svg>
