<?xml version="1.0" encoding="utf-8"?>
<!-- Generator: Adobe Illustrator 19.2.1, SVG Export Plug-In . SVG Version: 6.00 Build 0)  -->
<svg version="1.1" id="Layer_1" xmlns="http://www.w3.org/2000/svg" xmlns:xlink="http://www.w3.org/1999/xlink" x="0px" y="0px"
	 viewBox="0 0 54 54" style="enable-background:new 0 0 54 54;" xml:space="preserve">
<style type="text/css">
	.st0{fill:#62C7CB;}
	.st1{fill:none;}
	.st2{fill:#FFFFFF;}
	.st3{fill:#C7E8EB;}
	.st4{fill:none;stroke:#010101;stroke-width:0;stroke-linecap:round;stroke-linejoin:round;}
	.st5{fill:#010101;}
</style>
<g>
	<circle class="st0" cx="27" cy="27" r="27"/>
</g>
<g>
	
		<ellipse transform="matrix(0.7071 -0.7072 0.7072 0.7071 -1.647535e-02 21.1602)" class="st1" cx="25.5" cy="10.6" rx="0.3" ry="0.3"/>
	<path class="st1" d="M23.3,17L23.3,17C23.2,17,23.2,17,23.3,17C23.2,17,23.3,17,23.3,17z"/>
	<polygon class="st2" points="21.1,29 21.1,26 20.3,26 20.1,26 20.1,29 	"/>
	<rect x="18.1" y="26" class="st2" width="1" height="3"/>
	<path class="st2" d="M16.1,26v2h0.1c0.3,0,0.5,0.1,0.7,0.3l0.2,0.2V26H16.1z"/>
	<polygon class="st2" points="14.1,28 14.1,26 13.3,26 13.1,26 13.1,28 	"/>
	<rect x="9.1" y="26" class="st2" width="1" height="2"/>
	<rect x="11.1" y="26" class="st2" width="1" height="2"/>
	<rect x="25.1" y="26" class="st2" width="1" height="3"/>
	<polygon class="st2" points="27.3,26 27.1,26 27.1,29 28.1,29 28.1,26 	"/>
	<rect x="23.1" y="26" class="st2" width="1" height="3"/>
	<polygon class="st3" points="17.1,26 17.1,28.5 17.7,29 18.1,29 18.1,26 	"/>
	<polygon class="st3" points="19.1,29 20.1,29 20.1,26 19.3,26 19.1,26 	"/>
	<rect x="21.1" y="26" class="st3" width="1" height="3"/>
	<rect x="10.1" y="26" class="st3" width="1" height="2"/>
	<rect x="12.1" y="26" class="st3" width="1" height="2"/>
	<rect x="14.1" y="26" class="st3" width="1" height="2"/>
	<rect x="24.1" y="26" class="st3" width="1" height="3"/>
	<polygon class="st3" points="26.3,26 26.1,26 26.1,29 27.1,29 27.1,26 	"/>
	<polygon class="st2" points="25.1,25 25.1,22 24.3,22 24.1,22 24.1,25 	"/>
	<rect x="20.1" y="22" class="st2" width="1" height="3"/>
	<polygon class="st2" points="22.2,25 22.3,25 23.1,25 23.1,22 22.1,22 22.1,25 	"/>
	<polygon class="st2" points="15.2,25 15.3,25 16.1,25 16.1,22 15.1,22 15.1,25 	"/>
	<rect x="13.1" y="22" class="st2" width="1" height="3"/>
	<polygon class="st2" points="18.1,25 18.1,22 17.3,22 17.1,22 17.1,25 	"/>
	<rect x="27.1" y="22" class="st2" width="1" height="3"/>
	<polygon class="st2" points="29.1,22 29.1,25 29.2,25 29.3,25 30.1,25 30.1,22 	"/>
	<rect x="31.1" y="22" class="st2" width="1" height="3"/>
	<line class="st4" x1="33.2" y1="21" x2="33.3" y2="21"/>
	<rect x="21.1" y="22" class="st3" width="1" height="3"/>
	<polygon class="st3" points="23.3,25 24.1,25 24.1,22 23.3,22 23.1,22 23.1,25 	"/>
	<rect x="25.1" y="22" class="st3" width="1" height="3"/>
	<rect x="14.1" y="22" class="st3" width="1" height="3"/>
	<polygon class="st3" points="16.3,25 17.1,25 17.1,22 16.1,22 16.1,25 	"/>
	<rect x="18.1" y="22" class="st3" width="1" height="3"/>
	<rect x="28.1" y="22" class="st3" width="1" height="3"/>
	<polygon class="st3" points="30.3,22 30.1,22 30.1,25 30.3,25 31.1,25 31.1,22 	"/>
	<rect x="32.1" y="22" class="st3" width="1" height="3"/>
	<polygon class="st2" points="24.1,21 25.1,21 25.1,18 24.8,18 24.1,18 	"/>
	<polygon class="st2" points="26.2,21 26.3,21 27.1,21 27.1,18 26.1,18 26.1,21 	"/>
	<rect x="28.1" y="18" class="st2" width="1" height="3"/>
	<line class="st4" x1="30.2" y1="17" x2="30.3" y2="17"/>
	<rect x="40.1" y="26" class="st3" width="3" height="2"/>
	<rect x="40.1" y="20" class="st3" width="3" height="1"/>
	<line class="st4" x1="43.2" y1="19" x2="43.3" y2="19"/>
	<polygon class="st2" points="43.1,25 44.1,25 44.1,22 43.3,22 40.3,22 38.2,22 39,25 40.1,25 	"/>
	<line class="st4" x1="44.3" y1="21" x2="44.4" y2="21"/>
	<rect x="21.1" y="18" class="st2" width="1" height="3"/>
	<polygon class="st2" points="19.2,21 19.3,21 20.1,21 20.1,18 19.1,18 19.1,21 	"/>
	<rect x="17.1" y="18" class="st2" width="1" height="3"/>
	<line class="st4" x1="23.2" y1="17" x2="23.3" y2="17"/>
	<rect x="25.1" y="18" class="st3" width="1" height="3"/>
	<polygon class="st3" points="27.3,21 28.1,21 28.1,18 27.1,18 27.1,21 	"/>
	<rect x="29.1" y="18" class="st3" width="1" height="3"/>
	<rect x="18.1" y="18" class="st3" width="1" height="3"/>
	<polygon class="st3" points="20.3,21 21.1,21 21.1,18 20.1,18 20.1,21 	"/>
	<rect x="22.1" y="18" class="st3" width="1" height="3"/>
	<rect x="28.1" y="26" class="st3" width="1" height="3"/>
	<rect x="30.1" y="26" class="st2" width="1" height="3"/>
	<rect x="34.1" y="26" class="st2" width="1" height="3"/>
	<rect x="32.1" y="26" class="st2" width="1" height="3"/>
	<line class="st4" x1="36.2" y1="25" x2="36.3" y2="25"/>
	<rect x="31.1" y="26" class="st3" width="1" height="3"/>
	<polygon class="st3" points="33.3,26 33.1,26 33.1,29 34.1,29 34.1,26 	"/>
	<rect x="35.1" y="26" class="st3" width="1" height="3"/>
	<path class="st2" d="M36.1,30h-1h-1h-1h-1h-1h-0.9h-1h-0.1h-1h-1h-1h-1h-1h-0.9h-1h-0.1h-1h-1h-1h-1h-0.9l-1-1h-0.1h-1h-6H8.3
		l3.6,6.2c0.4-0.1,0.8-0.2,1.1-0.4l1.4-0.9c0.2-0.1,0.4-0.1,0.5,0l1.4,0.9c0.9,0.6,2.1,0.6,3,0l1.4-0.9c0.2-0.1,0.4-0.1,0.5,0
		l1.4,0.9c0.9,0.6,2.1,0.6,3,0L27,34c0.2-0.1,0.4-0.1,0.5,0l1.4,0.9c0.9,0.6,2.1,0.6,3,0l1.4-0.9c0.2-0.1,0.4-0.1,0.5,0l1.4,0.9
		c0.9,0.6,2.1,0.6,3,0l1.4-0.9c0.2-0.1,0.4-0.1,0.5,0l1.4,0.9c0.2,0.1,0.3,0.2,0.5,0.2c1.3-0.9,2.1-2.4,2.1-4.1v-2h-0.9h-3h-2l-1,1
		h-1H36.1z"/>
	<line class="st4" x1="44.2" y1="28" x2="44.3" y2="28"/>
	<ellipse transform="matrix(0.3895 -0.921 0.921 0.3895 4.4311 33.6899)" class="st2" cx="27.6" cy="13.5" rx="0.5" ry="0.5"/>
	<path class="st5" d="M46.7,34.1c-0.1-0.2-0.5-0.3-0.7-0.2l-1.4,0.9c-0.3,0.2-0.7,0.3-1.1,0.4c1.1-1.1,1.7-2.6,1.7-4.3v-2
		c0-0.6-0.4-1-0.9-1h-0.1v-2h0.2c0.6,0,0.8-0.4,0.8-1v-3c0-0.6-0.3-1-0.9-1h-0.1v-1c0-0.6-0.4-1-0.9-1h-1.1v-1.5
		c0-0.3-0.2-0.5-0.5-0.5s-0.5,0.2-0.5,0.5V19h-0.9c-0.6,0-1.1,0.4-1.1,1v1h-1c-0.3,0-0.6,0.1-0.8,0.4c-0.2,0.3-0.2,0.6-0.2,0.9
		l0.9,3c0.1,0.4,0.5,0.7,1,0.7h0.1v2h-0.9c-0.3,0-0.5,0.1-0.7,0.3l-0.4,0.4V26c0-0.6-0.4-1-0.9-1h-2.1v-3c0-0.6-0.4-1-0.9-1h-2.1v-3
		c0-0.6-0.4-1-0.9-1h-5.4h-0.5h-1c0,0,0,0,0,0c0,0,0,0,0,0h-5.9c-0.6,0-1.1,0.4-1.1,1v3h-2.9c-0.6,0-1.1,0.4-1.1,1v3H9.3
		c-0.6,0-1.1,0.4-1.1,1v2c-0.3,0-0.6,0.2-0.7,0.5c-0.2,0.3-0.2,0.7,0,1l3.2,5.7c-0.2-0.1-0.5-0.2-0.7-0.3L8.6,34
		c-0.2-0.1-0.5-0.1-0.7,0.2c-0.1,0.2-0.1,0.5,0.2,0.7l1.1,0.7l0.3,0.2c1.2,0.8,2.8,0.8,4,0l1.1-0.7l1.1,0.7c1.2,0.8,2.8,0.8,4,0
		l1.1-0.7l1.1,0.7c1.2,0.8,2.8,0.8,4,0l1.1-0.7l1.1,0.7c1.2,0.8,2.8,0.8,4,0l1.1-0.7l1.1,0.7c1.2,0.8,2.8,0.8,4,0l1.1-0.7l1.1,0.7
		c0.6,0.4,1.3,0.6,2,0.6c0.7,0,1.4-0.2,2-0.6l0.7-0.5l0.7-0.4C46.7,34.7,46.8,34.4,46.7,34.1z M40.1,20h3v1h-3V20z M39,25l-0.9-3h6
		v3H39z M40.1,26h3v2h-3V26z M38.3,29h5.9v2c0,1.7-0.8,3.2-2.1,4.1c-0.2-0.1-0.3-0.1-0.5-0.2L40.2,34c-0.2-0.1-0.4-0.1-0.5,0
		l-1.4,0.9c-0.9,0.6-2.1,0.6-3,0L33.9,34c-0.2-0.1-0.4-0.1-0.5,0l-1.4,0.9c-0.9,0.6-2.1,0.6-3,0L27.5,34c-0.2-0.1-0.4-0.1-0.5,0
		l-1.4,0.9c-0.9,0.6-2.1,0.6-3,0L21.2,34c-0.2-0.1-0.4-0.1-0.5,0l-1.4,0.9c-0.9,0.6-2.1,0.6-3,0L14.9,34c-0.2-0.1-0.4-0.1-0.5,0
		l-1.4,0.9c-0.3,0.2-0.7,0.3-1.1,0.4L8.3,29h8l1,1h20L38.3,29z M20.1,22h1h1h1h0.1h0.9h0.1h0.9h1v3h-1h-1h-0.9h-0.1h-0.9h-0.1h-0.1
		h-1h-1V22z M29.1,29h-1h-1h-1h-1h-1h-1v-3h1h1h1h0.1h0.9h0.1h0.9h1V29z M20.1,26h0.1h0.9h1v3h-1h-1h-1h-1h-0.5l-0.5-0.5L17,28.3
		c-0.2-0.2-0.4-0.3-0.7-0.3h-0.1v-2h1h1h1h0.1H20.1z M35.1,26h1v3h-1h-1h-1h-1h-1h-1v-3h1h1h1h0.1h0.9H35.1z M32.1,22h1v3h-1h-1
		h-0.9h-0.1h-0.9h-0.1h-0.1h-1h-1v-3h1h1h1h0.1h0.9H32.1z M24.8,18h0.4h1h1h1h1h1v3h-1h-1h-0.9h-0.1h-0.9h-0.1h-0.1h-1h-1v-3H24.8z
		 M17.1,18h1h1h1h1h1h1v3h-1h-1h-0.9h-0.1h-0.9h-0.1h-0.1h-1h-1V18z M13.1,22h1h1h1h1h0.1h0.9h1v3h-1h-1h-0.9h-0.1h-0.9h-0.1h-0.1
		h-1h-1V22z M10.1,26h1h1h1h0.1h0.9h1v2h-1h-1h-1h-1h-1h-1v-2H10.1z"/>
	<path class="st5" d="M43.6,38.3c-0.1-0.2-0.5-0.3-0.7-0.2L41.6,39l-0.1,0.1c-0.9,0.6-2.1,0.6-3,0L38.4,39l-1.3-0.8
		c-0.2-0.1-0.4-0.1-0.5,0L35.3,39l-0.1,0.1c-0.9,0.6-2.1,0.6-3,0L32.1,39l-1.3-0.8c-0.2-0.1-0.4-0.1-0.5,0L29,39l-0.1,0.1
		c-0.9,0.6-2.1,0.6-3,0L25.8,39l-1.3-0.8c-0.2-0.1-0.4-0.1-0.5,0L22.7,39l-0.1,0.1c-0.9,0.6-2.1,0.6-3,0L19.5,39l-1.3-0.8
		c-0.2-0.1-0.4-0.1-0.5,0L16.4,39l-0.1,0.1c-0.9,0.6-2.1,0.6-3,0L13.1,39l-1.3-0.8c-0.2-0.1-0.5-0.1-0.7,0.2
		c-0.1,0.2-0.1,0.5,0.1,0.7c0,0,0,0,0,0l1.4,0.9c1.2,0.8,2.8,0.8,4,0l1.1-0.7l1.1,0.7c1.2,0.8,2.8,0.8,4,0l1.1-0.7l1.1,0.7
		c0.6,0.4,1.3,0.6,2,0.6s1.4-0.2,2-0.6l1.1-0.7l1.1,0.7c1.2,0.8,2.8,0.8,4,0l1.1-0.7l1.1,0.7c1.2,0.8,2.8,0.8,4,0l1.4-0.9
		c0,0,0,0,0,0C43.7,38.8,43.8,38.6,43.6,38.3z"/>
	<path class="st2" d="M26,11c0.2-0.2,0.2-0.6,0-0.8s-0.6-0.2-0.8,0c-0.2,0.2-0.2,0.6,0,0.8C25.3,11.3,25.7,11.3,26,11z M25.3,10.4
		c0.1-0.1,0.3-0.1,0.4,0s0.1,0.3,0,0.4c-0.1,0.1-0.3,0.1-0.4,0C25.2,10.7,25.2,10.5,25.3,10.4z"/>
	<path class="st2" d="M31.6,13.1l0.3,0.9l0.3-0.9c0.1-0.2,0.2-0.3,0.4-0.4l0.9-0.3l-0.9-0.3c-0.2-0.1-0.3-0.2-0.4-0.4l-0.3-0.9
		l-0.3,0.9c-0.1,0.2-0.2,0.3-0.4,0.4l-0.9,0.3l0.9,0.3C31.4,12.7,31.5,12.9,31.6,13.1z M31.9,12.1c0.1,0,0.3,0.1,0.3,0.3
		c0,0.1-0.1,0.3-0.3,0.3c-0.1,0-0.3-0.1-0.3-0.3C31.6,12.3,31.7,12.1,31.9,12.1z"/>
	<circle class="st0" cx="31.9" cy="12.4" r="0.3"/>
	<path class="st2" d="M13,17.4l0.2,0.6l0.2-0.6c0-0.1,0.1-0.2,0.3-0.3l0.6-0.2l-0.6-0.2c-0.1,0-0.2-0.1-0.3-0.3l-0.2-0.6L13,16.5
		c0,0.1-0.1,0.2-0.3,0.3l-0.6,0.2l0.6,0.2C12.8,17.1,12.9,17.2,13,17.4z M13.2,16.7c0.1,0,0.2,0.1,0.2,0.2c0,0.1-0.1,0.2-0.2,0.2
		c-0.1,0-0.2-0.1-0.2-0.2C13,16.8,13.1,16.7,13.2,16.7z"/>
	<circle class="st0" cx="13.2" cy="16.9" r="0.2"/>
</g>
</svg>
