<svg id="Layer_1_copy" xmlns="http://www.w3.org/2000/svg" viewBox="0 0 108 108"><style>.st0{fill:#62c7cb}.st1{fill:none}.st2{fill:#fff}.st3{fill:#c7e8eb}.st4{fill:#010101}.st5{fill:#030303}</style><circle class="st0" cx="54" cy="54" r="54"/><path class="st1" d="M64.4 28.8l-.6-1.2 2.3-3.7-2.3 3.7.6 1.2zM66.1 44l-2.3-3.7.6-1.2-.6 1.2 2.3 3.7zM43.8 82.6l5.9-5.9-5.9 5.9zm28.3-6.2c.5-.2 1-.4 1.4-.8l17.7-17.7-17.7 17.7c-.4.3-.9.6-1.4.8z"/><ellipse transform="rotate(-45.001 79.308 33.38)" class="st1" cx="79.3" cy="33.4" rx=".6" ry=".6"/><path class="st2" d="M78.5 32.5c-.5.5-.5 1.2 0 1.7s1.2.5 1.7 0 .5-1.2 0-1.7c-.5-.4-1.3-.4-1.7 0zm1.2.5c.2.2.2.6 0 .8s-.6.2-.8 0-.2-.6 0-.8.6-.3.8 0zm-4.2-6l.6 1.9.6-1.9c.1-.4.4-.6.7-.7l1.9-.6-1.9-.6c-.4-.1-.6-.4-.7-.7l-.6-1.9-.6 1.9c-.1.4-.4.6-.7.7l-1.9.6 1.9.6c.4.1.6.4.7.7zm.6-1.8c.3 0 .5.2.5.5s-.2.5-.5.5-.5-.2-.5-.5.2-.5.5-.5z"/><circle class="st0" cx="76.1" cy="25.7" r=".5"/><path transform="rotate(-45.001 35.192 83.475)" class="st2" d="M30.7 75h9v17h-9z"/><path class="st3" d="M90.2 53c-.4-.1-.7-.2-1.1-.2-.4 0-.8.1-1.1.2-.4.1-.7.4-1 .7l-11.2 10c.3.6.4 1.3.4 2 0 1.3-.5 2.6-1.5 3.5-1 .9-2.2 1.5-3.6 1.5H58c-.5 0-1-.4-1-1s.4-1 1-1h13c.8 0 1.6-.3 2.1-.9.3-.3.5-.6.7-1 .1-.2.1-.4.2-.6 0-.2.1-.4.1-.6 0-.2 0-.4-.1-.6 0-.1 0-.1-.1-.2 0-.1-.1-.2-.1-.4 0-.1-.1-.1-.1-.2-.1-.1-.1-.2-.2-.3 0-.1-.1-.1-.2-.2s-.1-.2-.2-.2c-.1-.1-.2-.2-.3-.2-.1 0-.1-.1-.2-.1-.1-.1-.2-.1-.3-.2-.1 0-.1-.1-.2-.1-.1-.1-.3-.1-.4-.1-.1 0-.1 0-.2-.1-.2 0-.4-.1-.6-.1H51.7c-.7 0-1.4.2-2.1.5-.4.2-.8.5-1.2.8-.4.3-11.7 11.6-11.7 11.6l3.5 3.5 3.5 3.5 5.9-5.9h19.3c.9 0 1.8 0 2.6-.2.2 0 .4-.1.6-.1.5-.2 1-.4 1.4-.8l17.7-17.7c1.2-1.2 1.2-3.1 0-4.2-.3-.2-.7-.5-1-.6z"/><path class="st4" d="M92.6 52.2c-.9-.9-2.2-1.5-3.5-1.5-1.3 0-2.6.5-3.5 1.4L74.5 62c-.9-.9-2.1-1.3-3.4-1.3H51.7c-2.9 0-4.9 2-6.3 3.4L35.3 74.2l-.1.1-1.4-1.4c-.4-.4-.9-.6-1.4-.6s-1 .2-1.4.6l-6.4 6.4c-.8.8-.8 2 0 2.8l12 12c.4.4.9.6 1.4.6s1-.2 1.4-.6l6.4-6.4c.8-.8.8-2 0-2.8l-.7-.7s.1 0 .1-.1l5.3-5.3H69c2 0 4.3-.1 5.9-1.8l17.7-17.7c1.9-1.9 1.9-5.1 0-7.1zM38 92.7l-12-12 6.4-6.4 12 12-6.4 6.4zm53.2-34.8L73.5 75.6c-.4.4-.8.6-1.4.8-.2.1-.4.1-.6.1-.8.2-1.6.2-2.6.2H49.6l-5.9 5.9-3.5-3.5-3.5-3.5S48 64.3 48.4 64c.4-.3.8-.6 1.2-.8.6-.3 1.3-.5 2.1-.5H71c.2 0 .4 0 .6.1.1 0 .1 0 .2.1.1 0 .3.1.4.1.1 0 .1.1.2.1.1.1.2.1.3.2.1 0 .1.1.2.1.1.1.2.1.3.2.1.1.1.2.2.2l.2.2c.1.1.1.2.2.3 0 .1.1.1.1.2s.1.2.1.4c0 .1 0 .1.1.2 0 .2.1.4.1.6 0 .2 0 .4-.1.6 0 .2-.1.4-.2.6-.2.4-.4.7-.7 1-.6.5-1.3.9-2.1.9H58c-.6 0-1 .4-1 1s.4 1 1 1h13c1.3 0 2.6-.5 3.6-1.5 1-.9 1.5-2.2 1.5-3.5 0-.7-.2-1.4-.4-2l11.2-10c.3-.3.6-.5 1-.7.4-.1.7-.2 1.1-.2.4 0 .8.1 1.1.2.4.1.7.4 1 .7 1.2 1 1.2 2.9.1 4.1z"/><path class="st3" d="M64.2 23.8L62 27.4c.4.7.7 1.5 1 2.3v.1l3.2.8v5.6l-3.3.8v.1c-.2.8-.6 1.6-1 2.3l2.2 3.6-3.2 3.2-3.4-1.9c-.8.7-2.5 1.1-3.3 1.4h-.1l-.8 3.2h-4.6l.3 1.3h5.8l.8-3.4h.1c.9-.3 1.7-.6 2.5-1l3.7 2.3 1.3-1.3.8-.8.4-.4 1-1 .7-.7-2.3-3.7.6-1.2c.2-.4.3-.8.4-1.3v-.1l3.4-.8V31l-3.4-.8v-.1c-.1-.4-.3-.8-.4-1.3l-.6-1.2 2.3-3.7-2.4-2.4-1.7-1.7-1.1.7c1.5 1.4 1.4 1.4 3.3 3.3zm-23 23.5c0 .1 0 .1 0 0l.8.8 3.7-2.3c-.4-.2-.8-.4-1.1-.5l-3.4 2z"/><path class="st5" d="M35.3 38.8l2.3.6c.1.3.2.5.3.8L36.1 43c-.5.8-.4 1.8.3 2.5L39 48l1.6 1.6c.4.4.9.6 1.4.6.4 0 .7-.1 1.1-.3l2.8-1.8c.3.1.5.2.8.3l.6 2.3c.2.9 1 1.5 1.9 1.5H55c.9 0 1.7-.6 1.9-1.5l.6-2.3c.3-.1.5-.2.8-.3l2.8 1.8c.3.2.7.3 1.1.3.5 0 1-.2 1.4-.6L65 48l2.5-2.5c.7-.7.8-1.7.3-2.5L66 40.2c.1-.3.2-.5.3-.8l2.3-.6c.9-.2 1.5-1 1.5-1.9v-5.8c0-.9-.6-1.7-1.5-1.9l-2.3-.6c-.1-.3-.2-.5-.3-.8l1.8-2.8c.5-.8.4-1.8-.3-2.5l-3.1-3.1-1-1c-.4-.4-.9-.6-1.4-.6-.4 0-.7.1-1.1.3l-2.8 1.8c-.3-.1-.5-.2-.8-.3l-.6-2.3c-.2-.9-1-1.5-1.9-1.5H49c-.9 0-1.7.6-1.9 1.5l-.6 2.3c-.3.1-.5.2-.8.3L43 18.1c-.3-.2-.7-.3-1.1-.3-.5 0-1 .2-1.4.6l-1 1-3.1 3.1c-.7.7-.8 1.7-.3 2.5l1.8 2.8c-.1.3-.2.5-.3.8l-2.3.6c-.9.2-1.5 1-1.5 1.9v5.8c0 .9.6 1.7 1.5 1.9zm.5-7.7l3.4-.8v-.1c.3-.9.6-1.7 1-2.5L37.9 24l1.7-1.7 2.4-2.4 3.7 2.3 1.2-.6c.4-.2.8-.3 1.3-.4h.1l.8-3.4h5.8l.8 3.4h.1c.4.1.8.3 1.3.4l1.2.6 2.6-1.7 1.1-.7 1.7 1.7 2.4 2.4-2.3 3.7.6 1.2c.2.4.3.8.4 1.3v.1l3.4.8v5.8l-3.4.8v.1c-.1.4-.3.8-.4 1.3l-.6 1.2 2.3 3.7-.7.7-1 1-.4.4-.8.8-1.3 1.3-3.7-2.3c-.8.4-1.6.8-2.5 1h-.1l-.8 3.4H49l-.3-1.3-.5-2.1h-.1c-.4-.1-.8-.3-1.2-.4-.1 0-.1 0-.2-.1-.4-.2-.7-.3-1.1-.5L42 48.1l-.7-.7-.7-.7-.4-.4-.5-.5-1-1-.7-.7 2.3-3.7-.6-1.2c-.2-.4-.3-.8-.4-1.3v-.1l-3.4-.8c-.1-3.3-.1-2.8-.1-5.9z"/><path class="st2" d="M39.2 37.8c.1.4.3.8.4 1.3s.4.8.6 1.2L37.9 44l.7.7 1 1 .5.5.4.4.7.7 3.4-2.1c.3.1.7.3 1.1.5.4.2.7.4 1.1.5.1 0 .1 0 .2.1.4.2.8.3 1.2.4h.1l.5 2.1h4.6l.8-3.2h.1c.8-.2 2.4-.7 3.3-1.4l3.4 1.9 3.2-3.2-2.2-3.6c.4-.7.7-1.5 1-2.3v-.1l3.2-.8v-5.6l-3.2-.8v-.1c-.2-.8-.6-1.6-1-2.3l2.2-3.6-3.2-3.2-2.6 1.7-1.2-.6c-.4-.2-.8-.3-1.3-.4h-.1l-.8-3.4h-5.8l-.8 3.4h-.1c-.4.1-.8.3-1.3.4l-1.2.6-3.8-2.4-2.4 2.4-1.7 1.7 2.3 3.7c-.4.8-.8 1.6-1 2.5v.1l-3.4.8v5.8l3.4.8v.2zM52 26.1c4.4 0 7.9 3.5 7.9 7.9s-3.5 7.9-7.9 7.9-7.9-3.5-7.9-7.9 3.5-7.9 7.9-7.9z"/><circle class="st0" cx="52" cy="34" r="5.9"/><path class="st5" d="M52 41.9c4.4 0 7.9-3.5 7.9-7.9s-3.5-7.9-7.9-7.9-7.9 3.5-7.9 7.9 3.5 7.9 7.9 7.9zm0-13.8c3.3 0 5.9 2.6 5.9 5.9 0 3.3-2.6 5.9-5.9 5.9s-5.9-2.6-5.9-5.9c0-3.3 2.6-5.9 5.9-5.9z"/></svg>