<svg xmlns="http://www.w3.org/2000/svg" width="113.174" height="113.292" viewBox="0 0 113.174 113.292"><path fill="#9B9B9B" d="M56.58 56.58L0 56.613C-.009 41.614 5.443 28.095 15.857 17.3L56.58 56.58z"/><path fill="#38B6CD" d="M56.58 56.58L15.223 95.191C4.986 84.227.01 71.611 0 56.613l56.58-.033z"/><path fill="#A3CD39" d="M56.58 56.58l53.799-17.516c9.675 29.713-6.571 61.643-36.284 71.314-21.394 6.965-43.519 1.258-58.872-15.188L56.58 56.58z"/><path fill="#F8C02C" d="M56.58 56.58L15.857 17.3C37.551-5.191 73.369-5.836 95.858 15.857c7.197 6.942 11.426 13.699 14.521 23.207L56.58 56.58z"/><path d="M14.132 39.237h1.059v-2.781c0-.136.004-.278.011-.427l-.624.518a.362.362 0 0 1-.414.048.364.364 0 0 1-.115-.093l-.371-.492 1.717-1.441h.969v4.668h.908v.848h-3.14v-.848zm5.713-4.725c.272 0 .518.04.736.119.218.08.404.19.558.331.154.141.272.31.354.505.082.196.123.411.123.645 0 .202-.029.389-.085.56a2.195 2.195 0 0 1-.232.49 3.479 3.479 0 0 1-.342.451c-.13.145-.268.292-.415.439l-1.078 1.105c.139-.041.275-.073.411-.097.135-.024.261-.036.38-.036h1.029c.126 0 .226.035.299.104a.36.36 0 0 1 .11.274v.681h-3.875v-.378a.69.69 0 0 1 .045-.234.561.561 0 0 1 .159-.227l1.589-1.601c.136-.136.255-.266.355-.39.101-.124.184-.245.25-.365.065-.12.115-.24.147-.359.033-.12.049-.247.049-.38 0-.22-.053-.388-.157-.505s-.264-.176-.479-.176a.744.744 0 0 0-.439.14.667.667 0 0 0-.149.151.813.813 0 0 0-.1.189.554.554 0 0 1-.153.246.39.39 0 0 1-.251.076c-.025 0-.053-.001-.082-.004s-.059-.006-.089-.011l-.621-.11c.041-.275.118-.515.233-.719.115-.204.257-.375.427-.511.17-.136.365-.238.585-.305.22-.065.456-.098.708-.098zm4.941 1.396a1.357 1.357 0 0 1-.402.982c-.121.12-.262.212-.422.278s-.327.099-.501.099c-.192 0-.368-.033-.528-.099a1.212 1.212 0 0 1-.416-.278 1.252 1.252 0 0 1-.274-.43 1.49 1.49 0 0 1-.099-.552c0-.209.033-.399.099-.569a1.236 1.236 0 0 1 .69-.719c.16-.067.336-.101.528-.101.191 0 .369.034.531.101a1.224 1.224 0 0 1 .694.719c.065.17.1.36.1.569zm1.732-1.161a.665.665 0 0 1 .14-.119.422.422 0 0 1 .231-.055h.855l-4.154 5.346a.414.414 0 0 1-.349.166h-.877l4.154-5.338zm-2.633 1.161c0-.128-.011-.235-.032-.32s-.051-.152-.089-.202a.297.297 0 0 0-.134-.105c-.052-.021-.108-.03-.168-.03s-.116.01-.167.03a.288.288 0 0 0-.129.105c-.035.05-.063.118-.083.202s-.03.191-.03.32c0 .121.01.222.03.303s.048.145.083.193a.294.294 0 0 0 .129.102c.05.021.106.03.167.03s.117-.01.168-.03a.319.319 0 0 0 .134-.102c.038-.048.067-.112.089-.193s.032-.182.032-.303zm4.071 2.883a1.37 1.37 0 0 1-.402.986 1.3 1.3 0 0 1-.923.376 1.39 1.39 0 0 1-.528-.098 1.212 1.212 0 0 1-.69-.71 1.5 1.5 0 0 1-.099-.554c0-.209.033-.399.099-.569a1.236 1.236 0 0 1 .69-.719c.16-.067.336-.1.528-.1.191 0 .369.033.531.1a1.224 1.224 0 0 1 .694.719c.065.17.1.36.1.569zm-.9 0c0-.126-.011-.231-.032-.316s-.051-.152-.089-.202a.306.306 0 0 0-.134-.106.444.444 0 0 0-.168-.03c-.06 0-.116.01-.167.03a.284.284 0 0 0-.129.106c-.035.05-.063.118-.083.202s-.03.19-.03.316c0 .121.01.222.03.303.02.081.048.146.083.193a.294.294 0 0 0 .129.102c.05.021.106.03.167.03s.117-.01.168-.03c.051-.02.096-.054.134-.102s.067-.112.089-.193c.022-.081.032-.182.032-.303zM7.938 44.839l.044.116.045-.116a1.13 1.13 0 0 1 .054-.111l1.048-1.905c.019-.033.038-.053.059-.061a.272.272 0 0 1 .086-.011h.309v3.098h-.366v-2.276l.002-.097.006-.106-1.062 1.937c-.036.065-.086.097-.151.097h-.059c-.065 0-.115-.032-.151-.097l-1.085-1.944a2.218 2.218 0 0 1 .012.21v2.276h-.368v-3.098h.31c.037 0 .066.004.086.011.02.007.04.028.058.061l1.07 1.907a.731.731 0 0 1 .053.109zm4.95 1.011h-.324a.141.141 0 0 1-.091-.028.185.185 0 0 1-.052-.071l-.29-.748h-1.39l-.29.748a.162.162 0 0 1-.052.069.139.139 0 0 1-.091.03h-.323l1.239-3.098h.426l1.238 3.098zm-2.03-1.15h1.157l-.486-1.261a2.263 2.263 0 0 1-.093-.292 6.442 6.442 0 0 1-.046.163c-.015.05-.03.093-.044.131l-.488 1.259zm2.882-.143v1.293h-.417v-3.098h.875c.196 0 .365.02.508.06s.26.097.353.172a.698.698 0 0 1 .207.271.899.899 0 0 1 .067.355.908.908 0 0 1-.052.307.796.796 0 0 1-.15.256.9.9 0 0 1-.24.194 1.176 1.176 0 0 1-.321.121.43.43 0 0 1 .138.132l.904 1.23h-.372c-.076 0-.132-.029-.168-.089l-.804-1.105a.216.216 0 0 0-.08-.075.29.29 0 0 0-.13-.023h-.318zm0-.305h.439c.123 0 .23-.015.323-.044a.64.64 0 0 0 .233-.125.519.519 0 0 0 .142-.193.628.628 0 0 0 .048-.249c0-.185-.061-.324-.183-.417-.122-.094-.303-.141-.544-.141h-.458v1.169zm2.784-.142h.158a.338.338 0 0 0 .131-.021.265.265 0 0 0 .092-.07l1.031-1.167a.324.324 0 0 1 .092-.077.247.247 0 0 1 .113-.023h.357l-1.181 1.334a.946.946 0 0 1-.085.084.357.357 0 0 1-.085.056c.04.013.076.032.106.058.03.026.062.059.095.098l1.232 1.468h-.363a.34.34 0 0 1-.069-.006.166.166 0 0 1-.087-.046l-.034-.037-1.07-1.229a.909.909 0 0 0-.044-.044.225.225 0 0 0-.047-.031.222.222 0 0 0-.063-.018.544.544 0 0 0-.087-.005h-.19v1.418h-.417v-3.098h.417v1.357h-.002zm4.393-1.358v.342H19.43v1.029h1.204v.329H19.43v1.057h1.487v.342h-1.909v-3.098l1.909-.001zm2.714 0v.353H22.63v2.746h-.42v-2.746h-1.005v-.353h2.426zm.938 3.098h-.419v-3.098h.419v3.098zm1.13-3.084a.206.206 0 0 1 .062.057l1.794 2.335a2.282 2.282 0 0 1-.009-.109l-.002-.103v-2.194h.367v3.098h-.212a.186.186 0 0 1-.083-.017.22.22 0 0 1-.066-.059l-1.792-2.333.007.106.002.095v2.208h-.368v-3.098h.216c.038 0 .066.005.084.014zm4.35 2.779c.083 0 .16-.004.23-.012a1.452 1.452 0 0 0 .537-.17v-.683h-.48a.092.092 0 0 1-.066-.024.076.076 0 0 1-.024-.059v-.237h.951v1.189c-.078.056-.159.105-.243.147s-.175.077-.271.104a2.02 2.02 0 0 1-.308.063 2.819 2.819 0 0 1-.356.021c-.225 0-.431-.039-.619-.116a1.42 1.42 0 0 1-.801-.824 1.753 1.753 0 0 1-.114-.642c0-.236.037-.452.111-.646.074-.194.18-.361.318-.5s.304-.247.5-.323c.195-.076.414-.115.656-.115.123 0 .236.009.341.027s.203.044.293.078c.09.034.173.075.25.124.076.048.147.103.214.163l-.119.19c-.025.039-.057.059-.095.059a.155.155 0 0 1-.076-.024 1.856 1.856 0 0 1-.121-.073.986.986 0 0 0-.163-.083 1.404 1.404 0 0 0-.538-.096c-.174 0-.332.029-.473.085a.993.993 0 0 0-.361.245 1.072 1.072 0 0 0-.229.385c-.053.15-.08.319-.08.507 0 .196.028.371.083.524a1.022 1.022 0 0 0 .593.634c.138.056.293.082.46.082zm3.678-2.828c.114 0 .218.019.312.055a.795.795 0 0 1 .243.146.689.689 0 0 1 .23.461l-.24.048a.101.101 0 0 1-.073-.013c-.017-.01-.029-.028-.036-.054a.514.514 0 0 0-.135-.227.473.473 0 0 0-.127-.083.516.516 0 0 0-.368.003.42.42 0 0 0-.243.241.534.534 0 0 0-.015.326c.012.046.03.092.055.139a.919.919 0 0 0 .095.145c.039.05.086.102.141.157l.891.906a1.63 1.63 0 0 0 .197-.623.116.116 0 0 1 .026-.065.08.08 0 0 1 .061-.024h.238a1.702 1.702 0 0 1-.298.939l.649.657h-.372a.29.29 0 0 1-.102-.015.265.265 0 0 1-.086-.062l-.312-.313a1.55 1.55 0 0 1-.468.311 1.444 1.444 0 0 1-.583.115 1.016 1.016 0 0 1-.636-.228.798.798 0 0 1-.291-.632.81.81 0 0 1 .051-.287.951.951 0 0 1 .141-.25c.06-.077.131-.145.213-.206a1.43 1.43 0 0 1 .27-.156c-.088-.111-.152-.219-.194-.324s-.062-.214-.062-.326c0-.105.019-.204.057-.296a.69.69 0 0 1 .166-.241.774.774 0 0 1 .263-.162.866.866 0 0 1 .342-.062zm-.859 2.277a.546.546 0 0 0 .188.428c.056.049.12.086.192.111a.67.67 0 0 0 .22.038c.162 0 .306-.03.435-.089s.242-.138.339-.235l-.914-.923a.942.942 0 0 0-.345.295.663.663 0 0 0-.115.375zM8.327 48.517v.342H6.839v1.083H8.11v.342H6.839v1.332h-.422v-3.098l1.91-.001zm1.742 2.765a.855.855 0 0 0 .344-.065.716.716 0 0 0 .256-.182.776.776 0 0 0 .16-.279c.037-.108.055-.227.055-.356v-1.883h.417V50.4c0 .179-.028.344-.085.497a1.157 1.157 0 0 1-.244.397c-.106.111-.235.199-.388.262s-.324.095-.514.095-.362-.032-.515-.095a1.122 1.122 0 0 1-.635-.659 1.41 1.41 0 0 1-.085-.497v-1.883h.417v1.881c0 .13.019.249.055.357a.735.735 0 0 0 .417.462.86.86 0 0 0 .345.065zm2.252-2.751a.206.206 0 0 1 .062.057l1.794 2.335a2.282 2.282 0 0 1-.009-.109l-.002-.103v-2.194h.367v3.098h-.212a.186.186 0 0 1-.083-.017.22.22 0 0 1-.066-.059l-1.792-2.333.007.106.002.095v2.208h-.368v-3.098h.216c.038 0 .066.005.084.014zm5.654 1.536c0 .232-.037.443-.11.633-.074.19-.177.353-.312.489-.134.135-.295.24-.482.314a1.685 1.685 0 0 1-.623.111H15.29v-3.098h1.159c.228 0 .435.037.623.111a1.383 1.383 0 0 1 .794.806c.072.191.109.402.109.634zm-.43 0c0-.19-.026-.36-.078-.51a1.055 1.055 0 0 0-.221-.38.936.936 0 0 0-.346-.238 1.193 1.193 0 0 0-.452-.083h-.737v2.419h.737c.166 0 .316-.027.452-.082a.954.954 0 0 0 .346-.237c.095-.103.169-.229.221-.379.052-.15.078-.32.078-.51zm1.461.255v1.293h-.417v-3.098h.875c.196 0 .365.02.508.06s.26.097.353.172a.698.698 0 0 1 .207.271.899.899 0 0 1 .067.355.908.908 0 0 1-.052.307c-.034.095-.084.18-.15.256s-.146.141-.24.194a1.176 1.176 0 0 1-.321.121.43.43 0 0 1 .138.132l.904 1.23h-.372c-.076 0-.132-.029-.168-.089l-.804-1.106a.225.225 0 0 0-.08-.075.293.293 0 0 0-.13-.022h-.318zm0-.304h.439c.123 0 .23-.015.323-.044a.64.64 0 0 0 .233-.125.519.519 0 0 0 .142-.193.628.628 0 0 0 .048-.249c0-.185-.061-.324-.183-.417-.122-.094-.303-.141-.544-.141h-.458v1.169zm4.873 1.597h-.324a.141.141 0 0 1-.091-.028.177.177 0 0 1-.052-.071l-.29-.748h-1.39l-.29.748a.162.162 0 0 1-.052.069.139.139 0 0 1-.091.03h-.324l1.239-3.098h.426l1.239 3.098zm-2.03-1.15h1.157l-.486-1.261a2.263 2.263 0 0 1-.093-.292 6.442 6.442 0 0 1-.046.163c-.015.05-.03.093-.044.131l-.488 1.259zm2.919 1.15h-.419v-3.098h.419v3.098zm2.417-2.614a.172.172 0 0 1-.041.049.089.089 0 0 1-.056.016c-.024 0-.053-.012-.085-.037a1.095 1.095 0 0 0-.303-.162.757.757 0 0 0-.254-.037.758.758 0 0 0-.249.038.54.54 0 0 0-.181.103.43.43 0 0 0-.109.152.479.479 0 0 0-.037.189c0 .086.021.158.064.215.042.057.099.105.168.146s.149.075.238.105c.089.029.18.06.272.092.093.032.184.067.272.107a1 1 0 0 1 .238.15.67.67 0 0 1 .168.223.748.748 0 0 1 .064.324c0 .135-.023.263-.069.381a.876.876 0 0 1-.202.311.945.945 0 0 1-.326.208 1.19 1.19 0 0 1-.44.076c-.201 0-.383-.037-.548-.109a1.263 1.263 0 0 1-.422-.295l.121-.199a.146.146 0 0 1 .042-.04.1.1 0 0 1 .055-.017c.03 0 .065.017.104.049.039.032.087.068.146.107s.129.075.212.107a.824.824 0 0 0 .304.049c.1 0 .188-.014.266-.041a.554.554 0 0 0 .198-.116.508.508 0 0 0 .125-.178.59.59 0 0 0 .043-.231.39.39 0 0 0-.063-.23.53.53 0 0 0-.168-.15 1.135 1.135 0 0 0-.236-.103l-.272-.086a2.34 2.34 0 0 1-.272-.103.895.895 0 0 1-.237-.151.674.674 0 0 1-.167-.232.837.837 0 0 1-.064-.345.817.817 0 0 1 .249-.59.895.895 0 0 1 .3-.19c.119-.048.255-.072.41-.072.173 0 .331.028.473.083.143.055.268.134.374.238l-.105.196zm1.202 2.614h-.419v-3.098h.419v3.098zm1.129-3.084a.206.206 0 0 1 .062.057l1.794 2.335a2.282 2.282 0 0 1-.009-.109l-.002-.103v-2.194h.367v3.098h-.212a.186.186 0 0 1-.083-.017.22.22 0 0 1-.066-.059l-1.792-2.333.007.106.002.095v2.208h-.368v-3.098h.216c.038 0 .066.005.084.014zm4.351 2.78c.083 0 .16-.004.23-.012a1.452 1.452 0 0 0 .537-.17v-.683h-.48a.092.092 0 0 1-.066-.024.076.076 0 0 1-.024-.059v-.238h.951v1.189c-.078.056-.159.105-.243.147s-.175.077-.271.104a2.02 2.02 0 0 1-.308.063 2.819 2.819 0 0 1-.356.021c-.225 0-.431-.039-.619-.116a1.42 1.42 0 0 1-.801-.824 1.753 1.753 0 0 1-.114-.642c0-.236.037-.452.111-.646.074-.194.18-.361.318-.5s.304-.247.5-.323c.195-.076.414-.115.656-.115.123 0 .236.009.341.027.105.018.203.044.293.078.09.034.173.075.25.124.076.048.147.103.214.163l-.119.19c-.025.039-.057.059-.095.059a.155.155 0 0 1-.076-.024 1.856 1.856 0 0 1-.121-.073.986.986 0 0 0-.163-.083 1.404 1.404 0 0 0-.538-.096c-.174 0-.332.029-.473.085-.142.057-.262.139-.361.245s-.176.234-.229.385c-.053.15-.08.319-.08.507 0 .196.028.371.083.524a1.022 1.022 0 0 0 .593.634c.138.056.293.083.46.083zm-19.735 13.26h1.059v-2.78c0-.137.004-.278.011-.428l-.624.518a.39.39 0 0 1-.238.091.365.365 0 0 1-.291-.137l-.371-.492 1.717-1.44h.969v4.668h.908v.849h-3.14v-.849zm5.713-4.725c.272 0 .518.04.736.118.218.08.404.191.558.332.154.141.272.31.354.504.082.197.123.412.123.646 0 .202-.029.39-.085.56a2.154 2.154 0 0 1-.232.49c-.099.155-.212.307-.342.451s-.268.293-.415.44l-1.078 1.104c.139-.041.275-.072.411-.097.135-.024.261-.036.38-.036h1.029c.126 0 .226.035.299.104.073.07.11.162.11.274v.681h-3.875v-.377c0-.074.015-.151.045-.234a.561.561 0 0 1 .159-.227l1.589-1.602c.136-.137.255-.266.355-.391.101-.123.184-.244.25-.364a1.442 1.442 0 0 0 .196-.739c0-.22-.053-.388-.157-.505s-.264-.177-.479-.177a.744.744 0 0 0-.439.141.706.706 0 0 0-.249.339.554.554 0 0 1-.153.246.384.384 0 0 1-.251.076c-.025 0-.053-.001-.082-.004s-.059-.006-.089-.012l-.621-.109a2.07 2.07 0 0 1 .233-.719c.115-.204.257-.375.427-.512.17-.135.365-.238.585-.305.22-.064.456-.096.708-.096zm4.941 1.396a1.362 1.362 0 0 1-.402.983 1.289 1.289 0 0 1-.422.277c-.16.066-.327.1-.501.1-.192 0-.368-.033-.528-.1a1.21 1.21 0 0 1-.69-.707 1.498 1.498 0 0 1-.099-.553c0-.209.033-.398.099-.568a1.22 1.22 0 0 1 .69-.719c.16-.067.336-.102.528-.102.191 0 .369.034.531.102a1.207 1.207 0 0 1 .694.719c.065.17.1.359.1.568zm1.732-1.162a.695.695 0 0 1 .14-.119.43.43 0 0 1 .231-.055h.855l-4.154 5.346a.414.414 0 0 1-.349.166h-.877l4.154-5.338zm-2.633 1.162c0-.127-.011-.234-.032-.32a.551.551 0 0 0-.089-.201.297.297 0 0 0-.134-.105c-.052-.021-.108-.031-.168-.031s-.116.01-.167.031a.288.288 0 0 0-.129.105c-.035.05-.063.117-.083.201s-.03.191-.03.32c0 .121.01.223.03.303.02.082.048.146.083.193a.287.287 0 0 0 .129.102.457.457 0 0 0 .335 0 .31.31 0 0 0 .134-.102.525.525 0 0 0 .089-.193c.022-.081.032-.182.032-.303zm4.071 2.883a1.371 1.371 0 0 1-.402.987 1.32 1.32 0 0 1-.923.376c-.192 0-.368-.032-.528-.098a1.226 1.226 0 0 1-.69-.71 1.505 1.505 0 0 1-.099-.555c0-.209.033-.398.099-.568.065-.17.157-.316.274-.438s.256-.215.416-.281c.16-.067.336-.101.528-.101.191 0 .369.033.531.101a1.207 1.207 0 0 1 .694.719c.065.17.1.359.1.568zm-.9 0c0-.125-.011-.23-.032-.315s-.051-.151-.089-.202-.083-.086-.134-.105a.444.444 0 0 0-.168-.03c-.06 0-.116.01-.167.03a.288.288 0 0 0-.129.105c-.035.051-.063.118-.083.202s-.03.19-.03.315c0 .121.01.223.03.303.02.082.048.146.083.193a.296.296 0 0 0 .129.103c.05.021.106.03.167.03s.117-.01.168-.03a.321.321 0 0 0 .134-.103.517.517 0 0 0 .089-.193c.022-.081.032-.182.032-.303zm-15.05 4.445a.172.172 0 0 1-.041.049c-.014.012-.033.016-.056.016a.15.15 0 0 1-.085-.036 1.254 1.254 0 0 0-.123-.081c-.05-.03-.11-.057-.18-.081s-.154-.037-.254-.037a.758.758 0 0 0-.249.038.54.54 0 0 0-.181.104.436.436 0 0 0-.146.339c0 .086.021.158.064.216a.574.574 0 0 0 .168.146c.069.041.149.075.238.105.089.029.18.061.272.092.093.032.184.066.272.107.088.039.168.09.238.149.07.06.126.136.168.224s.064.195.064.324c0 .135-.023.262-.069.381s-.113.223-.202.311a.96.96 0 0 1-.326.208 1.19 1.19 0 0 1-.44.075c-.201 0-.383-.036-.548-.108a1.249 1.249 0 0 1-.422-.295l.121-.198a.15.15 0 0 1 .042-.041.1.1 0 0 1 .055-.017c.03 0 .065.017.104.049.039.032.087.067.146.106.059.039.129.076.212.107a.824.824 0 0 0 .304.049c.1 0 .188-.014.266-.041s.144-.065.198-.115a.518.518 0 0 0 .125-.178.594.594 0 0 0 .043-.231.381.381 0 0 0-.063-.229.508.508 0 0 0-.168-.15 1.191 1.191 0 0 0-.236-.104c-.089-.027-.18-.057-.272-.086a2.032 2.032 0 0 1-.272-.104.892.892 0 0 1-.237-.15.674.674 0 0 1-.167-.232.828.828 0 0 1-.064-.344.814.814 0 0 1 .249-.59c.081-.079.181-.144.3-.19s.255-.072.41-.072c.173 0 .331.029.473.084.143.055.268.134.374.238l-.105.193zm2.815-.485v.353H13.82v2.746h-.42v-2.746h-1.005v-.353h2.426zm.901 1.806v1.293h-.417v-3.099h.875c.196 0 .365.021.508.061s.26.098.353.172c.093.075.162.166.207.271s.067.224.067.354a.922.922 0 0 1-.052.308.796.796 0 0 1-.15.256.879.879 0 0 1-.24.193 1.176 1.176 0 0 1-.321.121c.052.03.098.074.138.133l.904 1.229h-.372c-.076 0-.132-.028-.168-.089l-.804-1.104a.229.229 0 0 0-.08-.076.293.293 0 0 0-.13-.022h-.318zm0-.306h.439c.123 0 .23-.015.323-.043a.64.64 0 0 0 .233-.125.535.535 0 0 0 .142-.193.628.628 0 0 0 .048-.249c0-.185-.061-.324-.183-.417-.122-.094-.303-.141-.544-.141h-.458v1.168zm4.873 1.599h-.324a.141.141 0 0 1-.091-.028.174.174 0 0 1-.052-.07l-.29-.748h-1.39l-.29.748a.16.16 0 0 1-.052.068.139.139 0 0 1-.091.03h-.324l1.239-3.099h.426l1.239 3.099zm-2.03-1.149h1.157l-.486-1.262a2.263 2.263 0 0 1-.093-.292l-.046.163c-.015.05-.03.093-.044.131l-.488 1.26zm4.246-1.95v.353H21.81v2.746h-.419v-2.746h-1.005v-.353h2.425zm2.35 0v.342h-1.487v1.029h1.204v.328h-1.204v1.057h1.487v.343h-1.909v-3.099h1.909zm1.985 2.793a1.627 1.627 0 0 0 .428-.047 1.38 1.38 0 0 0 .339-.135v-.683h-.48a.097.097 0 0 1-.066-.024.076.076 0 0 1-.024-.059v-.238h.951v1.189c-.078.056-.159.104-.243.146s-.175.077-.271.104c-.096.029-.199.05-.308.063a2.644 2.644 0 0 1-.356.021c-.225 0-.431-.039-.619-.115a1.435 1.435 0 0 1-.484-.324 1.473 1.473 0 0 1-.317-.5 1.751 1.751 0 0 1-.114-.643 1.8 1.8 0 0 1 .111-.645 1.408 1.408 0 0 1 .818-.824c.195-.076.414-.115.656-.115a1.764 1.764 0 0 1 .634.105 1.523 1.523 0 0 1 .464.287l-.119.189c-.025.039-.057.06-.095.06a.155.155 0 0 1-.076-.024 1.808 1.808 0 0 1-.121-.072c-.045-.029-.099-.057-.163-.083s-.14-.05-.227-.068-.191-.028-.311-.028c-.174 0-.332.029-.473.086a1.003 1.003 0 0 0-.59.629c-.053.15-.08.32-.08.508 0 .195.028.371.083.523a1.036 1.036 0 0 0 .593.635c.138.056.293.082.46.082zm2.985-.927v1.232h-.417v-1.232l-1.135-1.865h.368a.14.14 0 0 1 .089.027c.021.02.04.043.056.069l.709 1.204a1.84 1.84 0 0 1 .125.276c.016-.045.033-.09.052-.135.019-.044.042-.091.071-.14l.707-1.204a.29.29 0 0 1 .053-.066.123.123 0 0 1 .088-.031h.372l-1.138 1.865zm-17.894 3.865a.815.815 0 0 1 .555.201.677.677 0 0 1 .23.461l-.24.048a.101.101 0 0 1-.073-.013c-.017-.01-.029-.028-.036-.055a.514.514 0 0 0-.135-.226.473.473 0 0 0-.127-.083.516.516 0 0 0-.368.003.424.424 0 0 0-.243.242.524.524 0 0 0-.015.326c.012.047.03.093.055.14a.973.973 0 0 0 .095.146c.039.05.086.102.141.156l.891.906a1.63 1.63 0 0 0 .197-.623.11.11 0 0 1 .026-.064c.015-.017.035-.024.061-.024h.238a1.702 1.702 0 0 1-.298.938l.649.658h-.372a.287.287 0 0 1-.102-.016.265.265 0 0 1-.086-.062l-.312-.312a1.568 1.568 0 0 1-.468.311 1.428 1.428 0 0 1-.583.115c-.115 0-.228-.02-.339-.059a.93.93 0 0 1-.297-.17.8.8 0 0 1-.291-.631c0-.102.017-.196.051-.287a.936.936 0 0 1 .141-.25c.06-.078.131-.146.213-.207.082-.061.172-.111.27-.155-.088-.11-.152-.22-.194-.324s-.062-.214-.062-.325c0-.105.019-.205.057-.297a.677.677 0 0 1 .166-.24.774.774 0 0 1 .263-.162.791.791 0 0 1 .342-.066zm-.858 2.277a.546.546 0 0 0 .188.428c.056.049.12.086.192.111a.669.669 0 0 0 .22.037c.162 0 .306-.029.435-.088.129-.06.242-.139.339-.235l-.914-.923a.942.942 0 0 0-.345.295.656.656 0 0 0-.115.375zm6.367-.692c0 .231-.037.442-.11.634a1.404 1.404 0 0 1-.312.488c-.134.135-.295.24-.482.314a1.685 1.685 0 0 1-.623.111H15.06V73.85h1.159c.228 0 .435.037.623.11.187.074.348.181.482.316.134.137.238.299.312.49.073.192.11.403.11.635zm-.431 0c0-.19-.026-.36-.078-.51a1.072 1.072 0 0 0-.221-.38.924.924 0 0 0-.346-.238 1.193 1.193 0 0 0-.452-.083h-.737v2.419h.737c.166 0 .316-.027.452-.082a.964.964 0 0 0 .567-.615c.052-.151.078-.321.078-.511zm2.911-1.55v.342h-1.487v1.029h1.204v.328h-1.204v1.058h1.487v.343h-1.909v-3.099l1.909-.001zm2.19.484a.187.187 0 0 1-.041.049.089.089 0 0 1-.056.016c-.024 0-.053-.012-.085-.037a.977.977 0 0 0-.123-.08.89.89 0 0 0-.18-.082.757.757 0 0 0-.254-.037.757.757 0 0 0-.249.039.523.523 0 0 0-.181.103.436.436 0 0 0-.146.34c0 .086.021.158.064.215.042.057.099.105.168.146s.149.074.238.104c.089.029.18.06.272.093.093.031.184.066.272.106.088.04.168.09.238.149a.684.684 0 0 1 .232.547c0 .136-.023.264-.069.382s-.113.223-.202.312a.943.943 0 0 1-.326.207 1.19 1.19 0 0 1-.44.076c-.201 0-.383-.037-.548-.109s-.306-.17-.422-.295l.121-.199a.143.143 0 0 1 .042-.039.093.093 0 0 1 .055-.018c.03 0 .065.018.104.049.039.032.087.068.146.107s.129.075.212.107a.824.824 0 0 0 .304.049c.1 0 .188-.014.266-.041a.554.554 0 0 0 .198-.116.495.495 0 0 0 .125-.179.586.586 0 0 0 .043-.23.39.39 0 0 0-.063-.23.528.528 0 0 0-.168-.149 1.135 1.135 0 0 0-.236-.103c-.089-.028-.18-.058-.272-.086a2.178 2.178 0 0 1-.272-.104.917.917 0 0 1-.237-.15.684.684 0 0 1-.167-.232.842.842 0 0 1-.064-.346.813.813 0 0 1 .249-.589.893.893 0 0 1 .3-.189c.119-.049.255-.072.41-.072.173 0 .331.028.473.083.143.056.268.134.374.238l-.105.195zm1.202 2.614h-.419v-3.098h.419v3.098zm2.211-.305a1.624 1.624 0 0 0 .428-.048 1.593 1.593 0 0 0 .339-.134v-.684h-.48a.096.096 0 0 1-.066-.023.078.078 0 0 1-.024-.06v-.237h.951v1.188a1.892 1.892 0 0 1-.243.147 1.711 1.711 0 0 1-.271.104 2.022 2.022 0 0 1-.308.062 2.644 2.644 0 0 1-.356.021c-.225 0-.431-.039-.619-.115a1.45 1.45 0 0 1-.484-.324 1.492 1.492 0 0 1-.317-.5 1.759 1.759 0 0 1-.114-.643c0-.236.037-.451.111-.646.074-.193.18-.36.318-.5.138-.139.304-.246.5-.322.195-.076.414-.115.656-.115.123 0 .236.01.341.027a1.513 1.513 0 0 1 .543.201c.076.049.147.104.214.164l-.119.189c-.025.039-.057.059-.095.059a.164.164 0 0 1-.076-.023 1.856 1.856 0 0 1-.121-.073 1.07 1.07 0 0 0-.163-.083 1.512 1.512 0 0 0-.227-.068 1.487 1.487 0 0 0-.311-.027c-.174 0-.332.029-.473.085a1.018 1.018 0 0 0-.59.63c-.053.15-.08.318-.08.507 0 .196.028.371.083.524a1.022 1.022 0 0 0 .593.634c.138.056.293.083.46.083zm2.092-2.779a.22.22 0 0 1 .062.057l1.794 2.336a2.395 2.395 0 0 1-.009-.109l-.002-.104v-2.193h.367v3.098h-.212a.186.186 0 0 1-.083-.017.224.224 0 0 1-.066-.06l-1.792-2.332a3.7 3.7 0 0 1 .007.105l.002.096v2.207h-.368v-3.098h.216c.038 0 .066.004.084.014zm36.617.746h.568v.658c0 .059-.021.107-.06.15s-.095.064-.168.064h-.341v1.268h-1.021v-1.268H61.3a.312.312 0 0 1-.199-.068.283.283 0 0 1-.111-.17l-.121-.578 2.55-3.428h1.12v3.372zm-1.021-1.438c0-.088.002-.184.01-.287.006-.102.016-.207.027-.315l-1.457 2.04h1.418v-1.438h.002zm4.1-1.994c.272 0 .515.039.727.115s.392.181.537.312.257.283.333.456.114.355.114.547c0 .174-.019.327-.054.459a.968.968 0 0 1-.414.592 1.538 1.538 0 0 1-.35.17c.61.213.916.627.916 1.246 0 .291-.053.547-.158.764a1.573 1.573 0 0 1-.427.541 1.82 1.82 0 0 1-.618.322 2.493 2.493 0 0 1-.734.108c-.262 0-.496-.028-.7-.085a1.592 1.592 0 0 1-.545-.266c-.159-.119-.298-.272-.418-.459s-.224-.408-.312-.666l.521-.211a.549.549 0 0 1 .134-.043.964.964 0 0 1 .13-.011c.081 0 .153.017.219.048.063.03.112.076.146.137.112.209.233.361.36.457a.729.729 0 0 0 .449.142.841.841 0 0 0 .342-.065.778.778 0 0 0 .242-.17.758.758 0 0 0 .195-.506c0-.119-.008-.225-.024-.32a.42.42 0 0 0-.138-.244.773.773 0 0 0-.342-.156 2.853 2.853 0 0 0-.638-.055v-.811c.229 0 .414-.018.556-.053s.25-.084.327-.146a.437.437 0 0 0 .152-.225c.025-.088.039-.186.039-.292 0-.218-.054-.384-.158-.501-.104-.117-.264-.176-.479-.176a.773.773 0 0 0-.242.037.738.738 0 0 0-.197.103.662.662 0 0 0-.148.151.853.853 0 0 0-.1.189c-.041.113-.092.195-.153.245s-.146.076-.251.076a.801.801 0 0 1-.082-.004l-.089-.011-.621-.11c.041-.274.118-.515.233-.72a1.719 1.719 0 0 1 1.011-.816c.221-.062.457-.095.709-.095zm4.835 1.397a1.355 1.355 0 0 1-.402.982 1.32 1.32 0 0 1-.923.377c-.192 0-.368-.033-.528-.099a1.226 1.226 0 0 1-.689-.709 1.484 1.484 0 0 1-.1-.551c0-.209.033-.4.1-.57a1.27 1.27 0 0 1 .273-.437 1.25 1.25 0 0 1 .416-.282c.16-.066.336-.101.528-.101.19 0 .369.034.531.101a1.238 1.238 0 0 1 .694.719c.065.169.1.361.1.57zm1.733-1.162a.703.703 0 0 1 .141-.119.43.43 0 0 1 .23-.055h.855l-4.154 5.346a.417.417 0 0 1-.349.166h-.877l4.154-5.338zm-2.633 1.162c0-.129-.011-.236-.031-.32a.555.555 0 0 0-.09-.203.287.287 0 0 0-.134-.105c-.052-.021-.108-.029-.168-.029s-.116.01-.167.029-.093.055-.129.105c-.035.051-.062.119-.083.203s-.03.19-.03.32c0 .12.01.221.03.303.021.08.048.145.083.192.036.048.078.082.129.103s.105.029.167.029.117-.01.168-.029a.317.317 0 0 0 .134-.103.536.536 0 0 0 .09-.192 1.25 1.25 0 0 0 .031-.303zm4.071 2.882a1.373 1.373 0 0 1-.401.986c-.121.12-.263.212-.423.278a1.389 1.389 0 0 1-1.028 0 1.212 1.212 0 0 1-.69-.71 1.52 1.52 0 0 1-.099-.554c0-.209.033-.399.099-.569.065-.171.157-.315.274-.437s.256-.216.416-.283c.16-.066.336-.1.527-.1s.369.033.531.1a1.226 1.226 0 0 1 .693.72c.066.17.101.361.101.569zm-.901 0c0-.127-.011-.231-.031-.316a.533.533 0 0 0-.09-.202c-.037-.051-.082-.086-.134-.106s-.108-.029-.168-.029-.116.01-.167.029a.297.297 0 0 0-.129.106c-.035.05-.062.118-.083.202s-.03.189-.03.316c0 .121.01.222.03.303.021.08.048.145.083.193a.301.301 0 0 0 .129.102c.051.021.105.029.167.029s.117-.01.168-.029a.315.315 0 0 0 .134-.102.55.55 0 0 0 .09-.193c.021-.081.031-.181.031-.303zm-16.606 5.51c0 .232-.037.445-.11.64s-.177.36-.312.5-.295.249-.483.326c-.188.077-.396.114-.624.114s-.435-.039-.623-.114a1.398 1.398 0 0 1-.794-.826 1.803 1.803 0 0 1-.11-.64c0-.231.037-.444.11-.639.074-.193.177-.361.312-.502.134-.14.294-.25.482-.326.188-.078.395-.117.623-.117s.436.039.624.117c.188.078.349.187.483.326a1.5 1.5 0 0 1 .312.502c.073.195.11.408.11.639zm-.429 0c0-.189-.026-.36-.078-.512a1.101 1.101 0 0 0-.221-.383.958.958 0 0 0-.347-.242 1.18 1.18 0 0 0-.454-.084c-.166 0-.316.028-.452.084a.97.97 0 0 0-.347.242 1.076 1.076 0 0 0-.222.383 1.569 1.569 0 0 0-.078.512c0 .191.026.361.078.512.052.15.126.277.222.383a.93.93 0 0 0 .347.24c.135.057.286.083.452.083a1.2 1.2 0 0 0 .454-.083.95.95 0 0 0 .347-.24c.094-.104.168-.232.221-.383.051-.15.078-.32.078-.512zm1.462.39v1.159h-.418v-3.098h.916c.195 0 .365.022.511.067.146.046.265.11.36.193.094.083.166.185.213.303s.069.25.069.396a.998.998 0 0 1-.075.396.882.882 0 0 1-.223.311 1.017 1.017 0 0 1-.361.201c-.145.049-.31.072-.496.072h-.496zm0-.333h.498a.971.971 0 0 0 .315-.047.626.626 0 0 0 .229-.133c.062-.057.109-.125.142-.204s.047-.167.047-.263c0-.196-.062-.352-.183-.461-.122-.111-.307-.168-.553-.168h-.498v1.275h.003zm4.091-1.606v.342h-1.487v1.029h1.204v.328h-1.204v1.057h1.487v.343h-1.909v-3.099h1.909zm1.064 1.805v1.293h-.418v-3.098h.875c.196 0 .365.02.508.06.144.04.26.097.354.172a.698.698 0 0 1 .207.271.902.902 0 0 1 .066.355.903.903 0 0 1-.052.307.79.79 0 0 1-.149.256.904.904 0 0 1-.24.195 1.143 1.143 0 0 1-.321.12.42.42 0 0 1 .138.132l.904 1.23h-.371c-.076 0-.133-.029-.169-.089l-.804-1.106a.206.206 0 0 0-.08-.074.277.277 0 0 0-.13-.023h-.318zm0-.305h.438c.123 0 .229-.016.323-.045a.608.608 0 0 0 .232-.125.54.54 0 0 0 .19-.441c0-.186-.061-.324-.182-.417-.123-.095-.304-.142-.545-.142h-.457v1.17zm4.872 1.598h-.323a.159.159 0 0 1-.092-.027.199.199 0 0 1-.052-.072l-.29-.748h-1.391l-.289.748a.157.157 0 0 1-.053.069.13.13 0 0 1-.09.03h-.324l1.238-3.098h.426l1.24 3.098zm-2.03-1.15h1.158l-.486-1.261a2.414 2.414 0 0 1-.094-.292l-.045.163c-.016.05-.031.093-.045.131l-.488 1.259zm4.246-1.948v.353h-1v2.746h-.42v-2.746h-1.005v-.353h2.425zm.939 3.098h-.419v-3.098h.419v3.098zm3.707-1.549c0 .232-.037.445-.109.64-.074.194-.178.36-.312.5s-.295.249-.483.326-.396.114-.624.114c-.228 0-.435-.039-.623-.114a1.398 1.398 0 0 1-.794-.826 1.803 1.803 0 0 1-.11-.64c0-.231.037-.444.11-.639.074-.193.177-.361.312-.502.135-.14.295-.25.482-.326.188-.078.396-.117.623-.117.229 0 .436.039.624.117s.349.187.483.326a1.5 1.5 0 0 1 .312.502c.072.195.109.408.109.639zm-.432 0c0-.189-.025-.36-.078-.512a1.071 1.071 0 0 0-.221-.383.937.937 0 0 0-.346-.242 1.18 1.18 0 0 0-.454-.084c-.166 0-.315.028-.452.084a.979.979 0 0 0-.347.242c-.097.104-.169.231-.222.383s-.078.322-.078.512c0 .191.025.361.078.512.052.15.125.277.222.383s.211.186.347.24c.135.057.286.083.452.083a1.2 1.2 0 0 0 .454-.083.937.937 0 0 0 .346-.24c.096-.104.17-.232.221-.383.053-.15.078-.32.078-.512zm1.304-1.535a.184.184 0 0 1 .062.057l1.795 2.336c-.004-.039-.008-.074-.01-.109l-.002-.104V79.42h.367v3.098h-.212c-.033 0-.062-.006-.083-.018s-.044-.031-.066-.059l-1.792-2.333a4.036 4.036 0 0 1 .009.201v2.208h-.368v-3.098h.216c.038 0 .066.004.084.014zm4.556.47a.175.175 0 0 1-.041.05.095.095 0 0 1-.056.016.144.144 0 0 1-.085-.037.972.972 0 0 0-.123-.081.916.916 0 0 0-.18-.081.757.757 0 0 0-.254-.037.787.787 0 0 0-.25.038.542.542 0 0 0-.181.103.415.415 0 0 0-.108.152.479.479 0 0 0-.037.189c0 .086.021.158.063.215.042.057.099.105.168.146s.149.074.238.104c.089.028.18.06.272.092.092.032.184.067.271.106.088.041.168.09.238.15s.125.135.168.223a.767.767 0 0 1 .063.324c0 .135-.022.264-.069.381a.864.864 0 0 1-.201.312c-.088.088-.197.157-.326.208s-.275.076-.439.076c-.201 0-.384-.037-.549-.109s-.306-.171-.422-.295l.121-.199a.13.13 0 0 1 .042-.039.094.094 0 0 1 .056-.018c.029 0 .064.018.104.049.039.032.087.068.146.107.059.039.129.074.211.106.084.033.185.05.305.05.1 0 .188-.015.266-.041a.534.534 0 0 0 .323-.295.604.604 0 0 0 .043-.23.39.39 0 0 0-.063-.23.543.543 0 0 0-.168-.15 1.141 1.141 0 0 0-.236-.103l-.271-.086a2.101 2.101 0 0 1-.271-.103.888.888 0 0 1-.237-.151.69.69 0 0 1-.167-.231.845.845 0 0 1-.064-.346.817.817 0 0 1 .25-.589.864.864 0 0 1 .299-.189c.119-.049.256-.072.41-.072.174 0 .332.027.473.082.144.056.269.135.375.238l-.107.195zm-22.68-60.588c.272 0 .515.039.727.115.212.077.391.181.537.312.146.131.258.283.333.456s.114.355.114.547c0 .174-.019.327-.054.459s-.087.247-.157.344a.964.964 0 0 1-.257.248c-.103.068-.22.125-.351.17.611.212.916.627.916 1.245 0 .292-.053.547-.158.764a1.572 1.572 0 0 1-.426.541c-.178.144-.385.251-.619.323s-.479.108-.734.108c-.262 0-.495-.028-.699-.085a1.6 1.6 0 0 1-.545-.265 1.748 1.748 0 0 1-.418-.459 3.076 3.076 0 0 1-.312-.666l.522-.212a.607.607 0 0 1 .265-.053c.08 0 .153.016.218.047a.33.33 0 0 1 .146.138c.113.209.234.361.361.456s.277.142.448.142a.83.83 0 0 0 .343-.066.71.71 0 0 0 .387-.406.762.762 0 0 0 .05-.269c0-.119-.009-.225-.024-.32a.416.416 0 0 0-.139-.244c-.075-.068-.189-.121-.342-.157s-.365-.055-.638-.055v-.81c.229 0 .415-.018.556-.053a.842.842 0 0 0 .328-.146c.076-.062.127-.137.152-.225s.039-.186.039-.292c0-.217-.053-.384-.158-.501-.104-.117-.264-.176-.479-.176a.715.715 0 0 0-.587.291.813.813 0 0 0-.1.189.546.546 0 0 1-.154.246.387.387 0 0 1-.251.076 1.002 1.002 0 0 1-.171-.015l-.62-.11c.041-.275.118-.515.233-.719s.257-.375.427-.511c.171-.136.365-.238.585-.305.218-.063.454-.097.706-.097zm4.389 0c.272 0 .515.039.727.115.212.077.391.181.537.312.146.131.258.283.333.456s.114.355.114.547c0 .174-.019.327-.054.459s-.087.247-.157.344a.964.964 0 0 1-.257.248c-.103.068-.22.125-.351.17.611.212.916.627.916 1.245 0 .292-.053.547-.158.764a1.572 1.572 0 0 1-.426.541c-.178.144-.385.251-.619.323s-.479.108-.734.108c-.262 0-.495-.028-.699-.085a1.6 1.6 0 0 1-.545-.265 1.748 1.748 0 0 1-.418-.459 3.03 3.03 0 0 1-.312-.666l.522-.212a.607.607 0 0 1 .265-.053c.08 0 .153.016.218.047a.33.33 0 0 1 .146.138c.113.209.234.361.361.456s.277.142.448.142a.83.83 0 0 0 .343-.066.71.71 0 0 0 .387-.406.762.762 0 0 0 .05-.269c0-.119-.009-.225-.024-.32a.416.416 0 0 0-.139-.244c-.075-.068-.189-.121-.342-.157s-.365-.055-.638-.055v-.81c.229 0 .415-.018.556-.053a.842.842 0 0 0 .328-.146c.076-.062.127-.137.152-.225s.039-.186.039-.292c0-.217-.053-.384-.158-.501-.104-.117-.264-.176-.479-.176a.715.715 0 0 0-.587.291.813.813 0 0 0-.1.189.546.546 0 0 1-.154.246.387.387 0 0 1-.251.076 1.002 1.002 0 0 1-.171-.015l-.62-.11c.04-.275.118-.515.233-.719.114-.204.257-.375.427-.511.171-.136.365-.238.585-.305.218-.063.454-.097.706-.097zm4.835 1.396a1.355 1.355 0 0 1-.401.982c-.121.12-.262.212-.422.278s-.327.099-.501.099c-.192 0-.368-.033-.528-.099a1.226 1.226 0 0 1-.689-.708 1.49 1.49 0 0 1-.1-.552c0-.209.033-.399.1-.569a1.236 1.236 0 0 1 .689-.719c.16-.067.336-.101.528-.101.191 0 .368.034.531.101a1.224 1.224 0 0 1 .694.719c.065.17.099.36.099.569zm1.732-1.161a.69.69 0 0 1 .14-.119.418.418 0 0 1 .231-.055h.854l-4.154 5.346a.42.42 0 0 1-.348.166h-.877l4.154-5.338zm-2.633 1.161c0-.128-.011-.235-.032-.32s-.051-.152-.089-.202a.306.306 0 0 0-.134-.106c-.053-.021-.108-.03-.169-.03s-.116.01-.167.03a.284.284 0 0 0-.129.106.594.594 0 0 0-.082.202 1.356 1.356 0 0 0-.031.32c0 .121.011.222.031.303a.55.55 0 0 0 .082.193.294.294 0 0 0 .129.102.47.47 0 0 0 .336 0c.051-.02.096-.054.134-.102s.067-.112.089-.193.032-.181.032-.303zm4.072 2.883a1.37 1.37 0 0 1-.402.986c-.121.12-.262.212-.422.278s-.326.098-.5.098a1.39 1.39 0 0 1-.528-.098 1.212 1.212 0 0 1-.69-.71 1.5 1.5 0 0 1-.099-.554c0-.209.032-.399.099-.569a1.236 1.236 0 0 1 .69-.719c.16-.067.336-.1.528-.1.191 0 .368.033.531.1a1.233 1.233 0 0 1 .693.719c.066.17.1.36.1.569zm-.901 0c0-.126-.012-.231-.033-.316s-.051-.152-.088-.202a.314.314 0 0 0-.135-.106c-.052-.021-.107-.03-.168-.03s-.117.01-.167.03a.284.284 0 0 0-.129.106c-.035.05-.063.118-.083.202s-.03.19-.03.316c0 .121.011.222.03.303s.048.145.083.193a.294.294 0 0 0 .129.102c.05.021.106.03.167.03s.116-.01.168-.03a.328.328 0 0 0 .135-.102c.037-.048.066-.112.088-.193s.033-.182.033-.303zm-19.553 3.961h.348c.038 0 .068.01.093.028s.041.042.05.071l.64 2.153c.011.039.022.081.031.125l.027.14.03-.142a.919.919 0 0 1 .035-.124l.729-2.153a.159.159 0 0 1 .051-.068.14.14 0 0 1 .092-.032h.121c.038 0 .068.01.092.028a.151.151 0 0 1 .051.071l.725 2.153c.026.075.049.161.069.257l.024-.136c.007-.043.017-.083.028-.121l.642-2.153a.143.143 0 0 1 .14-.099h.327l-.966 3.098h-.376l-.785-2.363a1.317 1.317 0 0 1-.043-.156 3.318 3.318 0 0 1-.042.156l-.789 2.363h-.376l-.968-3.096zm6.661 0v.342H55.9v1.029h1.204v.329H55.9v1.057h1.487v.342h-1.909v-3.098h1.91zm.603 3.098v-3.098h.988c.189 0 .354.019.491.056a.954.954 0 0 1 .339.16c.09.069.154.154.197.254s.064.213.064.338a.668.668 0 0 1-.144.418.756.756 0 0 1-.182.162 1.044 1.044 0 0 1-.256.117c.227.044.396.126.512.244s.174.274.174.467c0 .131-.024.25-.072.359a.771.771 0 0 1-.213.279c-.092.078-.207.138-.342.18s-.288.064-.461.064h-1.095zm.419-1.71h.554c.118 0 .221-.013.307-.039a.62.62 0 0 0 .215-.108.412.412 0 0 0 .127-.167.564.564 0 0 0 .041-.215c0-.182-.055-.315-.164-.4s-.279-.127-.51-.127h-.57v1.056zm0 .299v1.079h.671c.119 0 .222-.014.308-.041a.576.576 0 0 0 .212-.116c.055-.05.096-.109.122-.177s.039-.144.039-.226a.465.465 0 0 0-.17-.379c-.113-.093-.284-.139-.514-.139h-.668zm5.898-.137c0 .232-.037.443-.109.633-.074.19-.178.353-.312.489-.133.135-.295.24-.481.314a1.687 1.687 0 0 1-.622.111h-1.16v-3.098h1.16c.227 0 .435.037.622.111.187.074.349.18.481.316.135.136.238.299.312.49.072.191.109.403.109.634zm-.43 0c0-.19-.026-.36-.078-.51s-.125-.277-.221-.38a.944.944 0 0 0-.346-.238 1.191 1.191 0 0 0-.451-.083h-.738v2.419h.738c.165 0 .315-.027.451-.082a.954.954 0 0 0 .346-.237c.096-.103.169-.229.221-.379s.078-.32.078-.51zm2.91-1.55v.342H65.3v1.029h1.205v.329H65.3v1.057h1.488v.342h-1.91v-3.098h1.91zm2.19.485a.172.172 0 0 1-.041.049c-.014.011-.033.016-.057.016s-.053-.012-.085-.037a1.095 1.095 0 0 0-.303-.162.753.753 0 0 0-.254-.037.758.758 0 0 0-.249.038.525.525 0 0 0-.18.103.407.407 0 0 0-.109.152.479.479 0 0 0-.037.189c0 .086.021.158.064.215.042.057.098.105.168.146s.149.075.238.105c.088.029.18.06.271.092.094.032.184.067.273.107.088.04.168.09.237.15s.126.135.169.223a.749.749 0 0 1 .063.324c0 .135-.022.263-.069.381-.046.119-.113.223-.202.311s-.197.157-.326.208-.276.076-.44.076c-.2 0-.383-.037-.548-.109s-.306-.171-.423-.295l.121-.199a.15.15 0 0 1 .043-.04.097.097 0 0 1 .055-.017c.03 0 .064.017.104.049s.088.068.146.107c.059.039.129.075.211.107a.833.833 0 0 0 .305.049c.1 0 .188-.014.266-.041a.542.542 0 0 0 .322-.294.59.59 0 0 0 .043-.231.39.39 0 0 0-.063-.23.53.53 0 0 0-.168-.15 1.112 1.112 0 0 0-.236-.103l-.272-.086c-.094-.029-.184-.063-.272-.103s-.167-.089-.237-.151a.702.702 0 0 1-.167-.232.837.837 0 0 1-.063-.345.807.807 0 0 1 .248-.59.895.895 0 0 1 .3-.19c.118-.048.255-.072.409-.072.174 0 .331.028.474.083.144.055.268.134.374.238l-.103.196zm1.202 2.613h-.419v-3.098h.419v3.098zm2.212-.304c.083 0 .16-.004.229-.012a1.48 1.48 0 0 0 .537-.17v-.683h-.479a.09.09 0 0 1-.066-.024.076.076 0 0 1-.024-.059v-.238h.951v1.189a1.785 1.785 0 0 1-.243.147 1.538 1.538 0 0 1-.271.104c-.096.028-.198.049-.308.063s-.229.021-.357.021c-.225 0-.431-.039-.618-.116a1.407 1.407 0 0 1-.483-.324 1.443 1.443 0 0 1-.317-.5 1.774 1.774 0 0 1-.114-.642c0-.236.037-.452.111-.646.074-.194.181-.361.318-.5s.305-.247.5-.323c.195-.076.414-.115.656-.115.122 0 .236.009.341.027.105.018.203.044.293.078.091.034.173.075.25.124.076.048.147.103.214.163l-.119.19c-.024.039-.057.059-.095.059a.152.152 0 0 1-.075-.024 1.623 1.623 0 0 1-.121-.073.999.999 0 0 0-.164-.083 1.404 1.404 0 0 0-.538-.096c-.174 0-.332.029-.473.085a.994.994 0 0 0-.361.244c-.1.106-.176.234-.229.385a1.49 1.49 0 0 0-.08.507c0 .196.028.371.083.524a1.031 1.031 0 0 0 .593.634c.138.056.291.084.459.084zm2.091-2.78a.205.205 0 0 1 .061.057l1.795 2.335c-.004-.038-.008-.074-.009-.109l-.002-.103v-2.194h.367v3.098h-.212a.186.186 0 0 1-.083-.017.206.206 0 0 1-.065-.059l-1.793-2.333c.003.036.006.071.007.106l.002.095v2.208h-.368v-3.098h.217c.037 0 .065.005.083.014zm-19.826 5.717c.114 0 .218.019.312.055a.795.795 0 0 1 .243.146.689.689 0 0 1 .23.461l-.24.048a.101.101 0 0 1-.073-.013c-.017-.01-.029-.028-.036-.054a.514.514 0 0 0-.135-.227.473.473 0 0 0-.127-.083.516.516 0 0 0-.368.003.42.42 0 0 0-.243.241.534.534 0 0 0-.015.326c.012.046.03.092.055.139a.919.919 0 0 0 .095.145c.039.05.086.102.141.157l.891.906a1.63 1.63 0 0 0 .197-.623.116.116 0 0 1 .026-.065.08.08 0 0 1 .061-.024h.238a1.702 1.702 0 0 1-.299.939l.649.657h-.372c-.042 0-.076-.005-.102-.015s-.055-.031-.086-.062l-.312-.313a1.55 1.55 0 0 1-.468.311 1.444 1.444 0 0 1-.583.115 1.016 1.016 0 0 1-.636-.228.798.798 0 0 1-.291-.632.81.81 0 0 1 .051-.287.951.951 0 0 1 .141-.25c.06-.077.131-.145.213-.206s.172-.112.27-.156a1.31 1.31 0 0 1-.194-.324.87.87 0 0 1-.062-.326c0-.105.019-.204.057-.296s.093-.172.166-.241a.882.882 0 0 1 .606-.224zm-.858 2.276a.546.546 0 0 0 .188.428c.056.049.12.086.192.111a.67.67 0 0 0 .22.038c.162 0 .307-.03.435-.089a1.17 1.17 0 0 0 .339-.235l-.914-.923a.942.942 0 0 0-.345.295.66.66 0 0 0-.115.375zm5.865.216c.022 0 .044.01.063.028l.164.179a1.326 1.326 0 0 1-.462.344 1.56 1.56 0 0 1-.653.124c-.225 0-.427-.039-.608-.116s-.337-.185-.465-.324-.228-.306-.298-.5c-.07-.195-.106-.409-.106-.642s.038-.448.114-.642a1.425 1.425 0 0 1 .81-.827 1.67 1.67 0 0 1 .632-.116c.228 0 .425.036.589.106.166.071.312.167.44.288l-.136.192a.15.15 0 0 1-.035.036c-.013.01-.031.014-.057.014a.109.109 0 0 1-.059-.021l-.075-.051a.944.944 0 0 0-.427-.181 1.253 1.253 0 0 0-.244-.021c-.166 0-.317.029-.455.085a1.003 1.003 0 0 0-.355.243c-.1.105-.177.233-.232.385s-.083.321-.083.508c0 .193.027.365.083.517s.131.279.227.384c.097.104.21.184.341.239s.272.082.424.082c.092 0 .175-.005.248-.016a.893.893 0 0 0 .38-.138c.054-.035.108-.078.163-.126.025-.021.05-.033.072-.033zm3.655-.907a1.8 1.8 0 0 1-.109.639 1.461 1.461 0 0 1-.312.5c-.134.14-.295.249-.483.326a1.63 1.63 0 0 1-.623.115c-.229 0-.436-.039-.623-.115a1.384 1.384 0 0 1-.482-.326 1.478 1.478 0 0 1-.311-.5c-.074-.194-.111-.407-.111-.639s.037-.445.111-.639a1.406 1.406 0 0 1 .793-.829c.188-.078.395-.117.623-.117.228 0 .436.039.623.117.188.078.35.187.483.327.134.141.237.308.312.502a1.8 1.8 0 0 1 .109.639zm-.429 0c0-.19-.025-.361-.078-.512a1.067 1.067 0 0 0-.221-.384.947.947 0 0 0-.346-.241 1.172 1.172 0 0 0-.453-.084c-.166 0-.316.028-.452.084s-.251.137-.347.241-.17.232-.223.384a1.596 1.596 0 0 0-.077.512c0 .19.026.361.077.511.053.15.127.278.223.383s.211.185.347.24c.136.056.286.083.452.083.167 0 .318-.028.453-.083a.921.921 0 0 0 .346-.24c.096-.104.17-.232.221-.383.052-.151.078-.321.078-.511zm3.687 0c0 .232-.036.443-.109.633-.074.19-.178.353-.312.489-.134.135-.295.24-.481.314a1.688 1.688 0 0 1-.623.111h-1.159V33.32h1.159c.228 0 .436.037.623.111a1.37 1.37 0 0 1 .793.806c.073.19.109.402.109.634zm-.43 0c0-.19-.025-.36-.078-.51a1.04 1.04 0 0 0-.221-.38.928.928 0 0 0-.346-.238 1.184 1.184 0 0 0-.451-.083h-.737v2.419h.737c.166 0 .316-.027.451-.082a.937.937 0 0 0 .346-.237c.096-.103.17-.229.221-.379.053-.15.078-.32.078-.51zm1.499 1.547h-.419V33.32h.419v3.098zm1.129-3.084a.218.218 0 0 1 .062.057l1.795 2.335a1.472 1.472 0 0 1-.01-.109l-.002-.103V33.32h.367v3.098h-.211a.193.193 0 0 1-.084-.017.217.217 0 0 1-.065-.059l-1.792-2.333.006.106c.002.034.002.066.002.095v2.208h-.367V33.32h.217c.036 0 .064.005.082.014zm4.351 2.78c.084 0 .16-.004.23-.012a1.41 1.41 0 0 0 .537-.17v-.683h-.48a.088.088 0 0 1-.065-.024.076.076 0 0 1-.024-.059v-.238h.951v1.189a1.568 1.568 0 0 1-.514.251c-.096.028-.199.049-.309.063s-.229.021-.355.021a1.61 1.61 0 0 1-.619-.116 1.42 1.42 0 0 1-.8-.824 1.753 1.753 0 0 1-.113-.642c0-.236.037-.452.111-.646.074-.194.18-.361.317-.5s.304-.247.499-.323a2.036 2.036 0 0 1 .998-.088c.106.018.203.044.293.078.09.034.174.075.25.124s.147.103.214.163l-.118.19c-.025.039-.057.059-.096.059a.152.152 0 0 1-.076-.024c-.035-.02-.076-.044-.121-.073s-.099-.057-.162-.083a1.418 1.418 0 0 0-.539-.096c-.175 0-.332.029-.474.085a1.012 1.012 0 0 0-.59.629c-.053.15-.08.319-.08.507 0 .196.027.371.084.524a1.027 1.027 0 0 0 .592.634c.137.056.292.084.459.084z" fill="#333"/></svg>