<svg id="Layer_1" xmlns="http://www.w3.org/2000/svg" viewBox="0 0 243 243"><style>.st0{fill:#f8c02c}.st1{fill:none}.st2{fill:#fff}.st3{fill:#f7bf2d}.st4{fill:#ffdf99}.st5{fill:#010101}</style><circle class="st0" cx="121.5" cy="121.5" r="121.5"/><path class="st1" d="M191 126.1c-1 2.4-2.3 4.6-3.7 6.8 1.6-2.2 2.8-4.4 3.7-6.8zm-84.4 57.5l-1.9-1.1c.6.5 1.2.9 1.9 1.1zm-4.4-5.4c.2 1.4.7 2.8 1.8 3.9l-1.8-3.9z"/><ellipse transform="rotate(-45.004 104.788 66.47)" class="st1" cx="104.8" cy="66.5" rx="1.3" ry="1.3"/><path class="st1" d="M125.1 113.1l-1.6 2.7c.9-.7 1.3-1.7 1.6-2.7zm-6.7 9.2h-.2.2z"/><ellipse transform="rotate(-67.077 128.224 73.699)" class="st2" cx="128.2" cy="73.7" rx="2.3" ry="2.3"/><path class="st2" d="M106.7 68.4c1.1-1.1 1.1-2.8 0-3.8s-2.8-1.1-3.8 0-1.1 2.8 0 3.8 2.7 1 3.8 0zm-2.9-2.9c.5-.5 1.4-.5 1.9 0s.5 1.4 0 1.9-1.4.5-1.9 0-.5-1.4 0-1.9zm10.1-17.1l1.7 5.5 1.7-5.5c.3-1 1.1-1.9 2.2-2.2l5.5-1.7-5.5-1.7c-1-.3-1.9-1.1-2.2-2.2l-1.7-5.5-1.7 5.5c-.3 1-1.1 1.9-2.2 2.2l-5.5 1.7 5.5 1.7c1 .3 1.8 1.2 2.2 2.2zm1.7-5.5c.9 0 1.6.7 1.6 1.6s-.7 1.6-1.6 1.6-1.6-.7-1.6-1.6.7-1.6 1.6-1.6z"/><circle class="st3" cx="115.6" cy="44.5" r="1.6"/><path class="st2" d="M148.1 61.1l.9 2.8.9-2.8c.2-.5.6-.9 1.1-1.1l2.8-.9-2.8-.9c-.5-.2-.9-.6-1.1-1.1l-.9-2.8-.9 2.8c-.2.5-.6.9-1.1 1.1l-2.8.9 2.8.9c.5.1 1 .6 1.1 1.1zm.9-2.8c.4 0 .8.4.8.8s-.4.8-.8.8-.8-.4-.8-.8.3-.8.8-.8z"/><circle class="st3" cx="149" cy="59.1" r=".8"/><path class="st4" d="M59.4 137.5l12.8 12.8c.3-2.4 1.4-4.7 3.1-6.4l30.2-30.2-3-3c-2.7 1.6-5.7 2.5-9 2.5-4.8 0-9.3-1.9-12.7-5.2l-3.5-3.5 3.2-3.2 3.5 3.5c2.6 2.6 6.1 3.9 9.5 3.9 3.4 0 6.8-1.3 9.4-3.9l3.2 3.2 7.9 7.9c1.3 1.3 3 2 4.8 2 1.7 0 3.5-.7 4.8-2l1.6-2.7c.7-2.3.3-5-1.6-6.8l-8.7-8.7v-.1l-7.7-7.7c-6.6-6.6-15.2-9.8-23.9-9.8S66 83.2 59.4 89.8c-13.1 13.1-13.1 34.6 0 47.7zm18-36.2c.9-.9 2.3-.9 3.2 0l-3.2 3.2c-.9-.9-.9-2.4 0-3.2zm-32.3 10.2z"/><path class="st5" d="M80.6 101.3c-.9-.9-2.3-.9-3.2 0-.9.9-.9 2.3 0 3.2l3.2-3.2z"/><path class="st2" d="M104.7 182.5l1.9 1.1c.3.1.6.1 1 .2.5-1.8 1.4-3.5 2.8-4.9 2.6-2.6 6.2-3.6 9.6-3.1-.5-3.4.5-7 3.1-9.6 2.6-2.6 6.2-3.6 9.6-3.1-.5-3.4.5-7 3.1-9.6 2.6-2.6 6.2-3.6 9.6-3.1-.5-3.4.5-7 3.1-9.6 4.4-4.4 11.5-4.4 15.9 0l3.2 3.2c1.8 1.8 2.8 4 3.1 6.4l12.8-12.8c1.4-1.4 2.7-3 3.8-4.6 1.4-2.2 2.6-4.4 3.7-6.8 4.8-12.1 2.3-26.5-7.5-36.3-6.6-6.6-15.2-9.8-23.9-9.8s-17.3 3.3-23.9 9.8L124.6 101l2.1 2.1c2.1 2.1 3.3 4.9 3.3 8s-1.2 5.8-3.3 8c-2.1 2.1-4.9 3.3-8 3.3h-.5l-.1-.1c-2.8-.1-5.4-1.2-7.4-3.2l-2.1-2.1-30.2 30.2c-2.6 2.6-2.6 6.9 0 9.5 1.3 1.3 3 2 4.8 2 1.7 0 3.5-.7 4.8-2l28.9-28.9c.9-.9 2.3-.9 3.2 0 .9.9.9 2.3 0 3.2l-28.9 28.9c-2.6 2.6-2.6 6.9 0 9.5 1.3 1.3 3 2 4.8 2 1.7 0 3.5-.7 4.8-2l28.9-28.9c.9-.9 2.3-.9 3.2 0 .9.9.9 2.3 0 3.2L104 172.5c-1.5 1.5-2.1 3.6-1.8 5.7l1.8 3.9c.2.2.4.2.7.4zm-16.6-10zm71.6-97.1zm-85.3 83.2v.4h.4c-.2-.1-.3-.2-.4-.4z"/><path class="st5" d="M186.7 86.6c-7.2-7.2-16.8-11.2-27-11.2s-19.8 4-27 11.2l-11.2 11.2-11.2-11.2c-7.2-7.2-16.8-11.2-27-11.2s-19.8 4-27 11.2c-6.9 6.9-10.6 15.8-11.1 24.9v.1c-.6 10.5 3.1 21.2 11.1 29.1l18.2 18.2v-.2c.1.2.2.3.4.5s.4.5.6.7c2.1 2.1 4.9 3.3 8 3.3.6 0 1.1-.1 1.6-.2-.1.5-.2 1.1-.2 1.6 0 3 1.2 5.8 3.3 8 2.1 2.1 4.9 3.3 7.9 3.3.6 0 1.1-.1 1.6-.2-.1.5-.2 1.1-.2 1.6 0 3 1.2 5.8 3.3 8 1.7 1.7 4 2.8 6.4 3.1.3 2.4 1.3 4.7 3.1 6.5l3.2 3.2c4.4 4.4 11.5 4.4 15.9 0 2.6-2.6 3.6-6.2 3.1-9.6 3.4.5 7-.5 9.6-3.1 2.6-2.6 3.6-6.2 3.1-9.6 3.4.5 7-.5 9.6-3.1s3.6-6.2 3.1-9.6c3.4.5 7-.5 9.6-3.1.1-.1.1-.2.2-.2l18.9-18.9c15-15.1 15-39.4.1-54.3zM59.4 89.8C66 83.2 74.6 80 83.3 80s17.3 3.3 23.9 9.8l7.7 7.7v.1l8.7 8.7c1.8 1.8 2.3 4.5 1.6 6.8-.3 1-.8 1.9-1.6 2.7-1.3 1.3-3 2-4.8 2-1.7 0-3.5-.7-4.8-2l-7.9-7.9-3.2-3.2c-2.6 2.6-6 3.9-9.4 3.9-3.4 0-6.9-1.3-9.5-3.9l-3.5-3.5-3.2 3.2 3.5 3.5c3.4 3.4 7.9 5.2 12.7 5.2 3.2 0 6.3-.9 9-2.5l3 3-30.2 30.2c-1.8 1.8-2.8 4-3.1 6.4l-12.8-12.8c-13.1-13-13.1-34.5 0-47.6zm42.8 88.4c-.3-2 .3-4.1 1.8-5.7l28.9-28.9c.9-.9.9-2.3 0-3.2-.9-.9-2.3-.9-3.2 0l-28.9 28.9c-1.3 1.3-3 2-4.8 2-1.7 0-3.5-.7-4.8-2-2.6-2.6-2.6-6.9 0-9.5l28.9-28.9c.9-.9.9-2.3 0-3.2-.9-.9-2.3-.9-3.2 0L88 156.6c-1.3 1.3-3 2-4.8 2-1.7 0-3.5-.7-4.8-2-2.6-2.6-2.6-6.9 0-9.5l30.2-30.2 2.1 2.1c2 2 4.6 3.1 7.4 3.2h.6c3 0 5.8-1.2 8-3.3 2.1-2.1 3.3-4.9 3.3-8s-1.2-5.8-3.3-8l-2.1-2.1 11.2-11.2c6.6-6.6 15.2-9.8 23.9-9.8s17.3 3.3 23.9 9.8c9.8 9.8 12.3 24.1 7.5 36.3-.9 2.4-2.2 4.7-3.7 6.8-1.1 1.6-2.4 3.2-3.8 4.6l-12.8 12.8c-.3-2.3-1.3-4.6-3.1-6.4l-3.2-3.2c-4.4-4.4-11.5-4.4-15.9 0-2.6 2.6-3.6 6.2-3.1 9.6-3.4-.5-7 .5-9.6 3.1-2.6 2.6-3.6 6.2-3.1 9.6-3.4-.5-7 .5-9.6 3.1-2.6 2.6-3.6 6.2-3.1 9.6-3.4-.5-7 .5-9.6 3.1-1.4 1.4-2.3 3.1-2.8 4.9-.3-.1-.7-.1-1-.2-.7-.2-1.3-.6-1.9-1.1-.2-.2-.4-.2-.6-.4-1.3-.8-1.8-2.2-2-3.6zm14.5 16.7l-3.2-3.2c-2.6-2.6-2.6-6.9 0-9.5 2.6-2.6 6.9-2.6 9.5 0l3.2 3.2c2.6 2.6 2.6 6.9 0 9.5s-6.9 2.6-9.5 0zm12.7-12.8l-3.2-3.2c-2.6-2.6-2.6-6.9 0-9.5 2.6-2.6 6.9-2.6 9.5 0l3.2 3.2c2.6 2.6 2.6 6.9 0 9.5-2.5 2.6-6.8 2.6-9.5 0zm22.3-12.7c-2.6 2.6-6.9 2.6-9.5 0l-3.2-3.2c-2.6-2.6-2.6-6.9 0-9.5s6.9-2.6 9.5 0l3.2 3.2c2.6 2.6 2.6 6.9 0 9.5zm3.2-12.7l-3.2-3.2c-2.6-2.6-2.6-6.9 0-9.5s6.9-2.6 9.5 0l3.2 3.2c2.6 2.6 2.6 6.9 0 9.5s-6.9 2.6-9.5 0z"/><path class="st4" d="M164.4 147.1l-3.2-3.2c-2.6-2.6-6.9-2.6-9.5 0s-2.6 6.9 0 9.5l3.2 3.2c2.6 2.6 6.9 2.6 9.5 0s2.7-6.9 0-9.5zm-12.7 12.7l-3.2-3.2c-2.6-2.6-6.9-2.6-9.5 0s-2.6 6.9 0 9.5l3.2 3.2c2.6 2.6 6.9 2.6 9.5 0 2.6-2.5 2.6-6.8 0-9.5zM139 172.6l-3.2-3.2c-2.6-2.6-6.9-2.6-9.5 0-2.6 2.6-2.6 6.9 0 9.5l3.2 3.2c2.6 2.6 6.9 2.6 9.5 0 2.6-2.6 2.6-6.9 0-9.5zm-12.7 22.3c2.6-2.6 2.6-6.9 0-9.5l-3.2-3.2c-2.6-2.6-6.9-2.6-9.5 0-2.6 2.6-2.6 6.9 0 9.5l3.2 3.2c2.5 2.6 6.8 2.6 9.5 0z"/></svg>