<svg id="Layer_1" xmlns="http://www.w3.org/2000/svg" viewBox="0 0 37.8917351 38.8634033"><style>.st0{fill:none}.st1{fill:#010101}.st2{fill:#fff}.st3{fill:#c7e8eb}.st4{fill:#61c7cb}</style><ellipse transform="rotate(-45.004 .6 14.416)" class="st0" cx=".6" cy="14.416" rx=".299" ry=".299"/><path class="st0" d="M15.895 33.2c.138.325.214.682.214 1.056a2.7 2.7 0 0 0-.214-1.056zm5.272-5.944zm.809 2.699zm-6.986-1.132zm-8.733-1.567zm14.584-8.335c0 .006.003.01.003.016v3.79h1.073v-3.806H20.84zm-2.997.016h2v3.791h-2z"/><path class="st1" d="M34.594 22.727h-4.61V12.97a1 1 0 0 0-1-1h-6.067a.975.975 0 0 0-.572.202L19.937 7.83c1.672-.48 2.907-2.006 2.907-3.83 0-2.206-1.794-4-4-4-2.205 0-4 1.794-4 4 0 1.824 1.235 3.35 2.908 3.83l-5.328 9.606a1 1 0 0 0 .875 1.485h3.548c0 .006-.003.01-.003.016v3.79h-6.75a.5.5 0 1 0 0 1h24.5a.5.5 0 1 0 0-1zM15.844 4a3 3 0 1 1 6 0 3 3 0 0 1-6 0zm2 5.724l.959-1.728c.014 0 .027.004.041.004s.027-.004.042-.004l3.03 5.466v4.459H13.3l4.545-8.197zm0 13.003v-3.79h2v3.79h-2zm3 0v-3.79c0-.006-.003-.01-.003-.016h1.076v3.806h-1.073zm2.073 0V12.97h6.066v9.757h-6.066z"/><path class="st2" d="M21.917 17.921v-.852l-4.073-7.345-4.545 8.197z"/><path class="st3" d="M21.917 13.462l-3.031-5.466c-.015 0-.028.004-.042.004s-.027-.004-.041-.004l-.959 1.728 4.073 7.345v-3.607z"/><circle class="st4" cx="18.844" cy="4" r="3"/><path class="st4" d="M22.917 12.97h6.066v9.757h-6.066zM5.935 30.423a1.597 1.597 0 0 0 1.6-1.6 1.595 1.595 0 0 0-1.278-1.567 1.6 1.6 0 1 0-.322 3.167z"/><path class="st2" d="M5.255 31.633zm0 0c-.128.034-.257.067-.376.118a2.73 2.73 0 0 0-1.664 2.505v3.607h4.08v-3.607c0-1.26-.872-2.317-2.04-2.623z"/><path class="st1" d="M7.494 30.89a2.589 2.589 0 0 0 1.04-2.067c0-1.433-1.166-2.6-2.6-2.6s-2.6 1.167-2.6 2.6c0 .847.413 1.592 1.041 2.067a3.717 3.717 0 0 0-2.16 3.366v3.607a1 1 0 0 0 1 1h5.44a1 1 0 0 0 1-1v-3.607a3.717 3.717 0 0 0-2.16-3.366zm-1.56-3.667a1.597 1.597 0 0 1 1.6 1.6 1.595 1.595 0 0 1-1.277 1.568 1.6 1.6 0 1 1-.322-3.167zm2.72 10.64h-5.44v-3.607a2.73 2.73 0 0 1 1.665-2.505c.12-.051.248-.084.376-.118a2.7 2.7 0 0 1 .259-.054 2.36 2.36 0 0 1 .42-.043 2.728 2.728 0 0 1 2.72 2.72v3.607z"/><path class="st3" d="M5.935 31.536a3.408 3.408 0 0 0-.68.097 2.723 2.723 0 0 1 2.04 2.623v3.607h1.36v-3.607a2.728 2.728 0 0 0-2.72-2.72z"/><path class="st4" d="M13.39 30.423a1.598 1.598 0 0 0 .895-2.927 1.6 1.6 0 1 0-.895 2.927z"/><path class="st2" d="M12.71 31.633zm0 0a2.723 2.723 0 0 0-2.04 2.623v3.607h4.08v-3.607c0-1.26-.873-2.317-2.04-2.623z"/><path class="st1" d="M14.95 30.89a2.589 2.589 0 0 0 1.04-2.067c0-1.433-1.167-2.6-2.6-2.6s-2.6 1.167-2.6 2.6c0 .847.412 1.592 1.04 2.067a3.717 3.717 0 0 0-2.16 3.366v3.607a1 1 0 0 0 1 1h5.44a1 1 0 0 0 1-1v-3.607a3.717 3.717 0 0 0-2.16-3.366zm-1.56-3.667a1.598 1.598 0 0 1 .895 2.927 1.6 1.6 0 1 1-.895-2.927zm2.72 10.64h-5.44v-3.607c0-1.26.872-2.317 2.04-2.623a2.7 2.7 0 0 1 .259-.054 2.362 2.362 0 0 1 .967.013 2.734 2.734 0 0 1 2.173 2.664v3.607z"/><path class="st3" d="M15.895 33.2a2.734 2.734 0 0 0-2.505-1.664 3.41 3.41 0 0 0-.68.097 2.723 2.723 0 0 1 2.04 2.623v3.607h1.36v-3.607a2.7 2.7 0 0 0-.215-1.056z"/><path class="st4" d="M20.844 30.423a1.597 1.597 0 0 0 1.6-1.6 1.595 1.595 0 0 0-1.277-1.567 1.6 1.6 0 1 0-.322 3.167z"/><path class="st2" d="M20.164 31.633zm0 0c-.128.034-.256.067-.376.118a2.73 2.73 0 0 0-1.664 2.505v3.607h4.08v-3.607c0-1.26-.872-2.317-2.04-2.623z"/><path class="st1" d="M22.404 30.89a2.589 2.589 0 0 0 1.04-2.067c0-1.433-1.166-2.6-2.6-2.6s-2.6 1.167-2.6 2.6a2.59 2.59 0 0 0 1.04 2.067 3.717 3.717 0 0 0-2.16 3.366v3.607a1 1 0 0 0 1 1h5.44a1 1 0 0 0 1-1v-3.607a3.717 3.717 0 0 0-2.16-3.366zm-1.56-3.667a1.597 1.597 0 0 1 1.6 1.6 1.595 1.595 0 0 1-1.277 1.568 1.6 1.6 0 1 1-.322-3.167zm2.72 10.64h-5.44v-3.607a2.73 2.73 0 0 1 1.664-2.505c.12-.051.248-.084.376-.118.086-.022.171-.04.26-.054a2.36 2.36 0 0 1 .42-.043 2.728 2.728 0 0 1 2.72 2.72v3.607z"/><path class="st3" d="M20.844 31.536a3.408 3.408 0 0 0-.68.097 2.723 2.723 0 0 1 2.04 2.623v3.607h1.36v-3.607a2.728 2.728 0 0 0-2.72-2.72z"/><ellipse transform="rotate(-67.075 28.983 8.273)" class="st4" cx="28.983" cy="8.273" rx=".502" ry=".502"/><path class="st4" d="M.176 13.991a.6.6 0 1 0 .848.849.6.6 0 0 0-.848-.849zm.635.636a.299.299 0 1 1-.422-.423.299.299 0 0 1 .422.423zm4.155 4.119l.289.935.288-.935a.56.56 0 0 1 .37-.37l.935-.289-.935-.288a.56.56 0 0 1-.37-.37l-.288-.935-.289.935a.56.56 0 0 1-.37.37l-.935.288.935.289a.56.56 0 0 1 .37.37zm.289-.925a.266.266 0 1 1 0 .533.266.266 0 0 1 0-.533z"/><circle class="st2" cx="5.255" cy="18.087" r=".266"/><path class="st4" d="M7.101 11.986l.288.935.289-.935a.56.56 0 0 1 .37-.37l.935-.289-.935-.288a.56.56 0 0 1-.37-.37l-.289-.935-.288.935a.56.56 0 0 1-.37.37l-.935.288.935.289a.56.56 0 0 1 .37.37zm.288-.925a.266.266 0 1 1 0 .533.266.266 0 0 1 0-.533z"/><circle class="st2" cx="7.389" cy="11.327" r=".266"/></svg>