<svg id="Layer_1_copy" xmlns="http://www.w3.org/2000/svg" viewBox="0 0 76.1933594 63.7724609"><style>.st0{display:none}.st1{display:inline;fill:#a4cc39}.st2{fill:none}.st3{fill:#e0eba9}.st4{fill:#fff}.st5{fill:#a2cb3a}.st6{fill:#030303}.st7{fill:#010101}</style><g class="st0"><circle class="st1" cx="38.097" cy="35" r="54"/></g><path class="st2" d="M26.9 50.722a8.195 8.195 0 0 1-2.983-.939A13.935 13.935 0 0 1 15 53v8.772h22V54.4a8.124 8.124 0 0 1-2.91.555 8.258 8.258 0 0 1-7.19-4.232z"/><ellipse transform="rotate(-45.004 47.423 2.577)" class="st2" cx="47.423" cy="2.577" rx=".598" ry=".598"/><path class="st2" d="M50.72 46.348c.005.111.007.223.007.333 0 4.562-3.71 8.273-8.272 8.273A8.142 8.142 0 0 1 39 54.168v7.604h23.354v-8H55c-.616 0-1.198-.36-1.577-.846-.25-.321-.349-.736-.374-1.155-.066-.375-.065-.766.013-1.072l1.751-6.823c-1.083 1.185-2.486 2.073-4.093 2.472z"/><path class="st3" d="M7.764 29.443zM5.315 46.064zm14.23-3.564c0-1.556.445-3.058 1.26-4.353A9.312 9.312 0 0 1 17.455 31c0-1.248.262-2.45.724-3.56A11.983 11.983 0 0 0 15 27c-2.7 0-5.184.903-7.19 2.408a12.01 12.01 0 0 1 3.19-1.71c4.658 1.648 8 6.079 8 11.302 0 3.54-1.559 6.693-4 8.886V51c2.722 0 5.223-.917 7.237-2.444-1.64-1.513-2.692-3.655-2.692-6.056zM4.344 33.496zM7.81 48.59A11.92 11.92 0 0 0 13 50.82v-1.467c-.636.369-1.297.7-2 .95a12.01 12.01 0 0 1-3.19-1.712zm-4.673-7.874zm1.11 3.586zm.976 1.638zM3 39zm.648-3.864zm-.456 1.784zm.39 5.765z"/><path class="st4" d="M19 39c0-5.223-3.342-9.654-8-11.303a12.01 12.01 0 0 0-3.19 1.711l-.046.035a12.065 12.065 0 0 0-2.45 2.493c-.03.04-.062.08-.091.123a11.96 11.96 0 0 0-.879 1.437c-.034.066-.064.134-.097.201-.23.464-.43.944-.6 1.44-.02.06-.045.117-.065.177a11.88 11.88 0 0 0-.39 1.606c-.021.12-.038.241-.055.363C3.056 37.845 3 38.415 3 39s.056 1.154.137 1.716a11.88 11.88 0 0 0 .446 1.969c.019.06.044.118.065.178.169.495.37.976.6 1.439.032.067.062.135.096.202.26.5.553.98.879 1.437.03.042.061.081.092.123a12.065 12.065 0 0 0 2.45 2.493l.045.034A12.01 12.01 0 0 0 11 50.302c.703-.249 1.364-.58 2-.95V42.87l-4.555-3.037a1 1 0 0 1 1.11-1.664L13 40.465V33a1 1 0 1 1 2 0v14.886c2.441-2.193 4-5.345 4-8.886z"/><path class="st5" d="M47.534 50.337A1.98 1.98 0 0 1 47 48.999c0-.994.739-1.782 1.689-1.937.008-.128.038-.25.038-.38a6.23 6.23 0 0 0-.396-2.131c.133.008.26.04.396.04 3.236 0 5.868-2.46 6.206-5.605A1.993 1.993 0 0 1 53 36.999a1.99 1.99 0 0 1 1.14-1.788 6.47 6.47 0 0 0-.768-1.075C54.373 33.024 55 31.568 55 29.954c0-2.044-.992-3.841-2.505-4.987.248-.736.414-1.51.414-2.331a7.318 7.318 0 0 0-7.318-7.318c-.39 0-.766.056-1.14.115-.04-.313-.123-.61-.2-.908-.346.282-.77.475-1.25.475A2 2 0 0 1 41 13c0-.856.542-1.573 1.298-1.859-1.31-1.287-3.085-2.096-5.07-2.096-2.068 0-3.914.872-5.238 2.253.593.347 1.01.964 1.01 1.701a2 2 0 0 1-2 2c-.974 0-1.747-.71-1.926-1.631a6.046 6.046 0 0 0-1.256-.141 6.273 6.273 0 0 0-6.273 6.273c0 1.718.731 3.234 1.854 4.363.362-.51.928-.864 1.601-.864a2 2 0 1 1-2 2c0-.1.043-.186.057-.283-2.151 1.273-3.602 3.602-3.602 6.284a7.313 7.313 0 0 0 4.378 6.693c-1.386 1.15-2.288 2.865-2.288 4.807 0 1.977.933 3.719 2.363 4.868.318-.214.68-.369 1.092-.369.993 0 1.78.736 1.937 1.684.29.042.58.09.881.09.128 0 .247-.03.373-.038.853 2.45 3.159 4.22 5.9 4.22 1.06 0 2.038-.291 2.909-.76V51a2 2 0 0 1 0-4V35.306l-6.64-5.54a1 1 0 0 1 1.28-1.535l5.36 4.47V27a2 2 0 0 1 0-4v-2a1 1 0 1 1 2 0v22.586l4.735-4.735A2 2 0 0 1 43 39a2 2 0 1 1 2-2c0 .26-.057.505-.148.734l3.441-3.441a1 1 0 1 1 1.414 1.414l-10 10A.997.997 0 0 1 39 46v5.876c.991.668 2.168 1.078 3.455 1.078 2.096 0 3.94-1.038 5.079-2.617zM31 34.999a2 2 0 1 1 0 4 2 2 0 0 1 0-4zm18-8a2 2 0 1 1 0-4 2 2 0 0 1 0 4z"/><circle class="st4" cx="31" cy="36.999" r="2"/><path class="st4" d="M43 35a2 2 0 1 0 0 4c.26 0 .506-.058.735-.149l1.117-1.117a2 2 0 0 0 .149-.735 2 2 0 0 0-2-2zm10 2c0 1.08.861 1.948 1.933 1.986.024-.223.067-.44.067-.668 0-1.139-.324-2.19-.86-3.107A1.99 1.99 0 0 0 53 36.999z"/><circle class="st4" cx="49" cy="24.999" r="2"/><path class="st4" d="M39 24.996v.006V25zM35 25a2 2 0 0 0 2 2v-4a2 2 0 0 0-2 2zm-10 2a2 2 0 1 0 0-4c-.673 0-1.239.353-1.601.863.146.146.274.31.434.443a7.31 7.31 0 0 0-.776.41c-.014.097-.057.183-.057.283a2 2 0 0 0 2 2zm6-12a2 2 0 0 0 2-2c0-.738-.417-1.355-1.01-1.702a7.367 7.367 0 0 0-1.593 2.497 6.43 6.43 0 0 0-1.323-.427C29.253 14.29 30.026 15 31 15zm10-2a2 2 0 0 0 2 2c.481 0 .905-.193 1.25-.475a7.31 7.31 0 0 0-1.952-3.384A1.988 1.988 0 0 0 41 12.999zm-2 35.996v.006V49zM35 49a2 2 0 0 0 2 2v-4a2 2 0 0 0-2 2zm12 0c0 .518.21.981.534 1.337a6.217 6.217 0 0 0 1.155-3.275c-.95.155-1.689.943-1.689 1.937zm-22-2c-.412 0-.774.154-1.092.368a6.201 6.201 0 0 0 3.029 1.315C26.78 47.735 25.993 47 25 47z"/><path class="st6" d="M75.193 61.772h-10.84v-8h6.859c.626 0 1.216-.466 1.594-.965.235-.31.332-.708.361-1.111a2.41 2.41 0 0 0-.032-1.052l-8.559-29.756c-.243-.864-1.03-1.116-1.925-1.116h-.028c-.453 0-.876.062-1.213.234-.006.003-.01.01-.016.013-.16.084-.303.19-.417.332-.04.049-.056.125-.09.182-.064.112-.137.215-.174.359l-7.651 29.807c-.078.306-.08.697-.013 1.072.025.419.124.834.374 1.155.379.486.96.846 1.577.846h7.354v8H39v-7.604a8.142 8.142 0 0 0 3.455.786c4.561 0 8.272-3.711 8.272-8.273 0-.11-.002-.222-.007-.333 1.607-.399 3.01-1.287 4.093-2.472l1.932-7.528a8.234 8.234 0 0 0-.9-2.212 8.18 8.18 0 0 0-1.103-9.834 8.511 8.511 0 0 0 .167-1.666c0-5-3.958-9.093-8.906-9.31-1.27-3.684-4.765-6.281-8.776-6.281-3.2 0-6.16 1.684-7.846 4.334a8.067 8.067 0 0 0-1.563-.152c-4.561 0-8.273 3.711-8.273 8.273 0 1.555.445 3.057 1.26 4.353a9.317 9.317 0 0 0-1.63 1.783A13.952 13.952 0 0 0 15 25C7.28 25 1 31.28 1 39c0 7.038 5.227 12.864 12 13.84v8.932H1.193a1 1 0 1 0 0 2h74a1 1 0 1 0 0-2zM14 32a1 1 0 0 0-1 1v7.465l-3.445-2.297a1.001 1.001 0 0 0-1.11 1.664L13 42.869v7.951a11.92 11.92 0 0 1-5.19-2.23l-.046-.033a12.047 12.047 0 0 1-2.45-2.493c-.03-.042-.062-.081-.091-.123a11.985 11.985 0 0 1-.879-1.437c-.034-.067-.064-.135-.097-.202-.23-.464-.43-.943-.6-1.439-.02-.06-.045-.118-.065-.178a11.944 11.944 0 0 1-.39-1.606c-.021-.12-.038-.241-.055-.363C3.056 40.154 3 39.584 3 39s.056-1.155.137-1.717a11.944 11.944 0 0 1 .446-1.969c.019-.06.044-.118.065-.178.168-.495.37-.975.6-1.439.032-.067.062-.135.096-.201.26-.502.554-.98.879-1.437.03-.042.061-.082.092-.123a12.047 12.047 0 0 1 2.45-2.493l.045-.035A11.93 11.93 0 0 1 15 27c1.102 0 2.165.16 3.18.44a9.257 9.257 0 0 0-.725 3.56 9.31 9.31 0 0 0 3.35 7.147 8.162 8.162 0 0 0-1.26 4.353c0 2.401 1.052 4.543 2.692 6.056A11.931 11.931 0 0 1 15 51V33a1 1 0 0 0-1-1zm23 29.772H15V53c3.386 0 6.494-1.21 8.917-3.217.908.489 1.913.82 2.983.939a8.258 8.258 0 0 0 7.19 4.232c1.003 0 1.984-.2 2.91-.555v7.373zM38 20a1 1 0 0 0-1 1v11.703l-5.36-4.47a1 1 0 0 0-1.281 1.535L37 35.307v16.888c-.87.469-1.85.76-2.91.76-2.74 0-5.046-1.77-5.9-4.22-.125.007-.244.037-.372.037-.302 0-.59-.047-.881-.089a6.201 6.201 0 0 1-3.03-1.315c-1.429-1.15-2.362-2.891-2.362-4.868 0-1.942.902-3.656 2.288-4.807A7.313 7.313 0 0 1 19.455 31c0-2.682 1.45-5.01 3.602-6.284a7.31 7.31 0 0 1 .776-.41c-.16-.132-.288-.297-.434-.443-1.123-1.13-1.854-2.645-1.854-4.363a6.273 6.273 0 0 1 6.273-6.273c.432 0 .85.055 1.256.14.46.098.904.238 1.323.428a7.367 7.367 0 0 1 1.593-2.497c1.324-1.38 3.17-2.253 5.237-2.253 1.986 0 3.761.81 5.07 2.096a7.31 7.31 0 0 1 1.953 3.384c.078.299.162.595.202.908a7.285 7.285 0 0 1 1.139-.115 7.318 7.318 0 0 1 7.318 7.318c0 .82-.166 1.595-.414 2.331C54.008 26.113 55 27.91 55 29.954c0 1.614-.627 3.07-1.628 4.182.295.328.545.693.768 1.075a6.12 6.12 0 0 1 .86 3.107c0 .229-.043.445-.067.668-.338 3.146-2.97 5.605-6.206 5.605-.136 0-.263-.032-.396-.04.242.668.396 1.379.396 2.13 0 .13-.03.253-.038.381a6.217 6.217 0 0 1-1.155 3.275c-1.14 1.58-2.983 2.617-5.08 2.617-1.286 0-2.463-.41-3.454-1.078V46a.997.997 0 0 0 .707-.293l10-10a1 1 0 1 0-1.414-1.414l-3.44 3.44-1.118 1.118L39 43.586V21a1 1 0 0 0-1-1zm22.938 31.772H55l1.589-6.23 1.213-4.757 1.214-4.758 1.213-4.757 1.249-4.897 1.173-4.6L70.99 51l.22.772H60.939z"/><path class="st4" d="M62.65 21.772l-1.172 4.601 7.247 25.4h2.487z"/><path class="st5" d="M61.478 26.373l-1.25 4.897 5.851 20.502h2.646l-.22-.772z"/><path class="st4" d="M60.229 31.27l-1.213 4.757 4.492 15.745h2.571z"/><path class="st5" d="M59.016 36.027l-1.214 4.758 3.136 10.987h2.57z"/><path class="st4" d="M57.802 40.785l-1.213 4.757 1.778 6.23h2.57z"/><path class="st5" d="M56.589 45.542L55 51.772h3.367z"/><path class="st7" d="M6.293 19.707a.997.997 0 0 0 1.414 0l6-6a1 1 0 1 0-1.414-1.414L7 17.586l-5.293-5.293a1 1 0 1 0-1.414 1.414l6 6zm12-12a.997.997 0 0 0 1.414 0l6-6A1 1 0 1 0 24.293.293L19 5.586 13.707.293a1 1 0 1 0-1.414 1.414l6 6z"/><ellipse transform="rotate(-67.077 50.723 10.293)" class="st5" cx="50.723" cy="10.293" rx=".61" ry=".61"/><path class="st5" d="M48.271 3.425a1.2 1.2 0 1 0-1.697-1.697 1.2 1.2 0 0 0 1.697 1.697zM47 2.155a.598.598 0 1 1 .846.845.598.598 0 0 1-.846-.846zM57 11l.577 1.87.576-1.87a1.12 1.12 0 0 1 .741-.741l1.87-.577-1.87-.577a1.12 1.12 0 0 1-.74-.74l-.577-1.87L57 8.365a1.12 1.12 0 0 1-.74.74l-1.87.577 1.87.577c.353.11.63.386.74.74zm.577-1.85a.533.533 0 1 1 0 1.065.533.533 0 0 1 0-1.066z"/><circle class="st4" cx="57.577" cy="9.682" r=".533"/></svg>