<svg id="Layer_1" xmlns="http://www.w3.org/2000/svg" viewBox="0 0 243 243"><style>.st0{fill:#a4cc39}.st1{fill:none}.st2{fill:#fff}.st3{fill:#010101}.st4{fill:#e0eba9}</style><circle class="st0" cx="121.5" cy="121.5" r="121.5"/><path class="st1" d="M117.6 90.8l.2.2c-.1 0-.1-.1-.2-.2zm1.2 1.3l.3.3-.3-.3zm1.2 1.2l.1.1c-.1 0-.1 0-.1-.1zm.6.7l.1.1c-.1 0-.1-.1-.1-.1zm-4.9-4.9zm16.6-5.3c.2-.2.4-.3.7-.5-.2.1-.5.3-.7.5zm-21 1.5c.1.1.2.2.4.3-.2-.1-.3-.2-.4-.3zm2.4 2l.4.4c-.1-.1-.2-.3-.4-.4zm16.3-1.7c.1-.1.3-.2.4-.3-.1.1-.3.2-.4.3zm-2.6 2.1c.2-.1.3-.3.5-.4-.1.1-.3.3-.5.4zm-21.5-6.3c.1 0 .1.1.2.1-.1 0-.1-.1-.2-.1zm19.7 8c.1-.1.3-.2.4-.4-.1.2-.3.3-.4.4zm-1.8 1.7l.3-.3-.3.3zm-2.8 3l.1-.1c-.1 0-.1.1-.1.1zm.5-.6l.1-.1-.1.1zm1-1.1l.3-.3-.3.3zm-13.8-9.1c.2.1.4.3.6.4-.2-.1-.4-.2-.6-.4zm-51.2-1.9c.3-.3.7-.5 1-.8-.3.3-.6.6-1 .8zm6.4-4.3c.4-.2.9-.5 1.3-.7-.5.2-.9.5-1.3.7zm6.3-2.8c.5-.1.9-.3 1.4-.4-.5.2-1 .3-1.4.4zM67 75.5c.5-.2.9-.4 1.4-.6-.5.3-.9.4-1.4.6zm-6.3 3.6c.4-.3.8-.5 1.3-.8-.5.2-.9.5-1.3.8zm-15.4 33.6c-.1-1.4-.2-2.7-.2-4.1 0 1.4.1 2.8.2 4.1zm57.3-33.4c.2.1.5.3.7.4-.2-.1-.4-.2-.7-.4z"/><ellipse transform="rotate(-45.004 92.137 42.738)" class="st1" cx="92.1" cy="42.7" rx="1.3" ry="1.3"/><path class="st1" d="M76.4 73c.4-.1.9-.1 1.3-.1-.4-.1-.8 0-1.3.1zm19.3 2.9c.3.1.5.2.8.3-.3-.1-.6-.2-.8-.3zm3.9 1.8s.1 0 0 0c.1 0 0 0 0 0zm-7.3-3.1c.2.1.3.1.5.2-.2 0-.4-.1-.5-.2zm-11.9-1.9h-.9.9zm7.6.8c.3.1.6.1.8.2-.2-.1-.5-.1-.8-.2zm-3.7-.6c.3 0 .5.1.8.1-.3 0-.5-.1-.8-.1zm-26.7 70.7c-7-8.7-11.4-20-12.3-30.9.9 11 5.3 22.3 12.3 30.9 4.1 5 8.8 9.6 13.9 13.8-5.1-4.2-9.8-8.8-13.9-13.8zm138.9-34.9c0 1.3 0 2.7-.2 4.1.2-1.4.2-2.8.2-4.1zM184 143.6c-2.2 2.8-4.7 5.4-7.3 7.9-2.1 2-4.3 4-6.5 5.9 5-4.2 9.8-8.8 13.8-13.8 7-8.7 11.4-20 12.3-30.9-.4 5.3-1.7 10.6-3.7 15.8-2 5.5-5 10.6-8.6 15.1zm-.9-62.9c.3.3.7.5 1 .8-.3-.3-.7-.6-1-.8zm-3.4-2.4c.4.3.8.5 1.2.8-.4-.3-.8-.6-1.2-.8zm-37.6-.6c-.1 0-.1.1-.2.1 0 0 .1 0 .1-.1h.1zm-6.6 3.8c.1-.1.2-.1.3-.2-.1.1-.2.1-.3.2zm-60.9-8.3c-.4.1-.9.2-1.3.3.2 0 .3-.1.5-.1.2-.1.5-.1.8-.2zm101.9 3.2c.4.2.9.4 1.3.7-.5-.2-.9-.5-1.3-.7z"/><ellipse transform="rotate(-45.004 161.967 210.973)" class="st1" cx="162" cy="211" rx="1.3" ry="1.3"/><path class="st1" d="M167 73.2c.4.1.9.2 1.3.3-.4-.1-.8-.2-1.3-.3zm-14.2.5c.3-.1.6-.1.9-.2-.4.1-.6.1-.9.2zm3.8-.7c.3 0 .5-.1.8-.1-.3 0-.6.1-.8.1zm16.7 2c.4.2.9.3 1.3.5-.4-.2-.9-.3-1.3-.5zm-35 4.8c.3-.2.5-.3.8-.5-.3.2-.6.3-.8.5zm10.5-5c.2-.1.4-.1.6-.2-.2.1-.4.2-.6.2zm12.4-2.1h-.3 1.1-.8zm8.9 1.2c.4.1.9.3 1.3.4-.4-.1-.8-.2-1.3-.4zm-6.2-1.1c.4 0 .8.1 1.3.1-.4 0-.8-.1-1.3-.1zm-18.7 3.4c.3-.1.6-.2.8-.4-.3.2-.6.3-.8.4z"/><path class="st2" d="M94.1 44.7c1.1-1.1 1.1-2.8 0-3.8s-2.8-1.1-3.8 0-1.1 2.8 0 3.8 2.7 1 3.8 0zm-2.9-2.9c.5-.5 1.4-.5 1.9 0s.5 1.4 0 1.9-1.4.5-1.9 0-.5-1.4 0-1.9zm68.9 167.3c-1.1 1.1-1.1 2.8 0 3.8 1.1 1.1 2.8 1.1 3.8 0s1.1-2.8 0-3.8-2.8-1.1-3.8 0zm2.8 2.8c-.5.5-1.4.5-1.9 0s-.5-1.4 0-1.9 1.4-.5 1.9 0 .6 1.4 0 1.9z"/><ellipse transform="rotate(-67.077 73.37 52.208)" class="st2" cx="73.4" cy="52.2" rx="1.4" ry="1.4"/><ellipse transform="rotate(-67.077 188.121 171.254)" class="st2" cx="188.1" cy="171.2" rx="1.4" ry="1.4"/><ellipse transform="rotate(-67.077 39.346 175.504)" class="st2" cx="39.3" cy="175.5" rx="1.4" ry="1.4"/><path class="st2" d="M125.8 63.8l1.3 4.2 1.3-4.2c.2-.8.9-1.4 1.7-1.7l4.2-1.3-4.2-1.3c-.8-.2-1.4-.9-1.7-1.7l-1.3-4.2-1.3 4.2c-.2.8-.9 1.4-1.7 1.7l-4.2 1.3 4.2 1.3c.8.2 1.4.9 1.7 1.7zm1.3-4.2c.7 0 1.2.5 1.2 1.2s-.5 1.2-1.2 1.2-1.2-.5-1.2-1.2.5-1.2 1.2-1.2z"/><circle class="st0" cx="127.1" cy="60.8" r="1.2"/><path class="st2" d="M141.1 202.8l-1-3.4-1 3.4c-.2.6-.7 1.1-1.3 1.3l-3.4 1 3.4 1c.6.2 1.1.7 1.3 1.3l1 3.4 1-3.4c.2-.6.7-1.1 1.3-1.3l3.4-1-3.4-1c-.6-.2-1.1-.7-1.3-1.3zm-1.1 3.4c-.5 0-1-.4-1-1s.4-1 1-1c.5 0 1 .4 1 1s-.4 1-1 1z"/><circle class="st0" cx="140" cy="205.2" r="1"/><path class="st2" d="M160 48.8l1 3.4 1-3.4c.2-.6.7-1.1 1.3-1.3l3.4-1-3.4-1c-.6-.2-1.1-.7-1.3-1.3l-1-3.4-1 3.4c-.2.6-.7 1.1-1.3 1.3l-3.4 1 3.4 1c.6.2 1.1.7 1.3 1.3zm1-3.4c.5 0 1 .4 1 1s-.4 1-1 1-1-.4-1-1 .5-1 1-1z"/><circle class="st0" cx="161" cy="46.4" r="1"/><path class="st2" d="M44.9 155l-.8-2.8-.8 2.8c-.2.5-.6.9-1.1 1.1l-2.8.8 2.8.8c.5.2.9.6 1.1 1.1l.8 2.8.8-2.8c.2-.5.6-.9 1.1-1.1l2.8-.8-2.8-.8c-.5-.2-.9-.6-1.1-1.1zm-.9 2.7c-.4 0-.8-.4-.8-.8s.4-.8.8-.8.8.4.8.8c0 .5-.3.8-.8.8z"/><circle class="st0" cx="44" cy="156.9" r=".8"/><path class="st2" d="M58 184.6l-.6-2-.6 2c-.1.4-.4.7-.8.8l-2 .6 2 .6c.4.1.7.4.8.8l.6 2 .6-2c.1-.4.4-.7.8-.8l2-.6-2-.6c-.4-.1-.7-.4-.8-.8zm-.7 2c-.3 0-.6-.3-.6-.6s.3-.6.6-.6.6.3.6.6-.2.6-.6.6z"/><circle class="st0" cx="57.3" cy="186" r=".6"/><path class="st2" d="M177.3 190.8l-1.3-4.2-1.3 4.2c-.2.8-.9 1.4-1.7 1.7l-4.2 1.3 4.2 1.3c.8.2 1.4.9 1.7 1.7l1.3 4.2 1.3-4.2c.2-.8.9-1.4 1.7-1.7l4.2-1.3-4.2-1.3c-.8-.3-1.4-.9-1.7-1.7zM176 195c-.7 0-1.2-.5-1.2-1.2s.5-1.2 1.2-1.2 1.2.5 1.2 1.2c0 .6-.5 1.2-1.2 1.2z"/><circle class="st0" cx="176" cy="193.8" r="1.2"/><path class="st2" d="M28.4 141.5l-.7-2.3-.7 2.3c-.1.4-.5.8-.9.9l-2.3.7 2.3.7c.4.1.8.5.9.9l.7 2.3.7-2.3c.1-.4.5-.8.9-.9l2.3-.7-2.3-.7c-.5-.1-.8-.4-.9-.9zm-.7 2.3c-.4 0-.7-.3-.7-.7s.3-.7.7-.7c.4 0 .7.3.7.7s-.4.7-.7.7z"/><circle class="st0" cx="27.7" cy="143.1" r=".7"/><path class="st2" d="M201.1 177.8l-.7-2.3-.7 2.3c-.1.4-.5.8-.9.9l-2.3.7 2.3.7c.4.1.8.5.9.9l.7 2.3.7-2.3c.1-.4.5-.8.9-.9l2.3-.7-2.3-.7c-.4-.1-.8-.5-.9-.9zm-.7 2.3c-.4 0-.7-.3-.7-.7 0-.4.3-.7.7-.7.4 0 .7.3.7.7 0 .4-.3.7-.7.7z"/><circle class="st0" cx="200.4" cy="179.4" r=".7"/><path class="st2" d="M184 143.6c3.6-4.5 6.5-9.6 8.6-15.1-6-1.7-14.1-4.2-17.1-6.2-5-3.3-6.7-5.7-12 0 0 0-.7 2.7 8 8 5 3.1 5.5 13.2 5.1 21.2 2.7-2.5 5.2-5.1 7.4-7.9zm-32.4 26.6s-4.8-22-20-24c-12.6-1.7-11.6-15.6-4-24 7.7-8.3 15.6 2 24-4 8.3-6 4-8 4-8s-4.3-5.3 0-8-9.6-1.3-16-4c-6.3-2.7-1.7 13.6-12 12-10.3-1.7-3.3-14.3 0-16 3.3-1.7 12-12 12-12l2.3-4.7s-.1 0-.1.1c-1 .5-1.9 1-2.8 1.5-.3.2-.5.3-.8.5-.9.5-1.7 1-2.5 1.6-.1.1-.2.1-.3.2-.9.6-1.7 1.2-2.5 1.8-.2.2-.4.3-.7.5-.7.5-1.3 1-1.9 1.5-.1.1-.3.2-.4.3-.7.6-1.4 1.2-2 1.7-.2.1-.3.3-.5.4-.5.4-1 .9-1.4 1.3l-.4.4c-.5.5-1 1-1.5 1.4l-.3.3-1 1-.3.3c-.3.3-.6.7-.9.9 0 .1-.1.1-.1.1l-.5.5-.1.1-.2.2-.2-.2-.1-.1c-.1-.1-.3-.3-.5-.6l-.1-.1c-.2-.3-.5-.6-.9-.9l-.3-.3c-.3-.3-.7-.7-1-1.1l-.2-.2c-.5-.5-1-.9-1.5-1.5-.1-.1-.2-.2-.4-.3-.5-.4-1-.9-1.5-1.4-.1-.1-.3-.2-.4-.4-.7-.6-1.4-1.2-2.1-1.7-.1-.1-.2-.2-.4-.3-.6-.5-1.3-1-2-1.6-.2-.1-.4-.3-.6-.4-.8-.6-1.7-1.2-2.6-1.8-.1 0-.1-.1-.2-.1-.8-.6-1.7-1.1-2.6-1.6-.2-.1-.5-.3-.7-.4-.9-.5-1.9-1.1-2.9-1.6 0 0-.1 0-.1-.1-1-.5-2.1-1-3.1-1.5-.3-.1-.5-.2-.8-.3-.9-.4-1.9-.7-2.9-1.1-.2-.1-.3-.1-.5-.2-1.1-.4-2.3-.7-3.4-.9-.3-.1-.6-.1-.8-.2-1-.2-2-.4-2.9-.5-.3 0-.5-.1-.8-.1-1.2-.1-2.4-.2-3.6-.2h-1.1c-.6 0-1.2 0-1.8.1-.4 0-.9.1-1.3.1l-1.8.3c-.3.1-.6.1-.9.2 4.4 3.1 10.1 8.1 7.3 11.7-4.3 5.7-13.3 12.3-7.7 16.3 5.7 4 7-13.3 13.3-10.3s13.6 10.6 5 15.3c-8.7 4.7-12.3-.7-12 8.7.3 9.3.3 12.3-3 11.3s2-7.7-4.3-9.6c-6.3-2-10.6-2.7-11.3 1.7-.7 4.3-6.3 0-7.3-1.7s-2 3.3-2.3 7c-.3 3.7-3.9 7.7 4.1 10.4s3.9 11.6 12.6 1.9c0 0 1.7-6.3 14.6-4.3 13 2 21.6 6 18.3 16-3.3 10-9.7 20.2-6.2 25.4 14.3 7.9 26 12.1 26 12.1s14.5-5.2 30.9-14.9l-.1.1z"/><path class="st3" d="M187.5 146.4c14.9-18.4 19.6-49.1 2.9-65.4-8.8-8.5-18.6-12.9-29.2-12.9-18.3 0-33.8 13-40.4 19.5-6.6-6.6-22.1-19.5-40.4-19.5-10.6.1-20.4 4.4-29.2 12.9-16.7 16.3-12 47 2.9 65.4 22.2 27.5 63.5 42.3 65.2 42.9.5.2 1 .3 1.5.3s1-.1 1.5-.3c1.8-.6 43-15.4 65.2-42.9zm-66.7 38.7s-11.8-4.2-26-12.1c-7.5-4.2-15.7-9.4-23.3-15.6-5.1-4.2-9.8-8.8-13.9-13.8-7-8.7-11.4-20-12.3-30.9-.1-1.4-.2-2.7-.2-4.1s.1-2.7.2-4c.2-2.6.7-5.2 1.5-7.6 1.5-4.9 4-9.3 7.6-12.8 1-1 2.1-2 3.1-2.8.3-.3.7-.5 1-.8.7-.5 1.4-1.1 2.1-1.6.4-.3.8-.5 1.3-.8.6-.4 1.3-.8 1.9-1.2.4-.2.9-.5 1.3-.7l1.8-.9c.5-.2.9-.4 1.4-.6.6-.2 1.2-.5 1.8-.6.5-.1.9-.3 1.4-.4.6-.2 1.2-.3 1.8-.4.4-.1.9-.2 1.3-.3l1.8-.3c.4-.1.9-.1 1.3-.1.6 0 1.2-.1 1.8-.1h1.2c1.2 0 2.4.1 3.6.2.3 0 .5.1.8.1 1 .1 2 .3 2.9.5.3.1.6.1.8.2 1.2.3 2.3.6 3.4.9.2.1.3.1.5.2 1 .3 1.9.7 2.9 1.1.3.1.5.2.8.3 1.1.5 2.1.9 3.1 1.5 0 0 .1 0 .1.1 1 .5 2 1 2.9 1.6.2.1.5.3.7.4.9.5 1.8 1.1 2.6 1.6.1 0 .1.1.2.1.9.6 1.8 1.2 2.6 1.8.2.1.4.3.6.4.7.5 1.4 1 2 1.6.1.1.2.2.4.3.7.6 1.4 1.2 2.1 1.7l.4.4c.5.5 1 .9 1.5 1.4.1.1.2.2.4.3.5.5 1.1 1 1.5 1.5l.2.2c.4.4.7.7 1 1.1l.3.3c.3.3.6.7.9.9l.1.1c.2.2.4.4.5.6l.1.1.2.2.2-.2.1-.1.5-.5c0-.1.1-.1.1-.1.2-.3.5-.6.9-.9l.3-.3 1-1 .3-.3c.5-.4 1-.9 1.5-1.4.1-.1.3-.2.4-.4.5-.4.9-.8 1.4-1.3.2-.1.3-.3.5-.4.6-.6 1.3-1.1 2-1.7.1-.1.3-.2.4-.3.6-.5 1.3-1 1.9-1.5.2-.2.4-.3.7-.5.8-.6 1.7-1.2 2.5-1.8.1-.1.2-.1.3-.2.8-.5 1.6-1 2.5-1.6.3-.2.5-.3.8-.5.9-.5 1.8-1 2.8-1.5.1 0 .1-.1.2-.1 1-.5 2-1 3.1-1.4.3-.1.6-.2.8-.4.9-.4 1.9-.7 2.8-1.1.2-.1.4-.1.6-.2 1.1-.4 2.2-.7 3.4-.9.3-.1.6-.1.9-.2 1-.2 1.9-.4 2.9-.5.3 0 .5-.1.8-.1 1.2-.1 2.4-.2 3.6-.2h1.2c.6 0 1.2 0 1.8.1.4 0 .8.1 1.3.1l1.8.3c.4.1.9.2 1.3.3.6.1 1.2.3 1.8.5.4.1.9.3 1.3.4.6.2 1.2.4 1.8.7.4.2.9.3 1.3.5.6.3 1.2.6 1.9.9.4.2.9.4 1.3.7.6.4 1.3.8 1.9 1.2.4.3.8.5 1.2.8.7.5 1.4 1 2.1 1.6.3.3.7.5 1 .8 1.1.9 2.1 1.8 3.2 2.8 3.6 3.5 6.1 7.9 7.6 12.8.7 2.4 1.2 5 1.5 7.6.1 1.3.2 2.6.2 4s0 2.7-.2 4.1c-.9 10.9-5.3 22.2-12.3 30.9-4.1 5-8.8 9.6-13.9 13.8-6 4.9-12.3 9.2-18.4 12.8-16.3 9.5-30.9 14.7-30.9 14.7z"/><path class="st4" d="M139.6 82.4s-8.7 10.3-12 12c-3.3 1.7-10.3 14.3 0 16 10.3 1.7 5.7-14.6 12-12 6.3 2.7 20.3 1.3 16 4-4.3 2.7 0 8 0 8s4.3 2-4 8-16.3-4.3-24 4c-7.7 8.3-8.7 22.3 4 24 15.2 2 20 24 20 24h.1c6.1-3.6 12.5-7.9 18.4-12.8 2.3-1.9 4.4-3.8 6.5-5.9.4-8-.1-18.2-5.1-21.2-8.7-5.3-8-8-8-8 5.3-5.7 7-3.3 12 0 3 2 11.2 4.5 17.1 6.2 2-5.1 3.3-10.5 3.7-15.8.1-1.4.2-2.7.2-4.1 0-1.3-.1-2.7-.2-4-.2-2.6-.7-5.2-1.5-7.6-1.5-4.9-4-9.3-7.6-12.8-1-1-2.1-2-3.2-2.8-.3-.3-.7-.5-1-.8-.7-.6-1.4-1.1-2.1-1.6-.4-.3-.8-.5-1.2-.8-.6-.4-1.3-.8-1.9-1.2-.4-.2-.9-.5-1.3-.7-.6-.3-1.2-.6-1.9-.9-.4-.2-.9-.4-1.3-.5-.6-.2-1.2-.5-1.8-.7-.4-.1-.9-.3-1.3-.4-.6-.2-1.2-.3-1.8-.5-.4-.1-.9-.2-1.3-.3l-1.8-.3c-.4-.1-.9-.1-1.3-.1-.6-.1-1.2-.1-1.8-.1h-1.1c-1.2 0-2.4.1-3.6.2-.3 0-.5.1-.8.1-1 .1-2 .3-2.9.5-.3.1-.6.1-.9.2-1.2.3-2.3.6-3.4.9-.2.1-.4.1-.6.2-1 .3-1.9.7-2.8 1.1-.3.1-.6.2-.8.4-1.1.5-2.1.9-3.1 1.4 0 0-.1 0-.1.1l-2.5 4.6zM101 147.6c3.3-10-5.3-14-18.3-16s-14.6 4.3-14.6 4.3c-8.7 9.6-4.6.7-12.6-1.9s-4.4-6.7-4.1-10.4c.3-3.7 1.3-8.7 2.3-7 1 1.7 6.7 6 7.3 1.7.7-4.3 5-3.7 11.3-1.7 6.3 2 1 8.7 4.3 9.6 3.3 1 3.3-2 3-11.3-.3-9.3 3.3-4 12-8.7 8.7-4.7 1.3-12.3-5-15.3s-7.7 14.3-13.3 10.3c-5.7-4 3.3-10.6 7.7-16.3 2.8-3.6-2.9-8.6-7.3-11.7-.2 0-.3.1-.5.1-.6.1-1.2.3-1.8.4-.5.1-.9.3-1.4.4l-1.8.6c-.5.2-.9.4-1.4.6l-1.8.9c-.4.2-.9.4-1.3.7-.6.4-1.3.8-1.9 1.2-.4.3-.8.5-1.3.8-.7.5-1.4 1-2.1 1.6-.3.3-.7.5-1 .8-1.1.9-2.1 1.8-3.1 2.8-3.6 3.5-6.1 7.9-7.6 12.8-.7 2.4-1.2 5-1.5 7.6-.1 1.3-.2 2.6-.2 4 0 1.3 0 2.7.2 4.1.9 10.9 5.3 22.2 12.3 30.9 4.1 5 8.8 9.6 13.9 13.8 7.6 6.2 15.8 11.4 23.3 15.6-3.4-5.1 3-15.3 6.3-25.3z"/></svg>