<svg id="Layer_1_copy" xmlns="http://www.w3.org/2000/svg" viewBox="0 0 108 108"><style>.st0{fill:#f8c02c}.st1{fill:#f7bf2d}.st2{fill:#fff}.st3{fill:#010101}</style><path class="st0" d="M54 107C24.8 107 1 83.2 1 54S24.8 1 54 1s53 23.8 53 53-23.8 53-53 53z"/><path class="st0" d="M54 2c28.7 0 52 23.3 52 52s-23.3 52-52 52S2 82.7 2 54 25.3 2 54 2m0-2C24.2 0 0 24.2 0 54s24.2 54 54 54 54-24.2 54-54S83.8 0 54 0z"/><ellipse transform="rotate(-45.004 75.753 61.969)" class="st1" cx="75.8" cy="62" rx=".6" ry=".6"/><path class="st2" d="M70.6 41.1c.3 0 .8 0 .8.1V33s-.6.1-.8.1c-4.8 0-8.7-4.4-9.1-10H33.4c-.4 5.6-4.3 10-9.1 10-.3 0-.8 0-.8-.1v8.1s.6-.1.8-.1c4.8 0 8.7 4.4 9.1 10h28.1c.4-5.5 4.3-9.9 9.1-9.9zm-22.5 5.2c-5.2 0-9.4-4.2-9.4-9.4s4.2-9.4 9.4-9.4 9.4 4.2 9.4 9.4-4.3 9.4-9.4 9.4z"/><path class="st0" d="M33.4 23.1h-10V33s.6.1.8.1c4.8 0 8.8-4.4 9.2-10zm37.2 10c.3 0 .8 0 .8-.1v-9.9h-10c.5 5.6 4.4 10 9.2 10zm-46.3 8c-.3 0-.8 0-.8.1v9.9h10c-.5-5.6-4.5-10-9.2-10zm37.2 10h10v-9.9s-.6-.1-.8-.1c-4.9 0-8.8 4.4-9.2 10zM48.8 37.3v2c.5-.2 1-.5 1-1.2-.2-.3-.5-.6-1-.8zm-2.4-2.7c0 .5.4.8 1.1 1v-2c-.7.1-1.1.4-1.1 1z"/><path class="st0" d="M48.1 27.6c-5.2 0-9.4 4.2-9.4 9.4s4.2 9.4 9.4 9.4 9.4-4.2 9.4-9.4-4.3-9.4-9.4-9.4zm.7 13.2v.3c0 1.1-1.4 1.1-1.4 0v-.2c-1-.1-1.7-.4-2.3-.9-.3-.3-.3-.8-.1-1.1.2-.2.6-.4 1-.1.3.2.8.4 1.4.5v-2.4c-1.4-.3-2.7-.7-2.5-2.6.1-1.4 1.3-2 2.5-2.2v-.2c0-1.1 1.4-1.1 1.4 0v.3c.5.1 1.1.2 1.5.5.9.6 0 1.8-.8 1.2-.2-.1-.4-.2-.7-.3v2.2c1.3.3 2.5.9 2.5 2.4 0 1.6-1.1 2.4-2.5 2.6z"/><path class="st3" d="M96.1 44.5c.1 0 .3.1.4.1-.1 0-.2 0-.4-.1zm-.5.1c.1 0 .2-.1.4-.1-.1 0-.2.1-.4.1zm1 .1l.3.3-.3-.3zm.3.5c0 .1.1.2.1.3 0-.1 0-.2-.1-.3zm-.9-.7zm.6.2c-.1 0-.1 0 0 0-.1 0-.1 0 0 0zm.3.4z"/><path class="st3" d="M97 45.5c0-.1 0-.2-.1-.3v-.1c-.1-.1-.2-.3-.3-.4h-.1c-.1-.1-.2-.1-.4-.1H96c-.1 0-.2 0-.4.1h-.1l-13.9 6.7c-.5.2-.7.8-.5 1.3.2.5.8.7 1.3.5l10.3-5-22.8 31.3-19.2-16.8c-.4-.4-1-.3-1.4.1l-24 25.5c-.4.4-.4 1 0 1.4.2.2.4.3.7.3.3 0 .5-.1.7-.3L50 64.9l19.3 16.9c.2.2.5.3.8.2s.5-.2.7-.4L94.7 49l-.9 12c0 .6.4 1 .9 1.1h.1c.5 0 1-.4 1-.9L97 45.5c0 .1 0 0 0 0zm-48.2-9.6v-2.2c.3.1.5.2.7.3.8.5 1.6-.6.8-1.2-.4-.3-1-.4-1.5-.5V32c0-1.1-1.4-1.1-1.4 0v.2c-1.3.2-2.4.9-2.5 2.2-.2 1.9 1.2 2.3 2.5 2.6v2.4c-.5-.1-1.1-.3-1.4-.5-.4-.3-.9-.1-1 .1-.2.3-.2.8.1 1.1.6.4 1.4.7 2.3.9v.2c0 1.1 1.4 1.1 1.4 0v-.3c1.4-.2 2.5-1.1 2.5-2.5 0-1.7-1.3-2.2-2.5-2.5zm-1.4-.3c-.6-.2-1.1-.4-1.1-1s.4-.9 1.1-1v2zm1.4 3.8v-2c.5.1.9.4 1 .8-.1.6-.5.9-1 1.2z"/><path class="st3" d="M71.4 21.1h-48c-1.1 0-2 .9-2 2v28c0 1.1.9 2 2 2h48.1c1.1 0 2-.9 2-2v-28c-.1-1.1-1-2-2.1-2zm0 30h-48v-28h48v28z"/><ellipse transform="rotate(-67.077 71.422 67.244)" class="st2" cx="71.4" cy="67.2" rx="1" ry="1"/><path class="st2" d="M76.6 62.8c.5-.5.5-1.2 0-1.7s-1.2-.5-1.7 0-.5 1.2 0 1.7 1.2.5 1.7 0zm-1.3-1.3c.2-.2.6-.2.8 0s.2.6 0 .8c-.2.2-.6.2-.8 0-.2-.1-.2-.5 0-.8zM87.6 72l-.8-2.5-.7 2.5c-.1.5-.5.8-1 1l-2.5.8 2.5.8c.5.1.8.5 1 1l.8 2.5.8-2.5c.1-.5.5-.8 1-1l2.5-.8-2.6-.8c-.5-.1-.8-.5-1-1zm-.7 2.5c-.4 0-.7-.3-.7-.7s.3-.7.7-.7.7.3.7.7-.4.7-.7.7z"/><circle class="st1" cx="86.9" cy="73.8" r=".7"/></svg>