<svg xmlns="http://www.w3.org/2000/svg" width="42" height="42" viewBox="0 0 42 42"><circle fill-rule="evenodd" clip-rule="evenodd" cx="21" cy="21" r="20"/><path fill="#FFF" d="M13.516 10.929h14.97a2.592 2.592 0 0 1 2.586 2.585v14.971a2.592 2.592 0 0 1-2.586 2.585h-14.97a2.593 2.593 0 0 1-2.587-2.585V13.514a2.593 2.593 0 0 1 2.587-2.585zm12.088 2.238a.91.91 0 0 0-.908.905v2.169c0 .5.407.912.908.912h2.275a.912.912 0 0 0 .906-.912v-2.169a.909.909 0 0 0-.906-.905h-2.275zm3.19 6.276h-1.772c.167.553.26 1.129.26 1.732 0 3.347-2.805 6.064-6.262 6.064-3.458 0-6.262-2.718-6.262-6.064 0-.604.091-1.18.259-1.732h-1.848v8.509a.8.8 0 0 0 .8.801h14.024a.8.8 0 0 0 .801-.801v-8.509zm-7.774-2.407c-2.233 0-4.046 1.754-4.046 3.92 0 2.163 1.812 3.919 4.046 3.919 2.232 0 4.045-1.756 4.045-3.919-.001-2.166-1.813-3.92-4.045-3.92z"/></svg>