<svg id="Layer_1" xmlns="http://www.w3.org/2000/svg" xmlns:xlink="http://www.w3.org/1999/xlink" viewBox="0 0 688.5 100"><style>.st0{clip-path:url(#SVGID_2_)}.st1{fill:#a2c93a}.st2{fill:#69c9cd}.st3{fill:#f05323}.st4{fill:#f8bf2c}.st5{fill:#1a8986}.st6{fill:#fff}</style><title>Artboard 1</title><defs><path id="SVGID_1_" d="M149.9 0H83.3l33.3 33.3L149.9 0zm66.7 0h-33.3l-50 50L183 99.8h33.4L166.6 50l50-50zM50 0L0 50l50 50 50-50L50 0zM33.3 50L50 33.3 66.6 50 50 66.6 33.3 50zm50 50H150l-33.2-33.9L83.3 100z"/></defs><clipPath id="SVGID_2_"><use xlink:href="#SVGID_1_" overflow="visible"/></clipPath><g class="st0"><path class="st1" d="M-16.9-35.3h38.2v164h-38.2z"/><path class="st2" d="M21.3-35.3h19.1v164H21.3z"/><path class="st3" d="M40.4-35.3h9.5v164h-9.5z"/><path class="st4" d="M50-35.3h33.2v164H50z"/><path class="st5" d="M83.2-35.3h9.4v164h-9.4z"/><path class="st1" d="M92.6-35.3h38.2v164H92.6z"/><path class="st2" d="M130.8-35.3h19.1v164h-19.1z"/><path class="st3" d="M149.9-35.3h9.6v164h-9.6z"/><path class="st4" d="M159.4-35.3h29.7v164h-29.7z"/><path class="st5" d="M189.1-35.3h9.4v164h-9.4z"/><path class="st1" d="M198.5-35.3h38.2v164h-38.2z"/></g><path class="st6" d="M260.9 49.9c0 2.3-.4 4.6-1.3 6.7-.8 2-2 3.8-3.6 5.3s-3.4 2.7-5.4 3.4c-4.3 1.6-9.1 1.6-13.4 0-2-.8-3.8-1.9-5.4-3.5-1.5-1.5-2.7-3.3-3.6-5.3-.9-2.1-1.3-4.4-1.3-6.7s.4-4.6 1.3-6.7c.8-2 2-3.7 3.6-5.2 1.5-1.5 3.4-2.6 5.4-3.4 4.3-1.6 9.1-1.6 13.4 0 2 .8 3.8 1.9 5.4 3.4 1.5 1.5 2.8 3.2 3.6 5.2.9 2.3 1.3 4.5 1.3 6.8zm-6.5 0c0-1.5-.2-2.9-.7-4.3-.4-1.3-1.1-2.5-2-3.6-.9-1.1-2-1.9-3.3-2.5a11.7 11.7 0 0 0-9 0c-1.3.6-2.4 1.4-3.4 2.5-.9 1.1-1.6 2.3-2 3.6-.9 2.8-.9 5.8 0 8.6.4 1.3 1.1 2.6 2 3.6.9 1.1 2 1.9 3.3 2.5 2.9 1.2 6.1 1.2 9 0 1.3-.6 2.4-1.4 3.3-2.5.9-1.1 1.6-2.3 2-3.6.5-1.3.7-2.7.8-4.3zm15-12.1c0-1.3-.1-2.5-.2-3.5h5.9c.1.8.1 1.7.2 2.8s.1 1.9.1 2.5h.2c.9-1.8 2.2-3.4 3.9-4.5 1.7-1.1 3.7-1.7 5.7-1.7.8 0 1.7.1 2.5.3l-.3 5.8c-.9-.2-1.9-.3-2.9-.3-1.4 0-2.7.3-3.9.8-1.1.5-2 1.3-2.8 2.2-.7 1-1.3 2.1-1.6 3.2-.4 1.2-.5 2.5-.5 3.8v16.5h-6.2V41c0-.8-.1-1.9-.1-3.2zM302 22.9c0 1.1-.4 2.1-1.2 2.9-.8.7-1.8 1.1-2.9 1.1-1.1 0-2.1-.4-2.9-1.2-.8-.7-1.2-1.8-1.2-2.8 0-1.1.4-2.1 1.1-2.9.8-.8 1.8-1.2 2.9-1.2 1.1 0 2.1.4 2.9 1.2.9.7 1.3 1.8 1.3 2.9zm-1 42.8h-6.2V34.3h6.2v31.4zm13.3 5.4c1.4 1.6 3.2 2.9 5.1 3.7 2 .9 4.1 1.4 6.3 1.4 1.8 0 3.6-.3 5.2-.9 1.3-.5 2.5-1.4 3.4-2.5.9-1.1 1.5-2.3 1.9-3.7.4-1.5.6-3 .6-4.6v-4h-.1c-1.2 1.8-2.8 3.1-4.7 4-2 .9-4.2 1.4-6.4 1.4s-4.5-.4-6.5-1.3c-1.9-.8-3.6-2-5-3.4-1.4-1.5-2.5-3.2-3.2-5.1-.8-2-1.1-4.2-1.1-6.3 0-2.2.4-4.3 1.1-6.4.7-1.9 1.8-3.7 3.2-5.2 1.4-1.5 3.1-2.7 5-3.5 2.1-.9 4.3-1.3 6.5-1.3s4.4.5 6.4 1.4c2 1 3.7 2.5 4.9 4.4h.1v-5h6V64c0 2.2-.3 4.4-.9 6.6-.6 2-1.5 4-2.9 5.6-1.5 1.7-3.3 3-5.4 3.9-2.6 1-5.4 1.5-8.2 1.5-2.8 0-5.6-.5-8.3-1.5-2.6-.9-5.1-2.3-7.1-4.2l4.1-4.8zm1.8-21.4c0 1.4.2 2.8.7 4.2.9 2.6 2.8 4.8 5.4 6 1.4.6 2.9 1 4.4.9 1.5 0 3-.3 4.4-.9 1.3-.5 2.4-1.3 3.4-2.3 1-1 1.7-2.2 2.2-3.6.5-1.4.8-2.9.8-4.3 0-1.5-.2-2.9-.8-4.2-1-2.6-3-4.8-5.5-5.9-2.8-1.2-6-1.2-8.8 0-1.2.6-2.4 1.4-3.3 2.4-.9 1-1.6 2.2-2.1 3.5-.5 1.3-.7 2.7-.8 4.2zm45-26.8c0 1.1-.4 2.1-1.2 2.9-.8.7-1.8 1.1-2.9 1.1-1.1 0-2.1-.4-2.9-1.1-.8-.7-1.2-1.8-1.2-2.8 0-1.1.4-2.2 1.2-2.9.8-.8 1.8-1.2 2.9-1.2 1.1 0 2.2.4 2.9 1.2.7.7 1.2 1.7 1.2 2.8zm-1 42.8h-6.2V34.3h6.2v31.4zm16.5-31.4c.1.8.2 1.7.2 2.7 0 1 .1 1.8.1 2.5h.2c.4-.9 1-1.7 1.6-2.3.7-.7 1.5-1.4 2.3-1.9.9-.6 1.9-1 2.9-1.3 1.1-.3 2.2-.5 3.3-.5 1.8-.1 3.6.3 5.2 1 1.4.6 2.6 1.6 3.6 2.8 1 1.2 1.7 2.5 2.2 4 .5 1.6.7 3.3.7 5v19.5h-6.2V48.3c0-1.2-.1-2.4-.3-3.7-.2-1.1-.5-2.1-1.1-3-.5-.9-1.3-1.6-2.2-2.1-1.1-.6-2.3-.8-3.6-.8-2.4-.1-4.6 1-6.1 2.8-1.7 2.2-2.5 4.8-2.3 7.5v16.7h-6.2V41c0-.8 0-1.9-.1-3.2 0-1.3-.1-2.5-.2-3.5h6zm113.9 7.9c-.8-1.1-1.8-2-3-2.5-1.3-.7-2.8-1-4.2-1-1.5 0-3 .3-4.4.9-1.2.6-2.3 1.4-3.2 2.5-.9 1.1-1.6 2.3-2 3.6-.9 2.8-.9 5.8 0 8.6.4 1.3 1.1 2.6 2 3.6.9 1 2 1.9 3.3 2.5 2.8 1.2 5.9 1.2 8.7 0 1.3-.6 2.4-1.4 3.2-2.5l4.2 3.8c-1.4 1.6-3.1 2.8-5 3.6-2.1.9-4.4 1.3-6.8 1.3-2.3 0-4.6-.4-6.7-1.2-2-.8-3.8-1.9-5.4-3.4-1.5-1.5-2.7-3.2-3.5-5.2-.9-2.2-1.3-4.5-1.3-6.8s.4-4.6 1.3-6.8c.8-2 2-3.7 3.5-5.2s3.3-2.6 5.3-3.4c2.1-.8 4.4-1.2 6.7-1.2s4.5.5 6.6 1.3c2 .8 3.8 2.1 5.2 3.8l-4.5 3.7zm19.9-3.2c.9-1.7 2.2-3.1 3.9-4 1.8-1.1 4-1.7 6.1-1.7 1.8-.1 3.6.3 5.2 1 1.4.6 2.6 1.6 3.7 2.8 1 1.2 1.7 2.5 2.2 4 .5 1.6.7 3.3.7 5v19.5h-6.3V48.3c0-1.2-.1-2.5-.3-3.7-.2-1.1-.5-2.1-1.1-3.1-.5-.9-1.3-1.6-2.2-2.1-1.1-.6-2.3-.9-3.5-.8-2.4-.1-4.6 1-6.1 2.8-1.7 2.1-2.5 4.8-2.4 7.5v16.7H504V20.5h6.2V39h.2zm51.8 6.3c.2-2-.7-3.9-2.2-5.2-1.6-1.2-3.6-1.8-5.6-1.7-1.7 0-3.4.3-5 1-1.5.6-2.8 1.5-4 2.6l-3.3-4c1.6-1.5 3.6-2.7 5.7-3.5 2.3-.8 4.8-1.3 7.2-1.2 2 0 4 .3 5.9 1 1.5.6 2.9 1.4 4.1 2.6 1.1 1.1 1.9 2.4 2.4 3.9.5 1.6.8 3.2.8 4.8v13.7c0 1.1 0 2.2.1 3.3 0 1 .2 1.9.4 2.9H563c-.4-1.5-.5-3-.5-4.5h-.2c-1.1 1.6-2.6 3-4.3 3.9-1.9 1-4 1.5-6.2 1.4-1.3 0-2.6-.2-3.9-.5-1.3-.3-2.6-.9-3.7-1.6-1.1-.8-2.1-1.8-2.8-3-.8-1.4-1.1-3-1.1-4.6-.1-2.1.6-4.1 1.9-5.7 1.4-1.5 3.1-2.5 5-3.2 2.3-.8 4.6-1.2 7-1.4 2.6-.2 5.2-.3 7.9-.3l.1-.7zm-1.6 5.4c-1.5 0-3.2.1-4.8.2-1.5.1-3 .4-4.5.8-1.2.3-2.4 1-3.3 1.8-.9.8-1.4 2-1.3 3.2 0 .8.2 1.6.6 2.3.4.6.9 1.1 1.5 1.5.6.4 1.3.7 2.1.8.8.2 1.5.2 2.3.2 2.5.2 5-.8 6.7-2.6 1.6-1.8 2.4-4.2 2.4-6.6v-1.7l-1.7.1zm23.6-16.4c.1.8.2 1.7.2 2.7s.1 1.8.1 2.5h.2c.4-.9 1-1.7 1.6-2.3.7-.7 1.5-1.4 2.4-1.9.9-.6 1.9-1 2.9-1.3 1.1-.3 2.2-.5 3.3-.5 1.8-.1 3.6.3 5.2 1 1.4.6 2.6 1.6 3.7 2.8 1 1.2 1.7 2.5 2.2 4 .5 1.6.7 3.3.7 5v19.5h-6.2V48.3c0-1.2-.1-2.4-.3-3.7-.2-1.1-.5-2.1-1.1-3-.5-.9-1.3-1.6-2.2-2.1-1.1-.6-2.3-.8-3.6-.8-2.4-.1-4.6 1-6.1 2.8-1.7 2.1-2.5 4.8-2.4 7.5v16.7h-6.2V41c0-.8 0-1.9-.1-3.2 0-1.3-.1-2.5-.2-3.5h5.9zm35.4 36.8c1.4 1.6 3.2 2.9 5.1 3.7 2 .9 4.1 1.4 6.3 1.4 1.8 0 3.6-.3 5.2-.9 1.3-.5 2.5-1.4 3.4-2.5.9-1.1 1.5-2.3 1.9-3.7.4-1.5.6-3 .6-4.6v-4h-.1c-1.2 1.8-2.8 3.1-4.7 4-2 .9-4.1 1.4-6.3 1.4s-4.5-.4-6.5-1.3c-1.9-.8-3.6-2-5-3.4-1.4-1.5-2.5-3.2-3.2-5.1-.8-2-1.1-4.2-1.1-6.3 0-2.2.4-4.3 1.1-6.4.7-1.9 1.8-3.7 3.2-5.2 1.4-1.5 3.1-2.7 5-3.5 2.1-.9 4.3-1.3 6.5-1.3s4.4.5 6.5 1.5c2 1 3.7 2.5 4.9 4.4h.1v-5h6v29.8c0 2.2-.3 4.4-.9 6.6-.6 2-1.5 4-2.9 5.6-1.5 1.7-3.3 3-5.4 3.9-2.6 1.1-5.5 1.6-8.3 1.5-2.8 0-5.6-.5-8.3-1.5-2.6-.9-5.1-2.3-7.1-4.2l4-4.9zm1.9-21.4c0 1.4.2 2.8.7 4.2.9 2.6 2.8 4.8 5.4 6 1.4.6 2.9 1 4.4.9 1.5 0 3-.3 4.4-.9 1.3-.5 2.4-1.3 3.4-2.3.9-1 1.7-2.2 2.2-3.6.5-1.4.8-2.9.8-4.3 0-1.5-.2-2.9-.8-4.2-1-2.6-3-4.8-5.6-5.9-2.8-1.2-6-1.2-8.8 0-1.2.6-2.4 1.4-3.3 2.4-.9 1-1.6 2.2-2.1 3.5-.5 1.3-.7 2.7-.7 4.2zm67 0v1.1c0 .4 0 .7-.1 1.1h-25c0 1.3.3 2.6.9 3.7.5 1.1 1.3 2.2 2.2 3 .9.9 2 1.5 3.2 2 3.1 1.2 6.5.9 9.4-.7 1.5-.8 2.7-2 3.7-3.4l4.4 3.5c-1.5 2.1-3.6 3.8-6 5-4.5 2-9.6 2.1-14.2.4-2-.8-3.7-1.9-5.2-3.4s-2.7-3.3-3.5-5.2c-.9-2.1-1.3-4.4-1.3-6.7s.4-4.6 1.2-6.7c.8-2 1.9-3.8 3.4-5.3s3.2-2.6 5.2-3.4c4.1-1.6 8.6-1.6 12.7-.1 1.8.7 3.5 1.8 4.8 3.2 1.3 1.5 2.4 3.2 3 5.1.8 2.2 1.2 4.5 1.2 6.8zm-6.4-2.5c0-1.2-.2-2.4-.6-3.5-.4-1-.9-2-1.7-2.8-.8-.8-1.7-1.5-2.7-1.9-1.2-.5-2.5-.7-3.8-.7-1.3 0-2.6.2-3.8.7-1.1.4-2.2 1.1-3 1.9-.9.8-1.6 1.8-2.1 2.8-.6 1.1-.9 2.3-1 3.5h18.7z"/><path class="st4" d="M463.8 20.5h-14.5l-16.2 21.4-16.2-21.4h-14.6L425.6 50l-23.3 29.5h14.6l16.2-21.4 16.2 21.4h14.5L440.6 50z"/></svg>