<svg xmlns="http://www.w3.org/2000/svg" width="42" height="42" viewBox="0 0 42 42"><circle fill-rule="evenodd" clip-rule="evenodd" cx="21" cy="21" r="20"/><path fill-rule="evenodd" clip-rule="evenodd" fill="#FFF" d="M21.507 10.033c-5.914 0-8.896 4.293-8.896 7.872 0 2.167.811 4.095 2.547 4.812.287.121.543.006.623-.314.059-.222.195-.778.257-1.012.081-.315.051-.426-.178-.702-.503-.599-.823-1.373-.823-2.472 0-3.182 2.354-6.033 6.13-6.033 3.342 0 5.181 2.066 5.181 4.829 0 3.632-1.591 6.698-3.948 6.698-1.303 0-2.278-1.091-1.966-2.428.374-1.595 1.1-3.318 1.1-4.47 0-1.033-.547-1.892-1.68-1.892-1.329 0-2.4 1.392-2.4 3.261 0 1.189.397 1.994.397 1.994s-1.364 5.843-1.601 6.867c-.478 2.038-.073 4.537-.038 4.789.021.149.209.184.296.072.123-.163 1.709-2.144 2.247-4.125.154-.561.876-3.465.876-3.465.433.837 1.695 1.571 3.042 1.571 4.002 0 6.716-3.692 6.716-8.636 0-3.735-3.126-7.216-7.882-7.216z"/></svg>