<svg xmlns="http://www.w3.org/2000/svg" viewBox="0 0 62 62"><style>.st0{fill-rule:evenodd;clip-rule:evenodd;fill:#f7bf2c}.st1{fill:#fff}</style><circle class="st0" cx="31" cy="31" r="31" id="Facebook"/><path class="st1" d="M19.4 15.4h23.2c2.2 0 4 1.8 4 4v23.2c0 2.2-1.8 4-4 4H19.4c-2.2 0-4-1.8-4-4V19.4c0-2.2 1.8-4 4-4zm18.7 3.5c-.8 0-1.4.6-1.4 1.4v3.4c0 .8.6 1.4 1.4 1.4h3.5c.8 0 1.4-.6 1.4-1.4v-3.4c0-.8-.6-1.4-1.4-1.4h-3.5zm5 9.7h-2.7c.3.9.4 1.7.4 2.7 0 5.2-4.3 9.4-9.7 9.4-5.4 0-9.7-4.2-9.7-9.4 0-.9.1-1.8.4-2.7h-2.9v13.2c0 .7.6 1.2 1.2 1.2h21.7c.7 0 1.2-.6 1.2-1.2V28.6zM31 24.9c-3.5 0-6.3 2.7-6.3 6.1 0 3.4 2.8 6.1 6.3 6.1s6.3-2.7 6.3-6.1c0-3.4-2.8-6.1-6.3-6.1z" id="Twitter"/></svg>