<svg id="Layer_1" xmlns="http://www.w3.org/2000/svg" viewBox="0 0 243 243"><style>.st0{fill:#62c7cb}.st1{fill:none}.st2{fill:#010101}.st3{fill:#fff}.st4{fill:#c7e8eb}</style><circle class="st0" cx="121.5" cy="121.5" r="121.5"/><path class="st1" d="M119.1 94.8l.3.3-.3-.3zm1.6 1.8c.1.1.2.2.2.3 0-.1-.1-.2-.2-.3zm1.2 1.5c0 .1.1.1.1.2 0-.1-.1-.1-.1-.2zm-4.5-4.8c.1.1.2.2.3.2-.1-.1-.2-.2-.3-.2zm7.6 3.6l.3-.3c-.2.1-.2.2-.3.3zm-1.1 1.4s.1-.1.1-.2c0 .1 0 .1-.1.2zm2.7-3.2l.3-.3-.3.3zm-3.4 4.3c0-.1.1-.1.1-.2-.1.1-.1.1-.1.2zm-.5-.2c0 .1.1.1.1.2 0-.1-.1-.1-.1-.2zm-7.6-7.5c.1.1.3.2.4.3-.1-.1-.2-.2-.4-.3z"/><ellipse transform="rotate(-45.001 160.637 115.132)" class="st1" cx="160.6" cy="115.1" rx="1.3" ry="1.3"/><path class="st1" d="M125.8 156.8c1.5.3 2.8.9 4 1.7-1.1-.8-2.5-1.4-4-1.7zm-12.7-66zm16.7 86.4c-1.2.8-2.6 1.4-4 1.7 1.5-.3 2.9-.9 4-1.7zm-6.1 10.4c-.1 0-.1 0 0 0-.1 0-.1 0 0 0zm-13.1-97.2h-.4.7-.3zm-1.9.3c.3-.1.6-.2.9-.2-.3 0-.6.1-.9.2zm-3.6 2.2zm2-1.5zm35 3.1c-.3-.6-.8-1.1-1.2-1.6.5.5.9 1 1.2 1.6zm-13.8-1c.1-.1.2-.2.3-.2-.1 0-.2.1-.3.2zm9.6-2.6c.3.1.7.3 1 .5-.4-.2-.7-.4-1-.5zm-5.1-.1c.1 0 .1 0 0 0 .1 0 .1 0 0 0zm-2.4 1.2c.1-.1.3-.2.4-.3-.1.1-.2.2-.4.3zm4.9-1.6h-.3.7-.4zm1 .1c.3 0 .6.1.9.2-.2-.1-.6-.2-.9-.2z"/><path class="st2" d="M74.4 50.4c14.1-9.6 30.6-14.7 47.7-14.7s33.6 5.1 47.7 14.7c.4.3.8.4 1.3.4.7 0 1.4-.3 1.9-1 .7-1 .4-2.4-.6-3.1-14.8-10.1-32.2-15.5-50.2-15.5S86.8 36.5 72 46.7c-1 .7-1.3 2.1-.6 3.1.6 1.1 2 1.3 3 .6zM91 199.5C64.4 189 45 166 39.1 138.1c-.3-1.2-1.4-2-2.7-1.7-1.2.3-2 1.5-1.7 2.7 6.2 29.4 26.6 53.6 54.6 64.6.3.1.6.2.8.2.9 0 1.7-.5 2.1-1.4.5-1.2-.1-2.6-1.2-3zm116.8-63.1c-1.2-.3-2.4.5-2.7 1.7-5.9 27.9-25.3 50.9-51.8 61.4-1.2.5-1.7 1.8-1.3 2.9.3.9 1.2 1.4 2.1 1.4.3 0 .6 0 .8-.2 28-11.1 48.4-35.2 54.6-64.6.3-1.2-.5-2.4-1.7-2.6z"/><path class="st3" d="M140.9 92.9c-.5-.5-1-.9-1.5-1.2-.2-.1-.3-.2-.5-.3-.3-.2-.7-.4-1-.5-.2-.1-.4-.1-.6-.2-.3-.1-.6-.2-.9-.2-.2 0-.4 0-.6-.1h-.7c-.7 0-1.4.1-2.1.4h-.1c-.7.2-1.3.6-2 .9-.1.1-.3.2-.4.3-.6.4-1.2.8-1.8 1.3-.1.1-.2.2-.3.2-.5.4-1 .9-1.4 1.3l-.3.3c-.5.5-.9 1-1.3 1.5l-.3.3c-.3.4-.7.8-.9 1.2 0 .1-.1.1-.1.2-.3.4-.5.7-.7.9 0 .1-.1.1-.1.2-.1.1-.2.3-.2.3s-.1-.1-.2-.3c0-.1-.1-.1-.1-.2-.2-.2-.4-.6-.7-.9 0 0-.1-.1-.1-.2l-.9-1.2c-.1-.1-.2-.2-.2-.3-.4-.5-.8-1-1.3-1.5l-.3-.3c-.5-.5-.9-.9-1.5-1.4-.1-.1-.2-.2-.3-.2-.6-.5-1.2-.9-1.8-1.3-.1-.1-.3-.2-.4-.3-.6-.4-1.3-.7-2-.9h-.1c-.7-.2-1.4-.3-2.1-.4h-.7c-.2 0-.4 0-.6.1-.3 0-.6.1-.9.2-.2.1-.4.1-.6.2-.3.1-.7.3-1 .5-.2.1-.3.2-.5.3-.5.3-1 .7-1.5 1.2-1 1-1.7 2.1-2 3.5-1.2 3.9.1 9 2.9 12.6 5.8 7.2 17 11.2 17 11.2s11.2-4 17-11.2c3.3-4.1 4.5-10.4 2.1-14.4-.5-.6-.9-1.1-1.4-1.6z"/><path class="st2" d="M144 89.6c-2.5-2.5-5.6-3.8-8.7-3.8-5.1 0-9.4 3.4-12.3 6.5-2.9-3.1-7.2-6.5-12.3-6.5-3.1 0-6.2 1.3-8.7 3.8-6 5.8-4.4 16 .5 22.1 6.6 8.1 18.5 12.4 19 12.6.5.2 1 .3 1.5.3s1-.1 1.5-.3c.5-.2 12.5-4.5 19-12.6 4.9-6.1 6.5-16.2.5-22.1zm-4 19.3c-5.8 7.2-17 11.2-17 11.2s-11.2-4-17-11.2c-2.8-3.5-4.1-8.6-2.9-12.6a9.4 9.4 0 0 1 2-3.5c.5-.5 1-.9 1.5-1.2.2-.1.3-.2.5-.3.3-.2.7-.4 1-.5.2-.1.4-.1.6-.2.3-.1.6-.2.9-.2.2 0 .4 0 .6-.1h.7c.7 0 1.4.1 2.1.4h.1c.7.2 1.3.6 2 .9.1.1.3.2.4.3.6.4 1.2.8 1.8 1.3.1.1.2.2.3.2.5.4 1 .9 1.5 1.4l.3.3c.5.5.9 1 1.3 1.5.1.1.2.2.2.3.3.4.7.8.9 1.2 0 .1.1.1.1.2.3.4.5.7.7.9.1.1.1.1.1.2.1.1.2.3.2.3s.1-.1.2-.3c0-.1.1-.1.1-.2.2-.2.4-.6.7-.9 0-.1.1-.1.1-.2.3-.3.6-.7.9-1.2l.3-.3c.4-.5.8-1 1.3-1.5l.3-.3c.5-.5.9-.9 1.4-1.3.1-.1.2-.2.3-.2.6-.5 1.2-.9 1.8-1.3.1-.1.3-.2.4-.3.6-.4 1.3-.7 2-.9h.1c.7-.2 1.4-.3 2.1-.4h.7c.2 0 .4 0 .6.1.3 0 .6.1.9.2.2.1.4.1.6.2.3.1.7.3 1 .5.2.1.3.2.5.3.5.3 1 .7 1.5 1.2s.9 1 1.2 1.6c2.6 4 1.4 10.3-1.9 14.4z"/><ellipse transform="rotate(-67.077 95.336 121.504)" class="st3" cx="95.3" cy="121.5" rx="1.4" ry="1.4"/><ellipse transform="rotate(-67.077 134.393 132.333)" class="st3" cx="134.4" cy="132.3" rx="1.4" ry="1.4"/><path class="st3" d="M158.7 113.2c-1.1 1.1-1.1 2.8 0 3.8s2.8 1.1 3.8 0 1.1-2.8 0-3.8c-1-1-2.7-1-3.8 0zm2.9 1c.5.5.5 1.4 0 1.9s-1.4.5-1.9 0-.5-1.4 0-1.9 1.4-.5 1.9 0zM157 131l-4.2-1.3c-.8-.2-1.4-.9-1.7-1.7l-1.3-4.2-1.3 4.2c-.2.8-.9 1.4-1.7 1.7l-4.2 1.3 4.2 1.3c.8.2 1.4.9 1.7 1.7l1.3 4.2 1.3-4.2c.2-.8.9-1.4 1.7-1.7l4.2-1.3zm-7.2 1.2c-.7 0-1.2-.5-1.2-1.2s.5-1.2 1.2-1.2 1.2.5 1.2 1.2c0 .6-.5 1.2-1.2 1.2z"/><circle class="st0" cx="149.8" cy="131" r="1.2"/><path class="st3" d="M89.2 110.3l-1.3-4.2-1.3 4.2c-.2.8-.9 1.4-1.7 1.7l-4.2 1.3 4.2 1.3c.8.2 1.4.9 1.7 1.7l1.3 4.2 1.3-4.2c.2-.8.9-1.4 1.7-1.7l4.2-1.3-4.2-1.3c-.8-.3-1.4-1-1.7-1.7zm-1.3 4.1c-.7 0-1.2-.5-1.2-1.2s.5-1.2 1.2-1.2 1.2.5 1.2 1.2-.5 1.2-1.2 1.2z"/><circle class="st0" cx="87.9" cy="113.2" r="1.2"/><path class="st4" d="M58.5 73.3c0-6.2-5-11.2-11.2-11.2-.8 0-1.5.1-2.3.2-1.5.3-2.8.9-4 1.7-3 2-5 5.4-5 9.3 0 3.9 2 7.3 5 9.3 1.2.8 2.6 1.4 4 1.7.7.1 1.5.2 2.3.2 6.2.1 11.2-5 11.2-11.2z"/><path class="st3" d="M60.8 106.6c0-2.8-.9-5.4-2.3-7.6 1.5 2.2 2.3 4.8 2.3 7.6zM45 93.3c-6.4 1.1-11.3 6.6-11.3 13.3v13.9h22.6v-13.9c0-6.7-4.9-12.2-11.3-13.3z"/><path class="st2" d="M49.8 88.8C57.3 87.6 63 81.1 63 73.3c0-8.7-7.1-15.7-15.8-15.7-8.7 0-15.8 7.1-15.8 15.7 0 7.8 5.7 14.3 13.2 15.5-8.8 1.2-15.5 8.7-15.5 17.8v13.9c0 2.5 2 4.5 4.5 4.5h27.1c2.5 0 4.5-2 4.5-4.5v-13.9c.1-9.1-6.7-16.5-15.4-17.8zM41 82.7c-3-2-5-5.4-5-9.3 0-3.9 2-7.3 5-9.3 1.2-.8 2.6-1.4 4-1.7.7-.1 1.5-.2 2.3-.2 6.2 0 11.2 5 11.2 11.2 0 6.2-5 11.2-11.2 11.2-.8 0-1.5-.1-2.3-.2-1.5-.3-2.8-.9-4-1.7zm19.8 37.9H33.7v-13.9c0-6.7 4.9-12.3 11.3-13.3.7-.1 1.5-.2 2.2-.2 4.7 0 8.8 2.4 11.2 6 1.5 2.2 2.3 4.8 2.3 7.6.1 7.3.1 13.8.1 13.8z"/><path class="st4" d="M58.5 99.1c-2.4-3.6-6.6-6-11.2-6-.8 0-1.5.1-2.2.2 6.4 1.1 11.3 6.6 11.3 13.3v13.9h4.5v-13.9c-.1-2.8-.9-5.4-2.4-7.5zM207 73.3c0-6.2-5-11.2-11.2-11.2-.8 0-1.5.1-2.3.2-1.5.3-2.8.9-4 1.7-3 2-5 5.4-5 9.3 0 3.9 2 7.3 5 9.3 1.2.8 2.6 1.4 4 1.7.7.1 1.5.2 2.3.2 6.2.1 11.2-5 11.2-11.2z"/><path class="st3" d="M193.5 93.3c-6.4 1.1-11.3 6.6-11.3 13.3v13.9h22.6v-13.9c0-6.7-4.9-12.2-11.3-13.3zm15.8 13.3c0-2.8-.9-5.4-2.3-7.6 1.5 2.2 2.3 4.8 2.3 7.6z"/><path class="st2" d="M198.3 88.8c7.5-1.2 13.2-7.7 13.2-15.5 0-8.7-7.1-15.7-15.8-15.7-8.7 0-15.8 7.1-15.8 15.7 0 7.8 5.7 14.3 13.2 15.5-8.8 1.2-15.5 8.7-15.5 17.8v13.9c0 2.5 2 4.5 4.5 4.5h27.1c2.5 0 4.5-2 4.5-4.5v-13.9c.1-9.1-6.7-16.5-15.4-17.8zm-8.8-6.1c-3-2-5-5.4-5-9.3 0-3.9 2-7.3 5-9.3 1.2-.8 2.6-1.4 4-1.7.7-.1 1.5-.2 2.3-.2 6.2 0 11.2 5 11.2 11.2 0 6.2-5 11.2-11.2 11.2-.8 0-1.5-.1-2.3-.2-1.5-.3-2.8-.9-4-1.7zm19.8 37.9h-27.1v-13.9c0-6.7 4.9-12.3 11.3-13.3.7-.1 1.5-.2 2.2-.2 4.7 0 8.8 2.4 11.2 6 1.5 2.2 2.3 4.8 2.3 7.6.1 7.3.1 13.8.1 13.8z"/><path class="st4" d="M207 99.1c-2.4-3.6-6.6-6-11.2-6-.8 0-1.5.1-2.2.2 6.4 1.1 11.3 6.6 11.3 13.3v13.9h4.5v-13.9c-.1-2.8-.9-5.4-2.4-7.5zm-81.2 79.8c1.5-.3 2.8-.9 4-1.7 3-2 5-5.4 5-9.3 0-3.9-2-7.3-5-9.3-1.2-.8-2.6-1.4-4-1.7-.7-.1-1.5-.2-2.3-.2-6.2 0-11.2 5-11.2 11.2 0 6.2 5 11.2 11.2 11.2.8 0 1.6-.1 2.3-.2z"/><path class="st3" d="M121.5 187.8c.7-.1 1.4-.2 2.2-.2h-.1c-7.5 0-13.6 6.1-13.6 13.6v13.9h22.8v-13.9c0-6.8-4.9-12.3-11.3-13.4z"/><path class="st2" d="M126.1 183.3c7.5-1.2 13.2-7.7 13.2-15.5 0-8.7-7.1-15.8-15.8-15.8-8.7 0-15.8 7.1-15.8 15.8 0 7.8 5.7 14.3 13.2 15.5-8.8 1.2-15.5 8.7-15.5 17.8V215c0 2.5 2 4.5 4.5 4.5H137c2.5 0 4.5-2 4.5-4.5v-13.9c.1-9.1-6.7-16.5-15.4-17.8zm-13.8-15.5c0-6.2 5-11.2 11.2-11.2.8 0 1.5.1 2.3.2 1.5.3 2.8.9 4 1.7 3 2 5 5.4 5 9.3 0 3.9-2 7.3-5 9.3-1.2.8-2.6 1.4-4 1.7-.7.1-1.5.2-2.3.2-6.2.1-11.2-5-11.2-11.2zm25 47.3H110v-13.9c0-7.4 6.1-13.6 13.6-13.6h.2c4.7 0 8.8 2.4 11.2 6 1.5 2.2 2.3 4.8 2.3 7.6v13.9z"/><path class="st4" d="M135 193.6c-2.4-3.6-6.6-6-11.2-6h-.1c-.7 0-1.4.1-2.2.2 6.4 1.1 11.3 6.6 11.3 13.3V215h4.5v-13.9c0-2.8-.8-5.4-2.3-7.5z"/></svg>