<svg xmlns="http://www.w3.org/2000/svg" width="42" height="42" viewBox="0 0 42 42"><circle fill-rule="evenodd" clip-rule="evenodd" fill="#F9C02E" cx="21" cy="21" r="20"/><path fill-rule="evenodd" clip-rule="evenodd" fill="#FFF" d="M31.97 14.598a8.373 8.373 0 0 1-2.437.667 4.241 4.241 0 0 0 1.864-2.341 8.482 8.482 0 0 1-2.691 1.025 4.235 4.235 0 0 0-7.324 2.898c0 .331.036.656.108.964a12.022 12.022 0 0 1-8.733-4.424 4.23 4.23 0 0 0-.57 2.127c0 1.471.746 2.767 1.883 3.527a4.206 4.206 0 0 1-1.917-.532v.056a4.238 4.238 0 0 0 3.396 4.152 4.267 4.267 0 0 1-1.913.07 4.238 4.238 0 0 0 3.958 2.942 8.503 8.503 0 0 1-5.261 1.812c-.344 0-.679-.02-1.011-.058a12.005 12.005 0 0 0 6.491 1.903c7.793 0 12.054-6.455 12.054-12.049 0-.184-.005-.367-.016-.549a8.487 8.487 0 0 0 2.119-2.19z"/></svg>