<svg id="Layer_1" xmlns="http://www.w3.org/2000/svg" viewBox="0 0 17 17"><style>.st0{fill:#f9c02e}.st1{fill:#fff}</style><circle class="st0" cx="8.5" cy="8.5" r="8"/><path class="st1" d="M12.9 5.9c-.3.1-.6.2-1 .3.4-.2.6-.5.7-.9-.3.2-.7.3-1.1.4-.3-.3-.7-.5-1.2-.5-.9 0-1.7.8-1.7 1.7v.4C7.3 7.2 6 6.5 5.2 5.5c-.1.2-.2.5-.2.8 0 .6.3 1.1.8 1.4-.4 0-.6-.1-.8-.2 0 .8.5 1.5 1.3 1.7h-.7c.2.7.8 1.2 1.6 1.2-.6.5-1.3.7-2.1.7h-.4c.8.5 1.6.8 2.6.8 3.1 0 4.8-2.6 4.8-4.8v-.2c.3-.3.6-.6.8-1z" id="Symbol_21_"/></svg>