<svg xmlns="http://www.w3.org/2000/svg" width="42" height="42" viewBox="0 0 42 42"><circle fill-rule="evenodd" clip-rule="evenodd" fill="#F9C02E" cx="21" cy="21" r="20"/><path fill="#FFF" d="M28.204 12.803c1.968.052 2.951 1.169 2.96 3.353 0 .144-.004.293-.012.446-.087 1.854-1.465 4.375-4.141 7.568-2.759 3.346-5.098 5.019-7.021 5.028-1.195 0-2.189-1.025-2.985-3.073l-.835-2.808-.83-2.807c-.607-2.032-1.258-3.045-1.955-3.045-.152 0-.681.296-1.584.886l-.968-1.142 1.499-1.244 1.474-1.231c1.319-1.058 2.325-1.629 3.011-1.715a2.85 2.85 0 0 1 .277-.011c1.414 0 2.297 1.015 2.642 3.046.193 1.158.354 2.1.483 2.823.125.728.232 1.231.314 1.52.468 1.92.971 2.887 1.514 2.894.414 0 1.055-.626 1.918-1.877.844-1.287 1.297-2.238 1.356-2.859a2.37 2.37 0 0 0 .025-.353c0-.84-.462-1.259-1.382-1.259-.467 0-.965.099-1.5.291.957-2.947 2.794-4.421 5.511-4.432l.229.001z"/></svg>