<svg xmlns="http://www.w3.org/2000/svg" width="18" height="16" viewBox="0 0 18 16"><path d="M17.728 12.992l-7-12A2.001 2.001 0 0 0 7.273.991l-7 11.986a2.002 2.002 0 0 0 1.724 3.009l14 .014h.001c.717 0 1.378-.383 1.734-1.003a1.996 1.996 0 0 0-.004-2.005zM2 13.986L9 2l7 12-14-.014z"/><path d="M8.986 11.226c-.479 0-.852.359-.852.827v.12c.001.468.373.827.852.827.492 0 .852-.359.852-.827v-.12c0-.468-.359-.827-.852-.827zm-.851-6.202l.42 4.894c.024.264.192.432.432.432s.42-.168.444-.432l.42-4.894c.023-.287-.156-.516-.432-.516h-.864c-.276.001-.444.229-.42.516z"/></svg>