<svg id="Layer_1" xmlns="http://www.w3.org/2000/svg" viewBox="0 0 34 29"><style>.st0{fill:none}.st1{fill:#f8c02c}.st2{fill:#fff}.st3{fill:#010101}.st4{fill:#fce098}</style><path class="st0" d="M3 28V12v16zm9-6c.6 0 1 .4 1 1 0-.6.4-1 1-1h-2z"/><ellipse transform="rotate(-45.001 22.4 16.4)" class="st0" cx="22.4" cy="16.4" rx=".3" ry=".3"/><path class="st1" d="M22.8 16.8c.2-.2.2-.6 0-.8s-.6-.2-.8 0c-.2.2-.2.6 0 .8.2.2.6.2.8 0zm-.6-.6c.1-.1.3-.1.4 0s.1.3 0 .4-.3.1-.4 0-.1-.3 0-.4zm4.5.7l-.3-.9-.3.9c-.1.2-.2.3-.4.4l-.9.3.9.3c.2.1.3.2.4.4l.3.9.3-.9c.1-.2.2-.3.4-.4l.9-.3-.9-.3c-.2 0-.4-.2-.4-.4zm-.3 1c-.1 0-.3-.1-.3-.3 0-.1.1-.3.3-.3s.3.1.3.3c0 .1-.1.3-.3.3z"/><circle class="st2" cx="26.4" cy="17.6" r=".3"/><path class="st2" d="M4 8h1V6.5l-2 .7V9c0-.6.4-1 1-1zm5 0h1c.6 0 1 .4 1 1V4.2L9 5v3zM1 8v20h1V7.6zm7-2.6l-2 .7V8h2zm21 1.1l-2-.7V8h2zm-3-1.1l-2-.8V8h2zM4 11c-.6 0-1-.4-1-1v2h2v-1H4zm13-9l-2 .8V8h2zm3 1.1l-2-.7V8h2zM13 10V9c0-.6.4-1 1-1V3.1l-2 .8V12h2v-1c-.6 0-1-.4-1-1zm-3 1H9v1h2v-2c0 .6-.4 1-1 1zm-4 0h2v1H6zm24-4.1V8c.6 0 1 .4 1 1v1c0 .6-.4 1-1 1v1h1v16h1V7.6l-2-.7zM24 11h2v1h-2zm-9 0h2v1h-2zm3 0h2v1h-2zm5-2V4.2l-2-.7V12h2v-2zm4 2h2v1h-2z"/><path class="st3" d="M33.4 6.1l-16-6c-.2-.1-.3-.1-.4-.1s-.2 0-.4.1l-16 6c-.3.1-.6.5-.6.9v21c0 .6.4 1 1 1h2c.6 0 1-.4 1-1V13h26v15c0 .6.4 1 1 1h2c.6 0 1-.4 1-1V7c0-.4-.3-.8-.6-.9zM33 8v20h-2V12H3v16H1V7l16-6 1 .4 2 .8 1 .4 2 .8 1 .4 2 .8 1 .4 2 .8 1 .4 2 .8h1v1z"/><path class="st1" d="M9 23H7v5h5v-5h-1zm5 0v5h5v-5h-4z"/><path class="st3" d="M19 22h-4.5c.6 0 1-.4 1-1v-5c0-.6-.4-1-1-1h-5c-.6 0-1 .4-1 1v5c0 .6.4 1 1 1H7c-.6 0-1 .4-1 1v5c0 .6.4 1 1 1h5c.6 0 1-.4 1-1 0 .6.4 1 1 1h5c.6 0 1-.4 1-1v-5c0-.6-.4-1-1-1zm-9.5-6h5v5h-5v-5zM12 28H7v-5h5v5zm1-5c0-.6-.4-1-1-1h2c-.6 0-1 .4-1 1zm6 5h-5v-5h5v5z"/><path class="st1" d="M9.5 16h5v5h-5zM24 23h-2v5h5v-5h-1z"/><path class="st3" d="M27 22h-5c-.6 0-1 .4-1 1v5c0 .6.4 1 1 1h5c.6 0 1-.4 1-1v-5c0-.6-.4-1-1-1zm0 6h-5v-5h5v5z"/><path class="st4" d="M5 11h1v1H5zm3 0h1v1H8zm6 0h1v1h-1zm3 0h1v1h-1zm3 0v1h1v-2c0 .6-.4 1-1 1zm3-1v2h1v-1c-.6 0-1-.4-1-1zm3 1h1v1h-1zm3 0h1v1h-1z"/><path class="st4" d="M17 1L1 7v1l1-.4V28h1V7.2l2-.7V8h1V6.1l2-.7V8h1V5l2-.8V12h1V3.9l2-.8V8h1V2.8l2-.8v6h1V2.4l2 .7V8c.6 0 1 .4 1 1V3.5l2 .7V9c0-.6.4-1 1-1V4.6l2 .8V8h1V5.8l2 .7V8h1V6.9l2 .7V28h1V7L17 1z"/><path class="st2" d="M4 9h6v1H4z"/><path class="st3" d="M10 8H4c-.6 0-1 .4-1 1v1c0 .6.4 1 1 1h6c.6 0 1-.4 1-1V9c0-.6-.4-1-1-1zm0 2H4V9h6v1z"/><path class="st2" d="M14 9h6v1h-6z"/><path class="st3" d="M20 8h-6c-.6 0-1 .4-1 1v1c0 .6.4 1 1 1h6c.6 0 1-.4 1-1V9c0-.6-.4-1-1-1zm0 2h-6V9h6v1z"/><path class="st2" d="M24 9h6v1h-6z"/><path class="st3" d="M27 8h-3c-.6 0-1 .4-1 1v1c0 .6.4 1 1 1h6c.6 0 1-.4 1-1V9c0-.6-.4-1-1-1h-3zm3 2h-6V9h6v1z"/></svg>