<?xml version="1.0" encoding="utf-8"?>
<!-- Generator: Adobe Illustrator 19.2.1, SVG Export Plug-In . SVG Version: 6.00 Build 0)  -->
<svg version="1.1" id="Layer_1_copy" xmlns="http://www.w3.org/2000/svg" xmlns:xlink="http://www.w3.org/1999/xlink" x="0px"
	 y="0px" viewBox="0 0 108 108" style="enable-background:new 0 0 108 108;" xml:space="preserve">
<style type="text/css">
	.st0{fill:#62C7CB;}
	.st1{fill:none;}
	.st2{fill:#FFFFFF;}
	.st3{fill:#C7E8EB;}
	.st4{fill:#010101;}
	.st5{fill:#030303;}
</style>
<g>
	<g>
		<circle class="st0" cx="54" cy="54" r="54"/>
	</g>
	<g>
		<path class="st1" d="M64.4,28.8c-0.2-0.4-0.4-0.8-0.6-1.2l2.3-3.7l-2.3,3.7C64,28,64.2,28.4,64.4,28.8z"/>
		<path class="st1" d="M66.1,44l-2.3-3.7c0.2-0.4,0.4-0.8,0.6-1.2c-0.2,0.4-0.4,0.8-0.6,1.2L66.1,44z"/>
		<polygon class="st1" points="43.8,82.6 49.7,76.7 43.8,82.6 		"/>
		<path class="st1" d="M72.1,76.4c0.5-0.2,1-0.4,1.4-0.8l17.7-17.7L73.5,75.6C73.1,75.9,72.6,76.2,72.1,76.4z"/>
		<ellipse transform="matrix(0.7071 -0.7071 0.7071 0.7071 -0.3737 65.8557)" class="st1" cx="79.3" cy="33.4" rx="0.6" ry="0.6"/>
		<path class="st2" d="M78.5,32.5c-0.5,0.5-0.5,1.2,0,1.7c0.5,0.5,1.2,0.5,1.7,0c0.5-0.5,0.5-1.2,0-1.7
			C79.7,32.1,78.9,32.1,78.5,32.5z M79.7,33c0.2,0.2,0.2,0.6,0,0.8s-0.6,0.2-0.8,0s-0.2-0.6,0-0.8S79.5,32.7,79.7,33z"/>
		<path class="st2" d="M75.5,27l0.6,1.9l0.6-1.9c0.1-0.4,0.4-0.6,0.7-0.7l1.9-0.6l-1.9-0.6c-0.4-0.1-0.6-0.4-0.7-0.7l-0.6-1.9
			l-0.6,1.9c-0.1,0.4-0.4,0.6-0.7,0.7l-1.9,0.6l1.9,0.6C75.2,26.4,75.4,26.7,75.5,27z M76.1,25.2c0.3,0,0.5,0.2,0.5,0.5
			c0,0.3-0.2,0.5-0.5,0.5c-0.3,0-0.5-0.2-0.5-0.5C75.6,25.4,75.8,25.2,76.1,25.2z"/>
		<circle class="st0" cx="76.1" cy="25.7" r="0.5"/>
		<rect x="30.7" y="75" transform="matrix(0.7071 -0.7071 0.7071 0.7071 -48.7176 49.3338)" class="st2" width="9" height="17"/>
		<path class="st3" d="M90.2,53c-0.4-0.1-0.7-0.2-1.1-0.2c-0.4,0-0.8,0.1-1.1,0.2c-0.4,0.1-0.7,0.4-1,0.7l-11.2,10
			c0.3,0.6,0.4,1.3,0.4,2c0,1.3-0.5,2.6-1.5,3.5c-1,0.9-2.2,1.5-3.6,1.5H58v0c0,0,0,0,0,0c0,0,0,0,0,0c-0.5,0-1-0.4-1-1s0.4-1,1-1
			c0,0,0,0,0,0c0,0,0,0,0,0v0h13c0.8,0,1.6-0.3,2.1-0.9c0.3-0.3,0.5-0.6,0.7-1c0.1-0.2,0.1-0.4,0.2-0.6c0-0.2,0.1-0.4,0.1-0.6v0
			c0,0,0,0,0,0c0-0.2,0-0.4-0.1-0.6c0-0.1,0-0.1-0.1-0.2c0-0.1-0.1-0.2-0.1-0.4c0-0.1-0.1-0.1-0.1-0.2c-0.1-0.1-0.1-0.2-0.2-0.3
			c0-0.1-0.1-0.1-0.2-0.2c-0.1-0.1-0.1-0.2-0.2-0.2c-0.1-0.1-0.2-0.2-0.3-0.2c-0.1,0-0.1-0.1-0.2-0.1c-0.1-0.1-0.2-0.1-0.3-0.2
			c-0.1,0-0.1-0.1-0.2-0.1c-0.1-0.1-0.3-0.1-0.4-0.1c-0.1,0-0.1,0-0.2-0.1c-0.2,0-0.4-0.1-0.6-0.1H53h-1h-0.3
			c-0.7,0-1.4,0.2-2.1,0.5c-0.4,0.2-0.8,0.5-1.2,0.8c-0.4,0.3-11.7,11.6-11.7,11.6l3.5,3.5l3.5,3.5l5.9-5.9l19.3,0
			c0.9,0,1.8,0,2.6-0.2c0.2,0,0.4-0.1,0.6-0.1c0.5-0.2,1-0.4,1.4-0.8l17.7-17.7c1.2-1.2,1.2-3.1,0-4.2C90.9,53.4,90.5,53.1,90.2,53z
			"/>
		<path class="st4" d="M92.6,52.2c-0.9-0.9-2.2-1.5-3.5-1.5c-1.3,0-2.6,0.5-3.5,1.4L74.5,62c-0.9-0.9-2.1-1.3-3.4-1.3H51.7
			c-2.9,0-4.9,2-6.3,3.4c-0.1,0.1-10.1,10.1-10.1,10.1c0,0-0.1,0.1-0.1,0.1l-1.4-1.4c-0.4-0.4-0.9-0.6-1.4-0.6s-1,0.2-1.4,0.6
			l-6.4,6.4c-0.8,0.8-0.8,2,0,2.8l12,12c0.4,0.4,0.9,0.6,1.4,0.6s1-0.2,1.4-0.6l6.4-6.4c0.8-0.8,0.8-2,0-2.8l-0.7-0.7
			c0,0,0.1,0,0.1-0.1l5.3-5.3l18.5,0c2,0,4.3-0.1,5.9-1.8l17.7-17.7C94.5,57.4,94.5,54.2,92.6,52.2z M38,92.7l-12-12l6.4-6.4l12,12
			L38,92.7z M91.2,57.9L73.5,75.6c-0.4,0.4-0.8,0.6-1.4,0.8c-0.2,0.1-0.4,0.1-0.6,0.1c-0.8,0.2-1.6,0.2-2.6,0.2l-19.3,0l-5.9,5.9h0
			l-3.5-3.5l-3.5-3.5c0,0,11.3-11.3,11.7-11.6c0.4-0.3,0.8-0.6,1.2-0.8c0.6-0.3,1.3-0.5,2.1-0.5H52h1h18c0.2,0,0.4,0,0.6,0.1
			c0.1,0,0.1,0,0.2,0.1c0.1,0,0.3,0.1,0.4,0.1c0.1,0,0.1,0.1,0.2,0.1c0.1,0.1,0.2,0.1,0.3,0.2c0.1,0,0.1,0.1,0.2,0.1
			c0.1,0.1,0.2,0.1,0.3,0.2c0.1,0.1,0.1,0.2,0.2,0.2c0.1,0.1,0.1,0.1,0.2,0.2c0.1,0.1,0.1,0.2,0.2,0.3c0,0.1,0.1,0.1,0.1,0.2
			c0,0.1,0.1,0.2,0.1,0.4c0,0.1,0,0.1,0.1,0.2c0,0.2,0.1,0.4,0.1,0.6c0,0,0,0,0,0v0c0,0.2,0,0.4-0.1,0.6c0,0.2-0.1,0.4-0.2,0.6
			c-0.2,0.4-0.4,0.7-0.7,1c-0.6,0.5-1.3,0.9-2.1,0.9H58v0c0,0,0,0,0,0c0,0,0,0,0,0c-0.6,0-1,0.4-1,1s0.4,1,1,1c0,0,0,0,0,0
			c0,0,0,0,0,0v0h13c1.3,0,2.6-0.5,3.6-1.5c1-0.9,1.5-2.2,1.5-3.5c0-0.7-0.2-1.4-0.4-2l11.2-10c0.3-0.3,0.6-0.5,1-0.7
			c0.4-0.1,0.7-0.2,1.1-0.2c0.4,0,0.8,0.1,1.1,0.2c0.4,0.1,0.7,0.4,1,0.7C92.3,54.8,92.3,56.7,91.2,57.9z"/>
		<path class="st3" d="M64.2,23.8l-2.2,3.6c0.4,0.7,0.7,1.5,1,2.3c0,0,0,0.1,0,0.1l3.2,0.8c0,3,0,2.5,0,5.6L62.9,37c0,0,0,0.1,0,0.1
			c-0.2,0.8-0.6,1.6-1,2.3l2.2,3.6c-2.1,2.1-1,1-3.2,3.2l-3.4-1.9c-0.8,0.7-2.5,1.1-3.3,1.4c0,0-0.1,0-0.1,0l-0.8,3.2
			c-2.7,0-2.6,0-4.6,0l0.3,1.3c3.2,0,2.6,0,5.8,0l0.8-3.4c0,0,0.1,0,0.1,0c0.9-0.3,1.7-0.6,2.5-1l3.7,2.3c0.6-0.6,1-1,1.3-1.3
			c0.3-0.3,0.5-0.5,0.8-0.8c0.1-0.1,0.2-0.2,0.4-0.4c0.3-0.3,0.5-0.5,1-1c0.2-0.2,0.4-0.4,0.7-0.7l-2.3-3.7c0.2-0.4,0.4-0.8,0.6-1.2
			c0.2-0.4,0.3-0.8,0.4-1.3c0,0,0-0.1,0-0.1l3.4-0.8c0-3.2,0-2.6,0-5.8l-3.4-0.8c0,0,0-0.1,0-0.1c-0.1-0.4-0.3-0.8-0.4-1.3
			c-0.2-0.4-0.4-0.8-0.6-1.2l2.3-3.7c-1.4-1.4-1.8-1.8-2.4-2.4c-0.4-0.4-0.9-0.9-1.7-1.7l-1.1,0.7C62.4,21.9,62.3,21.9,64.2,23.8z"
			/>
		<path class="st3" d="M41.2,47.3C41.2,47.4,41.2,47.4,41.2,47.3c0.3,0.3,0.5,0.5,0.8,0.8l3.7-2.3c-0.4-0.2-0.8-0.4-1.1-0.5
			L41.2,47.3z"/>
		<path class="st5" d="M35.3,38.8l2.3,0.6c0.1,0.3,0.2,0.5,0.3,0.8l-1.8,2.8c-0.5,0.8-0.4,1.8,0.3,2.5L39,48l1.6,1.6
			c0.4,0.4,0.9,0.6,1.4,0.6c0.4,0,0.7-0.1,1.1-0.3l2.8-1.8c0.3,0.1,0.5,0.2,0.8,0.3l0.6,2.3c0.2,0.9,1,1.5,1.9,1.5h5.8
			c0.9,0,1.7-0.6,1.9-1.5l0.6-2.3c0.3-0.1,0.5-0.2,0.8-0.3l2.8,1.8c0.3,0.2,0.7,0.3,1.1,0.3c0.5,0,1-0.2,1.4-0.6L65,48l2.5-2.5
			c0.7-0.7,0.8-1.7,0.3-2.5l-1.8-2.8c0.1-0.3,0.2-0.5,0.3-0.8l2.3-0.6c0.9-0.2,1.5-1,1.5-1.9v-5.8c0-0.9-0.6-1.7-1.5-1.9l-2.3-0.6
			c-0.1-0.3-0.2-0.5-0.3-0.8l1.8-2.8c0.5-0.8,0.4-1.8-0.3-2.5l-3.1-3.1l-1-1c-0.4-0.4-0.9-0.6-1.4-0.6c-0.4,0-0.7,0.1-1.1,0.3
			l-2.8,1.8c-0.3-0.1-0.5-0.2-0.8-0.3l-0.6-2.3c-0.2-0.9-1-1.5-1.9-1.5h-5.8c-0.9,0-1.7,0.6-1.9,1.5l-0.6,2.3
			c-0.3,0.1-0.5,0.2-0.8,0.3L43,18.1c-0.3-0.2-0.7-0.3-1.1-0.3c-0.5,0-1,0.2-1.4,0.6l-1,1l-3.1,3.1c-0.7,0.7-0.8,1.7-0.3,2.5
			l1.8,2.8c-0.1,0.3-0.2,0.5-0.3,0.8l-2.3,0.6c-0.9,0.2-1.5,1-1.5,1.9v5.8C33.8,37.8,34.4,38.6,35.3,38.8z M35.8,31.1l3.4-0.8
			c0,0,0-0.1,0-0.1c0.3-0.9,0.6-1.7,1-2.5l-2.3-3.7c0.8-0.8,1.3-1.3,1.7-1.7c0.6-0.6,1-1,2.4-2.4l3.7,2.3c0.4-0.2,0.8-0.4,1.2-0.6
			c0.4-0.2,0.8-0.3,1.3-0.4c0,0,0.1,0,0.1,0l0.8-3.4c3.2,0,2.6,0,5.8,0l0.8,3.4c0,0,0.1,0,0.1,0c0.4,0.1,0.8,0.3,1.3,0.4
			c0.4,0.2,0.8,0.4,1.2,0.6l2.6-1.7l1.1-0.7c0.8,0.8,1.3,1.3,1.7,1.7c0.6,0.6,1,1,2.4,2.4l-2.3,3.7c0.2,0.4,0.4,0.8,0.6,1.2
			c0.2,0.4,0.3,0.8,0.4,1.3c0,0,0,0.1,0,0.1l3.4,0.8c0,3.2,0,2.6,0,5.8l-3.4,0.8c0,0,0,0.1,0,0.1c-0.1,0.4-0.3,0.8-0.4,1.3
			c-0.2,0.4-0.4,0.8-0.6,1.2l2.3,3.7c-0.3,0.3-0.5,0.5-0.7,0.7c-0.4,0.4-0.7,0.7-1,1c-0.1,0.1-0.2,0.2-0.4,0.4
			c-0.2,0.2-0.5,0.5-0.8,0.8c-0.3,0.3-0.7,0.7-1.3,1.3l-3.7-2.3c-0.8,0.4-1.6,0.8-2.5,1c0,0-0.1,0-0.1,0l-0.8,3.4
			c-3.2,0-2.6,0-5.8,0l-0.3-1.3l-0.5-2.1c0,0-0.1,0-0.1,0c-0.4-0.1-0.8-0.3-1.2-0.4c-0.1,0-0.1,0-0.2-0.1c-0.4-0.2-0.7-0.3-1.1-0.5
			l0,0L42,48.1c-0.3-0.3-0.5-0.5-0.7-0.7c0,0,0,0,0,0c-0.3-0.3-0.5-0.5-0.7-0.7c-0.1-0.1-0.3-0.3-0.4-0.4c-0.2-0.2-0.3-0.3-0.5-0.5
			c-0.3-0.3-0.5-0.5-1-1c-0.2-0.2-0.4-0.4-0.7-0.7l2.3-3.7c-0.2-0.4-0.4-0.8-0.6-1.2s-0.3-0.8-0.4-1.3c0,0,0-0.1,0-0.1l-3.4-0.8
			C35.8,33.7,35.8,34.2,35.8,31.1z"/>
		<g>
			<path class="st2" d="M39.2,37.8c0.1,0.4,0.3,0.8,0.4,1.3s0.4,0.8,0.6,1.2L37.9,44c0.3,0.3,0.5,0.5,0.7,0.7c0.4,0.4,0.7,0.7,1,1
				c0.2,0.2,0.4,0.4,0.5,0.5c0.1,0.1,0.3,0.3,0.4,0.4c0.2,0.2,0.4,0.4,0.7,0.7l3.4-2.1c0.3,0.1,0.7,0.3,1.1,0.5l0,0
				c0.4,0.2,0.7,0.4,1.1,0.5c0.1,0,0.1,0,0.2,0.1c0.4,0.2,0.8,0.3,1.2,0.4c0,0,0.1,0,0.1,0l0.5,2.1c2,0,2,0,4.6,0l0.8-3.2
				c0,0,0.1,0,0.1,0c0.8-0.2,2.4-0.7,3.3-1.4l3.4,1.9c2.1-2.1,1-1,3.2-3.2l-2.2-3.6c0.4-0.7,0.7-1.5,1-2.3c0,0,0-0.1,0-0.1l3.2-0.8
				c0-3,0-2.5,0-5.6l-3.2-0.8c0,0,0-0.1,0-0.1c-0.2-0.8-0.6-1.6-1-2.3l2.2-3.6c-1.9-1.9-1.8-1.8-3.2-3.2l-2.6,1.7
				c-0.4-0.2-0.8-0.4-1.2-0.6c-0.4-0.2-0.8-0.3-1.3-0.4c0,0-0.1,0-0.1,0l-0.8-3.4c-3.2,0-2.6,0-5.8,0l-0.8,3.4c0,0-0.1,0-0.1,0
				c-0.4,0.1-0.8,0.3-1.3,0.4c-0.4,0.2-0.8,0.4-1.2,0.6L42,19.8c-1.4,1.4-1.8,1.8-2.4,2.4c-0.4,0.4-0.9,0.9-1.7,1.7l2.3,3.7
				c-0.4,0.8-0.8,1.6-1,2.5c0,0,0,0.1,0,0.1l-3.4,0.8c0,3.2,0,2.6,0,5.8l3.4,0.8C39.2,37.8,39.2,37.8,39.2,37.8z M52,26.1
				c4.4,0,7.9,3.5,7.9,7.9s-3.5,7.9-7.9,7.9s-7.9-3.5-7.9-7.9S47.6,26.1,52,26.1z"/>
		</g>
		<circle class="st0" cx="52" cy="34" r="5.9"/>
		<path class="st5" d="M52,41.9c4.4,0,7.9-3.5,7.9-7.9s-3.5-7.9-7.9-7.9s-7.9,3.5-7.9,7.9S47.6,41.9,52,41.9z M52,28.1
			c3.3,0,5.9,2.6,5.9,5.9c0,3.3-2.6,5.9-5.9,5.9s-5.9-2.6-5.9-5.9C46.1,30.7,48.7,28.1,52,28.1z"/>
	</g>
</g>
</svg>
