<?xml version="1.0" encoding="utf-8"?>
<!-- Generator: Adobe Illustrator 19.2.1, SVG Export Plug-In . SVG Version: 6.00 Build 0)  -->
<svg version="1.1" id="Layer_1" xmlns="http://www.w3.org/2000/svg" xmlns:xlink="http://www.w3.org/1999/xlink" x="0px" y="0px"
	 viewBox="0 0 243 243" style="enable-background:new 0 0 243 243;" xml:space="preserve">
<style type="text/css">
	.st0{fill:#F8C02C;}
	.st1{fill:none;}
	.st2{fill:#FFFFFF;}
	.st3{fill:#F7BF2D;}
	.st4{fill:#FFDF99;}
	.st5{fill:#010101;}
</style>
<g>
	<circle class="st0" cx="121.5" cy="121.5" r="121.5"/>
	<g>
		<path class="st1" d="M191,126.1c-1,2.4-2.3,4.6-3.7,6.8C188.9,130.7,190.1,128.5,191,126.1z"/>
		<path class="st1" d="M106.6,183.6l-1.9-1.1C105.3,183,105.9,183.4,106.6,183.6z"/>
		<path class="st1" d="M102.2,178.2c0.2,1.4,0.7,2.8,1.8,3.9c0,0,0,0,0,0L102.2,178.2z"/>
		<ellipse transform="matrix(0.7071 -0.7072 0.7072 0.7071 -16.309 93.5795)" class="st1" cx="104.8" cy="66.5" rx="1.3" ry="1.3"/>
		<path class="st1" d="M125.1,113.1l-1.6,2.7C124.4,115.1,124.8,114.1,125.1,113.1z"/>
		<path class="st1" d="M118.4,122.3c-0.1,0-0.1,0-0.2,0L118.4,122.3L118.4,122.3z"/>
		<ellipse transform="matrix(0.3895 -0.921 0.921 0.3895 10.4044 163.0875)" class="st2" cx="128.2" cy="73.7" rx="2.3" ry="2.3"/>
		<path class="st2" d="M106.7,68.4c1.1-1.1,1.1-2.8,0-3.8s-2.8-1.1-3.8,0s-1.1,2.8,0,3.8S105.6,69.4,106.7,68.4z M103.8,65.5
			c0.5-0.5,1.4-0.5,1.9,0c0.5,0.5,0.5,1.4,0,1.9s-1.4,0.5-1.9,0S103.3,66,103.8,65.5z"/>
		<path class="st2" d="M113.9,48.4l1.7,5.5l1.7-5.5c0.3-1,1.1-1.9,2.2-2.2l5.5-1.7l-5.5-1.7c-1-0.3-1.9-1.1-2.2-2.2l-1.7-5.5
			l-1.7,5.5c-0.3,1-1.1,1.9-2.2,2.2l-5.5,1.7l5.5,1.7C112.7,46.5,113.5,47.4,113.9,48.4z M115.6,42.9c0.9,0,1.6,0.7,1.6,1.6
			s-0.7,1.6-1.6,1.6s-1.6-0.7-1.6-1.6S114.7,42.9,115.6,42.9z"/>
		<circle class="st3" cx="115.6" cy="44.5" r="1.6"/>
		<path class="st2" d="M148.1,61.1l0.9,2.8l0.9-2.8c0.2-0.5,0.6-0.9,1.1-1.1l2.8-0.9l-2.8-0.9c-0.5-0.2-0.9-0.6-1.1-1.1l-0.9-2.8
			l-0.9,2.8c-0.2,0.5-0.6,0.9-1.1,1.1l-2.8,0.9L147,60C147.5,60.1,148,60.6,148.1,61.1z M149,58.3c0.4,0,0.8,0.4,0.8,0.8
			c0,0.4-0.4,0.8-0.8,0.8c-0.4,0-0.8-0.4-0.8-0.8C148.2,58.7,148.5,58.3,149,58.3z"/>
		<circle class="st3" cx="149" cy="59.1" r="0.8"/>
		<path class="st4" d="M59.4,137.5l12.8,12.8c0.3-2.4,1.4-4.7,3.1-6.4l30.2-30.2l-3-3c-2.7,1.6-5.7,2.5-9,2.5
			c-4.8,0-9.3-1.9-12.7-5.2l-3.5-3.5l3.2-3.2l3.5,3.5c2.6,2.6,6.1,3.9,9.5,3.9c3.4,0,6.8-1.3,9.4-3.9l3.2,3.2c0,0,0,0,0,0l7.9,7.9
			c1.3,1.3,3,2,4.8,2c1.7,0,3.5-0.7,4.8-2l1.6-2.7c0.7-2.3,0.3-5-1.6-6.8l-8.7-8.7c0,0,0-0.1,0-0.1l-7.7-7.7
			c-6.6-6.6-15.2-9.8-23.9-9.8S66,83.2,59.4,89.8C46.3,102.9,46.3,124.4,59.4,137.5z M77.4,101.3c0.9-0.9,2.3-0.9,3.2,0l-3.2,3.2
			C76.5,103.6,76.5,102.1,77.4,101.3z"/>
		<path class="st4" d="M45.1,111.5L45.1,111.5C45.1,111.5,45.1,111.5,45.1,111.5L45.1,111.5z"/>
		<path class="st5" d="M80.6,101.3c-0.9-0.9-2.3-0.9-3.2,0c-0.9,0.9-0.9,2.3,0,3.2L80.6,101.3z"/>
		<path class="st2" d="M104.7,182.5l1.9,1.1c0.3,0.1,0.6,0.1,1,0.2c0.5-1.8,1.4-3.5,2.8-4.9c2.6-2.6,6.2-3.6,9.6-3.1
			c-0.5-3.4,0.5-7,3.1-9.6c2.6-2.6,6.2-3.6,9.6-3.1c-0.5-3.4,0.5-7,3.1-9.6c2.6-2.6,6.2-3.6,9.6-3.1c-0.5-3.4,0.5-7,3.1-9.6
			c4.4-4.4,11.5-4.4,15.9,0l3.2,3.2c1.8,1.8,2.8,4,3.1,6.4l12.8-12.8c1.4-1.4,2.7-3,3.8-4.6c1.4-2.2,2.6-4.4,3.7-6.8
			c4.8-12.1,2.3-26.5-7.5-36.3c-6.6-6.6-15.2-9.8-23.9-9.8s-17.3,3.3-23.9,9.8L124.6,101l2.1,2.1c2.1,2.1,3.3,4.9,3.3,8
			s-1.2,5.8-3.3,8c-2.1,2.1-4.9,3.3-8,3.3c-0.1,0-0.3,0-0.4,0l-0.1,0l-0.1-0.1c-2.8-0.1-5.4-1.2-7.4-3.2l-2.1-2.1l-30.2,30.2
			c-2.6,2.6-2.6,6.9,0,9.5c1.3,1.3,3,2,4.8,2c1.7,0,3.5-0.7,4.8-2l28.9-28.9l0,0c0.9-0.9,2.3-0.9,3.2,0c0.9,0.9,0.9,2.3,0,3.2l0,0
			l0,0c0,0,0,0,0,0l0,0l-28.9,28.9c-2.6,2.6-2.6,6.9,0,9.5c1.3,1.3,3,2,4.8,2c1.7,0,3.5-0.7,4.8-2l28.9-28.9l0,0
			c0.9-0.9,2.3-0.9,3.2,0c0.9,0.9,0.9,2.3,0,3.2l0,0l0,0l0,0l0,0L104,172.5c-1.5,1.5-2.1,3.6-1.8,5.7l1.8,3.9
			C104.2,182.3,104.4,182.3,104.7,182.5z"/>
		<path class="st2" d="M88.1,172.5L88.1,172.5C88.1,172.5,88.1,172.5,88.1,172.5L88.1,172.5z"/>
		<polygon class="st2" points="159.7,75.4 159.7,75.4 159.7,75.4 		"/>
		<path class="st2" d="M74.4,158.6v0.2v0.2l0.4,0C74.6,158.9,74.5,158.8,74.4,158.6z"/>
		<path class="st5" d="M186.7,86.6c-7.2-7.2-16.8-11.2-27-11.2c0,0,0,0,0,0l0,0c-10.2,0-19.8,4-27,11.2l-11.2,11.2l-11.2-11.2
			c-7.2-7.2-16.8-11.2-27-11.2s-19.8,4-27,11.2c-6.9,6.9-10.6,15.8-11.1,24.9c0,0,0,0,0,0.1c-0.6,10.5,3.1,21.2,11.1,29.1l18.2,18.2
			v-0.2c0.1,0.2,0.2,0.3,0.4,0.5c0.2,0.2,0.4,0.5,0.6,0.7c2.1,2.1,4.9,3.3,8,3.3c0.6,0,1.1-0.1,1.6-0.2c-0.1,0.5-0.2,1.1-0.2,1.6
			c0,3,1.2,5.8,3.3,8c0,0,0,0,0,0c0,0,0,0,0,0c2.1,2.1,4.9,3.3,7.9,3.3c0.6,0,1.1-0.1,1.6-0.2c-0.1,0.5-0.2,1.1-0.2,1.6
			c0,3,1.2,5.8,3.3,8c1.7,1.7,4,2.8,6.4,3.1c0.3,2.4,1.3,4.7,3.1,6.5l3.2,3.2c4.4,4.4,11.5,4.4,15.9,0c2.6-2.6,3.6-6.2,3.1-9.6
			c3.4,0.5,7-0.5,9.6-3.1c2.6-2.6,3.6-6.2,3.1-9.6c3.4,0.5,7-0.5,9.6-3.1s3.6-6.2,3.1-9.6c3.4,0.5,7-0.5,9.6-3.1
			c0.1-0.1,0.1-0.2,0.2-0.2l18.9-18.9C201.6,125.8,201.6,101.5,186.7,86.6z M59.4,89.8c6.6-6.6,15.2-9.8,23.9-9.8s17.3,3.3,23.9,9.8
			l7.7,7.7c0,0,0,0.1,0,0.1l8.7,8.7c1.8,1.8,2.3,4.5,1.6,6.8c-0.3,1-0.8,1.9-1.6,2.7c-1.3,1.3-3,2-4.8,2c-1.7,0-3.5-0.7-4.8-2
			l-7.9-7.9c0,0,0,0,0,0l-3.2-3.2c-2.6,2.6-6,3.9-9.4,3.9c-3.4,0-6.9-1.3-9.5-3.9l-3.5-3.5l-3.2,3.2l3.5,3.5
			c3.4,3.4,7.9,5.2,12.7,5.2c3.2,0,6.3-0.9,9-2.5l3,3l-30.2,30.2c-1.8,1.8-2.8,4-3.1,6.4l-12.8-12.8
			C46.3,124.4,46.3,102.9,59.4,89.8z M102.2,178.2c-0.3-2,0.3-4.1,1.8-5.7l28.9-28.9l0,0l0,0l0,0l0,0c0.9-0.9,0.9-2.3,0-3.2
			c-0.9-0.9-2.3-0.9-3.2,0l0,0l-28.9,28.9c-1.3,1.3-3,2-4.8,2c-1.7,0-3.5-0.7-4.8-2c-2.6-2.6-2.6-6.9,0-9.5l28.9-28.9l0,0
			c0,0,0,0,0,0l0,0l0,0c0.9-0.9,0.9-2.3,0-3.2c-0.9-0.9-2.3-0.9-3.2,0l0,0l-28.9,28.9c-1.3,1.3-3,2-4.8,2c-1.7,0-3.5-0.7-4.8-2
			c-2.6-2.6-2.6-6.9,0-9.5l30.2-30.2l2.1,2.1c2,2,4.6,3.1,7.4,3.2c0.1,0,0.1,0,0.2,0c0.1,0,0.3,0,0.4,0c3,0,5.8-1.2,8-3.3
			c2.1-2.1,3.3-4.9,3.3-8s-1.2-5.8-3.3-8l-2.1-2.1l11.2-11.2c6.6-6.6,15.2-9.8,23.9-9.8s17.3,3.3,23.9,9.8
			c9.8,9.8,12.3,24.1,7.5,36.3c-0.9,2.4-2.2,4.7-3.7,6.8c-1.1,1.6-2.4,3.2-3.8,4.6l-12.8,12.8c-0.3-2.3-1.3-4.6-3.1-6.4l-3.2-3.2
			c-4.4-4.4-11.5-4.4-15.9,0c-2.6,2.6-3.6,6.2-3.1,9.6c-3.4-0.5-7,0.5-9.6,3.1c-2.6,2.6-3.6,6.2-3.1,9.6c-3.4-0.5-7,0.5-9.6,3.1
			c-2.6,2.6-3.6,6.2-3.1,9.6c-3.4-0.5-7,0.5-9.6,3.1c-1.4,1.4-2.3,3.1-2.8,4.9c-0.3-0.1-0.7-0.1-1-0.2c-0.7-0.2-1.3-0.6-1.9-1.1
			c-0.2-0.2-0.4-0.2-0.6-0.4c0,0,0,0,0,0C102.9,181,102.4,179.6,102.2,178.2z M116.7,194.9l-3.2-3.2c-2.6-2.6-2.6-6.9,0-9.5
			c2.6-2.6,6.9-2.6,9.5,0l3.2,3.2c2.6,2.6,2.6,6.9,0,9.5S119.3,197.5,116.7,194.9z M129.4,182.1l-3.2-3.2c-2.6-2.6-2.6-6.9,0-9.5
			c2.6-2.6,6.9-2.6,9.5,0l3.2,3.2c2.6,2.6,2.6,6.9,0,9.5C136.4,184.7,132.1,184.7,129.4,182.1z M151.7,169.4c-2.6,2.6-6.9,2.6-9.5,0
			l-3.2-3.2c-2.6-2.6-2.6-6.9,0-9.5s6.9-2.6,9.5,0l3.2,3.2C154.3,162.5,154.3,166.8,151.7,169.4z M154.9,156.7l-3.2-3.2
			c-2.6-2.6-2.6-6.9,0-9.5s6.9-2.6,9.5,0l3.2,3.2c2.6,2.6,2.6,6.9,0,9.5S157.5,159.3,154.9,156.7z"/>
		<path class="st4" d="M164.4,147.1l-3.2-3.2c-2.6-2.6-6.9-2.6-9.5,0s-2.6,6.9,0,9.5l3.2,3.2c2.6,2.6,6.9,2.6,9.5,0
			S167.1,149.7,164.4,147.1z"/>
		<path class="st4" d="M151.7,159.8l-3.2-3.2c-2.6-2.6-6.9-2.6-9.5,0s-2.6,6.9,0,9.5l3.2,3.2c2.6,2.6,6.9,2.6,9.5,0
			C154.3,166.8,154.3,162.5,151.7,159.8z"/>
		<path class="st4" d="M139,172.6l-3.2-3.2c-2.6-2.6-6.9-2.6-9.5,0c-2.6,2.6-2.6,6.9,0,9.5l3.2,3.2c2.6,2.6,6.9,2.6,9.5,0
			C141.6,179.5,141.6,175.2,139,172.6z"/>
		<path class="st4" d="M126.3,194.9c2.6-2.6,2.6-6.9,0-9.5l-3.2-3.2c-2.6-2.6-6.9-2.6-9.5,0c-2.6,2.6-2.6,6.9,0,9.5l3.2,3.2
			C119.3,197.5,123.6,197.5,126.3,194.9z"/>
	</g>
</g>
</svg>
