<?xml version="1.0" encoding="utf-8"?>
<!-- Generator: Adobe Illustrator 16.0.4, SVG Export Plug-In . SVG Version: 6.00 Build 0)  -->
<!DOCTYPE svg PUBLIC "-//W3C//DTD SVG 1.1//EN" "http://www.w3.org/Graphics/SVG/1.1/DTD/svg11.dtd">
<svg version="1.1" id="Layer_1" xmlns="http://www.w3.org/2000/svg" xmlns:xlink="http://www.w3.org/1999/xlink" x="0px" y="0px"
	 width="17.998px" height="11.998px" viewBox="0 0 17.998 11.998" enable-background="new 0 0 17.998 11.998" xml:space="preserve">
<path fill="#F8C02C" d="M15.998,0H2C0.896,0,0,0.896,0,2v7.998c0,1.104,0.896,2,2,2h13.998c1.104,0,2-0.896,2-2V2
	C17.998,0.896,17.103,0,15.998,0z M14.278,2L8.978,5.786L3.27,2H14.278z M2,9.998v-6.44l6.446,4.275C8.614,7.944,8.807,8,8.999,8
	C9.203,8,9.406,7.938,9.58,7.813l6.418-4.585v6.77H2z"/>
</svg>
