<?xml version="1.0" encoding="utf-8"?>
<!-- Generator: Adobe Illustrator 16.0.4, SVG Export Plug-In . SVG Version: 6.00 Build 0)  -->
<!DOCTYPE svg PUBLIC "-//W3C//DTD SVG 1.1//EN" "http://www.w3.org/Graphics/SVG/1.1/DTD/svg11.dtd">
<svg version="1.1" id="Layer_1" xmlns="http://www.w3.org/2000/svg" xmlns:xlink="http://www.w3.org/1999/xlink" x="0px" y="0px"
	 width="19.714px" height="11px" viewBox="0 0 19.714 11" enable-background="new 0 0 19.714 11" xml:space="preserve">
<path d="M14.214,0H4C1.794,0,0,1.794,0,4s1.794,4,4,4h7.214c1.379,0,2.5-1.121,2.5-2.5S12.593,3,11.214,3c0,0-5.398,0-5.5,0
	c-0.553,0-1,0.447-1,1s0.447,1,1,1c0.102,0,5.5,0,5.5,0c0.276,0,0.5,0.224,0.5,0.5S11.49,6,11.214,6H4C2.896,6,2,5.104,2,4
	s0.896-2,2-2h10.214c1.933,0,3.5,1.567,3.5,3.5S16.146,9,14.214,9h-7.5c-0.553,0-1,0.447-1,1s0.447,1,1,1h7.5
	c3.033,0,5.5-2.467,5.5-5.5S17.247,0,14.214,0z"/>
</svg>
