<?xml version="1.0" encoding="utf-8"?>
<!-- Generator: Adobe Illustrator 19.2.1, SVG Export Plug-In . SVG Version: 6.00 Build 0)  -->
<svg version="1.1" id="Layer_1" xmlns="http://www.w3.org/2000/svg" xmlns:xlink="http://www.w3.org/1999/xlink" x="0px" y="0px"
	 viewBox="0 0 54 54" style="enable-background:new 0 0 54 54;" xml:space="preserve">
<style type="text/css">
	.st0{fill:#62C7CB;}
	.st1{fill:none;}
	.st2{fill:#010101;}
	.st3{fill:#FFFFFF;}
	.st4{fill:#C7E8EB;}
</style>
<g>
	<circle class="st0" cx="27" cy="27" r="27"/>
</g>
<g>
	<rect x="31" y="31.1" class="st1" width="3" height="6"/>
	<rect x="18" y="31.1" class="st1" width="4" height="6"/>
	<ellipse transform="matrix(0.7071 -0.7072 0.7072 0.7071 -9.5683 10.2604)" class="st1" cx="7.6" cy="16.7" rx="0.3" ry="0.3"/>
	<rect x="9" y="34.1" class="st1" width="1" height="3"/>
	<rect x="43" y="34.1" class="st1" width="3" height="3"/>
	<path class="st2" d="M49,37.1h-2v-3h0.1c0.6,0,0.9-0.4,0.9-1v-5.6c0-1.5-0.8-2.8-2.1-3.4c0.6-0.5,1.1-1.2,1.1-2.1
		c0-1.4-1.2-2.6-2.6-2.6s-2.6,1.2-2.6,2.6c0,0.8,0.6,1.6,1.2,2.1c-1.3,0.6-2,1.9-2,3.4v5.6c0,0.6,0.1,1,0.7,1H42v3h-7v-6h3
		c0.3,0,0.7-0.2,0.8-0.5c0.2-0.3,0.2-0.7,0.1-1l-5.5-11.4c1.8-0.4,3.1-2,3.1-3.9c0-2.2-1.8-4-4-4s-4,1.8-4,4c0,1.9,1.3,3.5,3.1,3.9
		L26,29.6c-0.2,0.3-0.1,0.7,0.1,1c0.2,0.3,0.5,0.5,0.8,0.5H30v6h-7v-6h1c0.6,0,1-0.4,1-1v-7.7c0-2-1.2-3.8-3-4.6c1.2-0.7,2-2,2-3.4
		c0-2.2-1.8-4-4-4s-4,1.8-4,4c0,1.5,0.8,2.7,2,3.4c-1.8,0.8-3,2.5-3,4.6v7.7c0,0.6,0.4,1,1,1h1v6h-6v-3h2.3c0.3,0,0.7-0.2,0.8-0.5
		c0.2-0.3,0.2-0.6,0.1-1l-3.8-8.1c0-0.1-0.1-0.1-0.1-0.2c1-0.3,1.7-1.2,1.7-2.3c0-1.4-1.1-2.5-2.5-2.5c-1.4,0-2.5,1.1-2.5,2.5
		c0,1.1,0.7,2,1.7,2.3c0,0.1-0.1,0.1-0.1,0.2l-3.8,8.1c-0.1,0.3-0.1,0.7,0.1,1c0.2,0.3,0.5,0.5,0.8,0.5H8v3H5.5
		c-0.3,0-0.5,0.2-0.5,0.5s0.2,0.5,0.5,0.5h3.3h1.5H18h4h9.3h2.2H43h2.7H49c0.3,0,0.5-0.2,0.5-0.5S49.3,37.1,49,37.1z M8.1,22
		c0-0.8,0.6-1.5,1.5-1.5c0.8,0,1.5,0.6,1.5,1.5c0,0.8-0.6,1.5-1.5,1.5C8.7,23.5,8.1,22.8,8.1,22z M5.8,33.1l3.1-6.7l0,0l0.7-1.2
		l3.8,8h-0.2h0.2h-3H8.8H5.8z M9,37.1v-3h1v3H9z M17,14.4c0-1.7,1.3-3,3-3s3,1.3,3,3s-1.3,3-3,3S17,16,17,14.4z M16,30.1
		c0,0,0-5.5,0-7.7c0-2,1.5-3.6,3.4-3.9c0.2,0,0.4-0.1,0.6-0.1c2.2,0,4,1.8,4,4s0,7.7,0,7.7c0,0.2,0,0,0,0h-1.3c-0.2,0-0.4,0-0.7,0
		h-4H16z M18,37.1v-6h4v6H18z M29.5,14.4c0-1.7,1.3-3,3-3s3,1.3,3,3s-1.3,3-3,3S29.5,16,29.5,14.4z M26.9,30.1l5.5-11.5L38,30.1h-2
		h-2.4h-2.2H26.9z M31,37.1v-6h3v6H31z M44.4,20.4c0.9,0,1.6,0.7,1.6,1.6c0,0.9-0.7,1.6-1.6,1.6c-0.9,0-1.6-0.7-1.6-1.6
		C42.8,21.2,43.5,20.4,44.4,20.4z M42,33.1c0,0,0-4.1,0-5.6c0-1.3,0.7-2.4,1.9-2.4l0,0h-0.1c0.1,0,0.1-0.2,0.2-0.2
		c0.1,0,0.3-0.1,0.4-0.1c1.3,0,2.3,0.9,2.6,2.1c0,0.2,0,0.3,0,0.5c0,1.3,0,4.7,0,5.4c0,0.1,0,0.2,0,0.2h-1.2H43H42z M43,37.1v-3h3v3
		H43z"/>
	<polygon class="st3" points="33.6,30.1 36,30.1 31.5,20.7 32.5,18.6 26.9,30.1 31.3,30.1 	"/>
	<g>
		<polygon class="st4" points="36,30.1 38,30.1 32.5,18.6 31.5,20.7 		"/>
	</g>
	<circle class="st4" cx="20" cy="14.4" r="3"/>
	<path class="st3" d="M22,30.1c0-1.2,0-5.8,0-7.7c0-1.9-1.3-3.4-3-3.9c0.1,0,0.3-0.1,0.4-0.1c-1.9,0.3-3.4,1.9-3.4,3.9
		c0,2.2,0,7.7,0,7.7h2H22z"/>
	<g>
		<path class="st4" d="M22,22.4c0,1.9,0,6.6,0,7.7c0.3,0,0.5,0,0.7,0H24c0,0,0,0.2,0,0c0,0,0-5.5,0-7.7s-1.8-4-4-4
			c-0.2,0-0.4,0-0.6,0.1c-0.1,0-0.3,0-0.4,0.1C20.7,18.9,22,20.5,22,22.4z"/>
	</g>
	<circle class="st4" cx="32.5" cy="14.4" r="3"/>
	<polygon class="st3" points="10.3,33.1 13.3,33.1 13.2,33.1 12,33.1 8.9,26.5 5.8,33.1 8.8,33.1 	"/>
	<g>
		<polygon class="st4" points="13.2,33.1 13.3,33.1 9.5,25.1 8.9,26.4 8.9,26.6 12,33.1 		"/>
	</g>
	<circle class="st4" cx="44.4" cy="22" r="1.6"/>
	<path class="st3" d="M43.7,24.8c0.1,0,0.2,0,0.3-0.1C43.9,24.8,43.8,24.8,43.7,24.8z"/>
	<path class="st3" d="M45.8,33.1H47l0,0h-1c0,0,0-4.1,0-5.6c0-1.3-0.8-2.3-2-2.6c-1.2,0.3-2,1.4-2,2.6c0,1.5,0,5.6,0,5.6h1H45.8z"/>
	<g>
		<path class="st4" d="M46,27.5c0,1.5,0,5.6,0,5.6h1c0-1,0-4.3,0-5.6c0-0.2,0-0.4,0-0.5c-0.3-1.2-1.3-2.2-2.6-2.2
			c-0.1,0-0.3,0.1-0.4,0.2c-0.1,0-0.2,0.2-0.3,0.2h0.1l0,0C45,25.1,46,26.2,46,27.5z"/>
	</g>
	<circle class="st4" cx="9.5" cy="22" r="1.5"/>
	<ellipse transform="matrix(0.3895 -0.921 0.921 0.3895 12.2077 49.5711)" class="st3" cx="43.5" cy="15.6" rx="0.5" ry="0.5"/>
	<ellipse transform="matrix(0.3895 -0.921 0.921 0.3895 11.293 46.2005)" class="st3" cx="40.5" cy="14.6" rx="0.5" ry="0.5"/>
	<path class="st3" d="M8,17.1c0.2-0.2,0.2-0.6,0-0.8c-0.2-0.2-0.6-0.2-0.8,0s-0.2,0.6,0,0.8S7.8,17.3,8,17.1z M7.4,16.5
		c0.1-0.1,0.3-0.1,0.4,0s0.1,0.3,0,0.4c-0.1,0.1-0.3,0.1-0.4,0C7.3,16.8,7.3,16.6,7.4,16.5z"/>
	<path class="st3" d="M12.2,16.7l0.3,0.9l0.3-0.9c0.1-0.2,0.2-0.3,0.4-0.4l0.9-0.3l-0.9-0.3c-0.2-0.1-0.3-0.2-0.4-0.4l-0.3-0.9
		l-0.3,0.9c-0.1,0.2-0.2,0.3-0.4,0.4L10.9,16l0.9,0.3C12,16.4,12.1,16.5,12.2,16.7z M12.5,15.8c0.1,0,0.3,0.1,0.3,0.3
		c0,0.1-0.1,0.3-0.3,0.3c-0.1,0-0.3-0.1-0.3-0.3C12.2,15.9,12.3,15.8,12.5,15.8z"/>
	<circle class="st0" cx="12.5" cy="16" r="0.3"/>
	<path class="st3" d="M39.3,19.3l0.3,0.9l0.3-0.9c0.1-0.2,0.2-0.3,0.4-0.4l0.9-0.3l-0.9-0.3c-0.2-0.1-0.3-0.2-0.4-0.4l-0.3-0.9
		L39.3,18c-0.1,0.2-0.2,0.3-0.4,0.4L38,18.7l0.9,0.3C39.1,19,39.3,19.2,39.3,19.3z M39.6,18.4c0.1,0,0.3,0.1,0.3,0.3
		c0,0.1-0.1,0.3-0.3,0.3s-0.3-0.1-0.3-0.3C39.3,18.5,39.4,18.4,39.6,18.4z"/>
	<circle class="st0" cx="39.6" cy="18.7" r="0.3"/>
</g>
<path class="st4" d="M19,38.1h20c0,0-6.9,0.6-7,3.2c-0.1,2.6,6.9,2.9,7,4S21.5,47,20,44.5c-1.5-2.5,5.5-2.8,5-4
	c-0.5-1.2-13.3,0.7-14-0.8C10.3,38.1,19,38.1,19,38.1z"/>
</svg>
