<?xml version="1.0" encoding="utf-8"?>
<!-- Generator: Adobe Illustrator 19.2.1, SVG Export Plug-In . SVG Version: 6.00 Build 0)  -->
<svg version="1.1" id="Layer_1" xmlns="http://www.w3.org/2000/svg" xmlns:xlink="http://www.w3.org/1999/xlink" x="0px" y="0px"
	 viewBox="0 0 54 54" style="enable-background:new 0 0 54 54;" xml:space="preserve">
<style type="text/css">
	.st0{fill:#62C7CB;}
	.st1{fill:none;}
	.st2{fill:#010101;}
	.st3{fill:#C7E8EB;}
	.st4{fill:#FFFFFF;}
</style>
<g>
	<circle class="st0" cx="27" cy="27" r="27"/>
</g>
<g>
	<path class="st1" d="M38,33.3c0-0.2,0-0.3,0.1-0.5H35c-0.6,0-1-0.4-1-1c0,0.6-0.4,1-1,1H22.9c0,0.2,0.1,0.3,0.1,0.5
		c0,1.4-1.1,2.5-2.5,2.5h20C39.1,35.8,38,34.7,38,33.3z"/>
	<path class="st1" d="M18,33.3c0-0.2,0-0.3,0.1-0.5h-1.1c0,0.2,0.1,0.3,0.1,0.5c0,1.4-1.1,2.5-2.5,2.5h6C19.1,35.8,18,34.7,18,33.3z
		"/>
	<path class="st2" d="M49,35.8h-8.5h-20h-6h-9C5.2,35.8,5,36,5,36.3s0.2,0.5,0.5,0.5H13h30h6c0.3,0,0.5-0.2,0.5-0.5
		S49.3,35.8,49,35.8z"/>
	<path class="st3" d="M11,39.8c0.7,1.5,10.8-1.2,11,1c0.1,1.3-4.5,0.5-3,3s18.8,3,22,0.2s-3.1-1.6-3-4.2s5-3,5-3H13
		C13,36.8,10.3,38.3,11,39.8z"/>
	<rect x="10" y="26.8" class="st4" width="23" height="2"/>
	<path class="st4" d="M14.5,30.8c0.8,0,1.5,0.4,2,1h2c0.5-0.6,1.2-1,2-1s1.5,0.4,2,1H33v-2H10v2h2.5C13,31.2,13.7,30.8,14.5,30.8z"
		/>
	<rect x="10" y="20.8" class="st4" width="23" height="2"/>
	<rect x="10" y="23.8" class="st4" width="23" height="2"/>
	<rect x="10" y="17.8" class="st4" width="23" height="2"/>
	<path class="st4" d="M40.5,30.8c0.8,0,1.5,0.4,2,1H47v-3l-4-2l-1-4h-7v9h3.5C39,31.2,39.7,30.8,40.5,30.8z M36,26.8v-2
		c0-0.6,0.4-1,1-1h3.5c0.5,0,0.9,0.3,1,0.8l0.5,2c0.1,0.3,0,0.6-0.2,0.9c-0.2,0.2-0.5,0.4-0.8,0.4h-4C36.4,27.8,36,27.3,36,26.8z"/>
	<circle class="st4" cx="20.5" cy="33.3" r="1.5"/>
	<circle class="st4" cx="40.5" cy="33.3" r="1.5"/>
	<circle class="st4" cx="14.5" cy="33.3" r="1.5"/>
	<path class="st2" d="M17,33.3c0-0.2,0-0.3-0.1-0.5h1.1c0,0.2-0.1,0.3-0.1,0.5c0,1.4,1.1,2.5,2.5,2.5s2.5-1.1,2.5-2.5
		c0-0.2,0-0.3-0.1-0.5H33c0.6,0,1-0.4,1-1c0,0.6,0.4,1,1,1h3.1c0,0.2-0.1,0.3-0.1,0.5c0,1.4,1.1,2.5,2.5,2.5s2.5-1.1,2.5-2.5
		c0-0.2,0-0.3-0.1-0.5H47c0.6,0,1-0.4,1-1v-3c0-0.4-0.2-0.7-0.6-0.9l-3.6-1.8L43,22.6c-0.1-0.4-0.5-0.8-1-0.8h-7c-0.6,0-1,0.4-1,1
		v-5c0-0.6-0.4-1-1-1H10c-0.6,0-1,0.4-1,1v14c0,0.6,0.4,1,1,1h2.1c0,0.2-0.1,0.3-0.1,0.5c0,1.4,1.1,2.5,2.5,2.5S17,34.7,17,33.3z
		 M42,33.3c0,0.8-0.7,1.5-1.5,1.5S39,34.1,39,33.3s0.7-1.5,1.5-1.5S42,32.5,42,33.3z M35,22.8h7l1,4l4,2v3h-4.5c-0.5-0.6-1.2-1-2-1
		s-1.5,0.4-2,1H35V22.8z M22,33.3c0,0.8-0.7,1.5-1.5,1.5S19,34.1,19,33.3s0.7-1.5,1.5-1.5S22,32.5,22,33.3z M10,31.8v-2v-1v-2v-1v-2
		v-1v-2v-1v-2h23v2v1v2v1v2v1v2v1v2H22.5c-0.5-0.6-1.2-1-2-1s-1.5,0.4-2,1h-2c-0.5-0.6-1.2-1-2-1s-1.5,0.4-2,1H10z M14.5,34.8
		c-0.8,0-1.5-0.7-1.5-1.5s0.7-1.5,1.5-1.5s1.5,0.7,1.5,1.5S15.3,34.8,14.5,34.8z"/>
	<polygon class="st0" points="40.2,24.8 40,24.8 37,24.8 37,26.8 41,26.8 	"/>
	<path class="st2" d="M41,27.8c0.3,0,0.6-0.1,0.8-0.4c0.2-0.2,0.3-0.6,0.2-0.9l-0.5-2c-0.1-0.4-0.5-0.8-1-0.8H37c-0.6,0-1,0.4-1,1v2
		c0,0.6,0.4,1,1,1H41z M37,24.8h3h0.2l0.8,2h-4V24.8z"/>
	<ellipse transform="matrix(0.3895 -0.921 0.921 0.3895 -20.5606 23.5673)" class="st4" cx="7.5" cy="27.3" rx="0.5" ry="0.5"/>
	<ellipse transform="matrix(0.3895 -0.921 0.921 0.3895 -21.4752 20.1967)" class="st4" cx="4.5" cy="26.3" rx="0.5" ry="0.5"/>
	<path class="st4" d="M5.3,31L5.6,32L5.9,31c0.1-0.2,0.2-0.3,0.4-0.4l0.9-0.3l-0.9-0.3c-0.2-0.1-0.3-0.2-0.4-0.4l-0.3-0.9l-0.3,0.9
		c-0.1,0.2-0.2,0.3-0.4,0.4L4,30.4l0.9,0.3C5.1,30.7,5.3,30.9,5.3,31z M5.6,30.1c0.1,0,0.3,0.1,0.3,0.3c0,0.1-0.1,0.3-0.3,0.3
		s-0.3-0.1-0.3-0.3C5.3,30.2,5.4,30.1,5.6,30.1z"/>
	<circle class="st0" cx="5.6" cy="30.4" r="0.3"/>
	<rect x="10" y="28.8" class="st3" width="23" height="1"/>
	<rect x="10" y="25.8" class="st3" width="23" height="1"/>
	<rect x="10" y="22.8" class="st3" width="23" height="1"/>
	<rect x="10" y="19.8" class="st3" width="23" height="1"/>
</g>
</svg>
