<?xml version="1.0" encoding="utf-8"?>
<!-- Generator: Adobe Illustrator 19.2.1, SVG Export Plug-In . SVG Version: 6.00 Build 0)  -->
<svg version="1.1" xmlns="http://www.w3.org/2000/svg" xmlns:xlink="http://www.w3.org/1999/xlink" x="0px" y="0px"
	 viewBox="0 0 62 62" style="enable-background:new 0 0 62 62;" xml:space="preserve">
<style type="text/css">
	.st0{fill-rule:evenodd;clip-rule:evenodd;fill:#F7BF2C;}
	.st1{fill:#FFFFFF;}
</style>
<g id="Facebook">
	<circle class="st0" cx="31" cy="31" r="31"/>
</g>
<g id="Pinterest">
	<path class="st1" d="M17.9,26.3h5.8V45h-5.8V26.3z M20.8,17c1.9,0,3.4,1.5,3.4,3.4c0,1.9-1.5,3.4-3.4,3.4c-1.9,0-3.4-1.5-3.4-3.4
		C17.5,18.5,19,17,20.8,17"/>
	<path class="st1" d="M27.4,26.3H33v2.6H33c0.8-1.5,2.7-3,5.5-3c5.9,0,7,3.9,7,8.9V45h-5.8v-9.1c0-2.2,0-5-3-5c-3,0-3.5,2.4-3.5,4.8
		V45h-5.8V26.3z"/>
</g>
</svg>
