<?xml version="1.0" encoding="utf-8"?>
<!-- Generator: Adobe Illustrator 16.0.4, SVG Export Plug-In . SVG Version: 6.00 Build 0)  -->
<!DOCTYPE svg PUBLIC "-//W3C//DTD SVG 1.1//EN" "http://www.w3.org/Graphics/SVG/1.1/DTD/svg11.dtd">
<svg version="1.1" id="Layer_1" xmlns="http://www.w3.org/2000/svg" xmlns:xlink="http://www.w3.org/1999/xlink" x="0px" y="0px"
	 width="13px" height="16px" viewBox="0 0 13 16" enable-background="new 0 0 13 16" xml:space="preserve">
<path fill="#F8C02C" d="M12,2h-2H9V1c0-0.553-0.447-1-1-1H5C4.447,0,4,0.447,4,1v1H3H1C0.447,2,0,2.447,0,3s0.447,1,1,1v10
	c0,1.104,0.896,2,2,2h1h2h1h2h1c1.104,0,2-0.896,2-2V4c0.553,0,1-0.447,1-1S12.553,2,12,2z M3,14V4h1v10H3z M6,14V4h1v10H6z M10,14
	H9V4h1V14z"/>
</svg>
