<?xml version="1.0" encoding="utf-8"?>
<!-- Generator: Adobe Illustrator 19.2.1, SVG Export Plug-In . SVG Version: 6.00 Build 0)  -->
<svg version="1.1" id="Layer_1" xmlns="http://www.w3.org/2000/svg" xmlns:xlink="http://www.w3.org/1999/xlink" x="0px" y="0px"
	 viewBox="0 0 34 29" style="enable-background:new 0 0 34 29;" xml:space="preserve">
<style type="text/css">
	.st0{fill:none;}
	.st1{fill:#F8C02C;}
	.st2{fill:#FFFFFF;}
	.st3{fill:#010101;}
	.st4{fill:#FCE098;}
</style>
<g>
	<path class="st0" d="M3,28V12V28z"/>
	<path class="st0" d="M12,22c0.6,0,1,0.4,1,1c0-0.6,0.4-1,1-1H12z"/>
	<ellipse transform="matrix(0.7071 -0.7071 0.7071 0.7071 -5.0358 20.6425)" class="st0" cx="22.4" cy="16.4" rx="0.3" ry="0.3"/>
	<path class="st1" d="M22.8,16.8c0.2-0.2,0.2-0.6,0-0.8s-0.6-0.2-0.8,0c-0.2,0.2-0.2,0.6,0,0.8C22.2,17,22.6,17,22.8,16.8z
		 M22.2,16.2c0.1-0.1,0.3-0.1,0.4,0s0.1,0.3,0,0.4s-0.3,0.1-0.4,0S22.1,16.3,22.2,16.2z"/>
	<path class="st1" d="M26.7,16.9L26.4,16l-0.3,0.9c-0.1,0.2-0.2,0.3-0.4,0.4l-0.9,0.3l0.9,0.3c0.2,0.1,0.3,0.2,0.4,0.4l0.3,0.9
		l0.3-0.9c0.1-0.2,0.2-0.3,0.4-0.4l0.9-0.3l-0.9-0.3C26.9,17.3,26.7,17.1,26.7,16.9z M26.4,17.9c-0.1,0-0.3-0.1-0.3-0.3
		c0-0.1,0.1-0.3,0.3-0.3s0.3,0.1,0.3,0.3C26.7,17.7,26.6,17.9,26.4,17.9z"/>
	<circle class="st2" cx="26.4" cy="17.6" r="0.3"/>
	<path class="st2" d="M4,8h1V6.5L3,7.2V9C3,8.4,3.4,8,4,8z"/>
	<path class="st2" d="M9,8h1c0.6,0,1,0.4,1,1V4.2L9,5V8z"/>
	<polygon class="st2" points="1,8 1,28 2,28 2,7.6 	"/>
	<polygon class="st2" points="8,5.4 6,6.1 6,8 8,8 	"/>
	<polygon class="st2" points="29,6.5 27,5.8 27,8 29,8 	"/>
	<polygon class="st2" points="26,5.4 24,4.6 24,8 26,8 	"/>
	<path class="st2" d="M4,11c-0.6,0-1-0.4-1-1v2h2v-1H4z"/>
	<polygon class="st2" points="17,2 15,2.8 15,8 17,8 	"/>
	<polygon class="st2" points="20,3.1 18,2.4 18,8 20,8 	"/>
	<path class="st2" d="M13,10V9c0-0.6,0.4-1,1-1V3.1l-2,0.8V12h2v-1C13.4,11,13,10.6,13,10z"/>
	<path class="st2" d="M10,11H9v1h2v-2C11,10.6,10.6,11,10,11z"/>
	<rect x="6" y="11" class="st2" width="2" height="1"/>
	<path class="st2" d="M30,6.9V8c0.6,0,1,0.4,1,1v1c0,0.6-0.4,1-1,1v1h1v16h1V7.6L30,6.9z"/>
	<rect x="24" y="11" class="st2" width="2" height="1"/>
	<rect x="15" y="11" class="st2" width="2" height="1"/>
	<rect x="18" y="11" class="st2" width="2" height="1"/>
	<polygon class="st2" points="23,9 23,4.2 21,3.5 21,9 21,10 21,12 23,12 23,10 	"/>
	<rect x="27" y="11" class="st2" width="2" height="1"/>
	<path class="st3" d="M33.4,6.1l-16-6C17.2,0,17.1,0,17,0s-0.2,0-0.4,0.1l-16,6C0.3,6.2,0,6.6,0,7v21c0,0.6,0.4,1,1,1h2
		c0.6,0,1-0.4,1-1V13h26v15c0,0.6,0.4,1,1,1h2c0.6,0,1-0.4,1-1V7C34,6.6,33.7,6.2,33.4,6.1z M33,8v20h-1h-1V12h-1h-1h-2h-1h-2h-1h-2
		h-1h-2h-1h-2h-1h-2h-1H9H8H6H5H3v16l0,0H2H1V8V7l16-6l1,0.4l2,0.8l1,0.4l2,0.8l1,0.4l2,0.8L27,5l2,0.8l1,0.4L32,7l1,0V8z"/>
	<polygon class="st1" points="9,23 8,23 7,23 7,28 12,28 12,23 11,23 	"/>
	<polygon class="st1" points="14,23 14,28 19,28 19,23 15,23 	"/>
	<path class="st3" d="M19,22h-1h-1h-2.5c0.6,0,1-0.4,1-1v-5c0-0.6-0.4-1-1-1h-5c-0.6,0-1,0.4-1,1v5c0,0.6,0.4,1,1,1H7
		c-0.6,0-1,0.4-1,1v5c0,0.6,0.4,1,1,1h5c0.6,0,1-0.4,1-1c0,0.6,0.4,1,1,1h5c0.6,0,1-0.4,1-1v-5C20,22.4,19.6,22,19,22z M9.5,16h5v5
		h-5V16z M12,28H7v-5h1h1h2h1V28z M13,23c0-0.6-0.4-1-1-1h2C13.4,22,13,22.4,13,23z M19,28h-5v-5h1h4V28z"/>
	<rect x="9.5" y="16" class="st1" width="5" height="5"/>
	<polygon class="st1" points="24,23 23,23 22,23 22,28 27,28 27,23 26,23 	"/>
	<path class="st3" d="M27,22h-5c-0.6,0-1,0.4-1,1v5c0,0.6,0.4,1,1,1h5c0.6,0,1-0.4,1-1v-5C28,22.4,27.6,22,27,22z M27,28h-5v-5h1h1
		h2h1V28z"/>
	<g>
		<rect x="5" y="11" class="st4" width="1" height="1"/>
		<rect x="8" y="11" class="st4" width="1" height="1"/>
		<rect x="14" y="11" class="st4" width="1" height="1"/>
		<rect x="17" y="11" class="st4" width="1" height="1"/>
		<path class="st4" d="M20,11v1h1v-2C21,10.6,20.6,11,20,11z"/>
		<path class="st4" d="M23,10v2h1v-1C23.4,11,23,10.6,23,10z"/>
		<rect x="26" y="11" class="st4" width="1" height="1"/>
		<rect x="29" y="11" class="st4" width="1" height="1"/>
		<path class="st4" d="M17,1L1,7v1l1-0.4V28h1V12v-2V9V7.2l2-0.7V8h1V6.1l2-0.7V8h1V5l2-0.8V9v1v2h1V3.9l2-0.8V8h1V2.8L17,2v6h1V2.4
			l2,0.7V8c0.6,0,1,0.4,1,1V3.5l2,0.7V9c0-0.6,0.4-1,1-1V4.6l2,0.8V8h1V5.8l2,0.7V8h1V6.9l2,0.7V28h1V7L17,1z"/>
	</g>
	<rect x="4" y="9" class="st2" width="6" height="1"/>
	<path class="st3" d="M10,8H9H8H6H5H4C3.4,8,3,8.4,3,9v1c0,0.6,0.4,1,1,1h1h1h2h1h1c0.6,0,1-0.4,1-1V9C11,8.4,10.6,8,10,8z M10,10H4
		V9h6V10z"/>
	<rect x="14" y="9" class="st2" width="6" height="1"/>
	<path class="st3" d="M20,8h-2h-1h-2h-1c-0.6,0-1,0.4-1,1v1c0,0.6,0.4,1,1,1h1h2h1h2c0.6,0,1-0.4,1-1V9C21,8.4,20.6,8,20,8z M20,10
		h-6V9h6V10z"/>
	<rect x="24" y="9" class="st2" width="6" height="1"/>
	<path class="st3" d="M27,8h-1h-2c-0.6,0-1,0.4-1,1v1c0,0.6,0.4,1,1,1h2h1h2h1c0.6,0,1-0.4,1-1V9c0-0.6-0.4-1-1-1h-1H27z M30,10h-6
		V9h6V10z"/>
</g>
</svg>
