<?xml version="1.0" encoding="utf-8"?>
<!-- Generator: Adobe Illustrator 16.0.4, SVG Export Plug-In . SVG Version: 6.00 Build 0)  -->
<!DOCTYPE svg PUBLIC "-//W3C//DTD SVG 1.1//EN" "http://www.w3.org/Graphics/SVG/1.1/DTD/svg11.dtd">
<svg version="1.1" id="Layer_1" xmlns="http://www.w3.org/2000/svg" xmlns:xlink="http://www.w3.org/1999/xlink" x="0px" y="0px"
	 width="29.175px" height="51.379px" viewBox="0 0 29.175 51.379" enable-background="new 0 0 29.175 51.379" xml:space="preserve">
<path fill="#F8C02C" d="M28.587,46.556L7.65,25.668L28.445,4.825c0.778-0.78,0.778-2.043,0.001-2.824l-1.407-1.412
	C26.663,0.212,26.154,0,25.623,0c-0.001,0-0.001,0-0.001,0c-0.531,0-1.041,0.211-1.416,0.587L0.584,24.266
	c-0.779,0.78-0.779,2.044,0,2.825l1.407,1.41c0.023,0.023,0.051,0.04,0.076,0.062l22.283,22.232c0.39,0.39,0.901,0.584,1.412,0.584
	s1.021-0.194,1.412-0.583l1.412-1.407c0.376-0.375,0.588-0.885,0.588-1.416C29.175,47.44,28.964,46.931,28.587,46.556z"/>
</svg>
