<?xml version="1.0" encoding="utf-8"?>
<!-- Generator: Adobe Illustrator 16.0.4, SVG Export Plug-In . SVG Version: 6.00 Build 0)  -->
<!DOCTYPE svg PUBLIC "-//W3C//DTD SVG 1.1//EN" "http://www.w3.org/Graphics/SVG/1.1/DTD/svg11.dtd">
<svg version="1.1" id="Layer_1" xmlns="http://www.w3.org/2000/svg" xmlns:xlink="http://www.w3.org/1999/xlink" x="0px" y="0px"
	 width="15px" height="11px" viewBox="0 0 15 11" enable-background="new 0 0 15 11" xml:space="preserve">
<path d="M13.183,0.002H1.897c-1.104,0-2,0.896-2,2V9c0,1.104,0.896,2,2,2h11.285c1.104,0,2-0.896,2-2V2.002
	C15.183,0.897,14.287,0.002,13.183,0.002z M11.551,2.002L7.518,5.129L3.174,2.002H11.551z M1.897,9V3.547l5.059,3.642
	C7.131,7.314,7.335,7.377,7.54,7.377c0.217,0,0.433-0.07,0.612-0.21l5.03-3.9V9H1.897z"/>
</svg>
