<svg id="Layer_1_copy" xmlns="http://www.w3.org/2000/svg" viewBox="0 0 71.1470871 72.0001221"><style>.st0{display:none}.st1{display:inline;fill:#a4cc39}.st2{fill:none}.st3{fill:#a2cb3a}.st4{fill:#fff}.st5{fill:#010101}</style><g class="st0"><circle class="st1" cx="32.486" cy="40.313" r="54"/></g><path class="st2" d="M11.991 70h3.172zm6 0h3.172zm-12 0h3.172zm18 0h3.172zm6 0h3.172zm12 0h3.172zm-6 0h3.172z"/><ellipse transform="rotate(-45.004 12.054 13)" class="st2" cx="12.054" cy="13" rx=".598" ry=".598"/><path class="st3" d="M12.902 13.849a1.2 1.2 0 1 0-1.697-1.698 1.2 1.2 0 0 0 1.697 1.698zm-1.271-1.272a.598.598 0 1 1 .845.846.598.598 0 0 1-.845-.846z"/><ellipse transform="rotate(-67.072 12.61 5.39)" class="st3" cx="12.61" cy="5.39" rx=".61" ry=".61"/><ellipse transform="rotate(-22.923 18.61 16.61)" class="st4" cx="18.61" cy="16.61" rx=".61" ry=".61"/><path class="st3" d="M20 12c.122 0 .237-.025.356-.036C21.173 14.308 23.378 16 26 16c2.77 0 5.078-1.887 5.769-4.44.69.278 1.441.44 2.231.44a5.95 5.95 0 0 0 2.062-.387C36.367 14.083 38.449 16 41 16a5 5 0 1 0-1.01-9.898c0-.034.01-.067.01-.102a6 6 0 0 0-6-6 5.939 5.939 0 0 0-3 .832A5.939 5.939 0 0 0 28 0c-2.846 0-5.217 1.987-5.833 4.645A3.973 3.973 0 0 0 20 4a4 4 0 0 0 0 8z"/><path class="st5" d="M70.658 51.343a1 1 0 0 0-1.37.35l-6.073 10.21-.295-50.05c-.004-.55-.451-1.08-1-1.08h-.006c-.553 0-.998.482-.994 1.035l.294 49.863-5.687-10.144a1 1 0 0 0-1.361-.368 1.039 1.039 0 0 0-.385 1.393l7.573 13.58c.175.313.501.64.859.64h.014c.351 0 .68-.313.859-.616l7.92-13.443a.999.999 0 0 0-.348-1.37z"/><path class="st4" d="M38 36.009l8 8v-3.172l-8-8zm0 6l8 8v-3.172l-8-8zM15.163 70L2 56.837v3.172L11.991 70zM38 30.009l8 8v-3.172l-8-8zm0 16V48L26 36v.009l20 20v-3.172l-8-8zM9.163 70L2 62.837v3.172L5.991 70zM2 68.837V70h1.163zM38 22v2.009l8 8v-3.172L39.163 22zM26 42.009l20 20v-3.172l-20-20zm20-16V22h-4.008zm-20 20V48L14 36v.009l32 32v-3.172l-20-20zM39.163 70L14 44.837V48L2 36v.009L35.991 70zm-6 0L2 38.837v3.172L29.991 70zm-6 0L2 44.837v3.172L23.991 70zm18 0L14 38.837v3.172L41.991 70zm-24 0L2 50.837v3.172L17.991 70z"/><path class="st3" d="M39.163 22L46 28.837v-2.828L41.992 22zM38 26.837l8 8v-2.828l-8-8zm0 6l8 8v-2.828l-8-8zm0 6l8 8v-2.828l-8-8zm0 6l8 8v-2.828l-8-8zm-12-6l20 20v-2.828l-20-20zm0 6l20 20v-2.828l-20-20zm-12-6L45.163 70H46v-1.991l-32-32zm0 3.172v2.828L39.163 70h2.829zm-12-6v2.828L33.163 70h2.829zm0 6v2.828L27.163 70h2.829zm0 6v2.828L21.163 70h2.829zm0 6v2.828L15.163 70h2.829zm0 6v2.828L9.163 70h2.829zm0 6v2.828L3.163 70h2.829z"/><path class="st5" d="M46 20h-8a2 2 0 0 0-2 2v21.172l-8.586-8.586A2 2 0 0 0 24 36v7.172l-8.586-8.586A2 2 0 0 0 12 36v7.172l-8.586-8.586A2 2 0 0 0 0 36v34a2 2 0 0 0 2 2h44a2 2 0 0 0 2-2V22a2 2 0 0 0-2-2zm0 6.009V70H2V36l12 12V36l12 12V36l12 12V22h8v4.009z"/></svg>