<svg id="Layer_1" xmlns="http://www.w3.org/2000/svg" viewBox="0 0 38.5 36.7272949"><style>.st0{fill:none}.st1{fill:#60c7cb}.st2{fill:#fff}.st3{fill:#c4f2f2}</style><ellipse transform="rotate(-45 26.711 32.516)" class="st0" cx="26.711" cy="32.516" rx=".299" ry=".299"/><path class="st0" d="M5.5 20.727h3v6h-3zm24 0h4v6h-4z"/><ellipse transform="rotate(-67.075 24.696 30.265)" class="st1" cx="24.696" cy="30.265" rx=".502" ry=".502"/><path class="st1" d="M26.287 32.092a.6.6 0 1 0 .849.848.6.6 0 0 0-.849-.848zm.636.635a.299.299 0 1 1-.423-.422.299.299 0 0 1 .423.422zM13.077 30.41l-.289-.935-.288.935a.56.56 0 0 1-.37.37l-.935.289.935.288a.56.56 0 0 1 .37.37l.288.935.289-.935a.56.56 0 0 1 .37-.37l.935-.288-.935-.289a.56.56 0 0 1-.37-.37zm-.289.925a.266.266 0 1 1 0-.533.266.266 0 0 1 0 .533z"/><circle class="st2" cx="12.788" cy="31.069" r=".266"/><path d="M38 26.727h-3.5v-6h1a1 1 0 0 0 1-1V12a5.001 5.001 0 0 0-2.982-4.566C34.698 6.737 35.5 5.466 35.5 4c0-2.206-1.794-4-4-4s-4 1.794-4 4c0 1.466.802 2.737 1.982 3.434A5.001 5.001 0 0 0 26.5 12v7.727a1 1 0 0 0 1 1h1v6h-19v-6h3a1 1 0 0 0 .9-1.435L7.877 7.882A4 4 0 0 0 10.955 4c0-2.206-1.795-4-4-4s-4 1.794-4 4a4 4 0 0 0 3.078 3.882L.509 19.292a1 1 0 0 0 .9 1.435H4.5v6h-4a.5.5 0 1 0 0 1h17.85l-3.444 7.581a1.005 1.005 0 0 0 .91 1.42h7.058a1.003 1.003 0 0 0 .911-1.417l-3.433-7.584H38a.5.5 0 1 0 0-1zM3.955 4a3 3 0 1 1 6 0 3 3 0 0 1-6 0zM1.409 19.727L6.955 8.273 12.5 19.727H1.409zm4.091 7v-6h3v6h-3zm10.317 9l3.534-7.78 3.523 7.78h-7.057zM28.5 4a3 3 0 1 1 6 0 3 3 0 0 1-6 0zm-1 15.727V12c0-1.988 1.475-3.636 3.382-3.937A3.47 3.47 0 0 1 31.5 8c2.2 0 4 1.8 4 4v7.727h-8zm2 7v-6h4v6h-4z"/><path class="st1" d="M15.817 35.727h7.057l-3.523-7.78z"/><path class="st2" d="M10.5 19.727l-4.545-9.389 1-2.065-5.546 11.454z"/><path class="st3" d="M10.5 19.727h2L6.955 8.273l-1 2.065z"/><circle class="st1" cx="31.5" cy="4" r="3"/><path class="st2" d="M33.5 19.727V12c0-1.853-1.283-3.408-3-3.857.125-.033.253-.057.382-.08C28.975 8.364 27.5 10.012 27.5 12v7.727h6z"/><path class="st3" d="M33.5 12v7.727h2V12c0-2.2-1.8-4-4-4a3.47 3.47 0 0 0-.618.063 5.048 5.048 0 0 0-.382.08c1.717.449 3 2.004 3 3.857z"/><circle class="st1" cx="6.955" cy="4" r="3"/></svg>