<svg xmlns="http://www.w3.org/2000/svg" width="16" height="19" viewBox="0 0 16 19"><path d="M13.303 10.383c-.014-.018-.018-.039-.033-.056a5.96 5.96 0 0 1-1.555-4.321 5.96 5.96 0 0 1 1.958-4.154.986.986 0 0 0 .313-.781C13.987 1.046 14 1.024 14 1a1 1 0 0 0-1-1C9.629 0 6.743 2.1 5.568 5.058 5.379 5.036 5.194 5 5 5c-2.757 0-5 2.243-5 5s2.243 5 5 5c.715 0 1.392-.156 2.008-.428A4.5 4.5 0 0 0 11.5 19c2.481 0 4.5-2.019 4.5-4.5 0-1.84-1.112-3.42-2.697-4.117zM4.372 9.075c-.275 0-.5.225-.5.5a1 1 0 1 1-2 0c0-1.379 1.121-2.5 2.5-2.5a1 1 0 1 1 0 2zm3.096-3.397a6.038 6.038 0 0 1 3.222-3.214 7.955 7.955 0 0 0-.018 7.62 4.472 4.472 0 0 0-.701.201c.006-.096.029-.187.029-.285 0-1.855-1.027-3.459-2.532-4.322zm3.184 7.46a.497.497 0 0 0-.398.198.999.999 0 0 1-1.402.186 1.001 1.001 0 0 1-.186-1.402 2.484 2.484 0 0 1 1.986-.981 1 1 0 1 1 0 1.999z"/></svg>