<svg id="Layer_1_copy" xmlns="http://www.w3.org/2000/svg" viewBox="0 0 67.59375 65.0021591"><style>.st0{fill:#fff}.st1{fill:none}.st2{fill:#62c7cb}.st3{fill:#c7e8eb}.st4{fill:#010101}</style><ellipse transform="rotate(-45 29.152 1.237)" class="st0" cx="29.152" cy="1.237" rx=".598" ry=".598"/><path class="st1" d="M45.255 43.2l-.062 3.802.073-4.478z"/><path class="st2" d="M30 2.085A1.2 1.2 0 1 0 28.305.388 1.2 1.2 0 0 0 30 2.085zM28.73.814a.598.598 0 1 1 .845.846.598.598 0 0 1-.846-.846zm-8.29 6.919l.576 1.87.577-1.87a1.12 1.12 0 0 1 .74-.741l1.87-.577-1.87-.577a1.12 1.12 0 0 1-.74-.74l-.577-1.87-.577 1.87a1.12 1.12 0 0 1-.74.74l-1.87.577 1.87.577c.354.11.631.386.74.74zm.576-1.85a.533.533 0 1 1 0 1.065.533.533 0 0 1 0-1.066z"/><circle class="st0" cx="21.016" cy="6.415" r=".533"/><path class="st3" d="M62.736 34.818c.19.631.33 1.285.406 1.961.008.068.012.135.012.203l.003.278a23.037 23.037 0 0 0 1.577-4.107 16.652 16.652 0 0 1-1.998 1.665zm-5.582 10.156V37.84c-2.849 1.172-6.167 2.132-9.857 2.812l-.07 4.35h9.896l.031-.03zM2.86 33.153C6.144 44.793 18.752 53.5 33.797 53.5a37.91 37.91 0 0 0 7.458-.762v-5.756l.056-5.508c-2.413.23-4.92.36-7.514.36-14.008 0-25.752-3.524-30.937-8.68z"/><path class="st2" d="M65.594 27.17c0-6.865-14.562-12.666-31.797-12.666-5.748 0-11.181.656-15.894 1.771l2.342 3.467a5.49 5.49 0 0 1 2.476 1.025c.055-.007.106-.028.161-.033.905-.653 2-1.058 3.2-1.058 1.025 0 1.972.298 2.794.785 1.424-1.808 3.607-2.99 6.086-2.99a7.75 7.75 0 0 1 5.558 2.348 5.492 5.492 0 0 1 3.193 2.088 5.46 5.46 0 0 1 3.308-1.13c2.484 0 4.56 1.655 5.248 3.915a5.45 5.45 0 0 1 2.467-.608 5.507 5.507 0 0 1 5.51 5.506c0 .307-.01.618-.02.928.674.724 1.283 1.512 1.745 2.403 2.294-1.738 3.623-3.694 3.623-5.75zm-52.736-.882c.436 0 .854.063 1.26.158a5.482 5.482 0 0 1-.158-1.26c0-2.511 1.69-4.606 3.987-5.27l-2.106-3.118C7.551 19.11 2 22.935 2 27.17c0 2.705 2.285 5.237 6.079 7.321a5.448 5.448 0 0 1-.731-2.693 5.51 5.51 0 0 1 5.51-5.51z"/><path class="st0" d="M21.211 21.172a5.453 5.453 0 0 1 1.51-.405 5.503 5.503 0 0 0-2.476-1.025l.966 1.43zm31.044 11.83c-2.413 0-4.5 1.785-4.901 4.17l-.023 1.396c3.518-.681 6.696-1.61 9.38-2.732-.817-1.68-2.524-2.834-4.456-2.834zm-23.499-4.819c.476-.063.943-.06 1.408-.043a9.62 9.62 0 0 0-.935-1.796c-1.551-2.299-3.83-3.652-5.792-3.652-.733 0-1.42.187-2.011.586-1.001.675-1.581 1.884-1.634 3.402-.057 1.637.498 3.406 1.563 4.982.293.433.615.825.952 1.188 1.203-2.45 3.538-4.284 6.449-4.667z"/><path class="st3" d="M22.097 26.416c.057-1.645.686-2.955 1.77-3.688-.143-.014-.289-.036-.43-.036-.733 0-1.42.187-2.011.586-1.001.675-1.581 1.884-1.634 3.402-.057 1.637.498 3.406 1.563 4.982.293.433.615.825.952 1.188a8.68 8.68 0 0 1 1.082-1.676c-.89-1.538-1.345-3.203-1.292-4.758z"/><path class="st3" d="M30.144 30.897c3.207 0 6.028 1.268 7.784 3.197a8.44 8.44 0 0 0-7.764-5.954 8.428 8.428 0 0 0-1.408.043c-2.91.383-5.246 2.218-6.45 4.667a8.414 8.414 0 0 0-.716 2.081c-.017.086-.02.175-.034.262 1.578-2.538 4.808-4.296 8.588-4.296z"/><path class="st0" d="M54.736 24.084a5.45 5.45 0 0 0-2.467.608c-.688-2.26-2.764-3.914-5.248-3.914a5.46 5.46 0 0 0-3.308 1.129 5.492 5.492 0 0 0-3.193-2.088 7.745 7.745 0 0 0-5.558-2.347c-2.48 0-4.662 1.181-6.086 2.989a5.456 5.456 0 0 0-2.793-.785c-1.202 0-2.296.405-3.2 1.058 2.764-.23 5.945 1.44 8.005 4.489a11.413 11.413 0 0 1 1.526 3.307 8.44 8.44 0 0 1 5.514 5.564c-1.756-1.93-4.577-3.197-7.784-3.197-3.78 0-7.01 1.758-8.588 4.296.014-.087.017-.176.034-.262a11.404 11.404 0 0 1-1.893-2.148c-1.299-1.925-1.975-4.117-1.904-6.171.061-1.779.694-3.261 1.757-4.323l-1.603-2.373c-2.297.664-3.987 2.759-3.987 5.27 0 .435.063.854.159 1.26a5.482 5.482 0 0 0-1.26-.158 5.51 5.51 0 0 0-5.511 5.51c0 .984.279 1.894.73 2.693 5.836 3.206 15.274 5.343 25.719 5.343 2.59 0 5.106-.145 7.534-.39l.025-2.462c0-.068.005-.135.013-.203.624-5.573 5.304-9.777 10.886-9.777 3.14 0 5.963 1.36 7.97 3.516.012-.31.02-.62.02-.928a5.507 5.507 0 0 0-5.51-5.506zm4.418 22.918H56.92l4.298 4.298-.01-3.182-2.053-2.052zm-4.208 6.856c-.2.459-.504.862-.901 1.158l.522 1.634 6.351 6.352h.337l-.01-2.844-6.3-6.3zm-.66 6.197H51.97l2.947 2.947h3.172l-3.192-3.192c-.176.143-.38.245-.612.245zM43.277 57.36l5.641 5.642h3.172l-8.8-8.8zm15.877-14.122l2.043 2.043-.01-3.182-2.033-2.033zm-8.235 3.764L61.237 57.32l-.01-3.182-7.137-7.136zm.321 3.15l-3.15-3.15h-2.897l.062-3.801-.015.95-1.904-1.903-.013 3.16 6.384 6.382a2.83 2.83 0 0 1 1.533-1.638zm-.704 5.296l-7.223-7.223-.013 3.159 6.468 6.468zm3.838-26.162z"/><path class="st0" d="M50.377 31.288l-1.56-1.56a8.823 8.823 0 0 0-2.003 1.17l1.419 1.418a6.869 6.869 0 0 1 2.144-1.028zm2.609-.218a6.967 6.967 0 0 1 6.168 5.932v.236l2.023 2.023-.023-2.259c-.09-.799-.314-1.55-.597-2.273.139.355.26.719.354 1.094l-6.537-6.537c-.682-.167-1.384-.284-2.119-.284-.771 0-1.505.13-2.218.313.326-.08.657-.15.997-.198l1.952 1.953zm-7.326 4.674a7.01 7.01 0 0 1 1.116-2.056l-1.393-1.393a8.897 8.897 0 0 0-1.23 1.942l1.507 1.507zm-.324 2.504l-1.854-1.854a9.055 9.055 0 0 1 .67-2.156c-.396.862-.686 1.783-.796 2.764l-.01 2.428 1.939 1.939.05-3.121zm-2.081 24.754h2.835l-2.824-2.824z"/><path class="st3" d="M43.266 60.178l2.824 2.824h2.828l-5.64-5.641zm7.167-.123a1 1 0 0 1-.952-1.305l.287-.898-6.468-6.468-.01 2.817 8.8 8.801h2.828l-2.947-2.947h-1.538zm4.805-1.305a.998.998 0 0 1-.145.895c-.052.07-.128.112-.195.165l3.192 3.192h2.828l-6.351-6.352.67 2.1zm-4.564-3.734a2.82 2.82 0 0 1-1.146-2.264c0-.34.07-.66.179-.962l-6.384-6.383-.01 2.818 7.223 7.223.138-.432zm-2.584-8.014l3.15 3.15a2.832 2.832 0 0 1 3.95 2.6c0 .396-.096.765-.244 1.106l6.3 6.3-.01-2.838L50.92 47.002h-2.83zM45.255 43.2l.011-.676.019-1.155-1.938-1.939-.011 2.818 1.904 1.904zm8.835 3.802l7.136 7.136-.01-2.838-4.297-4.298zm-8.754-8.754l.02-1.246c.063-.434.167-.853.304-1.258l-1.507-1.507v.001a9.009 9.009 0 0 0-.671 2.156l1.854 1.854zm1.44-4.56c.169-.216.362-.408.554-.603.05-.05.095-.104.146-.152.236-.225.49-.426.757-.617l-1.42-1.419a9.083 9.083 0 0 0-1.43 1.398l1.393 1.393zm12.378 12.378l2.052 2.052-.009-2.837-2.043-2.043zm-8.777-14.778c.279-.078.559-.148.85-.191a6.93 6.93 0 0 1 1.028-.095c.25 0 .488.042.731.068l-1.952-1.953a9.73 9.73 0 0 0-.997.198 8.897 8.897 0 0 0-1.22.414l1.56 1.56zm8.777 8.778l2.033 2.033-.01-2.838-2.023-2.023zm1.403-5.337c-.022-.057-.046-.114-.069-.17a8.973 8.973 0 0 0-2.765-3.642l-.17-.13a8.851 8.851 0 0 0-3.18-1.501l6.538 6.537a9.025 9.025 0 0 0-.354-1.094z"/><path class="st4" d="M54.09 47.002h5.064v-10a6.967 6.967 0 0 0-6.168-5.932c-.243-.026-.48-.068-.73-.068-.352 0-.691.045-1.028.095a6.832 6.832 0 0 0-.85.191 6.869 6.869 0 0 0-2.145 1.028c-.266.19-.521.392-.757.617-.051.048-.096.102-.146.152-.192.195-.385.387-.554.603a7.01 7.01 0 0 0-1.42 3.314l-.02 1.246-.051 3.12-.019 1.156-.073 4.478h8.897zm-6.736-9.83c.401-2.385 2.488-4.17 4.901-4.17 1.932 0 3.639 1.153 4.455 2.834-2.683 1.123-5.86 2.05-9.38 2.732l.024-1.395zm-.128 7.83l.07-4.349c3.691-.68 7.01-1.64 9.858-2.812v7.133l-.03.028h-9.898z"/><path class="st4" d="M67.594 27.17c0-8.224-14.846-14.666-33.797-14.666-6.293 0-12.114.723-17.108 1.973L7.209.442A.996.996 0 0 0 5.82.174a1 1 0 0 0-.27 1.389l9.09 13.456C5.744 17.635 0 22.056 0 27.17 0 42.791 15.161 55.5 33.797 55.5c2.565 0 5.055-.262 7.458-.718v8.22a2 2 0 0 0 2 2h18a2 2 0 0 0 2-2v-16l-.06-5.908c2.787-4.117 4.399-8.862 4.399-13.924zM41.255 46.982v5.756a37.91 37.91 0 0 1-7.458.762c-15.045 0-27.653-8.706-30.937-20.347 5.185 5.157 16.93 8.681 30.937 8.681 2.594 0 5.101-.13 7.514-.36l-.056 5.508zm2 16.02l.101-26c.11-.981.4-1.902.797-2.764a8.899 8.899 0 0 1 1.23-1.943 8.823 8.823 0 0 1 3.434-2.566 8.897 8.897 0 0 1 1.22-.414c.713-.184 1.447-.313 2.218-.313.735 0 1.437.117 2.119.284a8.82 8.82 0 0 1 3.178 1.502c.058.043.115.085.171.13a8.973 8.973 0 0 1 2.765 3.64l.07.171c.282.722.507 1.474.596 2.273l.101 26h-18zm18.716-30.08c-.462-.892-1.07-1.68-1.745-2.404-2.008-2.155-4.831-3.516-7.97-3.516-5.583 0-10.263 4.204-10.887 9.777a1.969 1.969 0 0 0-.013.203l-.025 2.461a74.807 74.807 0 0 1-7.534.391c-10.445 0-19.883-2.137-25.718-5.343C4.285 32.407 2 29.875 2 27.171c0-4.236 5.55-8.06 13.841-10.373l2.106 3.118 1.603 2.373c-1.063 1.062-1.696 2.544-1.757 4.323-.071 2.054.605 4.246 1.904 6.171a11.404 11.404 0 0 0 1.893 2.148 8.414 8.414 0 0 1 .717-2.08 9.859 9.859 0 0 1-.952-1.189c-1.065-1.576-1.62-3.345-1.563-4.982.053-1.518.633-2.727 1.634-3.402.59-.399 1.278-.586 2.012-.586 1.961 0 4.24 1.353 5.791 3.652a9.62 9.62 0 0 1 .935 1.796 8.36 8.36 0 0 1 2.25.39 11.413 11.413 0 0 0-1.526-3.307c-2.06-3.05-5.241-4.719-8.006-4.489-.055.005-.106.026-.161.033a5.453 5.453 0 0 0-1.51.405l-.966-1.43-2.342-3.467c4.713-1.115 10.146-1.77 15.894-1.77 17.235 0 31.797 5.8 31.797 12.665 0 2.057-1.329 4.013-3.623 5.751zm1.183 4.06c0-.068-.004-.135-.012-.203a11.11 11.11 0 0 0-.406-1.96 16.652 16.652 0 0 0 1.998-1.666 23.037 23.037 0 0 1-1.577 4.107l-.003-.278z"/><path class="st4" d="M52.36 49.92a2.82 2.82 0 0 0-1.12.232 2.83 2.83 0 0 0-1.533 1.638 2.8 2.8 0 0 0-.18.962c0 .93.455 1.748 1.147 2.264l-.138.432-.768 2.404-.287.898a.998.998 0 0 0 .952 1.305h3.853c.231 0 .436-.102.612-.245.067-.053.143-.094.195-.165a.998.998 0 0 0 .145-.895l-.671-2.1-.522-1.634c.397-.296.701-.7.9-1.158.149-.341.246-.71.246-1.106a2.832 2.832 0 0 0-2.832-2.832z"/></svg>