<svg id="Layer_1" data-name="Layer 1" xmlns="http://www.w3.org/2000/svg" viewBox="0 0 33 28.18"><defs><style>.cls-1{fill:#ffdf99}.cls-2{fill:#fff}.cls-3{fill:#f8c02c}</style></defs><title>Artboard 1</title><path class="cls-1" d="M2 24.18v-15H1v18h10.55l-8.78-2a1 1 0 0 1-.77-1zm29 0a1 1 0 0 1-.78 1l-8.78 2H32v-18h-1z"/><path d="M32 8.18h-1v-2a1 1 0 0 0-1-1h-.22L27 5.85V4.18a1 1 0 0 0-1.49-.87l-9 5-9-5A1 1 0 0 0 6 4.18v1.67l-2.78-.64L3 5.18a1 1 0 0 0-1 1v2H1a1 1 0 0 0-1 1v18a1 1 0 0 0 1 1h15a1 1 0 0 0 .3-.05h.4a1 1 0 0 0 .3.05h15a1 1 0 0 0 1-1v-18a1 1 0 0 0-1-1zm-29-2l3 .69v15.31a1 1 0 0 0 .51.87l6 3.31L3 24.18zm-2 21v-18h1v15a1 1 0 0 0 .78 1l8.78 2zm6-5v-18l9 5v18zm19.49.87a1 1 0 0 0 .51-.87V6.87l3-.69v18l-9.48 2.19zM17 9.18l9-5v18l-9 5zm15 18H21.45l8.78-2a1 1 0 0 0 .78-1v-15h1z"/><path class="cls-2" d="M6.51 23.06a1 1 0 0 1-.51-.88V6.87l-3-.69v18l9.48 2.19zM30 24.18v-18l-3 .69v15.31a1 1 0 0 1-.51.87l-6 3.31z"/><path class="cls-2" d="M7 4.18v18l9 5v-18zm7.78 20.19l-6.56-3.65v-6l6.57 3.65zm0-7.94l-6.56-3.65v-1.13l6.57 3.65zm0-2.43l-6.56-3.65V9.22l6.57 3.65zm0-2.43L8.22 7.92V6.79l6.57 3.65zM26 4.18l-9 5v18l9-5zm-1.22 16.54l-6.57 3.65v-1.13l6.57-3.65zm0-2.43l-6.57 3.65v-1.13l6.57-3.65zm0-2.43l-6.57 3.65v-1.14l6.57-3.65zm0-3.08l-6.57 3.65v-6l6.57-3.65z"/><path class="cls-3" d="M18.21 16.43l6.58-3.65V6.79l-6.58 3.65v5.99z"/><path class="cls-1" d="M18.21 19.51l6.58-3.65v-1.14l-6.58 3.65v1.14zm0 2.43l6.58-3.65v-1.13l-6.58 3.64v1.14zm0 2.43l6.58-3.65v-1.13l-6.58 3.65v1.13zm-10-16.45l6.58 3.65v-1.13L8.21 6.79v1.13zm0 2.43L14.79 14v-1.13L8.21 9.22v1.13zm0 2.43l6.58 3.65V15.3l-6.58-3.65v1.13z"/><path class="cls-3" d="M8.21 20.72l6.58 3.65v-6l-6.58-3.65v6z"/><circle class="cls-3" cx="20.71" cy="3.63" r=".5" transform="rotate(-67.07 20.712 3.629)"/><circle class="cls-3" cx="11.09" cy=".5" r=".5" transform="rotate(-67.07 11.091 .5)"/><path class="cls-3" d="M28.84 2.57l.29.93.29-.93a.56.56 0 0 1 .37-.37l.93-.29-.93-.29a.56.56 0 0 1-.37-.37l-.29-.93-.29.93a.56.56 0 0 1-.37.37l-.93.29.93.29a.56.56 0 0 1 .37.37zm.29-.93a.27.27 0 1 1-.27.27.27.27 0 0 1 .27-.26z"/><circle class="cls-2" cx="29.13" cy="1.92" r=".27"/><path class="cls-3" d="M13.5 4.06l.29.93.29-.93a.56.56 0 0 1 .37-.37l.93-.29-.93-.29a.56.56 0 0 1-.37-.37l-.29-.93-.29.93a.56.56 0 0 1-.37.37l-.93.29.93.29a.56.56 0 0 1 .37.37zm.29-.93a.27.27 0 1 1-.27.27.27.27 0 0 1 .27-.27z"/><circle class="cls-2" cx="13.79" cy="3.4" r=".27"/></svg>