<?xml version="1.0" encoding="utf-8"?>
<!-- Generator: Adobe Illustrator 19.2.1, SVG Export Plug-In . SVG Version: 6.00 Build 0)  -->
<svg version="1.1" id="Layer_1_copy" xmlns="http://www.w3.org/2000/svg" xmlns:xlink="http://www.w3.org/1999/xlink" x="0px"
	 y="0px" viewBox="0 0 34 34" style="enable-background:new 0 0 34 34;" xml:space="preserve">
<style type="text/css">
	.st0{fill:#FDECC0;}
	.st1{fill:#F8C02C;}
	.st2{fill:#FFFFFF;}
</style>
<g>
	<path class="st0" d="M17,0C7.6,0,0,7.6,0,17s7.6,17,17,17s17-7.6,17-17S26.4,0,17,0z M27.5,23.1c0,0.1,0,0.2-0.1,0.2
		c-0.1,0.1-0.1,0.2-0.2,0.3c-0.4,0.4-1.1,0.4-1.6,0l-0.1-0.1l-0.3-0.3l-2.6-2.6l-1.4,1.4l2.6,2.6l0.3,0.3l0.1,0.1
		c0.4,0.4,0.4,1.2,0,1.6c-0.1,0.1-0.2,0.1-0.3,0.2c-0.1,0-0.2,0.1-0.3,0.1c-2,0.6-4.4,0.2-6-1.4c-1.5-1.5-2-3.7-1.5-5.6l-3.7,3.7
		c-0.1,0.1-0.3,0.2-0.4,0.3l-3.2,1.8c-0.8,0.4-1.8,0.3-2.4-0.3c-0.6-0.6-0.8-1.6-0.3-2.4l1.8-3.2c0.1-0.2,0.2-0.3,0.3-0.4l3.7-3.7
		l-4.2-4.2c-0.8-0.8-0.8-2,0-2.8l1.4-1.4c0.8-0.8,2-0.8,2.8,0l4.2,4.2l4.7-4.7c0.8-0.8,2-0.8,2.8,0l1.4,1.4c0.8,0.8,0.8,2,0,2.8
		l-4.7,4.7c2-0.5,4.1,0,5.6,1.5C27.7,18.8,28.2,21.1,27.5,23.1z"/>
	<path class="st1" d="M20.4,15.6l4.7-4.7c0.8-0.8,0.8-2,0-2.8l-1.4-1.4c-0.8-0.8-2-0.8-2.8,0l-4.7,4.7L12,7.2c-0.8-0.8-2-0.8-2.8,0
		L7.8,8.6c-0.8,0.8-0.8,2,0,2.8l4.2,4.2l-3.7,3.7c-0.1,0.1-0.2,0.3-0.3,0.4l-1.8,3.2c-0.4,0.8-0.3,1.8,0.3,2.4
		c0.6,0.6,1.6,0.8,2.4,0.3l3.2-1.8c0.2-0.1,0.3-0.2,0.4-0.3l3.7-3.7c-0.5,2,0,4.1,1.5,5.6c1.6,1.6,3.9,2.1,6,1.4
		c0.1,0,0.2-0.1,0.3-0.1c0.1-0.1,0.2-0.1,0.3-0.2c0.4-0.4,0.4-1.2,0-1.6L24.2,25l-0.3-0.3l-2.6-2.6l1.4-1.4l2.6,2.6l0.3,0.3l0.1,0.1
		c0.4,0.4,1.2,0.4,1.6,0c0.1-0.1,0.1-0.2,0.2-0.3c0-0.1,0.1-0.1,0.1-0.2c0.7-2,0.2-4.4-1.4-6C24.5,15.6,22.4,15.1,20.4,15.6z
		 M22.3,8.1l1.4,1.4L19,14.2l-1.4-1.4L22.3,8.1z M11,22.2l-3.2,1.8l1.8-3.2l3.7-3.7l1.4,1.4L11,22.2z M24.1,19.3
		c-0.8-0.8-2.1-0.8-2.8,0l-1.4,1.4c-0.8,0.8-0.8,2.1,0,2.8l1.7,1.7c-0.9-0.1-1.7-0.4-2.4-1.1c-1.3-1.3-1.5-3.2-0.6-4.7l-0.1-0.1
		l-1.4-1.4l-1.5-1.5L9.2,10l1.4-1.4L17,15l1.5,1.5l1.4,1.4l0.1,0.1c1.5-0.9,3.5-0.7,4.7,0.6c0.7,0.7,1,1.5,1.1,2.4L24.1,19.3z"/>
	<path class="st2" d="M19.9,17.9L19.9,17.9l-1.5-1.5L17,15l-6.4-6.4L9.2,10l6.4,6.4l1.5,1.5l1.4,1.4l0.1,0.1
		c-0.9,1.5-0.7,3.4,0.6,4.7c0.7,0.7,1.5,1,2.4,1.1l-1.7-1.7c-0.8-0.8-0.8-2.1,0-2.8l1.4-1.4c0.8-0.8,2.1-0.8,2.8,0l1.7,1.7
		c-0.1-0.9-0.4-1.7-1.1-2.4C23.4,17.3,21.4,17.1,19.9,17.9z"/>
	<rect x="17.3" y="10.1" transform="matrix(0.7071 -0.7071 0.7071 0.7071 -1.8229 17.8646)" class="st2" width="6.7" height="2"/>
	<polygon class="st2" points="9.6,20.7 7.9,23.9 11,22.2 14.8,18.4 13.3,17 	"/>
</g>
</svg>
