<?xml version="1.0" encoding="utf-8"?>
<!-- Generator: Adobe Illustrator 19.2.1, SVG Export Plug-In . SVG Version: 6.00 Build 0)  -->
<svg version="1.1" id="Layer_1_copy" xmlns="http://www.w3.org/2000/svg" xmlns:xlink="http://www.w3.org/1999/xlink" x="0px"
	 y="0px" viewBox="0 0 34 34" style="enable-background:new 0 0 34 34;" xml:space="preserve">
<style type="text/css">
	.st0{fill:#FDECC0;}
	.st1{fill:#FFFFFF;}
	.st2{fill:#F8C02C;}
</style>
<g>
	<path class="st0" d="M17,0C7.6,0,0,7.6,0,17c0,9.4,7.6,17,17,17s17-7.6,17-17C34,7.6,26.4,0,17,0z M26.8,23.6c0,1.1-0.7,2-1.8,2
		H9.7c-1.1,0-1.9-0.9-1.9-2v-9.5c0,0,0,0,0,0c0,0,0,0,0,0v-1.5c0-1.1,0.8-2,1.9-2h4.1v-2c0-1.1,0.9-2,2-2h3c1.1,0,2,0.9,2,2v2H25
		c1.1,0,1.8,0.9,1.8,2V23.6z"/>
	<rect x="15.8" y="8.6" class="st1" width="3" height="2"/>
	<path class="st1" d="M15.1,18.5h-2.8c-0.9,0-1.8-0.3-2.5-0.8v5.8h15v-5.8c-0.7,0.5-1.6,0.8-2.5,0.8h-2.7c-0.3,0.6-1,1-1.7,1h-1
		C16.1,19.6,15.4,19.2,15.1,18.5z"/>
	<rect x="16.8" y="16.5" class="st1" width="1" height="1"/>
	<path class="st1" d="M15.8,12.6h-6v1.5c0,1.4,1.1,2.5,2.5,2.5h2.5c0-1.1,0.9-2,2-2h1c1.1,0,2,0.9,2,2h2.5c1.4,0,2.5-1.1,2.5-2.5
		c0,0,0,0,0,0v-1.5h-6H15.8z"/>
	<path class="st2" d="M25,10.6h-4.2v-2c0-1.1-0.9-2-2-2h-3c-1.1,0-2,0.9-2,2v2H9.7c-1.1,0-1.9,0.9-1.9,2V14c0,0,0,0,0,0c0,0,0,0,0,0
		v9.5c0,1.1,0.8,2,1.9,2H25c1.1,0,1.8-0.9,1.8-2v-11C26.8,11.4,26.1,10.6,25,10.6z M17.8,19.6c0.7,0,1.4-0.4,1.7-1h2.7
		c0.9,0,1.8-0.3,2.5-0.8v5.8h-15v-5.8c0.7,0.5,1.6,0.8,2.5,0.8h2.8c0.4,0.6,1,1,1.7,1H17.8z M16.8,17.6v-1h1v1H16.8z M24.8,14
		C24.8,14,24.8,14,24.8,14c0,1.4-1.1,2.5-2.5,2.5h-2.5c0-1.1-0.9-2-2-2h-1c-1.1,0-2,0.9-2,2h-2.5c-1.4,0-2.5-1.1-2.5-2.5v-1.5h6h3h6
		V14z M15.8,8.6h3v2h-3V8.6z"/>
</g>
</svg>
