<?xml version="1.0" encoding="utf-8"?>
<!-- Generator: Adobe Illustrator 19.2.1, SVG Export Plug-In . SVG Version: 6.00 Build 0)  -->
<svg version="1.1" id="Layer_1_copy" xmlns="http://www.w3.org/2000/svg" xmlns:xlink="http://www.w3.org/1999/xlink" x="0px"
	 y="0px" viewBox="0 0 34 34" style="enable-background:new 0 0 34 34;" xml:space="preserve">
<style type="text/css">
	.st0{fill:#FDECC0;}
	.st1{fill:#FFFFFF;}
	.st2{fill:#F8C02C;}
</style>
<g>
	<path class="st0" d="M17,0C7.6,0,0,7.6,0,17c0,9.4,7.6,17,17,17s17-7.6,17-17C34,7.6,26.4,0,17,0z M21.9,20.8L21.3,25l-3.6-2.9
		c-0.2,0-0.5,0-0.7,0c-4.5,0-8.2-2.9-8.2-6.6C8.8,11.9,12.5,9,17,9c4.5,0,8.2,2.9,8.2,6.6C25.2,17.7,23.9,19.6,21.9,20.8z"/>
	<g>
		<path class="st1" d="M17,9c-4.5,0-8.2,2.9-8.2,6.6c0,3.6,3.7,6.6,8.2,6.6c0.2,0,0.5,0,0.7,0l3.6,2.9l0.6-4.2
			c2-1.2,3.3-3.1,3.3-5.3C25.2,11.9,21.5,9,17,9z"/>
		<path class="st2" d="M17,9c4.5,0,8.2,2.9,8.2,6.6c0,2.2-1.3,4.1-3.3,5.3L21.3,25l-3.6-2.9c-0.2,0-0.5,0-0.7,0
			c-4.5,0-8.2-2.9-8.2-6.6C8.8,11.9,12.5,9,17,9 M17,7c-5.6,0-10.2,3.8-10.2,8.6c0,4.7,4.6,8.6,10.2,8.6c0,0,0,0,0,0l3,2.4
			c0.4,0.3,0.8,0.4,1.2,0.4c0.2,0,0.5,0,0.7-0.1c0.7-0.3,1.1-0.9,1.2-1.6l0.5-3.3c2.2-1.6,3.5-4,3.5-6.4C27.2,10.8,22.6,7,17,7L17,7
			z"/>
	</g>
</g>
</svg>
