<?xml version="1.0" encoding="utf-8"?>
<!-- Generator: Adobe Illustrator 16.0.4, SVG Export Plug-In . SVG Version: 6.00 Build 0)  -->
<!DOCTYPE svg PUBLIC "-//W3C//DTD SVG 1.1//EN" "http://www.w3.org/Graphics/SVG/1.1/DTD/svg11.dtd">
<svg version="1.1" id="Layer_1" xmlns="http://www.w3.org/2000/svg" xmlns:xlink="http://www.w3.org/1999/xlink" x="0px" y="0px"
	 width="15.999px" height="21.998px" viewBox="0 0 15.999 21.998" enable-background="new 0 0 15.999 21.998" xml:space="preserve">
<g>
	<path d="M13.999,9V6c0-3.309-2.691-6-6-6s-6,2.691-6,6v3C0.896,9.001,0,9.896,0,11v8.998c0,1.104,0.896,2,2,2h11.999
		c1.104,0,2-0.896,2-2V11C15.999,9.896,15.104,9,13.999,9z M7.999,2c2.206,0,4,1.794,4,4v3h-8V6C3.999,3.794,5.793,2,7.999,2z
		 M13.999,19.998H2V11h11.999V19.998z"/>
	<path d="M9.999,18L8.89,15.782C9.546,15.454,9.999,14.783,9.999,14c0-1.105-0.895-2-2-2c-1.104,0-2,0.895-2,2
		c0,0.783,0.454,1.453,1.109,1.781L5.999,18H9.999z"/>
</g>
</svg>
