<?xml version="1.0" encoding="utf-8"?>
<!-- Generator: Adobe Illustrator 19.2.1, SVG Export Plug-In . SVG Version: 6.00 Build 0)  -->
<svg version="1.1" id="Layer_1" xmlns="http://www.w3.org/2000/svg" xmlns:xlink="http://www.w3.org/1999/xlink" x="0px" y="0px"
	 viewBox="0 0 12.4 14.3" style="enable-background:new 0 0 12.4 14.3;" xml:space="preserve">
<style type="text/css">
	.st0{fill:#F9C02E;}
</style>
<g>
	<path class="st0" d="M12.1,4c0.4-0.2,0.4-0.7,0-0.9L6.8,0.2c-0.4-0.2-0.9-0.2-1.3,0L0.3,3.1c-0.4,0.2-0.4,0.7,0,0.9l5.2,2.9
		c0.4,0.2,0.9,0.2,1.3,0L12.1,4z"/>
	<path class="st0" d="M12.4,6.3c0-0.4-0.5-0.6-0.9-0.4L7.3,8.2C7,8.4,6.8,8.7,6.8,9l0,4.8c0,0.4,0.5,0.6,0.9,0.4l4.2-2.4
		c0.3-0.2,0.5-0.5,0.5-0.8L12.4,6.3z"/>
	<path class="st0" d="M5.1,8.2L0.9,5.8C0.5,5.6,0,5.9,0,6.3l0,4.8c0,0.3,0.2,0.7,0.5,0.8l4.2,2.4c0.4,0.2,0.9,0,0.9-0.4l0-4.8
		C5.6,8.7,5.4,8.4,5.1,8.2z"/>
</g>
</svg>
