<svg id="OUTLINED" xmlns="http://www.w3.org/2000/svg" viewBox="0 0 37.29 39.64"><defs><style>.cls-1{fill:none}.cls-2{fill:#e1efa8}.cls-3{fill:#a4cd39}.cls-4{fill:#fff}.cls-5{fill:#a1cb3a}</style></defs><title>Artboard 1</title><path d="M1 10v13a.5.5 0 1 1-1 0V10a.5.5 0 1 1 1 0z"/><circle class="cls-1" cx="21.96" cy="1.2" r=".6" transform="rotate(-45 21.959 1.204)"/><path class="cls-1" d="M12.16 38.64l2.96-2.96 9.65.01-9.65-.01-2.96 2.96z"/><path class="cls-1" d="M26 35.59a6.2 6.2 0 0 1-1.28.1 6.2 6.2 0 0 0 1.28-.1zm8.79-11.88a1.5 1.5 0 0 1 1.06 2.56 1.5 1.5 0 0 0-1.06-2.56z"/><circle class="cls-1" cx="33.11" cy="13.5" r=".53"/><path class="cls-1" d="M26 35.59a1.88 1.88 0 0 0 1-.48l8.84-8.84L27 35.1a1.88 1.88 0 0 1-1 .49z"/><path class="cls-2" d="M35.85 24.14a1.5 1.5 0 0 0-2.12 0l-5 5a2.45 2.45 0 0 1-.4 3 2.51 2.51 0 0 1-1.78.73h-6.71a.5.5 0 0 1 0-1h6.74a1.52 1.52 0 0 0 1.4-.92 1.42 1.42 0 0 0 0-1.07v-.1l-.05-.1a1.52 1.52 0 0 0-.08-.15l-.08-.1-.1-.12-.14-.11-.09-.07-.17-.13-.1-.05-.17-.04H16.12a3.42 3.42 0 0 0-2.42 1.19l-.11.11-.37.36-4.59 4.53 3.54 3.54 3-3h9.65a6.2 6.2 0 0 0 1.28-.1 1.88 1.88 0 0 0 1-.48l8.84-8.84a1.5 1.5 0 0 0-.09-2.08z"/><path d="M36.56 23.44a2.5 2.5 0 0 0-3.54 0l-4.92 4.92a2.5 2.5 0 0 0-1.52-.52H16.12a4.4 4.4 0 0 0-3.12 1.5l-.24.23-.24.23-4.6 4.6a1 1 0 0 0 0 1.41l3.54 3.54a1 1 0 0 0 1.41 0l2.66-2.66h9.23a4 4 0 0 0 3-.88l8.8-8.81a2.5 2.5 0 0 0 0-3.56zm-.71 2.83L27 35.1a1.88 1.88 0 0 1-1 .48 6.2 6.2 0 0 1-1.28.1h-9.6l-3 3-3.49-3.58 4.59-4.59.37-.36.11-.11a3.42 3.42 0 0 1 2.42-1.19H27l.17.05.1.05.16.09.09.07.14.11.1.12.08.1a1.52 1.52 0 0 1 .08.15l.05.1v.1a1.42 1.42 0 0 1 0 1.07 1.52 1.52 0 0 1-1.4.92h-6.73a.5.5 0 0 0 0 1h6.74a2.51 2.51 0 0 0 1.78-.73 2.45 2.45 0 0 0 .4-3l5-5a1.5 1.5 0 0 1 2.12 2.12zM4 23.47h22.5a.5.5 0 0 0 0-1H25v-11a1 1 0 0 0-1-1h-4a1 1 0 0 0-1 1v11h-2V6.5a1 1 0 0 0-1-1h-4a1 1 0 0 0-1 1v16H9v-9a1 1 0 0 0-1-1H4a1 1 0 0 0-1 1v9H.5a.5.5 0 0 0 0 1zm16-12h4v11h-4zm-8 9.41V6.5h4v16h-4zM4 13.5h4v9H4z"/><path class="cls-2" d="M3.96 13.5h4v8.98h-4z"/><path class="cls-3" d="M19.96 11.5h4v10.98h-4z"/><path class="cls-4" d="M15.96 7.91l-4 4v1.59l4-4V7.91zM14.37 6.5l-2.41 2.41v1.59l4-4h-1.59zm-2.41 0v1l1-1h-1zm3.02 15.97l.98-.97v-1.59l-2.56 2.56h1.58zm.98-11.56l-4 4v1.59l4-4v-1.59zm0 3l-4 4v1.59l4-4v-1.59zm0 4.59v-1.59l-4 4v1.56h.02l3.98-3.97z"/><path class="cls-2" d="M12.96 6.5l-1 1v1.41l2.41-2.41h-1.41zm3 0l-4 4v1.41l4-4V6.5zm0 3l-4 4v1.41l4-4V9.5zm0 3l-4 4v1.41l4-4V12.5zm0 3l-4 4v1.41l4-4V15.5zm-2.56 6.97l2.56-2.56V18.5l-3.98 3.97h1.42zm2.56 0v-.97l-.98.97h.98z"/><circle class="cls-5" cx="30.16" cy="3.99" r=".61" transform="rotate(-67.07 30.168 3.99)"/><path class="cls-5" d="M22.81 2a1.2 1.2 0 1 0-1.7 0 1.2 1.2 0 0 0 1.7 0zM21.54.78a.6.6 0 1 1 0 .85.6.6 0 0 1 0-.85zm10.25 13.29a1.12 1.12 0 0 1 .74.74l.58 1.87.58-1.87a1.12 1.12 0 0 1 .74-.74l1.87-.58-1.87-.58a1.12 1.12 0 0 1-.74-.74l-.58-1.87-.58 1.87a1.12 1.12 0 0 1-.74.74l-1.87.58zM33.11 13a.53.53 0 1 1-.53.53.53.53 0 0 1 .53-.53z"/></svg>