<?xml version="1.0" encoding="utf-8"?>
<!-- Generator: Adobe Illustrator 19.2.1, SVG Export Plug-In . SVG Version: 6.00 Build 0)  -->
<svg version="1.1" id="Layer_2_copy" xmlns="http://www.w3.org/2000/svg" xmlns:xlink="http://www.w3.org/1999/xlink" x="0px"
	 y="0px" viewBox="0 0 34 34" style="enable-background:new 0 0 34 34;" xml:space="preserve">
<style type="text/css">
	.st0{fill:#FDECC0;}
	.st1{fill:#FFFFFF;}
	.st2{fill:#F8C02C;}
</style>
<g>
	<path class="st0" d="M11.5,19.9C11.5,19.9,11.5,19.9,11.5,19.9C11.5,19.9,11.5,19.8,11.5,19.9C11.4,19.8,11.5,19.9,11.5,19.9z"/>
	<path class="st0" d="M11.3,19.8C11.3,19.8,11.2,19.8,11.3,19.8C11.2,19.8,11.3,19.8,11.3,19.8z"/>
	<path class="st0" d="M17,0C7.6,0,0,7.6,0,17c0,9.4,7.6,17,17,17c9.4,0,17-7.6,17-17C34,7.6,26.4,0,17,0z M26,23.6
		c-0.4,0.4-0.9,0.6-1.4,0.6s-1-0.2-1.4-0.6l-1.8-1.8l-0.7,0h-9.2c0,0,0,0-0.1,0c-1,0-1.6-0.6-1.8-0.8l-4.4-4.4
		c-0.5-0.5-0.7-1.1-0.7-1.8s0.3-1.3,0.7-1.8s1.1-0.7,1.8-0.7s1.3,0.3,1.8,0.7l3,3l6,0l0-1.1h-4.5c-1.4,0-2.5-1.1-2.5-2.5
		s1.1-2.5,2.5-2.5h6.2h1.3c0.5,0,1,0.2,1.4,0.6l7,7.1c0.8,0.8,0.8,2,0,2.8L26,23.6z"/>
	<path class="st1" d="M19.5,11.9h-6.2c-0.3,0-0.5,0.2-0.5,0.5s0.2,0.5,0.5,0.5h6.2l0.4,0l0,5.1l-8.9,0l-3.6-3.6
		c-0.1-0.1-0.2-0.1-0.4-0.1s-0.3,0-0.4,0.1c-0.2,0.2-0.2,0.5,0,0.7l4.4,4.4c0.1,0.1,0.1,0.1,0.2,0.2c0,0,0,0,0,0
		c0.1,0,0.1,0.1,0.2,0.1c0,0,0,0,0,0h9.2l1.6,0l2.4,2.4l3.2-3.2l-7-7.1C20.8,11.9,19.6,11.9,19.5,11.9z"/>
	<path class="st2" d="M29.3,17.6l-7-7.1c-0.4-0.4-0.9-0.6-1.4-0.6h-1.3h-6.2c-1.4,0-2.5,1.1-2.5,2.5s1.1,2.5,2.5,2.5h4.5l0,1.1l-6,0
		l-3-3c-0.5-0.5-1.1-0.7-1.8-0.7S5.7,12.5,5.2,13s-0.7,1.1-0.7,1.8s0.3,1.3,0.7,1.8L9.7,21c0.2,0.2,0.8,0.8,1.8,0.8c0,0,0,0,0.1,0
		h9.2l0.7,0l1.8,1.8c0.4,0.4,0.9,0.6,1.4,0.6s1-0.2,1.4-0.6l3.2-3.2C30,19.6,30,18.4,29.3,17.6z M24.6,22.2l-2.4-2.4l-1.6,0h-9.2
		c0,0,0,0,0,0c0,0,0,0,0,0c-0.1,0-0.1,0-0.2-0.1c0,0,0,0,0,0c-0.1,0-0.1-0.1-0.2-0.2l-4.4-4.4c-0.2-0.2-0.2-0.5,0-0.7
		c0.1-0.1,0.2-0.1,0.4-0.1s0.3,0,0.4,0.1l3.6,3.6l8.9,0l0-5.1l-0.4,0h-6.2c-0.3,0-0.5-0.2-0.5-0.5s0.2-0.5,0.5-0.5h6.2
		c0.1,0,1.3,0,1.3,0l7,7.1L24.6,22.2z"/>
</g>
</svg>
