<svg id="NOT_OUTLINED_copy" data-name="NOT OUTLINED copy" xmlns="http://www.w3.org/2000/svg" viewBox="0 0 36 37.34"><defs><style>.cls-1{fill:#f9c02e}.cls-2{fill:#020202}.cls-3{fill:#ffdf99}.cls-4{fill:#fff}.cls-5{fill:#f8c02c}</style></defs><title>Artboard 1</title><path d="M3.92 31.68a2.41 2.41 0 0 1-1.16-.43.46.46 0 0 1 0-.56.38.38 0 0 1 .52-.07 2 2 0 0 0 .68.26v-1.21c-.68-.15-1.37-.37-1.27-1.31a1.31 1.31 0 0 1 1.27-1.1v-.1a.34.34 0 1 1 .68 0v.14a1.78 1.78 0 0 1 .74.27c.43.31 0 .89-.38.62a3.1 3.1 0 0 0-.37-.14v1.09c.63.16 1.25.43 1.25 1.21a1.3 1.3 0 0 1-1.28 1.27v.15a.34.34 0 1 1-.68 0zm0-3.68c-.32.05-.53.2-.53.52s.21.38.53.48zm.68 2.88c.26-.11.48-.26.48-.58a.59.59 0 0 0-.48-.42zm14.94-10.54h16a.5.5 0 0 0 0-1H35v-8a1 1 0 0 0-1-1h-2a1 1 0 0 0-1 1v8h-1v-10a1 1 0 0 0-1-1h-2a1 1 0 0 0-1 1v10h-1v-5a1 1 0 0 0-1-1h-2a1 1 0 0 0-1 1v5h-1V6.84a.5.5 0 0 0-1 0v13a.5.5 0 0 0 .54.5zm12.46-9h2v8h-2zm-5-2h2v10h-2zm-5 5h2v5h-2z"/><path d="M14 36.34H1v-10.5a.5.5 0 0 0-1 0v11a.5.5 0 0 0 .5.5H14a.5.5 0 0 0 0-1z"/><path class="cls-1" d="M12.1 16.45l.07-.12v.06zM10.69 18a6 6 0 0 1-.94.61 6 6 0 0 0 .94-.61z"/><path class="cls-1" d="M7 19.29a6 6 0 0 0 2.74-.66 6 6 0 0 1-1.06.37L7 13.29l5.88-1.17a6 6 0 0 1-.28 3.31A6 6 0 1 0 7 19.29zM10.69 18a6 6 0 0 0 1.39-1.54A6 6 0 0 1 10.69 18zm1.48-1.67a6 6 0 0 0 .42-.87 6 6 0 0 1-.43.86z"/><path class="cls-2" d="M7 20.29a7 7 0 1 0-7-7 7 7 0 0 0 7 7zm0-13a6 6 0 0 1 5.6 8.14 6 6 0 0 1-.42.87l-.07.12A6 6 0 0 1 10.69 18a6 6 0 0 1-.94.61A6 6 0 1 1 7 7.29z"/><path class="cls-1" d="M22 14.34h2v5h-2z"/><path class="cls-3" d="M32 11.34h2v8h-2z"/><path class="cls-4" d="M27 9.34h2v10h-2z"/><path class="cls-3" d="M12.13 16.39v-.06zm-.06.08L7 13.29 8.68 19a6 6 0 0 0 1.06-.42 6 6 0 0 0 .94-.61 6 6 0 0 0 1.39-1.5z"/><path class="cls-4" d="M12.88 12.13L7 13.29l5.07 3.17v-.12a6 6 0 0 0 .43-.86 6 6 0 0 0 .38-3.35z"/><path class="cls-1" d="M14 36.34v-3l-4-3-4 4-1-1-3.96 2.97-.04.03h13z"/><path class="cls-4" d="M34 31.17a5.8 5.8 0 0 0-1.64-.61 2.39 2.39 0 0 1 .89.53c.46.42-.64 1.06-.84.7s-.57-.83-.82-.62.42.35.92 1 0 4.21 0 4.21H35v-4.17a12.84 12.84 0 0 1-1-1.04zm-6 2.34c-.65 0-.88-.91-.84-1.56a1.35 1.35 0 0 1 .74-1.23c.45-.3 2.68 0 2.68 0 .71 0 .33-.52 0-1.06s-.86-.24-1.15-.24.13.35.17.64-.87 0-.87 0 .37-.32.24-.62-.76.1-1 .26-.5.69-1 .52-.48-.86-.22-1.15.89-.11 1-.11-.28-.49.22-.66.51-.58 1.09-.07c.3.26 1.43 0 1.47-.37s-.62-.66-1.25-.79-.42 1-.83.79-.17-1.54-.17-1.54h-4.84l-.63.31c-.63.31-.75 1.31-.5.94s.94-.12 1.38 0-.06 1.19-.69 1.31 0 .94-.19 1.44-.5-.25-.81-.69-1.37.25-1.25 1 1.25.5 2.22.69 2.22 1.12 1.84 2a11 11 0 0 0-.37 3h6.35a17 17 0 0 0-.92-2.64c-.23-.19-1.18-.13-1.87-.17zm-.3-6.08a4.91 4.91 0 0 1 .17.6c.13.38-.19.17-.58.17s-.15-.35-.33-1 .6-.28.79.22zm-1-.12s.23.71 0 .67-.27-.76.04-.68z"/><path class="cls-4" d="M21.13 32.78a1 1 0 0 1 .88-1 5.57 5.57 0 0 1-1.31-.44 1.23 1.23 0 0 1-.65-1v-4 10h3.31s-.11-.34-.36-1.25-1.87-1.44-1.87-2.31z"/><path d="M35 25.34H20a1 1 0 0 0-1 1v10a1 1 0 0 0 1 1h15a1 1 0 0 0 1-1v-10a1 1 0 0 0-1-1zm0 6.87v4.13H20v-10h15z"/><path class="cls-1" d="M23 31.34c-1-.19-2.09.06-2.22-.69s.94-1.44 1.25-1 .62 1.19.81.69-.46-1.34.16-1.44 1.13-1.19.69-1.31-1.12-.37-1.37 0-.13-.62.5-.94l.63-.31H20v4a1.23 1.23 0 0 0 .65 1 5.57 5.57 0 0 0 1.31.44 1 1 0 0 0-.87 1c0 .88 1.63 1.44 1.88 2.31s.31 1.25.31 1.25h1.13a11 11 0 0 1 .38-3c.4-.88-.85-1.81-1.79-2zm4.33-3.15c.4 0 .71.21.58-.17a4.91 4.91 0 0 0-.17-.6c-.19-.5-.93-.83-.75-.21s-.05.98.34.98zm-.59-.19c.23 0 0-.67 0-.67-.31-.11-.23.6 0 .67z"/><path class="cls-1" d="M28.54 27.88c.42.17.21-.92.83-.79s1.29.37 1.25.79-1.17.63-1.47.38c-.58-.5-.59-.09-1.09.07s-.06.67-.22.67-.74-.18-1 .11-.3 1 .22 1.15.8-.36 1-.52.84-.56 1-.26-.24.62-.24.62.92.29.88 0-.46-.64-.17-.64.85-.3 1.15.24.68 1 0 1.06c0 0-2.23-.32-2.68 0a1.35 1.35 0 0 0-.74 1.23c0 .65.19 1.52.84 1.56s1.6 0 1.83.19a17 17 0 0 1 .92 2.64h1.65s.5-3.6 0-4.21-1.17-.75-.92-1 .61.27.82.62 1.3-.29.84-.7a2.39 2.39 0 0 0-.89-.53 5.8 5.8 0 0 1 1.64.61 12.84 12.84 0 0 0 1 1v-5.83h-6.61s-.25 1.37.16 1.54z"/><circle class="cls-5" cx="30.83" cy=".5" r=".5" transform="rotate(-67.07 30.832 .499)"/><path class="cls-5" d="M32.71 5.4l.29.93.29-.93a.56.56 0 0 1 .37-.4l.93-.29-.93-.29a.56.56 0 0 1-.37-.37l-.29-.9-.29.93a.56.56 0 0 1-.37.37l-.93.29.93.29a.56.56 0 0 1 .37.37zm.29-.92a.27.27 0 1 1-.27.27.27.27 0 0 1 .27-.27z"/><circle class="cls-4" cx="33" cy="4.75" r=".27"/><path class="cls-5" d="M26.52 4.25a.5.5 0 1 0-.27-.66.5.5 0 0 0 .27.66zm0-.54a.19.19 0 1 1 .1.25.19.19 0 0 1-.09-.25z"/><circle class="cls-4" cx="26.71" cy="3.79" r=".19" transform="rotate(-67.08 26.707 3.785)"/><path class="cls-5" d="M12.58 26.64l-.29-.93-.29.93a.56.56 0 0 1-.37.37l-.93.29.93.29A.56.56 0 0 1 12 28l.29.93.29-.93a.56.56 0 0 1 .37-.37l.93-.29-.93-.34a.56.56 0 0 1-.37-.36zm-.29.93a.27.27 0 1 1 .27-.27.27.27 0 0 1-.27.26z"/><circle class="cls-4" cx="12.29" cy="27.3" r=".27"/><path class="cls-5" d="M7.54 26.14a.5.5 0 1 0 .66-.27.5.5 0 0 0-.66.27zm.64.27a.19.19 0 1 1-.1-.25.19.19 0 0 1 .1.25z"/><circle class="cls-4" cx="8" cy="26.34" r=".19" transform="rotate(-67.08 8.003 26.335)"/></svg>