<svg id="OUTLINES" xmlns="http://www.w3.org/2000/svg" viewBox="0 0 42 34.41"><defs><style>.cls-1{fill:none}.cls-2{fill:#fff}.cls-3{fill:#c4f2f2}.cls-4{fill:#60c7ca}</style></defs><title>Artboard 1</title><circle class="cls-1" cx="6.5" cy="13.61" r=".6" transform="rotate(-45 6.497 13.609)"/><path class="cls-2" d="M18.57 9.21a1.19 1.19 0 0 1 .08-.41 1.27 1.27 0 0 1-.56-.65A1.86 1.86 0 0 1 16 9.29v4.12h4v-3a1.14 1.14 0 0 1-.23 0 1.2 1.2 0 0 1-1.2-1.2z"/><path class="cls-2" d="M15 9.31h-.23A1.88 1.88 0 0 1 13 6.81a2 2 0 0 1 1.8-3.61 1.87 1.87 0 0 1 3.38.8 1.86 1.86 0 0 1 1.48 2.48h.15a1.17 1.17 0 0 1 2.13.52 1.18 1.18 0 0 1 0 2.34 1.19 1.19 0 0 1-.79 1 1.13 1.13 0 0 1-.16 0v3h4v-5.1a1.68 1.68 0 0 1-.51.09 1.69 1.69 0 0 1-1.6-2.28 1.82 1.82 0 0 1 1.64-3.25 1.69 1.69 0 0 1 3 .73 1.7 1.7 0 0 1 0 3.35A1.67 1.67 0 0 1 26 8.32v5.09h3v-2a5.48 5.48 0 0 1 1-3.16V1.41H11v12h4z"/><circle class="cls-3" cx="5.5" cy="21.91" r="1.5"/><path d="M8 21.91a2.5 2.5 0 1 0-2.5 2.5 2.5 2.5 0 0 0 2.5-2.5zm-2.5 1.5a1.5 1.5 0 1 1 1.5-1.5 1.5 1.5 0 0 1-1.5 1.5z"/><path class="cls-2" d="M8 28.91a3.49 3.49 0 0 0-3-3.45 3.47 3.47 0 0 1 .5-.05 3.5 3.5 0 0 0-3.5 3.5v1.5h6z"/><circle class="cls-3" cx="17.5" cy="21.91" r="1.5"/><path d="M20 21.91a2.5 2.5 0 1 0-2.5 2.5 2.5 2.5 0 0 0 2.5-2.5zm-2.5 1.5a1.5 1.5 0 1 1 1.5-1.5 1.5 1.5 0 0 1-1.5 1.5z"/><path class="cls-2" d="M20 28.91a3.49 3.49 0 0 0-3-3.45 3.47 3.47 0 0 1 .5-.05 3.5 3.5 0 0 0-3.5 3.5v1.5h6z"/><path class="cls-3" d="M20 28.91v1.5h1v-1.5a3.41 3.41 0 0 0-4-3.45 3.49 3.49 0 0 1 3 3.45zm-12 0v1.5h1v-1.5a3.5 3.5 0 0 0-3.5-3.5 3.47 3.47 0 0 0-.5.05 3.49 3.49 0 0 1 3 3.45z"/><ellipse class="cls-3" cx="34.5" cy="2.93" rx="1.93" ry="1.93"/><path d="M34.5 5.87a2.93 2.93 0 1 0-2.93-2.93 2.93 2.93 0 0 0 2.93 2.93zm0-4.87a1.93 1.93 0 1 1-1.93 1.93A1.93 1.93 0 0 1 34.5 1z"/><path class="cls-4" d="M14.55 8a1.87 1.87 0 0 1 0-1A1.91 1.91 0 0 1 13 6.81a1.88 1.88 0 0 0 1.78 2.52h.23a1.87 1.87 0 0 0 .56-.15A1.88 1.88 0 0 1 14.55 8zm9.74-.83a1.69 1.69 0 0 1 0-.93 1.72 1.72 0 0 1-1.36-.19A1.69 1.69 0 0 0 25 8.24l.2-.07a1.7 1.7 0 0 1-.91-1z"/><path class="cls-4" d="M27.59 6.87a1.7 1.7 0 0 0 0-3.35 1.69 1.69 0 0 0-3-.73 1.83 1.83 0 1 0-.26 3.44 1.7 1.7 0 1 0 3.34.63zm-7.96 2.72a1.17 1.17 0 0 1 0-.68 1 1 0 0 1-1-.12 1.19 1.19 0 0 0-.08.41 1.2 1.2 0 0 0 1.2 1.21 1.14 1.14 0 0 0 .23 0 1.2 1.2 0 0 0 .27-.07 1.19 1.19 0 0 1-.62-.75z"/><path class="cls-4" d="M22 9.37a1.18 1.18 0 0 0 0-2.34 1.17 1.17 0 0 0-2.14-.51h-.15A1.86 1.86 0 0 0 18.17 4a1.87 1.87 0 0 0-3.38-.8A2 2 0 1 0 14.5 7a1.87 1.87 0 0 0 1.06 2.14 1.88 1.88 0 0 0 2.53-1 1.27 1.27 0 0 0 .56.65 1 1 0 0 0 1 .12 1.17 1.17 0 0 0 0 .68 1.17 1.17 0 0 0 1.37.77 1.13 1.13 0 0 0 .16 0 1.19 1.19 0 0 0 .82-.99z"/><path class="cls-2" d="M33.86 7A4.49 4.49 0 0 0 30 11.41v5h7.71v-5A4.49 4.49 0 0 0 33.86 7z"/><path class="cls-3" d="M34.5 6.9a4.46 4.46 0 0 0-.64.06 4.49 4.49 0 0 1 3.86 4.45v5H39v-5a4.5 4.5 0 0 0-4.5-4.51z"/><path d="M35.5 18.41a.5.5 0 0 0-.5.5v4.74L33.54 27A4.49 4.49 0 0 0 25 29v1.5h-3v-1.93l2-4.48a.44.44 0 0 0 0-.21v-4.97a.5.5 0 0 0-1 0v4.74L21.54 27A4.49 4.49 0 0 0 13 29v1.5h-3v-1.93l2-4.48a.44.44 0 0 0 0-.21v-4.97a.5.5 0 0 0-1 0v4.74L9.54 27A4.49 4.49 0 0 0 1 29v1.5a1 1 0 0 0-1 1v2a1 1 0 0 0 1 1h33a1 1 0 0 0 1-1v-2a1 1 0 0 0-1-1v-1.93l2-4.48a.44.44 0 0 0 0-.21v-4.97a.5.5 0 0 0-.5-.5zM14 28.91a3.5 3.5 0 0 1 7 0v1.5h-7zm-12 0a3.5 3.5 0 0 1 7 0v1.5H2zm32 4.5H1v-2h33zm-2-3h-6v-1.5a3.5 3.5 0 0 1 7 0v1.5zM42 .91a.5.5 0 0 0-1 0v4.73l-1.52 3.45A5.48 5.48 0 0 0 31 7.17V1.41a1 1 0 0 0-1-1H11a1 1 0 0 0-1 1v13a1 1 0 0 0 1 1h18v1a1 1 0 0 0 1 1h9a1 1 0 0 0 1-1v-5a5.51 5.51 0 0 0-.08-.89l2-4.48a.49.49 0 0 0 0-.22zm-31 13.5v-13h19v6.85a5.48 5.48 0 0 0-1 3.16v3zm28 2h-9v-5A4.49 4.49 0 0 1 33.86 7a4.46 4.46 0 0 1 .64-.06 4.5 4.5 0 0 1 4.5 4.47z"/><circle class="cls-3" cx="29.5" cy="21.91" r="1.5"/><path d="M32 21.91a2.5 2.5 0 1 0-2.5 2.5 2.5 2.5 0 0 0 2.5-2.5zm-2.5 1.5a1.5 1.5 0 1 1 1.5-1.5 1.5 1.5 0 0 1-1.5 1.5z"/><path class="cls-2" d="M29 25.46a3.47 3.47 0 0 1 .5-.05 3.5 3.5 0 0 0-3.5 3.5v1.5h6v-1.5a3.49 3.49 0 0 0-3-3.45z"/><path class="cls-3" d="M29.5 25.41a3.47 3.47 0 0 0-.5.05 3.49 3.49 0 0 1 3 3.45v1.5h1v-1.5a3.5 3.5 0 0 0-3.5-3.5z"/><path class="cls-4" d="M26 13.41V8.32a1.7 1.7 0 0 1-.8-.15l-.2.07v5.17h-4v-3a1.19 1.19 0 0 1-.73-.07 1.2 1.2 0 0 1-.27.07v3h-4V9.29a1.89 1.89 0 0 1-.44-.13 1.87 1.87 0 0 1-.56.15v4.1h-4v1h18v-1zm0 18H1v2h33v-2h-8z"/><circle class="cls-4" cx="1.09" cy="8.73" r=".5" transform="rotate(-67.07 1.085 8.733)"/><path class="cls-4" d="M1.5 17.29l.29.93.29-.93a.56.56 0 0 1 .37-.37l.93-.29-.93-.29a.56.56 0 0 1-.37-.34l-.29-1-.29 1a.56.56 0 0 1-.37.37l-.93.29.93.29a.56.56 0 0 1 .37.34zm.29-.93a.27.27 0 1 1-.27.27.27.27 0 0 1 .27-.27z"/><circle class="cls-2" cx="1.79" cy="16.63" r=".27"/><path class="cls-4" d="M5.5 5.29l.29.93.29-.93a.56.56 0 0 1 .37-.37l.93-.29-.93-.29A.56.56 0 0 1 6.08 4l-.29-1-.29 1a.56.56 0 0 1-.37.37l-.93.29.93.29a.56.56 0 0 1 .37.34zm.29-.93a.27.27 0 1 1-.27.27.27.27 0 0 1 .27-.27z"/><circle class="cls-2" cx="5.79" cy="4.63" r=".27"/><path class="cls-4" d="M5.65 12.76a1.2 1.2 0 1 0 1.7 0 1.2 1.2 0 0 0-1.7 0zM6.92 14a.6.6 0 1 1 0-.85.6.6 0 0 1 0 .85z"/></svg>