<?xml version="1.0" encoding="utf-8"?>
<!-- Generator: Adobe Illustrator 19.2.1, SVG Export Plug-In . SVG Version: 6.00 Build 0)  -->
<svg version="1.1" id="Layer_1" xmlns="http://www.w3.org/2000/svg" xmlns:xlink="http://www.w3.org/1999/xlink" x="0px" y="0px"
	 viewBox="0 0 54 54" style="enable-background:new 0 0 54 54;" xml:space="preserve">
<style type="text/css">
	.st0{fill:#62C7CB;}
	.st1{fill:#010101;}
	.st2{fill:#FFFFFF;}
	.st3{fill:#C7E8EB;}
</style>
<g>
	<g>
		<rect x="18" y="31.1" class="st0" width="4" height="6"/>
	</g>
	<g>
		<rect x="7.9" y="34.1" class="st0" width="2" height="2.9"/>
	</g>
	<g>
		<ellipse transform="matrix(0.7071 -0.7072 0.7072 0.7071 -9.5684 10.2604)" class="st0" cx="7.6" cy="16.7" rx="0.3" ry="0.3"/>
	</g>
	<g>
		<rect x="43.7" y="34.1" class="st0" width="2" height="3"/>
	</g>
	<g>
		<rect x="31.3" y="31.1" class="st0" width="2.2" height="6"/>
	</g>
	<g>
		<g>
			<path class="st0" d="M27,0C12.1,0,0,12.1,0,27s12.1,27,27,27s27-12.1,27-27S41.9,0,27,0z M43,15.4c0.1-0.3,0.4-0.4,0.7-0.3
				s0.4,0.4,0.3,0.7s-0.4,0.4-0.7,0.3S42.9,15.6,43,15.4z M40,14.4c0.1-0.3,0.4-0.4,0.7-0.3s0.4,0.4,0.3,0.7s-0.4,0.4-0.7,0.3
				S39.9,14.6,40,14.4z M38.9,18.4c0.2-0.1,0.3-0.2,0.4-0.4l0.3-0.9l0.3,0.9c0.1,0.2,0.2,0.3,0.4,0.4l0.9,0.3L40.3,19
				c-0.2,0.1-0.3,0.2-0.4,0.4l-0.3,0.9l-0.3-0.9c-0.1-0.2-0.2-0.3-0.4-0.4L38,18.7L38.9,18.4z M11.8,15.7c0.2-0.1,0.3-0.2,0.4-0.4
				l0.3-0.9l0.3,0.9c0.1,0.2,0.2,0.3,0.4,0.4l0.9,0.3l-0.9,0.3c-0.2,0.1-0.3,0.2-0.4,0.4l-0.3,0.9l-0.3-0.9
				c-0.1-0.2-0.2-0.3-0.4-0.4L10.9,16L11.8,15.7z M7.2,16.3C7.4,16,7.8,16,8,16.3c0.2,0.2,0.2,0.6,0,0.8c-0.2,0.2-0.6,0.2-0.8,0
				S6.9,16.5,7.2,16.3z M49,38.1h-3.3h-2H41c0,0-6.9,0.6-7,3.2s6.9,2.9,7,4S23.5,47,22,44.5s5.5-2.8,5-4c-0.5-1.2-13.3,0.7-14-0.8
				s8-1.6,8-1.6h-3H9.9h-2H5.5c-0.3,0-0.5-0.2-0.5-0.5s0.2-0.5,0.5-0.5h1.4v-2.9H5.2c-0.3,0-0.7-0.2-0.8-0.5c-0.2-0.3-0.2-0.6-0.1-1
				L8,24.4C7.1,24,6.4,23.1,6.4,22c0-1.4,1.1-2.5,2.5-2.5s2.5,1.1,2.5,2.5c0,1-0.6,1.9-1.5,2.3l3.8,8.4c0.1,0.3,0.1,0.7-0.1,1
				c-0.2,0.3-0.5,0.5-0.8,0.5h-1.9v2.9H17v-6h-1c-0.6,0-1-0.4-1-1v-7.7c0-2,1.2-3.8,3-4.6c-1.2-0.7-2-2-2-3.4c0-2.2,1.8-4,4-4
				s4,1.8,4,4c0,1.5-0.8,2.7-2,3.4c1.8,0.8,3,2.5,3,4.6v7.7c0,0.6-0.4,1-1,1h-1v6h7.3v-6h-3.4c-0.3,0-0.7-0.2-0.8-0.5
				c-0.2-0.3-0.2-0.7-0.1-1l5.5-11.4c-1.8-0.4-3.1-2-3.1-3.9c0-2.2,1.8-4,4-4c2.2,0,4,1.8,4,4c0,1.9-1.3,3.5-3.1,3.9l5.5,11.4
				c0.2,0.3,0.1,0.7-0.1,1c-0.2,0.3-0.5,0.5-0.8,0.5h-3.4v6h8.1v-3c0,0,0,0,0,0h-1.2c-0.6,0-1-0.4-1-1v-5.5c0-1.7,1.3-3.2,3-3.7
				c-0.8-0.4-1.3-1.2-1.3-2.2c0-1.4,1.1-2.5,2.5-2.5c1.4,0,2.5,1.1,2.5,2.5c0,0.9-0.5,1.7-1.3,2.2c1.7,0.5,3,1.9,3,3.7v5.5
				c0,0.6-0.4,1-1,1h-1.2c0,0,0,0,0,0v3H49c0.3,0,0.5,0.2,0.5,0.5S49.3,38.1,49,38.1z"/>
		</g>
	</g>
	<path class="st1" d="M49,37.1h-2.3v-3c0,0,0,0,0,0h1.2c0.6,0,1-0.4,1-1v-5.5c0-1.7-1.3-3.2-3-3.7c0.8-0.4,1.3-1.2,1.3-2.2
		c0-1.4-1.1-2.5-2.5-2.5c-1.4,0-2.5,1.1-2.5,2.5c0,0.9,0.5,1.7,1.3,2.2c-1.7,0.5-3,1.9-3,3.7v5.5c0,0.6,0.4,1,1,1h1.2c0,0,0,0,0,0v3
		h-8.1v-6H38c0.3,0,0.7-0.2,0.8-0.5c0.2-0.3,0.2-0.7,0.1-1l-5.5-11.4c1.8-0.4,3.1-2,3.1-3.9c0-2.2-1.8-4-4-4c-2.2,0-4,1.8-4,4
		c0,1.9,1.3,3.5,3.1,3.9L26,29.6c-0.2,0.3-0.1,0.7,0.1,1c0.2,0.3,0.5,0.5,0.8,0.5h3.4v6H23v-6h1c0.6,0,1-0.4,1-1v-7.7
		c0-2-1.2-3.8-3-4.6c1.2-0.7,2-2,2-3.4c0-2.2-1.8-4-4-4s-4,1.8-4,4c0,1.5,0.8,2.7,2,3.4c-1.8,0.8-3,2.5-3,4.6v7.7c0,0.6,0.4,1,1,1h1
		v6h-6.1v-2.9h1.9c0.3,0,0.7-0.2,0.8-0.5c0.2-0.3,0.2-0.6,0.1-1l-3.8-8.4c0.9-0.4,1.5-1.3,1.5-2.3c0-1.4-1.1-2.5-2.5-2.5
		S6.4,20.7,6.4,22c0,1.1,0.7,2,1.6,2.3l-3.8,8.4c-0.1,0.3-0.1,0.7,0.1,1c0.2,0.3,0.5,0.5,0.8,0.5h1.7v2.9H5.5
		c-0.3,0-0.5,0.2-0.5,0.5s0.2,0.5,0.5,0.5h2.4h2H18h3h1h9.3h2.2H41h2.7h2H49c0.3,0,0.5-0.2,0.5-0.5S49.3,37.1,49,37.1z M44.7,20.3
		c0.8,0,1.5,0.7,1.5,1.5s-0.7,1.5-1.5,1.5s-1.5-0.7-1.5-1.5S43.8,20.3,44.7,20.3z M41.5,27.6L41.5,27.6c0-1.4,1.2-2.6,2.7-2.8
		c0.1,0,0.3,0,0.4,0c0,0,0,0,0.1,0c1.7,0,3.2,1.3,3.2,2.8v0c0,1.6,0,5.5,0,5.5h0c0,0,0,0,0,0h-1.6c0,0,0,0,0,0h-4.8
		C41.5,33.1,41.5,29.2,41.5,27.6z M7.4,22c0-0.8,0.7-1.5,1.5-1.5s1.5,0.7,1.5,1.5s-0.7,1.5-1.5,1.5S7.4,22.9,7.4,22z M9,24.6
		l3.8,8.5h-1.4H9.9c0,0,0,0,0,0h-2c0,0,0,0,0,0H5.2L9,24.6z M7.9,37.1v-2.9h2v2.9H7.9z M17,14.4c0-1.7,1.3-3,3-3s3,1.3,3,3
		s-1.3,3-3,3S17,16,17,14.4z M16,30.1c0,0,0-5.5,0-7.7c0-2,1.5-3.6,3.4-3.9c0.2,0,0.4-0.1,0.6-0.1c2.2,0,4,1.8,4,4s0,7.7,0,7.7h-2
		h-4H16z M18,37.1v-6h4v6H18z M29.7,15.5c-0.2-0.4-0.2-0.8-0.2-1.2c0-0.4,0.1-0.8,0.2-1.2c0.2-0.5,0.6-1,1.1-1.3s1.1-0.5,1.7-0.5
		c1.7,0,3,1.3,3,3s-1.3,3-3,3c-0.6,0-1.2-0.2-1.7-0.5C30.3,16.5,29.9,16.1,29.7,15.5z M26.9,30.1l5.5-11.5L38,30.1h-2h-2.4h-2.2
		H26.9z M31.3,37.1v-6h2.2v6H31.3z M43.7,37.1v-3h2v3H43.7z"/>
	<polygon class="st2" points="33.6,30.1 36,30.1 31.5,20.7 32.5,18.6 26.9,30.1 31.3,30.1 	"/>
	<g>
		<polygon class="st3" points="36,30.1 38,30.1 32.5,18.6 31.5,20.7 		"/>
	</g>
	<circle class="st3" cx="20" cy="14.4" r="3"/>
	<path class="st2" d="M22,30.1c0,0,0-5.5,0-7.7c0-1.9-1.3-3.4-3-3.9c0.1,0,0.3-0.1,0.4-0.1c-1.9,0.3-3.4,1.9-3.4,3.9
		c0,2.2,0,7.7,0,7.7h2H22z"/>
	<g>
		<path class="st3" d="M22,22.4c0,2.2,0,7.7,0,7.7h2c0,0,0-5.5,0-7.7s-1.8-4-4-4c-0.2,0-0.4,0-0.6,0.1c-0.1,0-0.3,0-0.4,0.1
			C20.7,18.9,22,20.5,22,22.4z"/>
	</g>
	<circle class="st3" cx="44.7" cy="21.8" r="1.5"/>
	<path class="st2" d="M46.2,27.6c0-1.3-1-2.4-2.4-2.7c0.1,0,0.2,0,0.3-0.1c-1.5,0.2-2.7,1.4-2.7,2.8v0c0,1.6,0,5.5,0,5.5h4.8
		C46.2,33.1,46.2,29.2,46.2,27.6z"/>
	<path class="st2" d="M47.8,27.6c0,1.6,0,5.5,0,5.5h0C47.8,33.1,47.8,29.2,47.8,27.6L47.8,27.6c0-1.6-1.4-2.8-3.2-2.8c0,0,0,0-0.1,0
		c0,0,0,0,0.1,0C46.4,24.8,47.8,26,47.8,27.6z"/>
	<g>
		<path class="st3" d="M46.2,27.6c0,1.6,0,5.5,0,5.5c0,0,0,0,0,0h1.6c0,0,0,0,0,0c0,0,0-3.9,0-5.5c0-1.6-1.4-2.8-3.2-2.8
			c0,0,0,0-0.1,0c-0.1,0-0.3,0-0.4,0c-0.1,0-0.2,0-0.3,0.1C45.2,25.2,46.2,26.3,46.2,27.6z"/>
	</g>
	<path class="st3" d="M35.5,14.4c0-1.7-1.3-3-3-3c-0.6,0-1.2,0.2-1.7,0.5s-0.9,0.8-1.1,1.3c-0.2,0.4-0.2,0.8-0.2,1.2
		c0,0.4,0.1,0.8,0.2,1.2c0.2,0.5,0.6,1,1.1,1.3c0.5,0.3,1.1,0.5,1.7,0.5C34.1,17.4,35.5,16,35.5,14.4z"/>
	<path class="st2" d="M7.9,33.1h2c0,0,0,0,0,0h1.5l-3.1-7L9,24.6l-3.8,8.5L7.9,33.1C7.9,33.1,7.9,33.1,7.9,33.1z"/>
	<g>
		<polygon class="st3" points="11.4,33.1 12.8,33.1 9,24.6 8.3,26.1 		"/>
	</g>
	<circle class="st3" cx="8.9" cy="22" r="1.5"/>
	<ellipse transform="matrix(0.3895 -0.921 0.921 0.3895 12.2076 49.5712)" class="st2" cx="43.5" cy="15.6" rx="0.5" ry="0.5"/>
	<ellipse transform="matrix(0.3895 -0.921 0.921 0.3895 11.293 46.2005)" class="st2" cx="40.5" cy="14.6" rx="0.5" ry="0.5"/>
	<path class="st2" d="M8,17.1c0.2-0.2,0.2-0.6,0-0.8c-0.2-0.2-0.6-0.2-0.8,0s-0.2,0.6,0,0.8S7.8,17.3,8,17.1z M7.4,16.5
		c0.1-0.1,0.3-0.1,0.4,0s0.1,0.3,0,0.4c-0.1,0.1-0.3,0.1-0.4,0C7.3,16.8,7.3,16.6,7.4,16.5z"/>
	<path class="st2" d="M12.2,16.7l0.3,0.9l0.3-0.9c0.1-0.2,0.2-0.3,0.4-0.4l0.9-0.3l-0.9-0.3c-0.2-0.1-0.3-0.2-0.4-0.4l-0.3-0.9
		l-0.3,0.9c-0.1,0.2-0.2,0.3-0.4,0.4L10.9,16l0.9,0.3C12,16.4,12.1,16.5,12.2,16.7z M12.5,15.8c0.1,0,0.3,0.1,0.3,0.3
		c0,0.1-0.1,0.3-0.3,0.3c-0.1,0-0.3-0.1-0.3-0.3C12.2,15.9,12.3,15.8,12.5,15.8z"/>
	<circle class="st0" cx="12.5" cy="16" r="0.3"/>
	<path class="st2" d="M39.3,19.3l0.3,0.9l0.3-0.9c0.1-0.2,0.2-0.3,0.4-0.4l0.9-0.3l-0.9-0.3c-0.2-0.1-0.3-0.2-0.4-0.4l-0.3-0.9
		L39.3,18c-0.1,0.2-0.2,0.3-0.4,0.4L38,18.7l0.9,0.3C39.1,19,39.3,19.2,39.3,19.3z M39.6,18.4c0.1,0,0.3,0.1,0.3,0.3
		c0,0.1-0.1,0.3-0.3,0.3s-0.3-0.1-0.3-0.3C39.3,18.5,39.4,18.4,39.6,18.4z"/>
	<circle class="st0" cx="39.6" cy="18.7" r="0.3"/>
	<path class="st3" d="M31.3,38.1H22h-1c0,0-8.7,0.1-8,1.6s13.5-0.4,14,0.8c0.5,1.2-6.5,1.5-5,4s19.1,1.9,19,0.8s-7.1-1.4-7-4
		s7-3.2,7-3.2h-7.4H31.3z"/>
</g>
</svg>
