<?xml version="1.0" encoding="utf-8"?>
<!-- Generator: Adobe Illustrator 16.0.4, SVG Export Plug-In . SVG Version: 6.00 Build 0)  -->
<!DOCTYPE svg PUBLIC "-//W3C//DTD SVG 1.1//EN" "http://www.w3.org/Graphics/SVG/1.1/DTD/svg11.dtd">
<svg version="1.1" id="Layer_1" xmlns="http://www.w3.org/2000/svg" xmlns:xlink="http://www.w3.org/1999/xlink" x="0px" y="0px"
	 width="42px" height="42px" viewBox="0 0 42 42" enable-background="new 0 0 42 42" xml:space="preserve">
<circle fill-rule="evenodd" clip-rule="evenodd" cx="21" cy="21" r="20"/>
<g>
	<path fill="#FFFFFF" d="M12.649,17.353h3.992v12.821h-3.992V17.353z M14.646,10.979c1.275,0,2.311,1.035,2.311,2.309
		c0,1.275-1.035,2.312-2.311,2.312c-1.281,0-2.313-1.037-2.313-2.312C12.333,12.015,13.365,10.979,14.646,10.979"/>
	<path fill="#FFFFFF" d="M19.143,17.353h3.823v1.752h0.053c0.534-1.009,1.834-2.07,3.774-2.07c4.034,0,4.78,2.655,4.78,6.106v7.033
		h-3.984v-6.235c0-1.487-0.028-3.399-2.072-3.399c-2.075,0-2.392,1.618-2.392,3.292v6.343h-3.982V17.353z"/>
</g>
</svg>
