<?xml version="1.0" encoding="utf-8"?>
<!-- Generator: Adobe Illustrator 16.0.4, SVG Export Plug-In . SVG Version: 6.00 Build 0)  -->
<!DOCTYPE svg PUBLIC "-//W3C//DTD SVG 1.1//EN" "http://www.w3.org/Graphics/SVG/1.1/DTD/svg11.dtd">
<svg version="1.1" id="Layer_1" xmlns="http://www.w3.org/2000/svg" xmlns:xlink="http://www.w3.org/1999/xlink" x="0px" y="0px"
	 width="13px" height="17px" viewBox="0 0 13 17" enable-background="new 0 0 13 17" xml:space="preserve">
<g>
	<path d="M6.5,3C4.57,3,3,4.57,3,6.5S4.57,10,6.5,10S10,8.43,10,6.5S8.43,3,6.5,3z M6.5,8C5.672,8,5,7.328,5,6.5S5.672,5,6.5,5
		S8,5.672,8,6.5S7.328,8,6.5,8z"/>
	<path d="M6.5,0C2.916,0,0,2.916,0,6.5c0,4.147,4.5,9.268,5.014,9.838C5.393,16.76,5.933,17,6.5,17s1.107-0.24,1.486-0.662
		C8.5,15.768,13,10.647,13,6.5C13,2.916,10.084,0,6.5,0z M6.5,15c0,0-4.5-5-4.5-8.5C2,4.016,4.016,2,6.5,2S11,4.016,11,6.5
		C11,10,6.5,15,6.5,15z"/>
</g>
</svg>
