<svg xmlns="http://www.w3.org/2000/svg" viewBox="0 0 390.8 109.8"><style>.st0{display:none}.st1{display:inline}.st2{fill:none}.st3{fill:#a4ce39}.st4{fill:#f7bc25}.st5{font-family:&apos;Avenir-Black&apos;}.st6{font-size:9.6237px}</style><g id="NON_OUTLINES" class="st0"><g class="st1"><path class="st2" d="M255.5 99.5c0-2-1.7-2.3-3.3-2.3h-2.3v4.6h1.5c1.8 0 4.1 0 4.1-2.3zm-14.6-2.3h-2.8v4.6h2.8c1.6 0 2.8-.7 2.8-2.3 0-1.6-1.2-2.3-2.8-2.3zm-176.5-.4c-3.2 0-5.5 2.6-5.5 5.7s2.2 5.7 5.5 5.7 5.5-2.6 5.5-5.7-2.3-5.7-5.5-5.7zm202.4 0c-3.2 0-5.5 2.6-5.5 5.7s2.2 5.7 5.5 5.7 5.5-2.6 5.5-5.7-2.3-5.7-5.5-5.7zm-237.1 1l-2.9 6.8h5.7l-2.8-6.8zm166 0l-2.8 6.8h5.6l-2.7-6.8zm13.3-.6h-3.1V108h3.1c3.2 0 5.6-1.6 5.6-5.4s-2.5-5.4-5.6-5.4zm-82.6-.4c-3.2 0-5.5 2.6-5.5 5.7s2.2 5.7 5.5 5.7c3.2 0 5.5-2.6 5.5-5.7s-2.2-5.7-5.5-5.7zm7.4-23c.9-1.1 1.7-2.4 2.2-3.9.5-1.5.7-3 .7-4.6 0-1.6-.2-3.1-.7-4.6-.5-1.5-1.2-2.7-2.2-3.9-.9-1.1-2.1-2-3.5-2.7-1.4-.7-3-1-4.8-1-1.8 0-3.4.3-4.8 1s-2.6 1.5-3.5 2.7c-.9 1.1-1.7 2.4-2.2 3.9-.5 1.5-.7 3-.7 4.6 0 1.6.2 3.1.7 4.6.5 1.5 1.2 2.8 2.2 3.9.9 1.1 2.1 2 3.5 2.7 1.4.7 3 1 4.8 1 1.8 0 3.4-.3 4.8-1s2.6-1.6 3.5-2.7zm76.1-.3c-3 .4-2.3 3.9 1.6 4.7 3 .6 6.1-.5 7.6-2 0-.1-4.8-3.3-9.2-2.7zM349 30.1c-1.8.4-3.7.6-5.5.8 1.1.2 2.4.2 4 .2 2.9 0 6.2-.4 9.3-2.6 3.1-2.2 9.2-17.6 7.6-21.2-.3-.8-1-1.2-1.9-1.4-.7 3.7-1.9 10-2.8 11.7-1.3 2.6-2.7 10.9-10.7 12.5zm-68.6 24.3c-.5-1.6-2-2-3.2-1.8-1.3.3-3.6 1.5-5.5 4.1-2.4 3.3-3.6 6.6-3.7 10 0 1.9.6 4.7 1.2 6.4 1.8-1.8 4-4.4 5.7-6.6 3.4-4.5 6.1-10.5 5.5-12.1zm-28.8 0c-.6-1.5-2-2-3.2-1.8-1.3.3-3.6 1.5-5.5 4.1-2.4 3.3-3.6 6.6-3.7 10 0 1.9.6 4.7 1.2 6.4 1.8-1.8 4.1-4.4 5.7-6.6 3.3-4.5 6.1-10.6 5.5-12.1zm-65.9 45.1c0-2-1.7-2.3-3.3-2.3h-2.3v4.6h1.5c1.7 0 4.1 0 4.1-2.3zM63.1 58.7c-.4-1.2-1-2.2-1.8-3-.8-.9-1.7-1.5-2.9-2s-2.5-.7-4.1-.7c-1.4 0-2.8.2-4 .7-1.3.5-2.3 1.2-3.3 2s-1.7 1.9-2.3 3c-.6 1.2-.9 2.4-1 3.7h20c0-1.3-.2-2.6-.6-3.7z"/><path class="st3" d="M337.6 23.9c2.2-4.2 7.4-8.1 11.1-8.6s4.9.7 6.4 2.6c1.4 1.9-.2 5.6-1.7 7.4-.7.9-1.6 1.4-2.4 1.4-.4 0-.7-.1-.9-.4-.4-.5-.3-1.3.1-2.4.3-.9 2-3.7-1.2-3.2-5.4.8-8.7 7.7-7.9 9.1.4.7 1.2 1 2.3 1.3 1.9-.2 3.7-.5 5.5-.8 8-1.6 9.4-9.9 10.7-12.4.9-1.8 2.1-8.1 2.8-11.7-1.6-.4-3.9 0-6.1.2-3.3.4-9.6 2.5-12 3.8-2.4 1.3-5 3.6-6.3 5.4-1.8 2.4-4 9.4-6 16.1.7 0 2.1-.1 3.7-.2-.2-2 .3-4.5 1.9-7.6z"/><path class="st4" d="M312.6 56.3c-.3-.2-.6-.5-.9-.8-1.3-1.3-2.6-2.8-5-2.8-1.1 0-2.5.2-3.8.8-5.5 2.8-7.1 12.8-6.6 19 .1 1.7 1.2 3.6 2.5 4.5.1.1.3.2.5.3 3.8 0 9.3-3.9 9.3-3.9 5.5-5.4 7.4-11.5 6.1-16.2h-.2c-.6-.1-1.3-.4-1.9-.9zM27.3 48.6L18 74.9h-.1L7.4 48.6H0l14.4 33.6-2.1 5.6c-.7 1.8-1.5 3.2-2.3 4.1-.9 1-2.2 1.5-3.9 1.5-1.1 0-2.2-.2-3.3-.6l-.6 5.9c.8.2 1.5.3 2.2.4.7.1 1.5.1 2.2.1 1.7 0 3.1-.2 4.3-.6 1.2-.4 2.3-1 3.2-1.8.9-.8 1.7-1.7 2.3-2.8.7-1.1 1.3-2.4 1.8-3.8l16.3-41.5-7.2-.1zm27.4 34.5c3 0 5.7-.6 8.1-1.7 2.4-1.1 4.5-2.9 6.3-5.3l-4.7-3.8c-.9 1.4-2.2 2.6-3.9 3.6-1.7 1-3.6 1.5-5.9 1.5-1.5 0-2.8-.3-4.1-.8-1.3-.5-2.4-1.2-3.4-2.1-1-.9-1.8-2-2.4-3.2-.6-1.2-.9-2.6-1-4h26.7c0-.4.1-.8.1-1.1v-1.1c0-2.7-.4-5.1-1.1-7.3-.8-2.2-1.8-4-3.2-5.5-1.4-1.5-3.1-2.7-5.1-3.5-2-.8-4.3-1.2-6.7-1.2s-4.8.4-6.9 1.3c-2.1.9-4 2.1-5.5 3.7-1.6 1.6-2.8 3.4-3.7 5.6-.9 2.2-1.3 4.6-1.3 7.2 0 2.6.4 5.1 1.3 7.2.9 2.2 2.1 4 3.7 5.6 1.6 1.5 3.4 2.7 5.6 3.6 2.1.9 4.5 1.3 7.1 1.3zm-9.9-24.4c.6-1.2 1.3-2.2 2.3-3 .9-.9 2-1.5 3.3-2 1.3-.5 2.6-.7 4-.7 1.6 0 2.9.2 4.1.7s2.1 1.2 2.9 2c.8.9 1.4 1.9 1.8 3 .4 1.2.6 2.4.7 3.7h-20c-.1-1.3.3-2.6.9-3.7zm32.5-30.1H84v53.6h-6.7zm16.7 0h6.7v53.6H94zm38.7 53.2c2.2-.9 4.1-2.1 5.8-3.7s2.9-3.5 3.8-5.6c.9-2.2 1.4-4.6 1.4-7.2 0-2.6-.5-5-1.4-7.1-.9-2.1-2.2-4-3.8-5.6-1.6-1.6-3.6-2.8-5.8-3.7-2.2-.9-4.6-1.3-7.2-1.3s-4.9.4-7.2 1.3c-2.2.9-4.1 2.1-5.7 3.7-1.6 1.6-2.9 3.4-3.8 5.6-.9 2.2-1.4 4.5-1.4 7.1 0 2.6.5 5 1.4 7.2.9 2.2 2.2 4.1 3.8 5.6 1.6 1.6 3.5 2.8 5.7 3.7 2.2.9 4.6 1.3 7.2 1.3 2.6 0 5-.5 7.2-1.3zm-12-5.3c-1.4-.7-2.6-1.6-3.5-2.7-.9-1.1-1.7-2.4-2.2-3.9-.5-1.5-.7-3-.7-4.6 0-1.6.2-3.1.7-4.6.5-1.5 1.2-2.7 2.2-3.9.9-1.1 2.1-2 3.5-2.7 1.4-.7 3-1 4.8-1 1.8 0 3.4.3 4.8 1s2.6 1.5 3.5 2.7c.9 1.1 1.7 2.4 2.2 3.9.5 1.5.7 3 .7 4.6 0 1.6-.2 3.1-.7 4.6-.5 1.5-1.2 2.8-2.2 3.9-.9 1.1-2.1 2-3.5 2.7-1.4.7-3 1-4.8 1-1.8 0-3.4-.3-4.8-1zm71.6-27.9l-7.6 25.6h-.1l-8.2-25.6h-7l-8 25.6h-.1l-7.6-25.6h-7.3l11.2 33.6h7l8.2-25.3h.2l8.2 25.3h7l11.1-33.6z"/><path d="M367.9.9c-2.8-2.2-18.8 0-24.6 2.8-5.8 2.7-7.7 4.7-10.2 9-2.6 4.4-5.7 11.9-8 20.5-2.3 8.7-7.6 31.5-10 36.1-3.9 7.2-9.3 8.8-11 8.9-1.6.1-3.4-.2-4.7-.9-.2-.1-.3-.2-.5-.3-1.3-.9-2.4-2.8-2.5-4.5-.5-6.2 1-16.2 6.6-19 1.2-.6 2.7-.8 3.8-.8 2.5 0 3.8 1.5 5 2.8.3.3.6.6.9.8.6.5 1.3.9 2 .9h.2c.6 0 1.2-.1 1.6-.5.3-.3.6-.8.4-1.7-.6-3.5-4-7.3-10.6-7.3 0 0-8.8-.2-13.4 10.6-2 4.8-1.6 11-1.4 13.3-2.3 3-5.7 5.5-9.1 6.3-3.7.8-8 0-10-1.8 2.8-2.2 4.8-4.3 7-7.3 3.5-4.5 5.4-9.4 6.2-13.1.3-2.2-.3-3.5-1.5-4.9-1.7-2.1-4-3.2-6.8-3.2s-5.6 1.4-8.4 4.2c-4.1 4.3-6.2 9.2-6.2 14.8 0 3.2.7 6.1 2.2 8.5-3.4 1.5-7.8 2.9-11.6 2.9s-7.2-.8-9.8-2c2.8-2.2 4.8-4.3 7-7.3 3.5-4.5 5.4-9.4 6.2-13.1.3-2.2-.3-3.5-1.5-4.9-1.7-2.1-4-3.2-6.8-3.2s-5.6 1.4-8.4 4.2c-4.1 4.3-6.2 9.2-6.2 14.8 0 3.4.8 6.3 2.4 8.8-1 .3-2.1.5-3.4.5-4 0-5.5-.7-7.5-1.9.6-2.6.5-4.1-.9-6.6-1.4-2.6-3.7-4.2-6.8-5.8-2.3-1.1-4.6-2.5-5.1-3.8-.5-1.1-.5-2.2.4-3.5 1.1-1.6 4.1-2.1 5.7-1.8 2.3.4 3.1 1.6 4.5 2.9 1.3 1.2 3.3 2.5 4.6.9 1-1.2-.1-4.4-2.6-6.4-2.7-2.2-5.3-2.5-7.9-2.5-1.9 0-3.8.4-5.3 1.2-3 1.5-6.9 6.9-4.9 11s5.4 5.1 8.7 6.8c2.7 1.4 4.6 3.2 4.6 5.5 0 0-2.9-1.9-8.3-2.7-6.2-.8-9.8 3.2-9.8 5.9 0 3.4 4.8 7.7 11.1 7.7 4.1 0 6.8-1.4 10.4-4.5 2.8 1.4 5.3 2.5 9.2 2.5 2.3 0 4.7-.7 6.5-1.8 3 2.4 7.5 4.1 14 3.8 5.2-.2 10.1-2.1 14.2-4.3 3 2.7 7.6 4.6 14.6 4.3 5.2-.2 8.4-2.5 11-4.9.6.9 1.3 1.7 2.1 2.5 1 .9 4.1 2.4 8 2.4 3.5 0 12.1-2.5 16.9-12.4 3.6-7.2 8.5-29 10.7-36.4.3-.9.6-1.9.9-2.8 2-6.7 4.2-13.7 6-16.1 1.4-1.8 4-4.1 6.3-5.4s8.7-3.3 12-3.8c2.2-.3 4.5-.6 6.1-.2.9.2 1.5.6 1.9 1.4 1.6 3.7-4.5 19.1-7.6 21.2-3.1 2.2-6.4 2.6-9.3 2.6-1.6 0-2.9 0-4-.2s-1.9-.6-2.3-1.3c-.8-1.3 2.5-8.3 7.9-9.1 3.2-.5 1.6 2.3 1.2 3.2-.4 1.1-.5 1.9-.1 2.4.2.3.5.4.9.4.7 0 1.6-.5 2.4-1.4 1.5-1.8 3.1-5.5 1.7-7.4-1.4-1.9-2.6-3-6.4-2.6s-9 4.3-11.1 8.6c-1.6 3.1-2 5.7-1.9 7.4 0 .6.2 1.1.3 1.6.6 1.7 4.4 3.5 10 3.5 2.1 0 5-.4 7.6-.7 11.5-2.1 13.6-14.4 15.2-20.1 2.1-6.9 2.1-12-.7-14.2zM211.5 78.2c-3.9-.8-4.6-4.3-1.6-4.7 4.4-.6 9.2 2.6 9.2 2.7-1.5 1.5-4.6 2.6-7.6 2zm29-5.1c-.7-1.7-1.3-4.4-1.2-6.4.1-3.3 1.3-6.7 3.7-10 1.9-2.6 4.1-3.8 5.5-4.1 1.2-.2 2.6.3 3.2 1.8s-2.2 7.6-5.5 12.1c-1.7 2.2-3.9 4.8-5.7 6.6zm28.8 0c-.7-1.7-1.3-4.4-1.2-6.4.1-3.3 1.3-6.7 3.7-10 1.9-2.6 4.1-3.8 5.5-4.1 1.3-.2 2.7.2 3.2 1.8s-2.2 7.6-5.5 12.1c-1.6 2.2-3.9 4.8-5.7 6.6zM29 95.7l-6.1 13.8h1.9l1.4-3.4h6.9l1.4 3.4h1.9l-5.9-13.8H29zm-2.2 8.9l2.9-6.8 2.7 6.8h-5.6zm23.5 3.7c-3.1 0-5.3-2.5-5.3-5.7 0-3 2.2-5.7 5.3-5.7 1.3 0 2.6.6 3.5 1.7l1.4-1c-1.2-1.5-3-2.2-4.9-2.2-4.1 0-7 3.2-7 7.3 0 4.2 3.1 7.3 7 7.3 2.2 0 4-.8 5.2-2.4l-1.2-1c-1 1-2.4 1.7-4 1.7zm14.1-13c-4.2 0-7.2 3.1-7.2 7.3s3 7.3 7.2 7.3 7.2-3.1 7.2-7.3-3-7.3-7.2-7.3zm0 13c-3.2 0-5.5-2.6-5.5-5.7s2.2-5.7 5.5-5.7 5.5 2.6 5.5 5.7-2.3 5.7-5.5 5.7zm20.1-1.2l-8-11.4h-2.1v13.8h1.7V98l8 11.5h2.1V95.7h-1.7zm9.3-5.4c-2.2-.7-2.9-1.3-2.9-2.5 0-1.6 1.5-2.3 2.9-2.3 1 0 2 .4 2.5 1.3l1.3-1.2c-1-1.2-2.3-1.6-3.9-1.6-2.4 0-4.7 1.3-4.7 4 0 2.3 1.5 3.2 3.4 3.8 2.5.8 3.6 1.1 3.6 2.8 0 1.6-1.6 2.4-3 2.4-1.2 0-2.4-.5-2.9-1.5l-1.4 1.2c.9 1.4 2.7 1.9 4.3 1.9 2.5 0 4.9-1.3 4.9-4 0-2.9-2-3.6-4.1-4.3zm13.2 6.6c-3.1 0-5.3-2.5-5.3-5.7 0-3 2.2-5.7 5.3-5.7 1.3 0 2.6.6 3.5 1.7l1.4-1c-1.2-1.5-3-2.2-4.9-2.2-4.1 0-7 3.2-7 7.3 0 4.2 3.1 7.3 7 7.3 2.2 0 4-.8 5.2-2.4l-1.2-1c-.9 1-2.3 1.7-4 1.7zm7.7-12.6h1.6v13.8h-1.6zm11.7-.4c-4.2 0-7.2 3.1-7.2 7.3s3 7.3 7.2 7.3 7.2-3.1 7.2-7.3-3-7.3-7.2-7.3zm0 13c-3.2 0-5.5-2.6-5.5-5.7s2.2-5.7 5.5-5.7c3.2 0 5.5 2.6 5.5 5.7s-2.2 5.7-5.5 5.7zm18.8-4.3c0 2.2-.8 4.3-3.6 4.3s-3.6-2.1-3.6-4.3v-8.3h-1.6v8.5c0 3 1.4 5.6 5.2 5.6s5.2-2.6 5.2-5.6v-8.5h-1.6v8.3zm9.2-2.3c-2.2-.7-2.9-1.3-2.9-2.5 0-1.6 1.5-2.3 2.9-2.3 1 0 2 .4 2.5 1.3l1.3-1.2c-1-1.2-2.3-1.6-3.9-1.6-2.4 0-4.7 1.3-4.7 4 0 2.3 1.5 3.2 3.4 3.8 2.5.8 3.6 1.1 3.6 2.8 0 1.6-1.6 2.4-3 2.4-1.2 0-2.4-.5-2.9-1.5l-1.4 1.2c.9 1.4 2.7 1.9 4.3 1.9 2.5 0 4.9-1.3 4.9-4 0-2.9-2-3.6-4.1-4.3zm11.1-4.5h4.6v12.3h1.6V97.2h4.6v-1.5h-10.8zm22 2.3c0-3.4-2.8-3.8-5.5-3.8h-3.5v13.8h1.6v-6.2h2.1l3.7 6.2h2l-3.9-6.4c2.2-.3 3.5-1.6 3.5-3.6zm-6 2.3H180v-4.6h2.3c1.6 0 3.3.3 3.3 2.3.1 2.3-2.3 2.3-4.1 2.3zm13.5-6.1l-6.1 13.8h1.9l1.4-3.4h6.9l1.4 3.4h1.9l-5.9-13.8H195zm-2.1 8.9l2.9-6.8 2.7 6.8h-5.6zm16.6-8.9h-5.3v13.8h5.3c2.7 0 6.8-1.8 6.8-6.9s-4.1-6.9-6.8-6.9zM209 108h-3.1V97.2h3.1c3.2 0 5.6 1.6 5.6 5.4s-2.5 5.4-5.6 5.4zm11.7-5h6.6v-1.5h-6.6v-4.3h7.1v-1.5h-8.7v13.8h9V108h-7.4zm19.9-7.3h-4.1v13.8h1.6v-6.2h2.8c1.9 0 4.5-.8 4.5-3.8 0-2.9-2.3-3.8-4.8-3.8zm.3 6.1h-2.8v-4.6h2.8c1.6 0 2.8.7 2.8 2.3 0 1.5-1.2 2.3-2.8 2.3zm16.4-2.3c0-3.4-2.8-3.8-5.5-3.8h-3.5v13.8h1.6v-6.2h2.1l3.7 6.2h2l-3.9-6.4c2.2-.3 3.5-1.6 3.5-3.6zm-6 2.3h-1.5v-4.6h2.3c1.6 0 3.3.3 3.3 2.3.1 2.3-2.2 2.3-4.1 2.3zm15.5-6.5c-4.2 0-7.2 3.1-7.2 7.3s3 7.3 7.2 7.3 7.2-3.1 7.2-7.3-3-7.3-7.2-7.3zm0 13c-3.2 0-5.5-2.6-5.5-5.7s2.2-5.7 5.5-5.7 5.5 2.6 5.5 5.7-2.3 5.7-5.5 5.7zm14.3-2.9c0 1.5-.4 3-2.3 3-1.1 0-1.9-.7-2.1-1.8l-1.6.3c.4 2 1.7 3 3.7 3 2.9 0 3.9-2.1 3.9-3.9V95.7h-1.6v9.7zm6.9-2.4h6.6v-1.5H288v-4.3h7.1v-1.5h-8.7v13.8h9V108H288zm16.4 5.3c-3.1 0-5.3-2.5-5.3-5.7 0-3 2.2-5.7 5.3-5.7 1.3 0 2.6.6 3.5 1.7l1.4-1c-1.2-1.5-3-2.2-4.9-2.2-4.1 0-7 3.2-7 7.3 0 4.2 3.1 7.3 7 7.3 2.2 0 4-.8 5.2-2.4l-1.2-1c-1 1-2.3 1.7-4 1.7zm6.2-11.1h4.5v12.3h1.7V97.2h4.5v-1.5h-10.7z"/></g><text transform="translate(380.455 10.522)" class="st1 st5 st6">R</text><path d="M383.7 1.5c3.1 0 5.6 2.5 5.6 5.6s-2.5 5.6-5.6 5.6c-3.1 0-5.6-2.5-5.6-5.6s2.6-5.6 5.6-5.6m0-1.5c-3.9 0-7.1 3.2-7.1 7.1s3.2 7.1 7.1 7.1c3.9 0 7.1-3.2 7.1-7.1S387.6 0 383.7 0z" class="st1"/></g><g id="OUTLINES_copy"><path class="st2" d="M255.5 99.5c0-2-1.7-2.3-3.3-2.3h-2.3v4.6h1.5c1.8 0 4.1 0 4.1-2.3zm-14.6-2.3h-2.8v4.6h2.8c1.6 0 2.8-.7 2.8-2.3 0-1.6-1.2-2.3-2.8-2.3zm-176.5-.4c-3.2 0-5.5 2.6-5.5 5.7s2.2 5.7 5.5 5.7 5.5-2.6 5.5-5.7-2.3-5.7-5.5-5.7zm202.4 0c-3.2 0-5.5 2.6-5.5 5.7s2.2 5.7 5.5 5.7 5.5-2.6 5.5-5.7-2.3-5.7-5.5-5.7zm-237.1 1l-2.9 6.8h5.7l-2.8-6.8zm166 0l-2.8 6.8h5.6l-2.7-6.8zm13.3-.6h-3.1V108h3.1c3.2 0 5.6-1.6 5.6-5.4s-2.5-5.4-5.6-5.4zm-82.6-.4c-3.2 0-5.5 2.6-5.5 5.7s2.2 5.7 5.5 5.7c3.2 0 5.5-2.6 5.5-5.7s-2.2-5.7-5.5-5.7zm7.4-23c.9-1.1 1.7-2.4 2.2-3.9.5-1.5.7-3 .7-4.6 0-1.6-.2-3.1-.7-4.6-.5-1.5-1.2-2.7-2.2-3.9-.9-1.1-2.1-2-3.5-2.7-1.4-.7-3-1-4.8-1-1.8 0-3.4.3-4.8 1s-2.6 1.5-3.5 2.7c-.9 1.1-1.7 2.4-2.2 3.9-.5 1.5-.7 3-.7 4.6 0 1.6.2 3.1.7 4.6.5 1.5 1.2 2.8 2.2 3.9.9 1.1 2.1 2 3.5 2.7 1.4.7 3 1 4.8 1 1.8 0 3.4-.3 4.8-1s2.6-1.6 3.5-2.7zm76.1-.3c-3 .4-2.3 3.9 1.6 4.7 3 .6 6.1-.5 7.6-2 0-.1-4.8-3.3-9.2-2.7zM349 30.1c-1.8.4-3.7.6-5.5.8 1.1.2 2.4.2 4 .2 2.9 0 6.2-.4 9.3-2.6 3.1-2.2 9.2-17.6 7.6-21.2-.3-.8-1-1.2-1.9-1.4-.7 3.7-1.9 10-2.8 11.7-1.3 2.6-2.7 10.9-10.7 12.5zm-68.6 24.3c-.5-1.6-2-2-3.2-1.8-1.3.3-3.6 1.5-5.5 4.1-2.4 3.3-3.6 6.6-3.7 10 0 1.9.6 4.7 1.2 6.4 1.8-1.8 4-4.4 5.7-6.6 3.4-4.5 6.1-10.5 5.5-12.1zm-28.8 0c-.6-1.5-2-2-3.2-1.8-1.3.3-3.6 1.5-5.5 4.1-2.4 3.3-3.6 6.6-3.7 10 0 1.9.6 4.7 1.2 6.4 1.8-1.8 4.1-4.4 5.7-6.6 3.3-4.5 6.1-10.6 5.5-12.1zm-65.9 45.1c0-2-1.7-2.3-3.3-2.3h-2.3v4.6h1.5c1.7 0 4.1 0 4.1-2.3zM63.1 58.7c-.4-1.2-1-2.2-1.8-3-.8-.9-1.7-1.5-2.9-2s-2.5-.7-4.1-.7c-1.4 0-2.8.2-4 .7-1.3.5-2.3 1.2-3.3 2s-1.7 1.9-2.3 3c-.6 1.2-.9 2.4-1 3.7h20c0-1.3-.2-2.6-.6-3.7z"/><path class="st3" d="M337.6 23.9c2.2-4.2 7.4-8.1 11.1-8.6s4.9.7 6.4 2.6c1.4 1.9-.2 5.6-1.7 7.4-.7.9-1.6 1.4-2.4 1.4-.4 0-.7-.1-.9-.4-.4-.5-.3-1.3.1-2.4.3-.9 2-3.7-1.2-3.2-5.4.8-8.7 7.7-7.9 9.1.4.7 1.2 1 2.3 1.3 1.9-.2 3.7-.5 5.5-.8 8-1.6 9.4-9.9 10.7-12.4.9-1.8 2.1-8.1 2.8-11.7-1.6-.4-3.9 0-6.1.2-3.3.4-9.6 2.5-12 3.8-2.4 1.3-5 3.6-6.3 5.4-1.8 2.4-4 9.4-6 16.1.7 0 2.1-.1 3.7-.2-.2-2 .3-4.5 1.9-7.6z"/><path class="st4" d="M312.6 56.3c-.3-.2-.6-.5-.9-.8-1.3-1.3-2.6-2.8-5-2.8-1.1 0-2.5.2-3.8.8-5.5 2.8-7.1 12.8-6.6 19 .1 1.7 1.2 3.6 2.5 4.5.1.1.3.2.5.3 3.8 0 9.3-3.9 9.3-3.9 5.5-5.4 7.4-11.5 6.1-16.2h-.2c-.6-.1-1.3-.4-1.9-.9zM27.3 48.6L18 74.9h-.1L7.4 48.6H0l14.4 33.6-2.1 5.6c-.7 1.8-1.5 3.2-2.3 4.1-.9 1-2.2 1.5-3.9 1.5-1.1 0-2.2-.2-3.3-.6l-.6 5.9c.8.2 1.5.3 2.2.4.7.1 1.5.1 2.2.1 1.7 0 3.1-.2 4.3-.6 1.2-.4 2.3-1 3.2-1.8.9-.8 1.7-1.7 2.3-2.8.7-1.1 1.3-2.4 1.8-3.8l16.3-41.5-7.2-.1zm27.4 34.5c3 0 5.7-.6 8.1-1.7 2.4-1.1 4.5-2.9 6.3-5.3l-4.7-3.8c-.9 1.4-2.2 2.6-3.9 3.6-1.7 1-3.6 1.5-5.9 1.5-1.5 0-2.8-.3-4.1-.8-1.3-.5-2.4-1.2-3.4-2.1-1-.9-1.8-2-2.4-3.2-.6-1.2-.9-2.6-1-4h26.7c0-.4.1-.8.1-1.1v-1.1c0-2.7-.4-5.1-1.1-7.3-.8-2.2-1.8-4-3.2-5.5-1.4-1.5-3.1-2.7-5.1-3.5-2-.8-4.3-1.2-6.7-1.2s-4.8.4-6.9 1.3c-2.1.9-4 2.1-5.5 3.7-1.6 1.6-2.8 3.4-3.7 5.6-.9 2.2-1.3 4.6-1.3 7.2 0 2.6.4 5.1 1.3 7.2.9 2.2 2.1 4 3.7 5.6 1.6 1.5 3.4 2.7 5.6 3.6 2.1.9 4.5 1.3 7.1 1.3zm-9.9-24.4c.6-1.2 1.3-2.2 2.3-3 .9-.9 2-1.5 3.3-2 1.3-.5 2.6-.7 4-.7 1.6 0 2.9.2 4.1.7s2.1 1.2 2.9 2c.8.9 1.4 1.9 1.8 3 .4 1.2.6 2.4.7 3.7h-20c-.1-1.3.3-2.6.9-3.7zm32.5-30.1H84v53.6h-6.7zm16.7 0h6.7v53.6H94zm38.7 53.2c2.2-.9 4.1-2.1 5.8-3.7s2.9-3.5 3.8-5.6c.9-2.2 1.4-4.6 1.4-7.2 0-2.6-.5-5-1.4-7.1-.9-2.1-2.2-4-3.8-5.6-1.6-1.6-3.6-2.8-5.8-3.7-2.2-.9-4.6-1.3-7.2-1.3s-4.9.4-7.2 1.3c-2.2.9-4.1 2.1-5.7 3.7-1.6 1.6-2.9 3.4-3.8 5.6-.9 2.2-1.4 4.5-1.4 7.1 0 2.6.5 5 1.4 7.2.9 2.2 2.2 4.1 3.8 5.6 1.6 1.6 3.5 2.8 5.7 3.7 2.2.9 4.6 1.3 7.2 1.3 2.6 0 5-.5 7.2-1.3zm-12-5.3c-1.4-.7-2.6-1.6-3.5-2.7-.9-1.1-1.7-2.4-2.2-3.9-.5-1.5-.7-3-.7-4.6 0-1.6.2-3.1.7-4.6.5-1.5 1.2-2.7 2.2-3.9.9-1.1 2.1-2 3.5-2.7 1.4-.7 3-1 4.8-1 1.8 0 3.4.3 4.8 1s2.6 1.5 3.5 2.7c.9 1.1 1.7 2.4 2.2 3.9.5 1.5.7 3 .7 4.6 0 1.6-.2 3.1-.7 4.6-.5 1.5-1.2 2.8-2.2 3.9-.9 1.1-2.1 2-3.5 2.7-1.4.7-3 1-4.8 1-1.8 0-3.4-.3-4.8-1zm71.6-27.9l-7.6 25.6h-.1l-8.2-25.6h-7l-8 25.6h-.1l-7.6-25.6h-7.3l11.2 33.6h7l8.2-25.3h.2l8.2 25.3h7l11.1-33.6z"/><path d="M367.9.9c-2.8-2.2-18.8 0-24.6 2.8-5.8 2.7-7.7 4.7-10.2 9-2.6 4.4-5.7 11.9-8 20.5-2.3 8.7-7.6 31.5-10 36.1-3.9 7.2-9.3 8.8-11 8.9-1.6.1-3.4-.2-4.7-.9-.2-.1-.3-.2-.5-.3-1.3-.9-2.4-2.8-2.5-4.5-.5-6.2 1-16.2 6.6-19 1.2-.6 2.7-.8 3.8-.8 2.5 0 3.8 1.5 5 2.8.3.3.6.6.9.8.6.5 1.3.9 2 .9h.2c.6 0 1.2-.1 1.6-.5.3-.3.6-.8.4-1.7-.6-3.5-4-7.3-10.6-7.3 0 0-8.8-.2-13.4 10.6-2 4.8-1.6 11-1.4 13.3-2.3 3-5.7 5.5-9.1 6.3-3.7.8-8 0-10-1.8 2.8-2.2 4.8-4.3 7-7.3 3.5-4.5 5.4-9.4 6.2-13.1.3-2.2-.3-3.5-1.5-4.9-1.7-2.1-4-3.2-6.8-3.2s-5.6 1.4-8.4 4.2c-4.1 4.3-6.2 9.2-6.2 14.8 0 3.2.7 6.1 2.2 8.5-3.4 1.5-7.8 2.9-11.6 2.9s-7.2-.8-9.8-2c2.8-2.2 4.8-4.3 7-7.3 3.5-4.5 5.4-9.4 6.2-13.1.3-2.2-.3-3.5-1.5-4.9-1.7-2.1-4-3.2-6.8-3.2s-5.6 1.4-8.4 4.2c-4.1 4.3-6.2 9.2-6.2 14.8 0 3.4.8 6.3 2.4 8.8-1 .3-2.1.5-3.4.5-4 0-5.5-.7-7.5-1.9.6-2.6.5-4.1-.9-6.6-1.4-2.6-3.7-4.2-6.8-5.8-2.3-1.1-4.6-2.5-5.1-3.8-.5-1.1-.5-2.2.4-3.5 1.1-1.6 4.1-2.1 5.7-1.8 2.3.4 3.1 1.6 4.5 2.9 1.3 1.2 3.3 2.5 4.6.9 1-1.2-.1-4.4-2.6-6.4-2.7-2.2-5.3-2.5-7.9-2.5-1.9 0-3.8.4-5.3 1.2-3 1.5-6.9 6.9-4.9 11s5.4 5.1 8.7 6.8c2.7 1.4 4.6 3.2 4.6 5.5 0 0-2.9-1.9-8.3-2.7-6.2-.8-9.8 3.2-9.8 5.9 0 3.4 4.8 7.7 11.1 7.7 4.1 0 6.8-1.4 10.4-4.5 2.8 1.4 5.3 2.5 9.2 2.5 2.3 0 4.7-.7 6.5-1.8 3 2.4 7.5 4.1 14 3.8 5.2-.2 10.1-2.1 14.2-4.3 3 2.7 7.6 4.6 14.6 4.3 5.2-.2 8.4-2.5 11-4.9.6.9 1.3 1.7 2.1 2.5 1 .9 4.1 2.4 8 2.4 3.5 0 12.1-2.5 16.9-12.4 3.6-7.2 8.5-29 10.7-36.4.3-.9.6-1.9.9-2.8 2-6.7 4.2-13.7 6-16.1 1.4-1.8 4-4.1 6.3-5.4s8.7-3.3 12-3.8c2.2-.3 4.5-.6 6.1-.2.9.2 1.5.6 1.9 1.4 1.6 3.7-4.5 19.1-7.6 21.2-3.1 2.2-6.4 2.6-9.3 2.6-1.6 0-2.9 0-4-.2s-1.9-.6-2.3-1.3c-.8-1.3 2.5-8.3 7.9-9.1 3.2-.5 1.6 2.3 1.2 3.2-.4 1.1-.5 1.9-.1 2.4.2.3.5.4.9.4.7 0 1.6-.5 2.4-1.4 1.5-1.8 3.1-5.5 1.7-7.4-1.4-1.9-2.6-3-6.4-2.6s-9 4.3-11.1 8.6c-1.6 3.1-2 5.7-1.9 7.4 0 .6.2 1.1.3 1.6.6 1.7 4.4 3.5 10 3.5 2.1 0 5-.4 7.6-.7 11.5-2.1 13.6-14.4 15.2-20.1 2.1-6.9 2.1-12-.7-14.2zM211.5 78.2c-3.9-.8-4.6-4.3-1.6-4.7 4.4-.6 9.2 2.6 9.2 2.7-1.5 1.5-4.6 2.6-7.6 2zm29-5.1c-.7-1.7-1.3-4.4-1.2-6.4.1-3.3 1.3-6.7 3.7-10 1.9-2.6 4.1-3.8 5.5-4.1 1.2-.2 2.6.3 3.2 1.8s-2.2 7.6-5.5 12.1c-1.7 2.2-3.9 4.8-5.7 6.6zm28.8 0c-.7-1.7-1.3-4.4-1.2-6.4.1-3.3 1.3-6.7 3.7-10 1.9-2.6 4.1-3.8 5.5-4.1 1.3-.2 2.7.2 3.2 1.8s-2.2 7.6-5.5 12.1c-1.6 2.2-3.9 4.8-5.7 6.6zM29 95.7l-6.1 13.8h1.9l1.4-3.4h6.9l1.4 3.4h1.9l-5.9-13.8H29zm-2.2 8.9l2.9-6.8 2.7 6.8h-5.6zm23.5 3.7c-3.1 0-5.3-2.5-5.3-5.7 0-3 2.2-5.7 5.3-5.7 1.3 0 2.6.6 3.5 1.7l1.4-1c-1.2-1.5-3-2.2-4.9-2.2-4.1 0-7 3.2-7 7.3 0 4.2 3.1 7.3 7 7.3 2.2 0 4-.8 5.2-2.4l-1.2-1c-1 1-2.4 1.7-4 1.7zm14.1-13c-4.2 0-7.2 3.1-7.2 7.3s3 7.3 7.2 7.3 7.2-3.1 7.2-7.3-3-7.3-7.2-7.3zm0 13c-3.2 0-5.5-2.6-5.5-5.7s2.2-5.7 5.5-5.7 5.5 2.6 5.5 5.7-2.3 5.7-5.5 5.7zm20.1-1.2l-8-11.4h-2.1v13.8h1.7V98l8 11.5h2.1V95.7h-1.7zm9.3-5.4c-2.2-.7-2.9-1.3-2.9-2.5 0-1.6 1.5-2.3 2.9-2.3 1 0 2 .4 2.5 1.3l1.3-1.2c-1-1.2-2.3-1.6-3.9-1.6-2.4 0-4.7 1.3-4.7 4 0 2.3 1.5 3.2 3.4 3.8 2.5.8 3.6 1.1 3.6 2.8 0 1.6-1.6 2.4-3 2.4-1.2 0-2.4-.5-2.9-1.5l-1.4 1.2c.9 1.4 2.7 1.9 4.3 1.9 2.5 0 4.9-1.3 4.9-4 0-2.9-2-3.6-4.1-4.3zm13.2 6.6c-3.1 0-5.3-2.5-5.3-5.7 0-3 2.2-5.7 5.3-5.7 1.3 0 2.6.6 3.5 1.7l1.4-1c-1.2-1.5-3-2.2-4.9-2.2-4.1 0-7 3.2-7 7.3 0 4.2 3.1 7.3 7 7.3 2.2 0 4-.8 5.2-2.4l-1.2-1c-.9 1-2.3 1.7-4 1.7zm7.7-12.6h1.6v13.8h-1.6zm11.7-.4c-4.2 0-7.2 3.1-7.2 7.3s3 7.3 7.2 7.3 7.2-3.1 7.2-7.3-3-7.3-7.2-7.3zm0 13c-3.2 0-5.5-2.6-5.5-5.7s2.2-5.7 5.5-5.7c3.2 0 5.5 2.6 5.5 5.7s-2.2 5.7-5.5 5.7zm18.8-4.3c0 2.2-.8 4.3-3.6 4.3s-3.6-2.1-3.6-4.3v-8.3h-1.6v8.5c0 3 1.4 5.6 5.2 5.6s5.2-2.6 5.2-5.6v-8.5h-1.6v8.3zm9.2-2.3c-2.2-.7-2.9-1.3-2.9-2.5 0-1.6 1.5-2.3 2.9-2.3 1 0 2 .4 2.5 1.3l1.3-1.2c-1-1.2-2.3-1.6-3.9-1.6-2.4 0-4.7 1.3-4.7 4 0 2.3 1.5 3.2 3.4 3.8 2.5.8 3.6 1.1 3.6 2.8 0 1.6-1.6 2.4-3 2.4-1.2 0-2.4-.5-2.9-1.5l-1.4 1.2c.9 1.4 2.7 1.9 4.3 1.9 2.5 0 4.9-1.3 4.9-4 0-2.9-2-3.6-4.1-4.3zm11.1-4.5h4.6v12.3h1.6V97.2h4.6v-1.5h-10.8zm22 2.3c0-3.4-2.8-3.8-5.5-3.8h-3.5v13.8h1.6v-6.2h2.1l3.7 6.2h2l-3.9-6.4c2.2-.3 3.5-1.6 3.5-3.6zm-6 2.3H180v-4.6h2.3c1.6 0 3.3.3 3.3 2.3.1 2.3-2.3 2.3-4.1 2.3zm13.5-6.1l-6.1 13.8h1.9l1.4-3.4h6.9l1.4 3.4h1.9l-5.9-13.8H195zm-2.1 8.9l2.9-6.8 2.7 6.8h-5.6zm16.6-8.9h-5.3v13.8h5.3c2.7 0 6.8-1.8 6.8-6.9s-4.1-6.9-6.8-6.9zM209 108h-3.1V97.2h3.1c3.2 0 5.6 1.6 5.6 5.4s-2.5 5.4-5.6 5.4zm11.7-5h6.6v-1.5h-6.6v-4.3h7.1v-1.5h-8.7v13.8h9V108h-7.4zm19.9-7.3h-4.1v13.8h1.6v-6.2h2.8c1.9 0 4.5-.8 4.5-3.8 0-2.9-2.3-3.8-4.8-3.8zm.3 6.1h-2.8v-4.6h2.8c1.6 0 2.8.7 2.8 2.3 0 1.5-1.2 2.3-2.8 2.3zm16.4-2.3c0-3.4-2.8-3.8-5.5-3.8h-3.5v13.8h1.6v-6.2h2.1l3.7 6.2h2l-3.9-6.4c2.2-.3 3.5-1.6 3.5-3.6zm-6 2.3h-1.5v-4.6h2.3c1.6 0 3.3.3 3.3 2.3.1 2.3-2.2 2.3-4.1 2.3zm15.5-6.5c-4.2 0-7.2 3.1-7.2 7.3s3 7.3 7.2 7.3 7.2-3.1 7.2-7.3-3-7.3-7.2-7.3zm0 13c-3.2 0-5.5-2.6-5.5-5.7s2.2-5.7 5.5-5.7 5.5 2.6 5.5 5.7-2.3 5.7-5.5 5.7zm14.3-2.9c0 1.5-.4 3-2.3 3-1.1 0-1.9-.7-2.1-1.8l-1.6.3c.4 2 1.7 3 3.7 3 2.9 0 3.9-2.1 3.9-3.9V95.7h-1.6v9.7zm6.9-2.4h6.6v-1.5H288v-4.3h7.1v-1.5h-8.7v13.8h9V108H288zm16.4 5.3c-3.1 0-5.3-2.5-5.3-5.7 0-3 2.2-5.7 5.3-5.7 1.3 0 2.6.6 3.5 1.7l1.4-1c-1.2-1.5-3-2.2-4.9-2.2-4.1 0-7 3.2-7 7.3 0 4.2 3.1 7.3 7 7.3 2.2 0 4-.8 5.2-2.4l-1.2-1c-1 1-2.3 1.7-4 1.7zm6.2-11.1h4.5v12.3h1.7V97.2h4.5v-1.5h-10.7zm70.5-93.5h2.6c1.4 0 2.6.5 2.6 2.1 0 1-.5 1.7-1.5 1.9l1.7 2.9h-1.8l-1.4-2.7h-.7v2.7h-1.5V3.7zm1.5 2.8h.9c.5 0 1.3 0 1.3-.8 0-.7-.6-.8-1.2-.8h-1v1.6z"/><path d="M383.8 1.5c3.1 0 5.6 2.5 5.6 5.6s-2.5 5.6-5.6 5.6c-3.1 0-5.6-2.5-5.6-5.6s2.5-5.6 5.6-5.6m0-1.5c-3.9 0-7.1 3.2-7.1 7.1s3.2 7.1 7.1 7.1c3.9 0 7.1-3.2 7.1-7.1S387.7 0 383.8 0z"/></g></svg>