<svg id="Layer_1_copy" xmlns="http://www.w3.org/2000/svg" viewBox="0 0 75.5684967 68.9101562"><style>.st0{fill:#fff}.st1{fill:#f8c02c}.st2{fill:#f7bf2d}.st3{fill:#010101}</style><ellipse transform="rotate(-45.004 54.333 40.914)" class="st0" cx="54.333" cy="40.914" rx=".598" ry=".598"/><path class="st0" d="M49.167 20c.281 0 .833.02.833.05v-8.1c0 .03-.552.05-.833.05-4.782 0-8.704-4.394-9.125-10H11.958c-.421 5.606-4.343 10-9.125 10-.28 0-.833-.02-.833-.05v8.1c0-.03.552-.05.833-.05 4.782 0 8.703 4.394 9.125 10h28.084c.422-5.606 4.343-10 9.125-10zm-22.541 5.284a9.374 9.374 0 1 1 0-18.748 9.374 9.374 0 0 1 0 18.748z"/><path class="st1" d="M11.958 2H2v9.95c0 .03.552.05.833.05 4.782 0 8.704-4.394 9.125-10zm37.209 10c.281 0 .833-.02.833-.05V2h-9.958c.421 5.606 4.343 10 9.125 10zM2.833 20c-.28 0-.833.02-.833.05V30h9.958c-.422-5.606-4.343-10-9.125-10zm37.209 10H50v-9.95c0-.03-.552-.05-.833-.05-4.782 0-8.703 4.394-9.125 10zM27.36 16.29v2.003c.529-.215.96-.527.96-1.164-.108-.406-.431-.719-.96-.84zm-2.41-2.735c0 .527.42.758 1.055.96v-1.992c-.635.11-1.055.397-1.055 1.032z"/><path class="st1" d="M26.626 6.536a9.374 9.374 0 1 0 0 18.748 9.374 9.374 0 0 0 0-18.748zm.734 13.232v.3c0 1.069-1.355 1.069-1.355 0v-.193c-.97-.107-1.69-.406-2.326-.852-.3-.31-.3-.84-.084-1.125a.75.75 0 0 1 1.043-.132c.312.214.828.418 1.367.527v-2.422c-1.367-.3-2.746-.732-2.53-2.627.12-1.355 1.271-2.015 2.53-2.207v-.193c0-1.067 1.355-1.067 1.355 0v.289c.529.096 1.056.226 1.488.539.851.613 0 1.789-.756 1.248-.203-.084-.407-.193-.732-.287v2.181c1.26.325 2.507.866 2.507 2.413 0 1.486-1.115 2.337-2.507 2.54z"/><path class="st3" d="M74.699 23.481zm-.481.062zm.944.109c-.005-.004-.012-.004-.018-.008a1 1 0 0 1 .303.351.981.981 0 0 0-.285-.343zm.325.453zm-.919-.629c.044 0 .087 0 .131.005-.045-.006-.085-.005-.13-.005zm.565.154c-.02-.013-.047-.01-.068-.022.026.014.054.019.08.036-.006-.003-.007-.01-.012-.013zm.314.365c.019.035.026.074.04.11-.014-.037-.02-.074-.04-.11z"/><path class="st3" d="M75.554 24.454a.987.987 0 0 0-.067-.349c-.014-.036-.021-.075-.04-.11a.998.998 0 0 0-.303-.351c-.025-.017-.053-.022-.079-.036a1.001 1.001 0 0 0-.366-.127c-.044-.005-.087-.005-.13-.005a.993.993 0 0 0-.351.067c-.027.01-.056.003-.082.016L60.19 30.307a1 1 0 0 0 .872 1.8l10.333-5-22.931 31.332-19.18-16.78a.998.998 0 0 0-1.387.066l-24 25.5a1.001 1.001 0 0 0 1.457 1.37l23.34-24.798 19.274 16.865a1.002 1.002 0 0 0 1.465-.162L73.32 27.861l-.875 11.977a1 1 0 1 0 1.994.144l1.13-15.45c.001-.028-.015-.051-.015-.078zm-48.194-9.64v-2.181c.325.094.529.203.732.287.756.54 1.607-.635.756-1.248-.432-.313-.96-.443-1.488-.54v-.288c0-1.067-1.355-1.067-1.355 0v.193c-1.259.192-2.41.852-2.53 2.207-.216 1.895 1.163 2.326 2.53 2.627v2.422c-.54-.11-1.055-.313-1.367-.527a.75.75 0 0 0-1.043.132c-.216.286-.216.815.084 1.125.635.446 1.355.745 2.326.852v.193c0 1.069 1.355 1.069 1.355 0v-.3c1.392-.204 2.507-1.055 2.507-2.541 0-1.547-1.247-2.088-2.507-2.413zm-1.355-.298c-.635-.204-1.055-.434-1.055-.961 0-.635.42-.922 1.055-1.032v1.993zm1.355 3.777v-2.004c.529.121.852.434.96.84 0 .637-.431.95-.96 1.164z"/><path class="st3" d="M50 0H2a2 2 0 0 0-2 2v28a2 2 0 0 0 2 2h48a2 2 0 0 0 2-2V2a2 2 0 0 0-2-2zm0 30H2V2h48v28z"/><ellipse transform="rotate(-67.075 50 46.184)" class="st2" cx="50" cy="46.184" rx="1.004" ry="1.004"/><path class="st2" d="M55.182 41.762a1.2 1.2 0 1 0-1.697-1.697 1.2 1.2 0 0 0 1.697 1.697zm-1.272-1.27a.598.598 0 1 1 .846.845.598.598 0 0 1-.846-.846zm12.285 10.49l-.758-2.456-.757 2.456c-.144.466-.508.83-.973.974l-2.457.757 2.457.758c.465.143.83.508.973.973l.757 2.457.758-2.457c.144-.465.508-.83.973-.973l2.457-.758-2.457-.757a1.473 1.473 0 0 1-.973-.974zm-.758 2.431a.7.7 0 1 1 0-1.4.7.7 0 0 1 0 1.4z"/><circle class="st0" cx="65.437" cy="52.713" r=".7"/></svg>