<svg id="Layer_1" xmlns="http://www.w3.org/2000/svg" viewBox="0 0 62.6498489 64.333313"><style>.st0{fill:none}.st1{fill:#fee098}.st2{fill:#f8be29}.st3{fill:#fff}</style><path class="st0" d="M28.658 3.4c.3 0 .5-.2.5-.5a.5.5 0 0 1-.5.5zm7.545 28.32l.137-7.261a5.322 5.322 0 0 1-1.472.213 5.396 5.396 0 0 1-4.164-1.963 4.778 4.778 0 0 1-3.93 2.068c-.404 0-.802-.052-1.184-.15a4.76 4.76 0 0 1-3.723 1.785 4.73 4.73 0 0 1-.674-.06v6.685a31 31 0 0 1 15.01-1.317zM28.658 3.4a.5.5 0 0 1-.5-.5c0 .3.2.5.5.5zm0-1c-.3 0-.5.2-.5.5a.5.5 0 0 1 .5-.5zm.5.5c0-.3-.2-.5-.5-.5a.5.5 0 0 1 .5.5z"/><path class="st1" d="M31.325 33.333c-1.114 0-2.212.069-3.294.19 14.54 1.626 25.863 13.876 26.03 28.81h6.589c-.18-16.046-13.237-29-29.325-29zM16.8 37.187a29.182 29.182 0 0 1 3.789-1.817C9.802 39.618 2.137 50.07 2 62.333h29.613c-.12-10.777-6.056-20.15-14.812-25.146z"/><path class="st1" d="M24.222 34.203a28.896 28.896 0 0 1 1.773-.378c-1.87.344-3.678.865-5.406 1.545 10.787 4.248 18.45 14.699 18.588 26.963h7.32c-.152-13.62-9.587-24.997-22.275-28.13zm2.005-.419z"/><path d="M38.196 32.109l.134-7.02a5.922 5.922 0 0 0 2.781.718 5.98 5.98 0 0 0 5.973-5.972 5.85 5.85 0 0 0-.19-1.48c.271-.69.412-1.418.412-2.148 0-.677-.122-1.354-.357-2a5.855 5.855 0 0 0 .357-2 5.985 5.985 0 0 0-3.181-5.277 5.414 5.414 0 0 0-5.36-4.695 5.402 5.402 0 0 0-3.907 1.676 5.92 5.92 0 0 0-4.199 4.846 5.995 5.995 0 0 0-2.624 2.386c-.313-2.151-2.152-3.815-4.389-3.815-.83 0-1.62.235-2.305.669a5.156 5.156 0 0 0-1.618-.26 5.255 5.255 0 0 0-5.142 6.305 5.233 5.233 0 0 0-1.698 3.85c0 1.104.348 2.16.981 3.039a4.79 4.79 0 0 0 4.732 5.482c.202-.001.4-.028.597-.054v7.439C8.057 38.52.143 49.522 0 62.31a2 2 0 0 0 2 2.022h58.65a2 2 0 0 0 2-2.022c-.165-14.722-10.63-27.07-24.454-30.202zm-5.535-21.871a3.942 3.942 0 0 1-.063-.619 3.962 3.962 0 0 1 3.368-3.911 3.398 3.398 0 0 1 2.8-1.473 3.405 3.405 0 0 1 3.337 4.077 3.971 3.971 0 0 1 3.203 3.895c0 .733-.212 1.411-.558 2 .346.59.558 1.268.558 2 0 .74-.216 1.425-.568 2.019.219.492.346 1.035.346 1.609a3.97 3.97 0 1 1-7.606 1.596 3.383 3.383 0 0 1-2.61 1.241 3.402 3.402 0 0 1-3.314-2.647c0-.012.004-.022.004-.033 0-.277-.04-.545-.085-.81.012-.468.116-.912.298-1.315a3.997 3.997 0 0 1-1.082-.62 4.727 4.727 0 0 0-.68-.78 5.191 5.191 0 0 0-.755-2.95 3.961 3.961 0 0 1 3.407-3.28zM18.596 24.412a2.784 2.784 0 0 1-2.784-2.784c0-.439.11-.848.29-1.217a3.228 3.228 0 0 1-1.219-2.518c0-1.417.912-2.609 2.177-3.053a3.228 3.228 0 0 1-.586-1.854 3.249 3.249 0 0 1 3.249-3.248c.735 0 1.405.253 1.95.664.443-.633 1.142-1.074 1.973-1.074a2.453 2.453 0 0 1 2.454 2.454c0 .498-.186.935-.44 1.322a3.239 3.239 0 0 1 2.355 3.108c0 .422-.087.822-.233 1.191a2.78 2.78 0 0 1-1.009 5.374 2.765 2.765 0 0 1-2.135-1.018 2.778 2.778 0 0 1-2.771 2.653 2.761 2.761 0 0 1-1.635-.54c-.46.336-1.023.54-1.636.54zm2.597 1.94c.223.033.446.06.674.06a4.76 4.76 0 0 0 3.723-1.786 4.778 4.778 0 0 0 5.114-1.918 5.396 5.396 0 0 0 4.164 1.964c.504 0 .998-.077 1.472-.213l-.137 7.261a31 31 0 0 0-15.01 1.317v-6.684zm32.869 35.981H2C2.137 50.07 9.802 39.618 20.589 35.37a29.092 29.092 0 0 1 5.406-1.545l.232-.041a29.615 29.615 0 0 1 5.098-.45c16.088 0 29.145 12.953 29.325 29h-6.588z"/><path class="st2" d="M30.008 16.467c.258.235.483.498.681.78.324.26.687.471 1.082.62a3.394 3.394 0 0 0-.298 1.314c.045.266.085.534.085.811 0 .011-.003.021-.004.033a3.402 3.402 0 0 0 3.314 2.647 3.384 3.384 0 0 0 2.61-1.241 3.97 3.97 0 0 0 7.606-1.596c0-.574-.127-1.117-.346-1.61a3.934 3.934 0 0 0 .568-2.018c0-.732-.212-1.41-.558-2a3.932 3.932 0 0 0 .558-2 3.971 3.971 0 0 0-3.203-3.895 3.405 3.405 0 0 0-3.337-4.078 3.398 3.398 0 0 0-2.8 1.474 3.962 3.962 0 0 0-3.368 3.911c0 .212.03.416.063.619a3.961 3.961 0 0 0-3.408 3.28 5.191 5.191 0 0 1 .755 2.95zm-8.141 7.945c1.493 0 2.7-1.177 2.771-2.653a2.766 2.766 0 0 0 2.135 1.018 2.78 2.78 0 1 0 1.009-5.373c.146-.37.233-.77.233-1.192a3.239 3.239 0 0 0-2.356-3.108c.255-.387.44-.824.44-1.322a2.453 2.453 0 0 0-2.453-2.454c-.831 0-1.53.441-1.974 1.074a3.219 3.219 0 0 0-1.95-.664 3.249 3.249 0 0 0-3.248 3.248c0 .69.219 1.328.586 1.854a3.239 3.239 0 0 0-2.177 3.053 3.23 3.23 0 0 0 1.22 2.518 2.75 2.75 0 0 0-.291 1.217 2.784 2.784 0 0 0 2.784 2.784c.613 0 1.175-.204 1.636-.54a2.76 2.76 0 0 0 1.635.54z"/><path class="st3" d="M28.03 33.523c-.607.068-1.207.157-1.803.26l-.232.042c-.597.11-1.189.233-1.773.378 12.688 3.133 22.123 14.51 22.275 28.13h7.565C53.894 47.4 42.57 35.15 28.03 33.523z"/><path class="st3" d="M20.589 35.37a29.182 29.182 0 0 0-3.788 1.817c8.756 4.997 14.691 14.369 14.812 25.146h7.564C39.04 50.07 31.376 39.618 20.589 35.37z"/><ellipse transform="rotate(-67.07 22.066 2.536)" class="st2" cx="22.066" cy="2.536" rx=".6" ry=".6"/><path class="st2" d="M28.158 4.1l.5 1.7.5-1.7c.1-.3.3-.6.7-.7l1.7-.5-1.7-.5c-.3-.1-.6-.4-.7-.7l-.5-1.7-.5 1.7c-.1.3-.4.6-.7.7l-1.7.5 1.7.5c.3.1.6.4.7.7zm.5-1.7c.3 0 .5.2.5.5s-.2.5-.5.5-.5-.2-.5-.5.2-.5.5-.5z"/><circle class="st3" cx="28.658" cy="2.9" r=".5"/></svg>