<?xml version="1.0" encoding="utf-8"?>
<!-- Generator: Adobe Illustrator 16.0.4, SVG Export Plug-In . SVG Version: 6.00 Build 0)  -->
<!DOCTYPE svg PUBLIC "-//W3C//DTD SVG 1.1//EN" "http://www.w3.org/Graphics/SVG/1.1/DTD/svg11.dtd">
<svg version="1.1" id="Layer_1" xmlns="http://www.w3.org/2000/svg" xmlns:xlink="http://www.w3.org/1999/xlink" x="0px" y="0px"
	 width="17px" height="14px" viewBox="0 0 17 14" enable-background="new 0 0 17 14" xml:space="preserve">
<g>
	<path d="M8.5,4C6.57,4,5,5.57,5,7.5S6.57,11,8.5,11S12,9.43,12,7.5S10.43,4,8.5,4z M8.5,9C7.672,9,7,8.328,7,7.5S7.672,6,8.5,6
		S10,6.672,10,7.5S9.328,9,8.5,9z"/>
	<path d="M15,3.002h-1V2c0-1.104-0.896-2-2-2H5C3.896,0,3,0.896,3,2v1.002H2c-1.104,0-2,0.896-2,2V12c0,1.104,0.896,2,2,2h13
		c1.104,0,2-0.896,2-2V5.002C17,3.897,16.104,3.002,15,3.002z M15,12H2V5.002h1V5h2V2h7v3h2v0.002h1V12z"/>
</g>
</svg>
