<?xml version="1.0" encoding="utf-8"?>
<!-- Generator: Adobe Illustrator 16.0.4, SVG Export Plug-In . SVG Version: 6.00 Build 0)  -->
<!DOCTYPE svg PUBLIC "-//W3C//DTD SVG 1.1//EN" "http://www.w3.org/Graphics/SVG/1.1/DTD/svg11.dtd">
<svg version="1.1" id="Layer_1" xmlns="http://www.w3.org/2000/svg" xmlns:xlink="http://www.w3.org/1999/xlink" x="0px" y="0px"
	 width="42px" height="42px" viewBox="0 0 42 42" enable-background="new 0 0 42 42" xml:space="preserve">
<g>
	<circle fill-rule="evenodd" clip-rule="evenodd" fill="#F9C02E" cx="21" cy="21" r="20"/>
	<g id="Symbol_19_">
		<g>
			<path fill-rule="evenodd" clip-rule="evenodd" fill="#FFFFFF" d="M21.507,10.033c-5.914,0-8.896,4.293-8.896,7.872
				c0,2.167,0.811,4.095,2.547,4.812c0.287,0.121,0.543,0.006,0.623-0.314c0.059-0.222,0.195-0.778,0.257-1.012
				c0.081-0.315,0.051-0.426-0.178-0.702c-0.503-0.599-0.823-1.373-0.823-2.472c0-3.182,2.354-6.033,6.13-6.033
				c3.342,0,5.181,2.066,5.181,4.829c0,3.632-1.591,6.698-3.948,6.698c-1.303,0-2.278-1.091-1.966-2.428
				c0.374-1.595,1.1-3.318,1.1-4.47c0-1.033-0.547-1.892-1.68-1.892c-1.329,0-2.4,1.392-2.4,3.261c0,1.189,0.397,1.994,0.397,1.994
				s-1.364,5.843-1.601,6.867c-0.478,2.038-0.073,4.537-0.038,4.789c0.021,0.149,0.209,0.184,0.296,0.072
				c0.123-0.163,1.709-2.144,2.247-4.125c0.154-0.561,0.876-3.465,0.876-3.465c0.433,0.837,1.695,1.571,3.042,1.571
				c4.002,0,6.716-3.692,6.716-8.636C29.389,13.514,26.263,10.033,21.507,10.033z"/>
		</g>
	</g>
</g>
</svg>
