<?xml version="1.0" encoding="utf-8"?>
<!-- Generator: Adobe Illustrator 16.0.4, SVG Export Plug-In . SVG Version: 6.00 Build 0)  -->
<!DOCTYPE svg PUBLIC "-//W3C//DTD SVG 1.1//EN" "http://www.w3.org/Graphics/SVG/1.1/DTD/svg11.dtd">
<svg version="1.1" id="Layer_1" xmlns="http://www.w3.org/2000/svg" xmlns:xlink="http://www.w3.org/1999/xlink" x="0px" y="0px"
	 width="26px" height="26px" viewBox="0 0 26 26" enable-background="new 0 0 26 26" xml:space="preserve">
<path fill-rule="evenodd" clip-rule="evenodd" fill="#F8C02C" d="M13,0c7.18,0,13,5.82,13,13s-5.82,13-13,13S0,20.18,0,13
	S5.82,0,13,0z"/>
<g>
	<g>
		<path fill-rule="evenodd" clip-rule="evenodd" fill="#FFFFFF" d="M21,11h-6V5c0-0.552-0.447-1-1-1h-2c-0.552,0-1,0.448-1,1v6H5
			c-0.552,0-1,0.448-1,1v2c0,0.553,0.448,1,1,1h6v6c0,0.553,0.448,1,1,1h2c0.553,0,1-0.447,1-1v-6h6c0.553,0,1-0.447,1-1v-2
			C22,11.448,21.553,11,21,11z"/>
	</g>
</g>
</svg>
