<svg xmlns="http://www.w3.org/2000/svg" width="9.579" height="15.593" viewBox="0 0 9.579 15.593"><path d="M4.97 0c.432 0 .774.343.774.774v.396a6.562 6.562 0 0 1 2.791.99c.288.162.54.432.54.864 0 .558-.45.99-1.009.99-.18 0-.36-.055-.54-.162-.63-.378-1.242-.648-1.854-.792v3.457c2.736.684 3.907 1.782 3.907 3.709 0 1.98-1.549 3.295-3.835 3.511v1.08a.768.768 0 0 1-.774.774.783.783 0 0 1-.792-.774v-1.116a7.785 7.785 0 0 1-3.691-1.404C.181 12.1 0 11.812 0 11.434c0-.559.433-.99.99-.99.217 0 .433.072.595.198.846.612 1.674 1.026 2.664 1.206V8.301C1.621 7.616.396 6.626.396 4.592c0-1.927 1.53-3.259 3.781-3.439V.774A.785.785 0 0 1 4.97 0zm-.721 6.14V2.953c-1.152.108-1.729.72-1.729 1.513.001.756.343 1.223 1.729 1.674zm1.423 2.503v3.277c1.152-.126 1.782-.702 1.782-1.566 0-.792-.395-1.279-1.782-1.711z"/></svg>