<?xml version="1.0" encoding="utf-8"?>
<!-- Generator: Adobe Illustrator 16.0.4, SVG Export Plug-In . SVG Version: 6.00 Build 0)  -->
<!DOCTYPE svg PUBLIC "-//W3C//DTD SVG 1.1//EN" "http://www.w3.org/Graphics/SVG/1.1/DTD/svg11.dtd">
<svg version="1.1" id="Layer_1" xmlns="http://www.w3.org/2000/svg" xmlns:xlink="http://www.w3.org/1999/xlink" x="0px" y="0px"
	 width="16.079px" height="17.187px" viewBox="0 0 16.079 17.187" enable-background="new 0 0 16.079 17.187" xml:space="preserve">
<path d="M15.711,0.225c-0.308-0.251-0.732-0.295-1.087-0.115L0.545,7.296C0.19,7.477-0.022,7.851,0.002,8.248
	S0.284,8.99,0.658,9.126L5,10.705v5.481c0,0.449,0.3,0.844,0.733,0.964C5.821,17.175,5.911,17.187,6,17.187
	c0.345,0,0.674-0.179,0.857-0.485l2.621-4.368l2.18,0.793c0.11,0.041,0.227,0.061,0.342,0.061c0.158,0,0.315-0.037,0.459-0.111
	c0.248-0.128,0.431-0.354,0.505-0.623l3.079-11.187C16.148,0.883,16.018,0.476,15.711,0.225z M7,12.576v-1.145l0.563,0.205L7,12.576
	z M11.323,10.876l-3.22-1.171l3.484-2.976c0.42-0.359,0.47-0.99,0.111-1.41c-0.36-0.421-0.99-0.468-1.41-0.111L5.943,8.92
	L3.502,8.032l10.011-5.11L11.323,10.876z"/>
</svg>
