<?xml version="1.0" encoding="utf-8"?>
<!-- Generator: Adobe Illustrator 16.0.4, SVG Export Plug-In . SVG Version: 6.00 Build 0)  -->
<!DOCTYPE svg PUBLIC "-//W3C//DTD SVG 1.1//EN" "http://www.w3.org/Graphics/SVG/1.1/DTD/svg11.dtd">
<svg version="1.1" id="Layer_1" xmlns="http://www.w3.org/2000/svg" xmlns:xlink="http://www.w3.org/1999/xlink" x="0px" y="0px"
	 width="17px" height="13px" viewBox="0 0 17 13" enable-background="new 0 0 17 13" xml:space="preserve">
<path d="M15.633,4.103L14,3.559V2c0-1.104-0.896-2-2-2H2C0.896,0,0,0.896,0,2v7c0,1.104,0.896,2,2,2h1.051
	c0.231,1.142,1.239,2,2.449,2s2.218-0.858,2.449-2h1.102c0.231,1.142,1.239,2,2.449,2s2.218-0.858,2.449-2H15c1.104,0,2-0.896,2-2V6
	C17,5.139,16.449,4.375,15.633,4.103z M15,9h-1.512c-0.456-0.604-1.173-1-1.988-1S9.968,8.396,9.512,9H7.488
	C7.032,8.396,6.315,8,5.5,8S3.968,8.396,3.512,9H2V2h10v3l3,1V9z"/>
</svg>
