<svg xmlns="http://www.w3.org/2000/svg" width="16.604" height="16.309" viewBox="0 0 16.604 16.309"><path d="M16.259 7.552l-2.31-2a1 1 0 0 0-1.654.756v1.001h-2.001a1 1 0 1 0 0 2h2.001v1a.998.998 0 0 0 1 1c.236 0 .47-.084.655-.244l2.31-2.001a1.001 1.001 0 0 0-.001-1.512zM6.294 9.309a1 1 0 1 0 0-2H4.295V6.308a.998.998 0 0 0-.585-.909.994.994 0 0 0-1.07.153L.33 7.553a1.001 1.001 0 0 0 .001 1.512l2.31 2a1.002 1.002 0 0 0 1.07.153 1 1 0 0 0 .584-.909v-1h1.999zm.003-5h.998v2a1 1 0 1 0 2 0v-2h1a1 1 0 0 0 .756-1.654L9.053.346a.999.999 0 0 0-1.512 0l-2 2.309a.998.998 0 1 0 .756 1.654zm3.998 7.69h-1v-1.69a1 1 0 1 0-2 0v1.69h-1a1 1 0 0 0-.756 1.654l1.999 2.31a.997.997 0 0 0 1.512.001l2.001-2.31a1 1 0 0 0-.756-1.655z"/></svg>