<?xml version="1.0" encoding="utf-8"?>
<!-- Generator: Adobe Illustrator 16.0.4, SVG Export Plug-In . SVG Version: 6.00 Build 0)  -->
<!DOCTYPE svg PUBLIC "-//W3C//DTD SVG 1.1//EN" "http://www.w3.org/Graphics/SVG/1.1/DTD/svg11.dtd">
<svg version="1.1" id="Layer_1" xmlns="http://www.w3.org/2000/svg" xmlns:xlink="http://www.w3.org/1999/xlink" x="0px" y="0px"
	 width="13px" height="15.999px" viewBox="1135 974.001 13 15.999" enable-background="new 1135 974.001 13 15.999"
	 xml:space="preserve">
<g>
	<path d="M1147,977h-2v-0.999c0-1.104-0.896-2-2-2h-3c-1.104,0-2,0.896-2,2V977h-2c-0.553,0-1,0.447-1,1s0.447,1,1,1l0,0v0.001V988
		c0,1.104,0.896,2,2,2h7c1.104,0,2-0.896,2-2v-8.999V979l0,0c0.553,0,1-0.447,1-1S1147.553,977,1147,977z M1140,976.001h3V977h-3
		V976.001z M1145,988h-7v-8.999h7V988z"/>
	<path d="M1140,987c0.553,0,1-0.447,1-1v-5c0-0.553-0.447-1-1-1s-1,0.447-1,1v5C1139,986.553,1139.447,987,1140,987z"/>
	<path d="M1143,987c0.553,0,1-0.447,1-1v-5c0-0.553-0.447-1-1-1s-1,0.447-1,1v5C1142,986.553,1142.447,987,1143,987z"/>
</g>
</svg>
