<?xml version="1.0" encoding="utf-8"?>
<!-- Generator: Adobe Illustrator 16.0.4, SVG Export Plug-In . SVG Version: 6.00 Build 0)  -->
<!DOCTYPE svg PUBLIC "-//W3C//DTD SVG 1.1//EN" "http://www.w3.org/Graphics/SVG/1.1/DTD/svg11.dtd">
<svg version="1.1" id="Layer_1" xmlns="http://www.w3.org/2000/svg" xmlns:xlink="http://www.w3.org/1999/xlink" x="0px" y="0px"
	 width="42px" height="42px" viewBox="0 0 42 42" enable-background="new 0 0 42 42" xml:space="preserve">
<g>
	<circle fill-rule="evenodd" clip-rule="evenodd" cx="21" cy="21" r="20"/>
	<g id="Symbol_21_">
		<g>
			<path fill-rule="evenodd" clip-rule="evenodd" fill="#FFFFFF" d="M31.97,14.598c-0.764,0.34-1.578,0.566-2.437,0.667
				c0.876-0.524,1.548-1.353,1.864-2.341c-0.82,0.485-1.726,0.836-2.691,1.025c-0.771-0.822-1.873-1.337-3.092-1.337
				c-2.336,0-4.232,1.897-4.232,4.235c0,0.331,0.036,0.656,0.108,0.964c-3.52-0.175-6.644-1.861-8.733-4.424
				c-0.363,0.627-0.57,1.353-0.57,2.127c0,1.471,0.746,2.767,1.883,3.527c-0.693-0.023-1.347-0.213-1.917-0.532v0.056
				c0,2.05,1.458,3.762,3.396,4.152c-0.355,0.096-0.729,0.147-1.115,0.147c-0.273,0-0.538-0.025-0.798-0.077
				c0.54,1.686,2.104,2.908,3.958,2.942c-1.449,1.135-3.276,1.812-5.261,1.812c-0.344,0-0.679-0.02-1.011-0.058
				c1.875,1.199,4.098,1.903,6.491,1.903c7.793,0,12.054-6.455,12.054-12.049c0-0.184-0.005-0.367-0.016-0.549
				C30.684,16.195,31.4,15.448,31.97,14.598z"/>
		</g>
	</g>
</g>
</svg>
