<?xml version="1.0" encoding="utf-8"?>
<!-- Generator: Adobe Illustrator 19.2.1, SVG Export Plug-In . SVG Version: 6.00 Build 0)  -->
<svg version="1.1" id="Layer_1" xmlns="http://www.w3.org/2000/svg" xmlns:xlink="http://www.w3.org/1999/xlink" x="0px" y="0px"
	 viewBox="0 0 17 17" style="enable-background:new 0 0 17 17;" xml:space="preserve">
<style type="text/css">
	.st0{fill:#F9C02E;}
	.st1{fill:#FFFFFF;}
</style>
<g>
	<circle class="st0" cx="8.5" cy="8.5" r="8"/>
	<g id="Symbol_21_">
		<g>
			<path class="st1" d="M12.9,5.9c-0.3,0.1-0.6,0.2-1,0.3c0.4-0.2,0.6-0.5,0.7-0.9c-0.3,0.2-0.7,0.3-1.1,0.4
				c-0.3-0.3-0.7-0.5-1.2-0.5c-0.9,0-1.7,0.8-1.7,1.7c0,0.1,0,0.3,0,0.4C7.3,7.2,6,6.5,5.2,5.5C5.1,5.7,5,6,5,6.3
				c0,0.6,0.3,1.1,0.8,1.4C5.4,7.7,5.2,7.6,5,7.5v0C5,8.3,5.5,9,6.3,9.2C6.2,9.2,6,9.2,5.9,9.2c-0.1,0-0.2,0-0.3,0
				c0.2,0.7,0.8,1.2,1.6,1.2c-0.6,0.5-1.3,0.7-2.1,0.7c-0.1,0-0.3,0-0.4,0c0.8,0.5,1.6,0.8,2.6,0.8c3.1,0,4.8-2.6,4.8-4.8
				c0-0.1,0-0.1,0-0.2C12.4,6.6,12.7,6.3,12.9,5.9z"/>
		</g>
	</g>
</g>
</svg>
