<svg id="Layer_1" xmlns="http://www.w3.org/2000/svg" viewBox="0 0 25.166666 38.1666565"><style>.st0{display:none}.st1{display:inline}.st2{fill:#a3cb39}.st3{fill:#010101}.st4,.st5{display:inline;fill:none;stroke:#010101;stroke-linecap:round;stroke-linejoin:round;stroke-miterlimit:10}.st5{stroke:#e1eba9}.st6{fill:#e1eba9}.st6,.st7,.st8{display:inline}.st7{fill:#fff}.st8{fill:#a4cc39}.st9{fill:none}.st10{fill:#a4cc39}.st11{fill:#e1eba9}.st12{fill:#fff}.st13{display:inline;fill:none;stroke:#a2ca3a;stroke-linecap:round;stroke-linejoin:round;stroke-miterlimit:10}.st14{fill:#a2cb39}</style><g id="Layer_1_1_" class="st0"><g class="st1"><path class="st2" d="M8.774 36.612c-1.354 0-2.312-.037-2.633-.049l-.129-.003c-.592-.019-1.403-.044-2.01-1.107-.611-1.067-.26-1.755.023-2.307l.513.091-.446-.224c1.349-2.678 6.16-11.702 11.428-15.43 4.578-3.238 8.397-3.551 12.441-3.883.872-.072 1.756-.144 2.662-.248.414-.048.793-.07 1.143-.07 1.507 0 2.655.401 3.412 1.192.664.694.838 1.505.882 1.938a3.28 3.28 0 0 1 1.318 1.886c.316 1.263-.112 2.727-1.272 4.353A78.023 78.023 0 0 0 34.576 25c-2.239 3.374-4.352 6.56-9.382 8.988-4.728 2.283-12.317 2.624-16.42 2.624z"/><path class="st3" d="M31.766 13.882c3.935 0 3.808 2.917 3.808 2.917s3.073 1.529.125 5.662c-2.95 4.133-4.711 8.175-10.723 11.077-4.662 2.251-12.188 2.574-16.203 2.574-1.354 0-2.31-.036-2.621-.048-.617-.024-1.214.02-1.716-.859-.503-.879-.2-1.368.078-1.92.556-1.102 5.643-11.296 11.295-15.294 5.45-3.855 9.827-3.463 14.87-4.043a9.527 9.527 0 0 1 1.087-.066m0-1c-.378 0-.782.025-1.2.073-.895.103-1.785.176-2.645.246-4.114.338-8 .657-12.69 3.974-5.214 3.688-9.839 12.146-11.585 15.61l-.025.05-.042.084c-.3.59-.755 1.48-.012 2.782.747 1.306 1.8 1.339 2.43 1.358l.117.004c.324.012 1.294.05 2.659.05 4.146 0 11.82-.348 16.638-2.674 5.154-2.489 7.305-5.73 9.582-9.163.486-.732.988-1.49 1.52-2.235 1.248-1.75 1.703-3.353 1.35-4.764a3.737 3.737 0 0 0-1.335-2.042 3.759 3.759 0 0 0-.99-2.007c-.854-.893-2.123-1.346-3.772-1.346z"/></g><path class="st4" d="M36.442 16.303l2.757-1.576"/><path class="st5" d="M34.9 16.126s-3.581-.976-9.1.45c-4.383 1.134-8.233 1.97-12.403 6.514-3.128 3.407-8 10.187-8 10.187"/><path class="st5" d="M5.708 33.82s9.069-9.071 13.999-12.033 15.348-4.886 15.348-4.886"/><path class="st6" d="M33.829 19.173a12.87 12.87 0 0 0 1.762-1.352c.984-.901.829-2.345-.328-3.012-4.332-2.498-10.274-2.474-14.838.446-1.345.86-2.44 1.9-3.296 3.044 4.347 3.759 11.438 4.24 16.7.874z"/><path class="st7" d="M36.225 16.207c-.066-.55-.39-1.068-.962-1.398-4.332-2.498-10.274-2.474-14.838.446-1.345.86-2.44 1.9-3.296 3.044l.024.019 19.072-2.11z"/><path class="st5" d="M6.576 35.34s8.252-.866 12.775-1.832c6.031-1.287 8.707-4.18 11.907-7.381 4.03-4.032 4.786-6.3 4.883-6.822.092-.496.004-1.19-.43-1.446"/><path class="st5" d="M35.676 17.987s-6.945 8-12 10.746-17.472 5.955-17.472 5.955m28.851-17.787L6.064 34.192m-.718-.837s-.455.884-.088 1.442c.367.558 1.318.542 1.318.542"/><path class="st8" d="M11.416 6.465a9.627 9.627 0 0 0 .456-1.598c.19-.98-.547-1.778-1.539-1.663-3.716.429-7.275 3.092-8.717 6.88a9.356 9.356 0 0 0-.623 3.298c4.286.32 8.761-2.55 10.423-6.917z"/><g class="st1"><path class="st2" d="M12.43 37.667c-1.228 0-1.651-.646-1.991-1.164-.153-.232-.477-.58-.85-.984-1.915-2.065-6.394-6.9-6.958-12.721-.539-5.582 1.084-9.053 2.803-12.728.37-.793.746-1.596 1.104-2.433 1.238-2.887 2.86-3.492 4.002-3.492a3.34 3.34 0 0 1 1.356.29 3.352 3.352 0 0 1 1.43-.328c1.117 0 2.718.587 4.007 3.384a77.07 77.07 0 0 0 1.194 2.443c1.818 3.618 3.535 7.034 3.148 12.608-.408 5.858-4.668 10.812-6.487 12.927-.345.401-.643.747-.737.898l-.062.1c-.31.507-.734 1.2-1.959 1.2z"/><path class="st3" d="M13.326 4.607c1.011 0 2.391.572 3.553 3.093 2.125 4.611 4.76 8.147 4.297 14.807-.48 6.906-6.496 12.548-7.149 13.596-.326.524-.585 1.064-1.597 1.064s-1.287-.506-1.627-1.021c-.682-1.03-7.008-6.505-7.674-13.396-.642-6.645 1.87-10.25 3.87-14.917 1.12-2.614 2.523-3.188 3.542-3.188.799 0 1.36.354 1.36.354s.586-.392 1.425-.392m0-1c-.59 0-1.09.143-1.44.285a3.858 3.858 0 0 0-1.345-.247c-1.294 0-3.117.658-4.462 3.794a81.519 81.519 0 0 1-1.098 2.42c-1.749 3.738-3.4 7.27-2.847 12.987.579 5.99 5.14 10.912 7.088 13.013.314.339.67.722.746.839l.052.078c.363.554.911 1.39 2.41 1.39 1.504 0 2.055-.898 2.385-1.435l.06-.1c.075-.119.389-.484.692-.836 1.852-2.153 6.188-7.195 6.606-13.219.398-5.71-1.35-9.186-3.2-12.866a79.264 79.264 0 0 1-1.186-2.428c-1.399-3.037-3.198-3.675-4.461-3.675z"/></g><path class="st4" d="M11.902 3.999V.823"/><path class="st5" d="M10.984 5.25s-2.625 2.625-4.125 8.125c-1.191 4.367-2.375 8.125-.5 14 1.406 4.406 4.875 8 4.875 8"/><path class="st5" d="M11.859 35.375S8.484 27 8.359 21.25 11.734 5.5 11.734 5.5"/><path class="st6" d="M13.097 7.692a12.87 12.87 0 0 0-.299-2.2c-.294-1.302-1.625-1.884-2.777-1.21-4.32 2.52-7.246 7.691-6.977 13.103.08 1.594.439 3.062 1.007 4.372 5.42-1.909 9.357-7.827 9.046-14.065z"/><path class="st7" d="M11.711 4.14c-.51-.215-1.121-.191-1.69.141-4.32 2.521-7.246 7.692-6.977 13.104.08 1.594.439 3.062 1.007 4.372.01-.003.019-.008.028-.012L11.711 4.14z"/><path class="st5" d="M13.609 35.375s3.344-3.594 4.75-8c1.875-5.875.69-9.633-.5-14-1.5-5.5-3.094-7.281-3.5-7.625-.385-.325-1.031-.594-1.469-.344"/><path class="st5" d="M12.984 5.5s3.5 10 3.375 15.75-3.5 14.125-3.5 14.125M11.734 5.5l.625 29.75m-1.084.208s.542.834 1.209.792c.666-.042 1.125-.875 1.125-.875"/></g><g id="Layer_1_copy"><path class="st9" d="M13.486 36.831zm-.426.243zm.722-.584zm-.456-31.883c-.011 0-.02.003-.03.003.044 0 .09.003.136.005-.035-.001-.072-.008-.106-.008zm2.049.888c.063.058.126.115.19.18-.064-.066-.127-.121-.19-.18zm-.889-.617zm1.817 1.768c.05.078.1.146.149.23-.05-.084-.1-.152-.149-.23zm-2.242-1.93zm.864.416zm.908.855c.06.072.12.14.178.22-.059-.08-.119-.148-.178-.22zm-3.045-1.323c-.009.002-.02.002-.03.003l.002.003.028-.006zm.871-.032c.054.007.111.019.167.03a2.023 2.023 0 0 0-.167-.03z"/><path class="st10" d="M4.978 9.458c.22-.407.465-.797.72-1.178.127-.283.258-.553.381-.84 1.345-3.137 3.168-3.795 4.462-3.795.277 0 .532.032.761.079.04.002.08 0 .12.006a.488.488 0 0 1-.063-.23v-.916a1.615 1.615 0 0 0-.955-.178C6.264 2.884 2.3 5.85.694 10.07A10.421 10.421 0 0 0 0 13.743a10.369 10.369 0 0 0 3.434-.338c.077-.198.15-.4.23-.595a14.901 14.901 0 0 1 1.314-3.352z"/><path class="st2" d="M8.859 21.24c.092 4.266 2.038 10.084 2.97 12.644l-.393-18.742a14.644 14.644 0 0 1-2.4 3.205c-.128 1.034-.196 2.016-.177 2.892zM12.5 35.72a.494.494 0 0 1-.084.02c.012.001.025.01.037.011.018-.001.037-.016.056-.02l-.009-.01zm5.382-8.497c1.751-5.485.776-9.044-.354-13.164l-.152-.553c-1.593-5.845-3.27-7.315-3.34-7.374a1.524 1.524 0 0 0-.388-.232c.743 2.219 3.32 10.308 3.21 15.36-.1 4.597-2.188 10.704-3.108 13.185.973-1.177 3.102-3.991 4.132-7.222zm-11.047 0c.973 3.05 2.981 5.72 4.05 6.999-.956-2.608-2.929-8.496-3.026-12.961a18.72 18.72 0 0 1 .073-1.899c-.636.517-1.318.965-2.033 1.349-.088 1.929.141 4.02.936 6.512z"/><path class="st2" d="M15.859 21.24c.085-3.924-1.577-9.95-2.59-13.238a14.434 14.434 0 0 1-.876 5.047l.44 20.982c.909-2.473 2.931-8.438 3.026-12.792z"/><path class="st2" d="M12.855 4.88c.61-.208 1.336.073 1.827.488.328.278 2.047 1.963 3.66 7.876l.15.55c1.123 4.097 2.184 7.966.343 13.733-1.368 4.289-4.46 7.751-4.822 8.147-.137.23-.668 1.023-1.498 1.075a1.144 1.144 0 0 1-.081.003c-.889 0-1.508-.915-1.578-1.022-.01-.014-.01-.03-.018-.046-.36-.378-3.58-3.85-4.956-8.157-.762-2.387-1.022-4.447-.99-6.334-.224.094-.446.192-.674.272a12.472 12.472 0 0 1-.896-3.2c-.026-.178-.034-.364-.052-.546-.245 1.495-.324 3.137-.141 5.03.666 6.892 6.992 12.367 7.674 13.397.34.515.615 1.02 1.627 1.02.253 0 .459-.033.63-.092s.31-.143.426-.243c.116-.1.21-.217.296-.341.086-.124.164-.256.245-.387.653-1.048 6.669-6.69 7.149-13.596.463-6.66-2.172-10.196-4.297-14.807a9.723 9.723 0 0 0-.427-.823c-.05-.085-.1-.153-.149-.231a7.26 7.26 0 0 0-.292-.44c-.059-.08-.119-.147-.178-.22a5.395 5.395 0 0 0-.269-.31c-.063-.066-.126-.123-.189-.18a4.137 4.137 0 0 0-.259-.227 3.551 3.551 0 0 0-.191-.137 3.338 3.338 0 0 0-.44-.254 2.905 2.905 0 0 0-.659-.217c-.056-.01-.113-.022-.167-.03a2.615 2.615 0 0 0-.227-.016c-.046-.002-.092-.005-.137-.005a2.756 2.756 0 0 0-.535.06 2.1 2.1 0 0 1 .095.21z"/><path class="st3" d="M18.973 9.71c-.394-.785-.802-1.596-1.186-2.428-1.399-3.037-3.198-3.675-4.461-3.675-.413 0-.756.076-1.06.167a.487.487 0 0 0 .093-.274v-3a.5.5 0 1 0-1 0v3c0 .084.026.16.063.23.156.02.309.057.452.117l.004.001a1.8 1.8 0 0 1 .88.82l.03-.004c.155-.03.324-.051.507-.054.011 0 .02-.003.03-.003.035 0 .072.007.107.008a2.101 2.101 0 0 1 .394.047 2.672 2.672 0 0 1 .847.312c.083.046.167.1.252.158a3.238 3.238 0 0 1 .451.363c.062.059.125.114.188.18.09.094.18.203.269.312.06.072.119.14.178.22.099.132.195.285.292.439.05.078.1.146.149.23.145.25.288.521.427.824 2.125 4.611 4.76 8.147 4.297 14.807-.48 6.906-6.496 12.548-7.149 13.596-.081.13-.159.263-.245.387s-.18.24-.296.341c-.116.1-.254.184-.425.243s-.378.093-.631.093c-1.012 0-1.287-.506-1.627-1.021-.682-1.03-7.008-6.505-7.674-13.396-.183-1.894-.104-3.536.14-5.03-.02-.209-.048-.414-.058-.627a13.921 13.921 0 0 1 .452-4.283c-.08.196-.152.397-.229.595-1.013 2.636-1.68 5.522-1.3 9.44.579 5.991 5.14 10.913 7.088 13.014.314.339.67.722.746.839l.052.078c.363.554.911 1.39 2.41 1.39 1.504 0 2.055-.898 2.385-1.435l.06-.1c.075-.119.389-.484.692-.836 1.852-2.153 6.188-7.195 6.606-13.219.398-5.71-1.35-9.186-3.2-12.866z"/><path class="st3" d="M9.394 4.493c.259-.178.523-.346.793-.503.01-.006.02-.008.029-.013a2.04 2.04 0 0 1 .406-.18 1.9 1.9 0 0 1 .34-.066c.032-.003.063-.015.094-.017.084-.006.165.005.246.01a3.76 3.76 0 0 0-.761-.08c-1.294 0-3.117.659-4.462 3.795-.123.288-.254.558-.381.84a13.805 13.805 0 0 1 3.697-3.787z"/><path class="st11" d="M5.882 27.527c1.375 4.307 4.596 7.779 4.956 8.157.007.015.008.032.018.046.07.107.69 1.022 1.578 1.022l.081-.003c.83-.052 1.36-.845 1.498-1.075.362-.396 3.454-3.858 4.822-8.147 1.841-5.767.78-9.636-.343-13.733l-.15-.55c-1.613-5.913-3.332-7.598-3.66-7.876-.49-.415-1.216-.696-1.827-.488a1.211 1.211 0 0 0-.213.092.5.5 0 0 0-.187.682c.023.04.056.069.087.1.087.253.365 1.075.727 2.248 1.013 3.288 2.675 9.314 2.59 13.237-.095 4.354-2.117 10.32-3.026 12.792l-.44-20.982-.16-7.56a.5.5 0 0 0-.5-.489h-.01a.5.5 0 0 0-.49.51l.203 9.632.394 18.742c-.933-2.56-2.879-8.378-2.971-12.645-.02-.876.049-1.858.178-2.892-.353.358-.719.7-1.105 1.015a18.784 18.784 0 0 0-.073 1.899c.097 4.465 2.07 10.353 3.026 12.96-1.069-1.278-3.077-3.948-4.05-6.998-.795-2.491-1.024-4.583-.936-6.512a12.08 12.08 0 0 1-1.008.482c-.03 1.887.23 3.947.991 6.334zm6.534 8.213a.494.494 0 0 0 .084-.02c.003.004.005.008.009.011-.02.004-.038.019-.056.02-.012 0-.025-.01-.037-.011zm4.443-14.48c.11-5.052-2.468-13.141-3.21-15.36.132.057.268.131.387.232.07.06 1.747 1.53 3.34 7.374l.152.553c1.13 4.12 2.105 7.68.354 13.164-1.03 3.23-3.16 6.045-4.132 7.222.92-2.481 3.008-8.588 3.109-13.184zM3.21 17.093c.011.213.04.418.06.626.018.182.026.368.051.546a13.073 13.073 0 0 1-.11-1.172zm7.753-13.362zM6.601 7.056zm2.793-2.563c.259-.178.523-.346.793-.503.01-.006.02-.008.029-.013-.01.005-.02.007-.029.013-.27.157-.534.325-.793.503zm1.662-.779c.286-.02.565.027.818.133a1.754 1.754 0 0 0-.452-.117c-.04-.005-.08-.004-.12-.006-.081-.005-.162-.016-.246-.01z"/><path class="st11" d="M4.246 21.454l-.028.011c.228-.08.45-.178.673-.272a12.892 12.892 0 0 0 3.04-1.83c.387-.315.753-.658 1.106-1.016a14.644 14.644 0 0 0 2.4-3.205l-.203-9.631A.5.5 0 0 1 11.723 5h.01a.5.5 0 0 1 .5.49l.16 7.559a14.45 14.45 0 0 0 .876-5.047 79.66 79.66 0 0 0-.727-2.249c-.03-.03-.064-.059-.087-.099a.5.5 0 0 1 .187-.682c.069-.039.14-.067.213-.092a2.032 2.032 0 0 0-.095-.21l-.002-.003a1.804 1.804 0 0 0-.88-.819L4.246 21.454z"/><path class="st12" d="M11.056 3.714c-.03.002-.062.014-.093.017a1.85 1.85 0 0 0-.341.066 2.119 2.119 0 0 0-.406.18c-.01.005-.02.007-.029.013-.27.157-.534.325-.793.503A13.805 13.805 0 0 0 5.698 8.28c-.255.381-.5.771-.72 1.178a14.901 14.901 0 0 0-1.315 3.352 13.919 13.919 0 0 0-.453 4.283c.02.399.058.79.111 1.172a12.472 12.472 0 0 0 .897 3.2l.028-.011 7.632-17.606h-.004a1.784 1.784 0 0 0-.818-.134z"/></g><g id="Layer_4" class="st0"><g class="st1"><path class="st11" d="M8.774 36.612c-1.354 0-2.312-.037-2.633-.049l-.129-.003c-.592-.019-1.403-.044-2.01-1.107-.611-1.067-.26-1.755.023-2.307l.513.091-.446-.224c1.349-2.678 6.16-11.702 11.428-15.43 4.578-3.238 8.397-3.551 12.441-3.883.872-.072 1.756-.144 2.662-.248.414-.048.793-.07 1.143-.07 1.507 0 2.655.401 3.412 1.192.664.694.838 1.505.882 1.938a3.28 3.28 0 0 1 1.318 1.886c.316 1.263-.112 2.727-1.272 4.353A78.023 78.023 0 0 0 34.576 25c-2.239 3.374-4.352 6.56-9.382 8.988-4.728 2.283-12.317 2.624-16.42 2.624z"/><path class="st3" d="M31.766 13.882c3.935 0 3.808 2.917 3.808 2.917s3.073 1.529.125 5.662c-2.95 4.133-4.711 8.175-10.723 11.077-4.662 2.251-12.188 2.574-16.203 2.574-1.354 0-2.31-.036-2.621-.048-.617-.024-1.214.02-1.716-.859-.503-.879-.2-1.368.078-1.92.556-1.102 5.643-11.296 11.295-15.294 5.45-3.855 9.827-3.463 14.87-4.043a9.527 9.527 0 0 1 1.087-.066m0-1c-.378 0-.782.025-1.2.073-.895.103-1.785.176-2.645.246-4.114.338-8 .657-12.69 3.974-5.214 3.688-9.839 12.146-11.585 15.61l-.025.05-.042.084c-.3.59-.755 1.48-.012 2.782.747 1.306 1.8 1.339 2.43 1.358l.117.004c.324.012 1.294.05 2.659.05 4.146 0 11.82-.348 16.638-2.674 5.154-2.489 7.305-5.73 9.582-9.163.486-.732.988-1.49 1.52-2.235 1.248-1.75 1.703-3.353 1.35-4.764a3.737 3.737 0 0 0-1.335-2.042 3.759 3.759 0 0 0-.99-2.007c-.854-.893-2.123-1.346-3.772-1.346z"/></g><path class="st4" d="M36.442 16.303l2.757-1.576"/><path class="st13" d="M5.397 33.277s4.872-6.78 8-10.187c4.17-4.543 8.085-5.155 12.402-6.513 6.654-2.093 7.844-1.234 8.294-.858.375.312.828 1.687.828 1.687L6.064 34.192"/><path class="st13" d="M5.708 33.82s9.069-9.071 13.999-12.033 14.996-4.646 14.996-4.646M6.576 35.34s8.252-.866 12.775-1.832c6.031-1.287 8.707-4.18 11.907-7.381 4.03-4.032 4.795-6.298 4.883-6.822.124-.742-.582-1.534-1.017-1.79"/><path class="st13" d="M35.53 18.078s-6.8 7.91-11.853 10.655-17.473 5.955-17.473 5.955m-.858-1.333s-.455.884-.088 1.442c.367.558 1.318.542 1.318.542"/></g><g id="Layer_3" class="st0"><path class="st8" d="M67.61 12.038c.226-.595.394-1.19.508-1.78.21-1.09-.61-1.98-1.714-1.852-4.14.478-8.104 3.444-9.71 7.664A10.42 10.42 0 0 0 56 19.743c4.775.357 9.759-2.841 11.61-7.705z"/><g class="st1"><path class="st11" d="M68.43 47.667c-1.228 0-1.651-.646-1.991-1.164l.33-.407-.417.275c-1.654-2.5-7.1-11.158-7.72-17.573-.54-5.581 1.083-9.053 2.802-12.728.37-.793.746-1.596 1.104-2.433 1.238-2.887 2.86-3.492 4.002-3.492a3.34 3.34 0 0 1 1.356.29 3.352 3.352 0 0 1 1.43-.328c1.117 0 2.718.587 4.007 3.384a77.07 77.07 0 0 0 1.194 2.443c1.818 3.618 3.535 7.034 3.148 12.608-.453 6.516-5.642 15.288-7.221 17.821l-.065.105c-.31.506-.734 1.199-1.959 1.199z"/><path class="st3" d="M69.326 10.607c1.011 0 2.391.572 3.553 3.093 2.125 4.611 4.76 8.147 4.297 14.807-.48 6.906-6.496 16.548-7.149 17.596-.326.524-.585 1.064-1.597 1.064s-1.287-.506-1.627-1.021c-.682-1.03-7.008-10.505-7.674-17.396-.642-6.645 1.87-10.25 3.87-14.917 1.12-2.614 2.523-3.188 3.542-3.188.799 0 1.36.354 1.36.354s.586-.392 1.425-.392m0-1c-.59 0-1.09.143-1.44.285a3.858 3.858 0 0 0-1.345-.247c-1.294 0-3.117.658-4.462 3.794a81.518 81.518 0 0 1-1.098 2.42c-1.749 3.738-3.4 7.27-2.847 12.987.614 6.359 5.662 14.57 7.804 17.805l.03.047.052.078c.363.554.911 1.39 2.41 1.39 1.504 0 2.055-.898 2.385-1.435l.06-.1c1.599-2.563 6.837-11.426 7.298-18.055.398-5.71-1.35-9.186-3.2-12.866a79.264 79.264 0 0 1-1.186-2.428c-1.399-3.037-3.198-3.675-4.461-3.675z"/></g><path class="st4" d="M67.902 9.999V6.823"/><path class="st13" d="M66.984 11.25s-2.625 2.625-4.125 8.125c-1.191 4.367-2.375 8.125-.5 14 1.406 4.406 4.875 12 4.875 12"/><path class="st13" d="M67.859 45.375S64.484 33 64.359 27.25s3.375-15.75 3.375-15.75m1.875 33.875s3.344-7.594 4.75-12c1.875-5.875.69-9.633-.5-14-1.5-5.5-3.094-7.281-3.5-7.625-.385-.325-1.031-.594-1.469-.344"/><path class="st13" d="M68.984 11.5s3.5 10 3.375 15.75-3.5 18.125-3.5 18.125M67.734 11.5l.625 33.75m-1.084.208s.542.834 1.209.792c.666-.042 1.125-.875 1.125-.875"/><path class="st8" d="M69.264 13.4a12.87 12.87 0 0 0-.3-2.2c-.293-1.302-1.624-1.883-2.777-1.21-4.319 2.52-7.246 7.692-6.977 13.103.08 1.595.44 3.062 1.008 4.372 5.42-1.908 9.356-7.826 9.046-14.064z"/><path class="st6" d="M67.878 9.848c-.51-.215-1.121-.19-1.69.142-4.32 2.52-7.247 7.692-6.977 13.103a12.483 12.483 0 0 0 1.007 4.372l.028-.011 7.632-17.606z"/><path class="st8" d="M67.416 12.465a9.627 9.627 0 0 0 .456-1.598c.19-.98-.547-1.778-1.539-1.663-3.716.429-7.275 3.092-8.717 6.88a9.356 9.356 0 0 0-.623 3.298c4.286.32 8.761-2.55 10.423-6.917z"/><g class="st1"><path class="st2" d="M68.43 47.667c-1.228 0-1.651-.646-1.991-1.164l.33-.407-.417.275c-1.654-2.5-7.1-11.158-7.72-17.573-.54-5.581 1.083-9.053 2.802-12.728.37-.793.746-1.596 1.104-2.433 1.238-2.887 2.86-3.492 4.002-3.492a3.34 3.34 0 0 1 1.356.29 3.352 3.352 0 0 1 1.43-.328c1.117 0 2.718.587 4.007 3.384a77.07 77.07 0 0 0 1.194 2.443c1.818 3.618 3.535 7.034 3.148 12.608-.453 6.516-5.642 15.288-7.221 17.821l-.065.105c-.31.506-.734 1.199-1.959 1.199z"/><path class="st3" d="M69.326 10.607c1.011 0 2.391.572 3.553 3.093 2.125 4.611 4.76 8.147 4.297 14.807-.48 6.906-6.496 16.548-7.149 17.596-.326.524-.585 1.064-1.597 1.064s-1.287-.506-1.627-1.021c-.682-1.03-7.008-10.505-7.674-17.396-.642-6.645 1.87-10.25 3.87-14.917 1.12-2.614 2.523-3.188 3.542-3.188.799 0 1.36.354 1.36.354s.586-.392 1.425-.392m0-1c-.59 0-1.09.143-1.44.285a3.858 3.858 0 0 0-1.345-.247c-1.294 0-3.117.658-4.462 3.794a81.518 81.518 0 0 1-1.098 2.42c-1.749 3.738-3.4 7.27-2.847 12.987.614 6.359 5.662 14.57 7.804 17.805l.03.047.052.078c.363.554.911 1.39 2.41 1.39 1.504 0 2.055-.898 2.385-1.435l.06-.1c1.599-2.563 6.837-11.426 7.298-18.055.398-5.71-1.35-9.186-3.2-12.866a79.264 79.264 0 0 1-1.186-2.428c-1.399-3.037-3.198-3.675-4.461-3.675z"/></g><path class="st4" d="M67.902 9.999V6.823"/><path class="st5" d="M66.984 11.25s-2.625 2.625-4.125 8.125c-1.191 4.367-2.375 8.125-.5 14 1.406 4.406 4.875 12 4.875 12"/><path class="st5" d="M67.859 45.375S64.484 33 64.359 27.25s3.375-15.75 3.375-15.75"/><path class="st6" d="M69.097 13.692a12.87 12.87 0 0 0-.299-2.2c-.294-1.302-1.625-1.884-2.777-1.21-4.32 2.52-7.246 7.691-6.977 13.103.08 1.594.439 3.062 1.007 4.372 5.42-1.909 9.357-7.827 9.046-14.065z"/><path class="st7" d="M67.712 10.14c-.51-.215-1.122-.191-1.691.141-4.32 2.521-7.246 7.692-6.977 13.104.08 1.594.439 3.062 1.007 4.372.01-.003.019-.008.028-.012l7.633-17.605z"/><path class="st5" d="M69.609 45.375s3.344-7.594 4.75-12c1.875-5.875.69-9.633-.5-14-1.5-5.5-3.094-7.281-3.5-7.625-.385-.325-1.031-.594-1.469-.344"/><path class="st5" d="M68.984 11.5s3.5 10 3.375 15.75-3.5 18.125-3.5 18.125M67.734 11.5l.625 33.75m-1.084.208s.542.834 1.209.792c.666-.042 1.125-.875 1.125-.875"/></g><ellipse transform="rotate(-45.004 22.188 2.786)" class="st12" cx="22.188" cy="2.786" rx=".32" ry=".32"/><ellipse transform="rotate(-67.077 19.804 6.271)" class="st14" cx="19.804" cy="6.271" rx=".327" ry=".327"/><path class="st14" d="M22.642 3.24a.643.643 0 1 0-.909-.908.643.643 0 0 0 .91.909zm-.68-.68a.32.32 0 1 1 .452.453.32.32 0 0 1-.453-.453zm.99 8.648l.34 1.1.339-1.1a.66.66 0 0 1 .436-.436l1.1-.34-1.1-.339a.66.66 0 0 1-.436-.435l-.34-1.1-.339 1.1a.66.66 0 0 1-.435.435l-1.1.34 1.1.339a.66.66 0 0 1 .435.436zm.34-1.089a.313.313 0 1 1 0 .627.313.313 0 0 1 0-.627z"/><circle class="st12" cx="23.292" cy="10.433" r=".313"/></svg>