<?xml version="1.0" encoding="utf-8"?>
<!-- Generator: Adobe Illustrator 16.0.4, SVG Export Plug-In . SVG Version: 6.00 Build 0)  -->
<!DOCTYPE svg PUBLIC "-//W3C//DTD SVG 1.1//EN" "http://www.w3.org/Graphics/SVG/1.1/DTD/svg11.dtd">
<svg version="1.1" id="Layer_1" xmlns="http://www.w3.org/2000/svg" xmlns:xlink="http://www.w3.org/1999/xlink" x="0px" y="0px"
	 width="42px" height="42px" viewBox="0 0 42 42" enable-background="new 0 0 42 42" xml:space="preserve">
<circle fill-rule="evenodd" clip-rule="evenodd" cx="21" cy="21" r="20"/>
<path fill="#FFFFFF" d="M28.204,12.803c1.968,0.052,2.951,1.169,2.96,3.353c0,0.144-0.004,0.293-0.012,0.446
	c-0.087,1.854-1.465,4.375-4.141,7.568c-2.759,3.346-5.098,5.019-7.021,5.028c-1.195,0-2.189-1.025-2.985-3.073l-0.835-2.808
	l-0.83-2.807c-0.607-2.032-1.258-3.045-1.955-3.045c-0.152,0-0.681,0.296-1.584,0.886l-0.968-1.142l1.499-1.244l1.474-1.231
	c1.319-1.058,2.325-1.629,3.011-1.715c0.093-0.009,0.184-0.011,0.277-0.011c1.414,0,2.297,1.015,2.642,3.046
	c0.193,1.158,0.354,2.1,0.483,2.823c0.125,0.728,0.232,1.231,0.314,1.52c0.468,1.92,0.971,2.887,1.514,2.894
	c0.414,0,1.055-0.626,1.918-1.877c0.844-1.287,1.297-2.238,1.356-2.859c0.019-0.127,0.025-0.245,0.025-0.353
	c0-0.84-0.462-1.259-1.382-1.259c-0.467,0-0.965,0.099-1.5,0.291c0.957-2.947,2.794-4.421,5.511-4.432
	C28.053,12.803,28.127,12.803,28.204,12.803z"/>
</svg>
